M48
; DRILL file {KiCad (6.0.2)} date Wed Jul 13 14:28:36 2022
; FORMAT={-:-/ absolute / inch / decimal}
; #@! TF.CreationDate,2022-07-13T14:28:36+01:00
; #@! TF.GenerationSoftware,Kicad,Pcbnew,(6.0.2)
; #@! TF.FileFunction,Plated,1,4,PTH
FMAT,2
INCH
; #@! TA.AperFunction,Plated,PTH,ViaDrill
T1C0.0118
; #@! TA.AperFunction,Plated,PTH,ViaDrill
T2C0.0157
; #@! TA.AperFunction,Plated,PTH,ComponentDrill
T3C0.0157
; #@! TA.AperFunction,Plated,PTH,ComponentDrill
T4C0.0236
; #@! TA.AperFunction,Plated,PTH,ComponentDrill
T5C0.0394
; #@! TA.AperFunction,Plated,PTH,ComponentDrill
T6C0.0472
; #@! TA.AperFunction,Plated,PTH,ComponentDrill
T7C0.0551
; #@! TA.AperFunction,Plated,PTH,ComponentDrill
T8C0.1260
%
G90
G05
T1
X3.8299Y-1.8228
X3.8496Y-1.848
T2
X2.1909Y-2.3738
X2.1909Y-2.2953
X2.191Y-2.1778
X2.191Y-2.6088
X2.1911Y-2.5306
X2.1911Y-2.452
X2.1911Y-2.8439
X2.1912Y-2.687
X2.1912Y-2.7658
X2.3453Y-2.265
X2.3583Y-2.7945
X2.4686Y-3.1238
X2.4791Y-2.7657
X2.5031Y-2.6591
X2.5165Y-2.8201
X2.5669Y-2.498
X2.5729Y-1.8955
X2.5854Y-3.0248
X2.586Y-3.1237
X2.599Y-2.1395
X2.6201Y-2.0069
X2.6201Y-2.0531
X2.6673Y-2.8366
X2.6732Y-2.0067
X2.6736Y-2.0531
X2.687Y-2.6618
X2.7161Y-2.7665
X2.7287Y-2.0043
X2.7295Y-2.0512
X2.7313Y-2.5748
X2.7441Y-2.711
X2.7701Y-3.1239
X2.7726Y-2.5079
X2.7776Y-2.0049
X2.7776Y-2.0522
X2.7822Y-2.2638
X2.7878Y-2.8843
X2.8126Y-2.7488
X2.8445Y-1.3878
X2.8449Y-2.6445
X2.8457Y-1.2295
X2.8457Y-1.2689
X2.8457Y-1.3091
X2.8457Y-1.3484
X2.8465Y-2.5441
X2.8483Y-3.1237
X2.8567Y-1.8803
X2.8681Y-1.661
X2.876Y-1.3868
X2.889Y-2.8799
X2.8894Y-2.7654
X2.8929Y-1.726
X2.8949Y-2.6437
X2.9134Y-2.4315
X2.9173Y-1.3868
X2.9265Y-3.1235
X2.9417Y-1.8736
X2.9587Y-1.3878
X2.9637Y-2.0883
X2.9679Y-2.7324
X2.9772Y-2.3839
X2.998Y-1.3868
X3.0Y-2.3315
X3.0048Y-3.1237
X3.0067Y-2.174
X3.0404Y-1.4961
X3.0404Y-2.0393
X3.0413Y-1.4459
X3.0413Y-1.5463
X3.0493Y-2.8718
X3.0551Y-2.6496
X3.0609Y-1.6292
X3.0609Y-1.6607
X3.0611Y-1.6922
X3.0611Y-1.7237
X3.0768Y-2.4823
X3.0797Y-1.938
X3.0835Y-3.1237
X3.1161Y-2.1654
X3.14Y-1.621
X3.14Y-1.6526
X3.14Y-1.6841
X3.1402Y-1.7156
X3.1449Y-1.5899
X3.1461Y-1.5496
X3.1496Y-2.6496
X3.1583Y-2.7346
X3.1585Y-1.3868
X3.1585Y-1.4272
X3.1585Y-1.4675
X3.1585Y-1.5079
X3.1617Y-3.1235
X3.1742Y-2.1683
X3.1791Y-1.9026
X3.1801Y-1.8494
X3.1801Y-1.9547
X3.1945Y-2.4102
X3.1998Y-1.3858
X3.2008Y-2.6177
X3.2071Y-2.2429
X3.2126Y-2.8689
X3.2234Y-1.8051
X3.2234Y-1.8504
X3.2234Y-1.997
X3.2244Y-1.9026
X3.2244Y-1.9547
X3.2392Y-1.3848
X3.2404Y-3.1239
X3.2634Y-2.4673
X3.2756Y-1.8504
X3.2756Y-1.9026
X3.2766Y-1.8061
X3.2766Y-1.9547
X3.2766Y-1.998
X3.2768Y-2.3831
X3.2785Y-1.3858
X3.3106Y-2.4276
X3.3169Y-1.3858
X3.3186Y-3.1237
X3.3258Y-1.8504
X3.3268Y-1.9026
X3.3278Y-1.9537
X3.3278Y-1.998
X3.3287Y-1.8051
X3.3366Y-1.5699
X3.3553Y-1.7106
X3.3583Y-1.3858
X3.372Y-1.8504
X3.372Y-1.9537
X3.373Y-1.9026
X3.3748Y-2.4965
X3.3772Y-2.1677
X3.3968Y-3.1239
X3.3976Y-1.3858
X3.3996Y-2.2496
X3.4045Y-2.3307
X3.411Y-2.4346
X3.4124Y-2.8455
X3.4374Y-2.0429
X3.438Y-1.3858
X3.4417Y-1.7512
X3.4417Y-2.6563
X3.4439Y-2.7077
X3.4484Y-2.211
X3.452Y-2.0878
X3.4571Y-2.2673
X3.4669Y-1.2067
X3.4669Y-1.2461
X3.4669Y-1.2854
X3.4756Y-3.1239
X3.4957Y-1.7311
X3.5039Y-2.4331
X3.5039Y-2.5354
X3.5117Y-1.2069
X3.5157Y-2.8071
X3.5413Y-2.6732
X3.5512Y-2.2933
X3.5538Y-3.1237
X3.5787Y-1.6831
X3.587Y-1.752
X3.5886Y-2.361
X3.5894Y-2.4457
X3.5901Y-1.207
X3.5955Y-1.6289
X3.6358Y-1.9843
X3.6467Y-2.0648
X3.6644Y-2.7195
X3.6687Y-1.2068
X3.6715Y-3.1237
X3.6717Y-2.4476
X3.7067Y-2.4756
X3.7352Y-2.7096
X3.7413Y-2.1862
X3.7437Y-2.31
X3.747Y-1.2069
X3.7963Y-2.75
X3.8051Y-2.0886
X3.8115Y-2.3567
X3.824Y-1.9126
X3.8257Y-1.2069
X3.8346Y-2.8346
X3.8551Y-2.4685
X3.8602Y-3.1241
X3.8736Y-2.6921
X3.9362Y-1.6083
X3.9579Y-2.3791
X3.9646Y-2.8504
X3.9941Y-1.876
X3.9996Y-2.3362
X4.0315Y-2.1004
X4.0344Y-1.7441
X4.0386Y-1.6547
X4.0738Y-2.4843
X4.108Y-1.5897
X4.108Y-1.7074
X4.1081Y-1.629
X4.1082Y-1.668
X4.1083Y-1.5108
X4.1084Y-2.7651
X4.1086Y-2.8433
T3
X3.5486Y-1.4888
X3.5486Y-1.5419
X3.5821Y-1.4888
X3.5821Y-1.5419
X3.6156Y-1.4888
X3.6156Y-1.5419
X3.649Y-1.4888
X3.649Y-1.5419
X3.6825Y-1.4888
X3.6825Y-1.5419
X3.7159Y-1.4888
X3.7159Y-1.5419
X3.7494Y-1.4888
X3.7494Y-1.5419
X3.7829Y-1.4888
X3.7829Y-1.5419
T5
X2.9398Y-1.5681
X2.9398Y-1.6681
X3.9185Y-2.1717
X3.9185Y-2.2717
X4.061Y-2.1717
X4.061Y-2.2717
T6
X2.2587Y-2.2244
X2.2587Y-2.3228
X2.2587Y-2.4213
X2.2587Y-2.5197
X2.2587Y-2.6181
X2.2587Y-2.7165
X2.5463Y-1.2805
X2.6447Y-1.2805
X2.7431Y-1.2805
X3.5118Y-2.9606
X3.5118Y-3.0591
T7
X2.9656Y-2.8224
X2.9656Y-3.039
X3.1309Y-2.8224
X3.1309Y-3.039
X3.2963Y-2.8224
X3.2963Y-3.039
T8
X2.3031Y-1.3189
X2.3031Y-3.0118
X3.9961Y-1.3189
X3.9961Y-3.0118
T4
G00X3.4955Y-1.386
M15
G01X3.4955Y-1.3545
M16
G05
G00X3.4955Y-1.5329
M15
G01X3.4955Y-1.4738
M16
G05
G00X3.836Y-1.386
M15
G01X3.836Y-1.3545
M16
G05
G00X3.836Y-1.5329
M15
G01X3.836Y-1.4738
M16
G05
T0
M30
