%FSLAX45Y45*%
G04 Gerber Fmt 4.5, Leading zero omitted, Abs format (unit mm)*
G04 Created by KiCad (PCBNEW (6.0.2)) date 2022-07-14 22:42:06*
%MOMM*%
%LPD*%
G01*
G04 APERTURE LIST*
%TA.AperFunction,Profile*%
%ADD10C,0.100000*%
%TD*%
%ADD11C,0.200000*%
%ADD12C,0.030000*%
%ADD13C,0.040000*%
%ADD14C,0.060000*%
%ADD15C,0.100000*%
%ADD16C,0.120000*%
%ADD17C,0.140000*%
%ADD18C,0.320000*%
G04 APERTURE END LIST*
D10*
X10500000Y-3350000D02*
G75*
G03*
X10150000Y-3000000I-350000J0D01*
G01*
X5850000Y-3000000D02*
G75*
G03*
X5500000Y-3350000I0J-350000D01*
G01*
X10150000Y-8000000D02*
X5850000Y-8000000D01*
X5500000Y-7650000D02*
X5500000Y-3350000D01*
X5500000Y-7650000D02*
G75*
G03*
X5850000Y-8000000I350000J0D01*
G01*
X5850000Y-3000000D02*
X10150000Y-3000000D01*
X10500000Y-3350000D02*
X10500000Y-7650000D01*
X10150000Y-8000000D02*
G75*
G03*
X10500000Y-7650000I0J350000D01*
G01*
D11*
D12*
X9713000Y-4615000D02*
X9743000Y-4645000D01*
X9743000Y-4615000D02*
X9713000Y-4645000D01*
X9763000Y-4679000D02*
X9793000Y-4709000D01*
X9793000Y-4679000D02*
X9763000Y-4709000D01*
D13*
X5584900Y-6029400D02*
G75*
G03*
X5584900Y-6029400I-20000J0D01*
G01*
X5585000Y-5830000D02*
G75*
G03*
X5585000Y-5830000I-20000J0D01*
G01*
X5585100Y-5531500D02*
G75*
G03*
X5585100Y-5531500I-20000J0D01*
G01*
X5585100Y-6626300D02*
G75*
G03*
X5585100Y-6626300I-20000J0D01*
G01*
X5585300Y-6427800D02*
G75*
G03*
X5585300Y-6427800I-20000J0D01*
G01*
X5585400Y-6228100D02*
G75*
G03*
X5585400Y-6228100I-20000J0D01*
G01*
X5585400Y-7223600D02*
G75*
G03*
X5585400Y-7223600I-20000J0D01*
G01*
X5585600Y-6825000D02*
G75*
G03*
X5585600Y-6825000I-20000J0D01*
G01*
X5585600Y-7025100D02*
G75*
G03*
X5585600Y-7025100I-20000J0D01*
G01*
X5977000Y-5753000D02*
G75*
G03*
X5977000Y-5753000I-20000J0D01*
G01*
X6010000Y-7098000D02*
G75*
G03*
X6010000Y-7098000I-20000J0D01*
G01*
X6290200Y-7934400D02*
G75*
G03*
X6290200Y-7934400I-20000J0D01*
G01*
X6317000Y-7025000D02*
G75*
G03*
X6317000Y-7025000I-20000J0D01*
G01*
X6378000Y-6754000D02*
G75*
G03*
X6378000Y-6754000I-20000J0D01*
G01*
X6412000Y-7163000D02*
G75*
G03*
X6412000Y-7163000I-20000J0D01*
G01*
X6540000Y-6345000D02*
G75*
G03*
X6540000Y-6345000I-20000J0D01*
G01*
X6555204Y-4814452D02*
G75*
G03*
X6555204Y-4814452I-20000J0D01*
G01*
X6586900Y-7683100D02*
G75*
G03*
X6586900Y-7683100I-20000J0D01*
G01*
X6588500Y-7934300D02*
G75*
G03*
X6588500Y-7934300I-20000J0D01*
G01*
X6621500Y-5434252D02*
G75*
G03*
X6621500Y-5434252I-20000J0D01*
G01*
X6675000Y-5097500D02*
G75*
G03*
X6675000Y-5097500I-20000J0D01*
G01*
X6675000Y-5215000D02*
G75*
G03*
X6675000Y-5215000I-20000J0D01*
G01*
X6795000Y-7205000D02*
G75*
G03*
X6795000Y-7205000I-20000J0D01*
G01*
X6810000Y-5097000D02*
G75*
G03*
X6810000Y-5097000I-20000J0D01*
G01*
X6811000Y-5215000D02*
G75*
G03*
X6811000Y-5215000I-20000J0D01*
G01*
X6845000Y-6761000D02*
G75*
G03*
X6845000Y-6761000I-20000J0D01*
G01*
X6919000Y-7027000D02*
G75*
G03*
X6919000Y-7027000I-20000J0D01*
G01*
X6951000Y-5091000D02*
G75*
G03*
X6951000Y-5091000I-20000J0D01*
G01*
X6953000Y-5210000D02*
G75*
G03*
X6953000Y-5210000I-20000J0D01*
G01*
X6957500Y-6540000D02*
G75*
G03*
X6957500Y-6540000I-20000J0D01*
G01*
X6990000Y-6886000D02*
G75*
G03*
X6990000Y-6886000I-20000J0D01*
G01*
X7056100Y-7934600D02*
G75*
G03*
X7056100Y-7934600I-20000J0D01*
G01*
X7062500Y-6370000D02*
G75*
G03*
X7062500Y-6370000I-20000J0D01*
G01*
X7075000Y-5092500D02*
G75*
G03*
X7075000Y-5092500I-20000J0D01*
G01*
X7075000Y-5212500D02*
G75*
G03*
X7075000Y-5212500I-20000J0D01*
G01*
X7086823Y-5749990D02*
G75*
G03*
X7086823Y-5749990I-20000J0D01*
G01*
X7101000Y-7326000D02*
G75*
G03*
X7101000Y-7326000I-20000J0D01*
G01*
X7164000Y-6982000D02*
G75*
G03*
X7164000Y-6982000I-20000J0D01*
G01*
X7245000Y-3525000D02*
G75*
G03*
X7245000Y-3525000I-20000J0D01*
G01*
X7246000Y-6717000D02*
G75*
G03*
X7246000Y-6717000I-20000J0D01*
G01*
X7248000Y-3123000D02*
G75*
G03*
X7248000Y-3123000I-20000J0D01*
G01*
X7248000Y-3223000D02*
G75*
G03*
X7248000Y-3223000I-20000J0D01*
G01*
X7248000Y-3325000D02*
G75*
G03*
X7248000Y-3325000I-20000J0D01*
G01*
X7248000Y-3425000D02*
G75*
G03*
X7248000Y-3425000I-20000J0D01*
G01*
X7250000Y-6462000D02*
G75*
G03*
X7250000Y-6462000I-20000J0D01*
G01*
X7254800Y-7934100D02*
G75*
G03*
X7254800Y-7934100I-20000J0D01*
G01*
X7276000Y-4776000D02*
G75*
G03*
X7276000Y-4776000I-20000J0D01*
G01*
X7305000Y-4219000D02*
G75*
G03*
X7305000Y-4219000I-20000J0D01*
G01*
X7325000Y-3522500D02*
G75*
G03*
X7325000Y-3522500I-20000J0D01*
G01*
X7358000Y-7315000D02*
G75*
G03*
X7358000Y-7315000I-20000J0D01*
G01*
X7359000Y-7024000D02*
G75*
G03*
X7359000Y-7024000I-20000J0D01*
G01*
X7368000Y-4384000D02*
G75*
G03*
X7368000Y-4384000I-20000J0D01*
G01*
X7373000Y-6715000D02*
G75*
G03*
X7373000Y-6715000I-20000J0D01*
G01*
X7420000Y-6176000D02*
G75*
G03*
X7420000Y-6176000I-20000J0D01*
G01*
X7430000Y-3522500D02*
G75*
G03*
X7430000Y-3522500I-20000J0D01*
G01*
X7453300Y-7933800D02*
G75*
G03*
X7453300Y-7933800I-20000J0D01*
G01*
X7492000Y-4759000D02*
G75*
G03*
X7492000Y-4759000I-20000J0D01*
G01*
X7535000Y-3525000D02*
G75*
G03*
X7535000Y-3525000I-20000J0D01*
G01*
X7547800Y-5304300D02*
G75*
G03*
X7547800Y-5304300I-20000J0D01*
G01*
X7558400Y-6940400D02*
G75*
G03*
X7558400Y-6940400I-20000J0D01*
G01*
X7582000Y-6055000D02*
G75*
G03*
X7582000Y-6055000I-20000J0D01*
G01*
X7635000Y-3522500D02*
G75*
G03*
X7635000Y-3522500I-20000J0D01*
G01*
X7640000Y-5922000D02*
G75*
G03*
X7640000Y-5922000I-20000J0D01*
G01*
X7652100Y-7934200D02*
G75*
G03*
X7652100Y-7934200I-20000J0D01*
G01*
X7657000Y-5522000D02*
G75*
G03*
X7657000Y-5522000I-20000J0D01*
G01*
X7742700Y-5179700D02*
G75*
G03*
X7742700Y-5179700I-20000J0D01*
G01*
X7765200Y-7294400D02*
G75*
G03*
X7765200Y-7294400I-20000J0D01*
G01*
X7780000Y-6730000D02*
G75*
G03*
X7780000Y-6730000I-20000J0D01*
G01*
X7783500Y-3802500D02*
G75*
G03*
X7783500Y-3802500I-20000J0D01*
G01*
X7786000Y-3675000D02*
G75*
G03*
X7786000Y-3675000I-20000J0D01*
G01*
X7786000Y-3930000D02*
G75*
G03*
X7786000Y-3930000I-20000J0D01*
G01*
X7811581Y-4136018D02*
G75*
G03*
X7811581Y-4136018I-20000J0D01*
G01*
X7811581Y-4215968D02*
G75*
G03*
X7811581Y-4215968I-20000J0D01*
G01*
X7812000Y-4296000D02*
G75*
G03*
X7812000Y-4296000I-20000J0D01*
G01*
X7812000Y-4376000D02*
G75*
G03*
X7812000Y-4376000I-20000J0D01*
G01*
X7835000Y-6305000D02*
G75*
G03*
X7835000Y-6305000I-20000J0D01*
G01*
X7842500Y-4922500D02*
G75*
G03*
X7842500Y-4922500I-20000J0D01*
G01*
X7852100Y-7934200D02*
G75*
G03*
X7852100Y-7934200I-20000J0D01*
G01*
X7935000Y-5500000D02*
G75*
G03*
X7935000Y-5500000I-20000J0D01*
G01*
X7978320Y-4279154D02*
G75*
G03*
X7978320Y-4279154I-20000J0D01*
G01*
X7978320Y-4359162D02*
G75*
G03*
X7978320Y-4359162I-20000J0D01*
G01*
X7979000Y-4198908D02*
G75*
G03*
X7979000Y-4198908I-20000J0D01*
G01*
X7984000Y-4119000D02*
G75*
G03*
X7984000Y-4119000I-20000J0D01*
G01*
X7999000Y-3963000D02*
G75*
G03*
X7999000Y-3963000I-20000J0D01*
G01*
X8008000Y-4043000D02*
G75*
G03*
X8008000Y-4043000I-20000J0D01*
G01*
X8009000Y-3720000D02*
G75*
G03*
X8009000Y-3720000I-20000J0D01*
G01*
X8009000Y-3800000D02*
G75*
G03*
X8009000Y-3800000I-20000J0D01*
G01*
X8010000Y-3881000D02*
G75*
G03*
X8010000Y-3881000I-20000J0D01*
G01*
X8011000Y-3623000D02*
G75*
G03*
X8011000Y-3623000I-20000J0D01*
G01*
X8020000Y-6730000D02*
G75*
G03*
X8020000Y-6730000I-20000J0D01*
G01*
X8042000Y-6946000D02*
G75*
G03*
X8042000Y-6946000I-20000J0D01*
G01*
X8042500Y-3522500D02*
G75*
G03*
X8042500Y-3522500I-20000J0D01*
G01*
X8050800Y-7933700D02*
G75*
G03*
X8050800Y-7933700I-20000J0D01*
G01*
X8082500Y-5507500D02*
G75*
G03*
X8082500Y-5507500I-20000J0D01*
G01*
X8095000Y-4832500D02*
G75*
G03*
X8095000Y-4832500I-20000J0D01*
G01*
X8097500Y-4697500D02*
G75*
G03*
X8097500Y-4697500I-20000J0D01*
G01*
X8097500Y-4965000D02*
G75*
G03*
X8097500Y-4965000I-20000J0D01*
G01*
X8134000Y-6122000D02*
G75*
G03*
X8134000Y-6122000I-20000J0D01*
G01*
X8147500Y-3520000D02*
G75*
G03*
X8147500Y-3520000I-20000J0D01*
G01*
X8150000Y-6649000D02*
G75*
G03*
X8150000Y-6649000I-20000J0D01*
G01*
X8166000Y-5697000D02*
G75*
G03*
X8166000Y-5697000I-20000J0D01*
G01*
X8180000Y-7287000D02*
G75*
G03*
X8180000Y-7287000I-20000J0D01*
G01*
X8207500Y-4585000D02*
G75*
G03*
X8207500Y-4585000I-20000J0D01*
G01*
X8207500Y-4700000D02*
G75*
G03*
X8207500Y-4700000I-20000J0D01*
G01*
X8207500Y-5072500D02*
G75*
G03*
X8207500Y-5072500I-20000J0D01*
G01*
X8210000Y-4832500D02*
G75*
G03*
X8210000Y-4832500I-20000J0D01*
G01*
X8210000Y-4965000D02*
G75*
G03*
X8210000Y-4965000I-20000J0D01*
G01*
X8247500Y-3517500D02*
G75*
G03*
X8247500Y-3517500I-20000J0D01*
G01*
X8250600Y-7934700D02*
G75*
G03*
X8250600Y-7934700I-20000J0D01*
G01*
X8309000Y-6267000D02*
G75*
G03*
X8309000Y-6267000I-20000J0D01*
G01*
X8340000Y-4700000D02*
G75*
G03*
X8340000Y-4700000I-20000J0D01*
G01*
X8340000Y-4832500D02*
G75*
G03*
X8340000Y-4832500I-20000J0D01*
G01*
X8342500Y-4587500D02*
G75*
G03*
X8342500Y-4587500I-20000J0D01*
G01*
X8342500Y-4965000D02*
G75*
G03*
X8342500Y-4965000I-20000J0D01*
G01*
X8342500Y-5075000D02*
G75*
G03*
X8342500Y-5075000I-20000J0D01*
G01*
X8343000Y-6053000D02*
G75*
G03*
X8343000Y-6053000I-20000J0D01*
G01*
X8347500Y-3520000D02*
G75*
G03*
X8347500Y-3520000I-20000J0D01*
G01*
X8429000Y-6166000D02*
G75*
G03*
X8429000Y-6166000I-20000J0D01*
G01*
X8445000Y-3520000D02*
G75*
G03*
X8445000Y-3520000I-20000J0D01*
G01*
X8449300Y-7934200D02*
G75*
G03*
X8449300Y-7934200I-20000J0D01*
G01*
X8467500Y-4700000D02*
G75*
G03*
X8467500Y-4700000I-20000J0D01*
G01*
X8470000Y-4832500D02*
G75*
G03*
X8470000Y-4832500I-20000J0D01*
G01*
X8472500Y-4962500D02*
G75*
G03*
X8472500Y-4962500I-20000J0D01*
G01*
X8472500Y-5075000D02*
G75*
G03*
X8472500Y-5075000I-20000J0D01*
G01*
X8475000Y-4585000D02*
G75*
G03*
X8475000Y-4585000I-20000J0D01*
G01*
X8495000Y-3987500D02*
G75*
G03*
X8495000Y-3987500I-20000J0D01*
G01*
X8542500Y-4345000D02*
G75*
G03*
X8542500Y-4345000I-20000J0D01*
G01*
X8550000Y-3520000D02*
G75*
G03*
X8550000Y-3520000I-20000J0D01*
G01*
X8585000Y-4700000D02*
G75*
G03*
X8585000Y-4700000I-20000J0D01*
G01*
X8585000Y-4962500D02*
G75*
G03*
X8585000Y-4962500I-20000J0D01*
G01*
X8587500Y-4832500D02*
G75*
G03*
X8587500Y-4832500I-20000J0D01*
G01*
X8592000Y-6341000D02*
G75*
G03*
X8592000Y-6341000I-20000J0D01*
G01*
X8598000Y-5506000D02*
G75*
G03*
X8598000Y-5506000I-20000J0D01*
G01*
X8647900Y-7934700D02*
G75*
G03*
X8647900Y-7934700I-20000J0D01*
G01*
X8650000Y-3520000D02*
G75*
G03*
X8650000Y-3520000I-20000J0D01*
G01*
X8655000Y-5714000D02*
G75*
G03*
X8655000Y-5714000I-20000J0D01*
G01*
X8667500Y-5920000D02*
G75*
G03*
X8667500Y-5920000I-20000J0D01*
G01*
X8684000Y-6184000D02*
G75*
G03*
X8684000Y-6184000I-20000J0D01*
G01*
X8687500Y-7227500D02*
G75*
G03*
X8687500Y-7227500I-20000J0D01*
G01*
X8751000Y-5189000D02*
G75*
G03*
X8751000Y-5189000I-20000J0D01*
G01*
X8752500Y-3520000D02*
G75*
G03*
X8752500Y-3520000I-20000J0D01*
G01*
X8762000Y-4448000D02*
G75*
G03*
X8762000Y-4448000I-20000J0D01*
G01*
X8762000Y-6747000D02*
G75*
G03*
X8762000Y-6747000I-20000J0D01*
G01*
X8767500Y-6877500D02*
G75*
G03*
X8767500Y-6877500I-20000J0D01*
G01*
X8779000Y-5616000D02*
G75*
G03*
X8779000Y-5616000I-20000J0D01*
G01*
X8788000Y-5303000D02*
G75*
G03*
X8788000Y-5303000I-20000J0D01*
G01*
X8801000Y-5759000D02*
G75*
G03*
X8801000Y-5759000I-20000J0D01*
G01*
X8826000Y-3065000D02*
G75*
G03*
X8826000Y-3065000I-20000J0D01*
G01*
X8826000Y-3165000D02*
G75*
G03*
X8826000Y-3165000I-20000J0D01*
G01*
X8826000Y-3265000D02*
G75*
G03*
X8826000Y-3265000I-20000J0D01*
G01*
X8848000Y-7934800D02*
G75*
G03*
X8848000Y-7934800I-20000J0D01*
G01*
X8899000Y-4397000D02*
G75*
G03*
X8899000Y-4397000I-20000J0D01*
G01*
X8920000Y-6180000D02*
G75*
G03*
X8920000Y-6180000I-20000J0D01*
G01*
X8920000Y-6440000D02*
G75*
G03*
X8920000Y-6440000I-20000J0D01*
G01*
X8939700Y-3065400D02*
G75*
G03*
X8939700Y-3065400I-20000J0D01*
G01*
X8950000Y-7130000D02*
G75*
G03*
X8950000Y-7130000I-20000J0D01*
G01*
X9015000Y-6790000D02*
G75*
G03*
X9015000Y-6790000I-20000J0D01*
G01*
X9040000Y-5825000D02*
G75*
G03*
X9040000Y-5825000I-20000J0D01*
G01*
X9046700Y-7934300D02*
G75*
G03*
X9046700Y-7934300I-20000J0D01*
G01*
X9110000Y-4275000D02*
G75*
G03*
X9110000Y-4275000I-20000J0D01*
G01*
X9131000Y-4450000D02*
G75*
G03*
X9131000Y-4450000I-20000J0D01*
G01*
X9135000Y-5996974D02*
G75*
G03*
X9135000Y-5996974I-20000J0D01*
G01*
X9137000Y-6212000D02*
G75*
G03*
X9137000Y-6212000I-20000J0D01*
G01*
X9138800Y-3065700D02*
G75*
G03*
X9138800Y-3065700I-20000J0D01*
G01*
X9152500Y-4137500D02*
G75*
G03*
X9152500Y-4137500I-20000J0D01*
G01*
X9255000Y-5040000D02*
G75*
G03*
X9255000Y-5040000I-20000J0D01*
G01*
X9282500Y-5244523D02*
G75*
G03*
X9282500Y-5244523I-20000J0D01*
G01*
X9327500Y-6907500D02*
G75*
G03*
X9327500Y-6907500I-20000J0D01*
G01*
X9338400Y-3065200D02*
G75*
G03*
X9338400Y-3065200I-20000J0D01*
G01*
X9345600Y-7934300D02*
G75*
G03*
X9345600Y-7934300I-20000J0D01*
G01*
X9346000Y-6217000D02*
G75*
G03*
X9346000Y-6217000I-20000J0D01*
G01*
X9435000Y-6288000D02*
G75*
G03*
X9435000Y-6288000I-20000J0D01*
G01*
X9507500Y-6882500D02*
G75*
G03*
X9507500Y-6882500I-20000J0D01*
G01*
X9523000Y-5553000D02*
G75*
G03*
X9523000Y-5553000I-20000J0D01*
G01*
X9529000Y-5867523D02*
G75*
G03*
X9529000Y-5867523I-20000J0D01*
G01*
X9537500Y-3065500D02*
G75*
G03*
X9537500Y-3065500I-20000J0D01*
G01*
X9662500Y-6985000D02*
G75*
G03*
X9662500Y-6985000I-20000J0D01*
G01*
X9685000Y-5305000D02*
G75*
G03*
X9685000Y-5305000I-20000J0D01*
G01*
X9701086Y-5986000D02*
G75*
G03*
X9701086Y-5986000I-20000J0D01*
G01*
X9733000Y-4858000D02*
G75*
G03*
X9733000Y-4858000I-20000J0D01*
G01*
X9737200Y-3065500D02*
G75*
G03*
X9737200Y-3065500I-20000J0D01*
G01*
X9760000Y-7200000D02*
G75*
G03*
X9760000Y-7200000I-20000J0D01*
G01*
X9812000Y-6270000D02*
G75*
G03*
X9812000Y-6270000I-20000J0D01*
G01*
X9824800Y-7935100D02*
G75*
G03*
X9824800Y-7935100I-20000J0D01*
G01*
X9859000Y-6838000D02*
G75*
G03*
X9859000Y-6838000I-20000J0D01*
G01*
X10018000Y-4085000D02*
G75*
G03*
X10018000Y-4085000I-20000J0D01*
G01*
X10073000Y-6043000D02*
G75*
G03*
X10073000Y-6043000I-20000J0D01*
G01*
X10090000Y-7240000D02*
G75*
G03*
X10090000Y-7240000I-20000J0D01*
G01*
X10165000Y-4765000D02*
G75*
G03*
X10165000Y-4765000I-20000J0D01*
G01*
X10179000Y-5934000D02*
G75*
G03*
X10179000Y-5934000I-20000J0D01*
G01*
X10260000Y-5335000D02*
G75*
G03*
X10260000Y-5335000I-20000J0D01*
G01*
X10267500Y-4430000D02*
G75*
G03*
X10267500Y-4430000I-20000J0D01*
G01*
X10278000Y-4203000D02*
G75*
G03*
X10278000Y-4203000I-20000J0D01*
G01*
X10367500Y-6310000D02*
G75*
G03*
X10367500Y-6310000I-20000J0D01*
G01*
X10454400Y-4037900D02*
G75*
G03*
X10454400Y-4037900I-20000J0D01*
G01*
X10454400Y-4336800D02*
G75*
G03*
X10454400Y-4336800I-20000J0D01*
G01*
X10454700Y-4137700D02*
G75*
G03*
X10454700Y-4137700I-20000J0D01*
G01*
X10454900Y-4236600D02*
G75*
G03*
X10454900Y-4236600I-20000J0D01*
G01*
X10455000Y-3837400D02*
G75*
G03*
X10455000Y-3837400I-20000J0D01*
G01*
X10455300Y-7023300D02*
G75*
G03*
X10455300Y-7023300I-20000J0D01*
G01*
X10455800Y-7222000D02*
G75*
G03*
X10455800Y-7222000I-20000J0D01*
G01*
X9013500Y-3761500D02*
X9013500Y-3801500D01*
X8993500Y-3781500D02*
X9033500Y-3781500D01*
X9013500Y-3896500D02*
X9013500Y-3936500D01*
X8993500Y-3916500D02*
X9033500Y-3916500D01*
X9098500Y-3761500D02*
X9098500Y-3801500D01*
X9078500Y-3781500D02*
X9118500Y-3781500D01*
X9098500Y-3896500D02*
X9098500Y-3936500D01*
X9078500Y-3916500D02*
X9118500Y-3916500D01*
X9183500Y-3761500D02*
X9183500Y-3801500D01*
X9163500Y-3781500D02*
X9203500Y-3781500D01*
X9183500Y-3896500D02*
X9183500Y-3936500D01*
X9163500Y-3916500D02*
X9203500Y-3916500D01*
X9268500Y-3761500D02*
X9268500Y-3801500D01*
X9248500Y-3781500D02*
X9288500Y-3781500D01*
X9268500Y-3896500D02*
X9268500Y-3936500D01*
X9248500Y-3916500D02*
X9288500Y-3916500D01*
X9353500Y-3761500D02*
X9353500Y-3801500D01*
X9333500Y-3781500D02*
X9373500Y-3781500D01*
X9353500Y-3896500D02*
X9353500Y-3936500D01*
X9333500Y-3916500D02*
X9373500Y-3916500D01*
X9438500Y-3761500D02*
X9438500Y-3801500D01*
X9418500Y-3781500D02*
X9458500Y-3781500D01*
X9438500Y-3896500D02*
X9438500Y-3936500D01*
X9418500Y-3916500D02*
X9458500Y-3916500D01*
X9523500Y-3761500D02*
X9523500Y-3801500D01*
X9503500Y-3781500D02*
X9543500Y-3781500D01*
X9523500Y-3896500D02*
X9523500Y-3936500D01*
X9503500Y-3916500D02*
X9543500Y-3916500D01*
X9608500Y-3761500D02*
X9608500Y-3801500D01*
X9588500Y-3781500D02*
X9628500Y-3781500D01*
X9608500Y-3896500D02*
X9608500Y-3936500D01*
X9588500Y-3916500D02*
X9628500Y-3916500D01*
D14*
X8899713Y-3501713D02*
X8899713Y-3459287D01*
X8857287Y-3459287D01*
X8857287Y-3501713D01*
X8899713Y-3501713D01*
D11*
X8898500Y-3520500D02*
X8898500Y-3440500D01*
X8858500Y-3520500D02*
X8858500Y-3440500D01*
X8898500Y-3440500D02*
G75*
G03*
X8858500Y-3440500I-20000J0D01*
G01*
X8858500Y-3520500D02*
G75*
G03*
X8898500Y-3520500I20000J0D01*
G01*
D14*
X8899713Y-3839713D02*
X8899713Y-3797287D01*
X8857287Y-3797287D01*
X8857287Y-3839713D01*
X8899713Y-3839713D01*
D11*
X8898500Y-3893500D02*
X8898500Y-3743500D01*
X8858500Y-3893500D02*
X8858500Y-3743500D01*
X8898500Y-3743500D02*
G75*
G03*
X8858500Y-3743500I-20000J0D01*
G01*
X8858500Y-3893500D02*
G75*
G03*
X8898500Y-3893500I20000J0D01*
G01*
D14*
X9764713Y-3501713D02*
X9764713Y-3459287D01*
X9722287Y-3459287D01*
X9722287Y-3501713D01*
X9764713Y-3501713D01*
D11*
X9763500Y-3520500D02*
X9763500Y-3440500D01*
X9723500Y-3520500D02*
X9723500Y-3440500D01*
X9763500Y-3440500D02*
G75*
G03*
X9723500Y-3440500I-20000J0D01*
G01*
X9723500Y-3520500D02*
G75*
G03*
X9763500Y-3520500I20000J0D01*
G01*
D14*
X9764713Y-3839713D02*
X9764713Y-3797287D01*
X9722287Y-3797287D01*
X9722287Y-3839713D01*
X9764713Y-3839713D01*
D11*
X9763500Y-3893500D02*
X9763500Y-3743500D01*
X9723500Y-3893500D02*
X9723500Y-3743500D01*
X9763500Y-3743500D02*
G75*
G03*
X9723500Y-3743500I-20000J0D01*
G01*
X9723500Y-3893500D02*
G75*
G03*
X9763500Y-3893500I20000J0D01*
G01*
D15*
X7467000Y-4033000D02*
X7517000Y-3983000D01*
X7467000Y-3933000D01*
X7417000Y-3983000D01*
X7467000Y-4033000D01*
X7467000Y-4287000D02*
X7517000Y-4237000D01*
X7467000Y-4187000D01*
X7417000Y-4237000D01*
X7467000Y-4287000D01*
X9953086Y-5566000D02*
X10003086Y-5516000D01*
X9953086Y-5466000D01*
X9903086Y-5516000D01*
X9953086Y-5566000D01*
X9953086Y-5820000D02*
X10003086Y-5770000D01*
X9953086Y-5720000D01*
X9903086Y-5770000D01*
X9953086Y-5820000D01*
X10315000Y-5566000D02*
X10365000Y-5516000D01*
X10315000Y-5466000D01*
X10265000Y-5516000D01*
X10315000Y-5566000D01*
X10315000Y-5820000D02*
X10365000Y-5770000D01*
X10315000Y-5720000D01*
X10265000Y-5770000D01*
X10315000Y-5820000D01*
D16*
X5677000Y-5590000D02*
X5797000Y-5710000D01*
X5797000Y-5590000D02*
X5677000Y-5710000D01*
X5797000Y-5650000D02*
G75*
G03*
X5797000Y-5650000I-60000J0D01*
G01*
X5677000Y-5840000D02*
X5797000Y-5960000D01*
X5797000Y-5840000D02*
X5677000Y-5960000D01*
X5797000Y-5900000D02*
G75*
G03*
X5797000Y-5900000I-60000J0D01*
G01*
X5677000Y-6090000D02*
X5797000Y-6210000D01*
X5797000Y-6090000D02*
X5677000Y-6210000D01*
X5797000Y-6150000D02*
G75*
G03*
X5797000Y-6150000I-60000J0D01*
G01*
X5677000Y-6340000D02*
X5797000Y-6460000D01*
X5797000Y-6340000D02*
X5677000Y-6460000D01*
X5797000Y-6400000D02*
G75*
G03*
X5797000Y-6400000I-60000J0D01*
G01*
X5677000Y-6590000D02*
X5797000Y-6710000D01*
X5797000Y-6590000D02*
X5677000Y-6710000D01*
X5797000Y-6650000D02*
G75*
G03*
X5797000Y-6650000I-60000J0D01*
G01*
X5677000Y-6840000D02*
X5797000Y-6960000D01*
X5797000Y-6840000D02*
X5677000Y-6960000D01*
X5797000Y-6900000D02*
G75*
G03*
X5797000Y-6900000I-60000J0D01*
G01*
X6407500Y-3192500D02*
X6527500Y-3312500D01*
X6527500Y-3192500D02*
X6407500Y-3312500D01*
X6527500Y-3252500D02*
G75*
G03*
X6527500Y-3252500I-60000J0D01*
G01*
X6657500Y-3192500D02*
X6777500Y-3312500D01*
X6777500Y-3192500D02*
X6657500Y-3312500D01*
X6777500Y-3252500D02*
G75*
G03*
X6777500Y-3252500I-60000J0D01*
G01*
X6907500Y-3192500D02*
X7027500Y-3312500D01*
X7027500Y-3192500D02*
X6907500Y-3312500D01*
X7027500Y-3252500D02*
G75*
G03*
X7027500Y-3252500I-60000J0D01*
G01*
X8860000Y-7460000D02*
X8980000Y-7580000D01*
X8980000Y-7460000D02*
X8860000Y-7580000D01*
X8980000Y-7520000D02*
G75*
G03*
X8980000Y-7520000I-60000J0D01*
G01*
X8860000Y-7710000D02*
X8980000Y-7830000D01*
X8980000Y-7710000D02*
X8860000Y-7830000D01*
X8980000Y-7770000D02*
G75*
G03*
X8980000Y-7770000I-60000J0D01*
G01*
D17*
X7462500Y-7099000D02*
X7602500Y-7239000D01*
X7602500Y-7099000D02*
X7462500Y-7239000D01*
X7532500Y-7099000D02*
X7532500Y-7239000D01*
X7462500Y-7169000D02*
X7602500Y-7169000D01*
X7462500Y-7649000D02*
X7602500Y-7789000D01*
X7602500Y-7649000D02*
X7462500Y-7789000D01*
X7532500Y-7649000D02*
X7532500Y-7789000D01*
X7462500Y-7719000D02*
X7602500Y-7719000D01*
X7882500Y-7099000D02*
X8022500Y-7239000D01*
X8022500Y-7099000D02*
X7882500Y-7239000D01*
X7952500Y-7099000D02*
X7952500Y-7239000D01*
X7882500Y-7169000D02*
X8022500Y-7169000D01*
X7882500Y-7649000D02*
X8022500Y-7789000D01*
X8022500Y-7649000D02*
X7882500Y-7789000D01*
X7952500Y-7649000D02*
X7952500Y-7789000D01*
X7882500Y-7719000D02*
X8022500Y-7719000D01*
X8302500Y-7099000D02*
X8442500Y-7239000D01*
X8442500Y-7099000D02*
X8302500Y-7239000D01*
X8372500Y-7099000D02*
X8372500Y-7239000D01*
X8302500Y-7169000D02*
X8442500Y-7169000D01*
X8302500Y-7649000D02*
X8442500Y-7789000D01*
X8442500Y-7649000D02*
X8302500Y-7789000D01*
X8372500Y-7649000D02*
X8372500Y-7789000D01*
X8302500Y-7719000D02*
X8442500Y-7719000D01*
D18*
X5690000Y-3190000D02*
X6010000Y-3510000D01*
X6010000Y-3190000D02*
X5690000Y-3510000D01*
X5963138Y-3463138D02*
X5963138Y-3236862D01*
X5736862Y-3236862D01*
X5736862Y-3463138D01*
X5963138Y-3463138D01*
X5690000Y-7490000D02*
X6010000Y-7810000D01*
X6010000Y-7490000D02*
X5690000Y-7810000D01*
X5963138Y-7763138D02*
X5963138Y-7536862D01*
X5736862Y-7536862D01*
X5736862Y-7763138D01*
X5963138Y-7763138D01*
X9990000Y-3190000D02*
X10310000Y-3510000D01*
X10310000Y-3190000D02*
X9990000Y-3510000D01*
X10263138Y-3463138D02*
X10263138Y-3236862D01*
X10036862Y-3236862D01*
X10036862Y-3463138D01*
X10263138Y-3463138D01*
X9990000Y-7490000D02*
X10310000Y-7810000D01*
X10310000Y-7490000D02*
X9990000Y-7810000D01*
X10263138Y-7763138D02*
X10263138Y-7536862D01*
X10036862Y-7536862D01*
X10036862Y-7763138D01*
X10263138Y-7763138D01*
D11*
X5752619Y-8315476D02*
X5752619Y-8115476D01*
X5800238Y-8115476D01*
X5828809Y-8125000D01*
X5847857Y-8144048D01*
X5857381Y-8163095D01*
X5866905Y-8201190D01*
X5866905Y-8229762D01*
X5857381Y-8267857D01*
X5847857Y-8286905D01*
X5828809Y-8305952D01*
X5800238Y-8315476D01*
X5752619Y-8315476D01*
X5952619Y-8315476D02*
X5952619Y-8182143D01*
X5952619Y-8220238D02*
X5962143Y-8201190D01*
X5971667Y-8191667D01*
X5990714Y-8182143D01*
X6009762Y-8182143D01*
X6076428Y-8315476D02*
X6076428Y-8182143D01*
X6076428Y-8115476D02*
X6066905Y-8125000D01*
X6076428Y-8134524D01*
X6085952Y-8125000D01*
X6076428Y-8115476D01*
X6076428Y-8134524D01*
X6200238Y-8315476D02*
X6181190Y-8305952D01*
X6171667Y-8286905D01*
X6171667Y-8115476D01*
X6305000Y-8315476D02*
X6285952Y-8305952D01*
X6276428Y-8286905D01*
X6276428Y-8115476D01*
X6533571Y-8315476D02*
X6533571Y-8115476D01*
X6600238Y-8258333D01*
X6666905Y-8115476D01*
X6666905Y-8315476D01*
X6847857Y-8315476D02*
X6847857Y-8210714D01*
X6838333Y-8191667D01*
X6819286Y-8182143D01*
X6781190Y-8182143D01*
X6762143Y-8191667D01*
X6847857Y-8305952D02*
X6828809Y-8315476D01*
X6781190Y-8315476D01*
X6762143Y-8305952D01*
X6752619Y-8286905D01*
X6752619Y-8267857D01*
X6762143Y-8248809D01*
X6781190Y-8239286D01*
X6828809Y-8239286D01*
X6847857Y-8229762D01*
X6943095Y-8182143D02*
X6943095Y-8382143D01*
X6943095Y-8191667D02*
X6962143Y-8182143D01*
X7000238Y-8182143D01*
X7019286Y-8191667D01*
X7028809Y-8201190D01*
X7038333Y-8220238D01*
X7038333Y-8277381D01*
X7028809Y-8296428D01*
X7019286Y-8305952D01*
X7000238Y-8315476D01*
X6962143Y-8315476D01*
X6943095Y-8305952D01*
X7124048Y-8296428D02*
X7133571Y-8305952D01*
X7124048Y-8315476D01*
X7114524Y-8305952D01*
X7124048Y-8296428D01*
X7124048Y-8315476D01*
X7124048Y-8191667D02*
X7133571Y-8201190D01*
X7124048Y-8210714D01*
X7114524Y-8201190D01*
X7124048Y-8191667D01*
X7124048Y-8210714D01*
D12*
X5465000Y-8630000D02*
X5495000Y-8660000D01*
X5495000Y-8630000D02*
X5465000Y-8660000D01*
D11*
X5790714Y-8535476D02*
X5809762Y-8535476D01*
X5828809Y-8545000D01*
X5838333Y-8554524D01*
X5847857Y-8573571D01*
X5857381Y-8611667D01*
X5857381Y-8659286D01*
X5847857Y-8697381D01*
X5838333Y-8716429D01*
X5828809Y-8725952D01*
X5809762Y-8735476D01*
X5790714Y-8735476D01*
X5771667Y-8725952D01*
X5762143Y-8716429D01*
X5752619Y-8697381D01*
X5743095Y-8659286D01*
X5743095Y-8611667D01*
X5752619Y-8573571D01*
X5762143Y-8554524D01*
X5771667Y-8545000D01*
X5790714Y-8535476D01*
X5943095Y-8716429D02*
X5952619Y-8725952D01*
X5943095Y-8735476D01*
X5933571Y-8725952D01*
X5943095Y-8716429D01*
X5943095Y-8735476D01*
X6019286Y-8535476D02*
X6143095Y-8535476D01*
X6076428Y-8611667D01*
X6105000Y-8611667D01*
X6124048Y-8621190D01*
X6133571Y-8630714D01*
X6143095Y-8649762D01*
X6143095Y-8697381D01*
X6133571Y-8716429D01*
X6124048Y-8725952D01*
X6105000Y-8735476D01*
X6047857Y-8735476D01*
X6028809Y-8725952D01*
X6019286Y-8716429D01*
X6266905Y-8535476D02*
X6285952Y-8535476D01*
X6305000Y-8545000D01*
X6314524Y-8554524D01*
X6324048Y-8573571D01*
X6333571Y-8611667D01*
X6333571Y-8659286D01*
X6324048Y-8697381D01*
X6314524Y-8716429D01*
X6305000Y-8725952D01*
X6285952Y-8735476D01*
X6266905Y-8735476D01*
X6247857Y-8725952D01*
X6238333Y-8716429D01*
X6228809Y-8697381D01*
X6219286Y-8659286D01*
X6219286Y-8611667D01*
X6228809Y-8573571D01*
X6238333Y-8554524D01*
X6247857Y-8545000D01*
X6266905Y-8535476D01*
X6457381Y-8535476D02*
X6476428Y-8535476D01*
X6495476Y-8545000D01*
X6505000Y-8554524D01*
X6514524Y-8573571D01*
X6524048Y-8611667D01*
X6524048Y-8659286D01*
X6514524Y-8697381D01*
X6505000Y-8716429D01*
X6495476Y-8725952D01*
X6476428Y-8735476D01*
X6457381Y-8735476D01*
X6438333Y-8725952D01*
X6428809Y-8716429D01*
X6419286Y-8697381D01*
X6409762Y-8659286D01*
X6409762Y-8611667D01*
X6419286Y-8573571D01*
X6428809Y-8554524D01*
X6438333Y-8545000D01*
X6457381Y-8535476D01*
X6609762Y-8735476D02*
X6609762Y-8602143D01*
X6609762Y-8621190D02*
X6619286Y-8611667D01*
X6638333Y-8602143D01*
X6666905Y-8602143D01*
X6685952Y-8611667D01*
X6695476Y-8630714D01*
X6695476Y-8735476D01*
X6695476Y-8630714D02*
X6705000Y-8611667D01*
X6724048Y-8602143D01*
X6752619Y-8602143D01*
X6771667Y-8611667D01*
X6781190Y-8630714D01*
X6781190Y-8735476D01*
X6876428Y-8735476D02*
X6876428Y-8602143D01*
X6876428Y-8621190D02*
X6885952Y-8611667D01*
X6905000Y-8602143D01*
X6933571Y-8602143D01*
X6952619Y-8611667D01*
X6962143Y-8630714D01*
X6962143Y-8735476D01*
X6962143Y-8630714D02*
X6971667Y-8611667D01*
X6990714Y-8602143D01*
X7019286Y-8602143D01*
X7038333Y-8611667D01*
X7047857Y-8630714D01*
X7047857Y-8735476D01*
X7438333Y-8525952D02*
X7266905Y-8783095D01*
X7695476Y-8535476D02*
X7714524Y-8535476D01*
X7733571Y-8545000D01*
X7743095Y-8554524D01*
X7752619Y-8573571D01*
X7762143Y-8611667D01*
X7762143Y-8659286D01*
X7752619Y-8697381D01*
X7743095Y-8716429D01*
X7733571Y-8725952D01*
X7714524Y-8735476D01*
X7695476Y-8735476D01*
X7676428Y-8725952D01*
X7666905Y-8716429D01*
X7657381Y-8697381D01*
X7647857Y-8659286D01*
X7647857Y-8611667D01*
X7657381Y-8573571D01*
X7666905Y-8554524D01*
X7676428Y-8545000D01*
X7695476Y-8535476D01*
X7847857Y-8716429D02*
X7857381Y-8725952D01*
X7847857Y-8735476D01*
X7838333Y-8725952D01*
X7847857Y-8716429D01*
X7847857Y-8735476D01*
X7981190Y-8535476D02*
X8000238Y-8535476D01*
X8019286Y-8545000D01*
X8028809Y-8554524D01*
X8038333Y-8573571D01*
X8047857Y-8611667D01*
X8047857Y-8659286D01*
X8038333Y-8697381D01*
X8028809Y-8716429D01*
X8019286Y-8725952D01*
X8000238Y-8735476D01*
X7981190Y-8735476D01*
X7962143Y-8725952D01*
X7952619Y-8716429D01*
X7943095Y-8697381D01*
X7933571Y-8659286D01*
X7933571Y-8611667D01*
X7943095Y-8573571D01*
X7952619Y-8554524D01*
X7962143Y-8545000D01*
X7981190Y-8535476D01*
X8238333Y-8735476D02*
X8124048Y-8735476D01*
X8181190Y-8735476D02*
X8181190Y-8535476D01*
X8162143Y-8564048D01*
X8143095Y-8583095D01*
X8124048Y-8592619D01*
X8428810Y-8735476D02*
X8314524Y-8735476D01*
X8371667Y-8735476D02*
X8371667Y-8535476D01*
X8352619Y-8564048D01*
X8333571Y-8583095D01*
X8314524Y-8592619D01*
X8543095Y-8621190D02*
X8524048Y-8611667D01*
X8514524Y-8602143D01*
X8505000Y-8583095D01*
X8505000Y-8573571D01*
X8514524Y-8554524D01*
X8524048Y-8545000D01*
X8543095Y-8535476D01*
X8581190Y-8535476D01*
X8600238Y-8545000D01*
X8609762Y-8554524D01*
X8619286Y-8573571D01*
X8619286Y-8583095D01*
X8609762Y-8602143D01*
X8600238Y-8611667D01*
X8581190Y-8621190D01*
X8543095Y-8621190D01*
X8524048Y-8630714D01*
X8514524Y-8640238D01*
X8505000Y-8659286D01*
X8505000Y-8697381D01*
X8514524Y-8716429D01*
X8524048Y-8725952D01*
X8543095Y-8735476D01*
X8581190Y-8735476D01*
X8600238Y-8725952D01*
X8609762Y-8716429D01*
X8619286Y-8697381D01*
X8619286Y-8659286D01*
X8609762Y-8640238D01*
X8600238Y-8630714D01*
X8581190Y-8621190D01*
X8695476Y-8535476D02*
X8695476Y-8573571D01*
X8771667Y-8535476D02*
X8771667Y-8573571D01*
X9066905Y-8811667D02*
X9057381Y-8802143D01*
X9038333Y-8773571D01*
X9028810Y-8754524D01*
X9019286Y-8725952D01*
X9009762Y-8678333D01*
X9009762Y-8640238D01*
X9019286Y-8592619D01*
X9028810Y-8564048D01*
X9038333Y-8545000D01*
X9057381Y-8516429D01*
X9066905Y-8506905D01*
X9133571Y-8554524D02*
X9143095Y-8545000D01*
X9162143Y-8535476D01*
X9209762Y-8535476D01*
X9228810Y-8545000D01*
X9238333Y-8554524D01*
X9247857Y-8573571D01*
X9247857Y-8592619D01*
X9238333Y-8621190D01*
X9124048Y-8735476D01*
X9247857Y-8735476D01*
X9485952Y-8735476D02*
X9485952Y-8535476D01*
X9571667Y-8735476D02*
X9571667Y-8630714D01*
X9562143Y-8611667D01*
X9543095Y-8602143D01*
X9514524Y-8602143D01*
X9495476Y-8611667D01*
X9485952Y-8621190D01*
X9695476Y-8735476D02*
X9676429Y-8725952D01*
X9666905Y-8716429D01*
X9657381Y-8697381D01*
X9657381Y-8640238D01*
X9666905Y-8621190D01*
X9676429Y-8611667D01*
X9695476Y-8602143D01*
X9724048Y-8602143D01*
X9743095Y-8611667D01*
X9752619Y-8621190D01*
X9762143Y-8640238D01*
X9762143Y-8697381D01*
X9752619Y-8716429D01*
X9743095Y-8725952D01*
X9724048Y-8735476D01*
X9695476Y-8735476D01*
X9876429Y-8735476D02*
X9857381Y-8725952D01*
X9847857Y-8706905D01*
X9847857Y-8535476D01*
X10028810Y-8725952D02*
X10009762Y-8735476D01*
X9971667Y-8735476D01*
X9952619Y-8725952D01*
X9943095Y-8706905D01*
X9943095Y-8630714D01*
X9952619Y-8611667D01*
X9971667Y-8602143D01*
X10009762Y-8602143D01*
X10028810Y-8611667D01*
X10038333Y-8630714D01*
X10038333Y-8649762D01*
X9943095Y-8668810D01*
X10114524Y-8725952D02*
X10133571Y-8735476D01*
X10171667Y-8735476D01*
X10190714Y-8725952D01*
X10200238Y-8706905D01*
X10200238Y-8697381D01*
X10190714Y-8678333D01*
X10171667Y-8668810D01*
X10143095Y-8668810D01*
X10124048Y-8659286D01*
X10114524Y-8640238D01*
X10114524Y-8630714D01*
X10124048Y-8611667D01*
X10143095Y-8602143D01*
X10171667Y-8602143D01*
X10190714Y-8611667D01*
X10266905Y-8811667D02*
X10276429Y-8802143D01*
X10295476Y-8773571D01*
X10305000Y-8754524D01*
X10314524Y-8725952D01*
X10324048Y-8678333D01*
X10324048Y-8640238D01*
X10314524Y-8592619D01*
X10305000Y-8564048D01*
X10295476Y-8545000D01*
X10276429Y-8516429D01*
X10266905Y-8506905D01*
D13*
X5495000Y-8909000D02*
G75*
G03*
X5495000Y-8909000I-20000J0D01*
G01*
D11*
X5790714Y-8799476D02*
X5809762Y-8799476D01*
X5828809Y-8809000D01*
X5838333Y-8818524D01*
X5847857Y-8837571D01*
X5857381Y-8875667D01*
X5857381Y-8923286D01*
X5847857Y-8961381D01*
X5838333Y-8980429D01*
X5828809Y-8989952D01*
X5809762Y-8999476D01*
X5790714Y-8999476D01*
X5771667Y-8989952D01*
X5762143Y-8980429D01*
X5752619Y-8961381D01*
X5743095Y-8923286D01*
X5743095Y-8875667D01*
X5752619Y-8837571D01*
X5762143Y-8818524D01*
X5771667Y-8809000D01*
X5790714Y-8799476D01*
X5943095Y-8980429D02*
X5952619Y-8989952D01*
X5943095Y-8999476D01*
X5933571Y-8989952D01*
X5943095Y-8980429D01*
X5943095Y-8999476D01*
X6124048Y-8866143D02*
X6124048Y-8999476D01*
X6076428Y-8789952D02*
X6028809Y-8932810D01*
X6152619Y-8932810D01*
X6266905Y-8799476D02*
X6285952Y-8799476D01*
X6305000Y-8809000D01*
X6314524Y-8818524D01*
X6324048Y-8837571D01*
X6333571Y-8875667D01*
X6333571Y-8923286D01*
X6324048Y-8961381D01*
X6314524Y-8980429D01*
X6305000Y-8989952D01*
X6285952Y-8999476D01*
X6266905Y-8999476D01*
X6247857Y-8989952D01*
X6238333Y-8980429D01*
X6228809Y-8961381D01*
X6219286Y-8923286D01*
X6219286Y-8875667D01*
X6228809Y-8837571D01*
X6238333Y-8818524D01*
X6247857Y-8809000D01*
X6266905Y-8799476D01*
X6457381Y-8799476D02*
X6476428Y-8799476D01*
X6495476Y-8809000D01*
X6505000Y-8818524D01*
X6514524Y-8837571D01*
X6524048Y-8875667D01*
X6524048Y-8923286D01*
X6514524Y-8961381D01*
X6505000Y-8980429D01*
X6495476Y-8989952D01*
X6476428Y-8999476D01*
X6457381Y-8999476D01*
X6438333Y-8989952D01*
X6428809Y-8980429D01*
X6419286Y-8961381D01*
X6409762Y-8923286D01*
X6409762Y-8875667D01*
X6419286Y-8837571D01*
X6428809Y-8818524D01*
X6438333Y-8809000D01*
X6457381Y-8799476D01*
X6609762Y-8999476D02*
X6609762Y-8866143D01*
X6609762Y-8885190D02*
X6619286Y-8875667D01*
X6638333Y-8866143D01*
X6666905Y-8866143D01*
X6685952Y-8875667D01*
X6695476Y-8894714D01*
X6695476Y-8999476D01*
X6695476Y-8894714D02*
X6705000Y-8875667D01*
X6724048Y-8866143D01*
X6752619Y-8866143D01*
X6771667Y-8875667D01*
X6781190Y-8894714D01*
X6781190Y-8999476D01*
X6876428Y-8999476D02*
X6876428Y-8866143D01*
X6876428Y-8885190D02*
X6885952Y-8875667D01*
X6905000Y-8866143D01*
X6933571Y-8866143D01*
X6952619Y-8875667D01*
X6962143Y-8894714D01*
X6962143Y-8999476D01*
X6962143Y-8894714D02*
X6971667Y-8875667D01*
X6990714Y-8866143D01*
X7019286Y-8866143D01*
X7038333Y-8875667D01*
X7047857Y-8894714D01*
X7047857Y-8999476D01*
X7438333Y-8789952D02*
X7266905Y-9047095D01*
X7695476Y-8799476D02*
X7714524Y-8799476D01*
X7733571Y-8809000D01*
X7743095Y-8818524D01*
X7752619Y-8837571D01*
X7762143Y-8875667D01*
X7762143Y-8923286D01*
X7752619Y-8961381D01*
X7743095Y-8980429D01*
X7733571Y-8989952D01*
X7714524Y-8999476D01*
X7695476Y-8999476D01*
X7676428Y-8989952D01*
X7666905Y-8980429D01*
X7657381Y-8961381D01*
X7647857Y-8923286D01*
X7647857Y-8875667D01*
X7657381Y-8837571D01*
X7666905Y-8818524D01*
X7676428Y-8809000D01*
X7695476Y-8799476D01*
X7847857Y-8980429D02*
X7857381Y-8989952D01*
X7847857Y-8999476D01*
X7838333Y-8989952D01*
X7847857Y-8980429D01*
X7847857Y-8999476D01*
X7981190Y-8799476D02*
X8000238Y-8799476D01*
X8019286Y-8809000D01*
X8028809Y-8818524D01*
X8038333Y-8837571D01*
X8047857Y-8875667D01*
X8047857Y-8923286D01*
X8038333Y-8961381D01*
X8028809Y-8980429D01*
X8019286Y-8989952D01*
X8000238Y-8999476D01*
X7981190Y-8999476D01*
X7962143Y-8989952D01*
X7952619Y-8980429D01*
X7943095Y-8961381D01*
X7933571Y-8923286D01*
X7933571Y-8875667D01*
X7943095Y-8837571D01*
X7952619Y-8818524D01*
X7962143Y-8809000D01*
X7981190Y-8799476D01*
X8238333Y-8999476D02*
X8124048Y-8999476D01*
X8181190Y-8999476D02*
X8181190Y-8799476D01*
X8162143Y-8828048D01*
X8143095Y-8847095D01*
X8124048Y-8856619D01*
X8419286Y-8799476D02*
X8324048Y-8799476D01*
X8314524Y-8894714D01*
X8324048Y-8885190D01*
X8343095Y-8875667D01*
X8390714Y-8875667D01*
X8409762Y-8885190D01*
X8419286Y-8894714D01*
X8428810Y-8913762D01*
X8428810Y-8961381D01*
X8419286Y-8980429D01*
X8409762Y-8989952D01*
X8390714Y-8999476D01*
X8343095Y-8999476D01*
X8324048Y-8989952D01*
X8314524Y-8980429D01*
X8495476Y-8799476D02*
X8628810Y-8799476D01*
X8543095Y-8999476D01*
X8695476Y-8799476D02*
X8695476Y-8837571D01*
X8771667Y-8799476D02*
X8771667Y-8837571D01*
X9066905Y-9075667D02*
X9057381Y-9066143D01*
X9038333Y-9037571D01*
X9028810Y-9018524D01*
X9019286Y-8989952D01*
X9009762Y-8942333D01*
X9009762Y-8904238D01*
X9019286Y-8856619D01*
X9028810Y-8828048D01*
X9038333Y-8809000D01*
X9057381Y-8780429D01*
X9066905Y-8770905D01*
X9133571Y-8818524D02*
X9143095Y-8809000D01*
X9162143Y-8799476D01*
X9209762Y-8799476D01*
X9228810Y-8809000D01*
X9238333Y-8818524D01*
X9247857Y-8837571D01*
X9247857Y-8856619D01*
X9238333Y-8885190D01*
X9124048Y-8999476D01*
X9247857Y-8999476D01*
X9371667Y-8799476D02*
X9390714Y-8799476D01*
X9409762Y-8809000D01*
X9419286Y-8818524D01*
X9428810Y-8837571D01*
X9438333Y-8875667D01*
X9438333Y-8923286D01*
X9428810Y-8961381D01*
X9419286Y-8980429D01*
X9409762Y-8989952D01*
X9390714Y-8999476D01*
X9371667Y-8999476D01*
X9352619Y-8989952D01*
X9343095Y-8980429D01*
X9333571Y-8961381D01*
X9324048Y-8923286D01*
X9324048Y-8875667D01*
X9333571Y-8837571D01*
X9343095Y-8818524D01*
X9352619Y-8809000D01*
X9371667Y-8799476D01*
X9628810Y-8999476D02*
X9514524Y-8999476D01*
X9571667Y-8999476D02*
X9571667Y-8799476D01*
X9552619Y-8828048D01*
X9533571Y-8847095D01*
X9514524Y-8856619D01*
X9866905Y-8999476D02*
X9866905Y-8799476D01*
X9952619Y-8999476D02*
X9952619Y-8894714D01*
X9943095Y-8875667D01*
X9924048Y-8866143D01*
X9895476Y-8866143D01*
X9876429Y-8875667D01*
X9866905Y-8885190D01*
X10076429Y-8999476D02*
X10057381Y-8989952D01*
X10047857Y-8980429D01*
X10038333Y-8961381D01*
X10038333Y-8904238D01*
X10047857Y-8885190D01*
X10057381Y-8875667D01*
X10076429Y-8866143D01*
X10105000Y-8866143D01*
X10124048Y-8875667D01*
X10133571Y-8885190D01*
X10143095Y-8904238D01*
X10143095Y-8961381D01*
X10133571Y-8980429D01*
X10124048Y-8989952D01*
X10105000Y-8999476D01*
X10076429Y-8999476D01*
X10257381Y-8999476D02*
X10238333Y-8989952D01*
X10228810Y-8970905D01*
X10228810Y-8799476D01*
X10409762Y-8989952D02*
X10390714Y-8999476D01*
X10352619Y-8999476D01*
X10333571Y-8989952D01*
X10324048Y-8970905D01*
X10324048Y-8894714D01*
X10333571Y-8875667D01*
X10352619Y-8866143D01*
X10390714Y-8866143D01*
X10409762Y-8875667D01*
X10419286Y-8894714D01*
X10419286Y-8913762D01*
X10324048Y-8932810D01*
X10495476Y-8989952D02*
X10514524Y-8999476D01*
X10552619Y-8999476D01*
X10571667Y-8989952D01*
X10581190Y-8970905D01*
X10581190Y-8961381D01*
X10571667Y-8942333D01*
X10552619Y-8932810D01*
X10524048Y-8932810D01*
X10505000Y-8923286D01*
X10495476Y-8904238D01*
X10495476Y-8894714D01*
X10505000Y-8875667D01*
X10524048Y-8866143D01*
X10552619Y-8866143D01*
X10571667Y-8875667D01*
X10647857Y-9075667D02*
X10657381Y-9066143D01*
X10676429Y-9037571D01*
X10685952Y-9018524D01*
X10695476Y-8989952D01*
X10705000Y-8942333D01*
X10705000Y-8904238D01*
X10695476Y-8856619D01*
X10685952Y-8828048D01*
X10676429Y-8809000D01*
X10657381Y-8780429D01*
X10647857Y-8770905D01*
D13*
X5475000Y-9153000D02*
X5475000Y-9193000D01*
X5455000Y-9173000D02*
X5495000Y-9173000D01*
D11*
X5790714Y-9063476D02*
X5809762Y-9063476D01*
X5828809Y-9073000D01*
X5838333Y-9082524D01*
X5847857Y-9101571D01*
X5857381Y-9139667D01*
X5857381Y-9187286D01*
X5847857Y-9225381D01*
X5838333Y-9244429D01*
X5828809Y-9253952D01*
X5809762Y-9263476D01*
X5790714Y-9263476D01*
X5771667Y-9253952D01*
X5762143Y-9244429D01*
X5752619Y-9225381D01*
X5743095Y-9187286D01*
X5743095Y-9139667D01*
X5752619Y-9101571D01*
X5762143Y-9082524D01*
X5771667Y-9073000D01*
X5790714Y-9063476D01*
X5943095Y-9244429D02*
X5952619Y-9253952D01*
X5943095Y-9263476D01*
X5933571Y-9253952D01*
X5943095Y-9244429D01*
X5943095Y-9263476D01*
X6124048Y-9130143D02*
X6124048Y-9263476D01*
X6076428Y-9053952D02*
X6028809Y-9196810D01*
X6152619Y-9196810D01*
X6266905Y-9063476D02*
X6285952Y-9063476D01*
X6305000Y-9073000D01*
X6314524Y-9082524D01*
X6324048Y-9101571D01*
X6333571Y-9139667D01*
X6333571Y-9187286D01*
X6324048Y-9225381D01*
X6314524Y-9244429D01*
X6305000Y-9253952D01*
X6285952Y-9263476D01*
X6266905Y-9263476D01*
X6247857Y-9253952D01*
X6238333Y-9244429D01*
X6228809Y-9225381D01*
X6219286Y-9187286D01*
X6219286Y-9139667D01*
X6228809Y-9101571D01*
X6238333Y-9082524D01*
X6247857Y-9073000D01*
X6266905Y-9063476D01*
X6457381Y-9063476D02*
X6476428Y-9063476D01*
X6495476Y-9073000D01*
X6505000Y-9082524D01*
X6514524Y-9101571D01*
X6524048Y-9139667D01*
X6524048Y-9187286D01*
X6514524Y-9225381D01*
X6505000Y-9244429D01*
X6495476Y-9253952D01*
X6476428Y-9263476D01*
X6457381Y-9263476D01*
X6438333Y-9253952D01*
X6428809Y-9244429D01*
X6419286Y-9225381D01*
X6409762Y-9187286D01*
X6409762Y-9139667D01*
X6419286Y-9101571D01*
X6428809Y-9082524D01*
X6438333Y-9073000D01*
X6457381Y-9063476D01*
X6609762Y-9263476D02*
X6609762Y-9130143D01*
X6609762Y-9149190D02*
X6619286Y-9139667D01*
X6638333Y-9130143D01*
X6666905Y-9130143D01*
X6685952Y-9139667D01*
X6695476Y-9158714D01*
X6695476Y-9263476D01*
X6695476Y-9158714D02*
X6705000Y-9139667D01*
X6724048Y-9130143D01*
X6752619Y-9130143D01*
X6771667Y-9139667D01*
X6781190Y-9158714D01*
X6781190Y-9263476D01*
X6876428Y-9263476D02*
X6876428Y-9130143D01*
X6876428Y-9149190D02*
X6885952Y-9139667D01*
X6905000Y-9130143D01*
X6933571Y-9130143D01*
X6952619Y-9139667D01*
X6962143Y-9158714D01*
X6962143Y-9263476D01*
X6962143Y-9158714D02*
X6971667Y-9139667D01*
X6990714Y-9130143D01*
X7019286Y-9130143D01*
X7038333Y-9139667D01*
X7047857Y-9158714D01*
X7047857Y-9263476D01*
X7438333Y-9053952D02*
X7266905Y-9311095D01*
X7695476Y-9063476D02*
X7714524Y-9063476D01*
X7733571Y-9073000D01*
X7743095Y-9082524D01*
X7752619Y-9101571D01*
X7762143Y-9139667D01*
X7762143Y-9187286D01*
X7752619Y-9225381D01*
X7743095Y-9244429D01*
X7733571Y-9253952D01*
X7714524Y-9263476D01*
X7695476Y-9263476D01*
X7676428Y-9253952D01*
X7666905Y-9244429D01*
X7657381Y-9225381D01*
X7647857Y-9187286D01*
X7647857Y-9139667D01*
X7657381Y-9101571D01*
X7666905Y-9082524D01*
X7676428Y-9073000D01*
X7695476Y-9063476D01*
X7847857Y-9244429D02*
X7857381Y-9253952D01*
X7847857Y-9263476D01*
X7838333Y-9253952D01*
X7847857Y-9244429D01*
X7847857Y-9263476D01*
X7981190Y-9063476D02*
X8000238Y-9063476D01*
X8019286Y-9073000D01*
X8028809Y-9082524D01*
X8038333Y-9101571D01*
X8047857Y-9139667D01*
X8047857Y-9187286D01*
X8038333Y-9225381D01*
X8028809Y-9244429D01*
X8019286Y-9253952D01*
X8000238Y-9263476D01*
X7981190Y-9263476D01*
X7962143Y-9253952D01*
X7952619Y-9244429D01*
X7943095Y-9225381D01*
X7933571Y-9187286D01*
X7933571Y-9139667D01*
X7943095Y-9101571D01*
X7952619Y-9082524D01*
X7962143Y-9073000D01*
X7981190Y-9063476D01*
X8238333Y-9263476D02*
X8124048Y-9263476D01*
X8181190Y-9263476D02*
X8181190Y-9063476D01*
X8162143Y-9092048D01*
X8143095Y-9111095D01*
X8124048Y-9120619D01*
X8419286Y-9063476D02*
X8324048Y-9063476D01*
X8314524Y-9158714D01*
X8324048Y-9149190D01*
X8343095Y-9139667D01*
X8390714Y-9139667D01*
X8409762Y-9149190D01*
X8419286Y-9158714D01*
X8428810Y-9177762D01*
X8428810Y-9225381D01*
X8419286Y-9244429D01*
X8409762Y-9253952D01*
X8390714Y-9263476D01*
X8343095Y-9263476D01*
X8324048Y-9253952D01*
X8314524Y-9244429D01*
X8495476Y-9063476D02*
X8628810Y-9063476D01*
X8543095Y-9263476D01*
X8695476Y-9063476D02*
X8695476Y-9101571D01*
X8771667Y-9063476D02*
X8771667Y-9101571D01*
X9066905Y-9339667D02*
X9057381Y-9330143D01*
X9038333Y-9301571D01*
X9028810Y-9282524D01*
X9019286Y-9253952D01*
X9009762Y-9206333D01*
X9009762Y-9168238D01*
X9019286Y-9120619D01*
X9028810Y-9092048D01*
X9038333Y-9073000D01*
X9057381Y-9044429D01*
X9066905Y-9034905D01*
X9247857Y-9263476D02*
X9133571Y-9263476D01*
X9190714Y-9263476D02*
X9190714Y-9063476D01*
X9171667Y-9092048D01*
X9152619Y-9111095D01*
X9133571Y-9120619D01*
X9419286Y-9063476D02*
X9381190Y-9063476D01*
X9362143Y-9073000D01*
X9352619Y-9082524D01*
X9333571Y-9111095D01*
X9324048Y-9149190D01*
X9324048Y-9225381D01*
X9333571Y-9244429D01*
X9343095Y-9253952D01*
X9362143Y-9263476D01*
X9400238Y-9263476D01*
X9419286Y-9253952D01*
X9428810Y-9244429D01*
X9438333Y-9225381D01*
X9438333Y-9177762D01*
X9428810Y-9158714D01*
X9419286Y-9149190D01*
X9400238Y-9139667D01*
X9362143Y-9139667D01*
X9343095Y-9149190D01*
X9333571Y-9158714D01*
X9324048Y-9177762D01*
X9676429Y-9263476D02*
X9676429Y-9063476D01*
X9762143Y-9263476D02*
X9762143Y-9158714D01*
X9752619Y-9139667D01*
X9733571Y-9130143D01*
X9705000Y-9130143D01*
X9685952Y-9139667D01*
X9676429Y-9149190D01*
X9885952Y-9263476D02*
X9866905Y-9253952D01*
X9857381Y-9244429D01*
X9847857Y-9225381D01*
X9847857Y-9168238D01*
X9857381Y-9149190D01*
X9866905Y-9139667D01*
X9885952Y-9130143D01*
X9914524Y-9130143D01*
X9933571Y-9139667D01*
X9943095Y-9149190D01*
X9952619Y-9168238D01*
X9952619Y-9225381D01*
X9943095Y-9244429D01*
X9933571Y-9253952D01*
X9914524Y-9263476D01*
X9885952Y-9263476D01*
X10066905Y-9263476D02*
X10047857Y-9253952D01*
X10038333Y-9234905D01*
X10038333Y-9063476D01*
X10219286Y-9253952D02*
X10200238Y-9263476D01*
X10162143Y-9263476D01*
X10143095Y-9253952D01*
X10133571Y-9234905D01*
X10133571Y-9158714D01*
X10143095Y-9139667D01*
X10162143Y-9130143D01*
X10200238Y-9130143D01*
X10219286Y-9139667D01*
X10228810Y-9158714D01*
X10228810Y-9177762D01*
X10133571Y-9196810D01*
X10305000Y-9253952D02*
X10324048Y-9263476D01*
X10362143Y-9263476D01*
X10381190Y-9253952D01*
X10390714Y-9234905D01*
X10390714Y-9225381D01*
X10381190Y-9206333D01*
X10362143Y-9196810D01*
X10333571Y-9196810D01*
X10314524Y-9187286D01*
X10305000Y-9168238D01*
X10305000Y-9158714D01*
X10314524Y-9139667D01*
X10333571Y-9130143D01*
X10362143Y-9130143D01*
X10381190Y-9139667D01*
X10457381Y-9339667D02*
X10466905Y-9330143D01*
X10485952Y-9301571D01*
X10495476Y-9282524D01*
X10505000Y-9253952D01*
X10514524Y-9206333D01*
X10514524Y-9168238D01*
X10505000Y-9120619D01*
X10495476Y-9092048D01*
X10485952Y-9073000D01*
X10466905Y-9044429D01*
X10457381Y-9034905D01*
D14*
X5486213Y-9458213D02*
X5486213Y-9415787D01*
X5443787Y-9415787D01*
X5443787Y-9458213D01*
X5486213Y-9458213D01*
D11*
X5790714Y-9327476D02*
X5809762Y-9327476D01*
X5828809Y-9337000D01*
X5838333Y-9346524D01*
X5847857Y-9365571D01*
X5857381Y-9403667D01*
X5857381Y-9451286D01*
X5847857Y-9489381D01*
X5838333Y-9508429D01*
X5828809Y-9517952D01*
X5809762Y-9527476D01*
X5790714Y-9527476D01*
X5771667Y-9517952D01*
X5762143Y-9508429D01*
X5752619Y-9489381D01*
X5743095Y-9451286D01*
X5743095Y-9403667D01*
X5752619Y-9365571D01*
X5762143Y-9346524D01*
X5771667Y-9337000D01*
X5790714Y-9327476D01*
X5943095Y-9508429D02*
X5952619Y-9517952D01*
X5943095Y-9527476D01*
X5933571Y-9517952D01*
X5943095Y-9508429D01*
X5943095Y-9527476D01*
X6124048Y-9327476D02*
X6085952Y-9327476D01*
X6066905Y-9337000D01*
X6057381Y-9346524D01*
X6038333Y-9375095D01*
X6028809Y-9413190D01*
X6028809Y-9489381D01*
X6038333Y-9508429D01*
X6047857Y-9517952D01*
X6066905Y-9527476D01*
X6105000Y-9527476D01*
X6124048Y-9517952D01*
X6133571Y-9508429D01*
X6143095Y-9489381D01*
X6143095Y-9441762D01*
X6133571Y-9422714D01*
X6124048Y-9413190D01*
X6105000Y-9403667D01*
X6066905Y-9403667D01*
X6047857Y-9413190D01*
X6038333Y-9422714D01*
X6028809Y-9441762D01*
X6266905Y-9327476D02*
X6285952Y-9327476D01*
X6305000Y-9337000D01*
X6314524Y-9346524D01*
X6324048Y-9365571D01*
X6333571Y-9403667D01*
X6333571Y-9451286D01*
X6324048Y-9489381D01*
X6314524Y-9508429D01*
X6305000Y-9517952D01*
X6285952Y-9527476D01*
X6266905Y-9527476D01*
X6247857Y-9517952D01*
X6238333Y-9508429D01*
X6228809Y-9489381D01*
X6219286Y-9451286D01*
X6219286Y-9403667D01*
X6228809Y-9365571D01*
X6238333Y-9346524D01*
X6247857Y-9337000D01*
X6266905Y-9327476D01*
X6457381Y-9327476D02*
X6476428Y-9327476D01*
X6495476Y-9337000D01*
X6505000Y-9346524D01*
X6514524Y-9365571D01*
X6524048Y-9403667D01*
X6524048Y-9451286D01*
X6514524Y-9489381D01*
X6505000Y-9508429D01*
X6495476Y-9517952D01*
X6476428Y-9527476D01*
X6457381Y-9527476D01*
X6438333Y-9517952D01*
X6428809Y-9508429D01*
X6419286Y-9489381D01*
X6409762Y-9451286D01*
X6409762Y-9403667D01*
X6419286Y-9365571D01*
X6428809Y-9346524D01*
X6438333Y-9337000D01*
X6457381Y-9327476D01*
X6609762Y-9527476D02*
X6609762Y-9394143D01*
X6609762Y-9413190D02*
X6619286Y-9403667D01*
X6638333Y-9394143D01*
X6666905Y-9394143D01*
X6685952Y-9403667D01*
X6695476Y-9422714D01*
X6695476Y-9527476D01*
X6695476Y-9422714D02*
X6705000Y-9403667D01*
X6724048Y-9394143D01*
X6752619Y-9394143D01*
X6771667Y-9403667D01*
X6781190Y-9422714D01*
X6781190Y-9527476D01*
X6876428Y-9527476D02*
X6876428Y-9394143D01*
X6876428Y-9413190D02*
X6885952Y-9403667D01*
X6905000Y-9394143D01*
X6933571Y-9394143D01*
X6952619Y-9403667D01*
X6962143Y-9422714D01*
X6962143Y-9527476D01*
X6962143Y-9422714D02*
X6971667Y-9403667D01*
X6990714Y-9394143D01*
X7019286Y-9394143D01*
X7038333Y-9403667D01*
X7047857Y-9422714D01*
X7047857Y-9527476D01*
X7438333Y-9317952D02*
X7266905Y-9575095D01*
X7695476Y-9327476D02*
X7714524Y-9327476D01*
X7733571Y-9337000D01*
X7743095Y-9346524D01*
X7752619Y-9365571D01*
X7762143Y-9403667D01*
X7762143Y-9451286D01*
X7752619Y-9489381D01*
X7743095Y-9508429D01*
X7733571Y-9517952D01*
X7714524Y-9527476D01*
X7695476Y-9527476D01*
X7676428Y-9517952D01*
X7666905Y-9508429D01*
X7657381Y-9489381D01*
X7647857Y-9451286D01*
X7647857Y-9403667D01*
X7657381Y-9365571D01*
X7666905Y-9346524D01*
X7676428Y-9337000D01*
X7695476Y-9327476D01*
X7847857Y-9508429D02*
X7857381Y-9517952D01*
X7847857Y-9527476D01*
X7838333Y-9517952D01*
X7847857Y-9508429D01*
X7847857Y-9527476D01*
X7981190Y-9327476D02*
X8000238Y-9327476D01*
X8019286Y-9337000D01*
X8028809Y-9346524D01*
X8038333Y-9365571D01*
X8047857Y-9403667D01*
X8047857Y-9451286D01*
X8038333Y-9489381D01*
X8028809Y-9508429D01*
X8019286Y-9517952D01*
X8000238Y-9527476D01*
X7981190Y-9527476D01*
X7962143Y-9517952D01*
X7952619Y-9508429D01*
X7943095Y-9489381D01*
X7933571Y-9451286D01*
X7933571Y-9403667D01*
X7943095Y-9365571D01*
X7952619Y-9346524D01*
X7962143Y-9337000D01*
X7981190Y-9327476D01*
X8124048Y-9346524D02*
X8133571Y-9337000D01*
X8152619Y-9327476D01*
X8200238Y-9327476D01*
X8219286Y-9337000D01*
X8228809Y-9346524D01*
X8238333Y-9365571D01*
X8238333Y-9384619D01*
X8228809Y-9413190D01*
X8114524Y-9527476D01*
X8238333Y-9527476D01*
X8305000Y-9327476D02*
X8428810Y-9327476D01*
X8362143Y-9403667D01*
X8390714Y-9403667D01*
X8409762Y-9413190D01*
X8419286Y-9422714D01*
X8428810Y-9441762D01*
X8428810Y-9489381D01*
X8419286Y-9508429D01*
X8409762Y-9517952D01*
X8390714Y-9527476D01*
X8333571Y-9527476D01*
X8314524Y-9517952D01*
X8305000Y-9508429D01*
X8600238Y-9327476D02*
X8562143Y-9327476D01*
X8543095Y-9337000D01*
X8533571Y-9346524D01*
X8514524Y-9375095D01*
X8505000Y-9413190D01*
X8505000Y-9489381D01*
X8514524Y-9508429D01*
X8524048Y-9517952D01*
X8543095Y-9527476D01*
X8581190Y-9527476D01*
X8600238Y-9517952D01*
X8609762Y-9508429D01*
X8619286Y-9489381D01*
X8619286Y-9441762D01*
X8609762Y-9422714D01*
X8600238Y-9413190D01*
X8581190Y-9403667D01*
X8543095Y-9403667D01*
X8524048Y-9413190D01*
X8514524Y-9422714D01*
X8505000Y-9441762D01*
X8695476Y-9327476D02*
X8695476Y-9365571D01*
X8771667Y-9327476D02*
X8771667Y-9365571D01*
X9066905Y-9603667D02*
X9057381Y-9594143D01*
X9038333Y-9565571D01*
X9028810Y-9546524D01*
X9019286Y-9517952D01*
X9009762Y-9470333D01*
X9009762Y-9432238D01*
X9019286Y-9384619D01*
X9028810Y-9356048D01*
X9038333Y-9337000D01*
X9057381Y-9308429D01*
X9066905Y-9298905D01*
X9181190Y-9327476D02*
X9200238Y-9327476D01*
X9219286Y-9337000D01*
X9228810Y-9346524D01*
X9238333Y-9365571D01*
X9247857Y-9403667D01*
X9247857Y-9451286D01*
X9238333Y-9489381D01*
X9228810Y-9508429D01*
X9219286Y-9517952D01*
X9200238Y-9527476D01*
X9181190Y-9527476D01*
X9162143Y-9517952D01*
X9152619Y-9508429D01*
X9143095Y-9489381D01*
X9133571Y-9451286D01*
X9133571Y-9403667D01*
X9143095Y-9365571D01*
X9152619Y-9346524D01*
X9162143Y-9337000D01*
X9181190Y-9327476D01*
X9485952Y-9527476D02*
X9485952Y-9327476D01*
X9571667Y-9527476D02*
X9571667Y-9422714D01*
X9562143Y-9403667D01*
X9543095Y-9394143D01*
X9514524Y-9394143D01*
X9495476Y-9403667D01*
X9485952Y-9413190D01*
X9695476Y-9527476D02*
X9676429Y-9517952D01*
X9666905Y-9508429D01*
X9657381Y-9489381D01*
X9657381Y-9432238D01*
X9666905Y-9413190D01*
X9676429Y-9403667D01*
X9695476Y-9394143D01*
X9724048Y-9394143D01*
X9743095Y-9403667D01*
X9752619Y-9413190D01*
X9762143Y-9432238D01*
X9762143Y-9489381D01*
X9752619Y-9508429D01*
X9743095Y-9517952D01*
X9724048Y-9527476D01*
X9695476Y-9527476D01*
X9876429Y-9527476D02*
X9857381Y-9517952D01*
X9847857Y-9498905D01*
X9847857Y-9327476D01*
X10028810Y-9517952D02*
X10009762Y-9527476D01*
X9971667Y-9527476D01*
X9952619Y-9517952D01*
X9943095Y-9498905D01*
X9943095Y-9422714D01*
X9952619Y-9403667D01*
X9971667Y-9394143D01*
X10009762Y-9394143D01*
X10028810Y-9403667D01*
X10038333Y-9422714D01*
X10038333Y-9441762D01*
X9943095Y-9460810D01*
X10114524Y-9517952D02*
X10133571Y-9527476D01*
X10171667Y-9527476D01*
X10190714Y-9517952D01*
X10200238Y-9498905D01*
X10200238Y-9489381D01*
X10190714Y-9470333D01*
X10171667Y-9460810D01*
X10143095Y-9460810D01*
X10124048Y-9451286D01*
X10114524Y-9432238D01*
X10114524Y-9422714D01*
X10124048Y-9403667D01*
X10143095Y-9394143D01*
X10171667Y-9394143D01*
X10190714Y-9403667D01*
X10438333Y-9451286D02*
X10590714Y-9451286D01*
X10514524Y-9527476D02*
X10514524Y-9375095D01*
X10924048Y-9394143D02*
X10924048Y-9527476D01*
X10876429Y-9317952D02*
X10828810Y-9460810D01*
X10952619Y-9460810D01*
X11171667Y-9517952D02*
X11190714Y-9527476D01*
X11228809Y-9527476D01*
X11247857Y-9517952D01*
X11257381Y-9498905D01*
X11257381Y-9489381D01*
X11247857Y-9470333D01*
X11228809Y-9460810D01*
X11200238Y-9460810D01*
X11181190Y-9451286D01*
X11171667Y-9432238D01*
X11171667Y-9422714D01*
X11181190Y-9403667D01*
X11200238Y-9394143D01*
X11228809Y-9394143D01*
X11247857Y-9403667D01*
X11371667Y-9527476D02*
X11352619Y-9517952D01*
X11343095Y-9498905D01*
X11343095Y-9327476D01*
X11476428Y-9527476D02*
X11457381Y-9517952D01*
X11447857Y-9508429D01*
X11438333Y-9489381D01*
X11438333Y-9432238D01*
X11447857Y-9413190D01*
X11457381Y-9403667D01*
X11476428Y-9394143D01*
X11505000Y-9394143D01*
X11524048Y-9403667D01*
X11533571Y-9413190D01*
X11543095Y-9432238D01*
X11543095Y-9489381D01*
X11533571Y-9508429D01*
X11524048Y-9517952D01*
X11505000Y-9527476D01*
X11476428Y-9527476D01*
X11600238Y-9394143D02*
X11676428Y-9394143D01*
X11628809Y-9327476D02*
X11628809Y-9498905D01*
X11638333Y-9517952D01*
X11657381Y-9527476D01*
X11676428Y-9527476D01*
X11733571Y-9517952D02*
X11752619Y-9527476D01*
X11790714Y-9527476D01*
X11809762Y-9517952D01*
X11819286Y-9498905D01*
X11819286Y-9489381D01*
X11809762Y-9470333D01*
X11790714Y-9460810D01*
X11762143Y-9460810D01*
X11743095Y-9451286D01*
X11733571Y-9432238D01*
X11733571Y-9422714D01*
X11743095Y-9403667D01*
X11762143Y-9394143D01*
X11790714Y-9394143D01*
X11809762Y-9403667D01*
X11885952Y-9603667D02*
X11895476Y-9594143D01*
X11914524Y-9565571D01*
X11924048Y-9546524D01*
X11933571Y-9517952D01*
X11943095Y-9470333D01*
X11943095Y-9432238D01*
X11933571Y-9384619D01*
X11924048Y-9356048D01*
X11914524Y-9337000D01*
X11895476Y-9308429D01*
X11885952Y-9298905D01*
D15*
X5445000Y-9751000D02*
X5495000Y-9701000D01*
X5445000Y-9651000D01*
X5395000Y-9701000D01*
X5445000Y-9751000D01*
D11*
X5857381Y-9791476D02*
X5743095Y-9791476D01*
X5800238Y-9791476D02*
X5800238Y-9591476D01*
X5781190Y-9620048D01*
X5762143Y-9639095D01*
X5743095Y-9648619D01*
X5943095Y-9772429D02*
X5952619Y-9781952D01*
X5943095Y-9791476D01*
X5933571Y-9781952D01*
X5943095Y-9772429D01*
X5943095Y-9791476D01*
X6076428Y-9591476D02*
X6095476Y-9591476D01*
X6114524Y-9601000D01*
X6124048Y-9610524D01*
X6133571Y-9629571D01*
X6143095Y-9667667D01*
X6143095Y-9715286D01*
X6133571Y-9753381D01*
X6124048Y-9772429D01*
X6114524Y-9781952D01*
X6095476Y-9791476D01*
X6076428Y-9791476D01*
X6057381Y-9781952D01*
X6047857Y-9772429D01*
X6038333Y-9753381D01*
X6028809Y-9715286D01*
X6028809Y-9667667D01*
X6038333Y-9629571D01*
X6047857Y-9610524D01*
X6057381Y-9601000D01*
X6076428Y-9591476D01*
X6266905Y-9591476D02*
X6285952Y-9591476D01*
X6305000Y-9601000D01*
X6314524Y-9610524D01*
X6324048Y-9629571D01*
X6333571Y-9667667D01*
X6333571Y-9715286D01*
X6324048Y-9753381D01*
X6314524Y-9772429D01*
X6305000Y-9781952D01*
X6285952Y-9791476D01*
X6266905Y-9791476D01*
X6247857Y-9781952D01*
X6238333Y-9772429D01*
X6228809Y-9753381D01*
X6219286Y-9715286D01*
X6219286Y-9667667D01*
X6228809Y-9629571D01*
X6238333Y-9610524D01*
X6247857Y-9601000D01*
X6266905Y-9591476D01*
X6457381Y-9591476D02*
X6476428Y-9591476D01*
X6495476Y-9601000D01*
X6505000Y-9610524D01*
X6514524Y-9629571D01*
X6524048Y-9667667D01*
X6524048Y-9715286D01*
X6514524Y-9753381D01*
X6505000Y-9772429D01*
X6495476Y-9781952D01*
X6476428Y-9791476D01*
X6457381Y-9791476D01*
X6438333Y-9781952D01*
X6428809Y-9772429D01*
X6419286Y-9753381D01*
X6409762Y-9715286D01*
X6409762Y-9667667D01*
X6419286Y-9629571D01*
X6428809Y-9610524D01*
X6438333Y-9601000D01*
X6457381Y-9591476D01*
X6609762Y-9791476D02*
X6609762Y-9658143D01*
X6609762Y-9677190D02*
X6619286Y-9667667D01*
X6638333Y-9658143D01*
X6666905Y-9658143D01*
X6685952Y-9667667D01*
X6695476Y-9686714D01*
X6695476Y-9791476D01*
X6695476Y-9686714D02*
X6705000Y-9667667D01*
X6724048Y-9658143D01*
X6752619Y-9658143D01*
X6771667Y-9667667D01*
X6781190Y-9686714D01*
X6781190Y-9791476D01*
X6876428Y-9791476D02*
X6876428Y-9658143D01*
X6876428Y-9677190D02*
X6885952Y-9667667D01*
X6905000Y-9658143D01*
X6933571Y-9658143D01*
X6952619Y-9667667D01*
X6962143Y-9686714D01*
X6962143Y-9791476D01*
X6962143Y-9686714D02*
X6971667Y-9667667D01*
X6990714Y-9658143D01*
X7019286Y-9658143D01*
X7038333Y-9667667D01*
X7047857Y-9686714D01*
X7047857Y-9791476D01*
X7438333Y-9581952D02*
X7266905Y-9839095D01*
X7695476Y-9591476D02*
X7714524Y-9591476D01*
X7733571Y-9601000D01*
X7743095Y-9610524D01*
X7752619Y-9629571D01*
X7762143Y-9667667D01*
X7762143Y-9715286D01*
X7752619Y-9753381D01*
X7743095Y-9772429D01*
X7733571Y-9781952D01*
X7714524Y-9791476D01*
X7695476Y-9791476D01*
X7676428Y-9781952D01*
X7666905Y-9772429D01*
X7657381Y-9753381D01*
X7647857Y-9715286D01*
X7647857Y-9667667D01*
X7657381Y-9629571D01*
X7666905Y-9610524D01*
X7676428Y-9601000D01*
X7695476Y-9591476D01*
X7847857Y-9772429D02*
X7857381Y-9781952D01*
X7847857Y-9791476D01*
X7838333Y-9781952D01*
X7847857Y-9772429D01*
X7847857Y-9791476D01*
X7981190Y-9591476D02*
X8000238Y-9591476D01*
X8019286Y-9601000D01*
X8028809Y-9610524D01*
X8038333Y-9629571D01*
X8047857Y-9667667D01*
X8047857Y-9715286D01*
X8038333Y-9753381D01*
X8028809Y-9772429D01*
X8019286Y-9781952D01*
X8000238Y-9791476D01*
X7981190Y-9791476D01*
X7962143Y-9781952D01*
X7952619Y-9772429D01*
X7943095Y-9753381D01*
X7933571Y-9715286D01*
X7933571Y-9667667D01*
X7943095Y-9629571D01*
X7952619Y-9610524D01*
X7962143Y-9601000D01*
X7981190Y-9591476D01*
X8114524Y-9591476D02*
X8238333Y-9591476D01*
X8171667Y-9667667D01*
X8200238Y-9667667D01*
X8219286Y-9677190D01*
X8228809Y-9686714D01*
X8238333Y-9705762D01*
X8238333Y-9753381D01*
X8228809Y-9772429D01*
X8219286Y-9781952D01*
X8200238Y-9791476D01*
X8143095Y-9791476D01*
X8124048Y-9781952D01*
X8114524Y-9772429D01*
X8333571Y-9791476D02*
X8371667Y-9791476D01*
X8390714Y-9781952D01*
X8400238Y-9772429D01*
X8419286Y-9743857D01*
X8428810Y-9705762D01*
X8428810Y-9629571D01*
X8419286Y-9610524D01*
X8409762Y-9601000D01*
X8390714Y-9591476D01*
X8352619Y-9591476D01*
X8333571Y-9601000D01*
X8324048Y-9610524D01*
X8314524Y-9629571D01*
X8314524Y-9677190D01*
X8324048Y-9696238D01*
X8333571Y-9705762D01*
X8352619Y-9715286D01*
X8390714Y-9715286D01*
X8409762Y-9705762D01*
X8419286Y-9696238D01*
X8428810Y-9677190D01*
X8600238Y-9658143D02*
X8600238Y-9791476D01*
X8552619Y-9581952D02*
X8505000Y-9724810D01*
X8628810Y-9724810D01*
X8695476Y-9591476D02*
X8695476Y-9629571D01*
X8771667Y-9591476D02*
X8771667Y-9629571D01*
X9066905Y-9867667D02*
X9057381Y-9858143D01*
X9038333Y-9829571D01*
X9028810Y-9810524D01*
X9019286Y-9781952D01*
X9009762Y-9734333D01*
X9009762Y-9696238D01*
X9019286Y-9648619D01*
X9028810Y-9620048D01*
X9038333Y-9601000D01*
X9057381Y-9572429D01*
X9066905Y-9562905D01*
X9228810Y-9591476D02*
X9190714Y-9591476D01*
X9171667Y-9601000D01*
X9162143Y-9610524D01*
X9143095Y-9639095D01*
X9133571Y-9677190D01*
X9133571Y-9753381D01*
X9143095Y-9772429D01*
X9152619Y-9781952D01*
X9171667Y-9791476D01*
X9209762Y-9791476D01*
X9228810Y-9781952D01*
X9238333Y-9772429D01*
X9247857Y-9753381D01*
X9247857Y-9705762D01*
X9238333Y-9686714D01*
X9228810Y-9677190D01*
X9209762Y-9667667D01*
X9171667Y-9667667D01*
X9152619Y-9677190D01*
X9143095Y-9686714D01*
X9133571Y-9705762D01*
X9485952Y-9791476D02*
X9485952Y-9591476D01*
X9571667Y-9791476D02*
X9571667Y-9686714D01*
X9562143Y-9667667D01*
X9543095Y-9658143D01*
X9514524Y-9658143D01*
X9495476Y-9667667D01*
X9485952Y-9677190D01*
X9695476Y-9791476D02*
X9676429Y-9781952D01*
X9666905Y-9772429D01*
X9657381Y-9753381D01*
X9657381Y-9696238D01*
X9666905Y-9677190D01*
X9676429Y-9667667D01*
X9695476Y-9658143D01*
X9724048Y-9658143D01*
X9743095Y-9667667D01*
X9752619Y-9677190D01*
X9762143Y-9696238D01*
X9762143Y-9753381D01*
X9752619Y-9772429D01*
X9743095Y-9781952D01*
X9724048Y-9791476D01*
X9695476Y-9791476D01*
X9876429Y-9791476D02*
X9857381Y-9781952D01*
X9847857Y-9762905D01*
X9847857Y-9591476D01*
X10028810Y-9781952D02*
X10009762Y-9791476D01*
X9971667Y-9791476D01*
X9952619Y-9781952D01*
X9943095Y-9762905D01*
X9943095Y-9686714D01*
X9952619Y-9667667D01*
X9971667Y-9658143D01*
X10009762Y-9658143D01*
X10028810Y-9667667D01*
X10038333Y-9686714D01*
X10038333Y-9705762D01*
X9943095Y-9724810D01*
X10114524Y-9781952D02*
X10133571Y-9791476D01*
X10171667Y-9791476D01*
X10190714Y-9781952D01*
X10200238Y-9762905D01*
X10200238Y-9753381D01*
X10190714Y-9734333D01*
X10171667Y-9724810D01*
X10143095Y-9724810D01*
X10124048Y-9715286D01*
X10114524Y-9696238D01*
X10114524Y-9686714D01*
X10124048Y-9667667D01*
X10143095Y-9658143D01*
X10171667Y-9658143D01*
X10190714Y-9667667D01*
X10266905Y-9867667D02*
X10276429Y-9858143D01*
X10295476Y-9829571D01*
X10305000Y-9810524D01*
X10314524Y-9781952D01*
X10324048Y-9734333D01*
X10324048Y-9696238D01*
X10314524Y-9648619D01*
X10305000Y-9620048D01*
X10295476Y-9601000D01*
X10276429Y-9572429D01*
X10266905Y-9562905D01*
D16*
X5375000Y-9905000D02*
X5495000Y-10025000D01*
X5495000Y-9905000D02*
X5375000Y-10025000D01*
X5495000Y-9965000D02*
G75*
G03*
X5495000Y-9965000I-60000J0D01*
G01*
D11*
X5857381Y-10055476D02*
X5743095Y-10055476D01*
X5800238Y-10055476D02*
X5800238Y-9855476D01*
X5781190Y-9884048D01*
X5762143Y-9903095D01*
X5743095Y-9912619D01*
X5943095Y-10036429D02*
X5952619Y-10045952D01*
X5943095Y-10055476D01*
X5933571Y-10045952D01*
X5943095Y-10036429D01*
X5943095Y-10055476D01*
X6028809Y-9874524D02*
X6038333Y-9865000D01*
X6057381Y-9855476D01*
X6105000Y-9855476D01*
X6124048Y-9865000D01*
X6133571Y-9874524D01*
X6143095Y-9893571D01*
X6143095Y-9912619D01*
X6133571Y-9941190D01*
X6019286Y-10055476D01*
X6143095Y-10055476D01*
X6266905Y-9855476D02*
X6285952Y-9855476D01*
X6305000Y-9865000D01*
X6314524Y-9874524D01*
X6324048Y-9893571D01*
X6333571Y-9931667D01*
X6333571Y-9979286D01*
X6324048Y-10017381D01*
X6314524Y-10036429D01*
X6305000Y-10045952D01*
X6285952Y-10055476D01*
X6266905Y-10055476D01*
X6247857Y-10045952D01*
X6238333Y-10036429D01*
X6228809Y-10017381D01*
X6219286Y-9979286D01*
X6219286Y-9931667D01*
X6228809Y-9893571D01*
X6238333Y-9874524D01*
X6247857Y-9865000D01*
X6266905Y-9855476D01*
X6457381Y-9855476D02*
X6476428Y-9855476D01*
X6495476Y-9865000D01*
X6505000Y-9874524D01*
X6514524Y-9893571D01*
X6524048Y-9931667D01*
X6524048Y-9979286D01*
X6514524Y-10017381D01*
X6505000Y-10036429D01*
X6495476Y-10045952D01*
X6476428Y-10055476D01*
X6457381Y-10055476D01*
X6438333Y-10045952D01*
X6428809Y-10036429D01*
X6419286Y-10017381D01*
X6409762Y-9979286D01*
X6409762Y-9931667D01*
X6419286Y-9893571D01*
X6428809Y-9874524D01*
X6438333Y-9865000D01*
X6457381Y-9855476D01*
X6609762Y-10055476D02*
X6609762Y-9922143D01*
X6609762Y-9941190D02*
X6619286Y-9931667D01*
X6638333Y-9922143D01*
X6666905Y-9922143D01*
X6685952Y-9931667D01*
X6695476Y-9950714D01*
X6695476Y-10055476D01*
X6695476Y-9950714D02*
X6705000Y-9931667D01*
X6724048Y-9922143D01*
X6752619Y-9922143D01*
X6771667Y-9931667D01*
X6781190Y-9950714D01*
X6781190Y-10055476D01*
X6876428Y-10055476D02*
X6876428Y-9922143D01*
X6876428Y-9941190D02*
X6885952Y-9931667D01*
X6905000Y-9922143D01*
X6933571Y-9922143D01*
X6952619Y-9931667D01*
X6962143Y-9950714D01*
X6962143Y-10055476D01*
X6962143Y-9950714D02*
X6971667Y-9931667D01*
X6990714Y-9922143D01*
X7019286Y-9922143D01*
X7038333Y-9931667D01*
X7047857Y-9950714D01*
X7047857Y-10055476D01*
X7438333Y-9845952D02*
X7266905Y-10103095D01*
X7695476Y-9855476D02*
X7714524Y-9855476D01*
X7733571Y-9865000D01*
X7743095Y-9874524D01*
X7752619Y-9893571D01*
X7762143Y-9931667D01*
X7762143Y-9979286D01*
X7752619Y-10017381D01*
X7743095Y-10036429D01*
X7733571Y-10045952D01*
X7714524Y-10055476D01*
X7695476Y-10055476D01*
X7676428Y-10045952D01*
X7666905Y-10036429D01*
X7657381Y-10017381D01*
X7647857Y-9979286D01*
X7647857Y-9931667D01*
X7657381Y-9893571D01*
X7666905Y-9874524D01*
X7676428Y-9865000D01*
X7695476Y-9855476D01*
X7847857Y-10036429D02*
X7857381Y-10045952D01*
X7847857Y-10055476D01*
X7838333Y-10045952D01*
X7847857Y-10036429D01*
X7847857Y-10055476D01*
X7981190Y-9855476D02*
X8000238Y-9855476D01*
X8019286Y-9865000D01*
X8028809Y-9874524D01*
X8038333Y-9893571D01*
X8047857Y-9931667D01*
X8047857Y-9979286D01*
X8038333Y-10017381D01*
X8028809Y-10036429D01*
X8019286Y-10045952D01*
X8000238Y-10055476D01*
X7981190Y-10055476D01*
X7962143Y-10045952D01*
X7952619Y-10036429D01*
X7943095Y-10017381D01*
X7933571Y-9979286D01*
X7933571Y-9931667D01*
X7943095Y-9893571D01*
X7952619Y-9874524D01*
X7962143Y-9865000D01*
X7981190Y-9855476D01*
X8219286Y-9922143D02*
X8219286Y-10055476D01*
X8171667Y-9845952D02*
X8124048Y-9988810D01*
X8247857Y-9988810D01*
X8305000Y-9855476D02*
X8438333Y-9855476D01*
X8352619Y-10055476D01*
X8505000Y-9874524D02*
X8514524Y-9865000D01*
X8533571Y-9855476D01*
X8581190Y-9855476D01*
X8600238Y-9865000D01*
X8609762Y-9874524D01*
X8619286Y-9893571D01*
X8619286Y-9912619D01*
X8609762Y-9941190D01*
X8495476Y-10055476D01*
X8619286Y-10055476D01*
X8695476Y-9855476D02*
X8695476Y-9893571D01*
X8771667Y-9855476D02*
X8771667Y-9893571D01*
X9066905Y-10131667D02*
X9057381Y-10122143D01*
X9038333Y-10093571D01*
X9028810Y-10074524D01*
X9019286Y-10045952D01*
X9009762Y-9998333D01*
X9009762Y-9960238D01*
X9019286Y-9912619D01*
X9028810Y-9884048D01*
X9038333Y-9865000D01*
X9057381Y-9836429D01*
X9066905Y-9826905D01*
X9247857Y-10055476D02*
X9133571Y-10055476D01*
X9190714Y-10055476D02*
X9190714Y-9855476D01*
X9171667Y-9884048D01*
X9152619Y-9903095D01*
X9133571Y-9912619D01*
X9438333Y-10055476D02*
X9324048Y-10055476D01*
X9381190Y-10055476D02*
X9381190Y-9855476D01*
X9362143Y-9884048D01*
X9343095Y-9903095D01*
X9324048Y-9912619D01*
X9676429Y-10055476D02*
X9676429Y-9855476D01*
X9762143Y-10055476D02*
X9762143Y-9950714D01*
X9752619Y-9931667D01*
X9733571Y-9922143D01*
X9705000Y-9922143D01*
X9685952Y-9931667D01*
X9676429Y-9941190D01*
X9885952Y-10055476D02*
X9866905Y-10045952D01*
X9857381Y-10036429D01*
X9847857Y-10017381D01*
X9847857Y-9960238D01*
X9857381Y-9941190D01*
X9866905Y-9931667D01*
X9885952Y-9922143D01*
X9914524Y-9922143D01*
X9933571Y-9931667D01*
X9943095Y-9941190D01*
X9952619Y-9960238D01*
X9952619Y-10017381D01*
X9943095Y-10036429D01*
X9933571Y-10045952D01*
X9914524Y-10055476D01*
X9885952Y-10055476D01*
X10066905Y-10055476D02*
X10047857Y-10045952D01*
X10038333Y-10026905D01*
X10038333Y-9855476D01*
X10219286Y-10045952D02*
X10200238Y-10055476D01*
X10162143Y-10055476D01*
X10143095Y-10045952D01*
X10133571Y-10026905D01*
X10133571Y-9950714D01*
X10143095Y-9931667D01*
X10162143Y-9922143D01*
X10200238Y-9922143D01*
X10219286Y-9931667D01*
X10228810Y-9950714D01*
X10228810Y-9969762D01*
X10133571Y-9988810D01*
X10305000Y-10045952D02*
X10324048Y-10055476D01*
X10362143Y-10055476D01*
X10381190Y-10045952D01*
X10390714Y-10026905D01*
X10390714Y-10017381D01*
X10381190Y-9998333D01*
X10362143Y-9988810D01*
X10333571Y-9988810D01*
X10314524Y-9979286D01*
X10305000Y-9960238D01*
X10305000Y-9950714D01*
X10314524Y-9931667D01*
X10333571Y-9922143D01*
X10362143Y-9922143D01*
X10381190Y-9931667D01*
X10457381Y-10131667D02*
X10466905Y-10122143D01*
X10485952Y-10093571D01*
X10495476Y-10074524D01*
X10505000Y-10045952D01*
X10514524Y-9998333D01*
X10514524Y-9960238D01*
X10505000Y-9912619D01*
X10495476Y-9884048D01*
X10485952Y-9865000D01*
X10466905Y-9836429D01*
X10457381Y-9826905D01*
D17*
X5355000Y-10159000D02*
X5495000Y-10299000D01*
X5495000Y-10159000D02*
X5355000Y-10299000D01*
X5425000Y-10159000D02*
X5425000Y-10299000D01*
X5355000Y-10229000D02*
X5495000Y-10229000D01*
D11*
X5857381Y-10319476D02*
X5743095Y-10319476D01*
X5800238Y-10319476D02*
X5800238Y-10119476D01*
X5781190Y-10148048D01*
X5762143Y-10167095D01*
X5743095Y-10176619D01*
X5943095Y-10300429D02*
X5952619Y-10309952D01*
X5943095Y-10319476D01*
X5933571Y-10309952D01*
X5943095Y-10300429D01*
X5943095Y-10319476D01*
X6124048Y-10186143D02*
X6124048Y-10319476D01*
X6076428Y-10109952D02*
X6028809Y-10252810D01*
X6152619Y-10252810D01*
X6266905Y-10119476D02*
X6285952Y-10119476D01*
X6305000Y-10129000D01*
X6314524Y-10138524D01*
X6324048Y-10157571D01*
X6333571Y-10195667D01*
X6333571Y-10243286D01*
X6324048Y-10281381D01*
X6314524Y-10300429D01*
X6305000Y-10309952D01*
X6285952Y-10319476D01*
X6266905Y-10319476D01*
X6247857Y-10309952D01*
X6238333Y-10300429D01*
X6228809Y-10281381D01*
X6219286Y-10243286D01*
X6219286Y-10195667D01*
X6228809Y-10157571D01*
X6238333Y-10138524D01*
X6247857Y-10129000D01*
X6266905Y-10119476D01*
X6457381Y-10119476D02*
X6476428Y-10119476D01*
X6495476Y-10129000D01*
X6505000Y-10138524D01*
X6514524Y-10157571D01*
X6524048Y-10195667D01*
X6524048Y-10243286D01*
X6514524Y-10281381D01*
X6505000Y-10300429D01*
X6495476Y-10309952D01*
X6476428Y-10319476D01*
X6457381Y-10319476D01*
X6438333Y-10309952D01*
X6428809Y-10300429D01*
X6419286Y-10281381D01*
X6409762Y-10243286D01*
X6409762Y-10195667D01*
X6419286Y-10157571D01*
X6428809Y-10138524D01*
X6438333Y-10129000D01*
X6457381Y-10119476D01*
X6609762Y-10319476D02*
X6609762Y-10186143D01*
X6609762Y-10205190D02*
X6619286Y-10195667D01*
X6638333Y-10186143D01*
X6666905Y-10186143D01*
X6685952Y-10195667D01*
X6695476Y-10214714D01*
X6695476Y-10319476D01*
X6695476Y-10214714D02*
X6705000Y-10195667D01*
X6724048Y-10186143D01*
X6752619Y-10186143D01*
X6771667Y-10195667D01*
X6781190Y-10214714D01*
X6781190Y-10319476D01*
X6876428Y-10319476D02*
X6876428Y-10186143D01*
X6876428Y-10205190D02*
X6885952Y-10195667D01*
X6905000Y-10186143D01*
X6933571Y-10186143D01*
X6952619Y-10195667D01*
X6962143Y-10214714D01*
X6962143Y-10319476D01*
X6962143Y-10214714D02*
X6971667Y-10195667D01*
X6990714Y-10186143D01*
X7019286Y-10186143D01*
X7038333Y-10195667D01*
X7047857Y-10214714D01*
X7047857Y-10319476D01*
X7438333Y-10109952D02*
X7266905Y-10367095D01*
X7695476Y-10119476D02*
X7714524Y-10119476D01*
X7733571Y-10129000D01*
X7743095Y-10138524D01*
X7752619Y-10157571D01*
X7762143Y-10195667D01*
X7762143Y-10243286D01*
X7752619Y-10281381D01*
X7743095Y-10300429D01*
X7733571Y-10309952D01*
X7714524Y-10319476D01*
X7695476Y-10319476D01*
X7676428Y-10309952D01*
X7666905Y-10300429D01*
X7657381Y-10281381D01*
X7647857Y-10243286D01*
X7647857Y-10195667D01*
X7657381Y-10157571D01*
X7666905Y-10138524D01*
X7676428Y-10129000D01*
X7695476Y-10119476D01*
X7847857Y-10300429D02*
X7857381Y-10309952D01*
X7847857Y-10319476D01*
X7838333Y-10309952D01*
X7847857Y-10300429D01*
X7847857Y-10319476D01*
X7981190Y-10119476D02*
X8000238Y-10119476D01*
X8019286Y-10129000D01*
X8028809Y-10138524D01*
X8038333Y-10157571D01*
X8047857Y-10195667D01*
X8047857Y-10243286D01*
X8038333Y-10281381D01*
X8028809Y-10300429D01*
X8019286Y-10309952D01*
X8000238Y-10319476D01*
X7981190Y-10319476D01*
X7962143Y-10309952D01*
X7952619Y-10300429D01*
X7943095Y-10281381D01*
X7933571Y-10243286D01*
X7933571Y-10195667D01*
X7943095Y-10157571D01*
X7952619Y-10138524D01*
X7962143Y-10129000D01*
X7981190Y-10119476D01*
X8228809Y-10119476D02*
X8133571Y-10119476D01*
X8124048Y-10214714D01*
X8133571Y-10205190D01*
X8152619Y-10195667D01*
X8200238Y-10195667D01*
X8219286Y-10205190D01*
X8228809Y-10214714D01*
X8238333Y-10233762D01*
X8238333Y-10281381D01*
X8228809Y-10300429D01*
X8219286Y-10309952D01*
X8200238Y-10319476D01*
X8152619Y-10319476D01*
X8133571Y-10309952D01*
X8124048Y-10300429D01*
X8419286Y-10119476D02*
X8324048Y-10119476D01*
X8314524Y-10214714D01*
X8324048Y-10205190D01*
X8343095Y-10195667D01*
X8390714Y-10195667D01*
X8409762Y-10205190D01*
X8419286Y-10214714D01*
X8428810Y-10233762D01*
X8428810Y-10281381D01*
X8419286Y-10300429D01*
X8409762Y-10309952D01*
X8390714Y-10319476D01*
X8343095Y-10319476D01*
X8324048Y-10309952D01*
X8314524Y-10300429D01*
X8619286Y-10319476D02*
X8505000Y-10319476D01*
X8562143Y-10319476D02*
X8562143Y-10119476D01*
X8543095Y-10148048D01*
X8524048Y-10167095D01*
X8505000Y-10176619D01*
X8695476Y-10119476D02*
X8695476Y-10157571D01*
X8771667Y-10119476D02*
X8771667Y-10157571D01*
X9066905Y-10395667D02*
X9057381Y-10386143D01*
X9038333Y-10357571D01*
X9028810Y-10338524D01*
X9019286Y-10309952D01*
X9009762Y-10262333D01*
X9009762Y-10224238D01*
X9019286Y-10176619D01*
X9028810Y-10148048D01*
X9038333Y-10129000D01*
X9057381Y-10100429D01*
X9066905Y-10090905D01*
X9228810Y-10119476D02*
X9190714Y-10119476D01*
X9171667Y-10129000D01*
X9162143Y-10138524D01*
X9143095Y-10167095D01*
X9133571Y-10205190D01*
X9133571Y-10281381D01*
X9143095Y-10300429D01*
X9152619Y-10309952D01*
X9171667Y-10319476D01*
X9209762Y-10319476D01*
X9228810Y-10309952D01*
X9238333Y-10300429D01*
X9247857Y-10281381D01*
X9247857Y-10233762D01*
X9238333Y-10214714D01*
X9228810Y-10205190D01*
X9209762Y-10195667D01*
X9171667Y-10195667D01*
X9152619Y-10205190D01*
X9143095Y-10214714D01*
X9133571Y-10233762D01*
X9485952Y-10319476D02*
X9485952Y-10119476D01*
X9571667Y-10319476D02*
X9571667Y-10214714D01*
X9562143Y-10195667D01*
X9543095Y-10186143D01*
X9514524Y-10186143D01*
X9495476Y-10195667D01*
X9485952Y-10205190D01*
X9695476Y-10319476D02*
X9676429Y-10309952D01*
X9666905Y-10300429D01*
X9657381Y-10281381D01*
X9657381Y-10224238D01*
X9666905Y-10205190D01*
X9676429Y-10195667D01*
X9695476Y-10186143D01*
X9724048Y-10186143D01*
X9743095Y-10195667D01*
X9752619Y-10205190D01*
X9762143Y-10224238D01*
X9762143Y-10281381D01*
X9752619Y-10300429D01*
X9743095Y-10309952D01*
X9724048Y-10319476D01*
X9695476Y-10319476D01*
X9876429Y-10319476D02*
X9857381Y-10309952D01*
X9847857Y-10290905D01*
X9847857Y-10119476D01*
X10028810Y-10309952D02*
X10009762Y-10319476D01*
X9971667Y-10319476D01*
X9952619Y-10309952D01*
X9943095Y-10290905D01*
X9943095Y-10214714D01*
X9952619Y-10195667D01*
X9971667Y-10186143D01*
X10009762Y-10186143D01*
X10028810Y-10195667D01*
X10038333Y-10214714D01*
X10038333Y-10233762D01*
X9943095Y-10252810D01*
X10114524Y-10309952D02*
X10133571Y-10319476D01*
X10171667Y-10319476D01*
X10190714Y-10309952D01*
X10200238Y-10290905D01*
X10200238Y-10281381D01*
X10190714Y-10262333D01*
X10171667Y-10252810D01*
X10143095Y-10252810D01*
X10124048Y-10243286D01*
X10114524Y-10224238D01*
X10114524Y-10214714D01*
X10124048Y-10195667D01*
X10143095Y-10186143D01*
X10171667Y-10186143D01*
X10190714Y-10195667D01*
X10266905Y-10395667D02*
X10276429Y-10386143D01*
X10295476Y-10357571D01*
X10305000Y-10338524D01*
X10314524Y-10309952D01*
X10324048Y-10262333D01*
X10324048Y-10224238D01*
X10314524Y-10176619D01*
X10305000Y-10148048D01*
X10295476Y-10129000D01*
X10276429Y-10100429D01*
X10266905Y-10090905D01*
X5295000Y-10393000D02*
X5495000Y-10593000D01*
X5495000Y-10393000D02*
X5295000Y-10593000D01*
X5465711Y-10563711D02*
X5465711Y-10422289D01*
X5324289Y-10422289D01*
X5324289Y-10563711D01*
X5465711Y-10563711D01*
X5733571Y-10383476D02*
X5857381Y-10383476D01*
X5790714Y-10459667D01*
X5819286Y-10459667D01*
X5838333Y-10469190D01*
X5847857Y-10478714D01*
X5857381Y-10497762D01*
X5857381Y-10545381D01*
X5847857Y-10564429D01*
X5838333Y-10573952D01*
X5819286Y-10583476D01*
X5762143Y-10583476D01*
X5743095Y-10573952D01*
X5733571Y-10564429D01*
X5943095Y-10564429D02*
X5952619Y-10573952D01*
X5943095Y-10583476D01*
X5933571Y-10573952D01*
X5943095Y-10564429D01*
X5943095Y-10583476D01*
X6028809Y-10402524D02*
X6038333Y-10393000D01*
X6057381Y-10383476D01*
X6105000Y-10383476D01*
X6124048Y-10393000D01*
X6133571Y-10402524D01*
X6143095Y-10421571D01*
X6143095Y-10440619D01*
X6133571Y-10469190D01*
X6019286Y-10583476D01*
X6143095Y-10583476D01*
X6266905Y-10383476D02*
X6285952Y-10383476D01*
X6305000Y-10393000D01*
X6314524Y-10402524D01*
X6324048Y-10421571D01*
X6333571Y-10459667D01*
X6333571Y-10507286D01*
X6324048Y-10545381D01*
X6314524Y-10564429D01*
X6305000Y-10573952D01*
X6285952Y-10583476D01*
X6266905Y-10583476D01*
X6247857Y-10573952D01*
X6238333Y-10564429D01*
X6228809Y-10545381D01*
X6219286Y-10507286D01*
X6219286Y-10459667D01*
X6228809Y-10421571D01*
X6238333Y-10402524D01*
X6247857Y-10393000D01*
X6266905Y-10383476D01*
X6457381Y-10383476D02*
X6476428Y-10383476D01*
X6495476Y-10393000D01*
X6505000Y-10402524D01*
X6514524Y-10421571D01*
X6524048Y-10459667D01*
X6524048Y-10507286D01*
X6514524Y-10545381D01*
X6505000Y-10564429D01*
X6495476Y-10573952D01*
X6476428Y-10583476D01*
X6457381Y-10583476D01*
X6438333Y-10573952D01*
X6428809Y-10564429D01*
X6419286Y-10545381D01*
X6409762Y-10507286D01*
X6409762Y-10459667D01*
X6419286Y-10421571D01*
X6428809Y-10402524D01*
X6438333Y-10393000D01*
X6457381Y-10383476D01*
X6609762Y-10583476D02*
X6609762Y-10450143D01*
X6609762Y-10469190D02*
X6619286Y-10459667D01*
X6638333Y-10450143D01*
X6666905Y-10450143D01*
X6685952Y-10459667D01*
X6695476Y-10478714D01*
X6695476Y-10583476D01*
X6695476Y-10478714D02*
X6705000Y-10459667D01*
X6724048Y-10450143D01*
X6752619Y-10450143D01*
X6771667Y-10459667D01*
X6781190Y-10478714D01*
X6781190Y-10583476D01*
X6876428Y-10583476D02*
X6876428Y-10450143D01*
X6876428Y-10469190D02*
X6885952Y-10459667D01*
X6905000Y-10450143D01*
X6933571Y-10450143D01*
X6952619Y-10459667D01*
X6962143Y-10478714D01*
X6962143Y-10583476D01*
X6962143Y-10478714D02*
X6971667Y-10459667D01*
X6990714Y-10450143D01*
X7019286Y-10450143D01*
X7038333Y-10459667D01*
X7047857Y-10478714D01*
X7047857Y-10583476D01*
X7438333Y-10373952D02*
X7266905Y-10631095D01*
X7695476Y-10383476D02*
X7714524Y-10383476D01*
X7733571Y-10393000D01*
X7743095Y-10402524D01*
X7752619Y-10421571D01*
X7762143Y-10459667D01*
X7762143Y-10507286D01*
X7752619Y-10545381D01*
X7743095Y-10564429D01*
X7733571Y-10573952D01*
X7714524Y-10583476D01*
X7695476Y-10583476D01*
X7676428Y-10573952D01*
X7666905Y-10564429D01*
X7657381Y-10545381D01*
X7647857Y-10507286D01*
X7647857Y-10459667D01*
X7657381Y-10421571D01*
X7666905Y-10402524D01*
X7676428Y-10393000D01*
X7695476Y-10383476D01*
X7847857Y-10564429D02*
X7857381Y-10573952D01*
X7847857Y-10583476D01*
X7838333Y-10573952D01*
X7847857Y-10564429D01*
X7847857Y-10583476D01*
X8047857Y-10583476D02*
X7933571Y-10583476D01*
X7990714Y-10583476D02*
X7990714Y-10383476D01*
X7971667Y-10412048D01*
X7952619Y-10431095D01*
X7933571Y-10440619D01*
X8124048Y-10402524D02*
X8133571Y-10393000D01*
X8152619Y-10383476D01*
X8200238Y-10383476D01*
X8219286Y-10393000D01*
X8228809Y-10402524D01*
X8238333Y-10421571D01*
X8238333Y-10440619D01*
X8228809Y-10469190D01*
X8114524Y-10583476D01*
X8238333Y-10583476D01*
X8409762Y-10383476D02*
X8371667Y-10383476D01*
X8352619Y-10393000D01*
X8343095Y-10402524D01*
X8324048Y-10431095D01*
X8314524Y-10469190D01*
X8314524Y-10545381D01*
X8324048Y-10564429D01*
X8333571Y-10573952D01*
X8352619Y-10583476D01*
X8390714Y-10583476D01*
X8409762Y-10573952D01*
X8419286Y-10564429D01*
X8428810Y-10545381D01*
X8428810Y-10497762D01*
X8419286Y-10478714D01*
X8409762Y-10469190D01*
X8390714Y-10459667D01*
X8352619Y-10459667D01*
X8333571Y-10469190D01*
X8324048Y-10478714D01*
X8314524Y-10497762D01*
X8552619Y-10383476D02*
X8571667Y-10383476D01*
X8590714Y-10393000D01*
X8600238Y-10402524D01*
X8609762Y-10421571D01*
X8619286Y-10459667D01*
X8619286Y-10507286D01*
X8609762Y-10545381D01*
X8600238Y-10564429D01*
X8590714Y-10573952D01*
X8571667Y-10583476D01*
X8552619Y-10583476D01*
X8533571Y-10573952D01*
X8524048Y-10564429D01*
X8514524Y-10545381D01*
X8505000Y-10507286D01*
X8505000Y-10459667D01*
X8514524Y-10421571D01*
X8524048Y-10402524D01*
X8533571Y-10393000D01*
X8552619Y-10383476D01*
X8695476Y-10383476D02*
X8695476Y-10421571D01*
X8771667Y-10383476D02*
X8771667Y-10421571D01*
X9066905Y-10659667D02*
X9057381Y-10650143D01*
X9038333Y-10621571D01*
X9028810Y-10602524D01*
X9019286Y-10573952D01*
X9009762Y-10526333D01*
X9009762Y-10488238D01*
X9019286Y-10440619D01*
X9028810Y-10412048D01*
X9038333Y-10393000D01*
X9057381Y-10364429D01*
X9066905Y-10354905D01*
X9228810Y-10450143D02*
X9228810Y-10583476D01*
X9181190Y-10373952D02*
X9133571Y-10516810D01*
X9257381Y-10516810D01*
X9485952Y-10583476D02*
X9485952Y-10383476D01*
X9571667Y-10583476D02*
X9571667Y-10478714D01*
X9562143Y-10459667D01*
X9543095Y-10450143D01*
X9514524Y-10450143D01*
X9495476Y-10459667D01*
X9485952Y-10469190D01*
X9695476Y-10583476D02*
X9676429Y-10573952D01*
X9666905Y-10564429D01*
X9657381Y-10545381D01*
X9657381Y-10488238D01*
X9666905Y-10469190D01*
X9676429Y-10459667D01*
X9695476Y-10450143D01*
X9724048Y-10450143D01*
X9743095Y-10459667D01*
X9752619Y-10469190D01*
X9762143Y-10488238D01*
X9762143Y-10545381D01*
X9752619Y-10564429D01*
X9743095Y-10573952D01*
X9724048Y-10583476D01*
X9695476Y-10583476D01*
X9876429Y-10583476D02*
X9857381Y-10573952D01*
X9847857Y-10554905D01*
X9847857Y-10383476D01*
X10028810Y-10573952D02*
X10009762Y-10583476D01*
X9971667Y-10583476D01*
X9952619Y-10573952D01*
X9943095Y-10554905D01*
X9943095Y-10478714D01*
X9952619Y-10459667D01*
X9971667Y-10450143D01*
X10009762Y-10450143D01*
X10028810Y-10459667D01*
X10038333Y-10478714D01*
X10038333Y-10497762D01*
X9943095Y-10516810D01*
X10114524Y-10573952D02*
X10133571Y-10583476D01*
X10171667Y-10583476D01*
X10190714Y-10573952D01*
X10200238Y-10554905D01*
X10200238Y-10545381D01*
X10190714Y-10526333D01*
X10171667Y-10516810D01*
X10143095Y-10516810D01*
X10124048Y-10507286D01*
X10114524Y-10488238D01*
X10114524Y-10478714D01*
X10124048Y-10459667D01*
X10143095Y-10450143D01*
X10171667Y-10450143D01*
X10190714Y-10459667D01*
X10266905Y-10659667D02*
X10276429Y-10650143D01*
X10295476Y-10621571D01*
X10305000Y-10602524D01*
X10314524Y-10573952D01*
X10324048Y-10526333D01*
X10324048Y-10488238D01*
X10314524Y-10440619D01*
X10305000Y-10412048D01*
X10295476Y-10393000D01*
X10276429Y-10364429D01*
X10266905Y-10354905D01*
M02*
