%TF.GenerationSoftware,KiCad,Pcbnew,(6.0.2)*%
%TF.CreationDate,2022-07-13T14:29:07+01:00*%
%TF.ProjectId,Actuators Board,41637475-6174-46f7-9273-20426f617264,rev?*%
%TF.SameCoordinates,Original*%
%TF.FileFunction,Paste,Top*%
%TF.FilePolarity,Positive*%
%FSLAX46Y46*%
G04 Gerber Fmt 4.6, Leading zero omitted, Abs format (unit mm)*
G04 Created by KiCad (PCBNEW (6.0.2)) date 2022-07-13 14:29:07*
%MOMM*%
%LPD*%
G01*
G04 APERTURE LIST*
G04 Aperture macros list*
%AMRoundRect*
0 Rectangle with rounded corners*
0 $1 Rounding radius*
0 $2 $3 $4 $5 $6 $7 $8 $9 X,Y pos of 4 corners*
0 Add a 4 corners polygon primitive as box body*
4,1,4,$2,$3,$4,$5,$6,$7,$8,$9,$2,$3,0*
0 Add four circle primitives for the rounded corners*
1,1,$1+$1,$2,$3*
1,1,$1+$1,$4,$5*
1,1,$1+$1,$6,$7*
1,1,$1+$1,$8,$9*
0 Add four rect primitives between the rounded corners*
20,1,$1+$1,$2,$3,$4,$5,0*
20,1,$1+$1,$4,$5,$6,$7,0*
20,1,$1+$1,$6,$7,$8,$9,0*
20,1,$1+$1,$8,$9,$2,$3,0*%
G04 Aperture macros list end*
%ADD10C,0.010000*%
%ADD11RoundRect,0.200000X0.200000X0.275000X-0.200000X0.275000X-0.200000X-0.275000X0.200000X-0.275000X0*%
%ADD12RoundRect,0.200000X-0.200000X-0.275000X0.200000X-0.275000X0.200000X0.275000X-0.200000X0.275000X0*%
%ADD13RoundRect,0.200000X-0.275000X0.200000X-0.275000X-0.200000X0.275000X-0.200000X0.275000X0.200000X0*%
%ADD14R,1.520000X1.500000*%
%ADD15R,2.200000X3.100000*%
%ADD16RoundRect,0.237500X0.237500X-0.287500X0.237500X0.287500X-0.237500X0.287500X-0.237500X-0.287500X0*%
%ADD17RoundRect,0.250000X-0.325000X-1.100000X0.325000X-1.100000X0.325000X1.100000X-0.325000X1.100000X0*%
%ADD18RoundRect,0.225000X0.225000X0.250000X-0.225000X0.250000X-0.225000X-0.250000X0.225000X-0.250000X0*%
%ADD19RoundRect,0.200000X0.275000X-0.200000X0.275000X0.200000X-0.275000X0.200000X-0.275000X-0.200000X0*%
%ADD20RoundRect,0.225000X-0.225000X-0.250000X0.225000X-0.250000X0.225000X0.250000X-0.225000X0.250000X0*%
%ADD21R,0.700000X1.525000*%
%ADD22R,3.200000X2.400000*%
%ADD23RoundRect,0.250000X-0.550000X1.250000X-0.550000X-1.250000X0.550000X-1.250000X0.550000X1.250000X0*%
%ADD24RoundRect,0.225000X-0.250000X0.225000X-0.250000X-0.225000X0.250000X-0.225000X0.250000X0.225000X0*%
%ADD25RoundRect,0.150000X0.587500X0.150000X-0.587500X0.150000X-0.587500X-0.150000X0.587500X-0.150000X0*%
%ADD26RoundRect,0.218750X-0.218750X-0.256250X0.218750X-0.256250X0.218750X0.256250X-0.218750X0.256250X0*%
%ADD27RoundRect,0.218750X-0.256250X0.218750X-0.256250X-0.218750X0.256250X-0.218750X0.256250X0.218750X0*%
%ADD28RoundRect,0.150000X-0.512500X-0.150000X0.512500X-0.150000X0.512500X0.150000X-0.512500X0.150000X0*%
%ADD29RoundRect,0.225000X0.250000X-0.225000X0.250000X0.225000X-0.250000X0.225000X-0.250000X-0.225000X0*%
%ADD30RoundRect,0.218750X0.256250X-0.218750X0.256250X0.218750X-0.256250X0.218750X-0.256250X-0.218750X0*%
%ADD31RoundRect,0.042000X0.258000X-0.943000X0.258000X0.943000X-0.258000X0.943000X-0.258000X-0.943000X0*%
%ADD32R,1.200000X0.900000*%
%ADD33RoundRect,0.042000X0.943000X0.258000X-0.943000X0.258000X-0.943000X-0.258000X0.943000X-0.258000X0*%
%ADD34RoundRect,0.250000X0.325000X1.100000X-0.325000X1.100000X-0.325000X-1.100000X0.325000X-1.100000X0*%
%ADD35RoundRect,0.150000X-0.150000X0.825000X-0.150000X-0.825000X0.150000X-0.825000X0.150000X0.825000X0*%
%ADD36R,0.650000X0.400000*%
%ADD37RoundRect,0.150000X-0.150000X0.512500X-0.150000X-0.512500X0.150000X-0.512500X0.150000X0.512500X0*%
%ADD38R,0.900000X0.254000*%
%ADD39R,0.254000X0.900000*%
%ADD40RoundRect,0.250000X-0.285000X-0.285000X0.285000X-0.285000X0.285000X0.285000X-0.285000X0.285000X0*%
%ADD41RoundRect,0.062500X-0.337500X-0.062500X0.337500X-0.062500X0.337500X0.062500X-0.337500X0.062500X0*%
%ADD42RoundRect,0.062500X-0.062500X-0.337500X0.062500X-0.337500X0.062500X0.337500X-0.062500X0.337500X0*%
%ADD43R,1.600000X0.800000*%
%ADD44R,3.600000X3.600000*%
%ADD45RoundRect,0.150000X0.150000X-0.587500X0.150000X0.587500X-0.150000X0.587500X-0.150000X-0.587500X0*%
%ADD46R,1.400000X1.200000*%
%ADD47R,1.400000X1.000000*%
G04 APERTURE END LIST*
D10*
%TO.C,U6*%
X98191976Y-66700000D02*
X96790000Y-66700000D01*
X96790000Y-66700000D02*
X96790000Y-65298024D01*
X96790000Y-65298024D02*
X98191976Y-65298024D01*
X98191976Y-65298024D02*
X98191976Y-66700000D01*
G36*
X98191976Y-66700000D02*
G01*
X96790000Y-66700000D01*
X96790000Y-65298024D01*
X98191976Y-65298024D01*
X98191976Y-66700000D01*
G37*
X98191976Y-66700000D02*
X96790000Y-66700000D01*
X96790000Y-65298024D01*
X98191976Y-65298024D01*
X98191976Y-66700000D01*
%TO.C,U3*%
X93113170Y-46500000D02*
X91863250Y-46500000D01*
X91863250Y-46500000D02*
X91863250Y-45249520D01*
X91863250Y-45249520D02*
X93113170Y-45249520D01*
X93113170Y-45249520D02*
X93113170Y-46500000D01*
G36*
X93113170Y-46500000D02*
G01*
X91863250Y-46500000D01*
X91863250Y-45249520D01*
X93113170Y-45249520D01*
X93113170Y-46500000D01*
G37*
X93113170Y-46500000D02*
X91863250Y-46500000D01*
X91863250Y-45249520D01*
X93113170Y-45249520D01*
X93113170Y-46500000D01*
X93112804Y-48250000D02*
X91863250Y-48250000D01*
X91863250Y-48250000D02*
X91863250Y-47000446D01*
X91863250Y-47000446D02*
X93112804Y-47000446D01*
X93112804Y-47000446D02*
X93112804Y-48250000D01*
G36*
X93112804Y-48250000D02*
G01*
X91863250Y-48250000D01*
X91863250Y-47000446D01*
X93112804Y-47000446D01*
X93112804Y-48250000D01*
G37*
X93112804Y-48250000D02*
X91863250Y-48250000D01*
X91863250Y-47000446D01*
X93112804Y-47000446D01*
X93112804Y-48250000D01*
X94864070Y-48250000D02*
X93613250Y-48250000D01*
X93613250Y-48250000D02*
X93613250Y-47000137D01*
X93613250Y-47000137D02*
X94864070Y-47000137D01*
X94864070Y-47000137D02*
X94864070Y-48250000D01*
G36*
X94864070Y-48250000D02*
G01*
X93613250Y-48250000D01*
X93613250Y-47000137D01*
X94864070Y-47000137D01*
X94864070Y-48250000D01*
G37*
X94864070Y-48250000D02*
X93613250Y-48250000D01*
X93613250Y-47000137D01*
X94864070Y-47000137D01*
X94864070Y-48250000D01*
X94865260Y-46500000D02*
X93613250Y-46500000D01*
X93613250Y-46500000D02*
X93613250Y-45247990D01*
X93613250Y-45247990D02*
X94865260Y-45247990D01*
X94865260Y-45247990D02*
X94865260Y-46500000D01*
G36*
X94865260Y-46500000D02*
G01*
X93613250Y-46500000D01*
X93613250Y-45247990D01*
X94865260Y-45247990D01*
X94865260Y-46500000D01*
G37*
X94865260Y-46500000D02*
X93613250Y-46500000D01*
X93613250Y-45247990D01*
X94865260Y-45247990D01*
X94865260Y-46500000D01*
%TD*%
D11*
%TO.C,R13*%
X102300000Y-69500000D03*
X100650000Y-69500000D03*
%TD*%
D12*
%TO.C,R4*%
X67625000Y-77150000D03*
X69275000Y-77150000D03*
%TD*%
D13*
%TO.C,R27*%
X77450000Y-54625000D03*
X77450000Y-56275000D03*
%TD*%
D14*
%TO.C,D11*%
X63360000Y-77070000D03*
D15*
X63360000Y-73850000D03*
%TD*%
D16*
%TO.C,L1*%
X78775000Y-38875000D03*
X78775000Y-37125000D03*
%TD*%
D17*
%TO.C,C7*%
X66500000Y-73237500D03*
X69450000Y-73237500D03*
%TD*%
D12*
%TO.C,R3*%
X95325000Y-42590000D03*
X96975000Y-42590000D03*
%TD*%
D18*
%TO.C,C5*%
X83025000Y-41800000D03*
X81475000Y-41800000D03*
%TD*%
D13*
%TO.C,R35*%
X85040000Y-64135000D03*
X85040000Y-65785000D03*
%TD*%
D19*
%TO.C,R28*%
X83550000Y-65225000D03*
X83550000Y-63575000D03*
%TD*%
D20*
%TO.C,C36*%
X74950000Y-67200000D03*
X76500000Y-67200000D03*
%TD*%
D21*
%TO.C,IC1*%
X63920000Y-70262000D03*
X65190000Y-70262000D03*
X66460000Y-70262000D03*
X67730000Y-70262000D03*
X67730000Y-64838000D03*
X66460000Y-64838000D03*
X65190000Y-64838000D03*
X63920000Y-64838000D03*
D22*
X65825000Y-67550000D03*
%TD*%
D12*
%TO.C,R30*%
X74615000Y-63520000D03*
X76265000Y-63520000D03*
%TD*%
D23*
%TO.C,C19*%
X59675000Y-47575000D03*
X59675000Y-51975000D03*
%TD*%
D19*
%TO.C,R31*%
X73340000Y-46505000D03*
X73340000Y-44855000D03*
%TD*%
%TO.C,R10*%
X84750000Y-38725000D03*
X84750000Y-37075000D03*
%TD*%
D13*
%TO.C,R26*%
X82750000Y-53100000D03*
X82750000Y-54750000D03*
%TD*%
D24*
%TO.C,C10*%
X99980000Y-42045000D03*
X99980000Y-43595000D03*
%TD*%
D25*
%TO.C,Q2*%
X97387500Y-72987500D03*
X97387500Y-71087500D03*
X95512500Y-72037500D03*
%TD*%
D18*
%TO.C,C11*%
X78775000Y-40425000D03*
X77225000Y-40425000D03*
%TD*%
D20*
%TO.C,C6*%
X70167039Y-56172038D03*
X71717039Y-56172038D03*
%TD*%
D26*
%TO.C,24VLED1*%
X67662500Y-78650000D03*
X69237500Y-78650000D03*
%TD*%
D27*
%TO.C,3V3LED1*%
X93362500Y-70337500D03*
X93362500Y-71912500D03*
%TD*%
D28*
%TO.C,U5*%
X87887500Y-70325000D03*
X87887500Y-71275000D03*
X87887500Y-72225000D03*
X90162500Y-72225000D03*
X90162500Y-70325000D03*
%TD*%
D20*
%TO.C,C34*%
X79015000Y-57700000D03*
X80565000Y-57700000D03*
%TD*%
D27*
%TO.C,TXLED1*%
X90205000Y-52585000D03*
X90205000Y-54160000D03*
%TD*%
D12*
%TO.C,R7*%
X83725000Y-57970000D03*
X85375000Y-57970000D03*
%TD*%
D14*
%TO.C,D9*%
X96075000Y-74790000D03*
D15*
X96075000Y-78010000D03*
%TD*%
D13*
%TO.C,R24*%
X91500000Y-64875000D03*
X91500000Y-66525000D03*
%TD*%
D29*
%TO.C,C1*%
X96890855Y-55730000D03*
X96890855Y-54180000D03*
%TD*%
D11*
%TO.C,R16*%
X90143540Y-41007319D03*
X88493540Y-41007319D03*
%TD*%
D19*
%TO.C,R34*%
X85040000Y-62705000D03*
X85040000Y-61055000D03*
%TD*%
D30*
%TO.C,RXLED1*%
X86350000Y-38662500D03*
X86350000Y-37087500D03*
%TD*%
D11*
%TO.C,R20*%
X69712039Y-42628088D03*
X68062039Y-42628088D03*
%TD*%
D14*
%TO.C,D10*%
X61300000Y-70960000D03*
D15*
X61300000Y-67740000D03*
%TD*%
D19*
%TO.C,R14*%
X91862500Y-71950000D03*
X91862500Y-70300000D03*
%TD*%
D12*
%TO.C,R22*%
X68062039Y-39627038D03*
X69712039Y-39627038D03*
%TD*%
D19*
%TO.C,R21*%
X99231049Y-72585418D03*
X99231049Y-70935418D03*
%TD*%
%TO.C,R2*%
X93890000Y-57150229D03*
X93890000Y-55500229D03*
%TD*%
D13*
%TO.C,R6*%
X98440000Y-41005000D03*
X98440000Y-42655000D03*
%TD*%
D27*
%TO.C,USBLED1*%
X104170000Y-45535000D03*
X104170000Y-47110000D03*
%TD*%
D18*
%TO.C,C17*%
X67625000Y-75637500D03*
X66075000Y-75637500D03*
%TD*%
%TO.C,C22*%
X90012500Y-68775000D03*
X88462500Y-68775000D03*
%TD*%
D31*
%TO.C,U2*%
X66835000Y-54055019D03*
X68105000Y-54055019D03*
X69375000Y-54055019D03*
X70645000Y-54055019D03*
X70645000Y-49115019D03*
X69375000Y-49115019D03*
X68105000Y-49115019D03*
X66835000Y-49115019D03*
%TD*%
D32*
%TO.C,D8*%
X63837039Y-49077038D03*
X63837039Y-52377038D03*
%TD*%
D20*
%TO.C,C37*%
X74950000Y-61750000D03*
X76500000Y-61750000D03*
%TD*%
D33*
%TO.C,U6*%
X99960000Y-67905000D03*
X99960000Y-66635000D03*
X99960000Y-65365000D03*
X99960000Y-64095000D03*
X95020000Y-64095000D03*
X95020000Y-65365000D03*
X95020000Y-66635000D03*
X95020000Y-67905000D03*
%TD*%
D18*
%TO.C,C23*%
X90000000Y-67075000D03*
X88450000Y-67075000D03*
%TD*%
D34*
%TO.C,C14*%
X68100000Y-57042519D03*
X65150000Y-57042519D03*
%TD*%
D35*
%TO.C,U4*%
X81980000Y-59700000D03*
X80710000Y-59700000D03*
X79440000Y-59700000D03*
X78170000Y-59700000D03*
X78170000Y-64650000D03*
X79440000Y-64650000D03*
X80710000Y-64650000D03*
X81980000Y-64650000D03*
%TD*%
D19*
%TO.C,R33*%
X71575000Y-63675000D03*
X71575000Y-62025000D03*
%TD*%
D20*
%TO.C,C33*%
X79015000Y-56200000D03*
X80565000Y-56200000D03*
%TD*%
D12*
%TO.C,R32*%
X76135000Y-47920000D03*
X77785000Y-47920000D03*
%TD*%
%TO.C,R15*%
X94384388Y-41097834D03*
X96034388Y-41097834D03*
%TD*%
D19*
%TO.C,R5*%
X96890855Y-58840000D03*
X96890855Y-57190000D03*
%TD*%
D12*
%TO.C,R9*%
X101530855Y-61950000D03*
X103180855Y-61950000D03*
%TD*%
D36*
%TO.C,Q1*%
X92090000Y-58650229D03*
X92090000Y-59300229D03*
X92090000Y-59950229D03*
X93990000Y-59950229D03*
X93990000Y-59300229D03*
X93990000Y-58650229D03*
%TD*%
D18*
%TO.C,C26*%
X83025000Y-40300000D03*
X81475000Y-40300000D03*
%TD*%
D37*
%TO.C,U7*%
X89950000Y-63087500D03*
X89000000Y-63087500D03*
X88050000Y-63087500D03*
X88050000Y-65362500D03*
X89950000Y-65362500D03*
%TD*%
D11*
%TO.C,R12*%
X99300000Y-69500000D03*
X97650000Y-69500000D03*
%TD*%
D24*
%TO.C,C30*%
X84510000Y-53175000D03*
X84510000Y-54725000D03*
%TD*%
D38*
%TO.C,U3*%
X95953250Y-48250000D03*
X95953250Y-47750000D03*
X95953250Y-47250000D03*
X95953250Y-46750000D03*
X95953250Y-46250000D03*
X95953250Y-45750000D03*
X95953250Y-45250000D03*
D39*
X94863250Y-44160000D03*
X94363250Y-44160000D03*
X93863250Y-44160000D03*
X93363250Y-44160000D03*
X92863250Y-44160000D03*
X92363250Y-44160000D03*
X91863250Y-44160000D03*
D38*
X90773250Y-45250000D03*
X90773250Y-45750000D03*
X90773250Y-46250000D03*
X90773250Y-46750000D03*
X90773250Y-47250000D03*
X90773250Y-47750000D03*
X90773250Y-48250000D03*
D39*
X91863250Y-49340000D03*
X92363250Y-49340000D03*
X92863250Y-49340000D03*
X93363250Y-49340000D03*
X93863250Y-49340000D03*
X94363250Y-49340000D03*
X94863250Y-49340000D03*
%TD*%
D18*
%TO.C,C3*%
X103130855Y-60425000D03*
X101580855Y-60425000D03*
%TD*%
D19*
%TO.C,R11*%
X90200000Y-57225000D03*
X90200000Y-55575000D03*
%TD*%
D40*
%TO.C,U1*%
X81230000Y-47640000D03*
X82550000Y-50280000D03*
X82550000Y-48960000D03*
X81230000Y-46320000D03*
X82550000Y-47640000D03*
X83870000Y-50280000D03*
X81230000Y-48960000D03*
X85190000Y-47640000D03*
X85190000Y-48960000D03*
X83870000Y-46320000D03*
X83870000Y-48960000D03*
X85190000Y-50280000D03*
X83870000Y-47640000D03*
X81230000Y-50280000D03*
X82550000Y-46320000D03*
X85190000Y-46320000D03*
D41*
X79760000Y-45550000D03*
X79760000Y-46050000D03*
X79760000Y-46550000D03*
X79760000Y-47050000D03*
X79760000Y-47550000D03*
X79760000Y-48050000D03*
X79760000Y-48550000D03*
X79760000Y-49050000D03*
X79760000Y-49550000D03*
X79760000Y-50050000D03*
X79760000Y-50550000D03*
X79760000Y-51050000D03*
D42*
X80460000Y-51750000D03*
X80960000Y-51750000D03*
X81460000Y-51750000D03*
X81960000Y-51750000D03*
X82460000Y-51750000D03*
X82960000Y-51750000D03*
X83460000Y-51750000D03*
X83960000Y-51750000D03*
X84460000Y-51750000D03*
X84960000Y-51750000D03*
X85460000Y-51750000D03*
X85960000Y-51750000D03*
D41*
X86660000Y-51050000D03*
X86660000Y-50550000D03*
X86660000Y-50050000D03*
X86660000Y-49550000D03*
X86660000Y-49050000D03*
X86660000Y-48550000D03*
X86660000Y-48050000D03*
X86660000Y-47550000D03*
X86660000Y-47050000D03*
X86660000Y-46550000D03*
X86660000Y-46050000D03*
X86660000Y-45550000D03*
D42*
X85960000Y-44850000D03*
X85460000Y-44850000D03*
X84960000Y-44850000D03*
X84460000Y-44850000D03*
X83960000Y-44850000D03*
X83460000Y-44850000D03*
X82960000Y-44850000D03*
X82460000Y-44850000D03*
X81960000Y-44850000D03*
X81460000Y-44850000D03*
X80960000Y-44850000D03*
X80460000Y-44850000D03*
%TD*%
D29*
%TO.C,C15*%
X69637039Y-45627038D03*
X69637039Y-44077038D03*
%TD*%
D43*
%TO.C,ANT1*%
X79086934Y-34147578D03*
X79086934Y-30747578D03*
%TD*%
D18*
%TO.C,C2*%
X85325000Y-59520000D03*
X83775000Y-59520000D03*
%TD*%
D26*
%TO.C,SolLED1*%
X100737500Y-71025000D03*
X102312500Y-71025000D03*
%TD*%
D12*
%TO.C,R8*%
X83725000Y-56350000D03*
X85375000Y-56350000D03*
%TD*%
%TO.C,R25*%
X91425000Y-67975000D03*
X93075000Y-67975000D03*
%TD*%
D18*
%TO.C,C13*%
X69682563Y-47087409D03*
X68132563Y-47087409D03*
%TD*%
D19*
%TO.C,R18*%
X104170000Y-50215000D03*
X104170000Y-48565000D03*
%TD*%
D20*
%TO.C,C31*%
X86250000Y-43420000D03*
X87800000Y-43420000D03*
%TD*%
D44*
%TO.C,L2*%
X65350000Y-41775000D03*
X58950000Y-41775000D03*
%TD*%
D29*
%TO.C,C28*%
X76260000Y-46455000D03*
X76260000Y-44905000D03*
%TD*%
D18*
%TO.C,C12*%
X78800000Y-35575000D03*
X77250000Y-35575000D03*
%TD*%
D29*
%TO.C,C18*%
X101490000Y-46605000D03*
X101490000Y-45055000D03*
%TD*%
%TO.C,C27*%
X74800000Y-46455000D03*
X74800000Y-44905000D03*
%TD*%
D45*
%TO.C,D12*%
X69400000Y-67462500D03*
X71300000Y-67462500D03*
X70350000Y-65587500D03*
%TD*%
D46*
%TO.C,D4*%
X102400000Y-52020000D03*
D47*
X102400000Y-50300000D03*
X100200000Y-50300000D03*
X100200000Y-52200000D03*
%TD*%
D19*
%TO.C,R1*%
X92170000Y-57140229D03*
X92170000Y-55490229D03*
%TD*%
D11*
%TO.C,R29*%
X76265000Y-65300000D03*
X74615000Y-65300000D03*
%TD*%
D18*
%TO.C,C4*%
X83025000Y-43300000D03*
X81475000Y-43300000D03*
%TD*%
D11*
%TO.C,R23*%
X69712662Y-41128088D03*
X68062662Y-41128088D03*
%TD*%
D29*
%TO.C,C9*%
X99980000Y-46605000D03*
X99980000Y-45055000D03*
%TD*%
%TO.C,C35*%
X73075000Y-63625000D03*
X73075000Y-62075000D03*
%TD*%
D12*
%TO.C,R17*%
X92188828Y-42745110D03*
X93838828Y-42745110D03*
%TD*%
D18*
%TO.C,C25*%
X93025000Y-63425000D03*
X91475000Y-63425000D03*
%TD*%
D24*
%TO.C,C8*%
X101490000Y-42045000D03*
X101490000Y-43595000D03*
%TD*%
D29*
%TO.C,C29*%
X77720000Y-46455000D03*
X77720000Y-44905000D03*
%TD*%
D20*
%TO.C,C16*%
X65117110Y-47084757D03*
X66667110Y-47084757D03*
%TD*%
D24*
%TO.C,C20*%
X101930000Y-63945000D03*
X101930000Y-65495000D03*
%TD*%
M02*
