G04 #@! TF.GenerationSoftware,KiCad,Pcbnew,(6.0.2)*
G04 #@! TF.CreationDate,2022-07-14T22:41:21+01:00*
G04 #@! TF.ProjectId,Actuators Board,41637475-6174-46f7-9273-20426f617264,rev?*
G04 #@! TF.SameCoordinates,Original*
G04 #@! TF.FileFunction,Soldermask,Top*
G04 #@! TF.FilePolarity,Negative*
%FSLAX46Y46*%
G04 Gerber Fmt 4.6, Leading zero omitted, Abs format (unit mm)*
G04 Created by KiCad (PCBNEW (6.0.2)) date 2022-07-14 22:41:21*
%MOMM*%
%LPD*%
G01*
G04 APERTURE LIST*
G04 Aperture macros list*
%AMRoundRect*
0 Rectangle with rounded corners*
0 $1 Rounding radius*
0 $2 $3 $4 $5 $6 $7 $8 $9 X,Y pos of 4 corners*
0 Add a 4 corners polygon primitive as box body*
4,1,4,$2,$3,$4,$5,$6,$7,$8,$9,$2,$3,0*
0 Add four circle primitives for the rounded corners*
1,1,$1+$1,$2,$3*
1,1,$1+$1,$4,$5*
1,1,$1+$1,$6,$7*
1,1,$1+$1,$8,$9*
0 Add four rect primitives between the rounded corners*
20,1,$1+$1,$2,$3,$4,$5,0*
20,1,$1+$1,$4,$5,$6,$7,0*
20,1,$1+$1,$6,$7,$8,$9,0*
20,1,$1+$1,$8,$9,$2,$3,0*%
%AMFreePoly0*
4,1,23,0.945671,0.830970,1.026777,0.776777,1.080970,0.695671,1.100000,0.600000,1.100000,-0.600000,1.080970,-0.695671,1.026777,-0.776777,0.945671,-0.830970,0.850000,-0.850000,-0.450000,-0.850000,-0.545671,-0.830970,-0.626777,-0.776777,-0.626779,-0.776774,-1.026777,-0.376777,-1.080970,-0.295671,-1.100000,-0.200000,-1.100000,0.600000,-1.080970,0.695671,-1.026777,0.776777,-0.945671,0.830970,
-0.850000,0.850000,0.850000,0.850000,0.945671,0.830970,0.945671,0.830970,$1*%
G04 Aperture macros list end*
%ADD10R,1.700000X1.700000*%
%ADD11O,1.700000X1.700000*%
%ADD12C,2.000000*%
%ADD13RoundRect,0.200000X0.200000X0.275000X-0.200000X0.275000X-0.200000X-0.275000X0.200000X-0.275000X0*%
%ADD14RoundRect,0.200000X-0.200000X-0.275000X0.200000X-0.275000X0.200000X0.275000X-0.200000X0.275000X0*%
%ADD15C,1.000000*%
%ADD16C,5.600000*%
%ADD17R,1.520000X1.500000*%
%ADD18R,2.200000X3.100000*%
%ADD19RoundRect,0.237500X0.237500X-0.287500X0.237500X0.287500X-0.237500X0.287500X-0.237500X-0.287500X0*%
%ADD20RoundRect,0.250000X-0.325000X-1.100000X0.325000X-1.100000X0.325000X1.100000X-0.325000X1.100000X0*%
%ADD21RoundRect,0.225000X0.225000X0.250000X-0.225000X0.250000X-0.225000X-0.250000X0.225000X-0.250000X0*%
%ADD22RoundRect,0.200000X-0.275000X0.200000X-0.275000X-0.200000X0.275000X-0.200000X0.275000X0.200000X0*%
%ADD23RoundRect,0.200000X0.275000X-0.200000X0.275000X0.200000X-0.275000X0.200000X-0.275000X-0.200000X0*%
%ADD24RoundRect,0.225000X-0.225000X-0.250000X0.225000X-0.250000X0.225000X0.250000X-0.225000X0.250000X0*%
%ADD25R,0.700000X1.525000*%
%ADD26R,3.200000X2.400000*%
%ADD27C,1.300000*%
%ADD28RoundRect,0.250000X0.850000X0.600000X-0.850000X0.600000X-0.850000X-0.600000X0.850000X-0.600000X0*%
%ADD29O,2.200000X1.700000*%
%ADD30RoundRect,0.250000X-0.550000X1.250000X-0.550000X-1.250000X0.550000X-1.250000X0.550000X1.250000X0*%
%ADD31RoundRect,0.250001X1.099999X1.399999X-1.099999X1.399999X-1.099999X-1.399999X1.099999X-1.399999X0*%
%ADD32O,2.700000X3.300000*%
%ADD33RoundRect,0.225000X-0.250000X0.225000X-0.250000X-0.225000X0.250000X-0.225000X0.250000X0.225000X0*%
%ADD34RoundRect,0.150000X0.587500X0.150000X-0.587500X0.150000X-0.587500X-0.150000X0.587500X-0.150000X0*%
%ADD35RoundRect,0.218750X-0.218750X-0.256250X0.218750X-0.256250X0.218750X0.256250X-0.218750X0.256250X0*%
%ADD36RoundRect,0.218750X-0.256250X0.218750X-0.256250X-0.218750X0.256250X-0.218750X0.256250X0.218750X0*%
%ADD37RoundRect,0.150000X-0.512500X-0.150000X0.512500X-0.150000X0.512500X0.150000X-0.512500X0.150000X0*%
%ADD38C,0.700000*%
%ADD39O,0.900000X1.700000*%
%ADD40O,0.900000X2.400000*%
%ADD41RoundRect,0.225000X0.250000X-0.225000X0.250000X0.225000X-0.250000X0.225000X-0.250000X-0.225000X0*%
%ADD42RoundRect,0.218750X0.256250X-0.218750X0.256250X0.218750X-0.256250X0.218750X-0.256250X-0.218750X0*%
%ADD43C,1.500000*%
%ADD44RoundRect,0.042000X0.258000X-0.943000X0.258000X0.943000X-0.258000X0.943000X-0.258000X-0.943000X0*%
%ADD45R,1.200000X0.900000*%
%ADD46RoundRect,0.042000X0.943000X0.258000X-0.943000X0.258000X-0.943000X-0.258000X0.943000X-0.258000X0*%
%ADD47R,2.150000X2.150000*%
%ADD48RoundRect,0.250000X0.325000X1.100000X-0.325000X1.100000X-0.325000X-1.100000X0.325000X-1.100000X0*%
%ADD49RoundRect,0.150000X-0.150000X0.825000X-0.150000X-0.825000X0.150000X-0.825000X0.150000X0.825000X0*%
%ADD50FreePoly0,90.000000*%
%ADD51O,1.700000X2.200000*%
%ADD52R,0.650000X0.400000*%
%ADD53RoundRect,0.150000X-0.150000X0.512500X-0.150000X-0.512500X0.150000X-0.512500X0.150000X0.512500X0*%
%ADD54R,0.900000X0.254000*%
%ADD55R,0.254000X0.900000*%
%ADD56R,3.100000X3.100000*%
%ADD57RoundRect,0.062500X-0.337500X-0.062500X0.337500X-0.062500X0.337500X0.062500X-0.337500X0.062500X0*%
%ADD58RoundRect,0.062500X-0.062500X-0.337500X0.062500X-0.337500X0.062500X0.337500X-0.062500X0.337500X0*%
%ADD59R,5.300000X5.300000*%
%ADD60R,1.600000X0.800000*%
%ADD61R,3.600000X3.600000*%
%ADD62RoundRect,0.150000X0.150000X-0.587500X0.150000X0.587500X-0.150000X0.587500X-0.150000X-0.587500X0*%
%ADD63R,1.400000X1.200000*%
%ADD64R,1.400000X1.000000*%
%ADD65FreePoly0,180.000000*%
G04 APERTURE END LIST*
D10*
X74670000Y-39830000D03*
D11*
X74670000Y-42370000D03*
D12*
X72980000Y-51060000D03*
D13*
X102300000Y-69500000D03*
X100650000Y-69500000D03*
D14*
X67625000Y-77150000D03*
X69275000Y-77150000D03*
D15*
X69120000Y-62910000D03*
D16*
X58500000Y-76500000D03*
D17*
X63360000Y-77070000D03*
D18*
X63360000Y-73850000D03*
D19*
X78775000Y-38875000D03*
X78775000Y-37125000D03*
D20*
X66500000Y-73237500D03*
X69450000Y-73237500D03*
D14*
X95325000Y-42590000D03*
X96975000Y-42590000D03*
D21*
X83025000Y-41800000D03*
X81475000Y-41800000D03*
D22*
X85040000Y-64135000D03*
X85040000Y-65785000D03*
D23*
X83550000Y-65225000D03*
X83550000Y-63575000D03*
D24*
X74950000Y-67200000D03*
X76500000Y-67200000D03*
D25*
X63920000Y-70262000D03*
X65190000Y-70262000D03*
X66460000Y-70262000D03*
X67730000Y-70262000D03*
X67730000Y-64838000D03*
X66460000Y-64838000D03*
X65190000Y-64838000D03*
X63920000Y-64838000D03*
D26*
X65825000Y-67550000D03*
D27*
X58710000Y-62750000D03*
D28*
X57370000Y-69000000D03*
D29*
X57370000Y-66500000D03*
X57370000Y-64000000D03*
X57370000Y-61500000D03*
X57370000Y-59000000D03*
X57370000Y-56500000D03*
D15*
X65700000Y-61425000D03*
D14*
X74615000Y-63520000D03*
X76265000Y-63520000D03*
D15*
X94970000Y-53760229D03*
D30*
X59675000Y-47575000D03*
X59675000Y-51975000D03*
D23*
X73340000Y-46505000D03*
X73340000Y-44855000D03*
X84750000Y-38725000D03*
X84750000Y-37075000D03*
D31*
X83725000Y-77190000D03*
D32*
X79525000Y-77190000D03*
X75325000Y-77190000D03*
X83725000Y-71690000D03*
X79525000Y-71690000D03*
X75325000Y-71690000D03*
D33*
X99980000Y-42045000D03*
X99980000Y-43595000D03*
D34*
X97387500Y-72987500D03*
X97387500Y-71087500D03*
X95512500Y-72037500D03*
D21*
X78775000Y-40425000D03*
X77225000Y-40425000D03*
D24*
X70167039Y-56172038D03*
X71717039Y-56172038D03*
D35*
X67662500Y-78650000D03*
X69237500Y-78650000D03*
D36*
X93362500Y-70337500D03*
X93362500Y-71912500D03*
D37*
X87887500Y-70325000D03*
X87887500Y-71275000D03*
X87887500Y-72225000D03*
X90162500Y-72225000D03*
X90162500Y-70325000D03*
D24*
X79015000Y-57700000D03*
X80565000Y-57700000D03*
D36*
X90205000Y-52585000D03*
X90205000Y-54160000D03*
D14*
X83725000Y-57970000D03*
X85375000Y-57970000D03*
D17*
X96075000Y-74790000D03*
D18*
X96075000Y-78010000D03*
D38*
X96085000Y-39165000D03*
X95235000Y-39165000D03*
X94385000Y-39165000D03*
X93535000Y-39165000D03*
X92685000Y-39165000D03*
X91835000Y-39165000D03*
X90985000Y-39165000D03*
X90135000Y-39165000D03*
X90135000Y-37815000D03*
X90985000Y-37815000D03*
X91835000Y-37815000D03*
X92685000Y-37815000D03*
X93535000Y-37815000D03*
X94385000Y-37815000D03*
X95235000Y-37815000D03*
X96085000Y-37815000D03*
D39*
X97435000Y-34805000D03*
D40*
X97435000Y-38185000D03*
X88785000Y-38185000D03*
D39*
X88785000Y-34805000D03*
D22*
X91500000Y-64875000D03*
X91500000Y-66525000D03*
D41*
X96890855Y-55730000D03*
X96890855Y-54180000D03*
D13*
X90143540Y-41007319D03*
X88493540Y-41007319D03*
D23*
X85040000Y-62705000D03*
X85040000Y-61055000D03*
D42*
X86350000Y-38662500D03*
X86350000Y-37087500D03*
D13*
X69712039Y-42628088D03*
X68062039Y-42628088D03*
D17*
X61300000Y-70960000D03*
D18*
X61300000Y-67740000D03*
D23*
X91862500Y-71950000D03*
X91862500Y-70300000D03*
D14*
X68062039Y-39627038D03*
X69712039Y-39627038D03*
D23*
X99231049Y-72585418D03*
X99231049Y-70935418D03*
D16*
X101500000Y-33500000D03*
D23*
X93890000Y-57150229D03*
X93890000Y-55500229D03*
D22*
X98440000Y-41005000D03*
X98440000Y-42655000D03*
D43*
X87400000Y-60560000D03*
D36*
X104170000Y-45535000D03*
X104170000Y-47110000D03*
D15*
X88410000Y-45340000D03*
D21*
X67625000Y-75637500D03*
X66075000Y-75637500D03*
X90012500Y-68775000D03*
X88462500Y-68775000D03*
D44*
X66835000Y-54055019D03*
X68105000Y-54055019D03*
X69375000Y-54055019D03*
X70645000Y-54055019D03*
X70645000Y-49115019D03*
X69375000Y-49115019D03*
X68105000Y-49115019D03*
X66835000Y-49115019D03*
D45*
X63837039Y-49077038D03*
X63837039Y-52377038D03*
D24*
X74950000Y-61750000D03*
X76500000Y-61750000D03*
D15*
X92630000Y-53610229D03*
X63625000Y-61325000D03*
D46*
X99960000Y-67905000D03*
X99960000Y-66635000D03*
X99960000Y-65365000D03*
X99960000Y-64095000D03*
X95020000Y-64095000D03*
X95020000Y-65365000D03*
X95020000Y-66635000D03*
X95020000Y-67905000D03*
D47*
X97490000Y-66000000D03*
D21*
X90000000Y-67075000D03*
X88450000Y-67075000D03*
D15*
X98150000Y-52000000D03*
D10*
X103150000Y-57700000D03*
D11*
X103150000Y-55160000D03*
D48*
X68100000Y-57042519D03*
X65150000Y-57042519D03*
D15*
X98715855Y-60580000D03*
D49*
X81980000Y-59700000D03*
X80710000Y-59700000D03*
X79440000Y-59700000D03*
X78170000Y-59700000D03*
X78170000Y-64650000D03*
X79440000Y-64650000D03*
X80710000Y-64650000D03*
X81980000Y-64650000D03*
D10*
X99530855Y-57700000D03*
D11*
X99530855Y-55160000D03*
D15*
X88370000Y-48190000D03*
D23*
X71575000Y-63675000D03*
X71575000Y-62025000D03*
D24*
X79015000Y-56200000D03*
X80565000Y-56200000D03*
D14*
X76135000Y-47920000D03*
X77785000Y-47920000D03*
X94384388Y-41097834D03*
X96034388Y-41097834D03*
D27*
X65925000Y-33865000D03*
D50*
X64675000Y-32525000D03*
D51*
X67175000Y-32525000D03*
X69675000Y-32525000D03*
D23*
X96890855Y-58840000D03*
X96890855Y-57190000D03*
D14*
X101530855Y-61950000D03*
X103180855Y-61950000D03*
D52*
X92090000Y-58650229D03*
X92090000Y-59300229D03*
X92090000Y-59950229D03*
X93990000Y-59950229D03*
X93990000Y-59300229D03*
X93990000Y-58650229D03*
D21*
X83025000Y-40300000D03*
X81475000Y-40300000D03*
D53*
X89950000Y-63087500D03*
X89000000Y-63087500D03*
X88050000Y-63087500D03*
X88050000Y-65362500D03*
X89950000Y-65362500D03*
D13*
X99300000Y-69500000D03*
X97650000Y-69500000D03*
D33*
X84510000Y-53175000D03*
X84510000Y-54725000D03*
D16*
X101500000Y-76500000D03*
D54*
X95953250Y-48250000D03*
X95953250Y-47750000D03*
X95953250Y-47250000D03*
X95953250Y-46750000D03*
X95953250Y-46250000D03*
X95953250Y-45750000D03*
X95953250Y-45250000D03*
D55*
X94863250Y-44160000D03*
X94363250Y-44160000D03*
X93863250Y-44160000D03*
X93363250Y-44160000D03*
X92863250Y-44160000D03*
X92363250Y-44160000D03*
X91863250Y-44160000D03*
D54*
X90773250Y-45250000D03*
X90773250Y-45750000D03*
X90773250Y-46250000D03*
X90773250Y-46750000D03*
X90773250Y-47250000D03*
X90773250Y-47750000D03*
X90773250Y-48250000D03*
D55*
X91863250Y-49340000D03*
X92363250Y-49340000D03*
X92863250Y-49340000D03*
X93363250Y-49340000D03*
X93863250Y-49340000D03*
X94363250Y-49340000D03*
X94863250Y-49340000D03*
D56*
X93363250Y-46750000D03*
D15*
X100370000Y-48360000D03*
D21*
X103130855Y-60425000D03*
X101580855Y-60425000D03*
D23*
X90200000Y-57225000D03*
X90200000Y-55575000D03*
D57*
X79760000Y-45550000D03*
X79760000Y-46050000D03*
X79760000Y-46550000D03*
X79760000Y-47050000D03*
X79760000Y-47550000D03*
X79760000Y-48050000D03*
X79760000Y-48550000D03*
X79760000Y-49050000D03*
X79760000Y-49550000D03*
X79760000Y-50050000D03*
X79760000Y-50550000D03*
X79760000Y-51050000D03*
D58*
X80460000Y-51750000D03*
X80960000Y-51750000D03*
X81460000Y-51750000D03*
X81960000Y-51750000D03*
X82460000Y-51750000D03*
X82960000Y-51750000D03*
X83460000Y-51750000D03*
X83960000Y-51750000D03*
X84460000Y-51750000D03*
X84960000Y-51750000D03*
X85460000Y-51750000D03*
X85960000Y-51750000D03*
D57*
X86660000Y-51050000D03*
X86660000Y-50550000D03*
X86660000Y-50050000D03*
X86660000Y-49550000D03*
X86660000Y-49050000D03*
X86660000Y-48550000D03*
X86660000Y-48050000D03*
X86660000Y-47550000D03*
X86660000Y-47050000D03*
X86660000Y-46550000D03*
X86660000Y-46050000D03*
X86660000Y-45550000D03*
D58*
X85960000Y-44850000D03*
X85460000Y-44850000D03*
X84960000Y-44850000D03*
X84460000Y-44850000D03*
X83960000Y-44850000D03*
X83460000Y-44850000D03*
X82960000Y-44850000D03*
X82460000Y-44850000D03*
X81960000Y-44850000D03*
X81460000Y-44850000D03*
X80960000Y-44850000D03*
X80460000Y-44850000D03*
D59*
X83210000Y-48300000D03*
D15*
X102330000Y-48390000D03*
D41*
X69637039Y-45627038D03*
X69637039Y-44077038D03*
D60*
X79086934Y-34147578D03*
X79086934Y-30747578D03*
D15*
X60675000Y-57850000D03*
D43*
X82680000Y-66920000D03*
D21*
X85325000Y-59520000D03*
X83775000Y-59520000D03*
D35*
X100737500Y-71025000D03*
X102312500Y-71025000D03*
D15*
X72630000Y-36670000D03*
X86400000Y-40450000D03*
D12*
X70675000Y-37844000D03*
D14*
X85375000Y-56350000D03*
X83725000Y-56350000D03*
X91425000Y-67975000D03*
X93075000Y-67975000D03*
D21*
X69682563Y-47087409D03*
X68132563Y-47087409D03*
D23*
X104170000Y-50215000D03*
X104170000Y-48565000D03*
D16*
X58500000Y-33500000D03*
D24*
X86250000Y-43420000D03*
X87800000Y-43420000D03*
D61*
X65350000Y-41775000D03*
X58950000Y-41775000D03*
D41*
X76260000Y-46455000D03*
X76260000Y-44905000D03*
D21*
X78800000Y-35575000D03*
X77250000Y-35575000D03*
D15*
X86300000Y-53555000D03*
D41*
X101490000Y-46605000D03*
X101490000Y-45055000D03*
X74800000Y-46455000D03*
X74800000Y-44905000D03*
D62*
X69400000Y-67462500D03*
X71300000Y-67462500D03*
X70350000Y-65587500D03*
D63*
X102400000Y-52020000D03*
D64*
X102400000Y-50300000D03*
X100200000Y-50300000D03*
X100200000Y-52200000D03*
D23*
X92170000Y-57140229D03*
X92170000Y-55490229D03*
D13*
X76265000Y-65300000D03*
X74615000Y-65300000D03*
D21*
X83025000Y-43300000D03*
X81475000Y-43300000D03*
D13*
X69712662Y-41128088D03*
X68062662Y-41128088D03*
D41*
X99980000Y-46605000D03*
X99980000Y-45055000D03*
D27*
X90540000Y-76450000D03*
D65*
X89200000Y-77700000D03*
D29*
X89200000Y-75200000D03*
D41*
X73075000Y-63625000D03*
X73075000Y-62075000D03*
D14*
X92188828Y-42745110D03*
X93838828Y-42745110D03*
D21*
X93025000Y-63425000D03*
X91475000Y-63425000D03*
D33*
X101490000Y-42045000D03*
X101490000Y-43595000D03*
D41*
X77720000Y-46455000D03*
X77720000Y-44905000D03*
D24*
X65117110Y-47084757D03*
X66667110Y-47084757D03*
D33*
X101930000Y-63945000D03*
X101930000Y-65495000D03*
M02*
