G04 #@! TF.GenerationSoftware,KiCad,Pcbnew,(6.0.2)*
G04 #@! TF.CreationDate,2022-07-14T22:41:19+01:00*
G04 #@! TF.ProjectId,Actuators Board,41637475-6174-46f7-9273-20426f617264,rev?*
G04 #@! TF.SameCoordinates,Original*
G04 #@! TF.FileFunction,Legend,Top*
G04 #@! TF.FilePolarity,Positive*
%FSLAX46Y46*%
G04 Gerber Fmt 4.6, Leading zero omitted, Abs format (unit mm)*
G04 Created by KiCad (PCBNEW (6.0.2)) date 2022-07-14 22:41:19*
%MOMM*%
%LPD*%
G01*
G04 APERTURE LIST*
G04 Aperture macros list*
%AMRoundRect*
0 Rectangle with rounded corners*
0 $1 Rounding radius*
0 $2 $3 $4 $5 $6 $7 $8 $9 X,Y pos of 4 corners*
0 Add a 4 corners polygon primitive as box body*
4,1,4,$2,$3,$4,$5,$6,$7,$8,$9,$2,$3,0*
0 Add four circle primitives for the rounded corners*
1,1,$1+$1,$2,$3*
1,1,$1+$1,$4,$5*
1,1,$1+$1,$6,$7*
1,1,$1+$1,$8,$9*
0 Add four rect primitives between the rounded corners*
20,1,$1+$1,$2,$3,$4,$5,0*
20,1,$1+$1,$4,$5,$6,$7,0*
20,1,$1+$1,$6,$7,$8,$9,0*
20,1,$1+$1,$8,$9,$2,$3,0*%
%AMFreePoly0*
4,1,23,0.945671,0.830970,1.026777,0.776777,1.080970,0.695671,1.100000,0.600000,1.100000,-0.600000,1.080970,-0.695671,1.026777,-0.776777,0.945671,-0.830970,0.850000,-0.850000,-0.450000,-0.850000,-0.545671,-0.830970,-0.626777,-0.776777,-0.626779,-0.776774,-1.026777,-0.376777,-1.080970,-0.295671,-1.100000,-0.200000,-1.100000,0.600000,-1.080970,0.695671,-1.026777,0.776777,-0.945671,0.830970,
-0.850000,0.850000,0.850000,0.850000,0.945671,0.830970,0.945671,0.830970,$1*%
G04 Aperture macros list end*
%ADD10C,0.100000*%
%ADD11C,0.125000*%
%ADD12C,0.150000*%
%ADD13C,0.120000*%
%ADD14C,0.120003*%
%ADD15C,0.098425*%
%ADD16C,0.127000*%
%ADD17C,0.200000*%
%ADD18R,1.700000X1.700000*%
%ADD19O,1.700000X1.700000*%
%ADD20C,2.000000*%
%ADD21RoundRect,0.200000X0.200000X0.275000X-0.200000X0.275000X-0.200000X-0.275000X0.200000X-0.275000X0*%
%ADD22RoundRect,0.200000X-0.200000X-0.275000X0.200000X-0.275000X0.200000X0.275000X-0.200000X0.275000X0*%
%ADD23C,1.000000*%
%ADD24C,5.600000*%
%ADD25R,1.520000X1.500000*%
%ADD26R,2.200000X3.100000*%
%ADD27RoundRect,0.237500X0.237500X-0.287500X0.237500X0.287500X-0.237500X0.287500X-0.237500X-0.287500X0*%
%ADD28RoundRect,0.250000X-0.325000X-1.100000X0.325000X-1.100000X0.325000X1.100000X-0.325000X1.100000X0*%
%ADD29RoundRect,0.225000X0.225000X0.250000X-0.225000X0.250000X-0.225000X-0.250000X0.225000X-0.250000X0*%
%ADD30RoundRect,0.200000X-0.275000X0.200000X-0.275000X-0.200000X0.275000X-0.200000X0.275000X0.200000X0*%
%ADD31RoundRect,0.200000X0.275000X-0.200000X0.275000X0.200000X-0.275000X0.200000X-0.275000X-0.200000X0*%
%ADD32RoundRect,0.225000X-0.225000X-0.250000X0.225000X-0.250000X0.225000X0.250000X-0.225000X0.250000X0*%
%ADD33R,0.700000X1.525000*%
%ADD34R,3.200000X2.400000*%
%ADD35C,1.300000*%
%ADD36RoundRect,0.250000X0.850000X0.600000X-0.850000X0.600000X-0.850000X-0.600000X0.850000X-0.600000X0*%
%ADD37O,2.200000X1.700000*%
%ADD38RoundRect,0.250000X-0.550000X1.250000X-0.550000X-1.250000X0.550000X-1.250000X0.550000X1.250000X0*%
%ADD39RoundRect,0.250001X1.099999X1.399999X-1.099999X1.399999X-1.099999X-1.399999X1.099999X-1.399999X0*%
%ADD40O,2.700000X3.300000*%
%ADD41RoundRect,0.225000X-0.250000X0.225000X-0.250000X-0.225000X0.250000X-0.225000X0.250000X0.225000X0*%
%ADD42RoundRect,0.150000X0.587500X0.150000X-0.587500X0.150000X-0.587500X-0.150000X0.587500X-0.150000X0*%
%ADD43RoundRect,0.218750X-0.218750X-0.256250X0.218750X-0.256250X0.218750X0.256250X-0.218750X0.256250X0*%
%ADD44RoundRect,0.218750X-0.256250X0.218750X-0.256250X-0.218750X0.256250X-0.218750X0.256250X0.218750X0*%
%ADD45RoundRect,0.150000X-0.512500X-0.150000X0.512500X-0.150000X0.512500X0.150000X-0.512500X0.150000X0*%
%ADD46C,0.700000*%
%ADD47O,0.900000X1.700000*%
%ADD48O,0.900000X2.400000*%
%ADD49RoundRect,0.225000X0.250000X-0.225000X0.250000X0.225000X-0.250000X0.225000X-0.250000X-0.225000X0*%
%ADD50RoundRect,0.218750X0.256250X-0.218750X0.256250X0.218750X-0.256250X0.218750X-0.256250X-0.218750X0*%
%ADD51C,1.500000*%
%ADD52RoundRect,0.042000X0.258000X-0.943000X0.258000X0.943000X-0.258000X0.943000X-0.258000X-0.943000X0*%
%ADD53R,1.200000X0.900000*%
%ADD54RoundRect,0.042000X0.943000X0.258000X-0.943000X0.258000X-0.943000X-0.258000X0.943000X-0.258000X0*%
%ADD55R,2.150000X2.150000*%
%ADD56RoundRect,0.250000X0.325000X1.100000X-0.325000X1.100000X-0.325000X-1.100000X0.325000X-1.100000X0*%
%ADD57RoundRect,0.150000X-0.150000X0.825000X-0.150000X-0.825000X0.150000X-0.825000X0.150000X0.825000X0*%
%ADD58FreePoly0,90.000000*%
%ADD59O,1.700000X2.200000*%
%ADD60R,0.650000X0.400000*%
%ADD61RoundRect,0.150000X-0.150000X0.512500X-0.150000X-0.512500X0.150000X-0.512500X0.150000X0.512500X0*%
%ADD62R,0.900000X0.254000*%
%ADD63R,0.254000X0.900000*%
%ADD64R,3.100000X3.100000*%
%ADD65RoundRect,0.062500X-0.337500X-0.062500X0.337500X-0.062500X0.337500X0.062500X-0.337500X0.062500X0*%
%ADD66RoundRect,0.062500X-0.062500X-0.337500X0.062500X-0.337500X0.062500X0.337500X-0.062500X0.337500X0*%
%ADD67R,5.300000X5.300000*%
%ADD68R,1.600000X0.800000*%
%ADD69R,3.600000X3.600000*%
%ADD70RoundRect,0.150000X0.150000X-0.587500X0.150000X0.587500X-0.150000X0.587500X-0.150000X-0.587500X0*%
%ADD71R,1.400000X1.200000*%
%ADD72R,1.400000X1.000000*%
%ADD73FreePoly0,180.000000*%
G04 APERTURE END LIST*
D10*
X71550675Y-38859081D02*
X71920675Y-38849081D01*
X71960000Y-39270000D02*
X71550000Y-38860000D01*
X71550000Y-38860000D02*
X71560000Y-39230000D01*
X87218571Y-39232857D02*
X87504285Y-39032857D01*
X87218571Y-38890000D02*
X87818571Y-38890000D01*
X87818571Y-39118571D01*
X87790000Y-39175714D01*
X87761428Y-39204285D01*
X87704285Y-39232857D01*
X87618571Y-39232857D01*
X87561428Y-39204285D01*
X87532857Y-39175714D01*
X87504285Y-39118571D01*
X87504285Y-38890000D01*
X87818571Y-39432857D02*
X87218571Y-39832857D01*
X87818571Y-39832857D02*
X87218571Y-39432857D01*
X87161428Y-39918571D02*
X87161428Y-40375714D01*
X87818571Y-40432857D02*
X87818571Y-40775714D01*
X87218571Y-40604285D02*
X87818571Y-40604285D01*
X87218571Y-40975714D02*
X87818571Y-40975714D01*
X87818571Y-41204285D01*
X87790000Y-41261428D01*
X87761428Y-41290000D01*
X87704285Y-41318571D01*
X87618571Y-41318571D01*
X87561428Y-41290000D01*
X87532857Y-41261428D01*
X87504285Y-41204285D01*
X87504285Y-40975714D01*
X95120000Y-50751428D02*
X95120000Y-50151428D01*
X95262857Y-50151428D01*
X95348571Y-50180000D01*
X95405714Y-50237142D01*
X95434285Y-50294285D01*
X95462857Y-50408571D01*
X95462857Y-50494285D01*
X95434285Y-50608571D01*
X95405714Y-50665714D01*
X95348571Y-50722857D01*
X95262857Y-50751428D01*
X95120000Y-50751428D01*
X95977142Y-50751428D02*
X95977142Y-50437142D01*
X95948571Y-50380000D01*
X95891428Y-50351428D01*
X95777142Y-50351428D01*
X95720000Y-50380000D01*
X95977142Y-50722857D02*
X95920000Y-50751428D01*
X95777142Y-50751428D01*
X95720000Y-50722857D01*
X95691428Y-50665714D01*
X95691428Y-50608571D01*
X95720000Y-50551428D01*
X95777142Y-50522857D01*
X95920000Y-50522857D01*
X95977142Y-50494285D01*
X96177142Y-50351428D02*
X96405714Y-50351428D01*
X96262857Y-50151428D02*
X96262857Y-50665714D01*
X96291428Y-50722857D01*
X96348571Y-50751428D01*
X96405714Y-50751428D01*
X96862857Y-50751428D02*
X96862857Y-50437142D01*
X96834285Y-50380000D01*
X96777142Y-50351428D01*
X96662857Y-50351428D01*
X96605714Y-50380000D01*
X96862857Y-50722857D02*
X96805714Y-50751428D01*
X96662857Y-50751428D01*
X96605714Y-50722857D01*
X96577142Y-50665714D01*
X96577142Y-50608571D01*
X96605714Y-50551428D01*
X96662857Y-50522857D01*
X96805714Y-50522857D01*
X96862857Y-50494285D01*
X97148571Y-50522857D02*
X97605714Y-50522857D01*
X97377142Y-50751428D02*
X97377142Y-50294285D01*
X97748571Y-50808571D02*
X98205714Y-50808571D01*
X98262857Y-50151428D02*
X98605714Y-50151428D01*
X98434285Y-50751428D02*
X98434285Y-50151428D01*
X98805714Y-50751428D02*
X98805714Y-50151428D01*
X99034285Y-50151428D01*
X99091428Y-50180000D01*
X99120000Y-50208571D01*
X99148571Y-50265714D01*
X99148571Y-50351428D01*
X99120000Y-50408571D01*
X99091428Y-50437142D01*
X99034285Y-50465714D01*
X98805714Y-50465714D01*
X100225714Y-72512857D02*
X100311428Y-72541428D01*
X100454285Y-72541428D01*
X100511428Y-72512857D01*
X100540000Y-72484285D01*
X100568571Y-72427142D01*
X100568571Y-72370000D01*
X100540000Y-72312857D01*
X100511428Y-72284285D01*
X100454285Y-72255714D01*
X100340000Y-72227142D01*
X100282857Y-72198571D01*
X100254285Y-72170000D01*
X100225714Y-72112857D01*
X100225714Y-72055714D01*
X100254285Y-71998571D01*
X100282857Y-71970000D01*
X100340000Y-71941428D01*
X100482857Y-71941428D01*
X100568571Y-71970000D01*
X100911428Y-72541428D02*
X100854285Y-72512857D01*
X100825714Y-72484285D01*
X100797142Y-72427142D01*
X100797142Y-72255714D01*
X100825714Y-72198571D01*
X100854285Y-72170000D01*
X100911428Y-72141428D01*
X100997142Y-72141428D01*
X101054285Y-72170000D01*
X101082857Y-72198571D01*
X101111428Y-72255714D01*
X101111428Y-72427142D01*
X101082857Y-72484285D01*
X101054285Y-72512857D01*
X100997142Y-72541428D01*
X100911428Y-72541428D01*
X101454285Y-72541428D02*
X101397142Y-72512857D01*
X101368571Y-72455714D01*
X101368571Y-71941428D01*
X101968571Y-72541428D02*
X101682857Y-72541428D01*
X101682857Y-71941428D01*
X102168571Y-72227142D02*
X102368571Y-72227142D01*
X102454285Y-72541428D02*
X102168571Y-72541428D01*
X102168571Y-71941428D01*
X102454285Y-71941428D01*
X102711428Y-72541428D02*
X102711428Y-71941428D01*
X102854285Y-71941428D01*
X102940000Y-71970000D01*
X102997142Y-72027142D01*
X103025714Y-72084285D01*
X103054285Y-72198571D01*
X103054285Y-72284285D01*
X103025714Y-72398571D01*
X102997142Y-72455714D01*
X102940000Y-72512857D01*
X102854285Y-72541428D01*
X102711428Y-72541428D01*
X97827142Y-74187142D02*
X97798571Y-74272857D01*
X97798571Y-74415714D01*
X97827142Y-74472857D01*
X97855714Y-74501428D01*
X97912857Y-74530000D01*
X97970000Y-74530000D01*
X98027142Y-74501428D01*
X98055714Y-74472857D01*
X98084285Y-74415714D01*
X98112857Y-74301428D01*
X98141428Y-74244285D01*
X98170000Y-74215714D01*
X98227142Y-74187142D01*
X98284285Y-74187142D01*
X98341428Y-74215714D01*
X98370000Y-74244285D01*
X98398571Y-74301428D01*
X98398571Y-74444285D01*
X98370000Y-74530000D01*
X97798571Y-74872857D02*
X97827142Y-74815714D01*
X97855714Y-74787142D01*
X97912857Y-74758571D01*
X98084285Y-74758571D01*
X98141428Y-74787142D01*
X98170000Y-74815714D01*
X98198571Y-74872857D01*
X98198571Y-74958571D01*
X98170000Y-75015714D01*
X98141428Y-75044285D01*
X98084285Y-75072857D01*
X97912857Y-75072857D01*
X97855714Y-75044285D01*
X97827142Y-75015714D01*
X97798571Y-74958571D01*
X97798571Y-74872857D01*
X97798571Y-75415714D02*
X97827142Y-75358571D01*
X97884285Y-75330000D01*
X98398571Y-75330000D01*
X97741428Y-75501428D02*
X97741428Y-75958571D01*
X97855714Y-76444285D02*
X97827142Y-76415714D01*
X97798571Y-76330000D01*
X97798571Y-76272857D01*
X97827142Y-76187142D01*
X97884285Y-76130000D01*
X97941428Y-76101428D01*
X98055714Y-76072857D01*
X98141428Y-76072857D01*
X98255714Y-76101428D01*
X98312857Y-76130000D01*
X98370000Y-76187142D01*
X98398571Y-76272857D01*
X98398571Y-76330000D01*
X98370000Y-76415714D01*
X98341428Y-76444285D01*
X97798571Y-76787142D02*
X97827142Y-76730000D01*
X97855714Y-76701428D01*
X97912857Y-76672857D01*
X98084285Y-76672857D01*
X98141428Y-76701428D01*
X98170000Y-76730000D01*
X98198571Y-76787142D01*
X98198571Y-76872857D01*
X98170000Y-76930000D01*
X98141428Y-76958571D01*
X98084285Y-76987142D01*
X97912857Y-76987142D01*
X97855714Y-76958571D01*
X97827142Y-76930000D01*
X97798571Y-76872857D01*
X97798571Y-76787142D01*
X98198571Y-77244285D02*
X97798571Y-77244285D01*
X98141428Y-77244285D02*
X98170000Y-77272857D01*
X98198571Y-77330000D01*
X98198571Y-77415714D01*
X98170000Y-77472857D01*
X98112857Y-77501428D01*
X97798571Y-77501428D01*
X98198571Y-77787142D02*
X97798571Y-77787142D01*
X98141428Y-77787142D02*
X98170000Y-77815714D01*
X98198571Y-77872857D01*
X98198571Y-77958571D01*
X98170000Y-78015714D01*
X98112857Y-78044285D01*
X97798571Y-78044285D01*
X66278571Y-79498571D02*
X66250000Y-79470000D01*
X66221428Y-79412857D01*
X66221428Y-79270000D01*
X66250000Y-79212857D01*
X66278571Y-79184285D01*
X66335714Y-79155714D01*
X66392857Y-79155714D01*
X66478571Y-79184285D01*
X66821428Y-79527142D01*
X66821428Y-79155714D01*
X66421428Y-78641428D02*
X66821428Y-78641428D01*
X66192857Y-78784285D02*
X66621428Y-78927142D01*
X66621428Y-78555714D01*
X66221428Y-78412857D02*
X66821428Y-78212857D01*
X66221428Y-78012857D01*
X66821428Y-77527142D02*
X66821428Y-77812857D01*
X66221428Y-77812857D01*
X66507142Y-77327142D02*
X66507142Y-77127142D01*
X66821428Y-77041428D02*
X66821428Y-77327142D01*
X66221428Y-77327142D01*
X66221428Y-77041428D01*
X66821428Y-76784285D02*
X66221428Y-76784285D01*
X66221428Y-76641428D01*
X66250000Y-76555714D01*
X66307142Y-76498571D01*
X66364285Y-76470000D01*
X66478571Y-76441428D01*
X66564285Y-76441428D01*
X66678571Y-76470000D01*
X66735714Y-76498571D01*
X66792857Y-76555714D01*
X66821428Y-76641428D01*
X66821428Y-76784285D01*
X99266190Y-49776666D02*
X98766190Y-49776666D01*
X98766190Y-49657619D01*
X98790000Y-49586190D01*
X98837619Y-49538571D01*
X98885238Y-49514761D01*
X98980476Y-49490952D01*
X99051904Y-49490952D01*
X99147142Y-49514761D01*
X99194761Y-49538571D01*
X99242380Y-49586190D01*
X99266190Y-49657619D01*
X99266190Y-49776666D01*
X99266190Y-49062380D02*
X99004285Y-49062380D01*
X98956666Y-49086190D01*
X98932857Y-49133809D01*
X98932857Y-49229047D01*
X98956666Y-49276666D01*
X99242380Y-49062380D02*
X99266190Y-49110000D01*
X99266190Y-49229047D01*
X99242380Y-49276666D01*
X99194761Y-49300476D01*
X99147142Y-49300476D01*
X99099523Y-49276666D01*
X99075714Y-49229047D01*
X99075714Y-49110000D01*
X99051904Y-49062380D01*
X98932857Y-48895714D02*
X98932857Y-48705238D01*
X98766190Y-48824285D02*
X99194761Y-48824285D01*
X99242380Y-48800476D01*
X99266190Y-48752857D01*
X99266190Y-48705238D01*
X99266190Y-48324285D02*
X99004285Y-48324285D01*
X98956666Y-48348095D01*
X98932857Y-48395714D01*
X98932857Y-48490952D01*
X98956666Y-48538571D01*
X99242380Y-48324285D02*
X99266190Y-48371904D01*
X99266190Y-48490952D01*
X99242380Y-48538571D01*
X99194761Y-48562380D01*
X99147142Y-48562380D01*
X99099523Y-48538571D01*
X99075714Y-48490952D01*
X99075714Y-48371904D01*
X99051904Y-48324285D01*
X99075714Y-48086190D02*
X99075714Y-47705238D01*
X99313809Y-47586190D02*
X99313809Y-47205238D01*
X98766190Y-47157619D02*
X98766190Y-46871904D01*
X99266190Y-47014761D02*
X98766190Y-47014761D01*
X99266190Y-46705238D02*
X98766190Y-46705238D01*
X98766190Y-46514761D01*
X98790000Y-46467142D01*
X98813809Y-46443333D01*
X98861428Y-46419523D01*
X98932857Y-46419523D01*
X98980476Y-46443333D01*
X99004285Y-46467142D01*
X99028095Y-46514761D01*
X99028095Y-46705238D01*
X55667142Y-54411428D02*
X55667142Y-53811428D01*
X55810000Y-53811428D01*
X55895714Y-53840000D01*
X55952857Y-53897142D01*
X55981428Y-53954285D01*
X56010000Y-54068571D01*
X56010000Y-54154285D01*
X55981428Y-54268571D01*
X55952857Y-54325714D01*
X55895714Y-54382857D01*
X55810000Y-54411428D01*
X55667142Y-54411428D01*
X56610000Y-54354285D02*
X56581428Y-54382857D01*
X56495714Y-54411428D01*
X56438571Y-54411428D01*
X56352857Y-54382857D01*
X56295714Y-54325714D01*
X56267142Y-54268571D01*
X56238571Y-54154285D01*
X56238571Y-54068571D01*
X56267142Y-53954285D01*
X56295714Y-53897142D01*
X56352857Y-53840000D01*
X56438571Y-53811428D01*
X56495714Y-53811428D01*
X56581428Y-53840000D01*
X56610000Y-53868571D01*
X56867142Y-54411428D02*
X56867142Y-53811428D01*
X57067142Y-54240000D01*
X57267142Y-53811428D01*
X57267142Y-54411428D01*
X57638571Y-54411428D02*
X57581428Y-54382857D01*
X57552857Y-54354285D01*
X57524285Y-54297142D01*
X57524285Y-54125714D01*
X57552857Y-54068571D01*
X57581428Y-54040000D01*
X57638571Y-54011428D01*
X57724285Y-54011428D01*
X57781428Y-54040000D01*
X57810000Y-54068571D01*
X57838571Y-54125714D01*
X57838571Y-54297142D01*
X57810000Y-54354285D01*
X57781428Y-54382857D01*
X57724285Y-54411428D01*
X57638571Y-54411428D01*
X58010000Y-54011428D02*
X58238571Y-54011428D01*
X58095714Y-53811428D02*
X58095714Y-54325714D01*
X58124285Y-54382857D01*
X58181428Y-54411428D01*
X58238571Y-54411428D01*
X58524285Y-54411428D02*
X58467142Y-54382857D01*
X58438571Y-54354285D01*
X58410000Y-54297142D01*
X58410000Y-54125714D01*
X58438571Y-54068571D01*
X58467142Y-54040000D01*
X58524285Y-54011428D01*
X58610000Y-54011428D01*
X58667142Y-54040000D01*
X58695714Y-54068571D01*
X58724285Y-54125714D01*
X58724285Y-54297142D01*
X58695714Y-54354285D01*
X58667142Y-54382857D01*
X58610000Y-54411428D01*
X58524285Y-54411428D01*
X58981428Y-54411428D02*
X58981428Y-54011428D01*
X58981428Y-54125714D02*
X59010000Y-54068571D01*
X59038571Y-54040000D01*
X59095714Y-54011428D01*
X59152857Y-54011428D01*
X59210000Y-54468571D02*
X59667142Y-54468571D01*
X60152857Y-54354285D02*
X60124285Y-54382857D01*
X60038571Y-54411428D01*
X59981428Y-54411428D01*
X59895714Y-54382857D01*
X59838571Y-54325714D01*
X59810000Y-54268571D01*
X59781428Y-54154285D01*
X59781428Y-54068571D01*
X59810000Y-53954285D01*
X59838571Y-53897142D01*
X59895714Y-53840000D01*
X59981428Y-53811428D01*
X60038571Y-53811428D01*
X60124285Y-53840000D01*
X60152857Y-53868571D01*
X60495714Y-54411428D02*
X60438571Y-54382857D01*
X60410000Y-54354285D01*
X60381428Y-54297142D01*
X60381428Y-54125714D01*
X60410000Y-54068571D01*
X60438571Y-54040000D01*
X60495714Y-54011428D01*
X60581428Y-54011428D01*
X60638571Y-54040000D01*
X60667142Y-54068571D01*
X60695714Y-54125714D01*
X60695714Y-54297142D01*
X60667142Y-54354285D01*
X60638571Y-54382857D01*
X60581428Y-54411428D01*
X60495714Y-54411428D01*
X60952857Y-54011428D02*
X60952857Y-54411428D01*
X60952857Y-54068571D02*
X60981428Y-54040000D01*
X61038571Y-54011428D01*
X61124285Y-54011428D01*
X61181428Y-54040000D01*
X61210000Y-54097142D01*
X61210000Y-54411428D01*
X61495714Y-54011428D02*
X61495714Y-54411428D01*
X61495714Y-54068571D02*
X61524285Y-54040000D01*
X61581428Y-54011428D01*
X61667142Y-54011428D01*
X61724285Y-54040000D01*
X61752857Y-54097142D01*
X61752857Y-54411428D01*
X65240952Y-60496190D02*
X65240952Y-59996190D01*
X65360000Y-59996190D01*
X65431428Y-60020000D01*
X65479047Y-60067619D01*
X65502857Y-60115238D01*
X65526666Y-60210476D01*
X65526666Y-60281904D01*
X65502857Y-60377142D01*
X65479047Y-60424761D01*
X65431428Y-60472380D01*
X65360000Y-60496190D01*
X65240952Y-60496190D01*
X65740952Y-60496190D02*
X65740952Y-60162857D01*
X65740952Y-59996190D02*
X65717142Y-60020000D01*
X65740952Y-60043809D01*
X65764761Y-60020000D01*
X65740952Y-59996190D01*
X65740952Y-60043809D01*
X65979047Y-60496190D02*
X65979047Y-60162857D01*
X65979047Y-60258095D02*
X66002857Y-60210476D01*
X66026666Y-60186666D01*
X66074285Y-60162857D01*
X66121904Y-60162857D01*
X66288571Y-60496190D02*
X66288571Y-59996190D01*
X66479047Y-59996190D01*
X66526666Y-60020000D01*
X66550476Y-60043809D01*
X66574285Y-60091428D01*
X66574285Y-60162857D01*
X66550476Y-60210476D01*
X66526666Y-60234285D01*
X66479047Y-60258095D01*
X66288571Y-60258095D01*
X66788571Y-60496190D02*
X66788571Y-60162857D01*
X66788571Y-59996190D02*
X66764761Y-60020000D01*
X66788571Y-60043809D01*
X66812380Y-60020000D01*
X66788571Y-59996190D01*
X66788571Y-60043809D01*
X67026666Y-60162857D02*
X67026666Y-60496190D01*
X67026666Y-60210476D02*
X67050476Y-60186666D01*
X67098095Y-60162857D01*
X67169523Y-60162857D01*
X67217142Y-60186666D01*
X67240952Y-60234285D01*
X67240952Y-60496190D01*
X67455238Y-60043809D02*
X67479047Y-60020000D01*
X67526666Y-59996190D01*
X67645714Y-59996190D01*
X67693333Y-60020000D01*
X67717142Y-60043809D01*
X67740952Y-60091428D01*
X67740952Y-60139047D01*
X67717142Y-60210476D01*
X67431428Y-60496190D01*
X67740952Y-60496190D01*
X67836190Y-60543809D02*
X68217142Y-60543809D01*
X68264761Y-59996190D02*
X68550476Y-59996190D01*
X68407619Y-60496190D02*
X68407619Y-59996190D01*
X68717142Y-60496190D02*
X68717142Y-59996190D01*
X68907619Y-59996190D01*
X68955238Y-60020000D01*
X68979047Y-60043809D01*
X69002857Y-60091428D01*
X69002857Y-60162857D01*
X68979047Y-60210476D01*
X68955238Y-60234285D01*
X68907619Y-60258095D01*
X68717142Y-60258095D01*
X94507619Y-52486190D02*
X94507619Y-51986190D01*
X94626666Y-51986190D01*
X94698095Y-52010000D01*
X94745714Y-52057619D01*
X94769523Y-52105238D01*
X94793333Y-52200476D01*
X94793333Y-52271904D01*
X94769523Y-52367142D01*
X94745714Y-52414761D01*
X94698095Y-52462380D01*
X94626666Y-52486190D01*
X94507619Y-52486190D01*
X94936190Y-51986190D02*
X95221904Y-51986190D01*
X95079047Y-52486190D02*
X95079047Y-51986190D01*
X95674285Y-52486190D02*
X95507619Y-52248095D01*
X95388571Y-52486190D02*
X95388571Y-51986190D01*
X95579047Y-51986190D01*
X95626666Y-52010000D01*
X95650476Y-52033809D01*
X95674285Y-52081428D01*
X95674285Y-52152857D01*
X95650476Y-52200476D01*
X95626666Y-52224285D01*
X95579047Y-52248095D01*
X95388571Y-52248095D01*
X95769523Y-52533809D02*
X96150476Y-52533809D01*
X96198095Y-51986190D02*
X96483809Y-51986190D01*
X96340952Y-52486190D02*
X96340952Y-51986190D01*
X96650476Y-52486190D02*
X96650476Y-51986190D01*
X96840952Y-51986190D01*
X96888571Y-52010000D01*
X96912380Y-52033809D01*
X96936190Y-52081428D01*
X96936190Y-52152857D01*
X96912380Y-52200476D01*
X96888571Y-52224285D01*
X96840952Y-52248095D01*
X96650476Y-52248095D01*
X100942380Y-49036190D02*
X101109047Y-49536190D01*
X101275714Y-49036190D01*
X101609047Y-49274285D02*
X101680476Y-49298095D01*
X101704285Y-49321904D01*
X101728095Y-49369523D01*
X101728095Y-49440952D01*
X101704285Y-49488571D01*
X101680476Y-49512380D01*
X101632857Y-49536190D01*
X101442380Y-49536190D01*
X101442380Y-49036190D01*
X101609047Y-49036190D01*
X101656666Y-49060000D01*
X101680476Y-49083809D01*
X101704285Y-49131428D01*
X101704285Y-49179047D01*
X101680476Y-49226666D01*
X101656666Y-49250476D01*
X101609047Y-49274285D01*
X101442380Y-49274285D01*
X101942380Y-49036190D02*
X101942380Y-49440952D01*
X101966190Y-49488571D01*
X101990000Y-49512380D01*
X102037619Y-49536190D01*
X102132857Y-49536190D01*
X102180476Y-49512380D01*
X102204285Y-49488571D01*
X102228095Y-49440952D01*
X102228095Y-49036190D01*
X102442380Y-49512380D02*
X102513809Y-49536190D01*
X102632857Y-49536190D01*
X102680476Y-49512380D01*
X102704285Y-49488571D01*
X102728095Y-49440952D01*
X102728095Y-49393333D01*
X102704285Y-49345714D01*
X102680476Y-49321904D01*
X102632857Y-49298095D01*
X102537619Y-49274285D01*
X102490000Y-49250476D01*
X102466190Y-49226666D01*
X102442380Y-49179047D01*
X102442380Y-49131428D01*
X102466190Y-49083809D01*
X102490000Y-49060000D01*
X102537619Y-49036190D01*
X102656666Y-49036190D01*
X102728095Y-49060000D01*
X102823333Y-49583809D02*
X103204285Y-49583809D01*
X103251904Y-49036190D02*
X103537619Y-49036190D01*
X103394761Y-49536190D02*
X103394761Y-49036190D01*
X103704285Y-49536190D02*
X103704285Y-49036190D01*
X103894761Y-49036190D01*
X103942380Y-49060000D01*
X103966190Y-49083809D01*
X103990000Y-49131428D01*
X103990000Y-49202857D01*
X103966190Y-49250476D01*
X103942380Y-49274285D01*
X103894761Y-49298095D01*
X103704285Y-49298095D01*
X101400714Y-58347142D02*
X101426904Y-58268571D01*
X101453095Y-58242380D01*
X101505476Y-58216190D01*
X101584047Y-58216190D01*
X101636428Y-58242380D01*
X101662619Y-58268571D01*
X101688809Y-58320952D01*
X101688809Y-58530476D01*
X101138809Y-58530476D01*
X101138809Y-58347142D01*
X101165000Y-58294761D01*
X101191190Y-58268571D01*
X101243571Y-58242380D01*
X101295952Y-58242380D01*
X101348333Y-58268571D01*
X101374523Y-58294761D01*
X101400714Y-58347142D01*
X101400714Y-58530476D01*
X101138809Y-57875714D02*
X101138809Y-57770952D01*
X101165000Y-57718571D01*
X101217380Y-57666190D01*
X101322142Y-57640000D01*
X101505476Y-57640000D01*
X101610238Y-57666190D01*
X101662619Y-57718571D01*
X101688809Y-57770952D01*
X101688809Y-57875714D01*
X101662619Y-57928095D01*
X101610238Y-57980476D01*
X101505476Y-58006666D01*
X101322142Y-58006666D01*
X101217380Y-57980476D01*
X101165000Y-57928095D01*
X101138809Y-57875714D01*
X101138809Y-57299523D02*
X101138809Y-57194761D01*
X101165000Y-57142380D01*
X101217380Y-57090000D01*
X101322142Y-57063809D01*
X101505476Y-57063809D01*
X101610238Y-57090000D01*
X101662619Y-57142380D01*
X101688809Y-57194761D01*
X101688809Y-57299523D01*
X101662619Y-57351904D01*
X101610238Y-57404285D01*
X101505476Y-57430476D01*
X101322142Y-57430476D01*
X101217380Y-57404285D01*
X101165000Y-57351904D01*
X101138809Y-57299523D01*
X101138809Y-56906666D02*
X101138809Y-56592380D01*
X101688809Y-56749523D02*
X101138809Y-56749523D01*
X101138809Y-56251904D02*
X101531666Y-56251904D01*
X101610238Y-56278095D01*
X101662619Y-56330476D01*
X101688809Y-56409047D01*
X101688809Y-56461428D01*
X101138809Y-55990000D02*
X101584047Y-55990000D01*
X101636428Y-55963809D01*
X101662619Y-55937619D01*
X101688809Y-55885238D01*
X101688809Y-55780476D01*
X101662619Y-55728095D01*
X101636428Y-55701904D01*
X101584047Y-55675714D01*
X101138809Y-55675714D01*
X101688809Y-55413809D02*
X101138809Y-55413809D01*
X101531666Y-55230476D01*
X101138809Y-55047142D01*
X101688809Y-55047142D01*
X101688809Y-54785238D02*
X101138809Y-54785238D01*
X101138809Y-54575714D01*
X101165000Y-54523333D01*
X101191190Y-54497142D01*
X101243571Y-54470952D01*
X101322142Y-54470952D01*
X101374523Y-54497142D01*
X101400714Y-54523333D01*
X101426904Y-54575714D01*
X101426904Y-54785238D01*
X101400714Y-54235238D02*
X101400714Y-54051904D01*
X101688809Y-53973333D02*
X101688809Y-54235238D01*
X101138809Y-54235238D01*
X101138809Y-53973333D01*
X101688809Y-53423333D02*
X101426904Y-53606666D01*
X101688809Y-53737619D02*
X101138809Y-53737619D01*
X101138809Y-53528095D01*
X101165000Y-53475714D01*
X101191190Y-53449523D01*
X101243571Y-53423333D01*
X101322142Y-53423333D01*
X101374523Y-53449523D01*
X101400714Y-53475714D01*
X101426904Y-53528095D01*
X101426904Y-53737619D01*
X83881428Y-38614285D02*
X83595714Y-38814285D01*
X83881428Y-38957142D02*
X83281428Y-38957142D01*
X83281428Y-38728571D01*
X83310000Y-38671428D01*
X83338571Y-38642857D01*
X83395714Y-38614285D01*
X83481428Y-38614285D01*
X83538571Y-38642857D01*
X83567142Y-38671428D01*
X83595714Y-38728571D01*
X83595714Y-38957142D01*
X83281428Y-38414285D02*
X83881428Y-38014285D01*
X83281428Y-38014285D02*
X83881428Y-38414285D01*
X83881428Y-37500000D02*
X83881428Y-37785714D01*
X83281428Y-37785714D01*
X83567142Y-37300000D02*
X83567142Y-37100000D01*
X83881428Y-37014285D02*
X83881428Y-37300000D01*
X83281428Y-37300000D01*
X83281428Y-37014285D01*
X83881428Y-36757142D02*
X83281428Y-36757142D01*
X83281428Y-36614285D01*
X83310000Y-36528571D01*
X83367142Y-36471428D01*
X83424285Y-36442857D01*
X83538571Y-36414285D01*
X83624285Y-36414285D01*
X83738571Y-36442857D01*
X83795714Y-36471428D01*
X83852857Y-36528571D01*
X83881428Y-36614285D01*
X83881428Y-36757142D01*
X87506116Y-58455608D02*
X87623967Y-58573460D01*
X87489280Y-58809162D02*
X87320921Y-58640803D01*
X87674475Y-58287250D01*
X87842834Y-58455608D01*
X87640803Y-58927013D02*
X87674475Y-58994356D01*
X87758654Y-59078536D01*
X87809162Y-59095372D01*
X87842834Y-59095372D01*
X87893341Y-59078536D01*
X87927013Y-59044864D01*
X87943849Y-58994356D01*
X87943849Y-58960685D01*
X87927013Y-58910177D01*
X87876505Y-58825998D01*
X87859669Y-58775490D01*
X87859669Y-58741818D01*
X87876505Y-58691311D01*
X87910177Y-58657639D01*
X87960685Y-58640803D01*
X87994356Y-58640803D01*
X88044864Y-58657639D01*
X88129043Y-58741818D01*
X88162715Y-58809162D01*
X88162715Y-59482597D02*
X87960685Y-59280566D01*
X88061700Y-59381582D02*
X88415253Y-59028028D01*
X88331074Y-59044864D01*
X88263730Y-59044864D01*
X88213223Y-59028028D01*
X88314238Y-59634120D02*
X88667791Y-59280566D01*
X88802478Y-59415253D01*
X88819314Y-59465761D01*
X88819314Y-59499433D01*
X88802478Y-59549940D01*
X88751971Y-59600448D01*
X88701463Y-59617284D01*
X88667791Y-59617284D01*
X88617284Y-59600448D01*
X88482597Y-59465761D01*
X88819314Y-60139196D02*
X89004509Y-59954001D01*
X89021345Y-59903494D01*
X89004509Y-59852986D01*
X88937165Y-59785643D01*
X88886658Y-59768807D01*
X88836150Y-60122360D02*
X88785643Y-60105524D01*
X88701463Y-60021345D01*
X88684627Y-59970837D01*
X88701463Y-59920330D01*
X88735135Y-59886658D01*
X88785643Y-59869822D01*
X88836150Y-59886658D01*
X88920330Y-59970837D01*
X88970837Y-59987673D01*
X89139196Y-60459078D02*
X89492749Y-60105524D01*
X89156032Y-60442242D02*
X89105524Y-60425406D01*
X89038181Y-60358062D01*
X89021345Y-60307555D01*
X89021345Y-60273883D01*
X89038181Y-60223375D01*
X89139196Y-60122360D01*
X89189704Y-60105524D01*
X89223375Y-60105524D01*
X89273883Y-60122360D01*
X89341226Y-60189704D01*
X89358062Y-60240211D01*
X61721904Y-59886190D02*
X61721904Y-59386190D01*
X61721904Y-59624285D02*
X62007619Y-59624285D01*
X62007619Y-59886190D02*
X62007619Y-59386190D01*
X62460000Y-59886190D02*
X62460000Y-59624285D01*
X62436190Y-59576666D01*
X62388571Y-59552857D01*
X62293333Y-59552857D01*
X62245714Y-59576666D01*
X62460000Y-59862380D02*
X62412380Y-59886190D01*
X62293333Y-59886190D01*
X62245714Y-59862380D01*
X62221904Y-59814761D01*
X62221904Y-59767142D01*
X62245714Y-59719523D01*
X62293333Y-59695714D01*
X62412380Y-59695714D01*
X62460000Y-59671904D01*
X62769523Y-59886190D02*
X62721904Y-59862380D01*
X62698095Y-59814761D01*
X62698095Y-59386190D01*
X63031428Y-59886190D02*
X62983809Y-59862380D01*
X62960000Y-59814761D01*
X62960000Y-59386190D01*
X63198095Y-59862380D02*
X63269523Y-59886190D01*
X63388571Y-59886190D01*
X63436190Y-59862380D01*
X63460000Y-59838571D01*
X63483809Y-59790952D01*
X63483809Y-59743333D01*
X63460000Y-59695714D01*
X63436190Y-59671904D01*
X63388571Y-59648095D01*
X63293333Y-59624285D01*
X63245714Y-59600476D01*
X63221904Y-59576666D01*
X63198095Y-59529047D01*
X63198095Y-59481428D01*
X63221904Y-59433809D01*
X63245714Y-59410000D01*
X63293333Y-59386190D01*
X63412380Y-59386190D01*
X63483809Y-59410000D01*
X63960000Y-59886190D02*
X63674285Y-59886190D01*
X63817142Y-59886190D02*
X63817142Y-59386190D01*
X63769523Y-59457619D01*
X63721904Y-59505238D01*
X63674285Y-59529047D01*
X64055238Y-59933809D02*
X64436190Y-59933809D01*
X64483809Y-59386190D02*
X64769523Y-59386190D01*
X64626666Y-59886190D02*
X64626666Y-59386190D01*
X64936190Y-59886190D02*
X64936190Y-59386190D01*
X65126666Y-59386190D01*
X65174285Y-59410000D01*
X65198095Y-59433809D01*
X65221904Y-59481428D01*
X65221904Y-59552857D01*
X65198095Y-59600476D01*
X65174285Y-59624285D01*
X65126666Y-59648095D01*
X64936190Y-59648095D01*
D11*
X57330476Y-49376190D02*
X57330476Y-49733333D01*
X57306666Y-49804761D01*
X57259047Y-49852380D01*
X57187619Y-49876190D01*
X57140000Y-49876190D01*
X57806666Y-49876190D02*
X57568571Y-49876190D01*
X57568571Y-49376190D01*
X58259047Y-49828571D02*
X58235238Y-49852380D01*
X58163809Y-49876190D01*
X58116190Y-49876190D01*
X58044761Y-49852380D01*
X57997142Y-49804761D01*
X57973333Y-49757142D01*
X57949523Y-49661904D01*
X57949523Y-49590476D01*
X57973333Y-49495238D01*
X57997142Y-49447619D01*
X58044761Y-49400000D01*
X58116190Y-49376190D01*
X58163809Y-49376190D01*
X58235238Y-49400000D01*
X58259047Y-49423809D01*
X58616190Y-49376190D02*
X58616190Y-49733333D01*
X58592380Y-49804761D01*
X58544761Y-49852380D01*
X58473333Y-49876190D01*
X58425714Y-49876190D01*
X59092380Y-49876190D02*
X58854285Y-49876190D01*
X58854285Y-49376190D01*
X59544761Y-49828571D02*
X59520952Y-49852380D01*
X59449523Y-49876190D01*
X59401904Y-49876190D01*
X59330476Y-49852380D01*
X59282857Y-49804761D01*
X59259047Y-49757142D01*
X59235238Y-49661904D01*
X59235238Y-49590476D01*
X59259047Y-49495238D01*
X59282857Y-49447619D01*
X59330476Y-49400000D01*
X59401904Y-49376190D01*
X59449523Y-49376190D01*
X59520952Y-49400000D01*
X59544761Y-49423809D01*
X59901904Y-49376190D02*
X59901904Y-49733333D01*
X59878095Y-49804761D01*
X59830476Y-49852380D01*
X59759047Y-49876190D01*
X59711428Y-49876190D01*
X60378095Y-49876190D02*
X60140000Y-49876190D01*
X60140000Y-49376190D01*
X60830476Y-49828571D02*
X60806666Y-49852380D01*
X60735238Y-49876190D01*
X60687619Y-49876190D01*
X60616190Y-49852380D01*
X60568571Y-49804761D01*
X60544761Y-49757142D01*
X60520952Y-49661904D01*
X60520952Y-49590476D01*
X60544761Y-49495238D01*
X60568571Y-49447619D01*
X60616190Y-49400000D01*
X60687619Y-49376190D01*
X60735238Y-49376190D01*
X60806666Y-49400000D01*
X60830476Y-49423809D01*
X61187619Y-49376190D02*
X61187619Y-49733333D01*
X61163809Y-49804761D01*
X61116190Y-49852380D01*
X61044761Y-49876190D01*
X60997142Y-49876190D01*
X61663809Y-49876190D02*
X61425714Y-49876190D01*
X61425714Y-49376190D01*
X62116190Y-49828571D02*
X62092380Y-49852380D01*
X62020952Y-49876190D01*
X61973333Y-49876190D01*
X61901904Y-49852380D01*
X61854285Y-49804761D01*
X61830476Y-49757142D01*
X61806666Y-49661904D01*
X61806666Y-49590476D01*
X61830476Y-49495238D01*
X61854285Y-49447619D01*
X61901904Y-49400000D01*
X61973333Y-49376190D01*
X62020952Y-49376190D01*
X62092380Y-49400000D01*
X62116190Y-49423809D01*
D10*
X76157142Y-38760000D02*
X76128571Y-38845714D01*
X76128571Y-38988571D01*
X76157142Y-39045714D01*
X76185714Y-39074285D01*
X76242857Y-39102857D01*
X76300000Y-39102857D01*
X76357142Y-39074285D01*
X76385714Y-39045714D01*
X76414285Y-38988571D01*
X76442857Y-38874285D01*
X76471428Y-38817142D01*
X76500000Y-38788571D01*
X76557142Y-38760000D01*
X76614285Y-38760000D01*
X76671428Y-38788571D01*
X76700000Y-38817142D01*
X76728571Y-38874285D01*
X76728571Y-39017142D01*
X76700000Y-39102857D01*
X76157142Y-39331428D02*
X76128571Y-39417142D01*
X76128571Y-39560000D01*
X76157142Y-39617142D01*
X76185714Y-39645714D01*
X76242857Y-39674285D01*
X76300000Y-39674285D01*
X76357142Y-39645714D01*
X76385714Y-39617142D01*
X76414285Y-39560000D01*
X76442857Y-39445714D01*
X76471428Y-39388571D01*
X76500000Y-39360000D01*
X76557142Y-39331428D01*
X76614285Y-39331428D01*
X76671428Y-39360000D01*
X76700000Y-39388571D01*
X76728571Y-39445714D01*
X76728571Y-39588571D01*
X76700000Y-39674285D01*
X76128571Y-40274285D02*
X76414285Y-40074285D01*
X76128571Y-39931428D02*
X76728571Y-39931428D01*
X76728571Y-40160000D01*
X76700000Y-40217142D01*
X76671428Y-40245714D01*
X76614285Y-40274285D01*
X76528571Y-40274285D01*
X76471428Y-40245714D01*
X76442857Y-40217142D01*
X76414285Y-40160000D01*
X76414285Y-39931428D01*
X76071428Y-40388571D02*
X76071428Y-40845714D01*
X76185714Y-41331428D02*
X76157142Y-41302857D01*
X76128571Y-41217142D01*
X76128571Y-41160000D01*
X76157142Y-41074285D01*
X76214285Y-41017142D01*
X76271428Y-40988571D01*
X76385714Y-40960000D01*
X76471428Y-40960000D01*
X76585714Y-40988571D01*
X76642857Y-41017142D01*
X76700000Y-41074285D01*
X76728571Y-41160000D01*
X76728571Y-41217142D01*
X76700000Y-41302857D01*
X76671428Y-41331428D01*
X76128571Y-41674285D02*
X76157142Y-41617142D01*
X76185714Y-41588571D01*
X76242857Y-41560000D01*
X76414285Y-41560000D01*
X76471428Y-41588571D01*
X76500000Y-41617142D01*
X76528571Y-41674285D01*
X76528571Y-41760000D01*
X76500000Y-41817142D01*
X76471428Y-41845714D01*
X76414285Y-41874285D01*
X76242857Y-41874285D01*
X76185714Y-41845714D01*
X76157142Y-41817142D01*
X76128571Y-41760000D01*
X76128571Y-41674285D01*
X76528571Y-42131428D02*
X76128571Y-42131428D01*
X76471428Y-42131428D02*
X76500000Y-42160000D01*
X76528571Y-42217142D01*
X76528571Y-42302857D01*
X76500000Y-42360000D01*
X76442857Y-42388571D01*
X76128571Y-42388571D01*
X76528571Y-42674285D02*
X76128571Y-42674285D01*
X76471428Y-42674285D02*
X76500000Y-42702857D01*
X76528571Y-42760000D01*
X76528571Y-42845714D01*
X76500000Y-42902857D01*
X76442857Y-42931428D01*
X76128571Y-42931428D01*
X87782857Y-52001428D02*
X87754285Y-52087142D01*
X87725714Y-52115714D01*
X87668571Y-52144285D01*
X87582857Y-52144285D01*
X87525714Y-52115714D01*
X87497142Y-52087142D01*
X87468571Y-52030000D01*
X87468571Y-51801428D01*
X88068571Y-51801428D01*
X88068571Y-52001428D01*
X88040000Y-52058571D01*
X88011428Y-52087142D01*
X87954285Y-52115714D01*
X87897142Y-52115714D01*
X87840000Y-52087142D01*
X87811428Y-52058571D01*
X87782857Y-52001428D01*
X87782857Y-51801428D01*
X87468571Y-52487142D02*
X87497142Y-52430000D01*
X87525714Y-52401428D01*
X87582857Y-52372857D01*
X87754285Y-52372857D01*
X87811428Y-52401428D01*
X87840000Y-52430000D01*
X87868571Y-52487142D01*
X87868571Y-52572857D01*
X87840000Y-52630000D01*
X87811428Y-52658571D01*
X87754285Y-52687142D01*
X87582857Y-52687142D01*
X87525714Y-52658571D01*
X87497142Y-52630000D01*
X87468571Y-52572857D01*
X87468571Y-52487142D01*
X87468571Y-53030000D02*
X87497142Y-52972857D01*
X87525714Y-52944285D01*
X87582857Y-52915714D01*
X87754285Y-52915714D01*
X87811428Y-52944285D01*
X87840000Y-52972857D01*
X87868571Y-53030000D01*
X87868571Y-53115714D01*
X87840000Y-53172857D01*
X87811428Y-53201428D01*
X87754285Y-53230000D01*
X87582857Y-53230000D01*
X87525714Y-53201428D01*
X87497142Y-53172857D01*
X87468571Y-53115714D01*
X87468571Y-53030000D01*
X87868571Y-53401428D02*
X87868571Y-53630000D01*
X88068571Y-53487142D02*
X87554285Y-53487142D01*
X87497142Y-53515714D01*
X87468571Y-53572857D01*
X87468571Y-53630000D01*
X87411428Y-53687142D02*
X87411428Y-54144285D01*
X88068571Y-54201428D02*
X88068571Y-54544285D01*
X87468571Y-54372857D02*
X88068571Y-54372857D01*
X87468571Y-54744285D02*
X88068571Y-54744285D01*
X88068571Y-54972857D01*
X88040000Y-55030000D01*
X88011428Y-55058571D01*
X87954285Y-55087142D01*
X87868571Y-55087142D01*
X87811428Y-55058571D01*
X87782857Y-55030000D01*
X87754285Y-54972857D01*
X87754285Y-54744285D01*
X91738571Y-52038571D02*
X91738571Y-52381428D01*
X91138571Y-52210000D02*
X91738571Y-52210000D01*
X91738571Y-52524285D02*
X91138571Y-52924285D01*
X91738571Y-52924285D02*
X91138571Y-52524285D01*
X91138571Y-53438571D02*
X91138571Y-53152857D01*
X91738571Y-53152857D01*
X91452857Y-53638571D02*
X91452857Y-53838571D01*
X91138571Y-53924285D02*
X91138571Y-53638571D01*
X91738571Y-53638571D01*
X91738571Y-53924285D01*
X91138571Y-54181428D02*
X91738571Y-54181428D01*
X91738571Y-54324285D01*
X91710000Y-54410000D01*
X91652857Y-54467142D01*
X91595714Y-54495714D01*
X91481428Y-54524285D01*
X91395714Y-54524285D01*
X91281428Y-54495714D01*
X91224285Y-54467142D01*
X91167142Y-54410000D01*
X91138571Y-54324285D01*
X91138571Y-54181428D01*
X87545714Y-46001428D02*
X87888571Y-46001428D01*
X87717142Y-46601428D02*
X87717142Y-46001428D01*
X88031428Y-46001428D02*
X88431428Y-46601428D01*
X88431428Y-46001428D02*
X88031428Y-46601428D01*
X88517142Y-46658571D02*
X88974285Y-46658571D01*
X89031428Y-46001428D02*
X89374285Y-46001428D01*
X89202857Y-46601428D02*
X89202857Y-46001428D01*
X89574285Y-46601428D02*
X89574285Y-46001428D01*
X89802857Y-46001428D01*
X89860000Y-46030000D01*
X89888571Y-46058571D01*
X89917142Y-46115714D01*
X89917142Y-46201428D01*
X89888571Y-46258571D01*
X89860000Y-46287142D01*
X89802857Y-46315714D01*
X89574285Y-46315714D01*
X70342857Y-35842857D02*
X70428571Y-35871428D01*
X70571428Y-35871428D01*
X70628571Y-35842857D01*
X70657142Y-35814285D01*
X70685714Y-35757142D01*
X70685714Y-35700000D01*
X70657142Y-35642857D01*
X70628571Y-35614285D01*
X70571428Y-35585714D01*
X70457142Y-35557142D01*
X70400000Y-35528571D01*
X70371428Y-35500000D01*
X70342857Y-35442857D01*
X70342857Y-35385714D01*
X70371428Y-35328571D01*
X70400000Y-35300000D01*
X70457142Y-35271428D01*
X70600000Y-35271428D01*
X70685714Y-35300000D01*
X71171428Y-35842857D02*
X71114285Y-35871428D01*
X71000000Y-35871428D01*
X70942857Y-35842857D01*
X70914285Y-35785714D01*
X70914285Y-35557142D01*
X70942857Y-35500000D01*
X71000000Y-35471428D01*
X71114285Y-35471428D01*
X71171428Y-35500000D01*
X71200000Y-35557142D01*
X71200000Y-35614285D01*
X70914285Y-35671428D01*
X71457142Y-35871428D02*
X71457142Y-35471428D01*
X71457142Y-35585714D02*
X71485714Y-35528571D01*
X71514285Y-35500000D01*
X71571428Y-35471428D01*
X71628571Y-35471428D01*
X71771428Y-35471428D02*
X71914285Y-35871428D01*
X72057142Y-35471428D01*
X72371428Y-35871428D02*
X72314285Y-35842857D01*
X72285714Y-35814285D01*
X72257142Y-35757142D01*
X72257142Y-35585714D01*
X72285714Y-35528571D01*
X72314285Y-35500000D01*
X72371428Y-35471428D01*
X72457142Y-35471428D01*
X72514285Y-35500000D01*
X72542857Y-35528571D01*
X72571428Y-35585714D01*
X72571428Y-35757142D01*
X72542857Y-35814285D01*
X72514285Y-35842857D01*
X72457142Y-35871428D01*
X72371428Y-35871428D01*
X72828571Y-35871428D02*
X72828571Y-35271428D01*
X73057142Y-35271428D01*
X73114285Y-35300000D01*
X73142857Y-35328571D01*
X73171428Y-35385714D01*
X73171428Y-35471428D01*
X73142857Y-35528571D01*
X73114285Y-35557142D01*
X73057142Y-35585714D01*
X72828571Y-35585714D01*
X73371428Y-35271428D02*
X73514285Y-35871428D01*
X73628571Y-35442857D01*
X73742857Y-35871428D01*
X73885714Y-35271428D01*
X74114285Y-35871428D02*
X74114285Y-35271428D01*
X74314285Y-35700000D01*
X74514285Y-35271428D01*
X74514285Y-35871428D01*
X74657142Y-35928571D02*
X75114285Y-35928571D01*
X75171428Y-35271428D02*
X75514285Y-35271428D01*
X75342857Y-35871428D02*
X75342857Y-35271428D01*
X75714285Y-35871428D02*
X75714285Y-35271428D01*
X75942857Y-35271428D01*
X76000000Y-35300000D01*
X76028571Y-35328571D01*
X76057142Y-35385714D01*
X76057142Y-35471428D01*
X76028571Y-35528571D01*
X76000000Y-35557142D01*
X75942857Y-35585714D01*
X75714285Y-35585714D01*
X67640000Y-37696190D02*
X67544761Y-37696190D01*
X67497142Y-37720000D01*
X67473333Y-37743809D01*
X67425714Y-37815238D01*
X67401904Y-37910476D01*
X67401904Y-38100952D01*
X67425714Y-38148571D01*
X67449523Y-38172380D01*
X67497142Y-38196190D01*
X67592380Y-38196190D01*
X67640000Y-38172380D01*
X67663809Y-38148571D01*
X67687619Y-38100952D01*
X67687619Y-37981904D01*
X67663809Y-37934285D01*
X67640000Y-37910476D01*
X67592380Y-37886666D01*
X67497142Y-37886666D01*
X67449523Y-37910476D01*
X67425714Y-37934285D01*
X67401904Y-37981904D01*
X67830476Y-37696190D02*
X67997142Y-38196190D01*
X68163809Y-37696190D01*
X68211428Y-38243809D02*
X68592380Y-38243809D01*
X68640000Y-37696190D02*
X68925714Y-37696190D01*
X68782857Y-38196190D02*
X68782857Y-37696190D01*
X69092380Y-38196190D02*
X69092380Y-37696190D01*
X69282857Y-37696190D01*
X69330476Y-37720000D01*
X69354285Y-37743809D01*
X69378095Y-37791428D01*
X69378095Y-37862857D01*
X69354285Y-37910476D01*
X69330476Y-37934285D01*
X69282857Y-37958095D01*
X69092380Y-37958095D01*
X59074285Y-56681428D02*
X59074285Y-56081428D01*
X59074285Y-56367142D02*
X59417142Y-56367142D01*
X59417142Y-56681428D02*
X59417142Y-56081428D01*
X59960000Y-56681428D02*
X59960000Y-56367142D01*
X59931428Y-56310000D01*
X59874285Y-56281428D01*
X59760000Y-56281428D01*
X59702857Y-56310000D01*
X59960000Y-56652857D02*
X59902857Y-56681428D01*
X59760000Y-56681428D01*
X59702857Y-56652857D01*
X59674285Y-56595714D01*
X59674285Y-56538571D01*
X59702857Y-56481428D01*
X59760000Y-56452857D01*
X59902857Y-56452857D01*
X59960000Y-56424285D01*
X60331428Y-56681428D02*
X60274285Y-56652857D01*
X60245714Y-56595714D01*
X60245714Y-56081428D01*
X60645714Y-56681428D02*
X60588571Y-56652857D01*
X60560000Y-56595714D01*
X60560000Y-56081428D01*
X60845714Y-56652857D02*
X60931428Y-56681428D01*
X61074285Y-56681428D01*
X61131428Y-56652857D01*
X61160000Y-56624285D01*
X61188571Y-56567142D01*
X61188571Y-56510000D01*
X61160000Y-56452857D01*
X61131428Y-56424285D01*
X61074285Y-56395714D01*
X60960000Y-56367142D01*
X60902857Y-56338571D01*
X60874285Y-56310000D01*
X60845714Y-56252857D01*
X60845714Y-56195714D01*
X60874285Y-56138571D01*
X60902857Y-56110000D01*
X60960000Y-56081428D01*
X61102857Y-56081428D01*
X61188571Y-56110000D01*
X61417142Y-56138571D02*
X61445714Y-56110000D01*
X61502857Y-56081428D01*
X61645714Y-56081428D01*
X61702857Y-56110000D01*
X61731428Y-56138571D01*
X61760000Y-56195714D01*
X61760000Y-56252857D01*
X61731428Y-56338571D01*
X61388571Y-56681428D01*
X61760000Y-56681428D01*
X61874285Y-56738571D02*
X62331428Y-56738571D01*
X62388571Y-56081428D02*
X62731428Y-56081428D01*
X62560000Y-56681428D02*
X62560000Y-56081428D01*
X62931428Y-56681428D02*
X62931428Y-56081428D01*
X63160000Y-56081428D01*
X63217142Y-56110000D01*
X63245714Y-56138571D01*
X63274285Y-56195714D01*
X63274285Y-56281428D01*
X63245714Y-56338571D01*
X63217142Y-56367142D01*
X63160000Y-56395714D01*
X62931428Y-56395714D01*
X102711428Y-47501428D02*
X103197142Y-47501428D01*
X103254285Y-47472857D01*
X103282857Y-47444285D01*
X103311428Y-47387142D01*
X103311428Y-47272857D01*
X103282857Y-47215714D01*
X103254285Y-47187142D01*
X103197142Y-47158571D01*
X102711428Y-47158571D01*
X103282857Y-46901428D02*
X103311428Y-46815714D01*
X103311428Y-46672857D01*
X103282857Y-46615714D01*
X103254285Y-46587142D01*
X103197142Y-46558571D01*
X103140000Y-46558571D01*
X103082857Y-46587142D01*
X103054285Y-46615714D01*
X103025714Y-46672857D01*
X102997142Y-46787142D01*
X102968571Y-46844285D01*
X102940000Y-46872857D01*
X102882857Y-46901428D01*
X102825714Y-46901428D01*
X102768571Y-46872857D01*
X102740000Y-46844285D01*
X102711428Y-46787142D01*
X102711428Y-46644285D01*
X102740000Y-46558571D01*
X102997142Y-46101428D02*
X103025714Y-46015714D01*
X103054285Y-45987142D01*
X103111428Y-45958571D01*
X103197142Y-45958571D01*
X103254285Y-45987142D01*
X103282857Y-46015714D01*
X103311428Y-46072857D01*
X103311428Y-46301428D01*
X102711428Y-46301428D01*
X102711428Y-46101428D01*
X102740000Y-46044285D01*
X102768571Y-46015714D01*
X102825714Y-45987142D01*
X102882857Y-45987142D01*
X102940000Y-46015714D01*
X102968571Y-46044285D01*
X102997142Y-46101428D01*
X102997142Y-46301428D01*
X103311428Y-45415714D02*
X103311428Y-45701428D01*
X102711428Y-45701428D01*
X102997142Y-45215714D02*
X102997142Y-45015714D01*
X103311428Y-44930000D02*
X103311428Y-45215714D01*
X102711428Y-45215714D01*
X102711428Y-44930000D01*
X103311428Y-44672857D02*
X102711428Y-44672857D01*
X102711428Y-44530000D01*
X102740000Y-44444285D01*
X102797142Y-44387142D01*
X102854285Y-44358571D01*
X102968571Y-44330000D01*
X103054285Y-44330000D01*
X103168571Y-44358571D01*
X103225714Y-44387142D01*
X103282857Y-44444285D01*
X103311428Y-44530000D01*
X103311428Y-44672857D01*
X71611190Y-49151190D02*
X71637380Y-49125000D01*
X71689761Y-49098809D01*
X71820714Y-49098809D01*
X71873095Y-49125000D01*
X71899285Y-49151190D01*
X71925476Y-49203571D01*
X71925476Y-49255952D01*
X71899285Y-49334523D01*
X71585000Y-49648809D01*
X71925476Y-49648809D01*
X72396904Y-49282142D02*
X72396904Y-49648809D01*
X72265952Y-49072619D02*
X72135000Y-49465476D01*
X72475476Y-49465476D01*
X72606428Y-49098809D02*
X72789761Y-49648809D01*
X72973095Y-49098809D01*
X73025476Y-49701190D02*
X73444523Y-49701190D01*
X73496904Y-49098809D02*
X73811190Y-49098809D01*
X73654047Y-49648809D02*
X73654047Y-49098809D01*
X73994523Y-49648809D02*
X73994523Y-49098809D01*
X74204047Y-49098809D01*
X74256428Y-49125000D01*
X74282619Y-49151190D01*
X74308809Y-49203571D01*
X74308809Y-49282142D01*
X74282619Y-49334523D01*
X74256428Y-49360714D01*
X74204047Y-49386904D01*
X73994523Y-49386904D01*
X98628223Y-62188832D02*
X98486802Y-62047411D01*
X98648426Y-61764568D02*
X98850457Y-61966599D01*
X98426193Y-62390863D01*
X98224162Y-62188832D01*
X98466599Y-61582741D02*
X98042335Y-62007005D01*
X98224162Y-61340304D01*
X97799898Y-61764568D01*
X98163553Y-61198883D02*
X97840304Y-60875634D01*
X97335228Y-61299898D02*
X97092791Y-61057461D01*
X97638274Y-60754416D02*
X97214009Y-61178680D01*
X97375634Y-60491776D02*
X96951370Y-60916040D01*
X96789745Y-60754416D01*
X96769542Y-60693806D01*
X96769542Y-60653400D01*
X96789745Y-60592791D01*
X96850355Y-60532182D01*
X96910964Y-60511979D01*
X96951370Y-60511979D01*
X97011979Y-60532182D01*
X97173603Y-60693806D01*
D12*
X82739523Y-69452380D02*
X82406190Y-68976190D01*
X82168095Y-69452380D02*
X82168095Y-68452380D01*
X82549047Y-68452380D01*
X82644285Y-68500000D01*
X82691904Y-68547619D01*
X82739523Y-68642857D01*
X82739523Y-68785714D01*
X82691904Y-68880952D01*
X82644285Y-68928571D01*
X82549047Y-68976190D01*
X82168095Y-68976190D01*
X83501428Y-68928571D02*
X83644285Y-68976190D01*
X83691904Y-69023809D01*
X83739523Y-69119047D01*
X83739523Y-69261904D01*
X83691904Y-69357142D01*
X83644285Y-69404761D01*
X83549047Y-69452380D01*
X83168095Y-69452380D01*
X83168095Y-68452380D01*
X83501428Y-68452380D01*
X83596666Y-68500000D01*
X83644285Y-68547619D01*
X83691904Y-68642857D01*
X83691904Y-68738095D01*
X83644285Y-68833333D01*
X83596666Y-68880952D01*
X83501428Y-68928571D01*
X83168095Y-68928571D01*
X84168095Y-68452380D02*
X84168095Y-69261904D01*
X84215714Y-69357142D01*
X84263333Y-69404761D01*
X84358571Y-69452380D01*
X84549047Y-69452380D01*
X84644285Y-69404761D01*
X84691904Y-69357142D01*
X84739523Y-69261904D01*
X84739523Y-68452380D01*
X85168095Y-69404761D02*
X85310952Y-69452380D01*
X85549047Y-69452380D01*
X85644285Y-69404761D01*
X85691904Y-69357142D01*
X85739523Y-69261904D01*
X85739523Y-69166666D01*
X85691904Y-69071428D01*
X85644285Y-69023809D01*
X85549047Y-68976190D01*
X85358571Y-68928571D01*
X85263333Y-68880952D01*
X85215714Y-68833333D01*
X85168095Y-68738095D01*
X85168095Y-68642857D01*
X85215714Y-68547619D01*
X85263333Y-68500000D01*
X85358571Y-68452380D01*
X85596666Y-68452380D01*
X85739523Y-68500000D01*
D10*
X83674285Y-67554285D02*
X83840952Y-67554285D01*
X83912380Y-67816190D02*
X83674285Y-67816190D01*
X83674285Y-67316190D01*
X83912380Y-67316190D01*
X84102857Y-67792380D02*
X84174285Y-67816190D01*
X84293333Y-67816190D01*
X84340952Y-67792380D01*
X84364761Y-67768571D01*
X84388571Y-67720952D01*
X84388571Y-67673333D01*
X84364761Y-67625714D01*
X84340952Y-67601904D01*
X84293333Y-67578095D01*
X84198095Y-67554285D01*
X84150476Y-67530476D01*
X84126666Y-67506666D01*
X84102857Y-67459047D01*
X84102857Y-67411428D01*
X84126666Y-67363809D01*
X84150476Y-67340000D01*
X84198095Y-67316190D01*
X84317142Y-67316190D01*
X84388571Y-67340000D01*
X84579047Y-67363809D02*
X84602857Y-67340000D01*
X84650476Y-67316190D01*
X84769523Y-67316190D01*
X84817142Y-67340000D01*
X84840952Y-67363809D01*
X84864761Y-67411428D01*
X84864761Y-67459047D01*
X84840952Y-67530476D01*
X84555238Y-67816190D01*
X84864761Y-67816190D01*
X85079047Y-67816190D02*
X85079047Y-67316190D01*
X85269523Y-67316190D01*
X85317142Y-67340000D01*
X85340952Y-67363809D01*
X85364761Y-67411428D01*
X85364761Y-67482857D01*
X85340952Y-67530476D01*
X85317142Y-67554285D01*
X85269523Y-67578095D01*
X85079047Y-67578095D01*
X85793333Y-67816190D02*
X85793333Y-67554285D01*
X85769523Y-67506666D01*
X85721904Y-67482857D01*
X85626666Y-67482857D01*
X85579047Y-67506666D01*
X85793333Y-67792380D02*
X85745714Y-67816190D01*
X85626666Y-67816190D01*
X85579047Y-67792380D01*
X85555238Y-67744761D01*
X85555238Y-67697142D01*
X85579047Y-67649523D01*
X85626666Y-67625714D01*
X85745714Y-67625714D01*
X85793333Y-67601904D01*
X86245714Y-67816190D02*
X86245714Y-67316190D01*
X86245714Y-67792380D02*
X86198095Y-67816190D01*
X86102857Y-67816190D01*
X86055238Y-67792380D01*
X86031428Y-67768571D01*
X86007619Y-67720952D01*
X86007619Y-67578095D01*
X86031428Y-67530476D01*
X86055238Y-67506666D01*
X86102857Y-67482857D01*
X86198095Y-67482857D01*
X86245714Y-67506666D01*
X91272857Y-72681428D02*
X91644285Y-72681428D01*
X91444285Y-72910000D01*
X91530000Y-72910000D01*
X91587142Y-72938571D01*
X91615714Y-72967142D01*
X91644285Y-73024285D01*
X91644285Y-73167142D01*
X91615714Y-73224285D01*
X91587142Y-73252857D01*
X91530000Y-73281428D01*
X91358571Y-73281428D01*
X91301428Y-73252857D01*
X91272857Y-73224285D01*
X91815714Y-72681428D02*
X92015714Y-73281428D01*
X92215714Y-72681428D01*
X92358571Y-72681428D02*
X92730000Y-72681428D01*
X92530000Y-72910000D01*
X92615714Y-72910000D01*
X92672857Y-72938571D01*
X92701428Y-72967142D01*
X92730000Y-73024285D01*
X92730000Y-73167142D01*
X92701428Y-73224285D01*
X92672857Y-73252857D01*
X92615714Y-73281428D01*
X92444285Y-73281428D01*
X92387142Y-73252857D01*
X92358571Y-73224285D01*
X93272857Y-73281428D02*
X92987142Y-73281428D01*
X92987142Y-72681428D01*
X93472857Y-72967142D02*
X93672857Y-72967142D01*
X93758571Y-73281428D02*
X93472857Y-73281428D01*
X93472857Y-72681428D01*
X93758571Y-72681428D01*
X94015714Y-73281428D02*
X94015714Y-72681428D01*
X94158571Y-72681428D01*
X94244285Y-72710000D01*
X94301428Y-72767142D01*
X94330000Y-72824285D01*
X94358571Y-72938571D01*
X94358571Y-73024285D01*
X94330000Y-73138571D01*
X94301428Y-73195714D01*
X94244285Y-73252857D01*
X94158571Y-73281428D01*
X94015714Y-73281428D01*
X62272857Y-35327142D02*
X62301428Y-35241428D01*
X62301428Y-35098571D01*
X62272857Y-35041428D01*
X62244285Y-35012857D01*
X62187142Y-34984285D01*
X62130000Y-34984285D01*
X62072857Y-35012857D01*
X62044285Y-35041428D01*
X62015714Y-35098571D01*
X61987142Y-35212857D01*
X61958571Y-35270000D01*
X61930000Y-35298571D01*
X61872857Y-35327142D01*
X61815714Y-35327142D01*
X61758571Y-35298571D01*
X61730000Y-35270000D01*
X61701428Y-35212857D01*
X61701428Y-35070000D01*
X61730000Y-34984285D01*
X62272857Y-34498571D02*
X62301428Y-34555714D01*
X62301428Y-34670000D01*
X62272857Y-34727142D01*
X62215714Y-34755714D01*
X61987142Y-34755714D01*
X61930000Y-34727142D01*
X61901428Y-34670000D01*
X61901428Y-34555714D01*
X61930000Y-34498571D01*
X61987142Y-34470000D01*
X62044285Y-34470000D01*
X62101428Y-34755714D01*
X62301428Y-34212857D02*
X61901428Y-34212857D01*
X62015714Y-34212857D02*
X61958571Y-34184285D01*
X61930000Y-34155714D01*
X61901428Y-34098571D01*
X61901428Y-34041428D01*
X61901428Y-33898571D02*
X62301428Y-33755714D01*
X61901428Y-33612857D01*
X62301428Y-33298571D02*
X62272857Y-33355714D01*
X62244285Y-33384285D01*
X62187142Y-33412857D01*
X62015714Y-33412857D01*
X61958571Y-33384285D01*
X61930000Y-33355714D01*
X61901428Y-33298571D01*
X61901428Y-33212857D01*
X61930000Y-33155714D01*
X61958571Y-33127142D01*
X62015714Y-33098571D01*
X62187142Y-33098571D01*
X62244285Y-33127142D01*
X62272857Y-33155714D01*
X62301428Y-33212857D01*
X62301428Y-33298571D01*
X62358571Y-32984285D02*
X62358571Y-32527142D01*
X62244285Y-32041428D02*
X62272857Y-32070000D01*
X62301428Y-32155714D01*
X62301428Y-32212857D01*
X62272857Y-32298571D01*
X62215714Y-32355714D01*
X62158571Y-32384285D01*
X62044285Y-32412857D01*
X61958571Y-32412857D01*
X61844285Y-32384285D01*
X61787142Y-32355714D01*
X61730000Y-32298571D01*
X61701428Y-32212857D01*
X61701428Y-32155714D01*
X61730000Y-32070000D01*
X61758571Y-32041428D01*
X62301428Y-31698571D02*
X62272857Y-31755714D01*
X62244285Y-31784285D01*
X62187142Y-31812857D01*
X62015714Y-31812857D01*
X61958571Y-31784285D01*
X61930000Y-31755714D01*
X61901428Y-31698571D01*
X61901428Y-31612857D01*
X61930000Y-31555714D01*
X61958571Y-31527142D01*
X62015714Y-31498571D01*
X62187142Y-31498571D01*
X62244285Y-31527142D01*
X62272857Y-31555714D01*
X62301428Y-31612857D01*
X62301428Y-31698571D01*
X61901428Y-31241428D02*
X62301428Y-31241428D01*
X61958571Y-31241428D02*
X61930000Y-31212857D01*
X61901428Y-31155714D01*
X61901428Y-31070000D01*
X61930000Y-31012857D01*
X61987142Y-30984285D01*
X62301428Y-30984285D01*
X61901428Y-30698571D02*
X62301428Y-30698571D01*
X61958571Y-30698571D02*
X61930000Y-30670000D01*
X61901428Y-30612857D01*
X61901428Y-30527142D01*
X61930000Y-30470000D01*
X61987142Y-30441428D01*
X62301428Y-30441428D01*
X93513809Y-52345238D02*
X93751904Y-52178571D01*
X93513809Y-52059523D02*
X94013809Y-52059523D01*
X94013809Y-52250000D01*
X93990000Y-52297619D01*
X93966190Y-52321428D01*
X93918571Y-52345238D01*
X93847142Y-52345238D01*
X93799523Y-52321428D01*
X93775714Y-52297619D01*
X93751904Y-52250000D01*
X93751904Y-52059523D01*
X94013809Y-52488095D02*
X94013809Y-52773809D01*
X93513809Y-52630952D02*
X94013809Y-52630952D01*
X93537619Y-52916666D02*
X93513809Y-52988095D01*
X93513809Y-53107142D01*
X93537619Y-53154761D01*
X93561428Y-53178571D01*
X93609047Y-53202380D01*
X93656666Y-53202380D01*
X93704285Y-53178571D01*
X93728095Y-53154761D01*
X93751904Y-53107142D01*
X93775714Y-53011904D01*
X93799523Y-52964285D01*
X93823333Y-52940476D01*
X93870952Y-52916666D01*
X93918571Y-52916666D01*
X93966190Y-52940476D01*
X93990000Y-52964285D01*
X94013809Y-53011904D01*
X94013809Y-53130952D01*
X93990000Y-53202380D01*
X93466190Y-53297619D02*
X93466190Y-53678571D01*
X94013809Y-53726190D02*
X94013809Y-54011904D01*
X93513809Y-53869047D02*
X94013809Y-53869047D01*
X93513809Y-54178571D02*
X94013809Y-54178571D01*
X94013809Y-54369047D01*
X93990000Y-54416666D01*
X93966190Y-54440476D01*
X93918571Y-54464285D01*
X93847142Y-54464285D01*
X93799523Y-54440476D01*
X93775714Y-54416666D01*
X93751904Y-54369047D01*
X93751904Y-54178571D01*
X87452857Y-49622857D02*
X87538571Y-49651428D01*
X87681428Y-49651428D01*
X87738571Y-49622857D01*
X87767142Y-49594285D01*
X87795714Y-49537142D01*
X87795714Y-49480000D01*
X87767142Y-49422857D01*
X87738571Y-49394285D01*
X87681428Y-49365714D01*
X87567142Y-49337142D01*
X87510000Y-49308571D01*
X87481428Y-49280000D01*
X87452857Y-49222857D01*
X87452857Y-49165714D01*
X87481428Y-49108571D01*
X87510000Y-49080000D01*
X87567142Y-49051428D01*
X87710000Y-49051428D01*
X87795714Y-49080000D01*
X88138571Y-49651428D02*
X88081428Y-49622857D01*
X88052857Y-49594285D01*
X88024285Y-49537142D01*
X88024285Y-49365714D01*
X88052857Y-49308571D01*
X88081428Y-49280000D01*
X88138571Y-49251428D01*
X88224285Y-49251428D01*
X88281428Y-49280000D01*
X88310000Y-49308571D01*
X88338571Y-49365714D01*
X88338571Y-49537142D01*
X88310000Y-49594285D01*
X88281428Y-49622857D01*
X88224285Y-49651428D01*
X88138571Y-49651428D01*
X88681428Y-49651428D02*
X88624285Y-49622857D01*
X88595714Y-49565714D01*
X88595714Y-49051428D01*
X88767142Y-49708571D02*
X89224285Y-49708571D01*
X89281428Y-49051428D02*
X89624285Y-49051428D01*
X89452857Y-49651428D02*
X89452857Y-49051428D01*
X89824285Y-49651428D02*
X89824285Y-49051428D01*
X90052857Y-49051428D01*
X90110000Y-49080000D01*
X90138571Y-49108571D01*
X90167142Y-49165714D01*
X90167142Y-49251428D01*
X90138571Y-49308571D01*
X90110000Y-49337142D01*
X90052857Y-49365714D01*
X89824285Y-49365714D01*
X97780714Y-58466666D02*
X97780714Y-58283333D01*
X98068809Y-58204761D02*
X98068809Y-58466666D01*
X97518809Y-58466666D01*
X97518809Y-58204761D01*
X98068809Y-57969047D02*
X97518809Y-57969047D01*
X98068809Y-57654761D01*
X97518809Y-57654761D01*
X97518809Y-57235714D02*
X97911666Y-57235714D01*
X97990238Y-57261904D01*
X98042619Y-57314285D01*
X98068809Y-57392857D01*
X98068809Y-57445238D01*
X97518809Y-56973809D02*
X97964047Y-56973809D01*
X98016428Y-56947619D01*
X98042619Y-56921428D01*
X98068809Y-56869047D01*
X98068809Y-56764285D01*
X98042619Y-56711904D01*
X98016428Y-56685714D01*
X97964047Y-56659523D01*
X97518809Y-56659523D01*
X98068809Y-56397619D02*
X97518809Y-56397619D01*
X97911666Y-56214285D01*
X97518809Y-56030952D01*
X98068809Y-56030952D01*
X98068809Y-55769047D02*
X97518809Y-55769047D01*
X97518809Y-55559523D01*
X97545000Y-55507142D01*
X97571190Y-55480952D01*
X97623571Y-55454761D01*
X97702142Y-55454761D01*
X97754523Y-55480952D01*
X97780714Y-55507142D01*
X97806904Y-55559523D01*
X97806904Y-55769047D01*
X97780714Y-55219047D02*
X97780714Y-55035714D01*
X98068809Y-54957142D02*
X98068809Y-55219047D01*
X97518809Y-55219047D01*
X97518809Y-54957142D01*
X98068809Y-54407142D02*
X97806904Y-54590476D01*
X98068809Y-54721428D02*
X97518809Y-54721428D01*
X97518809Y-54511904D01*
X97545000Y-54459523D01*
X97571190Y-54433333D01*
X97623571Y-54407142D01*
X97702142Y-54407142D01*
X97754523Y-54433333D01*
X97780714Y-54459523D01*
X97806904Y-54511904D01*
X97806904Y-54721428D01*
X67150952Y-62036190D02*
X67150952Y-61536190D01*
X67270000Y-61536190D01*
X67341428Y-61560000D01*
X67389047Y-61607619D01*
X67412857Y-61655238D01*
X67436666Y-61750476D01*
X67436666Y-61821904D01*
X67412857Y-61917142D01*
X67389047Y-61964761D01*
X67341428Y-62012380D01*
X67270000Y-62036190D01*
X67150952Y-62036190D01*
X67650952Y-62036190D02*
X67650952Y-61702857D01*
X67650952Y-61536190D02*
X67627142Y-61560000D01*
X67650952Y-61583809D01*
X67674761Y-61560000D01*
X67650952Y-61536190D01*
X67650952Y-61583809D01*
X67889047Y-62036190D02*
X67889047Y-61702857D01*
X67889047Y-61798095D02*
X67912857Y-61750476D01*
X67936666Y-61726666D01*
X67984285Y-61702857D01*
X68031904Y-61702857D01*
X68198571Y-62036190D02*
X68198571Y-61536190D01*
X68389047Y-61536190D01*
X68436666Y-61560000D01*
X68460476Y-61583809D01*
X68484285Y-61631428D01*
X68484285Y-61702857D01*
X68460476Y-61750476D01*
X68436666Y-61774285D01*
X68389047Y-61798095D01*
X68198571Y-61798095D01*
X68698571Y-62036190D02*
X68698571Y-61702857D01*
X68698571Y-61536190D02*
X68674761Y-61560000D01*
X68698571Y-61583809D01*
X68722380Y-61560000D01*
X68698571Y-61536190D01*
X68698571Y-61583809D01*
X68936666Y-61702857D02*
X68936666Y-62036190D01*
X68936666Y-61750476D02*
X68960476Y-61726666D01*
X69008095Y-61702857D01*
X69079523Y-61702857D01*
X69127142Y-61726666D01*
X69150952Y-61774285D01*
X69150952Y-62036190D01*
X69650952Y-62036190D02*
X69365238Y-62036190D01*
X69508095Y-62036190D02*
X69508095Y-61536190D01*
X69460476Y-61607619D01*
X69412857Y-61655238D01*
X69365238Y-61679047D01*
X69746190Y-62083809D02*
X70127142Y-62083809D01*
X70174761Y-61536190D02*
X70460476Y-61536190D01*
X70317619Y-62036190D02*
X70317619Y-61536190D01*
X70627142Y-62036190D02*
X70627142Y-61536190D01*
X70817619Y-61536190D01*
X70865238Y-61560000D01*
X70889047Y-61583809D01*
X70912857Y-61631428D01*
X70912857Y-61702857D01*
X70889047Y-61750476D01*
X70865238Y-61774285D01*
X70817619Y-61798095D01*
X70627142Y-61798095D01*
X71298933Y-39956396D02*
X71218121Y-40037208D01*
X71197918Y-40097817D01*
X71197918Y-40138223D01*
X71218121Y-40239238D01*
X71278730Y-40340254D01*
X71440355Y-40501878D01*
X71500964Y-40522081D01*
X71541370Y-40522081D01*
X71601979Y-40501878D01*
X71682791Y-40421066D01*
X71702994Y-40360457D01*
X71702994Y-40320051D01*
X71682791Y-40259441D01*
X71581776Y-40158426D01*
X71521167Y-40138223D01*
X71480761Y-40138223D01*
X71420152Y-40158426D01*
X71339339Y-40239238D01*
X71319136Y-40299847D01*
X71319136Y-40340254D01*
X71339339Y-40400863D01*
X71460558Y-39794771D02*
X72026243Y-40077614D01*
X71743400Y-39511928D01*
X72632335Y-39471522D02*
X72208071Y-39047258D01*
X72369695Y-38885634D01*
X72430304Y-38865431D01*
X72470710Y-38865431D01*
X72531319Y-38885634D01*
X72591928Y-38946243D01*
X72612132Y-39006852D01*
X72612132Y-39047258D01*
X72591928Y-39107867D01*
X72430304Y-39269492D01*
X72915177Y-38946243D02*
X73117208Y-38744213D01*
X72995990Y-39107867D02*
X72713147Y-38542182D01*
X73278832Y-38825025D01*
X73420254Y-38683603D02*
X72995990Y-38259339D01*
X73097005Y-38158324D01*
X73177817Y-38117918D01*
X73258629Y-38117918D01*
X73319238Y-38138121D01*
X73420254Y-38198730D01*
X73480863Y-38259339D01*
X73541472Y-38360355D01*
X73561675Y-38420964D01*
X73561675Y-38501776D01*
X73521269Y-38582588D01*
X73420254Y-38683603D01*
X103424285Y-69391428D02*
X103224285Y-69105714D01*
X103081428Y-69391428D02*
X103081428Y-68791428D01*
X103310000Y-68791428D01*
X103367142Y-68820000D01*
X103395714Y-68848571D01*
X103424285Y-68905714D01*
X103424285Y-68991428D01*
X103395714Y-69048571D01*
X103367142Y-69077142D01*
X103310000Y-69105714D01*
X103081428Y-69105714D01*
X103995714Y-69391428D02*
X103652857Y-69391428D01*
X103824285Y-69391428D02*
X103824285Y-68791428D01*
X103767142Y-68877142D01*
X103710000Y-68934285D01*
X103652857Y-68962857D01*
X104195714Y-68791428D02*
X104567142Y-68791428D01*
X104367142Y-69020000D01*
X104452857Y-69020000D01*
X104510000Y-69048571D01*
X104538571Y-69077142D01*
X104567142Y-69134285D01*
X104567142Y-69277142D01*
X104538571Y-69334285D01*
X104510000Y-69362857D01*
X104452857Y-69391428D01*
X104281428Y-69391428D01*
X104224285Y-69362857D01*
X104195714Y-69334285D01*
X70631428Y-77240000D02*
X70345714Y-77440000D01*
X70631428Y-77582857D02*
X70031428Y-77582857D01*
X70031428Y-77354285D01*
X70060000Y-77297142D01*
X70088571Y-77268571D01*
X70145714Y-77240000D01*
X70231428Y-77240000D01*
X70288571Y-77268571D01*
X70317142Y-77297142D01*
X70345714Y-77354285D01*
X70345714Y-77582857D01*
X70231428Y-76725714D02*
X70631428Y-76725714D01*
X70002857Y-76868571D02*
X70431428Y-77011428D01*
X70431428Y-76640000D01*
D12*
X62653428Y-76090428D02*
X62653428Y-75490428D01*
X62796285Y-75490428D01*
X62882000Y-75519000D01*
X62939142Y-75576142D01*
X62967714Y-75633285D01*
X62996285Y-75747571D01*
X62996285Y-75833285D01*
X62967714Y-75947571D01*
X62939142Y-76004714D01*
X62882000Y-76061857D01*
X62796285Y-76090428D01*
X62653428Y-76090428D01*
X63567714Y-76090428D02*
X63224857Y-76090428D01*
X63396285Y-76090428D02*
X63396285Y-75490428D01*
X63339142Y-75576142D01*
X63282000Y-75633285D01*
X63224857Y-75661857D01*
X64139142Y-76090428D02*
X63796285Y-76090428D01*
X63967714Y-76090428D02*
X63967714Y-75490428D01*
X63910571Y-75576142D01*
X63853428Y-75633285D01*
X63796285Y-75661857D01*
D13*
X71205714Y-72253333D02*
X71243809Y-72291428D01*
X71281904Y-72405714D01*
X71281904Y-72481904D01*
X71243809Y-72596190D01*
X71167619Y-72672380D01*
X71091428Y-72710476D01*
X70939047Y-72748571D01*
X70824761Y-72748571D01*
X70672380Y-72710476D01*
X70596190Y-72672380D01*
X70520000Y-72596190D01*
X70481904Y-72481904D01*
X70481904Y-72405714D01*
X70520000Y-72291428D01*
X70558095Y-72253333D01*
X70481904Y-71986666D02*
X70481904Y-71453333D01*
X71281904Y-71796190D01*
D10*
X86451428Y-65195714D02*
X86165714Y-65395714D01*
X86451428Y-65538571D02*
X85851428Y-65538571D01*
X85851428Y-65310000D01*
X85880000Y-65252857D01*
X85908571Y-65224285D01*
X85965714Y-65195714D01*
X86051428Y-65195714D01*
X86108571Y-65224285D01*
X86137142Y-65252857D01*
X86165714Y-65310000D01*
X86165714Y-65538571D01*
X85851428Y-64995714D02*
X85851428Y-64624285D01*
X86080000Y-64824285D01*
X86080000Y-64738571D01*
X86108571Y-64681428D01*
X86137142Y-64652857D01*
X86194285Y-64624285D01*
X86337142Y-64624285D01*
X86394285Y-64652857D01*
X86422857Y-64681428D01*
X86451428Y-64738571D01*
X86451428Y-64910000D01*
X86422857Y-64967142D01*
X86394285Y-64995714D01*
X85851428Y-64081428D02*
X85851428Y-64367142D01*
X86137142Y-64395714D01*
X86108571Y-64367142D01*
X86080000Y-64310000D01*
X86080000Y-64167142D01*
X86108571Y-64110000D01*
X86137142Y-64081428D01*
X86194285Y-64052857D01*
X86337142Y-64052857D01*
X86394285Y-64081428D01*
X86422857Y-64110000D01*
X86451428Y-64167142D01*
X86451428Y-64310000D01*
X86422857Y-64367142D01*
X86394285Y-64395714D01*
X63344285Y-63801428D02*
X63344285Y-63201428D01*
X63972857Y-63744285D02*
X63944285Y-63772857D01*
X63858571Y-63801428D01*
X63801428Y-63801428D01*
X63715714Y-63772857D01*
X63658571Y-63715714D01*
X63630000Y-63658571D01*
X63601428Y-63544285D01*
X63601428Y-63458571D01*
X63630000Y-63344285D01*
X63658571Y-63287142D01*
X63715714Y-63230000D01*
X63801428Y-63201428D01*
X63858571Y-63201428D01*
X63944285Y-63230000D01*
X63972857Y-63258571D01*
X64544285Y-63801428D02*
X64201428Y-63801428D01*
X64372857Y-63801428D02*
X64372857Y-63201428D01*
X64315714Y-63287142D01*
X64258571Y-63344285D01*
X64201428Y-63372857D01*
D12*
X74797142Y-62542380D02*
X74463809Y-62066190D01*
X74225714Y-62542380D02*
X74225714Y-61542380D01*
X74606666Y-61542380D01*
X74701904Y-61590000D01*
X74749523Y-61637619D01*
X74797142Y-61732857D01*
X74797142Y-61875714D01*
X74749523Y-61970952D01*
X74701904Y-62018571D01*
X74606666Y-62066190D01*
X74225714Y-62066190D01*
X75130476Y-61542380D02*
X75749523Y-61542380D01*
X75416190Y-61923333D01*
X75559047Y-61923333D01*
X75654285Y-61970952D01*
X75701904Y-62018571D01*
X75749523Y-62113809D01*
X75749523Y-62351904D01*
X75701904Y-62447142D01*
X75654285Y-62494761D01*
X75559047Y-62542380D01*
X75273333Y-62542380D01*
X75178095Y-62494761D01*
X75130476Y-62447142D01*
X76368571Y-61542380D02*
X76463809Y-61542380D01*
X76559047Y-61590000D01*
X76606666Y-61637619D01*
X76654285Y-61732857D01*
X76701904Y-61923333D01*
X76701904Y-62161428D01*
X76654285Y-62351904D01*
X76606666Y-62447142D01*
X76559047Y-62494761D01*
X76463809Y-62542380D01*
X76368571Y-62542380D01*
X76273333Y-62494761D01*
X76225714Y-62447142D01*
X76178095Y-62351904D01*
X76130476Y-62161428D01*
X76130476Y-61923333D01*
X76178095Y-61732857D01*
X76225714Y-61637619D01*
X76273333Y-61590000D01*
X76368571Y-61542380D01*
X56423142Y-50504857D02*
X56470761Y-50552476D01*
X56518380Y-50695333D01*
X56518380Y-50790571D01*
X56470761Y-50933428D01*
X56375523Y-51028666D01*
X56280285Y-51076285D01*
X56089809Y-51123904D01*
X55946952Y-51123904D01*
X55756476Y-51076285D01*
X55661238Y-51028666D01*
X55566000Y-50933428D01*
X55518380Y-50790571D01*
X55518380Y-50695333D01*
X55566000Y-50552476D01*
X55613619Y-50504857D01*
X56518380Y-49552476D02*
X56518380Y-50123904D01*
X56518380Y-49838190D02*
X55518380Y-49838190D01*
X55661238Y-49933428D01*
X55756476Y-50028666D01*
X55804095Y-50123904D01*
X56518380Y-49076285D02*
X56518380Y-48885809D01*
X56470761Y-48790571D01*
X56423142Y-48742952D01*
X56280285Y-48647714D01*
X56089809Y-48600095D01*
X55708857Y-48600095D01*
X55613619Y-48647714D01*
X55566000Y-48695333D01*
X55518380Y-48790571D01*
X55518380Y-48981047D01*
X55566000Y-49076285D01*
X55613619Y-49123904D01*
X55708857Y-49171523D01*
X55946952Y-49171523D01*
X56042190Y-49123904D01*
X56089809Y-49076285D01*
X56137428Y-48981047D01*
X56137428Y-48790571D01*
X56089809Y-48695333D01*
X56042190Y-48647714D01*
X55946952Y-48600095D01*
X82990380Y-38289857D02*
X82514190Y-38623190D01*
X82990380Y-38861285D02*
X81990380Y-38861285D01*
X81990380Y-38480333D01*
X82038000Y-38385095D01*
X82085619Y-38337476D01*
X82180857Y-38289857D01*
X82323714Y-38289857D01*
X82418952Y-38337476D01*
X82466571Y-38385095D01*
X82514190Y-38480333D01*
X82514190Y-38861285D01*
X82990380Y-37337476D02*
X82990380Y-37908904D01*
X82990380Y-37623190D02*
X81990380Y-37623190D01*
X82133238Y-37718428D01*
X82228476Y-37813666D01*
X82276095Y-37908904D01*
X81990380Y-36718428D02*
X81990380Y-36623190D01*
X82038000Y-36527952D01*
X82085619Y-36480333D01*
X82180857Y-36432714D01*
X82371333Y-36385095D01*
X82609428Y-36385095D01*
X82799904Y-36432714D01*
X82895142Y-36480333D01*
X82942761Y-36527952D01*
X82990380Y-36623190D01*
X82990380Y-36718428D01*
X82942761Y-36813666D01*
X82895142Y-36861285D01*
X82799904Y-36908904D01*
X82609428Y-36956523D01*
X82371333Y-36956523D01*
X82180857Y-36908904D01*
X82085619Y-36861285D01*
X82038000Y-36813666D01*
X81990380Y-36718428D01*
D10*
X99604285Y-43044285D02*
X99575714Y-43072857D01*
X99490000Y-43101428D01*
X99432857Y-43101428D01*
X99347142Y-43072857D01*
X99290000Y-43015714D01*
X99261428Y-42958571D01*
X99232857Y-42844285D01*
X99232857Y-42758571D01*
X99261428Y-42644285D01*
X99290000Y-42587142D01*
X99347142Y-42530000D01*
X99432857Y-42501428D01*
X99490000Y-42501428D01*
X99575714Y-42530000D01*
X99604285Y-42558571D01*
X100175714Y-43101428D02*
X99832857Y-43101428D01*
X100004285Y-43101428D02*
X100004285Y-42501428D01*
X99947142Y-42587142D01*
X99890000Y-42644285D01*
X99832857Y-42672857D01*
X100547142Y-42501428D02*
X100604285Y-42501428D01*
X100661428Y-42530000D01*
X100690000Y-42558571D01*
X100718571Y-42615714D01*
X100747142Y-42730000D01*
X100747142Y-42872857D01*
X100718571Y-42987142D01*
X100690000Y-43044285D01*
X100661428Y-43072857D01*
X100604285Y-43101428D01*
X100547142Y-43101428D01*
X100490000Y-43072857D01*
X100461428Y-43044285D01*
X100432857Y-42987142D01*
X100404285Y-42872857D01*
X100404285Y-42730000D01*
X100432857Y-42615714D01*
X100461428Y-42558571D01*
X100490000Y-42530000D01*
X100547142Y-42501428D01*
D12*
X95184761Y-71307619D02*
X95089523Y-71260000D01*
X94994285Y-71164761D01*
X94851428Y-71021904D01*
X94756190Y-70974285D01*
X94660952Y-70974285D01*
X94708571Y-71212380D02*
X94613333Y-71164761D01*
X94518095Y-71069523D01*
X94470476Y-70879047D01*
X94470476Y-70545714D01*
X94518095Y-70355238D01*
X94613333Y-70260000D01*
X94708571Y-70212380D01*
X94899047Y-70212380D01*
X94994285Y-70260000D01*
X95089523Y-70355238D01*
X95137142Y-70545714D01*
X95137142Y-70879047D01*
X95089523Y-71069523D01*
X94994285Y-71164761D01*
X94899047Y-71212380D01*
X94708571Y-71212380D01*
X95518095Y-70307619D02*
X95565714Y-70260000D01*
X95660952Y-70212380D01*
X95899047Y-70212380D01*
X95994285Y-70260000D01*
X96041904Y-70307619D01*
X96089523Y-70402857D01*
X96089523Y-70498095D01*
X96041904Y-70640952D01*
X95470476Y-71212380D01*
X96089523Y-71212380D01*
D10*
X71780000Y-55324285D02*
X71751428Y-55352857D01*
X71665714Y-55381428D01*
X71608571Y-55381428D01*
X71522857Y-55352857D01*
X71465714Y-55295714D01*
X71437142Y-55238571D01*
X71408571Y-55124285D01*
X71408571Y-55038571D01*
X71437142Y-54924285D01*
X71465714Y-54867142D01*
X71522857Y-54810000D01*
X71608571Y-54781428D01*
X71665714Y-54781428D01*
X71751428Y-54810000D01*
X71780000Y-54838571D01*
X72294285Y-54781428D02*
X72180000Y-54781428D01*
X72122857Y-54810000D01*
X72094285Y-54838571D01*
X72037142Y-54924285D01*
X72008571Y-55038571D01*
X72008571Y-55267142D01*
X72037142Y-55324285D01*
X72065714Y-55352857D01*
X72122857Y-55381428D01*
X72237142Y-55381428D01*
X72294285Y-55352857D01*
X72322857Y-55324285D01*
X72351428Y-55267142D01*
X72351428Y-55124285D01*
X72322857Y-55067142D01*
X72294285Y-55038571D01*
X72237142Y-55010000D01*
X72122857Y-55010000D01*
X72065714Y-55038571D01*
X72037142Y-55067142D01*
X72008571Y-55124285D01*
D12*
X89992857Y-70941428D02*
X89992857Y-71427142D01*
X90021428Y-71484285D01*
X90050000Y-71512857D01*
X90107142Y-71541428D01*
X90221428Y-71541428D01*
X90278571Y-71512857D01*
X90307142Y-71484285D01*
X90335714Y-71427142D01*
X90335714Y-70941428D01*
X90907142Y-70941428D02*
X90621428Y-70941428D01*
X90592857Y-71227142D01*
X90621428Y-71198571D01*
X90678571Y-71170000D01*
X90821428Y-71170000D01*
X90878571Y-71198571D01*
X90907142Y-71227142D01*
X90935714Y-71284285D01*
X90935714Y-71427142D01*
X90907142Y-71484285D01*
X90878571Y-71512857D01*
X90821428Y-71541428D01*
X90678571Y-71541428D01*
X90621428Y-71512857D01*
X90592857Y-71484285D01*
D11*
X78237571Y-58036428D02*
X78261380Y-58060238D01*
X78285190Y-58131666D01*
X78285190Y-58179285D01*
X78261380Y-58250714D01*
X78213761Y-58298333D01*
X78166142Y-58322142D01*
X78070904Y-58345952D01*
X77999476Y-58345952D01*
X77904238Y-58322142D01*
X77856619Y-58298333D01*
X77809000Y-58250714D01*
X77785190Y-58179285D01*
X77785190Y-58131666D01*
X77809000Y-58060238D01*
X77832809Y-58036428D01*
X77785190Y-57869761D02*
X77785190Y-57560238D01*
X77975666Y-57726904D01*
X77975666Y-57655476D01*
X77999476Y-57607857D01*
X78023285Y-57584047D01*
X78070904Y-57560238D01*
X78189952Y-57560238D01*
X78237571Y-57584047D01*
X78261380Y-57607857D01*
X78285190Y-57655476D01*
X78285190Y-57798333D01*
X78261380Y-57845952D01*
X78237571Y-57869761D01*
X77951857Y-57131666D02*
X78285190Y-57131666D01*
X77761380Y-57250714D02*
X78118523Y-57369761D01*
X78118523Y-57060238D01*
D10*
X86410000Y-58321428D02*
X86210000Y-58035714D01*
X86067142Y-58321428D02*
X86067142Y-57721428D01*
X86295714Y-57721428D01*
X86352857Y-57750000D01*
X86381428Y-57778571D01*
X86410000Y-57835714D01*
X86410000Y-57921428D01*
X86381428Y-57978571D01*
X86352857Y-58007142D01*
X86295714Y-58035714D01*
X86067142Y-58035714D01*
X86610000Y-57721428D02*
X87010000Y-57721428D01*
X86752857Y-58321428D01*
D12*
X95570087Y-76310172D02*
X95570087Y-75509581D01*
X95760704Y-75509581D01*
X95875074Y-75547704D01*
X95951321Y-75623951D01*
X95989444Y-75700198D01*
X96027568Y-75852691D01*
X96027568Y-75967061D01*
X95989444Y-76119555D01*
X95951321Y-76195801D01*
X95875074Y-76272048D01*
X95760704Y-76310172D01*
X95570087Y-76310172D01*
X96408801Y-76310172D02*
X96561295Y-76310172D01*
X96637542Y-76272048D01*
X96675665Y-76233925D01*
X96751912Y-76119555D01*
X96790035Y-75967061D01*
X96790035Y-75662074D01*
X96751912Y-75585827D01*
X96713789Y-75547704D01*
X96637542Y-75509581D01*
X96485048Y-75509581D01*
X96408801Y-75547704D01*
X96370678Y-75585827D01*
X96332555Y-75662074D01*
X96332555Y-75852691D01*
X96370678Y-75928938D01*
X96408801Y-75967061D01*
X96485048Y-76005185D01*
X96637542Y-76005185D01*
X96713789Y-75967061D01*
X96751912Y-75928938D01*
X96790035Y-75852691D01*
D10*
X91314285Y-65941428D02*
X91114285Y-65655714D01*
X90971428Y-65941428D02*
X90971428Y-65341428D01*
X91200000Y-65341428D01*
X91257142Y-65370000D01*
X91285714Y-65398571D01*
X91314285Y-65455714D01*
X91314285Y-65541428D01*
X91285714Y-65598571D01*
X91257142Y-65627142D01*
X91200000Y-65655714D01*
X90971428Y-65655714D01*
X91542857Y-65398571D02*
X91571428Y-65370000D01*
X91628571Y-65341428D01*
X91771428Y-65341428D01*
X91828571Y-65370000D01*
X91857142Y-65398571D01*
X91885714Y-65455714D01*
X91885714Y-65512857D01*
X91857142Y-65598571D01*
X91514285Y-65941428D01*
X91885714Y-65941428D01*
X92400000Y-65541428D02*
X92400000Y-65941428D01*
X92257142Y-65312857D02*
X92114285Y-65741428D01*
X92485714Y-65741428D01*
X86221428Y-62405714D02*
X85935714Y-62605714D01*
X86221428Y-62748571D02*
X85621428Y-62748571D01*
X85621428Y-62520000D01*
X85650000Y-62462857D01*
X85678571Y-62434285D01*
X85735714Y-62405714D01*
X85821428Y-62405714D01*
X85878571Y-62434285D01*
X85907142Y-62462857D01*
X85935714Y-62520000D01*
X85935714Y-62748571D01*
X85621428Y-62205714D02*
X85621428Y-61834285D01*
X85850000Y-62034285D01*
X85850000Y-61948571D01*
X85878571Y-61891428D01*
X85907142Y-61862857D01*
X85964285Y-61834285D01*
X86107142Y-61834285D01*
X86164285Y-61862857D01*
X86192857Y-61891428D01*
X86221428Y-61948571D01*
X86221428Y-62120000D01*
X86192857Y-62177142D01*
X86164285Y-62205714D01*
X85821428Y-61320000D02*
X86221428Y-61320000D01*
X85592857Y-61462857D02*
X86021428Y-61605714D01*
X86021428Y-61234285D01*
X70594285Y-42901428D02*
X70394285Y-42615714D01*
X70251428Y-42901428D02*
X70251428Y-42301428D01*
X70480000Y-42301428D01*
X70537142Y-42330000D01*
X70565714Y-42358571D01*
X70594285Y-42415714D01*
X70594285Y-42501428D01*
X70565714Y-42558571D01*
X70537142Y-42587142D01*
X70480000Y-42615714D01*
X70251428Y-42615714D01*
X70822857Y-42358571D02*
X70851428Y-42330000D01*
X70908571Y-42301428D01*
X71051428Y-42301428D01*
X71108571Y-42330000D01*
X71137142Y-42358571D01*
X71165714Y-42415714D01*
X71165714Y-42472857D01*
X71137142Y-42558571D01*
X70794285Y-42901428D01*
X71165714Y-42901428D01*
X71537142Y-42301428D02*
X71594285Y-42301428D01*
X71651428Y-42330000D01*
X71680000Y-42358571D01*
X71708571Y-42415714D01*
X71737142Y-42530000D01*
X71737142Y-42672857D01*
X71708571Y-42787142D01*
X71680000Y-42844285D01*
X71651428Y-42872857D01*
X71594285Y-42901428D01*
X71537142Y-42901428D01*
X71480000Y-42872857D01*
X71451428Y-42844285D01*
X71422857Y-42787142D01*
X71394285Y-42672857D01*
X71394285Y-42530000D01*
X71422857Y-42415714D01*
X71451428Y-42358571D01*
X71480000Y-42330000D01*
X71537142Y-42301428D01*
D12*
X60507428Y-70006428D02*
X60507428Y-69406428D01*
X60650285Y-69406428D01*
X60736000Y-69435000D01*
X60793142Y-69492142D01*
X60821714Y-69549285D01*
X60850285Y-69663571D01*
X60850285Y-69749285D01*
X60821714Y-69863571D01*
X60793142Y-69920714D01*
X60736000Y-69977857D01*
X60650285Y-70006428D01*
X60507428Y-70006428D01*
X61421714Y-70006428D02*
X61078857Y-70006428D01*
X61250285Y-70006428D02*
X61250285Y-69406428D01*
X61193142Y-69492142D01*
X61136000Y-69549285D01*
X61078857Y-69577857D01*
X61793142Y-69406428D02*
X61850285Y-69406428D01*
X61907428Y-69435000D01*
X61936000Y-69463571D01*
X61964571Y-69520714D01*
X61993142Y-69635000D01*
X61993142Y-69777857D01*
X61964571Y-69892142D01*
X61936000Y-69949285D01*
X61907428Y-69977857D01*
X61850285Y-70006428D01*
X61793142Y-70006428D01*
X61736000Y-69977857D01*
X61707428Y-69949285D01*
X61678857Y-69892142D01*
X61650285Y-69777857D01*
X61650285Y-69635000D01*
X61678857Y-69520714D01*
X61707428Y-69463571D01*
X61736000Y-69435000D01*
X61793142Y-69406428D01*
D10*
X91404285Y-69781428D02*
X91204285Y-69495714D01*
X91061428Y-69781428D02*
X91061428Y-69181428D01*
X91290000Y-69181428D01*
X91347142Y-69210000D01*
X91375714Y-69238571D01*
X91404285Y-69295714D01*
X91404285Y-69381428D01*
X91375714Y-69438571D01*
X91347142Y-69467142D01*
X91290000Y-69495714D01*
X91061428Y-69495714D01*
X91975714Y-69781428D02*
X91632857Y-69781428D01*
X91804285Y-69781428D02*
X91804285Y-69181428D01*
X91747142Y-69267142D01*
X91690000Y-69324285D01*
X91632857Y-69352857D01*
X92490000Y-69381428D02*
X92490000Y-69781428D01*
X92347142Y-69152857D02*
X92204285Y-69581428D01*
X92575714Y-69581428D01*
X69171428Y-39815714D02*
X68885714Y-40015714D01*
X69171428Y-40158571D02*
X68571428Y-40158571D01*
X68571428Y-39930000D01*
X68600000Y-39872857D01*
X68628571Y-39844285D01*
X68685714Y-39815714D01*
X68771428Y-39815714D01*
X68828571Y-39844285D01*
X68857142Y-39872857D01*
X68885714Y-39930000D01*
X68885714Y-40158571D01*
X68628571Y-39587142D02*
X68600000Y-39558571D01*
X68571428Y-39501428D01*
X68571428Y-39358571D01*
X68600000Y-39301428D01*
X68628571Y-39272857D01*
X68685714Y-39244285D01*
X68742857Y-39244285D01*
X68828571Y-39272857D01*
X69171428Y-39615714D01*
X69171428Y-39244285D01*
X68628571Y-39015714D02*
X68600000Y-38987142D01*
X68571428Y-38930000D01*
X68571428Y-38787142D01*
X68600000Y-38730000D01*
X68628571Y-38701428D01*
X68685714Y-38672857D01*
X68742857Y-38672857D01*
X68828571Y-38701428D01*
X69171428Y-39044285D01*
X69171428Y-38672857D01*
X98874285Y-73801428D02*
X98674285Y-73515714D01*
X98531428Y-73801428D02*
X98531428Y-73201428D01*
X98760000Y-73201428D01*
X98817142Y-73230000D01*
X98845714Y-73258571D01*
X98874285Y-73315714D01*
X98874285Y-73401428D01*
X98845714Y-73458571D01*
X98817142Y-73487142D01*
X98760000Y-73515714D01*
X98531428Y-73515714D01*
X99102857Y-73258571D02*
X99131428Y-73230000D01*
X99188571Y-73201428D01*
X99331428Y-73201428D01*
X99388571Y-73230000D01*
X99417142Y-73258571D01*
X99445714Y-73315714D01*
X99445714Y-73372857D01*
X99417142Y-73458571D01*
X99074285Y-73801428D01*
X99445714Y-73801428D01*
X100017142Y-73801428D02*
X99674285Y-73801428D01*
X99845714Y-73801428D02*
X99845714Y-73201428D01*
X99788571Y-73287142D01*
X99731428Y-73344285D01*
X99674285Y-73372857D01*
X68984285Y-76005714D02*
X69012857Y-76034285D01*
X69041428Y-76120000D01*
X69041428Y-76177142D01*
X69012857Y-76262857D01*
X68955714Y-76320000D01*
X68898571Y-76348571D01*
X68784285Y-76377142D01*
X68698571Y-76377142D01*
X68584285Y-76348571D01*
X68527142Y-76320000D01*
X68470000Y-76262857D01*
X68441428Y-76177142D01*
X68441428Y-76120000D01*
X68470000Y-76034285D01*
X68498571Y-76005714D01*
X69041428Y-75434285D02*
X69041428Y-75777142D01*
X69041428Y-75605714D02*
X68441428Y-75605714D01*
X68527142Y-75662857D01*
X68584285Y-75720000D01*
X68612857Y-75777142D01*
X68441428Y-75234285D02*
X68441428Y-74834285D01*
X69041428Y-75091428D01*
X86784285Y-69145714D02*
X86812857Y-69174285D01*
X86841428Y-69260000D01*
X86841428Y-69317142D01*
X86812857Y-69402857D01*
X86755714Y-69460000D01*
X86698571Y-69488571D01*
X86584285Y-69517142D01*
X86498571Y-69517142D01*
X86384285Y-69488571D01*
X86327142Y-69460000D01*
X86270000Y-69402857D01*
X86241428Y-69317142D01*
X86241428Y-69260000D01*
X86270000Y-69174285D01*
X86298571Y-69145714D01*
X86298571Y-68917142D02*
X86270000Y-68888571D01*
X86241428Y-68831428D01*
X86241428Y-68688571D01*
X86270000Y-68631428D01*
X86298571Y-68602857D01*
X86355714Y-68574285D01*
X86412857Y-68574285D01*
X86498571Y-68602857D01*
X86841428Y-68945714D01*
X86841428Y-68574285D01*
X86298571Y-68345714D02*
X86270000Y-68317142D01*
X86241428Y-68260000D01*
X86241428Y-68117142D01*
X86270000Y-68060000D01*
X86298571Y-68031428D01*
X86355714Y-68002857D01*
X86412857Y-68002857D01*
X86498571Y-68031428D01*
X86841428Y-68374285D01*
X86841428Y-68002857D01*
D12*
X65087380Y-52017904D02*
X65896904Y-52017904D01*
X65992142Y-51970285D01*
X66039761Y-51922666D01*
X66087380Y-51827428D01*
X66087380Y-51636952D01*
X66039761Y-51541714D01*
X65992142Y-51494095D01*
X65896904Y-51446476D01*
X65087380Y-51446476D01*
X65182619Y-51017904D02*
X65135000Y-50970285D01*
X65087380Y-50875047D01*
X65087380Y-50636952D01*
X65135000Y-50541714D01*
X65182619Y-50494095D01*
X65277857Y-50446476D01*
X65373095Y-50446476D01*
X65515952Y-50494095D01*
X66087380Y-51065523D01*
X66087380Y-50446476D01*
X63055904Y-54183380D02*
X63055904Y-53183380D01*
X63294000Y-53183380D01*
X63436857Y-53231000D01*
X63532095Y-53326238D01*
X63579714Y-53421476D01*
X63627333Y-53611952D01*
X63627333Y-53754809D01*
X63579714Y-53945285D01*
X63532095Y-54040523D01*
X63436857Y-54135761D01*
X63294000Y-54183380D01*
X63055904Y-54183380D01*
X64198761Y-53611952D02*
X64103523Y-53564333D01*
X64055904Y-53516714D01*
X64008285Y-53421476D01*
X64008285Y-53373857D01*
X64055904Y-53278619D01*
X64103523Y-53231000D01*
X64198761Y-53183380D01*
X64389238Y-53183380D01*
X64484476Y-53231000D01*
X64532095Y-53278619D01*
X64579714Y-53373857D01*
X64579714Y-53421476D01*
X64532095Y-53516714D01*
X64484476Y-53564333D01*
X64389238Y-53611952D01*
X64198761Y-53611952D01*
X64103523Y-53659571D01*
X64055904Y-53707190D01*
X64008285Y-53802428D01*
X64008285Y-53992904D01*
X64055904Y-54088142D01*
X64103523Y-54135761D01*
X64198761Y-54183380D01*
X64389238Y-54183380D01*
X64484476Y-54135761D01*
X64532095Y-54088142D01*
X64579714Y-53992904D01*
X64579714Y-53802428D01*
X64532095Y-53707190D01*
X64484476Y-53659571D01*
X64389238Y-53611952D01*
X75082142Y-60677142D02*
X75034523Y-60724761D01*
X74891666Y-60772380D01*
X74796428Y-60772380D01*
X74653571Y-60724761D01*
X74558333Y-60629523D01*
X74510714Y-60534285D01*
X74463095Y-60343809D01*
X74463095Y-60200952D01*
X74510714Y-60010476D01*
X74558333Y-59915238D01*
X74653571Y-59820000D01*
X74796428Y-59772380D01*
X74891666Y-59772380D01*
X75034523Y-59820000D01*
X75082142Y-59867619D01*
X75415476Y-59772380D02*
X76034523Y-59772380D01*
X75701190Y-60153333D01*
X75844047Y-60153333D01*
X75939285Y-60200952D01*
X75986904Y-60248571D01*
X76034523Y-60343809D01*
X76034523Y-60581904D01*
X75986904Y-60677142D01*
X75939285Y-60724761D01*
X75844047Y-60772380D01*
X75558333Y-60772380D01*
X75463095Y-60724761D01*
X75415476Y-60677142D01*
X76367857Y-59772380D02*
X77034523Y-59772380D01*
X76605952Y-60772380D01*
X95668464Y-62121084D02*
X95668464Y-62962090D01*
X95717935Y-63061032D01*
X95767406Y-63110503D01*
X95866348Y-63159974D01*
X96064232Y-63159974D01*
X96163174Y-63110503D01*
X96212645Y-63061032D01*
X96262116Y-62962090D01*
X96262116Y-62121084D01*
X97202064Y-62121084D02*
X97004180Y-62121084D01*
X96905238Y-62170555D01*
X96855767Y-62220025D01*
X96756825Y-62368438D01*
X96707354Y-62566322D01*
X96707354Y-62962090D01*
X96756825Y-63061032D01*
X96806296Y-63110503D01*
X96905238Y-63159974D01*
X97103122Y-63159974D01*
X97202064Y-63110503D01*
X97251535Y-63061032D01*
X97301006Y-62962090D01*
X97301006Y-62714735D01*
X97251535Y-62615793D01*
X97202064Y-62566322D01*
X97103122Y-62516851D01*
X96905238Y-62516851D01*
X96806296Y-62566322D01*
X96756825Y-62615793D01*
X96707354Y-62714735D01*
D10*
X86894285Y-67465714D02*
X86922857Y-67494285D01*
X86951428Y-67580000D01*
X86951428Y-67637142D01*
X86922857Y-67722857D01*
X86865714Y-67780000D01*
X86808571Y-67808571D01*
X86694285Y-67837142D01*
X86608571Y-67837142D01*
X86494285Y-67808571D01*
X86437142Y-67780000D01*
X86380000Y-67722857D01*
X86351428Y-67637142D01*
X86351428Y-67580000D01*
X86380000Y-67494285D01*
X86408571Y-67465714D01*
X86408571Y-67237142D02*
X86380000Y-67208571D01*
X86351428Y-67151428D01*
X86351428Y-67008571D01*
X86380000Y-66951428D01*
X86408571Y-66922857D01*
X86465714Y-66894285D01*
X86522857Y-66894285D01*
X86608571Y-66922857D01*
X86951428Y-67265714D01*
X86951428Y-66894285D01*
X86351428Y-66694285D02*
X86351428Y-66322857D01*
X86580000Y-66522857D01*
X86580000Y-66437142D01*
X86608571Y-66380000D01*
X86637142Y-66351428D01*
X86694285Y-66322857D01*
X86837142Y-66322857D01*
X86894285Y-66351428D01*
X86922857Y-66380000D01*
X86951428Y-66437142D01*
X86951428Y-66608571D01*
X86922857Y-66665714D01*
X86894285Y-66694285D01*
X64164285Y-57335714D02*
X64192857Y-57364285D01*
X64221428Y-57450000D01*
X64221428Y-57507142D01*
X64192857Y-57592857D01*
X64135714Y-57650000D01*
X64078571Y-57678571D01*
X63964285Y-57707142D01*
X63878571Y-57707142D01*
X63764285Y-57678571D01*
X63707142Y-57650000D01*
X63650000Y-57592857D01*
X63621428Y-57507142D01*
X63621428Y-57450000D01*
X63650000Y-57364285D01*
X63678571Y-57335714D01*
X64221428Y-56764285D02*
X64221428Y-57107142D01*
X64221428Y-56935714D02*
X63621428Y-56935714D01*
X63707142Y-56992857D01*
X63764285Y-57050000D01*
X63792857Y-57107142D01*
X63821428Y-56250000D02*
X64221428Y-56250000D01*
X63592857Y-56392857D02*
X64021428Y-56535714D01*
X64021428Y-56164285D01*
D12*
X79647380Y-62786904D02*
X80456904Y-62786904D01*
X80552142Y-62739285D01*
X80599761Y-62691666D01*
X80647380Y-62596428D01*
X80647380Y-62405952D01*
X80599761Y-62310714D01*
X80552142Y-62263095D01*
X80456904Y-62215476D01*
X79647380Y-62215476D01*
X79980714Y-61310714D02*
X80647380Y-61310714D01*
X79599761Y-61548809D02*
X80314047Y-61786904D01*
X80314047Y-61167857D01*
D11*
X79536571Y-54422571D02*
X79512761Y-54446380D01*
X79441333Y-54470190D01*
X79393714Y-54470190D01*
X79322285Y-54446380D01*
X79274666Y-54398761D01*
X79250857Y-54351142D01*
X79227047Y-54255904D01*
X79227047Y-54184476D01*
X79250857Y-54089238D01*
X79274666Y-54041619D01*
X79322285Y-53994000D01*
X79393714Y-53970190D01*
X79441333Y-53970190D01*
X79512761Y-53994000D01*
X79536571Y-54017809D01*
X79703238Y-53970190D02*
X80012761Y-53970190D01*
X79846095Y-54160666D01*
X79917523Y-54160666D01*
X79965142Y-54184476D01*
X79988952Y-54208285D01*
X80012761Y-54255904D01*
X80012761Y-54374952D01*
X79988952Y-54422571D01*
X79965142Y-54446380D01*
X79917523Y-54470190D01*
X79774666Y-54470190D01*
X79727047Y-54446380D01*
X79703238Y-54422571D01*
X80179428Y-53970190D02*
X80488952Y-53970190D01*
X80322285Y-54160666D01*
X80393714Y-54160666D01*
X80441333Y-54184476D01*
X80465142Y-54208285D01*
X80488952Y-54255904D01*
X80488952Y-54374952D01*
X80465142Y-54422571D01*
X80441333Y-54446380D01*
X80393714Y-54470190D01*
X80250857Y-54470190D01*
X80203238Y-54446380D01*
X80179428Y-54422571D01*
D10*
X100150000Y-62201428D02*
X99950000Y-61915714D01*
X99807142Y-62201428D02*
X99807142Y-61601428D01*
X100035714Y-61601428D01*
X100092857Y-61630000D01*
X100121428Y-61658571D01*
X100150000Y-61715714D01*
X100150000Y-61801428D01*
X100121428Y-61858571D01*
X100092857Y-61887142D01*
X100035714Y-61915714D01*
X99807142Y-61915714D01*
X100435714Y-62201428D02*
X100550000Y-62201428D01*
X100607142Y-62172857D01*
X100635714Y-62144285D01*
X100692857Y-62058571D01*
X100721428Y-61944285D01*
X100721428Y-61715714D01*
X100692857Y-61658571D01*
X100664285Y-61630000D01*
X100607142Y-61601428D01*
X100492857Y-61601428D01*
X100435714Y-61630000D01*
X100407142Y-61658571D01*
X100378571Y-61715714D01*
X100378571Y-61858571D01*
X100407142Y-61915714D01*
X100435714Y-61944285D01*
X100492857Y-61972857D01*
X100607142Y-61972857D01*
X100664285Y-61944285D01*
X100692857Y-61915714D01*
X100721428Y-61858571D01*
X91448571Y-58887142D02*
X91420000Y-58944285D01*
X91362857Y-59001428D01*
X91277142Y-59087142D01*
X91248571Y-59144285D01*
X91248571Y-59201428D01*
X91391428Y-59172857D02*
X91362857Y-59230000D01*
X91305714Y-59287142D01*
X91191428Y-59315714D01*
X90991428Y-59315714D01*
X90877142Y-59287142D01*
X90820000Y-59230000D01*
X90791428Y-59172857D01*
X90791428Y-59058571D01*
X90820000Y-59001428D01*
X90877142Y-58944285D01*
X90991428Y-58915714D01*
X91191428Y-58915714D01*
X91305714Y-58944285D01*
X91362857Y-59001428D01*
X91391428Y-59058571D01*
X91391428Y-59172857D01*
X91391428Y-58344285D02*
X91391428Y-58687142D01*
X91391428Y-58515714D02*
X90791428Y-58515714D01*
X90877142Y-58572857D01*
X90934285Y-58630000D01*
X90962857Y-58687142D01*
D12*
X87532857Y-63901428D02*
X87532857Y-64387142D01*
X87561428Y-64444285D01*
X87590000Y-64472857D01*
X87647142Y-64501428D01*
X87761428Y-64501428D01*
X87818571Y-64472857D01*
X87847142Y-64444285D01*
X87875714Y-64387142D01*
X87875714Y-63901428D01*
X88104285Y-63901428D02*
X88504285Y-63901428D01*
X88247142Y-64501428D01*
D10*
X95854285Y-69411428D02*
X95654285Y-69125714D01*
X95511428Y-69411428D02*
X95511428Y-68811428D01*
X95740000Y-68811428D01*
X95797142Y-68840000D01*
X95825714Y-68868571D01*
X95854285Y-68925714D01*
X95854285Y-69011428D01*
X95825714Y-69068571D01*
X95797142Y-69097142D01*
X95740000Y-69125714D01*
X95511428Y-69125714D01*
X96425714Y-69411428D02*
X96082857Y-69411428D01*
X96254285Y-69411428D02*
X96254285Y-68811428D01*
X96197142Y-68897142D01*
X96140000Y-68954285D01*
X96082857Y-68982857D01*
X96654285Y-68868571D02*
X96682857Y-68840000D01*
X96740000Y-68811428D01*
X96882857Y-68811428D01*
X96940000Y-68840000D01*
X96968571Y-68868571D01*
X96997142Y-68925714D01*
X96997142Y-68982857D01*
X96968571Y-69068571D01*
X96625714Y-69411428D01*
X96997142Y-69411428D01*
X83444285Y-54345714D02*
X83472857Y-54374285D01*
X83501428Y-54460000D01*
X83501428Y-54517142D01*
X83472857Y-54602857D01*
X83415714Y-54660000D01*
X83358571Y-54688571D01*
X83244285Y-54717142D01*
X83158571Y-54717142D01*
X83044285Y-54688571D01*
X82987142Y-54660000D01*
X82930000Y-54602857D01*
X82901428Y-54517142D01*
X82901428Y-54460000D01*
X82930000Y-54374285D01*
X82958571Y-54345714D01*
X82901428Y-54145714D02*
X82901428Y-53774285D01*
X83130000Y-53974285D01*
X83130000Y-53888571D01*
X83158571Y-53831428D01*
X83187142Y-53802857D01*
X83244285Y-53774285D01*
X83387142Y-53774285D01*
X83444285Y-53802857D01*
X83472857Y-53831428D01*
X83501428Y-53888571D01*
X83501428Y-54060000D01*
X83472857Y-54117142D01*
X83444285Y-54145714D01*
X82901428Y-53402857D02*
X82901428Y-53345714D01*
X82930000Y-53288571D01*
X82958571Y-53260000D01*
X83015714Y-53231428D01*
X83130000Y-53202857D01*
X83272857Y-53202857D01*
X83387142Y-53231428D01*
X83444285Y-53260000D01*
X83472857Y-53288571D01*
X83501428Y-53345714D01*
X83501428Y-53402857D01*
X83472857Y-53460000D01*
X83444285Y-53488571D01*
X83387142Y-53517142D01*
X83272857Y-53545714D01*
X83130000Y-53545714D01*
X83015714Y-53517142D01*
X82958571Y-53488571D01*
X82930000Y-53460000D01*
X82901428Y-53402857D01*
D14*
X90683275Y-49424135D02*
X90683275Y-49812717D01*
X90706133Y-49858433D01*
X90728991Y-49881290D01*
X90774706Y-49904148D01*
X90866137Y-49904148D01*
X90911853Y-49881290D01*
X90934711Y-49858433D01*
X90957568Y-49812717D01*
X90957568Y-49424135D01*
X91140431Y-49424135D02*
X91437581Y-49424135D01*
X91277577Y-49606997D01*
X91346150Y-49606997D01*
X91391866Y-49629855D01*
X91414724Y-49652713D01*
X91437581Y-49698428D01*
X91437581Y-49812717D01*
X91414724Y-49858433D01*
X91391866Y-49881290D01*
X91346150Y-49904148D01*
X91209004Y-49904148D01*
X91163288Y-49881290D01*
X91140431Y-49858433D01*
D10*
X100200000Y-61254285D02*
X100171428Y-61282857D01*
X100085714Y-61311428D01*
X100028571Y-61311428D01*
X99942857Y-61282857D01*
X99885714Y-61225714D01*
X99857142Y-61168571D01*
X99828571Y-61054285D01*
X99828571Y-60968571D01*
X99857142Y-60854285D01*
X99885714Y-60797142D01*
X99942857Y-60740000D01*
X100028571Y-60711428D01*
X100085714Y-60711428D01*
X100171428Y-60740000D01*
X100200000Y-60768571D01*
X100400000Y-60711428D02*
X100771428Y-60711428D01*
X100571428Y-60940000D01*
X100657142Y-60940000D01*
X100714285Y-60968571D01*
X100742857Y-60997142D01*
X100771428Y-61054285D01*
X100771428Y-61197142D01*
X100742857Y-61254285D01*
X100714285Y-61282857D01*
X100657142Y-61311428D01*
X100485714Y-61311428D01*
X100428571Y-61282857D01*
X100400000Y-61254285D01*
X89491428Y-56785714D02*
X89205714Y-56985714D01*
X89491428Y-57128571D02*
X88891428Y-57128571D01*
X88891428Y-56900000D01*
X88920000Y-56842857D01*
X88948571Y-56814285D01*
X89005714Y-56785714D01*
X89091428Y-56785714D01*
X89148571Y-56814285D01*
X89177142Y-56842857D01*
X89205714Y-56900000D01*
X89205714Y-57128571D01*
X89491428Y-56214285D02*
X89491428Y-56557142D01*
X89491428Y-56385714D02*
X88891428Y-56385714D01*
X88977142Y-56442857D01*
X89034285Y-56500000D01*
X89062857Y-56557142D01*
X89491428Y-55642857D02*
X89491428Y-55985714D01*
X89491428Y-55814285D02*
X88891428Y-55814285D01*
X88977142Y-55871428D01*
X89034285Y-55928571D01*
X89062857Y-55985714D01*
D12*
X83982095Y-40540380D02*
X83982095Y-41349904D01*
X84029714Y-41445142D01*
X84077333Y-41492761D01*
X84172571Y-41540380D01*
X84363047Y-41540380D01*
X84458285Y-41492761D01*
X84505904Y-41445142D01*
X84553523Y-41349904D01*
X84553523Y-40540380D01*
X85553523Y-41540380D02*
X84982095Y-41540380D01*
X85267809Y-41540380D02*
X85267809Y-40540380D01*
X85172571Y-40683238D01*
X85077333Y-40778476D01*
X84982095Y-40826095D01*
X68691142Y-45516857D02*
X68738761Y-45564476D01*
X68786380Y-45707333D01*
X68786380Y-45802571D01*
X68738761Y-45945428D01*
X68643523Y-46040666D01*
X68548285Y-46088285D01*
X68357809Y-46135904D01*
X68214952Y-46135904D01*
X68024476Y-46088285D01*
X67929238Y-46040666D01*
X67834000Y-45945428D01*
X67786380Y-45802571D01*
X67786380Y-45707333D01*
X67834000Y-45564476D01*
X67881619Y-45516857D01*
X68786380Y-44564476D02*
X68786380Y-45135904D01*
X68786380Y-44850190D02*
X67786380Y-44850190D01*
X67929238Y-44945428D01*
X68024476Y-45040666D01*
X68072095Y-45135904D01*
X67786380Y-43659714D02*
X67786380Y-44135904D01*
X68262571Y-44183523D01*
X68214952Y-44135904D01*
X68167333Y-44040666D01*
X68167333Y-43802571D01*
X68214952Y-43707333D01*
X68262571Y-43659714D01*
X68357809Y-43612095D01*
X68595904Y-43612095D01*
X68691142Y-43659714D01*
X68738761Y-43707333D01*
X68786380Y-43802571D01*
X68786380Y-44040666D01*
X68738761Y-44135904D01*
X68691142Y-44183523D01*
D15*
X77707550Y-33044998D02*
X77707550Y-32857522D01*
X77820036Y-33082494D02*
X77426335Y-32951260D01*
X77820036Y-32820026D01*
X77820036Y-32688793D02*
X77426335Y-32688793D01*
X77820036Y-32463821D01*
X77426335Y-32463821D01*
X77426335Y-32332587D02*
X77426335Y-32107615D01*
X77820036Y-32220101D02*
X77426335Y-32220101D01*
X77820036Y-31770157D02*
X77820036Y-31995129D01*
X77820036Y-31882643D02*
X77426335Y-31882643D01*
X77482578Y-31920138D01*
X77520074Y-31957634D01*
X77538821Y-31995129D01*
D10*
X84784285Y-59680000D02*
X84812857Y-59708571D01*
X84841428Y-59794285D01*
X84841428Y-59851428D01*
X84812857Y-59937142D01*
X84755714Y-59994285D01*
X84698571Y-60022857D01*
X84584285Y-60051428D01*
X84498571Y-60051428D01*
X84384285Y-60022857D01*
X84327142Y-59994285D01*
X84270000Y-59937142D01*
X84241428Y-59851428D01*
X84241428Y-59794285D01*
X84270000Y-59708571D01*
X84298571Y-59680000D01*
X84298571Y-59451428D02*
X84270000Y-59422857D01*
X84241428Y-59365714D01*
X84241428Y-59222857D01*
X84270000Y-59165714D01*
X84298571Y-59137142D01*
X84355714Y-59108571D01*
X84412857Y-59108571D01*
X84498571Y-59137142D01*
X84841428Y-59480000D01*
X84841428Y-59108571D01*
X84861428Y-56520000D02*
X84575714Y-56720000D01*
X84861428Y-56862857D02*
X84261428Y-56862857D01*
X84261428Y-56634285D01*
X84290000Y-56577142D01*
X84318571Y-56548571D01*
X84375714Y-56520000D01*
X84461428Y-56520000D01*
X84518571Y-56548571D01*
X84547142Y-56577142D01*
X84575714Y-56634285D01*
X84575714Y-56862857D01*
X84518571Y-56177142D02*
X84490000Y-56234285D01*
X84461428Y-56262857D01*
X84404285Y-56291428D01*
X84375714Y-56291428D01*
X84318571Y-56262857D01*
X84290000Y-56234285D01*
X84261428Y-56177142D01*
X84261428Y-56062857D01*
X84290000Y-56005714D01*
X84318571Y-55977142D01*
X84375714Y-55948571D01*
X84404285Y-55948571D01*
X84461428Y-55977142D01*
X84490000Y-56005714D01*
X84518571Y-56062857D01*
X84518571Y-56177142D01*
X84547142Y-56234285D01*
X84575714Y-56262857D01*
X84632857Y-56291428D01*
X84747142Y-56291428D01*
X84804285Y-56262857D01*
X84832857Y-56234285D01*
X84861428Y-56177142D01*
X84861428Y-56062857D01*
X84832857Y-56005714D01*
X84804285Y-55977142D01*
X84747142Y-55948571D01*
X84632857Y-55948571D01*
X84575714Y-55977142D01*
X84547142Y-56005714D01*
X84518571Y-56062857D01*
X92541428Y-68155714D02*
X92255714Y-68355714D01*
X92541428Y-68498571D02*
X91941428Y-68498571D01*
X91941428Y-68270000D01*
X91970000Y-68212857D01*
X91998571Y-68184285D01*
X92055714Y-68155714D01*
X92141428Y-68155714D01*
X92198571Y-68184285D01*
X92227142Y-68212857D01*
X92255714Y-68270000D01*
X92255714Y-68498571D01*
X91998571Y-67927142D02*
X91970000Y-67898571D01*
X91941428Y-67841428D01*
X91941428Y-67698571D01*
X91970000Y-67641428D01*
X91998571Y-67612857D01*
X92055714Y-67584285D01*
X92112857Y-67584285D01*
X92198571Y-67612857D01*
X92541428Y-67955714D01*
X92541428Y-67584285D01*
X91941428Y-67041428D02*
X91941428Y-67327142D01*
X92227142Y-67355714D01*
X92198571Y-67327142D01*
X92170000Y-67270000D01*
X92170000Y-67127142D01*
X92198571Y-67070000D01*
X92227142Y-67041428D01*
X92284285Y-67012857D01*
X92427142Y-67012857D01*
X92484285Y-67041428D01*
X92512857Y-67070000D01*
X92541428Y-67127142D01*
X92541428Y-67270000D01*
X92512857Y-67327142D01*
X92484285Y-67355714D01*
D12*
X56802380Y-41396666D02*
X56802380Y-41872857D01*
X55802380Y-41872857D01*
X55897619Y-41110952D02*
X55850000Y-41063333D01*
X55802380Y-40968095D01*
X55802380Y-40730000D01*
X55850000Y-40634761D01*
X55897619Y-40587142D01*
X55992857Y-40539523D01*
X56088095Y-40539523D01*
X56230952Y-40587142D01*
X56802380Y-41158571D01*
X56802380Y-40539523D01*
X76751285Y-34595285D02*
X76722714Y-34623857D01*
X76637000Y-34652428D01*
X76579857Y-34652428D01*
X76494142Y-34623857D01*
X76437000Y-34566714D01*
X76408428Y-34509571D01*
X76379857Y-34395285D01*
X76379857Y-34309571D01*
X76408428Y-34195285D01*
X76437000Y-34138142D01*
X76494142Y-34081000D01*
X76579857Y-34052428D01*
X76637000Y-34052428D01*
X76722714Y-34081000D01*
X76751285Y-34109571D01*
X77322714Y-34652428D02*
X76979857Y-34652428D01*
X77151285Y-34652428D02*
X77151285Y-34052428D01*
X77094142Y-34138142D01*
X77037000Y-34195285D01*
X76979857Y-34223857D01*
X77551285Y-34109571D02*
X77579857Y-34081000D01*
X77637000Y-34052428D01*
X77779857Y-34052428D01*
X77837000Y-34081000D01*
X77865571Y-34109571D01*
X77894142Y-34166714D01*
X77894142Y-34223857D01*
X77865571Y-34309571D01*
X77522714Y-34652428D01*
X77894142Y-34652428D01*
D10*
X99084285Y-45745714D02*
X99112857Y-45774285D01*
X99141428Y-45860000D01*
X99141428Y-45917142D01*
X99112857Y-46002857D01*
X99055714Y-46060000D01*
X98998571Y-46088571D01*
X98884285Y-46117142D01*
X98798571Y-46117142D01*
X98684285Y-46088571D01*
X98627142Y-46060000D01*
X98570000Y-46002857D01*
X98541428Y-45917142D01*
X98541428Y-45860000D01*
X98570000Y-45774285D01*
X98598571Y-45745714D01*
X99141428Y-45174285D02*
X99141428Y-45517142D01*
X99141428Y-45345714D02*
X98541428Y-45345714D01*
X98627142Y-45402857D01*
X98684285Y-45460000D01*
X98712857Y-45517142D01*
X98798571Y-44831428D02*
X98770000Y-44888571D01*
X98741428Y-44917142D01*
X98684285Y-44945714D01*
X98655714Y-44945714D01*
X98598571Y-44917142D01*
X98570000Y-44888571D01*
X98541428Y-44831428D01*
X98541428Y-44717142D01*
X98570000Y-44660000D01*
X98598571Y-44631428D01*
X98655714Y-44602857D01*
X98684285Y-44602857D01*
X98741428Y-44631428D01*
X98770000Y-44660000D01*
X98798571Y-44717142D01*
X98798571Y-44831428D01*
X98827142Y-44888571D01*
X98855714Y-44917142D01*
X98912857Y-44945714D01*
X99027142Y-44945714D01*
X99084285Y-44917142D01*
X99112857Y-44888571D01*
X99141428Y-44831428D01*
X99141428Y-44717142D01*
X99112857Y-44660000D01*
X99084285Y-44631428D01*
X99027142Y-44602857D01*
X98912857Y-44602857D01*
X98855714Y-44631428D01*
X98827142Y-44660000D01*
X98798571Y-44717142D01*
D12*
X69135714Y-69802380D02*
X69135714Y-68802380D01*
X69373809Y-68802380D01*
X69516666Y-68850000D01*
X69611904Y-68945238D01*
X69659523Y-69040476D01*
X69707142Y-69230952D01*
X69707142Y-69373809D01*
X69659523Y-69564285D01*
X69611904Y-69659523D01*
X69516666Y-69754761D01*
X69373809Y-69802380D01*
X69135714Y-69802380D01*
X70659523Y-69802380D02*
X70088095Y-69802380D01*
X70373809Y-69802380D02*
X70373809Y-68802380D01*
X70278571Y-68945238D01*
X70183333Y-69040476D01*
X70088095Y-69088095D01*
X71040476Y-68897619D02*
X71088095Y-68850000D01*
X71183333Y-68802380D01*
X71421428Y-68802380D01*
X71516666Y-68850000D01*
X71564285Y-68897619D01*
X71611904Y-68992857D01*
X71611904Y-69088095D01*
X71564285Y-69230952D01*
X70992857Y-69802380D01*
X71611904Y-69802380D01*
X100549904Y-51630380D02*
X100549904Y-50630380D01*
X100788000Y-50630380D01*
X100930857Y-50678000D01*
X101026095Y-50773238D01*
X101073714Y-50868476D01*
X101121333Y-51058952D01*
X101121333Y-51201809D01*
X101073714Y-51392285D01*
X101026095Y-51487523D01*
X100930857Y-51582761D01*
X100788000Y-51630380D01*
X100549904Y-51630380D01*
X101978476Y-50963714D02*
X101978476Y-51630380D01*
X101740380Y-50582761D02*
X101502285Y-51297047D01*
X102121333Y-51297047D01*
X74797142Y-67182380D02*
X74463809Y-66706190D01*
X74225714Y-67182380D02*
X74225714Y-66182380D01*
X74606666Y-66182380D01*
X74701904Y-66230000D01*
X74749523Y-66277619D01*
X74797142Y-66372857D01*
X74797142Y-66515714D01*
X74749523Y-66610952D01*
X74701904Y-66658571D01*
X74606666Y-66706190D01*
X74225714Y-66706190D01*
X75178095Y-66277619D02*
X75225714Y-66230000D01*
X75320952Y-66182380D01*
X75559047Y-66182380D01*
X75654285Y-66230000D01*
X75701904Y-66277619D01*
X75749523Y-66372857D01*
X75749523Y-66468095D01*
X75701904Y-66610952D01*
X75130476Y-67182380D01*
X75749523Y-67182380D01*
X76225714Y-67182380D02*
X76416190Y-67182380D01*
X76511428Y-67134761D01*
X76559047Y-67087142D01*
X76654285Y-66944285D01*
X76701904Y-66753809D01*
X76701904Y-66372857D01*
X76654285Y-66277619D01*
X76606666Y-66230000D01*
X76511428Y-66182380D01*
X76320952Y-66182380D01*
X76225714Y-66230000D01*
X76178095Y-66277619D01*
X76130476Y-66372857D01*
X76130476Y-66610952D01*
X76178095Y-66706190D01*
X76225714Y-66753809D01*
X76320952Y-66801428D01*
X76511428Y-66801428D01*
X76606666Y-66753809D01*
X76654285Y-66706190D01*
X76701904Y-66610952D01*
D10*
X70754285Y-41394516D02*
X70554285Y-41108802D01*
X70411428Y-41394516D02*
X70411428Y-40794516D01*
X70640000Y-40794516D01*
X70697142Y-40823088D01*
X70725714Y-40851659D01*
X70754285Y-40908802D01*
X70754285Y-40994516D01*
X70725714Y-41051659D01*
X70697142Y-41080230D01*
X70640000Y-41108802D01*
X70411428Y-41108802D01*
X70982857Y-40851659D02*
X71011428Y-40823088D01*
X71068571Y-40794516D01*
X71211428Y-40794516D01*
X71268571Y-40823088D01*
X71297142Y-40851659D01*
X71325714Y-40908802D01*
X71325714Y-40965945D01*
X71297142Y-41051659D01*
X70954285Y-41394516D01*
X71325714Y-41394516D01*
X71525714Y-40794516D02*
X71897142Y-40794516D01*
X71697142Y-41023088D01*
X71782857Y-41023088D01*
X71840000Y-41051659D01*
X71868571Y-41080230D01*
X71897142Y-41137373D01*
X71897142Y-41280230D01*
X71868571Y-41337373D01*
X71840000Y-41365945D01*
X71782857Y-41394516D01*
X71611428Y-41394516D01*
X71554285Y-41365945D01*
X71525714Y-41337373D01*
X98344285Y-45390000D02*
X98372857Y-45418571D01*
X98401428Y-45504285D01*
X98401428Y-45561428D01*
X98372857Y-45647142D01*
X98315714Y-45704285D01*
X98258571Y-45732857D01*
X98144285Y-45761428D01*
X98058571Y-45761428D01*
X97944285Y-45732857D01*
X97887142Y-45704285D01*
X97830000Y-45647142D01*
X97801428Y-45561428D01*
X97801428Y-45504285D01*
X97830000Y-45418571D01*
X97858571Y-45390000D01*
X98401428Y-45104285D02*
X98401428Y-44990000D01*
X98372857Y-44932857D01*
X98344285Y-44904285D01*
X98258571Y-44847142D01*
X98144285Y-44818571D01*
X97915714Y-44818571D01*
X97858571Y-44847142D01*
X97830000Y-44875714D01*
X97801428Y-44932857D01*
X97801428Y-45047142D01*
X97830000Y-45104285D01*
X97858571Y-45132857D01*
X97915714Y-45161428D01*
X98058571Y-45161428D01*
X98115714Y-45132857D01*
X98144285Y-45104285D01*
X98172857Y-45047142D01*
X98172857Y-44932857D01*
X98144285Y-44875714D01*
X98115714Y-44847142D01*
X98058571Y-44818571D01*
D12*
X101366333Y-41163000D02*
X101333000Y-41196333D01*
X101233000Y-41229666D01*
X101166333Y-41229666D01*
X101066333Y-41196333D01*
X100999666Y-41129666D01*
X100966333Y-41063000D01*
X100933000Y-40929666D01*
X100933000Y-40829666D01*
X100966333Y-40696333D01*
X100999666Y-40629666D01*
X101066333Y-40563000D01*
X101166333Y-40529666D01*
X101233000Y-40529666D01*
X101333000Y-40563000D01*
X101366333Y-40596333D01*
X101766333Y-40829666D02*
X101699666Y-40796333D01*
X101666333Y-40763000D01*
X101633000Y-40696333D01*
X101633000Y-40663000D01*
X101666333Y-40596333D01*
X101699666Y-40563000D01*
X101766333Y-40529666D01*
X101899666Y-40529666D01*
X101966333Y-40563000D01*
X101999666Y-40596333D01*
X102033000Y-40663000D01*
X102033000Y-40696333D01*
X101999666Y-40763000D01*
X101966333Y-40796333D01*
X101899666Y-40829666D01*
X101766333Y-40829666D01*
X101699666Y-40863000D01*
X101666333Y-40896333D01*
X101633000Y-40963000D01*
X101633000Y-41096333D01*
X101666333Y-41163000D01*
X101699666Y-41196333D01*
X101766333Y-41229666D01*
X101899666Y-41229666D01*
X101966333Y-41196333D01*
X101999666Y-41163000D01*
X102033000Y-41096333D01*
X102033000Y-40963000D01*
X101999666Y-40896333D01*
X101966333Y-40863000D01*
X101899666Y-40829666D01*
D10*
X103344285Y-64565714D02*
X103372857Y-64594285D01*
X103401428Y-64680000D01*
X103401428Y-64737142D01*
X103372857Y-64822857D01*
X103315714Y-64880000D01*
X103258571Y-64908571D01*
X103144285Y-64937142D01*
X103058571Y-64937142D01*
X102944285Y-64908571D01*
X102887142Y-64880000D01*
X102830000Y-64822857D01*
X102801428Y-64737142D01*
X102801428Y-64680000D01*
X102830000Y-64594285D01*
X102858571Y-64565714D01*
X102858571Y-64337142D02*
X102830000Y-64308571D01*
X102801428Y-64251428D01*
X102801428Y-64108571D01*
X102830000Y-64051428D01*
X102858571Y-64022857D01*
X102915714Y-63994285D01*
X102972857Y-63994285D01*
X103058571Y-64022857D01*
X103401428Y-64365714D01*
X103401428Y-63994285D01*
X102801428Y-63622857D02*
X102801428Y-63565714D01*
X102830000Y-63508571D01*
X102858571Y-63480000D01*
X102915714Y-63451428D01*
X103030000Y-63422857D01*
X103172857Y-63422857D01*
X103287142Y-63451428D01*
X103344285Y-63480000D01*
X103372857Y-63508571D01*
X103401428Y-63565714D01*
X103401428Y-63622857D01*
X103372857Y-63680000D01*
X103344285Y-63708571D01*
X103287142Y-63737142D01*
X103172857Y-63765714D01*
X103030000Y-63765714D01*
X102915714Y-63737142D01*
X102858571Y-63708571D01*
X102830000Y-63680000D01*
X102801428Y-63622857D01*
D13*
X73340000Y-43700000D02*
X76000000Y-43700000D01*
X73340000Y-41100000D02*
X76000000Y-41100000D01*
X73340000Y-39830000D02*
X73340000Y-38500000D01*
X73340000Y-41100000D02*
X73340000Y-43700000D01*
X76000000Y-41100000D02*
X76000000Y-43700000D01*
X73340000Y-38500000D02*
X74670000Y-38500000D01*
X74180000Y-51060000D02*
G75*
G03*
X74180000Y-51060000I-1200000J0D01*
G01*
X101712258Y-70022500D02*
X101237742Y-70022500D01*
X101712258Y-68977500D02*
X101237742Y-68977500D01*
X68212742Y-77672500D02*
X68687258Y-77672500D01*
X68212742Y-76627500D02*
X68687258Y-76627500D01*
X69820000Y-62910000D02*
G75*
G03*
X69820000Y-62910000I-700000J0D01*
G01*
D16*
X62040000Y-72935000D02*
X62040000Y-77185000D01*
X64680000Y-72935000D02*
X64680000Y-77185000D01*
D17*
X63637000Y-71750000D02*
G75*
G03*
X63637000Y-71750000I-127000J0D01*
G01*
D13*
X78265000Y-38171267D02*
X78265000Y-37828733D01*
X79285000Y-38171267D02*
X79285000Y-37828733D01*
X67263748Y-71877500D02*
X68686252Y-71877500D01*
X67263748Y-74597500D02*
X68686252Y-74597500D01*
X95912742Y-43112500D02*
X96387258Y-43112500D01*
X95912742Y-42067500D02*
X96387258Y-42067500D01*
X82390580Y-41290000D02*
X82109420Y-41290000D01*
X82390580Y-42310000D02*
X82109420Y-42310000D01*
X84517500Y-64722742D02*
X84517500Y-65197258D01*
X85562500Y-64722742D02*
X85562500Y-65197258D01*
X83027500Y-64637258D02*
X83027500Y-64162742D01*
X84072500Y-64637258D02*
X84072500Y-64162742D01*
X75584420Y-66690000D02*
X75865580Y-66690000D01*
X75584420Y-67710000D02*
X75865580Y-67710000D01*
D17*
X63220000Y-71025000D02*
X63220000Y-69500000D01*
D13*
X62080000Y-60040000D02*
X62080000Y-62750000D01*
X59220000Y-65460000D02*
X62080000Y-65460000D01*
X59520000Y-71130000D02*
X59520000Y-69000000D01*
X57370000Y-71130000D02*
X59520000Y-71130000D01*
X55520000Y-62750000D02*
X55520000Y-54670000D01*
X59220000Y-70830000D02*
X59220000Y-65460000D01*
X59220000Y-60040000D02*
X62080000Y-60040000D01*
X55520000Y-62750000D02*
X55520000Y-70830000D01*
X62080000Y-65460000D02*
X62080000Y-62750000D01*
X55520000Y-70830000D02*
X59220000Y-70830000D01*
X55520000Y-54670000D02*
X59220000Y-54670000D01*
X59220000Y-54670000D02*
X59220000Y-60040000D01*
X66400000Y-61425000D02*
G75*
G03*
X66400000Y-61425000I-700000J0D01*
G01*
X75202742Y-64042500D02*
X75677258Y-64042500D01*
X75202742Y-62997500D02*
X75677258Y-62997500D01*
X95670000Y-53760229D02*
G75*
G03*
X95670000Y-53760229I-700000J0D01*
G01*
X57979437Y-47015000D02*
X56915000Y-48079437D01*
X62435000Y-48079437D02*
X62435000Y-52535000D01*
X62435000Y-52535000D02*
X60735000Y-52535000D01*
X61370563Y-47015000D02*
X62435000Y-48079437D01*
X56915000Y-48079437D02*
X56915000Y-52535000D01*
X61370563Y-47015000D02*
X60735000Y-47015000D01*
X57979437Y-47015000D02*
X58615000Y-47015000D01*
X61360000Y-46150000D02*
X61360000Y-46775000D01*
X61672500Y-46462500D02*
X61047500Y-46462500D01*
X56915000Y-52535000D02*
X58615000Y-52535000D01*
X73862500Y-45917258D02*
X73862500Y-45442742D01*
X72817500Y-45917258D02*
X72817500Y-45442742D01*
X84227500Y-38137258D02*
X84227500Y-37662742D01*
X85272500Y-38137258D02*
X85272500Y-37662742D01*
X79525000Y-79550000D02*
X86535000Y-79550000D01*
X81335000Y-69730000D02*
X81335000Y-68330000D01*
X72515000Y-79550000D02*
X72515000Y-69730000D01*
X77715000Y-68330000D02*
X79525000Y-68330000D01*
X86535000Y-69730000D02*
X81335000Y-69730000D01*
X79525000Y-79550000D02*
X72515000Y-79550000D01*
X86775000Y-79790000D02*
X86775000Y-76940000D01*
X81335000Y-68330000D02*
X79525000Y-68330000D01*
X83925000Y-79790000D02*
X86775000Y-79790000D01*
X86535000Y-79550000D02*
X86535000Y-69730000D01*
X77715000Y-69730000D02*
X77715000Y-68330000D01*
X72515000Y-69730000D02*
X77715000Y-69730000D01*
X99470000Y-42679420D02*
X99470000Y-42960580D01*
X100490000Y-42679420D02*
X100490000Y-42960580D01*
X96450000Y-73597500D02*
X98125000Y-73597500D01*
X96450000Y-70477500D02*
X95800000Y-70477500D01*
X96450000Y-73597500D02*
X95800000Y-73597500D01*
X96450000Y-70477500D02*
X97100000Y-70477500D01*
X78140580Y-40935000D02*
X77859420Y-40935000D01*
X78140580Y-39915000D02*
X77859420Y-39915000D01*
X70801459Y-56682038D02*
X71082619Y-56682038D01*
X70801459Y-55662038D02*
X71082619Y-55662038D01*
X66965000Y-79385000D02*
X69250000Y-79385000D01*
X69250000Y-77915000D02*
X66965000Y-77915000D01*
X66965000Y-77915000D02*
X66965000Y-79385000D01*
X94097500Y-69640000D02*
X92627500Y-69640000D01*
X92627500Y-69640000D02*
X92627500Y-71925000D01*
X94097500Y-71925000D02*
X94097500Y-69640000D01*
X89025000Y-72835000D02*
X88225000Y-72835000D01*
X89025000Y-69715000D02*
X87225000Y-69715000D01*
X89025000Y-72835000D02*
X89825000Y-72835000D01*
X89025000Y-69715000D02*
X89825000Y-69715000D01*
X79649420Y-58210000D02*
X79930580Y-58210000D01*
X79649420Y-57190000D02*
X79930580Y-57190000D01*
X90940000Y-51887500D02*
X89470000Y-51887500D01*
X90940000Y-54172500D02*
X90940000Y-51887500D01*
X89470000Y-51887500D02*
X89470000Y-54172500D01*
X84312742Y-57447500D02*
X84787258Y-57447500D01*
X84312742Y-58492500D02*
X84787258Y-58492500D01*
D16*
X94755000Y-78925000D02*
X94755000Y-74675000D01*
X97395000Y-78925000D02*
X97395000Y-74675000D01*
D17*
X96052000Y-80110000D02*
G75*
G03*
X96052000Y-80110000I-127000J0D01*
G01*
D13*
X97585000Y-39845000D02*
X88635000Y-39845000D01*
X88515000Y-33165000D02*
X88515000Y-30435000D01*
X97705000Y-30435000D02*
X88515000Y-30435000D01*
X97705000Y-33165000D02*
X97705000Y-30435000D01*
X97705000Y-36765000D02*
X97705000Y-35865000D01*
X88515000Y-36765000D02*
X88515000Y-35865000D01*
X90977500Y-65462742D02*
X90977500Y-65937258D01*
X92022500Y-65462742D02*
X92022500Y-65937258D01*
X96380855Y-55095580D02*
X96380855Y-54814420D01*
X97400855Y-55095580D02*
X97400855Y-54814420D01*
X89555798Y-41529819D02*
X89081282Y-41529819D01*
X89555798Y-40484819D02*
X89081282Y-40484819D01*
X85562500Y-62117258D02*
X85562500Y-61642742D01*
X84517500Y-62117258D02*
X84517500Y-61642742D01*
X85615000Y-39360000D02*
X87085000Y-39360000D01*
X85615000Y-37075000D02*
X85615000Y-39360000D01*
X87085000Y-39360000D02*
X87085000Y-37075000D01*
X69124297Y-43150588D02*
X68649781Y-43150588D01*
X69124297Y-42105588D02*
X68649781Y-42105588D01*
D16*
X59980000Y-66825000D02*
X59980000Y-71075000D01*
X62620000Y-66825000D02*
X62620000Y-71075000D01*
D17*
X61577000Y-65640000D02*
G75*
G03*
X61577000Y-65640000I-127000J0D01*
G01*
D13*
X92385000Y-71362258D02*
X92385000Y-70887742D01*
X91340000Y-71362258D02*
X91340000Y-70887742D01*
X68649781Y-39104538D02*
X69124297Y-39104538D01*
X68649781Y-40149538D02*
X69124297Y-40149538D01*
X98708549Y-71997676D02*
X98708549Y-71523160D01*
X99753549Y-71997676D02*
X99753549Y-71523160D01*
X94412500Y-56562487D02*
X94412500Y-56087971D01*
X93367500Y-56562487D02*
X93367500Y-56087971D01*
X98962500Y-41592742D02*
X98962500Y-42067258D01*
X97917500Y-41592742D02*
X97917500Y-42067258D01*
X88350000Y-60560000D02*
G75*
G03*
X88350000Y-60560000I-950000J0D01*
G01*
X104905000Y-44837500D02*
X103435000Y-44837500D01*
X104905000Y-47122500D02*
X104905000Y-44837500D01*
X103435000Y-44837500D02*
X103435000Y-47122500D01*
X89110000Y-45340000D02*
G75*
G03*
X89110000Y-45340000I-700000J0D01*
G01*
X66990580Y-75127500D02*
X66709420Y-75127500D01*
X66990580Y-76147500D02*
X66709420Y-76147500D01*
X89378080Y-69285000D02*
X89096920Y-69285000D01*
X89378080Y-68265000D02*
X89096920Y-68265000D01*
D16*
X71265000Y-53540019D02*
X71265000Y-49630019D01*
X66215000Y-53540019D02*
X66215000Y-49630019D01*
D17*
X66535000Y-55625019D02*
G75*
G03*
X66535000Y-55625019I-100000J0D01*
G01*
D13*
X64837039Y-48477038D02*
X64837039Y-52377038D01*
X62837039Y-48477038D02*
X62837039Y-52377038D01*
X64837039Y-48477038D02*
X62837039Y-48477038D01*
X75584420Y-62260000D02*
X75865580Y-62260000D01*
X75584420Y-61240000D02*
X75865580Y-61240000D01*
X93330000Y-53610229D02*
G75*
G03*
X93330000Y-53610229I-700000J0D01*
G01*
X64325000Y-61325000D02*
G75*
G03*
X64325000Y-61325000I-700000J0D01*
G01*
D16*
X99490000Y-63500000D02*
X95490000Y-63500000D01*
X99490000Y-68500000D02*
X95490000Y-68500000D01*
D17*
X101855000Y-68505000D02*
G75*
G03*
X101855000Y-68505000I-100000J0D01*
G01*
D13*
X89365580Y-67585000D02*
X89084420Y-67585000D01*
X89365580Y-66565000D02*
X89084420Y-66565000D01*
X98850000Y-52000000D02*
G75*
G03*
X98850000Y-52000000I-700000J0D01*
G01*
X104480000Y-53830000D02*
X101820000Y-53830000D01*
X104480000Y-57700000D02*
X104480000Y-59030000D01*
X104480000Y-56430000D02*
X101820000Y-56430000D01*
X104480000Y-59030000D02*
X103150000Y-59030000D01*
X104480000Y-56430000D02*
X104480000Y-53830000D01*
X101820000Y-56430000D02*
X101820000Y-53830000D01*
X67336252Y-55682519D02*
X65913748Y-55682519D01*
X67336252Y-58402519D02*
X65913748Y-58402519D01*
X99415855Y-60580000D02*
G75*
G03*
X99415855Y-60580000I-700000J0D01*
G01*
X82635000Y-62175000D02*
X82635000Y-64125000D01*
X77515000Y-62175000D02*
X77515000Y-60225000D01*
X82635000Y-62175000D02*
X82635000Y-58725000D01*
X77515000Y-62175000D02*
X77515000Y-64125000D01*
X100860855Y-56430000D02*
X100860855Y-53830000D01*
X100860855Y-53830000D02*
X98200855Y-53830000D01*
X100860855Y-59030000D02*
X99530855Y-59030000D01*
X98200855Y-56430000D02*
X98200855Y-53830000D01*
X100860855Y-57700000D02*
X100860855Y-59030000D01*
X100860855Y-56430000D02*
X98200855Y-56430000D01*
X89070000Y-48190000D02*
G75*
G03*
X89070000Y-48190000I-700000J0D01*
G01*
X72097500Y-63087258D02*
X72097500Y-62612742D01*
X71052500Y-63087258D02*
X71052500Y-62612742D01*
X79649420Y-55690000D02*
X79930580Y-55690000D01*
X79649420Y-56710000D02*
X79930580Y-56710000D01*
X76722742Y-47397500D02*
X77197258Y-47397500D01*
X76722742Y-48442500D02*
X77197258Y-48442500D01*
X94972130Y-40575334D02*
X95446646Y-40575334D01*
X94972130Y-41620334D02*
X95446646Y-41620334D01*
X62845000Y-34375000D02*
X64465000Y-34375000D01*
X67175000Y-30675000D02*
X62845000Y-30675000D01*
X62845000Y-30675000D02*
X62845000Y-34375000D01*
X62545000Y-34675000D02*
X64465000Y-34675000D01*
X64465000Y-34375000D02*
X64465000Y-37235000D01*
X69885000Y-34375000D02*
X69885000Y-37235000D01*
X69885000Y-37235000D02*
X67175000Y-37235000D01*
X67175000Y-30675000D02*
X71505000Y-30675000D01*
X64465000Y-37235000D02*
X67175000Y-37235000D01*
X71505000Y-34375000D02*
X69885000Y-34375000D01*
X62545000Y-32525000D02*
X62545000Y-34675000D01*
X71505000Y-30675000D02*
X71505000Y-34375000D01*
X96368355Y-58252258D02*
X96368355Y-57777742D01*
X97413355Y-58252258D02*
X97413355Y-57777742D01*
X102118597Y-61427500D02*
X102593113Y-61427500D01*
X102118597Y-62472500D02*
X102593113Y-62472500D01*
X92340000Y-60460229D02*
X93740000Y-60460229D01*
X93740000Y-58140229D02*
X91840000Y-58140229D01*
X82390580Y-39790000D02*
X82109420Y-39790000D01*
X82390580Y-40810000D02*
X82109420Y-40810000D01*
X87440000Y-64225000D02*
X87440000Y-65025000D01*
X87440000Y-64225000D02*
X87440000Y-63425000D01*
X90560000Y-64225000D02*
X90560000Y-62425000D01*
X90560000Y-64225000D02*
X90560000Y-65025000D01*
X98712258Y-70022500D02*
X98237742Y-70022500D01*
X98712258Y-68977500D02*
X98237742Y-68977500D01*
X85020000Y-53809420D02*
X85020000Y-54090580D01*
X84000000Y-53809420D02*
X84000000Y-54090580D01*
D16*
X91613250Y-49250000D02*
X90863250Y-49250000D01*
X95863250Y-48896450D02*
X95863250Y-48500000D01*
X95863250Y-45000000D02*
X95863250Y-44250000D01*
X90863250Y-49250000D02*
X90863250Y-48500000D01*
X95113250Y-49250000D02*
X95509700Y-49250000D01*
X90863250Y-44250000D02*
X90863250Y-45000000D01*
X95863250Y-44250000D02*
X95113250Y-44250000D01*
X95509700Y-49250000D02*
X95863250Y-48896450D01*
X91613250Y-44250000D02*
X90863250Y-44250000D01*
X96613250Y-49000000D02*
G75*
G03*
X96613250Y-49000000I-250000J0D01*
G01*
D13*
X101070000Y-48360000D02*
G75*
G03*
X101070000Y-48360000I-700000J0D01*
G01*
X102496435Y-60935000D02*
X102215275Y-60935000D01*
X102496435Y-59915000D02*
X102215275Y-59915000D01*
X90722500Y-56637258D02*
X90722500Y-56162742D01*
X89677500Y-56637258D02*
X89677500Y-56162742D01*
X80075000Y-51910000D02*
X79600000Y-51910000D01*
X86820000Y-44690000D02*
X86820000Y-45165000D01*
X80075000Y-44690000D02*
X79600000Y-44690000D01*
X79600000Y-51910000D02*
X79600000Y-51435000D01*
X86820000Y-51910000D02*
X86820000Y-51435000D01*
X86345000Y-51910000D02*
X86820000Y-51910000D01*
X86345000Y-44690000D02*
X86820000Y-44690000D01*
X103030000Y-48390000D02*
G75*
G03*
X103030000Y-48390000I-700000J0D01*
G01*
X69127039Y-44992618D02*
X69127039Y-44711458D01*
X70147039Y-44992618D02*
X70147039Y-44711458D01*
D16*
X78286934Y-33047578D02*
X78286934Y-31847578D01*
X79886934Y-33047578D02*
X79886934Y-31847578D01*
D17*
X79186934Y-35005578D02*
G75*
G03*
X79186934Y-35005578I-100000J0D01*
G01*
D13*
X61375000Y-57850000D02*
G75*
G03*
X61375000Y-57850000I-700000J0D01*
G01*
X83630000Y-66920000D02*
G75*
G03*
X83630000Y-66920000I-950000J0D01*
G01*
X84690580Y-60030000D02*
X84409420Y-60030000D01*
X84690580Y-59010000D02*
X84409420Y-59010000D01*
X102325000Y-70290000D02*
X100040000Y-70290000D01*
X100040000Y-70290000D02*
X100040000Y-71760000D01*
X100040000Y-71760000D02*
X102325000Y-71760000D01*
X73330000Y-36670000D02*
G75*
G03*
X73330000Y-36670000I-700000J0D01*
G01*
X87100000Y-40450000D02*
G75*
G03*
X87100000Y-40450000I-700000J0D01*
G01*
X71875000Y-37844000D02*
G75*
G03*
X71875000Y-37844000I-1200000J0D01*
G01*
X84312742Y-56872500D02*
X84787258Y-56872500D01*
X84312742Y-55827500D02*
X84787258Y-55827500D01*
X92012742Y-68497500D02*
X92487258Y-68497500D01*
X92012742Y-67452500D02*
X92487258Y-67452500D01*
X69048143Y-47597409D02*
X68766983Y-47597409D01*
X69048143Y-46577409D02*
X68766983Y-46577409D01*
X104692500Y-49627258D02*
X104692500Y-49152742D01*
X103647500Y-49627258D02*
X103647500Y-49152742D01*
X86884420Y-42910000D02*
X87165580Y-42910000D01*
X86884420Y-43930000D02*
X87165580Y-43930000D01*
D16*
X65900000Y-45275000D02*
X58400000Y-45275000D01*
X65900000Y-38275000D02*
X58400000Y-38275000D01*
D13*
X76770000Y-45820580D02*
X76770000Y-45539420D01*
X75750000Y-45820580D02*
X75750000Y-45539420D01*
X78165580Y-35065000D02*
X77884420Y-35065000D01*
X78165580Y-36085000D02*
X77884420Y-36085000D01*
X87000000Y-53555000D02*
G75*
G03*
X87000000Y-53555000I-700000J0D01*
G01*
X102000000Y-45970580D02*
X102000000Y-45689420D01*
X100980000Y-45970580D02*
X100980000Y-45689420D01*
X75310000Y-45820580D02*
X75310000Y-45539420D01*
X74290000Y-45820580D02*
X74290000Y-45539420D01*
X68790000Y-66525000D02*
X68790000Y-65875000D01*
X71910000Y-66525000D02*
X71910000Y-67175000D01*
X71910000Y-66525000D02*
X71910000Y-65875000D01*
X68790000Y-66525000D02*
X68790000Y-68200000D01*
X102500000Y-49700000D02*
X100100000Y-49700000D01*
X100100000Y-52800000D02*
X103050000Y-52800000D01*
X92692500Y-56552487D02*
X92692500Y-56077971D01*
X91647500Y-56552487D02*
X91647500Y-56077971D01*
X75677258Y-64777500D02*
X75202742Y-64777500D01*
X75677258Y-65822500D02*
X75202742Y-65822500D01*
X82390580Y-43810000D02*
X82109420Y-43810000D01*
X82390580Y-42790000D02*
X82109420Y-42790000D01*
X69124920Y-40605588D02*
X68650404Y-40605588D01*
X69124920Y-41650588D02*
X68650404Y-41650588D01*
X99470000Y-45970580D02*
X99470000Y-45689420D01*
X100490000Y-45970580D02*
X100490000Y-45689420D01*
X87350000Y-79530000D02*
X91050000Y-79530000D01*
X89200000Y-79830000D02*
X91350000Y-79830000D01*
X87350000Y-76450000D02*
X87350000Y-73370000D01*
X93910000Y-79160000D02*
X93910000Y-76450000D01*
X87350000Y-73370000D02*
X91050000Y-73370000D01*
X91050000Y-79160000D02*
X93910000Y-79160000D01*
X91050000Y-73370000D02*
X91050000Y-73740000D01*
X87350000Y-76450000D02*
X87350000Y-79530000D01*
X91050000Y-79530000D02*
X91050000Y-79160000D01*
X93910000Y-73740000D02*
X93910000Y-76450000D01*
X91050000Y-73740000D02*
X93910000Y-73740000D01*
X91350000Y-79830000D02*
X91350000Y-79160000D01*
X72565000Y-62990580D02*
X72565000Y-62709420D01*
X73585000Y-62990580D02*
X73585000Y-62709420D01*
X92776570Y-43267610D02*
X93251086Y-43267610D01*
X92776570Y-42222610D02*
X93251086Y-42222610D01*
X92390580Y-62915000D02*
X92109420Y-62915000D01*
X92390580Y-63935000D02*
X92109420Y-63935000D01*
X102000000Y-42679420D02*
X102000000Y-42960580D01*
X100980000Y-42679420D02*
X100980000Y-42960580D01*
X78230000Y-45820580D02*
X78230000Y-45539420D01*
X77210000Y-45820580D02*
X77210000Y-45539420D01*
X65751530Y-46574757D02*
X66032690Y-46574757D01*
X65751530Y-47594757D02*
X66032690Y-47594757D01*
X101420000Y-64579420D02*
X101420000Y-64860580D01*
X102440000Y-64579420D02*
X102440000Y-64860580D01*
%LPC*%
D18*
X74670000Y-39830000D03*
D19*
X74670000Y-42370000D03*
D20*
X72980000Y-51060000D03*
D21*
X102300000Y-69500000D03*
X100650000Y-69500000D03*
D22*
X67625000Y-77150000D03*
X69275000Y-77150000D03*
D23*
X69120000Y-62910000D03*
D24*
X58500000Y-76500000D03*
D25*
X63360000Y-77070000D03*
D26*
X63360000Y-73850000D03*
D27*
X78775000Y-38875000D03*
X78775000Y-37125000D03*
D28*
X66500000Y-73237500D03*
X69450000Y-73237500D03*
D22*
X95325000Y-42590000D03*
X96975000Y-42590000D03*
D29*
X83025000Y-41800000D03*
X81475000Y-41800000D03*
D30*
X85040000Y-64135000D03*
X85040000Y-65785000D03*
D31*
X83550000Y-65225000D03*
X83550000Y-63575000D03*
D32*
X74950000Y-67200000D03*
X76500000Y-67200000D03*
D33*
X63920000Y-70262000D03*
X65190000Y-70262000D03*
X66460000Y-70262000D03*
X67730000Y-70262000D03*
X67730000Y-64838000D03*
X66460000Y-64838000D03*
X65190000Y-64838000D03*
X63920000Y-64838000D03*
D34*
X65825000Y-67550000D03*
D35*
X58710000Y-62750000D03*
D36*
X57370000Y-69000000D03*
D37*
X57370000Y-66500000D03*
X57370000Y-64000000D03*
X57370000Y-61500000D03*
X57370000Y-59000000D03*
X57370000Y-56500000D03*
D23*
X65700000Y-61425000D03*
D22*
X74615000Y-63520000D03*
X76265000Y-63520000D03*
D23*
X94970000Y-53760229D03*
D38*
X59675000Y-47575000D03*
X59675000Y-51975000D03*
D31*
X73340000Y-46505000D03*
X73340000Y-44855000D03*
X84750000Y-38725000D03*
X84750000Y-37075000D03*
D39*
X83725000Y-77190000D03*
D40*
X79525000Y-77190000D03*
X75325000Y-77190000D03*
X83725000Y-71690000D03*
X79525000Y-71690000D03*
X75325000Y-71690000D03*
D41*
X99980000Y-42045000D03*
X99980000Y-43595000D03*
D42*
X97387500Y-72987500D03*
X97387500Y-71087500D03*
X95512500Y-72037500D03*
D29*
X78775000Y-40425000D03*
X77225000Y-40425000D03*
D32*
X70167039Y-56172038D03*
X71717039Y-56172038D03*
D43*
X67662500Y-78650000D03*
X69237500Y-78650000D03*
D44*
X93362500Y-70337500D03*
X93362500Y-71912500D03*
D45*
X87887500Y-70325000D03*
X87887500Y-71275000D03*
X87887500Y-72225000D03*
X90162500Y-72225000D03*
X90162500Y-70325000D03*
D32*
X79015000Y-57700000D03*
X80565000Y-57700000D03*
D44*
X90205000Y-52585000D03*
X90205000Y-54160000D03*
D22*
X83725000Y-57970000D03*
X85375000Y-57970000D03*
D25*
X96075000Y-74790000D03*
D26*
X96075000Y-78010000D03*
D46*
X96085000Y-39165000D03*
X95235000Y-39165000D03*
X94385000Y-39165000D03*
X93535000Y-39165000D03*
X92685000Y-39165000D03*
X91835000Y-39165000D03*
X90985000Y-39165000D03*
X90135000Y-39165000D03*
X90135000Y-37815000D03*
X90985000Y-37815000D03*
X91835000Y-37815000D03*
X92685000Y-37815000D03*
X93535000Y-37815000D03*
X94385000Y-37815000D03*
X95235000Y-37815000D03*
X96085000Y-37815000D03*
D47*
X97435000Y-34805000D03*
D48*
X97435000Y-38185000D03*
X88785000Y-38185000D03*
D47*
X88785000Y-34805000D03*
D30*
X91500000Y-64875000D03*
X91500000Y-66525000D03*
D49*
X96890855Y-55730000D03*
X96890855Y-54180000D03*
D21*
X90143540Y-41007319D03*
X88493540Y-41007319D03*
D31*
X85040000Y-62705000D03*
X85040000Y-61055000D03*
D50*
X86350000Y-38662500D03*
X86350000Y-37087500D03*
D21*
X69712039Y-42628088D03*
X68062039Y-42628088D03*
D25*
X61300000Y-70960000D03*
D26*
X61300000Y-67740000D03*
D31*
X91862500Y-71950000D03*
X91862500Y-70300000D03*
D22*
X68062039Y-39627038D03*
X69712039Y-39627038D03*
D31*
X99231049Y-72585418D03*
X99231049Y-70935418D03*
D24*
X101500000Y-33500000D03*
D31*
X93890000Y-57150229D03*
X93890000Y-55500229D03*
D30*
X98440000Y-41005000D03*
X98440000Y-42655000D03*
D51*
X87400000Y-60560000D03*
D44*
X104170000Y-45535000D03*
X104170000Y-47110000D03*
D23*
X88410000Y-45340000D03*
D29*
X67625000Y-75637500D03*
X66075000Y-75637500D03*
X90012500Y-68775000D03*
X88462500Y-68775000D03*
D52*
X66835000Y-54055019D03*
X68105000Y-54055019D03*
X69375000Y-54055019D03*
X70645000Y-54055019D03*
X70645000Y-49115019D03*
X69375000Y-49115019D03*
X68105000Y-49115019D03*
X66835000Y-49115019D03*
D53*
X63837039Y-49077038D03*
X63837039Y-52377038D03*
D32*
X74950000Y-61750000D03*
X76500000Y-61750000D03*
D23*
X92630000Y-53610229D03*
X63625000Y-61325000D03*
D54*
X99960000Y-67905000D03*
X99960000Y-66635000D03*
X99960000Y-65365000D03*
X99960000Y-64095000D03*
X95020000Y-64095000D03*
X95020000Y-65365000D03*
X95020000Y-66635000D03*
X95020000Y-67905000D03*
D55*
X97490000Y-66000000D03*
D29*
X90000000Y-67075000D03*
X88450000Y-67075000D03*
D23*
X98150000Y-52000000D03*
D18*
X103150000Y-57700000D03*
D19*
X103150000Y-55160000D03*
D56*
X68100000Y-57042519D03*
X65150000Y-57042519D03*
D23*
X98715855Y-60580000D03*
D57*
X81980000Y-59700000D03*
X80710000Y-59700000D03*
X79440000Y-59700000D03*
X78170000Y-59700000D03*
X78170000Y-64650000D03*
X79440000Y-64650000D03*
X80710000Y-64650000D03*
X81980000Y-64650000D03*
D18*
X99530855Y-57700000D03*
D19*
X99530855Y-55160000D03*
D23*
X88370000Y-48190000D03*
D31*
X71575000Y-63675000D03*
X71575000Y-62025000D03*
D32*
X79015000Y-56200000D03*
X80565000Y-56200000D03*
D22*
X76135000Y-47920000D03*
X77785000Y-47920000D03*
X94384388Y-41097834D03*
X96034388Y-41097834D03*
D35*
X65925000Y-33865000D03*
D58*
X64675000Y-32525000D03*
D59*
X67175000Y-32525000D03*
X69675000Y-32525000D03*
D31*
X96890855Y-58840000D03*
X96890855Y-57190000D03*
D22*
X101530855Y-61950000D03*
X103180855Y-61950000D03*
D60*
X92090000Y-58650229D03*
X92090000Y-59300229D03*
X92090000Y-59950229D03*
X93990000Y-59950229D03*
X93990000Y-59300229D03*
X93990000Y-58650229D03*
D29*
X83025000Y-40300000D03*
X81475000Y-40300000D03*
D61*
X89950000Y-63087500D03*
X89000000Y-63087500D03*
X88050000Y-63087500D03*
X88050000Y-65362500D03*
X89950000Y-65362500D03*
D21*
X99300000Y-69500000D03*
X97650000Y-69500000D03*
D41*
X84510000Y-53175000D03*
X84510000Y-54725000D03*
D24*
X101500000Y-76500000D03*
D62*
X95953250Y-48250000D03*
X95953250Y-47750000D03*
X95953250Y-47250000D03*
X95953250Y-46750000D03*
X95953250Y-46250000D03*
X95953250Y-45750000D03*
X95953250Y-45250000D03*
D63*
X94863250Y-44160000D03*
X94363250Y-44160000D03*
X93863250Y-44160000D03*
X93363250Y-44160000D03*
X92863250Y-44160000D03*
X92363250Y-44160000D03*
X91863250Y-44160000D03*
D62*
X90773250Y-45250000D03*
X90773250Y-45750000D03*
X90773250Y-46250000D03*
X90773250Y-46750000D03*
X90773250Y-47250000D03*
X90773250Y-47750000D03*
X90773250Y-48250000D03*
D63*
X91863250Y-49340000D03*
X92363250Y-49340000D03*
X92863250Y-49340000D03*
X93363250Y-49340000D03*
X93863250Y-49340000D03*
X94363250Y-49340000D03*
X94863250Y-49340000D03*
D64*
X93363250Y-46750000D03*
D23*
X100370000Y-48360000D03*
D29*
X103130855Y-60425000D03*
X101580855Y-60425000D03*
D31*
X90200000Y-57225000D03*
X90200000Y-55575000D03*
D65*
X79760000Y-45550000D03*
X79760000Y-46050000D03*
X79760000Y-46550000D03*
X79760000Y-47050000D03*
X79760000Y-47550000D03*
X79760000Y-48050000D03*
X79760000Y-48550000D03*
X79760000Y-49050000D03*
X79760000Y-49550000D03*
X79760000Y-50050000D03*
X79760000Y-50550000D03*
X79760000Y-51050000D03*
D66*
X80460000Y-51750000D03*
X80960000Y-51750000D03*
X81460000Y-51750000D03*
X81960000Y-51750000D03*
X82460000Y-51750000D03*
X82960000Y-51750000D03*
X83460000Y-51750000D03*
X83960000Y-51750000D03*
X84460000Y-51750000D03*
X84960000Y-51750000D03*
X85460000Y-51750000D03*
X85960000Y-51750000D03*
D65*
X86660000Y-51050000D03*
X86660000Y-50550000D03*
X86660000Y-50050000D03*
X86660000Y-49550000D03*
X86660000Y-49050000D03*
X86660000Y-48550000D03*
X86660000Y-48050000D03*
X86660000Y-47550000D03*
X86660000Y-47050000D03*
X86660000Y-46550000D03*
X86660000Y-46050000D03*
X86660000Y-45550000D03*
D66*
X85960000Y-44850000D03*
X85460000Y-44850000D03*
X84960000Y-44850000D03*
X84460000Y-44850000D03*
X83960000Y-44850000D03*
X83460000Y-44850000D03*
X82960000Y-44850000D03*
X82460000Y-44850000D03*
X81960000Y-44850000D03*
X81460000Y-44850000D03*
X80960000Y-44850000D03*
X80460000Y-44850000D03*
D67*
X83210000Y-48300000D03*
D23*
X102330000Y-48390000D03*
D49*
X69637039Y-45627038D03*
X69637039Y-44077038D03*
D68*
X79086934Y-34147578D03*
X79086934Y-30747578D03*
D23*
X60675000Y-57850000D03*
D51*
X82680000Y-66920000D03*
D29*
X85325000Y-59520000D03*
X83775000Y-59520000D03*
D43*
X100737500Y-71025000D03*
X102312500Y-71025000D03*
D23*
X72630000Y-36670000D03*
X86400000Y-40450000D03*
D20*
X70675000Y-37844000D03*
D22*
X85375000Y-56350000D03*
X83725000Y-56350000D03*
X91425000Y-67975000D03*
X93075000Y-67975000D03*
D29*
X69682563Y-47087409D03*
X68132563Y-47087409D03*
D31*
X104170000Y-50215000D03*
X104170000Y-48565000D03*
D24*
X58500000Y-33500000D03*
D32*
X86250000Y-43420000D03*
X87800000Y-43420000D03*
D69*
X65350000Y-41775000D03*
X58950000Y-41775000D03*
D49*
X76260000Y-46455000D03*
X76260000Y-44905000D03*
D29*
X78800000Y-35575000D03*
X77250000Y-35575000D03*
D23*
X86300000Y-53555000D03*
D49*
X101490000Y-46605000D03*
X101490000Y-45055000D03*
X74800000Y-46455000D03*
X74800000Y-44905000D03*
D70*
X69400000Y-67462500D03*
X71300000Y-67462500D03*
X70350000Y-65587500D03*
D71*
X102400000Y-52020000D03*
D72*
X102400000Y-50300000D03*
X100200000Y-50300000D03*
X100200000Y-52200000D03*
D31*
X92170000Y-57140229D03*
X92170000Y-55490229D03*
D21*
X76265000Y-65300000D03*
X74615000Y-65300000D03*
D29*
X83025000Y-43300000D03*
X81475000Y-43300000D03*
D21*
X69712662Y-41128088D03*
X68062662Y-41128088D03*
D49*
X99980000Y-46605000D03*
X99980000Y-45055000D03*
D35*
X90540000Y-76450000D03*
D73*
X89200000Y-77700000D03*
D37*
X89200000Y-75200000D03*
D49*
X73075000Y-63625000D03*
X73075000Y-62075000D03*
D22*
X92188828Y-42745110D03*
X93838828Y-42745110D03*
D29*
X93025000Y-63425000D03*
X91475000Y-63425000D03*
D41*
X101490000Y-42045000D03*
X101490000Y-43595000D03*
D49*
X77720000Y-46455000D03*
X77720000Y-44905000D03*
D32*
X65117110Y-47084757D03*
X66667110Y-47084757D03*
D41*
X101930000Y-63945000D03*
X101930000Y-65495000D03*
M02*
