%TF.GenerationSoftware,KiCad,Pcbnew,(6.0.2)*%
%TF.CreationDate,2022-07-13T14:29:09+01:00*%
%TF.ProjectId,Actuators Board,41637475-6174-46f7-9273-20426f617264,rev?*%
%TF.SameCoordinates,Original*%
%TF.FileFunction,Soldermask,Bot*%
%TF.FilePolarity,Negative*%
%FSLAX46Y46*%
G04 Gerber Fmt 4.6, Leading zero omitted, Abs format (unit mm)*
G04 Created by KiCad (PCBNEW (6.0.2)) date 2022-07-13 14:29:09*
%MOMM*%
%LPD*%
G01*
G04 APERTURE LIST*
G04 Aperture macros list*
%AMRoundRect*
0 Rectangle with rounded corners*
0 $1 Rounding radius*
0 $2 $3 $4 $5 $6 $7 $8 $9 X,Y pos of 4 corners*
0 Add a 4 corners polygon primitive as box body*
4,1,4,$2,$3,$4,$5,$6,$7,$8,$9,$2,$3,0*
0 Add four circle primitives for the rounded corners*
1,1,$1+$1,$2,$3*
1,1,$1+$1,$4,$5*
1,1,$1+$1,$6,$7*
1,1,$1+$1,$8,$9*
0 Add four rect primitives between the rounded corners*
20,1,$1+$1,$2,$3,$4,$5,0*
20,1,$1+$1,$4,$5,$6,$7,0*
20,1,$1+$1,$6,$7,$8,$9,0*
20,1,$1+$1,$8,$9,$2,$3,0*%
%AMFreePoly0*
4,1,23,0.945671,0.830970,1.026777,0.776777,1.080970,0.695671,1.100000,0.600000,1.100000,-0.600000,1.080970,-0.695671,1.026777,-0.776777,0.945671,-0.830970,0.850000,-0.850000,-0.450000,-0.850000,-0.545671,-0.830970,-0.626777,-0.776777,-0.626779,-0.776774,-1.026777,-0.376777,-1.080970,-0.295671,-1.100000,-0.200000,-1.100000,0.600000,-1.080970,0.695671,-1.026777,0.776777,-0.945671,0.830970,
-0.850000,0.850000,0.850000,0.850000,0.945671,0.830970,0.945671,0.830970,$1*%
G04 Aperture macros list end*
%ADD10R,1.700000X1.700000*%
%ADD11O,1.700000X1.700000*%
%ADD12C,5.600000*%
%ADD13C,1.300000*%
%ADD14RoundRect,0.250000X0.850000X0.600000X-0.850000X0.600000X-0.850000X-0.600000X0.850000X-0.600000X0*%
%ADD15O,2.200000X1.700000*%
%ADD16RoundRect,0.250001X1.099999X1.399999X-1.099999X1.399999X-1.099999X-1.399999X1.099999X-1.399999X0*%
%ADD17O,2.700000X3.300000*%
%ADD18C,0.700000*%
%ADD19O,0.900000X1.700000*%
%ADD20O,0.900000X2.400000*%
%ADD21FreePoly0,90.000000*%
%ADD22O,1.700000X2.200000*%
%ADD23FreePoly0,180.000000*%
G04 APERTURE END LIST*
D10*
%TO.C,J6*%
X74670000Y-39830000D03*
D11*
X74670000Y-42370000D03*
%TD*%
D12*
%TO.C,H1*%
X58500000Y-76500000D03*
%TD*%
D13*
%TO.C,J5*%
X58710000Y-62750000D03*
D14*
X57370000Y-69000000D03*
D15*
X57370000Y-66500000D03*
X57370000Y-64000000D03*
X57370000Y-61500000D03*
X57370000Y-59000000D03*
X57370000Y-56500000D03*
%TD*%
D16*
%TO.C,J1*%
X83725000Y-77190000D03*
D17*
X79525000Y-77190000D03*
X75325000Y-77190000D03*
X83725000Y-71690000D03*
X79525000Y-71690000D03*
X75325000Y-71690000D03*
%TD*%
D18*
%TO.C,J3*%
X96085000Y-39165000D03*
X95235000Y-39165000D03*
X94385000Y-39165000D03*
X93535000Y-39165000D03*
X92685000Y-39165000D03*
X91835000Y-39165000D03*
X90985000Y-39165000D03*
X90135000Y-39165000D03*
X90135000Y-37815000D03*
X90985000Y-37815000D03*
X91835000Y-37815000D03*
X92685000Y-37815000D03*
X93535000Y-37815000D03*
X94385000Y-37815000D03*
X95235000Y-37815000D03*
X96085000Y-37815000D03*
D19*
X97435000Y-34805000D03*
D20*
X97435000Y-38185000D03*
X88785000Y-38185000D03*
D19*
X88785000Y-34805000D03*
%TD*%
D12*
%TO.C,H2*%
X101500000Y-33500000D03*
%TD*%
D10*
%TO.C,BOOTJUMPER1*%
X103150000Y-57700000D03*
D11*
X103150000Y-55160000D03*
%TD*%
D10*
%TO.C,ENJUMPER1*%
X99530855Y-57700000D03*
D11*
X99530855Y-55160000D03*
%TD*%
D13*
%TO.C,J4*%
X65925000Y-33865000D03*
D21*
X64675000Y-32525000D03*
D22*
X67175000Y-32525000D03*
X69675000Y-32525000D03*
%TD*%
D12*
%TO.C,H3*%
X101500000Y-76500000D03*
%TD*%
%TO.C,H4*%
X58500000Y-33500000D03*
%TD*%
D13*
%TO.C,J2*%
X90540000Y-76450000D03*
D23*
X89200000Y-77700000D03*
D15*
X89200000Y-75200000D03*
%TD*%
M02*
