M48
; DRILL file {KiCad (6.0.2)} date Thu Jul 14 22:41:54 2022
; FORMAT={-:-/ absolute / metric / decimal}
; #@! TF.CreationDate,2022-07-14T22:41:54+01:00
; #@! TF.GenerationSoftware,Kicad,Pcbnew,(6.0.2)
; #@! TF.FileFunction,Plated,1,4,PTH
FMAT,2
METRIC
; #@! TA.AperFunction,Plated,PTH,ViaDrill
T1C0.300
; #@! TA.AperFunction,Plated,PTH,ViaDrill
T2C0.400
; #@! TA.AperFunction,Plated,PTH,ComponentDrill
T3C0.400
; #@! TA.AperFunction,Plated,PTH,ComponentDrill
T4C0.600
; #@! TA.AperFunction,Plated,PTH,ComponentDrill
T5C1.000
; #@! TA.AperFunction,Plated,PTH,ComponentDrill
T6C1.200
; #@! TA.AperFunction,Plated,PTH,ComponentDrill
T7C1.400
; #@! TA.AperFunction,Plated,PTH,ComponentDrill
T8C3.200
%
G90
G05
T1
X97.28Y-46.3
X97.78Y-46.94
T2
X55.649Y-60.294
X55.65Y-58.3
X55.651Y-55.315
X55.651Y-66.263
X55.653Y-64.278
X55.654Y-62.281
X55.654Y-72.236
X55.656Y-68.25
X55.656Y-70.251
X59.57Y-57.53
X59.9Y-70.98
X62.702Y-79.344
X62.97Y-70.25
X63.58Y-67.54
X63.92Y-71.63
X65.2Y-63.45
X65.352Y-48.145
X65.669Y-76.831
X65.685Y-79.343
X66.015Y-54.343
X66.55Y-50.975
X66.55Y-52.15
X67.75Y-72.05
X67.9Y-50.97
X67.91Y-52.15
X68.25Y-67.61
X68.99Y-70.27
X69.31Y-50.91
X69.33Y-52.1
X69.375Y-65.4
X69.7Y-68.86
X70.361Y-79.346
X70.425Y-63.7
X70.55Y-50.925
X70.55Y-52.125
X70.668Y-57.5
X70.81Y-73.26
X71.44Y-69.82
X72.25Y-35.25
X72.26Y-67.17
X72.28Y-31.23
X72.28Y-32.23
X72.28Y-33.25
X72.28Y-34.25
X72.3Y-64.62
X72.348Y-79.341
X72.56Y-47.76
X72.85Y-42.19
X73.05Y-35.225
X73.38Y-73.15
X73.39Y-70.24
X73.48Y-43.84
X73.53Y-67.15
X74.0Y-61.76
X74.1Y-35.225
X74.333Y-79.338
X74.72Y-47.59
X75.15Y-35.25
X75.278Y-53.043
X75.384Y-69.404
X75.62Y-60.55
X76.15Y-35.225
X76.2Y-59.22
X76.321Y-79.342
X76.37Y-55.22
X77.227Y-51.797
X77.452Y-72.944
X77.6Y-67.3
X77.635Y-38.025
X77.66Y-36.75
X77.66Y-39.3
X77.916Y-41.36
X77.916Y-42.16
X77.92Y-42.96
X77.92Y-43.76
X78.15Y-63.05
X78.225Y-49.225
X78.321Y-79.342
X79.15Y-55.0
X79.583Y-42.792
X79.583Y-43.592
X79.59Y-41.989
X79.64Y-41.19
X79.79Y-39.63
X79.88Y-40.43
X79.89Y-37.2
X79.89Y-38.0
X79.9Y-38.81
X79.91Y-36.23
X80.0Y-67.3
X80.22Y-69.46
X80.225Y-35.225
X80.308Y-79.337
X80.625Y-55.075
X80.75Y-48.325
X80.775Y-46.975
X80.775Y-49.65
X81.14Y-61.22
X81.275Y-35.2
X81.3Y-66.49
X81.46Y-56.97
X81.6Y-72.87
X81.875Y-45.85
X81.875Y-47.0
X81.875Y-50.725
X81.9Y-48.325
X81.9Y-49.65
X82.275Y-35.175
X82.306Y-79.347
X82.89Y-62.67
X83.2Y-47.0
X83.2Y-48.325
X83.225Y-45.875
X83.225Y-49.65
X83.225Y-50.75
X83.23Y-60.53
X83.275Y-35.2
X84.09Y-61.66
X84.25Y-35.2
X84.293Y-79.342
X84.475Y-47.0
X84.5Y-48.325
X84.525Y-49.625
X84.525Y-50.75
X84.55Y-45.85
X84.75Y-39.875
X85.225Y-43.45
X85.3Y-35.2
X85.65Y-47.0
X85.65Y-49.625
X85.675Y-48.325
X85.72Y-63.41
X85.78Y-55.06
X86.279Y-79.347
X86.3Y-35.2
X86.35Y-57.14
X86.475Y-59.2
X86.64Y-61.84
X86.675Y-72.275
X87.31Y-51.89
X87.325Y-35.2
X87.42Y-44.48
X87.42Y-67.47
X87.475Y-68.775
X87.59Y-56.16
X87.68Y-53.03
X87.81Y-57.59
X88.06Y-30.65
X88.06Y-31.65
X88.06Y-32.65
X88.28Y-79.348
X88.79Y-43.97
X89.0Y-61.8
X89.0Y-64.4
X89.197Y-30.654
X89.3Y-71.3
X89.95Y-67.9
X90.2Y-58.25
X90.267Y-79.343
X90.9Y-42.75
X91.11Y-44.5
X91.15Y-59.97
X91.17Y-62.12
X91.188Y-30.657
X91.325Y-41.375
X92.35Y-50.4
X92.625Y-52.445
X93.075Y-69.075
X93.184Y-30.652
X93.256Y-79.343
X93.26Y-62.17
X94.15Y-62.88
X94.875Y-68.825
X95.03Y-55.53
X95.09Y-58.675
X95.175Y-30.655
X96.425Y-69.85
X96.65Y-53.05
X96.811Y-59.86
X97.13Y-48.58
X97.172Y-30.655
X97.4Y-72.0
X97.92Y-62.7
X98.048Y-79.351
X98.39Y-68.38
X99.98Y-40.85
X100.53Y-60.43
X100.7Y-72.4
X101.45Y-47.65
X101.59Y-59.34
X102.4Y-53.35
X102.475Y-44.3
X102.58Y-42.03
X103.475Y-63.1
X104.344Y-40.379
X104.344Y-43.368
X104.347Y-41.377
X104.349Y-42.366
X104.35Y-38.374
X104.353Y-70.233
X104.358Y-72.22
T3
X90.135Y-37.815
X90.135Y-39.165
X90.985Y-37.815
X90.985Y-39.165
X91.835Y-37.815
X91.835Y-39.165
X92.685Y-37.815
X92.685Y-39.165
X93.535Y-37.815
X93.535Y-39.165
X94.385Y-37.815
X94.385Y-39.165
X95.235Y-37.815
X95.235Y-39.165
X96.085Y-37.815
X96.085Y-39.165
T5
X74.67Y-39.83
X74.67Y-42.37
X99.531Y-55.16
X99.531Y-57.7
X103.15Y-55.16
X103.15Y-57.7
T6
X57.37Y-56.5
X57.37Y-59.0
X57.37Y-61.5
X57.37Y-64.0
X57.37Y-66.5
X57.37Y-69.0
X64.675Y-32.525
X67.175Y-32.525
X69.675Y-32.525
X89.2Y-75.2
X89.2Y-77.7
T7
X75.325Y-71.69
X75.325Y-77.19
X79.525Y-71.69
X79.525Y-77.19
X83.725Y-71.69
X83.725Y-77.19
T8
X58.5Y-33.5
X58.5Y-76.5
X101.5Y-33.5
X101.5Y-76.5
T4
X88.785Y-35.205G85X88.785Y-34.405
G05
X88.785Y-38.935G85X88.785Y-37.435
G05
X97.435Y-35.205G85X97.435Y-34.405
G05
X97.435Y-38.935G85X97.435Y-37.435
G05
T0
M30
