%FSLAX45Y45*%
G04 Gerber Fmt 4.5, Leading zero omitted, Abs format (unit mm)*
G04 Created by KiCad (PCBNEW (6.0.2)) date 2022-07-14 22:42:06*
%MOMM*%
%LPD*%
G01*
G04 APERTURE LIST*
%TA.AperFunction,Profile*%
%ADD10C,0.100000*%
%TD*%
%ADD11C,0.200000*%
%ADD12C,0.130000*%
G04 APERTURE END LIST*
D10*
X10500000Y-3350000D02*
G75*
G03*
X10150000Y-3000000I-350000J0D01*
G01*
X5850000Y-3000000D02*
G75*
G03*
X5500000Y-3350000I0J-350000D01*
G01*
X10150000Y-8000000D02*
X5850000Y-8000000D01*
X5500000Y-7650000D02*
X5500000Y-3350000D01*
X5500000Y-7650000D02*
G75*
G03*
X5850000Y-8000000I350000J0D01*
G01*
X5850000Y-3000000D02*
X10150000Y-3000000D01*
X10500000Y-3350000D02*
X10500000Y-7650000D01*
X10150000Y-8000000D02*
G75*
G03*
X10500000Y-7650000I0J350000D01*
G01*
D11*
D12*
X5806000Y-6210000D02*
X5936000Y-6340000D01*
X5936000Y-6210000D02*
X5806000Y-6340000D01*
X6527500Y-3321500D02*
X6657500Y-3451500D01*
X6657500Y-3321500D02*
X6527500Y-3451500D01*
X8989000Y-7580000D02*
X9119000Y-7710000D01*
X9119000Y-7580000D02*
X8989000Y-7710000D01*
D11*
X5752619Y-8315476D02*
X5752619Y-8115476D01*
X5800238Y-8115476D01*
X5828809Y-8125000D01*
X5847857Y-8144048D01*
X5857381Y-8163095D01*
X5866905Y-8201190D01*
X5866905Y-8229762D01*
X5857381Y-8267857D01*
X5847857Y-8286905D01*
X5828809Y-8305952D01*
X5800238Y-8315476D01*
X5752619Y-8315476D01*
X5952619Y-8315476D02*
X5952619Y-8182143D01*
X5952619Y-8220238D02*
X5962143Y-8201190D01*
X5971667Y-8191667D01*
X5990714Y-8182143D01*
X6009762Y-8182143D01*
X6076428Y-8315476D02*
X6076428Y-8182143D01*
X6076428Y-8115476D02*
X6066905Y-8125000D01*
X6076428Y-8134524D01*
X6085952Y-8125000D01*
X6076428Y-8115476D01*
X6076428Y-8134524D01*
X6200238Y-8315476D02*
X6181190Y-8305952D01*
X6171667Y-8286905D01*
X6171667Y-8115476D01*
X6305000Y-8315476D02*
X6285952Y-8305952D01*
X6276428Y-8286905D01*
X6276428Y-8115476D01*
X6533571Y-8315476D02*
X6533571Y-8115476D01*
X6600238Y-8258333D01*
X6666905Y-8115476D01*
X6666905Y-8315476D01*
X6847857Y-8315476D02*
X6847857Y-8210714D01*
X6838333Y-8191667D01*
X6819286Y-8182143D01*
X6781190Y-8182143D01*
X6762143Y-8191667D01*
X6847857Y-8305952D02*
X6828809Y-8315476D01*
X6781190Y-8315476D01*
X6762143Y-8305952D01*
X6752619Y-8286905D01*
X6752619Y-8267857D01*
X6762143Y-8248809D01*
X6781190Y-8239286D01*
X6828809Y-8239286D01*
X6847857Y-8229762D01*
X6943095Y-8182143D02*
X6943095Y-8382143D01*
X6943095Y-8191667D02*
X6962143Y-8182143D01*
X7000238Y-8182143D01*
X7019286Y-8191667D01*
X7028809Y-8201190D01*
X7038333Y-8220238D01*
X7038333Y-8277381D01*
X7028809Y-8296428D01*
X7019286Y-8305952D01*
X7000238Y-8315476D01*
X6962143Y-8315476D01*
X6943095Y-8305952D01*
X7124048Y-8296428D02*
X7133571Y-8305952D01*
X7124048Y-8315476D01*
X7114524Y-8305952D01*
X7124048Y-8296428D01*
X7124048Y-8315476D01*
X7124048Y-8191667D02*
X7133571Y-8201190D01*
X7124048Y-8210714D01*
X7114524Y-8201190D01*
X7124048Y-8191667D01*
X7124048Y-8210714D01*
D12*
X5365000Y-8580000D02*
X5495000Y-8710000D01*
X5495000Y-8580000D02*
X5365000Y-8710000D01*
D11*
X5857381Y-8735476D02*
X5743095Y-8735476D01*
X5800238Y-8735476D02*
X5800238Y-8535476D01*
X5781190Y-8564048D01*
X5762143Y-8583095D01*
X5743095Y-8592619D01*
X5943095Y-8716429D02*
X5952619Y-8725952D01*
X5943095Y-8735476D01*
X5933571Y-8725952D01*
X5943095Y-8716429D01*
X5943095Y-8735476D01*
X6019286Y-8535476D02*
X6143095Y-8535476D01*
X6076428Y-8611667D01*
X6105000Y-8611667D01*
X6124048Y-8621190D01*
X6133571Y-8630714D01*
X6143095Y-8649762D01*
X6143095Y-8697381D01*
X6133571Y-8716429D01*
X6124048Y-8725952D01*
X6105000Y-8735476D01*
X6047857Y-8735476D01*
X6028809Y-8725952D01*
X6019286Y-8716429D01*
X6266905Y-8535476D02*
X6285952Y-8535476D01*
X6305000Y-8545000D01*
X6314524Y-8554524D01*
X6324048Y-8573571D01*
X6333571Y-8611667D01*
X6333571Y-8659286D01*
X6324048Y-8697381D01*
X6314524Y-8716429D01*
X6305000Y-8725952D01*
X6285952Y-8735476D01*
X6266905Y-8735476D01*
X6247857Y-8725952D01*
X6238333Y-8716429D01*
X6228809Y-8697381D01*
X6219286Y-8659286D01*
X6219286Y-8611667D01*
X6228809Y-8573571D01*
X6238333Y-8554524D01*
X6247857Y-8545000D01*
X6266905Y-8535476D01*
X6457381Y-8535476D02*
X6476428Y-8535476D01*
X6495476Y-8545000D01*
X6505000Y-8554524D01*
X6514524Y-8573571D01*
X6524048Y-8611667D01*
X6524048Y-8659286D01*
X6514524Y-8697381D01*
X6505000Y-8716429D01*
X6495476Y-8725952D01*
X6476428Y-8735476D01*
X6457381Y-8735476D01*
X6438333Y-8725952D01*
X6428809Y-8716429D01*
X6419286Y-8697381D01*
X6409762Y-8659286D01*
X6409762Y-8611667D01*
X6419286Y-8573571D01*
X6428809Y-8554524D01*
X6438333Y-8545000D01*
X6457381Y-8535476D01*
X6609762Y-8735476D02*
X6609762Y-8602143D01*
X6609762Y-8621190D02*
X6619286Y-8611667D01*
X6638333Y-8602143D01*
X6666905Y-8602143D01*
X6685952Y-8611667D01*
X6695476Y-8630714D01*
X6695476Y-8735476D01*
X6695476Y-8630714D02*
X6705000Y-8611667D01*
X6724048Y-8602143D01*
X6752619Y-8602143D01*
X6771667Y-8611667D01*
X6781190Y-8630714D01*
X6781190Y-8735476D01*
X6876428Y-8735476D02*
X6876428Y-8602143D01*
X6876428Y-8621190D02*
X6885952Y-8611667D01*
X6905000Y-8602143D01*
X6933571Y-8602143D01*
X6952619Y-8611667D01*
X6962143Y-8630714D01*
X6962143Y-8735476D01*
X6962143Y-8630714D02*
X6971667Y-8611667D01*
X6990714Y-8602143D01*
X7019286Y-8602143D01*
X7038333Y-8611667D01*
X7047857Y-8630714D01*
X7047857Y-8735476D01*
X7438333Y-8525952D02*
X7266905Y-8783095D01*
X7695476Y-8535476D02*
X7714524Y-8535476D01*
X7733571Y-8545000D01*
X7743095Y-8554524D01*
X7752619Y-8573571D01*
X7762143Y-8611667D01*
X7762143Y-8659286D01*
X7752619Y-8697381D01*
X7743095Y-8716429D01*
X7733571Y-8725952D01*
X7714524Y-8735476D01*
X7695476Y-8735476D01*
X7676428Y-8725952D01*
X7666905Y-8716429D01*
X7657381Y-8697381D01*
X7647857Y-8659286D01*
X7647857Y-8611667D01*
X7657381Y-8573571D01*
X7666905Y-8554524D01*
X7676428Y-8545000D01*
X7695476Y-8535476D01*
X7847857Y-8716429D02*
X7857381Y-8725952D01*
X7847857Y-8735476D01*
X7838333Y-8725952D01*
X7847857Y-8716429D01*
X7847857Y-8735476D01*
X7981190Y-8535476D02*
X8000238Y-8535476D01*
X8019286Y-8545000D01*
X8028809Y-8554524D01*
X8038333Y-8573571D01*
X8047857Y-8611667D01*
X8047857Y-8659286D01*
X8038333Y-8697381D01*
X8028809Y-8716429D01*
X8019286Y-8725952D01*
X8000238Y-8735476D01*
X7981190Y-8735476D01*
X7962143Y-8725952D01*
X7952619Y-8716429D01*
X7943095Y-8697381D01*
X7933571Y-8659286D01*
X7933571Y-8611667D01*
X7943095Y-8573571D01*
X7952619Y-8554524D01*
X7962143Y-8545000D01*
X7981190Y-8535476D01*
X8228809Y-8535476D02*
X8133571Y-8535476D01*
X8124048Y-8630714D01*
X8133571Y-8621190D01*
X8152619Y-8611667D01*
X8200238Y-8611667D01*
X8219286Y-8621190D01*
X8228809Y-8630714D01*
X8238333Y-8649762D01*
X8238333Y-8697381D01*
X8228809Y-8716429D01*
X8219286Y-8725952D01*
X8200238Y-8735476D01*
X8152619Y-8735476D01*
X8133571Y-8725952D01*
X8124048Y-8716429D01*
X8428810Y-8735476D02*
X8314524Y-8735476D01*
X8371667Y-8735476D02*
X8371667Y-8535476D01*
X8352619Y-8564048D01*
X8333571Y-8583095D01*
X8314524Y-8592619D01*
X8505000Y-8554524D02*
X8514524Y-8545000D01*
X8533571Y-8535476D01*
X8581190Y-8535476D01*
X8600238Y-8545000D01*
X8609762Y-8554524D01*
X8619286Y-8573571D01*
X8619286Y-8592619D01*
X8609762Y-8621190D01*
X8495476Y-8735476D01*
X8619286Y-8735476D01*
X8695476Y-8535476D02*
X8695476Y-8573571D01*
X8771667Y-8535476D02*
X8771667Y-8573571D01*
X9066905Y-8811667D02*
X9057381Y-8802143D01*
X9038333Y-8773571D01*
X9028810Y-8754524D01*
X9019286Y-8725952D01*
X9009762Y-8678333D01*
X9009762Y-8640238D01*
X9019286Y-8592619D01*
X9028810Y-8564048D01*
X9038333Y-8545000D01*
X9057381Y-8516429D01*
X9066905Y-8506905D01*
X9124048Y-8535476D02*
X9247857Y-8535476D01*
X9181190Y-8611667D01*
X9209762Y-8611667D01*
X9228810Y-8621190D01*
X9238333Y-8630714D01*
X9247857Y-8649762D01*
X9247857Y-8697381D01*
X9238333Y-8716429D01*
X9228810Y-8725952D01*
X9209762Y-8735476D01*
X9152619Y-8735476D01*
X9133571Y-8725952D01*
X9124048Y-8716429D01*
X9485952Y-8735476D02*
X9485952Y-8535476D01*
X9571667Y-8735476D02*
X9571667Y-8630714D01*
X9562143Y-8611667D01*
X9543095Y-8602143D01*
X9514524Y-8602143D01*
X9495476Y-8611667D01*
X9485952Y-8621190D01*
X9695476Y-8735476D02*
X9676429Y-8725952D01*
X9666905Y-8716429D01*
X9657381Y-8697381D01*
X9657381Y-8640238D01*
X9666905Y-8621190D01*
X9676429Y-8611667D01*
X9695476Y-8602143D01*
X9724048Y-8602143D01*
X9743095Y-8611667D01*
X9752619Y-8621190D01*
X9762143Y-8640238D01*
X9762143Y-8697381D01*
X9752619Y-8716429D01*
X9743095Y-8725952D01*
X9724048Y-8735476D01*
X9695476Y-8735476D01*
X9876429Y-8735476D02*
X9857381Y-8725952D01*
X9847857Y-8706905D01*
X9847857Y-8535476D01*
X10028810Y-8725952D02*
X10009762Y-8735476D01*
X9971667Y-8735476D01*
X9952619Y-8725952D01*
X9943095Y-8706905D01*
X9943095Y-8630714D01*
X9952619Y-8611667D01*
X9971667Y-8602143D01*
X10009762Y-8602143D01*
X10028810Y-8611667D01*
X10038333Y-8630714D01*
X10038333Y-8649762D01*
X9943095Y-8668810D01*
X10114524Y-8725952D02*
X10133571Y-8735476D01*
X10171667Y-8735476D01*
X10190714Y-8725952D01*
X10200238Y-8706905D01*
X10200238Y-8697381D01*
X10190714Y-8678333D01*
X10171667Y-8668810D01*
X10143095Y-8668810D01*
X10124048Y-8659286D01*
X10114524Y-8640238D01*
X10114524Y-8630714D01*
X10124048Y-8611667D01*
X10143095Y-8602143D01*
X10171667Y-8602143D01*
X10190714Y-8611667D01*
X10266905Y-8811667D02*
X10276429Y-8802143D01*
X10295476Y-8773571D01*
X10305000Y-8754524D01*
X10314524Y-8725952D01*
X10324048Y-8678333D01*
X10324048Y-8640238D01*
X10314524Y-8592619D01*
X10305000Y-8564048D01*
X10295476Y-8545000D01*
X10276429Y-8516429D01*
X10266905Y-8506905D01*
X10628810Y-8811667D02*
X10619286Y-8802143D01*
X10600238Y-8773571D01*
X10590714Y-8754524D01*
X10581190Y-8725952D01*
X10571667Y-8678333D01*
X10571667Y-8640238D01*
X10581190Y-8592619D01*
X10590714Y-8564048D01*
X10600238Y-8545000D01*
X10619286Y-8516429D01*
X10628810Y-8506905D01*
X10705000Y-8602143D02*
X10705000Y-8735476D01*
X10705000Y-8621190D02*
X10714524Y-8611667D01*
X10733571Y-8602143D01*
X10762143Y-8602143D01*
X10781190Y-8611667D01*
X10790714Y-8630714D01*
X10790714Y-8735476D01*
X10914524Y-8735476D02*
X10895476Y-8725952D01*
X10885952Y-8716429D01*
X10876429Y-8697381D01*
X10876429Y-8640238D01*
X10885952Y-8621190D01*
X10895476Y-8611667D01*
X10914524Y-8602143D01*
X10943095Y-8602143D01*
X10962143Y-8611667D01*
X10971667Y-8621190D01*
X10981190Y-8640238D01*
X10981190Y-8697381D01*
X10971667Y-8716429D01*
X10962143Y-8725952D01*
X10943095Y-8735476D01*
X10914524Y-8735476D01*
X11038333Y-8602143D02*
X11114524Y-8602143D01*
X11066905Y-8535476D02*
X11066905Y-8706905D01*
X11076429Y-8725952D01*
X11095476Y-8735476D01*
X11114524Y-8735476D01*
X11333571Y-8602143D02*
X11333571Y-8802143D01*
X11333571Y-8611667D02*
X11352619Y-8602143D01*
X11390714Y-8602143D01*
X11409762Y-8611667D01*
X11419286Y-8621190D01*
X11428809Y-8640238D01*
X11428809Y-8697381D01*
X11419286Y-8716429D01*
X11409762Y-8725952D01*
X11390714Y-8735476D01*
X11352619Y-8735476D01*
X11333571Y-8725952D01*
X11543095Y-8735476D02*
X11524048Y-8725952D01*
X11514524Y-8706905D01*
X11514524Y-8535476D01*
X11705000Y-8735476D02*
X11705000Y-8630714D01*
X11695476Y-8611667D01*
X11676428Y-8602143D01*
X11638333Y-8602143D01*
X11619286Y-8611667D01*
X11705000Y-8725952D02*
X11685952Y-8735476D01*
X11638333Y-8735476D01*
X11619286Y-8725952D01*
X11609762Y-8706905D01*
X11609762Y-8687857D01*
X11619286Y-8668810D01*
X11638333Y-8659286D01*
X11685952Y-8659286D01*
X11705000Y-8649762D01*
X11771667Y-8602143D02*
X11847857Y-8602143D01*
X11800238Y-8535476D02*
X11800238Y-8706905D01*
X11809762Y-8725952D01*
X11828809Y-8735476D01*
X11847857Y-8735476D01*
X11990714Y-8725952D02*
X11971667Y-8735476D01*
X11933571Y-8735476D01*
X11914524Y-8725952D01*
X11905000Y-8706905D01*
X11905000Y-8630714D01*
X11914524Y-8611667D01*
X11933571Y-8602143D01*
X11971667Y-8602143D01*
X11990714Y-8611667D01*
X12000238Y-8630714D01*
X12000238Y-8649762D01*
X11905000Y-8668810D01*
X12171667Y-8735476D02*
X12171667Y-8535476D01*
X12171667Y-8725952D02*
X12152619Y-8735476D01*
X12114524Y-8735476D01*
X12095476Y-8725952D01*
X12085952Y-8716429D01*
X12076428Y-8697381D01*
X12076428Y-8640238D01*
X12085952Y-8621190D01*
X12095476Y-8611667D01*
X12114524Y-8602143D01*
X12152619Y-8602143D01*
X12171667Y-8611667D01*
X12247857Y-8811667D02*
X12257381Y-8802143D01*
X12276428Y-8773571D01*
X12285952Y-8754524D01*
X12295476Y-8725952D01*
X12305000Y-8678333D01*
X12305000Y-8640238D01*
X12295476Y-8592619D01*
X12285952Y-8564048D01*
X12276428Y-8545000D01*
X12257381Y-8516429D01*
X12247857Y-8506905D01*
M02*
