%TF.GenerationSoftware,KiCad,Pcbnew,(7.0.0)*%
%TF.CreationDate,2023-03-15T16:02:59+00:00*%
%TF.ProjectId,Chad,43686164-2e6b-4696-9361-645f70636258,rev?*%
%TF.SameCoordinates,Original*%
%TF.FileFunction,Copper,L2,Inr*%
%TF.FilePolarity,Positive*%
%FSLAX46Y46*%
G04 Gerber Fmt 4.6, Leading zero omitted, Abs format (unit mm)*
G04 Created by KiCad (PCBNEW (7.0.0)) date 2023-03-15 16:02:59*
%MOMM*%
%LPD*%
G01*
G04 APERTURE LIST*
G04 Aperture macros list*
%AMRoundRect*
0 Rectangle with rounded corners*
0 $1 Rounding radius*
0 $2 $3 $4 $5 $6 $7 $8 $9 X,Y pos of 4 corners*
0 Add a 4 corners polygon primitive as box body*
4,1,4,$2,$3,$4,$5,$6,$7,$8,$9,$2,$3,0*
0 Add four circle primitives for the rounded corners*
1,1,$1+$1,$2,$3*
1,1,$1+$1,$4,$5*
1,1,$1+$1,$6,$7*
1,1,$1+$1,$8,$9*
0 Add four rect primitives between the rounded corners*
20,1,$1+$1,$2,$3,$4,$5,0*
20,1,$1+$1,$4,$5,$6,$7,0*
20,1,$1+$1,$6,$7,$8,$9,0*
20,1,$1+$1,$8,$9,$2,$3,0*%
G04 Aperture macros list end*
%TA.AperFunction,ComponentPad*%
%ADD10RoundRect,0.250000X-0.850000X-0.600000X0.850000X-0.600000X0.850000X0.600000X-0.850000X0.600000X0*%
%TD*%
%TA.AperFunction,ComponentPad*%
%ADD11O,2.200000X1.700000*%
%TD*%
%TA.AperFunction,ComponentPad*%
%ADD12C,5.600000*%
%TD*%
%TA.AperFunction,ComponentPad*%
%ADD13R,1.700000X1.700000*%
%TD*%
%TA.AperFunction,ComponentPad*%
%ADD14O,1.700000X1.700000*%
%TD*%
%TA.AperFunction,ComponentPad*%
%ADD15O,0.900000X2.000000*%
%TD*%
%TA.AperFunction,ComponentPad*%
%ADD16O,0.900000X1.700000*%
%TD*%
%TA.AperFunction,ComponentPad*%
%ADD17RoundRect,0.250001X1.599999X-1.099999X1.599999X1.099999X-1.599999X1.099999X-1.599999X-1.099999X0*%
%TD*%
%TA.AperFunction,ComponentPad*%
%ADD18O,3.700000X2.700000*%
%TD*%
%TA.AperFunction,ViaPad*%
%ADD19C,0.450000*%
%TD*%
%TA.AperFunction,ViaPad*%
%ADD20C,0.600000*%
%TD*%
%TA.AperFunction,ViaPad*%
%ADD21C,0.800000*%
%TD*%
%TA.AperFunction,ViaPad*%
%ADD22C,0.500000*%
%TD*%
G04 APERTURE END LIST*
D10*
%TO.N,GND*%
%TO.C,J4*%
X55791590Y-80754955D03*
D11*
%TO.N,+6V*%
X55791589Y-83254954D03*
%TO.N,/Servo2PWM*%
X55791589Y-85754954D03*
%TD*%
D12*
%TO.N,GND*%
%TO.C,H3*%
X59000000Y-99090000D03*
%TD*%
D13*
%TO.N,GND*%
%TO.C,ENJUMPER1*%
X60216231Y-67272659D03*
D14*
%TO.N,/CHIP_PU*%
X60216231Y-64732659D03*
%TD*%
D15*
%TO.N,GND*%
%TO.C,J5*%
X54882999Y-48881999D03*
D16*
X54882999Y-44711999D03*
D15*
X46242999Y-48881999D03*
D16*
X46242999Y-44711999D03*
%TD*%
D13*
%TO.N,GND*%
%TO.C,J2*%
X60215721Y-49923067D03*
D14*
%TO.N,/GPIO0*%
X57675721Y-49923067D03*
%TO.N,/GPIO1*%
X60215721Y-52463067D03*
%TO.N,/GPIO2*%
X57675721Y-52463067D03*
%TO.N,+3V3*%
X60215721Y-55003067D03*
%TO.N,/GPIO3*%
X57675721Y-55003067D03*
%TO.N,/GPIO4*%
X60215721Y-57543067D03*
%TO.N,/GPIO5*%
X57675721Y-57543067D03*
%TD*%
D13*
%TO.N,GND*%
%TO.C,BOOTJUMPER1*%
X60214777Y-61126856D03*
D14*
%TO.N,/BOOT*%
X57674777Y-61126856D03*
%TD*%
D12*
%TO.N,GND*%
%TO.C,H4*%
X35000000Y-45090000D03*
%TD*%
D10*
%TO.N,GND*%
%TO.C,J3*%
X55790000Y-71309458D03*
D11*
%TO.N,+6V*%
X55789999Y-73809457D03*
%TO.N,/Servo1PWM*%
X55789999Y-76309457D03*
%TD*%
D12*
%TO.N,GND*%
%TO.C,H2*%
X59000000Y-45090000D03*
%TD*%
D17*
%TO.N,GND*%
%TO.C,J1*%
X37375000Y-79790000D03*
D18*
X37374999Y-75589999D03*
%TO.N,RBUS_uC_V*%
X37374999Y-71389999D03*
%TO.N,+12V*%
X42874999Y-79789999D03*
%TO.N,/CAN+*%
X42874999Y-75589999D03*
%TO.N,/CAN-*%
X42874999Y-71389999D03*
%TD*%
D12*
%TO.N,GND*%
%TO.C,H1*%
X35000000Y-99090000D03*
%TD*%
D19*
%TO.N,+3V3*%
X46825000Y-66275000D03*
D20*
%TO.N,RBUS_uC_V*%
X42400000Y-52400000D03*
D19*
%TO.N,+3V3*%
X57055705Y-65576723D03*
X54080000Y-66120000D03*
%TO.N,GND*%
X52850000Y-69950000D03*
X55950000Y-63275000D03*
D20*
X61400000Y-59075000D03*
X32600000Y-90275000D03*
X32600000Y-82775000D03*
X32600000Y-75225000D03*
X61400000Y-54075000D03*
D19*
X53125000Y-68925000D03*
X47550000Y-87850000D03*
X50224110Y-65974906D03*
D20*
X61400000Y-74125000D03*
D19*
X34700000Y-61320000D03*
X55125000Y-67325000D03*
D20*
X47522000Y-61252000D03*
D21*
X34800000Y-93300000D03*
D20*
X61400000Y-76625000D03*
D21*
X33450000Y-53890000D03*
D19*
X50373703Y-70321851D03*
X52000000Y-66425108D03*
D21*
X34850000Y-91350000D03*
D19*
X46975000Y-89000000D03*
D20*
X32600000Y-67725000D03*
X50025000Y-42700000D03*
X32600000Y-60175000D03*
D19*
X47779626Y-68653703D03*
D20*
X45025000Y-42700000D03*
D19*
X52000000Y-65945108D03*
D20*
X32600000Y-72725000D03*
X51059000Y-61227000D03*
X51047000Y-62943000D03*
X61400000Y-81625000D03*
D19*
X55425000Y-60475000D03*
D21*
X37000000Y-93250000D03*
D20*
X51000000Y-53925000D03*
X32600000Y-87775000D03*
D21*
X40650000Y-93350000D03*
D19*
X51875000Y-65425000D03*
X47470000Y-53430000D03*
D20*
X55075000Y-42700000D03*
X61400000Y-89175000D03*
D21*
X53950000Y-91000000D03*
D20*
X32600000Y-85275000D03*
D19*
X45775000Y-89700000D03*
X50224110Y-66474906D03*
X45725000Y-89000000D03*
D20*
X47530000Y-59471000D03*
X61400000Y-94175000D03*
D21*
X53950000Y-88450000D03*
X45300000Y-81125000D03*
D20*
X39025000Y-101475000D03*
X32600000Y-77725000D03*
D19*
X53093497Y-67993314D03*
D20*
X49025000Y-101475000D03*
D19*
X58200000Y-64825000D03*
X50223902Y-65475683D03*
X46675000Y-83875000D03*
D20*
X61400000Y-79125000D03*
X48990000Y-68322000D03*
X32600000Y-92775000D03*
X54075000Y-101475000D03*
X51706000Y-69327000D03*
X32600000Y-54975000D03*
D19*
X45610000Y-65770000D03*
D20*
X61400000Y-84175000D03*
X32599500Y-58100000D03*
D19*
X51520000Y-56660000D03*
D20*
X61400000Y-86675000D03*
X49308000Y-62966000D03*
D21*
X51250000Y-92800000D03*
D20*
X46525000Y-101475000D03*
D21*
X38900000Y-93250000D03*
D20*
X39925000Y-42700000D03*
D21*
X36475000Y-54125000D03*
D20*
X32600000Y-95275000D03*
D19*
X49820374Y-67275749D03*
X51860446Y-70311334D03*
X57200000Y-67600000D03*
X34700000Y-62350000D03*
D20*
X49334000Y-59451000D03*
D19*
X43475000Y-44650000D03*
D20*
X41525000Y-101475000D03*
X32600000Y-70225000D03*
X32600000Y-50175000D03*
X47525000Y-42700000D03*
X61400000Y-64075000D03*
D19*
X42540216Y-42617260D03*
D20*
X61400000Y-56575000D03*
X61400000Y-69125000D03*
X61400000Y-71625000D03*
D19*
X49040000Y-70315311D03*
D20*
X32600000Y-52675000D03*
X51525000Y-101475000D03*
D19*
X56600000Y-63675000D03*
D20*
X61400000Y-51575000D03*
D19*
X52000000Y-66905108D03*
X47050000Y-89700000D03*
X52300000Y-67524447D03*
D21*
X36850000Y-91450000D03*
D20*
X61400000Y-91675000D03*
D19*
X48872032Y-67325677D03*
D20*
X32600000Y-62675000D03*
D21*
X39000000Y-91550000D03*
D20*
X49317000Y-61213000D03*
X47650000Y-62875000D03*
D19*
X41550000Y-65950000D03*
D21*
X40950000Y-91600000D03*
D20*
X32600000Y-80225000D03*
D19*
X47789135Y-69721355D03*
X47925000Y-88925000D03*
D20*
X32600000Y-65225000D03*
X44372814Y-47128492D03*
X54100000Y-79775000D03*
D21*
X51700000Y-91650000D03*
D19*
X50225000Y-66975000D03*
D20*
X51033000Y-59426000D03*
X44025000Y-101475000D03*
X52575000Y-42700000D03*
D19*
%TO.N,+3V3*%
X53900000Y-61280000D03*
X50110000Y-56030000D03*
D20*
X41394215Y-56136334D03*
D19*
X43100000Y-67000000D03*
X50260000Y-72100000D03*
D21*
X35320508Y-48849814D03*
D19*
X39900000Y-66150000D03*
D22*
%TO.N,Net-(JP1-B)*%
X42200000Y-57412000D03*
X37347000Y-60525000D03*
D19*
%TO.N,VBUS*%
X40020000Y-43890000D03*
X43680000Y-43970000D03*
D20*
%TO.N,RBUS_uC_V*%
X40550000Y-43275000D03*
D21*
%TO.N,+12V*%
X40400000Y-84400000D03*
D19*
X45825000Y-87850000D03*
D21*
X40400000Y-85850000D03*
X42550000Y-85950000D03*
X38100000Y-85850000D03*
X35650000Y-84400000D03*
X42650000Y-84400000D03*
X38100000Y-84400000D03*
X35700000Y-85850000D03*
D19*
%TO.N,/Servo1PWM*%
X46825000Y-62600000D03*
%TO.N,/BuckPGOOD*%
X46960000Y-74400000D03*
X45170000Y-64655000D03*
%TO.N,/Power/LX1*%
X38153576Y-48096290D03*
X38163173Y-46941885D03*
X38747818Y-46941885D03*
X41510000Y-48103306D03*
X38778579Y-48097381D03*
X40711404Y-47130000D03*
X40710000Y-47589492D03*
%TO.N,/Power/LX2*%
X38097686Y-50302139D03*
X38760000Y-49150000D03*
X38808858Y-50303229D03*
X40680000Y-49571000D03*
X38129580Y-49153664D03*
X41540000Y-49120000D03*
X40675000Y-50050000D03*
D21*
%TO.N,+6V*%
X47440000Y-96560000D03*
X44580000Y-100470000D03*
X50380000Y-98470000D03*
X47440000Y-100450000D03*
X42030000Y-100480000D03*
X50380000Y-100470000D03*
X42030000Y-97510000D03*
X50380000Y-99440000D03*
X44580000Y-96580000D03*
X42030000Y-99450000D03*
X50380000Y-97500000D03*
X42030000Y-96590000D03*
X50380000Y-96580000D03*
X42030000Y-98480000D03*
D19*
%TO.N,/Servo2PWM*%
X46775000Y-63825000D03*
%TO.N,/buckC/VDD*%
X51389000Y-87996000D03*
X48375000Y-83850000D03*
%TO.N,/buckC/PGOOD*%
X50090000Y-88782168D03*
X47450000Y-76250000D03*
%TD*%
%TA.AperFunction,Conductor*%
%TO.N,GND*%
G36*
X59002777Y-42390655D02*
G01*
X59296701Y-42407162D01*
X59307724Y-42408404D01*
X59595224Y-42457252D01*
X59606018Y-42459715D01*
X59886251Y-42540449D01*
X59896722Y-42544113D01*
X60166134Y-42655708D01*
X60176136Y-42660525D01*
X60431354Y-42801578D01*
X60440755Y-42807485D01*
X60678575Y-42976228D01*
X60687254Y-42983149D01*
X60717388Y-43010078D01*
X60904697Y-43177467D01*
X60912532Y-43185302D01*
X61006053Y-43289952D01*
X61106850Y-43402745D01*
X61113771Y-43411424D01*
X61282514Y-43649244D01*
X61288421Y-43658645D01*
X61429474Y-43913863D01*
X61434291Y-43923865D01*
X61545884Y-44193273D01*
X61549551Y-44203752D01*
X61630280Y-44483966D01*
X61632750Y-44494790D01*
X61681594Y-44782270D01*
X61682837Y-44793302D01*
X61699344Y-45087222D01*
X61699500Y-45092773D01*
X61699500Y-48678650D01*
X55825000Y-48750000D01*
X55848783Y-42390500D01*
X58952405Y-42390500D01*
X58997227Y-42390500D01*
X59002777Y-42390655D01*
G37*
%TD.AperFunction*%
%TD*%
%TA.AperFunction,Conductor*%
%TO.N,GND*%
G36*
X38665605Y-46524101D02*
G01*
X38622386Y-46530947D01*
X38622383Y-46530947D01*
X38614692Y-46532166D01*
X38607754Y-46535700D01*
X38607751Y-46535702D01*
X38500440Y-46590380D01*
X38455495Y-46601170D01*
X38410550Y-46590380D01*
X38303239Y-46535702D01*
X38303238Y-46535701D01*
X38296299Y-46532166D01*
X38288605Y-46530947D01*
X38288604Y-46530947D01*
X38170869Y-46512300D01*
X38163173Y-46511081D01*
X38155477Y-46512300D01*
X38037741Y-46530947D01*
X38037738Y-46530947D01*
X38030047Y-46532166D01*
X38023109Y-46535700D01*
X38023106Y-46535702D01*
X37916892Y-46589821D01*
X37916890Y-46589822D01*
X37909953Y-46593357D01*
X37904449Y-46598860D01*
X37904446Y-46598863D01*
X37820151Y-46683158D01*
X37820148Y-46683161D01*
X37814645Y-46688665D01*
X37811110Y-46695602D01*
X37811109Y-46695604D01*
X37756990Y-46801818D01*
X37756988Y-46801821D01*
X37753454Y-46808759D01*
X37732369Y-46941885D01*
X37753454Y-47075011D01*
X37814645Y-47195105D01*
X37909953Y-47290413D01*
X38030047Y-47351604D01*
X38163173Y-47372689D01*
X38296299Y-47351604D01*
X38410551Y-47293389D01*
X38455495Y-47282599D01*
X38500440Y-47293390D01*
X38607746Y-47348066D01*
X38607752Y-47348068D01*
X38614692Y-47351604D01*
X38682712Y-47362377D01*
X38689209Y-47680731D01*
X38653147Y-47686443D01*
X38653144Y-47686443D01*
X38645453Y-47687662D01*
X38638515Y-47691196D01*
X38638512Y-47691198D01*
X38532299Y-47745316D01*
X38532294Y-47745318D01*
X38525359Y-47748853D01*
X38522924Y-47751287D01*
X38466827Y-47769513D01*
X38410123Y-47751089D01*
X38406796Y-47747762D01*
X38399855Y-47744225D01*
X38399852Y-47744223D01*
X38293642Y-47690107D01*
X38293641Y-47690106D01*
X38286702Y-47686571D01*
X38279008Y-47685352D01*
X38279007Y-47685352D01*
X38161272Y-47666705D01*
X38153576Y-47665486D01*
X38145880Y-47666705D01*
X38028144Y-47685352D01*
X38028141Y-47685352D01*
X38020450Y-47686571D01*
X38013512Y-47690105D01*
X38013509Y-47690107D01*
X37907295Y-47744226D01*
X37907293Y-47744227D01*
X37900356Y-47747762D01*
X37894852Y-47753265D01*
X37894849Y-47753268D01*
X37810554Y-47837563D01*
X37810551Y-47837566D01*
X37805048Y-47843070D01*
X37801513Y-47850007D01*
X37801512Y-47850009D01*
X37747393Y-47956223D01*
X37747391Y-47956226D01*
X37743857Y-47963164D01*
X37722772Y-48096290D01*
X37743857Y-48229416D01*
X37805048Y-48349510D01*
X37900356Y-48444818D01*
X38020450Y-48506009D01*
X38153576Y-48527094D01*
X38286702Y-48506009D01*
X38406796Y-48444818D01*
X38409682Y-48441931D01*
X38444740Y-48426321D01*
X38485908Y-48426320D01*
X38521709Y-48442259D01*
X38525359Y-48445909D01*
X38645453Y-48507100D01*
X38706271Y-48516732D01*
X38710562Y-48727025D01*
X38634568Y-48739062D01*
X38634565Y-48739062D01*
X38626874Y-48740281D01*
X38619936Y-48743815D01*
X38619933Y-48743817D01*
X38513717Y-48797937D01*
X38513715Y-48797938D01*
X38506780Y-48801472D01*
X38501277Y-48806974D01*
X38500455Y-48807572D01*
X38442267Y-48826477D01*
X38385791Y-48808127D01*
X38382800Y-48805136D01*
X38375864Y-48801601D01*
X38375860Y-48801599D01*
X38269646Y-48747481D01*
X38269645Y-48747480D01*
X38262706Y-48743945D01*
X38255012Y-48742726D01*
X38255011Y-48742726D01*
X38137276Y-48724079D01*
X38129580Y-48722860D01*
X38121884Y-48724079D01*
X38004148Y-48742726D01*
X38004145Y-48742726D01*
X37996454Y-48743945D01*
X37989516Y-48747479D01*
X37989513Y-48747481D01*
X37883299Y-48801600D01*
X37883297Y-48801601D01*
X37876360Y-48805136D01*
X37870856Y-48810639D01*
X37870853Y-48810642D01*
X37786558Y-48894937D01*
X37786555Y-48894940D01*
X37781052Y-48900444D01*
X37777517Y-48907381D01*
X37777516Y-48907383D01*
X37723397Y-49013597D01*
X37723395Y-49013600D01*
X37719861Y-49020538D01*
X37698776Y-49153664D01*
X37699995Y-49161360D01*
X37717667Y-49272942D01*
X37719861Y-49286790D01*
X37723396Y-49293729D01*
X37723397Y-49293730D01*
X37732297Y-49311197D01*
X35685209Y-49326882D01*
X35748790Y-49278096D01*
X35845044Y-49152655D01*
X35905552Y-49006576D01*
X35926190Y-48849814D01*
X35905552Y-48693052D01*
X35845044Y-48546973D01*
X35748790Y-48421532D01*
X35662104Y-48355016D01*
X35628497Y-48329228D01*
X35628496Y-48329227D01*
X35623349Y-48325278D01*
X35617355Y-48322795D01*
X35617353Y-48322794D01*
X35483267Y-48267254D01*
X35483266Y-48267253D01*
X35477270Y-48264770D01*
X35470839Y-48263923D01*
X35470834Y-48263922D01*
X35326942Y-48244979D01*
X35320508Y-48244132D01*
X35314074Y-48244979D01*
X35170181Y-48263922D01*
X35170174Y-48263923D01*
X35163746Y-48264770D01*
X35157751Y-48267253D01*
X35157748Y-48267254D01*
X35023662Y-48322794D01*
X35023657Y-48322796D01*
X35017667Y-48325278D01*
X35012523Y-48329225D01*
X35012518Y-48329228D01*
X34897379Y-48417577D01*
X34897374Y-48417581D01*
X34892226Y-48421532D01*
X34888275Y-48426680D01*
X34888271Y-48426685D01*
X34799922Y-48541824D01*
X34799919Y-48541829D01*
X34795972Y-48546973D01*
X34793490Y-48552963D01*
X34793488Y-48552968D01*
X34737948Y-48687054D01*
X34735464Y-48693052D01*
X34734617Y-48699480D01*
X34734616Y-48699487D01*
X34721173Y-48801600D01*
X34714826Y-48849814D01*
X34715673Y-48856248D01*
X34734616Y-49000140D01*
X34734617Y-49000145D01*
X34735464Y-49006576D01*
X34795972Y-49152655D01*
X34799921Y-49157802D01*
X34799922Y-49157803D01*
X34802651Y-49161360D01*
X34892226Y-49278096D01*
X34963018Y-49332417D01*
X32300500Y-49352820D01*
X32300500Y-45092773D01*
X32300656Y-45087222D01*
X32317162Y-44793302D01*
X32318405Y-44782270D01*
X32367253Y-44494771D01*
X32369714Y-44483985D01*
X32450451Y-44203742D01*
X32454111Y-44193283D01*
X32565711Y-43923858D01*
X32570525Y-43913863D01*
X32575101Y-43905584D01*
X32711583Y-43658636D01*
X32717479Y-43649253D01*
X32886230Y-43411421D01*
X32893149Y-43402745D01*
X33087475Y-43185293D01*
X33095293Y-43177475D01*
X33312748Y-42983146D01*
X33321424Y-42976228D01*
X33559253Y-42807479D01*
X33568636Y-42801583D01*
X33823869Y-42660522D01*
X33833858Y-42655711D01*
X34103283Y-42544111D01*
X34113742Y-42540451D01*
X34393985Y-42459714D01*
X34404771Y-42457253D01*
X34692277Y-42408404D01*
X34703296Y-42407162D01*
X34997222Y-42390655D01*
X35002773Y-42390500D01*
X38581246Y-42390500D01*
X38665605Y-46524101D01*
G37*
%TD.AperFunction*%
%TD*%
%TA.AperFunction,Conductor*%
%TO.N,GND*%
G36*
X50284317Y-85198133D02*
G01*
X50223960Y-88372874D01*
X50223126Y-88372449D01*
X50215432Y-88371230D01*
X50215431Y-88371230D01*
X50097696Y-88352583D01*
X50090000Y-88351364D01*
X50082304Y-88352583D01*
X49964568Y-88371230D01*
X49964565Y-88371230D01*
X49956874Y-88372449D01*
X49949936Y-88375983D01*
X49949933Y-88375985D01*
X49843719Y-88430104D01*
X49843717Y-88430105D01*
X49836780Y-88433640D01*
X49831276Y-88439143D01*
X49831273Y-88439146D01*
X49746978Y-88523441D01*
X49746975Y-88523444D01*
X49741472Y-88528948D01*
X49737937Y-88535885D01*
X49737936Y-88535887D01*
X49683817Y-88642101D01*
X49683815Y-88642104D01*
X49680281Y-88649042D01*
X49659196Y-88782168D01*
X49680281Y-88915294D01*
X49741472Y-89035388D01*
X49836780Y-89130696D01*
X49956874Y-89191887D01*
X50090000Y-89212972D01*
X50208344Y-89194228D01*
X50159317Y-91773133D01*
X43984317Y-91848133D01*
X43999269Y-87850000D01*
X45394196Y-87850000D01*
X45415281Y-87983126D01*
X45476472Y-88103220D01*
X45571780Y-88198528D01*
X45691874Y-88259719D01*
X45825000Y-88280804D01*
X45958126Y-88259719D01*
X46078220Y-88198528D01*
X46173528Y-88103220D01*
X46234719Y-87983126D01*
X46255804Y-87850000D01*
X46234719Y-87716874D01*
X46173528Y-87596780D01*
X46078220Y-87501472D01*
X45958126Y-87440281D01*
X45950432Y-87439062D01*
X45950431Y-87439062D01*
X45832696Y-87420415D01*
X45825000Y-87419196D01*
X45817304Y-87420415D01*
X45699568Y-87439062D01*
X45699565Y-87439062D01*
X45691874Y-87440281D01*
X45684936Y-87443815D01*
X45684933Y-87443817D01*
X45578719Y-87497936D01*
X45578717Y-87497937D01*
X45571780Y-87501472D01*
X45566276Y-87506975D01*
X45566273Y-87506978D01*
X45481978Y-87591273D01*
X45481975Y-87591276D01*
X45476472Y-87596780D01*
X45472937Y-87603717D01*
X45472936Y-87603719D01*
X45418817Y-87709933D01*
X45418815Y-87709936D01*
X45415281Y-87716874D01*
X45394196Y-87850000D01*
X43999269Y-87850000D01*
X44009317Y-85163133D01*
X50284317Y-85198133D01*
G37*
%TD.AperFunction*%
%TD*%
%TA.AperFunction,Conductor*%
%TO.N,GND*%
G36*
X55825000Y-48750000D02*
G01*
X61699500Y-48678650D01*
X61699500Y-99087917D01*
X61699384Y-99092066D01*
X61682758Y-99388106D01*
X61681828Y-99396352D01*
X61632515Y-99686591D01*
X61630669Y-99694682D01*
X61549163Y-99977595D01*
X61546422Y-99985428D01*
X61433755Y-100257428D01*
X61430155Y-100264904D01*
X61287740Y-100522587D01*
X61283324Y-100529614D01*
X61112962Y-100769716D01*
X61107789Y-100776204D01*
X60911604Y-100995736D01*
X60905736Y-101001604D01*
X60686204Y-101197789D01*
X60679716Y-101202962D01*
X60439614Y-101373324D01*
X60432587Y-101377740D01*
X60174904Y-101520155D01*
X60167428Y-101523755D01*
X59895428Y-101636422D01*
X59887595Y-101639163D01*
X59604682Y-101720669D01*
X59596591Y-101722515D01*
X59306352Y-101771828D01*
X59298106Y-101772758D01*
X59002066Y-101789384D01*
X58997917Y-101789500D01*
X35002083Y-101789500D01*
X34997934Y-101789384D01*
X34701893Y-101772758D01*
X34693647Y-101771828D01*
X34403408Y-101722515D01*
X34395317Y-101720669D01*
X34112404Y-101639163D01*
X34104571Y-101636422D01*
X33832571Y-101523755D01*
X33825095Y-101520155D01*
X33567412Y-101377740D01*
X33560385Y-101373324D01*
X33320283Y-101202962D01*
X33313795Y-101197789D01*
X33111449Y-101016962D01*
X33094258Y-101001599D01*
X33088400Y-100995741D01*
X32892209Y-100776203D01*
X32887037Y-100769716D01*
X32868180Y-100743140D01*
X32716671Y-100529608D01*
X32712263Y-100522594D01*
X32688722Y-100480000D01*
X41474750Y-100480000D01*
X41493670Y-100623709D01*
X41495525Y-100628189D01*
X41495526Y-100628190D01*
X41546591Y-100751475D01*
X41549139Y-100757625D01*
X41637379Y-100872621D01*
X41752375Y-100960861D01*
X41886291Y-101016330D01*
X42030000Y-101035250D01*
X42173709Y-101016330D01*
X42307625Y-100960861D01*
X42422621Y-100872621D01*
X42510861Y-100757625D01*
X42566330Y-100623709D01*
X42585250Y-100480000D01*
X42583933Y-100470000D01*
X44024750Y-100470000D01*
X44043670Y-100613709D01*
X44045525Y-100618189D01*
X44045526Y-100618190D01*
X44092449Y-100731475D01*
X44099139Y-100747625D01*
X44102092Y-100751473D01*
X44102093Y-100751475D01*
X44169077Y-100838770D01*
X44187379Y-100862621D01*
X44302375Y-100950861D01*
X44436291Y-101006330D01*
X44580000Y-101025250D01*
X44723709Y-101006330D01*
X44857625Y-100950861D01*
X44972621Y-100862621D01*
X45060861Y-100747625D01*
X45116330Y-100613709D01*
X45135250Y-100470000D01*
X45132617Y-100450000D01*
X46884750Y-100450000D01*
X46903670Y-100593709D01*
X46959139Y-100727625D01*
X46962092Y-100731473D01*
X46962093Y-100731475D01*
X46977440Y-100751475D01*
X47047379Y-100842621D01*
X47162375Y-100930861D01*
X47296291Y-100986330D01*
X47440000Y-101005250D01*
X47583709Y-100986330D01*
X47717625Y-100930861D01*
X47832621Y-100842621D01*
X47920861Y-100727625D01*
X47976330Y-100593709D01*
X47992617Y-100470000D01*
X49824750Y-100470000D01*
X49843670Y-100613709D01*
X49845525Y-100618189D01*
X49845526Y-100618190D01*
X49892449Y-100731475D01*
X49899139Y-100747625D01*
X49902092Y-100751473D01*
X49902093Y-100751475D01*
X49969077Y-100838770D01*
X49987379Y-100862621D01*
X50102375Y-100950861D01*
X50236291Y-101006330D01*
X50380000Y-101025250D01*
X50523709Y-101006330D01*
X50657625Y-100950861D01*
X50772621Y-100862621D01*
X50860861Y-100747625D01*
X50916330Y-100613709D01*
X50935250Y-100470000D01*
X50916330Y-100326291D01*
X50860861Y-100192375D01*
X50772621Y-100077379D01*
X50689642Y-100013706D01*
X50664116Y-99977252D01*
X50664116Y-99932748D01*
X50689642Y-99896293D01*
X50772621Y-99832621D01*
X50860861Y-99717625D01*
X50916330Y-99583709D01*
X50935250Y-99440000D01*
X50916330Y-99296291D01*
X50860861Y-99162375D01*
X50772621Y-99047379D01*
X50728739Y-99013707D01*
X50703213Y-98977252D01*
X50703213Y-98932748D01*
X50728740Y-98896292D01*
X50772621Y-98862621D01*
X50860861Y-98747625D01*
X50916330Y-98613709D01*
X50935250Y-98470000D01*
X50916330Y-98326291D01*
X50860861Y-98192375D01*
X50772621Y-98077379D01*
X50728739Y-98043707D01*
X50703213Y-98007252D01*
X50703213Y-97962748D01*
X50728740Y-97926292D01*
X50772621Y-97892621D01*
X50860861Y-97777625D01*
X50916330Y-97643709D01*
X50935250Y-97500000D01*
X50916330Y-97356291D01*
X50860861Y-97222375D01*
X50772621Y-97107379D01*
X50761318Y-97098706D01*
X50735793Y-97062253D01*
X50735793Y-97017747D01*
X50761318Y-96981293D01*
X50772621Y-96972621D01*
X50860861Y-96857625D01*
X50916330Y-96723709D01*
X50935250Y-96580000D01*
X50916330Y-96436291D01*
X50860861Y-96302375D01*
X50772621Y-96187379D01*
X50657625Y-96099139D01*
X50653141Y-96097281D01*
X50653140Y-96097281D01*
X50528190Y-96045526D01*
X50528189Y-96045525D01*
X50523709Y-96043670D01*
X50380000Y-96024750D01*
X50375192Y-96025383D01*
X50241098Y-96043037D01*
X50241097Y-96043037D01*
X50236291Y-96043670D01*
X50231812Y-96045525D01*
X50231809Y-96045526D01*
X50106859Y-96097281D01*
X50106854Y-96097283D01*
X50102375Y-96099139D01*
X50098529Y-96102089D01*
X50098524Y-96102093D01*
X49991229Y-96184424D01*
X49991225Y-96184427D01*
X49987379Y-96187379D01*
X49984427Y-96191225D01*
X49984424Y-96191229D01*
X49902093Y-96298524D01*
X49902089Y-96298529D01*
X49899139Y-96302375D01*
X49897283Y-96306854D01*
X49897281Y-96306859D01*
X49851954Y-96416291D01*
X49843670Y-96436291D01*
X49843037Y-96441097D01*
X49843037Y-96441098D01*
X49828016Y-96555192D01*
X49824750Y-96580000D01*
X49843670Y-96723709D01*
X49845525Y-96728189D01*
X49845526Y-96728190D01*
X49892449Y-96841475D01*
X49899139Y-96857625D01*
X49902092Y-96861473D01*
X49902093Y-96861475D01*
X49984424Y-96968771D01*
X49984427Y-96968774D01*
X49987379Y-96972621D01*
X49991225Y-96975572D01*
X49991226Y-96975573D01*
X49998679Y-96981292D01*
X50024205Y-97017748D01*
X50024205Y-97062252D01*
X49998679Y-97098708D01*
X49991226Y-97104426D01*
X49991221Y-97104430D01*
X49987379Y-97107379D01*
X49984430Y-97111221D01*
X49984424Y-97111228D01*
X49902093Y-97218524D01*
X49902089Y-97218529D01*
X49899139Y-97222375D01*
X49897283Y-97226854D01*
X49897281Y-97226859D01*
X49845526Y-97351809D01*
X49843670Y-97356291D01*
X49843037Y-97361097D01*
X49843037Y-97361098D01*
X49825772Y-97492231D01*
X49824750Y-97500000D01*
X49843670Y-97643709D01*
X49899139Y-97777625D01*
X49902092Y-97781473D01*
X49902093Y-97781475D01*
X49984424Y-97888770D01*
X49987379Y-97892621D01*
X50031260Y-97926292D01*
X50056786Y-97962748D01*
X50056786Y-98007252D01*
X50031260Y-98043707D01*
X49987379Y-98077379D01*
X49984427Y-98081225D01*
X49984424Y-98081229D01*
X49902093Y-98188524D01*
X49902089Y-98188529D01*
X49899139Y-98192375D01*
X49897283Y-98196854D01*
X49897281Y-98196859D01*
X49845526Y-98321809D01*
X49843670Y-98326291D01*
X49843037Y-98331097D01*
X49843037Y-98331098D01*
X49825772Y-98462231D01*
X49824750Y-98470000D01*
X49843670Y-98613709D01*
X49899139Y-98747625D01*
X49902092Y-98751473D01*
X49902093Y-98751475D01*
X49984424Y-98858770D01*
X49987379Y-98862621D01*
X50031260Y-98896292D01*
X50056786Y-98932748D01*
X50056786Y-98977252D01*
X50031260Y-99013707D01*
X49987379Y-99047379D01*
X49984427Y-99051225D01*
X49984424Y-99051229D01*
X49902093Y-99158524D01*
X49902089Y-99158529D01*
X49899139Y-99162375D01*
X49897283Y-99166854D01*
X49897281Y-99166859D01*
X49845526Y-99291809D01*
X49843670Y-99296291D01*
X49843037Y-99301097D01*
X49843037Y-99301098D01*
X49831582Y-99388106D01*
X49824750Y-99440000D01*
X49843670Y-99583709D01*
X49845525Y-99588189D01*
X49845526Y-99588190D01*
X49853325Y-99607020D01*
X49899139Y-99717625D01*
X49902092Y-99721473D01*
X49902093Y-99721475D01*
X49984424Y-99828770D01*
X49987379Y-99832621D01*
X50070357Y-99896293D01*
X50095883Y-99932748D01*
X50095883Y-99977252D01*
X50070357Y-100013706D01*
X49987379Y-100077379D01*
X49984427Y-100081225D01*
X49984424Y-100081229D01*
X49902093Y-100188524D01*
X49902089Y-100188529D01*
X49899139Y-100192375D01*
X49897283Y-100196854D01*
X49897281Y-100196859D01*
X49851954Y-100306291D01*
X49843670Y-100326291D01*
X49843037Y-100331097D01*
X49843037Y-100331098D01*
X49828016Y-100445192D01*
X49824750Y-100470000D01*
X47992617Y-100470000D01*
X47995250Y-100450000D01*
X47976330Y-100306291D01*
X47920861Y-100172375D01*
X47832621Y-100057379D01*
X47747539Y-99992093D01*
X47721475Y-99972093D01*
X47721473Y-99972092D01*
X47717625Y-99969139D01*
X47713141Y-99967281D01*
X47713140Y-99967281D01*
X47588190Y-99915526D01*
X47588189Y-99915525D01*
X47583709Y-99913670D01*
X47440000Y-99894750D01*
X47435192Y-99895383D01*
X47301098Y-99913037D01*
X47301097Y-99913037D01*
X47296291Y-99913670D01*
X47291812Y-99915525D01*
X47291809Y-99915526D01*
X47166859Y-99967281D01*
X47166854Y-99967283D01*
X47162375Y-99969139D01*
X47158529Y-99972089D01*
X47158524Y-99972093D01*
X47051229Y-100054424D01*
X47051225Y-100054427D01*
X47047379Y-100057379D01*
X47044427Y-100061225D01*
X47044424Y-100061229D01*
X46962093Y-100168524D01*
X46962089Y-100168529D01*
X46959139Y-100172375D01*
X46957283Y-100176854D01*
X46957281Y-100176859D01*
X46905526Y-100301809D01*
X46903670Y-100306291D01*
X46884750Y-100450000D01*
X45132617Y-100450000D01*
X45116330Y-100326291D01*
X45060861Y-100192375D01*
X44972621Y-100077379D01*
X44857625Y-99989139D01*
X44853141Y-99987281D01*
X44853140Y-99987281D01*
X44728190Y-99935526D01*
X44728189Y-99935525D01*
X44723709Y-99933670D01*
X44580000Y-99914750D01*
X44575192Y-99915383D01*
X44441098Y-99933037D01*
X44441097Y-99933037D01*
X44436291Y-99933670D01*
X44431812Y-99935525D01*
X44431809Y-99935526D01*
X44306859Y-99987281D01*
X44306854Y-99987283D01*
X44302375Y-99989139D01*
X44298529Y-99992089D01*
X44298524Y-99992093D01*
X44191229Y-100074424D01*
X44191225Y-100074427D01*
X44187379Y-100077379D01*
X44184427Y-100081225D01*
X44184424Y-100081229D01*
X44102093Y-100188524D01*
X44102089Y-100188529D01*
X44099139Y-100192375D01*
X44097283Y-100196854D01*
X44097281Y-100196859D01*
X44051954Y-100306291D01*
X44043670Y-100326291D01*
X44043037Y-100331097D01*
X44043037Y-100331098D01*
X44028016Y-100445192D01*
X44024750Y-100470000D01*
X42583933Y-100470000D01*
X42566330Y-100336291D01*
X42510861Y-100202375D01*
X42422621Y-100087379D01*
X42339642Y-100023706D01*
X42314116Y-99987252D01*
X42314116Y-99942748D01*
X42339642Y-99906293D01*
X42422621Y-99842621D01*
X42510861Y-99727625D01*
X42566330Y-99593709D01*
X42585250Y-99450000D01*
X42566330Y-99306291D01*
X42510861Y-99172375D01*
X42422621Y-99057379D01*
X42378738Y-99023706D01*
X42353213Y-98987250D01*
X42353213Y-98942746D01*
X42378738Y-98906293D01*
X42422621Y-98872621D01*
X42510861Y-98757625D01*
X42566330Y-98623709D01*
X42585250Y-98480000D01*
X42566330Y-98336291D01*
X42510861Y-98202375D01*
X42422621Y-98087379D01*
X42378739Y-98053707D01*
X42353213Y-98017252D01*
X42353213Y-97972748D01*
X42378740Y-97936292D01*
X42422621Y-97902621D01*
X42510861Y-97787625D01*
X42566330Y-97653709D01*
X42585250Y-97510000D01*
X42566330Y-97366291D01*
X42510861Y-97232375D01*
X42422621Y-97117379D01*
X42411318Y-97108706D01*
X42385793Y-97072253D01*
X42385793Y-97027747D01*
X42411318Y-96991293D01*
X42422621Y-96982621D01*
X42510861Y-96867625D01*
X42566330Y-96733709D01*
X42585250Y-96590000D01*
X42583933Y-96580000D01*
X44024750Y-96580000D01*
X44043670Y-96723709D01*
X44045525Y-96728189D01*
X44045526Y-96728190D01*
X44092449Y-96841475D01*
X44099139Y-96857625D01*
X44102092Y-96861473D01*
X44102093Y-96861475D01*
X44169077Y-96948770D01*
X44187379Y-96972621D01*
X44302375Y-97060861D01*
X44436291Y-97116330D01*
X44580000Y-97135250D01*
X44723709Y-97116330D01*
X44857625Y-97060861D01*
X44972621Y-96972621D01*
X45060861Y-96857625D01*
X45116330Y-96723709D01*
X45135250Y-96580000D01*
X45132617Y-96560000D01*
X46884750Y-96560000D01*
X46903670Y-96703709D01*
X46959139Y-96837625D01*
X46962092Y-96841473D01*
X46962093Y-96841475D01*
X46977440Y-96861475D01*
X47047379Y-96952621D01*
X47162375Y-97040861D01*
X47296291Y-97096330D01*
X47440000Y-97115250D01*
X47583709Y-97096330D01*
X47717625Y-97040861D01*
X47832621Y-96952621D01*
X47920861Y-96837625D01*
X47976330Y-96703709D01*
X47995250Y-96560000D01*
X47976330Y-96416291D01*
X47920861Y-96282375D01*
X47832621Y-96167379D01*
X47747539Y-96102093D01*
X47721475Y-96082093D01*
X47721473Y-96082092D01*
X47717625Y-96079139D01*
X47713141Y-96077281D01*
X47713140Y-96077281D01*
X47588190Y-96025526D01*
X47588189Y-96025525D01*
X47583709Y-96023670D01*
X47440000Y-96004750D01*
X47435192Y-96005383D01*
X47301098Y-96023037D01*
X47301097Y-96023037D01*
X47296291Y-96023670D01*
X47291812Y-96025525D01*
X47291809Y-96025526D01*
X47166859Y-96077281D01*
X47166854Y-96077283D01*
X47162375Y-96079139D01*
X47158529Y-96082089D01*
X47158524Y-96082093D01*
X47051229Y-96164424D01*
X47051225Y-96164427D01*
X47047379Y-96167379D01*
X47044427Y-96171225D01*
X47044424Y-96171229D01*
X46962093Y-96278524D01*
X46962089Y-96278529D01*
X46959139Y-96282375D01*
X46957283Y-96286854D01*
X46957281Y-96286859D01*
X46944855Y-96316859D01*
X46903670Y-96416291D01*
X46884750Y-96560000D01*
X45132617Y-96560000D01*
X45116330Y-96436291D01*
X45060861Y-96302375D01*
X44972621Y-96187379D01*
X44857625Y-96099139D01*
X44853141Y-96097281D01*
X44853140Y-96097281D01*
X44728190Y-96045526D01*
X44728189Y-96045525D01*
X44723709Y-96043670D01*
X44580000Y-96024750D01*
X44575192Y-96025383D01*
X44441098Y-96043037D01*
X44441097Y-96043037D01*
X44436291Y-96043670D01*
X44431812Y-96045525D01*
X44431809Y-96045526D01*
X44306859Y-96097281D01*
X44306854Y-96097283D01*
X44302375Y-96099139D01*
X44298529Y-96102089D01*
X44298524Y-96102093D01*
X44191229Y-96184424D01*
X44191225Y-96184427D01*
X44187379Y-96187379D01*
X44184427Y-96191225D01*
X44184424Y-96191229D01*
X44102093Y-96298524D01*
X44102089Y-96298529D01*
X44099139Y-96302375D01*
X44097283Y-96306854D01*
X44097281Y-96306859D01*
X44051954Y-96416291D01*
X44043670Y-96436291D01*
X44043037Y-96441097D01*
X44043037Y-96441098D01*
X44028016Y-96555192D01*
X44024750Y-96580000D01*
X42583933Y-96580000D01*
X42566330Y-96446291D01*
X42510861Y-96312375D01*
X42422621Y-96197379D01*
X42388542Y-96171229D01*
X42311475Y-96112093D01*
X42311473Y-96112092D01*
X42307625Y-96109139D01*
X42303141Y-96107281D01*
X42303140Y-96107281D01*
X42178190Y-96055526D01*
X42178189Y-96055525D01*
X42173709Y-96053670D01*
X42030000Y-96034750D01*
X42025192Y-96035383D01*
X41891098Y-96053037D01*
X41891097Y-96053037D01*
X41886291Y-96053670D01*
X41881812Y-96055525D01*
X41881809Y-96055526D01*
X41756859Y-96107281D01*
X41756854Y-96107283D01*
X41752375Y-96109139D01*
X41748529Y-96112089D01*
X41748524Y-96112093D01*
X41641229Y-96194424D01*
X41641225Y-96194427D01*
X41637379Y-96197379D01*
X41634427Y-96201225D01*
X41634424Y-96201229D01*
X41552093Y-96308524D01*
X41552089Y-96308529D01*
X41549139Y-96312375D01*
X41547283Y-96316854D01*
X41547281Y-96316859D01*
X41497812Y-96436291D01*
X41493670Y-96446291D01*
X41474750Y-96590000D01*
X41493670Y-96733709D01*
X41495525Y-96738189D01*
X41495526Y-96738190D01*
X41546591Y-96861475D01*
X41549139Y-96867625D01*
X41552092Y-96871473D01*
X41552093Y-96871475D01*
X41634424Y-96978771D01*
X41634427Y-96978774D01*
X41637379Y-96982621D01*
X41641225Y-96985572D01*
X41641226Y-96985573D01*
X41648679Y-96991292D01*
X41674205Y-97027748D01*
X41674205Y-97072252D01*
X41648679Y-97108708D01*
X41641226Y-97114426D01*
X41641221Y-97114430D01*
X41637379Y-97117379D01*
X41634430Y-97121221D01*
X41634424Y-97121228D01*
X41552093Y-97228524D01*
X41552089Y-97228529D01*
X41549139Y-97232375D01*
X41547283Y-97236854D01*
X41547281Y-97236859D01*
X41497812Y-97356291D01*
X41493670Y-97366291D01*
X41474750Y-97510000D01*
X41493670Y-97653709D01*
X41495525Y-97658189D01*
X41495526Y-97658190D01*
X41546591Y-97781475D01*
X41549139Y-97787625D01*
X41637379Y-97902621D01*
X41681260Y-97936292D01*
X41706786Y-97972748D01*
X41706786Y-98017252D01*
X41681260Y-98053707D01*
X41637379Y-98087379D01*
X41634427Y-98091225D01*
X41634424Y-98091229D01*
X41552093Y-98198524D01*
X41552089Y-98198529D01*
X41549139Y-98202375D01*
X41547283Y-98206854D01*
X41547281Y-98206859D01*
X41497812Y-98326291D01*
X41493670Y-98336291D01*
X41474750Y-98480000D01*
X41493670Y-98623709D01*
X41495525Y-98628189D01*
X41495526Y-98628190D01*
X41546591Y-98751475D01*
X41549139Y-98757625D01*
X41637379Y-98872621D01*
X41681259Y-98906292D01*
X41706786Y-98942746D01*
X41706786Y-98987250D01*
X41681261Y-99023706D01*
X41641228Y-99054425D01*
X41641225Y-99054427D01*
X41637379Y-99057379D01*
X41634427Y-99061225D01*
X41634424Y-99061229D01*
X41552093Y-99168524D01*
X41552089Y-99168529D01*
X41549139Y-99172375D01*
X41547283Y-99176854D01*
X41547281Y-99176859D01*
X41497812Y-99296291D01*
X41493670Y-99306291D01*
X41474750Y-99450000D01*
X41493670Y-99593709D01*
X41495525Y-99598189D01*
X41495526Y-99598190D01*
X41546591Y-99721475D01*
X41549139Y-99727625D01*
X41637379Y-99842621D01*
X41720357Y-99906293D01*
X41745883Y-99942748D01*
X41745883Y-99987252D01*
X41720357Y-100023706D01*
X41637379Y-100087379D01*
X41634427Y-100091225D01*
X41634424Y-100091229D01*
X41552093Y-100198524D01*
X41552089Y-100198529D01*
X41549139Y-100202375D01*
X41547283Y-100206854D01*
X41547281Y-100206859D01*
X41497812Y-100326291D01*
X41493670Y-100336291D01*
X41474750Y-100480000D01*
X32688722Y-100480000D01*
X32569844Y-100264904D01*
X32566244Y-100257428D01*
X32453573Y-99985418D01*
X32450839Y-99977605D01*
X32369327Y-99694671D01*
X32367486Y-99686603D01*
X32318170Y-99396346D01*
X32317241Y-99388106D01*
X32312916Y-99311098D01*
X32300615Y-99092065D01*
X32300500Y-99087917D01*
X32300500Y-91848133D01*
X43984317Y-91848133D01*
X50159317Y-91773133D01*
X50209323Y-89142803D01*
X50313465Y-89089741D01*
X50397573Y-89005633D01*
X50451574Y-88899650D01*
X50470181Y-88782168D01*
X50451574Y-88664686D01*
X50397573Y-88558703D01*
X50313465Y-88474595D01*
X50222904Y-88428451D01*
X50231126Y-87996000D01*
X51008819Y-87996000D01*
X51009730Y-88001752D01*
X51020265Y-88068272D01*
X51027426Y-88113482D01*
X51030072Y-88118675D01*
X51077870Y-88212485D01*
X51081427Y-88219465D01*
X51165535Y-88303573D01*
X51271518Y-88357574D01*
X51389000Y-88376181D01*
X51506482Y-88357574D01*
X51612465Y-88303573D01*
X51696573Y-88219465D01*
X51750574Y-88113482D01*
X51769181Y-87996000D01*
X51750574Y-87878518D01*
X51696573Y-87772535D01*
X51612465Y-87688427D01*
X51506482Y-87634426D01*
X51500728Y-87633514D01*
X51500726Y-87633514D01*
X51394752Y-87616730D01*
X51389000Y-87615819D01*
X51383248Y-87616730D01*
X51277273Y-87633514D01*
X51277269Y-87633515D01*
X51271518Y-87634426D01*
X51266326Y-87637071D01*
X51266324Y-87637072D01*
X51170727Y-87685781D01*
X51170724Y-87685782D01*
X51165535Y-87688427D01*
X51161418Y-87692543D01*
X51161415Y-87692546D01*
X51085546Y-87768415D01*
X51085543Y-87768418D01*
X51081427Y-87772535D01*
X51078782Y-87777724D01*
X51078781Y-87777727D01*
X51030072Y-87873324D01*
X51027426Y-87878518D01*
X51026515Y-87884269D01*
X51026514Y-87884273D01*
X51014247Y-87961726D01*
X51008819Y-87996000D01*
X50231126Y-87996000D01*
X50272763Y-85805891D01*
X54537221Y-85805891D01*
X54537787Y-85809590D01*
X54537788Y-85809596D01*
X54567466Y-86003324D01*
X54567468Y-86003332D01*
X54568034Y-86007026D01*
X54569332Y-86010531D01*
X54569334Y-86010538D01*
X54637399Y-86194320D01*
X54637401Y-86194325D01*
X54638704Y-86197842D01*
X54746338Y-86370526D01*
X54886531Y-86518008D01*
X54889604Y-86520146D01*
X54889603Y-86520146D01*
X54976120Y-86580364D01*
X55053541Y-86634250D01*
X55240532Y-86714495D01*
X55439849Y-86755455D01*
X56090452Y-86755455D01*
X56092332Y-86755455D01*
X56244028Y-86740029D01*
X56438178Y-86679114D01*
X56616092Y-86580364D01*
X56770485Y-86447821D01*
X56895038Y-86286913D01*
X56984650Y-86104226D01*
X57035653Y-85907240D01*
X57045959Y-85704019D01*
X57015146Y-85502884D01*
X56944476Y-85312068D01*
X56836842Y-85139384D01*
X56696649Y-84991902D01*
X56693576Y-84989763D01*
X56532716Y-84877801D01*
X56532711Y-84877798D01*
X56529639Y-84875660D01*
X56526193Y-84874181D01*
X56346093Y-84796893D01*
X56346089Y-84796891D01*
X56342648Y-84795415D01*
X56338980Y-84794661D01*
X56338973Y-84794659D01*
X56147007Y-84755210D01*
X56147002Y-84755209D01*
X56143331Y-84754455D01*
X55490848Y-84754455D01*
X55488986Y-84754644D01*
X55488973Y-84754645D01*
X55342885Y-84769501D01*
X55342881Y-84769501D01*
X55339152Y-84769881D01*
X55335574Y-84771003D01*
X55335572Y-84771004D01*
X55148584Y-84829671D01*
X55148574Y-84829675D01*
X55145002Y-84830796D01*
X55141725Y-84832614D01*
X55141720Y-84832617D01*
X54970372Y-84927722D01*
X54970363Y-84927728D01*
X54967088Y-84929546D01*
X54964246Y-84931985D01*
X54964237Y-84931992D01*
X54815540Y-85059645D01*
X54815531Y-85059653D01*
X54812695Y-85062089D01*
X54810404Y-85065048D01*
X54810397Y-85065056D01*
X54690439Y-85220028D01*
X54690434Y-85220035D01*
X54688142Y-85222997D01*
X54686491Y-85226360D01*
X54686490Y-85226364D01*
X54600181Y-85402316D01*
X54600177Y-85402324D01*
X54598530Y-85405684D01*
X54597591Y-85409307D01*
X54597589Y-85409315D01*
X54548467Y-85599037D01*
X54548466Y-85599043D01*
X54547527Y-85602670D01*
X54547337Y-85606408D01*
X54547336Y-85606418D01*
X54542575Y-85700313D01*
X54537221Y-85805891D01*
X50272763Y-85805891D01*
X50284317Y-85198133D01*
X44009317Y-85163133D01*
X43984317Y-91848133D01*
X32300500Y-91848133D01*
X32300500Y-85850000D01*
X35144750Y-85850000D01*
X35163670Y-85993709D01*
X35165525Y-85998189D01*
X35165526Y-85998190D01*
X35210841Y-86107593D01*
X35219139Y-86127625D01*
X35307379Y-86242621D01*
X35422375Y-86330861D01*
X35556291Y-86386330D01*
X35700000Y-86405250D01*
X35843709Y-86386330D01*
X35977625Y-86330861D01*
X36092621Y-86242621D01*
X36180861Y-86127625D01*
X36236330Y-85993709D01*
X36255250Y-85850000D01*
X37544750Y-85850000D01*
X37563670Y-85993709D01*
X37565525Y-85998189D01*
X37565526Y-85998190D01*
X37610841Y-86107593D01*
X37619139Y-86127625D01*
X37707379Y-86242621D01*
X37822375Y-86330861D01*
X37956291Y-86386330D01*
X38100000Y-86405250D01*
X38243709Y-86386330D01*
X38377625Y-86330861D01*
X38492621Y-86242621D01*
X38580861Y-86127625D01*
X38636330Y-85993709D01*
X38655250Y-85850000D01*
X39844750Y-85850000D01*
X39863670Y-85993709D01*
X39865525Y-85998189D01*
X39865526Y-85998190D01*
X39910841Y-86107593D01*
X39919139Y-86127625D01*
X40007379Y-86242621D01*
X40122375Y-86330861D01*
X40256291Y-86386330D01*
X40400000Y-86405250D01*
X40543709Y-86386330D01*
X40677625Y-86330861D01*
X40792621Y-86242621D01*
X40880861Y-86127625D01*
X40936330Y-85993709D01*
X40942085Y-85950000D01*
X41994750Y-85950000D01*
X42013670Y-86093709D01*
X42015525Y-86098189D01*
X42015526Y-86098190D01*
X42056802Y-86197842D01*
X42069139Y-86227625D01*
X42072092Y-86231473D01*
X42072093Y-86231475D01*
X42116910Y-86289881D01*
X42157379Y-86342621D01*
X42272375Y-86430861D01*
X42406291Y-86486330D01*
X42550000Y-86505250D01*
X42693709Y-86486330D01*
X42827625Y-86430861D01*
X42942621Y-86342621D01*
X43030861Y-86227625D01*
X43086330Y-86093709D01*
X43105250Y-85950000D01*
X43086330Y-85806291D01*
X43030861Y-85672375D01*
X42942621Y-85557379D01*
X42827625Y-85469139D01*
X42823141Y-85467281D01*
X42823140Y-85467281D01*
X42698190Y-85415526D01*
X42698189Y-85415525D01*
X42693709Y-85413670D01*
X42550000Y-85394750D01*
X42545192Y-85395383D01*
X42411098Y-85413037D01*
X42411097Y-85413037D01*
X42406291Y-85413670D01*
X42401812Y-85415525D01*
X42401809Y-85415526D01*
X42276859Y-85467281D01*
X42276854Y-85467283D01*
X42272375Y-85469139D01*
X42268529Y-85472089D01*
X42268524Y-85472093D01*
X42161229Y-85554424D01*
X42161225Y-85554427D01*
X42157379Y-85557379D01*
X42154427Y-85561225D01*
X42154424Y-85561229D01*
X42072093Y-85668524D01*
X42072089Y-85668529D01*
X42069139Y-85672375D01*
X42067283Y-85676854D01*
X42067281Y-85676859D01*
X42015526Y-85801809D01*
X42013670Y-85806291D01*
X41994750Y-85950000D01*
X40942085Y-85950000D01*
X40955250Y-85850000D01*
X40936330Y-85706291D01*
X40880861Y-85572375D01*
X40792621Y-85457379D01*
X40788770Y-85454424D01*
X40681475Y-85372093D01*
X40681473Y-85372092D01*
X40677625Y-85369139D01*
X40673141Y-85367281D01*
X40673140Y-85367281D01*
X40548190Y-85315526D01*
X40548189Y-85315525D01*
X40543709Y-85313670D01*
X40400000Y-85294750D01*
X40395192Y-85295383D01*
X40261098Y-85313037D01*
X40261097Y-85313037D01*
X40256291Y-85313670D01*
X40251812Y-85315525D01*
X40251809Y-85315526D01*
X40126859Y-85367281D01*
X40126854Y-85367283D01*
X40122375Y-85369139D01*
X40118529Y-85372089D01*
X40118524Y-85372093D01*
X40011229Y-85454424D01*
X40011225Y-85454427D01*
X40007379Y-85457379D01*
X40004427Y-85461225D01*
X40004424Y-85461229D01*
X39922093Y-85568524D01*
X39922089Y-85568529D01*
X39919139Y-85572375D01*
X39917283Y-85576854D01*
X39917281Y-85576859D01*
X39866146Y-85700313D01*
X39863670Y-85706291D01*
X39863037Y-85711097D01*
X39863037Y-85711098D01*
X39850069Y-85809596D01*
X39844750Y-85850000D01*
X38655250Y-85850000D01*
X38636330Y-85706291D01*
X38580861Y-85572375D01*
X38492621Y-85457379D01*
X38488770Y-85454424D01*
X38381475Y-85372093D01*
X38381473Y-85372092D01*
X38377625Y-85369139D01*
X38373141Y-85367281D01*
X38373140Y-85367281D01*
X38248190Y-85315526D01*
X38248189Y-85315525D01*
X38243709Y-85313670D01*
X38100000Y-85294750D01*
X38095192Y-85295383D01*
X37961098Y-85313037D01*
X37961097Y-85313037D01*
X37956291Y-85313670D01*
X37951812Y-85315525D01*
X37951809Y-85315526D01*
X37826859Y-85367281D01*
X37826854Y-85367283D01*
X37822375Y-85369139D01*
X37818529Y-85372089D01*
X37818524Y-85372093D01*
X37711229Y-85454424D01*
X37711225Y-85454427D01*
X37707379Y-85457379D01*
X37704427Y-85461225D01*
X37704424Y-85461229D01*
X37622093Y-85568524D01*
X37622089Y-85568529D01*
X37619139Y-85572375D01*
X37617283Y-85576854D01*
X37617281Y-85576859D01*
X37566146Y-85700313D01*
X37563670Y-85706291D01*
X37563037Y-85711097D01*
X37563037Y-85711098D01*
X37550069Y-85809596D01*
X37544750Y-85850000D01*
X36255250Y-85850000D01*
X36236330Y-85706291D01*
X36180861Y-85572375D01*
X36092621Y-85457379D01*
X36088770Y-85454424D01*
X35981475Y-85372093D01*
X35981473Y-85372092D01*
X35977625Y-85369139D01*
X35973141Y-85367281D01*
X35973140Y-85367281D01*
X35848190Y-85315526D01*
X35848189Y-85315525D01*
X35843709Y-85313670D01*
X35700000Y-85294750D01*
X35695192Y-85295383D01*
X35561098Y-85313037D01*
X35561097Y-85313037D01*
X35556291Y-85313670D01*
X35551812Y-85315525D01*
X35551809Y-85315526D01*
X35426859Y-85367281D01*
X35426854Y-85367283D01*
X35422375Y-85369139D01*
X35418529Y-85372089D01*
X35418524Y-85372093D01*
X35311229Y-85454424D01*
X35311225Y-85454427D01*
X35307379Y-85457379D01*
X35304427Y-85461225D01*
X35304424Y-85461229D01*
X35222093Y-85568524D01*
X35222089Y-85568529D01*
X35219139Y-85572375D01*
X35217283Y-85576854D01*
X35217281Y-85576859D01*
X35166146Y-85700313D01*
X35163670Y-85706291D01*
X35163037Y-85711097D01*
X35163037Y-85711098D01*
X35150069Y-85809596D01*
X35144750Y-85850000D01*
X32300500Y-85850000D01*
X32300500Y-84400000D01*
X35094750Y-84400000D01*
X35113670Y-84543709D01*
X35169139Y-84677625D01*
X35257379Y-84792621D01*
X35372375Y-84880861D01*
X35506291Y-84936330D01*
X35650000Y-84955250D01*
X35793709Y-84936330D01*
X35927625Y-84880861D01*
X36042621Y-84792621D01*
X36130861Y-84677625D01*
X36186330Y-84543709D01*
X36205250Y-84400000D01*
X37544750Y-84400000D01*
X37563670Y-84543709D01*
X37619139Y-84677625D01*
X37707379Y-84792621D01*
X37822375Y-84880861D01*
X37956291Y-84936330D01*
X38100000Y-84955250D01*
X38243709Y-84936330D01*
X38377625Y-84880861D01*
X38492621Y-84792621D01*
X38580861Y-84677625D01*
X38636330Y-84543709D01*
X38655250Y-84400000D01*
X39844750Y-84400000D01*
X39863670Y-84543709D01*
X39919139Y-84677625D01*
X40007379Y-84792621D01*
X40122375Y-84880861D01*
X40256291Y-84936330D01*
X40400000Y-84955250D01*
X40543709Y-84936330D01*
X40677625Y-84880861D01*
X40792621Y-84792621D01*
X40880861Y-84677625D01*
X40936330Y-84543709D01*
X40955250Y-84400000D01*
X42094750Y-84400000D01*
X42113670Y-84543709D01*
X42169139Y-84677625D01*
X42257379Y-84792621D01*
X42372375Y-84880861D01*
X42506291Y-84936330D01*
X42650000Y-84955250D01*
X42793709Y-84936330D01*
X42927625Y-84880861D01*
X43042621Y-84792621D01*
X43130861Y-84677625D01*
X43186330Y-84543709D01*
X43205250Y-84400000D01*
X43186330Y-84256291D01*
X43130861Y-84122375D01*
X43042621Y-84007379D01*
X42997394Y-83972675D01*
X42931475Y-83922093D01*
X42931473Y-83922092D01*
X42927625Y-83919139D01*
X42923141Y-83917281D01*
X42923140Y-83917281D01*
X42798190Y-83865526D01*
X42798189Y-83865525D01*
X42793709Y-83863670D01*
X42650000Y-83844750D01*
X42645192Y-83845383D01*
X42511098Y-83863037D01*
X42511097Y-83863037D01*
X42506291Y-83863670D01*
X42501812Y-83865525D01*
X42501809Y-83865526D01*
X42376859Y-83917281D01*
X42376854Y-83917283D01*
X42372375Y-83919139D01*
X42368529Y-83922089D01*
X42368524Y-83922093D01*
X42261229Y-84004424D01*
X42261225Y-84004427D01*
X42257379Y-84007379D01*
X42254427Y-84011225D01*
X42254424Y-84011229D01*
X42172093Y-84118524D01*
X42172089Y-84118529D01*
X42169139Y-84122375D01*
X42167283Y-84126854D01*
X42167281Y-84126859D01*
X42115526Y-84251809D01*
X42113670Y-84256291D01*
X42094750Y-84400000D01*
X40955250Y-84400000D01*
X40936330Y-84256291D01*
X40880861Y-84122375D01*
X40792621Y-84007379D01*
X40747394Y-83972675D01*
X40681475Y-83922093D01*
X40681473Y-83922092D01*
X40677625Y-83919139D01*
X40673141Y-83917281D01*
X40673140Y-83917281D01*
X40548190Y-83865526D01*
X40548189Y-83865525D01*
X40543709Y-83863670D01*
X40400000Y-83844750D01*
X40395192Y-83845383D01*
X40261098Y-83863037D01*
X40261097Y-83863037D01*
X40256291Y-83863670D01*
X40251812Y-83865525D01*
X40251809Y-83865526D01*
X40126859Y-83917281D01*
X40126854Y-83917283D01*
X40122375Y-83919139D01*
X40118529Y-83922089D01*
X40118524Y-83922093D01*
X40011229Y-84004424D01*
X40011225Y-84004427D01*
X40007379Y-84007379D01*
X40004427Y-84011225D01*
X40004424Y-84011229D01*
X39922093Y-84118524D01*
X39922089Y-84118529D01*
X39919139Y-84122375D01*
X39917283Y-84126854D01*
X39917281Y-84126859D01*
X39865526Y-84251809D01*
X39863670Y-84256291D01*
X39844750Y-84400000D01*
X38655250Y-84400000D01*
X38636330Y-84256291D01*
X38580861Y-84122375D01*
X38492621Y-84007379D01*
X38447394Y-83972675D01*
X38381475Y-83922093D01*
X38381473Y-83922092D01*
X38377625Y-83919139D01*
X38373141Y-83917281D01*
X38373140Y-83917281D01*
X38248190Y-83865526D01*
X38248189Y-83865525D01*
X38243709Y-83863670D01*
X38100000Y-83844750D01*
X38095192Y-83845383D01*
X37961098Y-83863037D01*
X37961097Y-83863037D01*
X37956291Y-83863670D01*
X37951812Y-83865525D01*
X37951809Y-83865526D01*
X37826859Y-83917281D01*
X37826854Y-83917283D01*
X37822375Y-83919139D01*
X37818529Y-83922089D01*
X37818524Y-83922093D01*
X37711229Y-84004424D01*
X37711225Y-84004427D01*
X37707379Y-84007379D01*
X37704427Y-84011225D01*
X37704424Y-84011229D01*
X37622093Y-84118524D01*
X37622089Y-84118529D01*
X37619139Y-84122375D01*
X37617283Y-84126854D01*
X37617281Y-84126859D01*
X37565526Y-84251809D01*
X37563670Y-84256291D01*
X37544750Y-84400000D01*
X36205250Y-84400000D01*
X36186330Y-84256291D01*
X36130861Y-84122375D01*
X36042621Y-84007379D01*
X35997394Y-83972675D01*
X35931475Y-83922093D01*
X35931473Y-83922092D01*
X35927625Y-83919139D01*
X35923141Y-83917281D01*
X35923140Y-83917281D01*
X35798190Y-83865526D01*
X35798189Y-83865525D01*
X35793709Y-83863670D01*
X35650000Y-83844750D01*
X35645192Y-83845383D01*
X35511098Y-83863037D01*
X35511097Y-83863037D01*
X35506291Y-83863670D01*
X35501812Y-83865525D01*
X35501809Y-83865526D01*
X35376859Y-83917281D01*
X35376854Y-83917283D01*
X35372375Y-83919139D01*
X35368529Y-83922089D01*
X35368524Y-83922093D01*
X35261229Y-84004424D01*
X35261225Y-84004427D01*
X35257379Y-84007379D01*
X35254427Y-84011225D01*
X35254424Y-84011229D01*
X35172093Y-84118524D01*
X35172089Y-84118529D01*
X35169139Y-84122375D01*
X35167283Y-84126854D01*
X35167281Y-84126859D01*
X35115526Y-84251809D01*
X35113670Y-84256291D01*
X35094750Y-84400000D01*
X32300500Y-84400000D01*
X32300500Y-83625000D01*
X46200000Y-83625000D01*
X46202421Y-83633646D01*
X46371635Y-84237985D01*
X46371636Y-84237986D01*
X46375000Y-84250000D01*
X47025000Y-84225000D01*
X47037931Y-83850000D01*
X47994819Y-83850000D01*
X48013426Y-83967482D01*
X48067427Y-84073465D01*
X48151535Y-84157573D01*
X48257518Y-84211574D01*
X48375000Y-84230181D01*
X48492482Y-84211574D01*
X48598465Y-84157573D01*
X48682573Y-84073465D01*
X48736574Y-83967482D01*
X48755181Y-83850000D01*
X48736574Y-83732518D01*
X48682573Y-83626535D01*
X48598465Y-83542427D01*
X48492482Y-83488426D01*
X48486728Y-83487514D01*
X48486726Y-83487514D01*
X48380752Y-83470730D01*
X48375000Y-83469819D01*
X48369248Y-83470730D01*
X48263273Y-83487514D01*
X48263269Y-83487515D01*
X48257518Y-83488426D01*
X48252326Y-83491071D01*
X48252324Y-83491072D01*
X48156727Y-83539781D01*
X48156724Y-83539782D01*
X48151535Y-83542427D01*
X48147418Y-83546543D01*
X48147415Y-83546546D01*
X48071546Y-83622415D01*
X48071543Y-83622418D01*
X48067427Y-83626535D01*
X48064782Y-83631724D01*
X48064781Y-83631727D01*
X48016072Y-83727324D01*
X48013426Y-83732518D01*
X48012515Y-83738269D01*
X48012514Y-83738273D01*
X47995730Y-83844248D01*
X47994819Y-83850000D01*
X47037931Y-83850000D01*
X47050000Y-83500000D01*
X46500000Y-83500000D01*
X46493241Y-83502816D01*
X46493237Y-83502817D01*
X46208284Y-83621547D01*
X46208279Y-83621550D01*
X46200000Y-83625000D01*
X32300500Y-83625000D01*
X32300500Y-83305891D01*
X54537221Y-83305891D01*
X54537787Y-83309590D01*
X54537788Y-83309596D01*
X54567466Y-83503324D01*
X54567468Y-83503332D01*
X54568034Y-83507026D01*
X54569332Y-83510531D01*
X54569334Y-83510538D01*
X54637399Y-83694320D01*
X54637401Y-83694325D01*
X54638704Y-83697842D01*
X54746338Y-83870526D01*
X54886531Y-84018008D01*
X54889604Y-84020146D01*
X54889603Y-84020146D01*
X55036479Y-84122375D01*
X55053541Y-84134250D01*
X55240532Y-84214495D01*
X55439849Y-84255455D01*
X56090452Y-84255455D01*
X56092332Y-84255455D01*
X56244028Y-84240029D01*
X56438178Y-84179114D01*
X56616092Y-84080364D01*
X56770485Y-83947821D01*
X56895038Y-83786913D01*
X56984650Y-83604226D01*
X57035653Y-83407240D01*
X57045959Y-83204019D01*
X57015146Y-83002884D01*
X56944476Y-82812068D01*
X56836842Y-82639384D01*
X56696649Y-82491902D01*
X56610574Y-82431992D01*
X56532716Y-82377801D01*
X56532711Y-82377798D01*
X56529639Y-82375660D01*
X56526193Y-82374181D01*
X56346093Y-82296893D01*
X56346089Y-82296891D01*
X56342648Y-82295415D01*
X56338980Y-82294661D01*
X56338973Y-82294659D01*
X56147007Y-82255210D01*
X56147002Y-82255209D01*
X56143331Y-82254455D01*
X55490848Y-82254455D01*
X55488986Y-82254644D01*
X55488973Y-82254645D01*
X55342885Y-82269501D01*
X55342881Y-82269501D01*
X55339152Y-82269881D01*
X55335574Y-82271003D01*
X55335572Y-82271004D01*
X55148584Y-82329671D01*
X55148574Y-82329675D01*
X55145002Y-82330796D01*
X55141725Y-82332614D01*
X55141720Y-82332617D01*
X54970372Y-82427722D01*
X54970363Y-82427728D01*
X54967088Y-82429546D01*
X54964246Y-82431985D01*
X54964237Y-82431992D01*
X54815540Y-82559645D01*
X54815531Y-82559653D01*
X54812695Y-82562089D01*
X54810404Y-82565048D01*
X54810397Y-82565056D01*
X54690439Y-82720028D01*
X54690434Y-82720035D01*
X54688142Y-82722997D01*
X54686491Y-82726360D01*
X54686490Y-82726364D01*
X54600181Y-82902316D01*
X54600177Y-82902324D01*
X54598530Y-82905684D01*
X54597591Y-82909307D01*
X54597589Y-82909315D01*
X54548467Y-83099037D01*
X54548466Y-83099043D01*
X54547527Y-83102670D01*
X54547337Y-83106408D01*
X54547336Y-83106418D01*
X54542575Y-83200313D01*
X54537221Y-83305891D01*
X32300500Y-83305891D01*
X32300500Y-79914335D01*
X40874500Y-79914335D01*
X40875001Y-79917340D01*
X40875002Y-79917346D01*
X40914924Y-80156591D01*
X40914925Y-80156597D01*
X40915429Y-80159614D01*
X40996172Y-80394810D01*
X41114526Y-80613509D01*
X41267262Y-80809744D01*
X41450215Y-80978164D01*
X41452776Y-80979837D01*
X41655827Y-81112497D01*
X41655830Y-81112499D01*
X41658393Y-81114173D01*
X41886119Y-81214063D01*
X42127179Y-81275108D01*
X42312933Y-81290500D01*
X43435528Y-81290500D01*
X43437067Y-81290500D01*
X43622821Y-81275108D01*
X43863881Y-81214063D01*
X44091607Y-81114173D01*
X44299785Y-80978164D01*
X44482738Y-80809744D01*
X44635474Y-80613509D01*
X44753828Y-80394810D01*
X44834571Y-80159614D01*
X44875500Y-79914335D01*
X44875500Y-79665665D01*
X44834571Y-79420386D01*
X44753828Y-79185190D01*
X44635474Y-78966491D01*
X44482738Y-78770256D01*
X44407800Y-78701270D01*
X44302032Y-78603904D01*
X44302028Y-78603901D01*
X44299785Y-78601836D01*
X44297223Y-78600162D01*
X44094172Y-78467502D01*
X44094164Y-78467498D01*
X44091607Y-78465827D01*
X43863881Y-78365937D01*
X43860917Y-78365186D01*
X43860916Y-78365186D01*
X43625780Y-78305641D01*
X43625776Y-78305640D01*
X43622821Y-78304892D01*
X43619780Y-78304640D01*
X43619774Y-78304639D01*
X43438604Y-78289627D01*
X43438595Y-78289626D01*
X43437067Y-78289500D01*
X42312933Y-78289500D01*
X42311405Y-78289626D01*
X42311395Y-78289627D01*
X42130225Y-78304639D01*
X42130217Y-78304640D01*
X42127179Y-78304892D01*
X42124225Y-78305639D01*
X42124219Y-78305641D01*
X41889083Y-78365186D01*
X41889078Y-78365187D01*
X41886119Y-78365937D01*
X41883318Y-78367165D01*
X41883314Y-78367167D01*
X41661199Y-78464596D01*
X41658393Y-78465827D01*
X41655839Y-78467495D01*
X41655827Y-78467502D01*
X41452776Y-78600162D01*
X41452769Y-78600167D01*
X41450215Y-78601836D01*
X41447977Y-78603896D01*
X41447967Y-78603904D01*
X41269510Y-78768186D01*
X41269506Y-78768189D01*
X41267262Y-78770256D01*
X41265388Y-78772662D01*
X41265383Y-78772669D01*
X41116408Y-78964072D01*
X41116403Y-78964078D01*
X41114526Y-78966491D01*
X41113070Y-78969181D01*
X41113067Y-78969186D01*
X40997630Y-79182495D01*
X40996172Y-79185190D01*
X40995179Y-79188080D01*
X40995176Y-79188089D01*
X40916425Y-79417483D01*
X40916423Y-79417489D01*
X40915429Y-79420386D01*
X40914926Y-79423399D01*
X40914924Y-79423408D01*
X40875002Y-79662653D01*
X40875001Y-79662660D01*
X40874500Y-79665665D01*
X40874500Y-79914335D01*
X32300500Y-79914335D01*
X32300500Y-75714335D01*
X40874500Y-75714335D01*
X40875001Y-75717340D01*
X40875002Y-75717346D01*
X40914924Y-75956591D01*
X40914925Y-75956597D01*
X40915429Y-75959614D01*
X40916424Y-75962513D01*
X40916425Y-75962516D01*
X40984537Y-76160921D01*
X40996172Y-76194810D01*
X41114526Y-76413509D01*
X41267262Y-76609744D01*
X41450215Y-76778164D01*
X41452776Y-76779837D01*
X41655827Y-76912497D01*
X41655830Y-76912499D01*
X41658393Y-76914173D01*
X41886119Y-77014063D01*
X42127179Y-77075108D01*
X42312933Y-77090500D01*
X43435528Y-77090500D01*
X43437067Y-77090500D01*
X43622821Y-77075108D01*
X43863881Y-77014063D01*
X44091607Y-76914173D01*
X44299785Y-76778164D01*
X44482738Y-76609744D01*
X44635474Y-76413509D01*
X44723961Y-76250000D01*
X47069819Y-76250000D01*
X47070730Y-76255752D01*
X47086709Y-76356646D01*
X47088426Y-76367482D01*
X47142427Y-76473465D01*
X47226535Y-76557573D01*
X47332518Y-76611574D01*
X47450000Y-76630181D01*
X47567482Y-76611574D01*
X47673465Y-76557573D01*
X47757573Y-76473465D01*
X47811574Y-76367482D01*
X47812697Y-76360394D01*
X54535631Y-76360394D01*
X54536197Y-76364093D01*
X54536198Y-76364099D01*
X54565876Y-76557827D01*
X54565878Y-76557835D01*
X54566444Y-76561529D01*
X54567742Y-76565034D01*
X54567744Y-76565041D01*
X54635809Y-76748823D01*
X54635811Y-76748828D01*
X54637114Y-76752345D01*
X54744748Y-76925029D01*
X54884941Y-77072511D01*
X54910603Y-77090372D01*
X54974530Y-77134867D01*
X55051951Y-77188753D01*
X55238942Y-77268998D01*
X55438259Y-77309958D01*
X56088862Y-77309958D01*
X56090742Y-77309958D01*
X56242438Y-77294532D01*
X56436588Y-77233617D01*
X56614502Y-77134867D01*
X56768895Y-77002324D01*
X56893448Y-76841416D01*
X56983060Y-76658729D01*
X57034063Y-76461743D01*
X57044369Y-76258522D01*
X57013556Y-76057387D01*
X56942886Y-75866571D01*
X56835252Y-75693887D01*
X56695059Y-75546405D01*
X56608984Y-75486495D01*
X56531126Y-75432304D01*
X56531121Y-75432301D01*
X56528049Y-75430163D01*
X56524603Y-75428684D01*
X56344503Y-75351396D01*
X56344499Y-75351394D01*
X56341058Y-75349918D01*
X56337390Y-75349164D01*
X56337383Y-75349162D01*
X56145417Y-75309713D01*
X56145412Y-75309712D01*
X56141741Y-75308958D01*
X55489258Y-75308958D01*
X55487396Y-75309147D01*
X55487383Y-75309148D01*
X55341295Y-75324004D01*
X55341291Y-75324004D01*
X55337562Y-75324384D01*
X55333984Y-75325506D01*
X55333982Y-75325507D01*
X55146994Y-75384174D01*
X55146984Y-75384178D01*
X55143412Y-75385299D01*
X55140135Y-75387117D01*
X55140130Y-75387120D01*
X54968782Y-75482225D01*
X54968773Y-75482231D01*
X54965498Y-75484049D01*
X54962656Y-75486488D01*
X54962647Y-75486495D01*
X54813950Y-75614148D01*
X54813941Y-75614156D01*
X54811105Y-75616592D01*
X54808814Y-75619551D01*
X54808807Y-75619559D01*
X54688849Y-75774531D01*
X54688844Y-75774538D01*
X54686552Y-75777500D01*
X54684901Y-75780863D01*
X54684900Y-75780867D01*
X54598591Y-75956819D01*
X54598587Y-75956827D01*
X54596940Y-75960187D01*
X54596001Y-75963810D01*
X54595999Y-75963818D01*
X54546877Y-76153540D01*
X54546876Y-76153546D01*
X54545937Y-76157173D01*
X54545747Y-76160911D01*
X54545746Y-76160921D01*
X54540797Y-76258522D01*
X54535631Y-76360394D01*
X47812697Y-76360394D01*
X47830181Y-76250000D01*
X47811574Y-76132518D01*
X47757573Y-76026535D01*
X47673465Y-75942427D01*
X47567482Y-75888426D01*
X47561728Y-75887514D01*
X47561726Y-75887514D01*
X47455752Y-75870730D01*
X47450000Y-75869819D01*
X47444248Y-75870730D01*
X47338273Y-75887514D01*
X47338269Y-75887515D01*
X47332518Y-75888426D01*
X47327326Y-75891071D01*
X47327324Y-75891072D01*
X47231727Y-75939781D01*
X47231724Y-75939782D01*
X47226535Y-75942427D01*
X47222418Y-75946543D01*
X47222415Y-75946546D01*
X47146546Y-76022415D01*
X47146543Y-76022418D01*
X47142427Y-76026535D01*
X47139782Y-76031724D01*
X47139781Y-76031727D01*
X47128497Y-76053874D01*
X47088426Y-76132518D01*
X47087515Y-76138269D01*
X47087514Y-76138273D01*
X47085096Y-76153540D01*
X47069819Y-76250000D01*
X44723961Y-76250000D01*
X44753828Y-76194810D01*
X44834571Y-75959614D01*
X44875500Y-75714335D01*
X44875500Y-75465665D01*
X44834571Y-75220386D01*
X44753828Y-74985190D01*
X44635474Y-74766491D01*
X44482738Y-74570256D01*
X44327931Y-74427746D01*
X44302032Y-74403904D01*
X44302028Y-74403901D01*
X44299785Y-74401836D01*
X44296975Y-74400000D01*
X46579819Y-74400000D01*
X46598426Y-74517482D01*
X46652427Y-74623465D01*
X46736535Y-74707573D01*
X46842518Y-74761574D01*
X46960000Y-74780181D01*
X47077482Y-74761574D01*
X47183465Y-74707573D01*
X47267573Y-74623465D01*
X47321574Y-74517482D01*
X47340181Y-74400000D01*
X47321574Y-74282518D01*
X47267573Y-74176535D01*
X47183465Y-74092427D01*
X47177720Y-74089500D01*
X47082675Y-74041072D01*
X47077482Y-74038426D01*
X47071728Y-74037514D01*
X47071726Y-74037514D01*
X46965752Y-74020730D01*
X46960000Y-74019819D01*
X46954248Y-74020730D01*
X46848273Y-74037514D01*
X46848269Y-74037515D01*
X46842518Y-74038426D01*
X46837326Y-74041071D01*
X46837324Y-74041072D01*
X46741727Y-74089781D01*
X46741724Y-74089782D01*
X46736535Y-74092427D01*
X46732418Y-74096543D01*
X46732415Y-74096546D01*
X46656546Y-74172415D01*
X46656543Y-74172418D01*
X46652427Y-74176535D01*
X46649782Y-74181724D01*
X46649781Y-74181727D01*
X46606930Y-74265827D01*
X46598426Y-74282518D01*
X46597515Y-74288269D01*
X46597514Y-74288273D01*
X46580730Y-74394248D01*
X46579819Y-74400000D01*
X44296975Y-74400000D01*
X44288171Y-74394248D01*
X44094172Y-74267502D01*
X44094164Y-74267498D01*
X44091607Y-74265827D01*
X43863881Y-74165937D01*
X43860917Y-74165186D01*
X43860916Y-74165186D01*
X43625780Y-74105641D01*
X43625776Y-74105640D01*
X43622821Y-74104892D01*
X43619780Y-74104640D01*
X43619774Y-74104639D01*
X43438604Y-74089627D01*
X43438595Y-74089626D01*
X43437067Y-74089500D01*
X42312933Y-74089500D01*
X42311405Y-74089626D01*
X42311395Y-74089627D01*
X42130225Y-74104639D01*
X42130217Y-74104640D01*
X42127179Y-74104892D01*
X42124225Y-74105639D01*
X42124219Y-74105641D01*
X41889083Y-74165186D01*
X41889078Y-74165187D01*
X41886119Y-74165937D01*
X41883318Y-74167165D01*
X41883314Y-74167167D01*
X41681865Y-74255531D01*
X41658393Y-74265827D01*
X41655839Y-74267495D01*
X41655827Y-74267502D01*
X41452776Y-74400162D01*
X41452769Y-74400167D01*
X41450215Y-74401836D01*
X41447977Y-74403896D01*
X41447967Y-74403904D01*
X41269510Y-74568186D01*
X41269506Y-74568189D01*
X41267262Y-74570256D01*
X41265388Y-74572662D01*
X41265383Y-74572669D01*
X41116408Y-74764072D01*
X41116403Y-74764078D01*
X41114526Y-74766491D01*
X41113070Y-74769181D01*
X41113067Y-74769186D01*
X40997630Y-74982495D01*
X40996172Y-74985190D01*
X40995179Y-74988080D01*
X40995176Y-74988089D01*
X40916425Y-75217483D01*
X40916423Y-75217489D01*
X40915429Y-75220386D01*
X40914926Y-75223399D01*
X40914924Y-75223408D01*
X40875002Y-75462653D01*
X40875001Y-75462660D01*
X40874500Y-75465665D01*
X40874500Y-75714335D01*
X32300500Y-75714335D01*
X32300500Y-73860394D01*
X54535631Y-73860394D01*
X54536197Y-73864093D01*
X54536198Y-73864099D01*
X54565876Y-74057827D01*
X54565878Y-74057835D01*
X54566444Y-74061529D01*
X54567742Y-74065034D01*
X54567744Y-74065041D01*
X54635809Y-74248823D01*
X54635811Y-74248828D01*
X54637114Y-74252345D01*
X54744748Y-74425029D01*
X54884941Y-74572511D01*
X54888014Y-74574649D01*
X54888013Y-74574649D01*
X54974530Y-74634867D01*
X55051951Y-74688753D01*
X55238942Y-74768998D01*
X55438259Y-74809958D01*
X56088862Y-74809958D01*
X56090742Y-74809958D01*
X56242438Y-74794532D01*
X56436588Y-74733617D01*
X56614502Y-74634867D01*
X56768895Y-74502324D01*
X56893448Y-74341416D01*
X56983060Y-74158729D01*
X57034063Y-73961743D01*
X57044369Y-73758522D01*
X57013556Y-73557387D01*
X56942886Y-73366571D01*
X56835252Y-73193887D01*
X56695059Y-73046405D01*
X56608984Y-72986495D01*
X56531126Y-72932304D01*
X56531121Y-72932301D01*
X56528049Y-72930163D01*
X56524603Y-72928684D01*
X56344503Y-72851396D01*
X56344499Y-72851394D01*
X56341058Y-72849918D01*
X56337390Y-72849164D01*
X56337383Y-72849162D01*
X56145417Y-72809713D01*
X56145412Y-72809712D01*
X56141741Y-72808958D01*
X55489258Y-72808958D01*
X55487396Y-72809147D01*
X55487383Y-72809148D01*
X55341295Y-72824004D01*
X55341291Y-72824004D01*
X55337562Y-72824384D01*
X55333984Y-72825506D01*
X55333982Y-72825507D01*
X55146994Y-72884174D01*
X55146984Y-72884178D01*
X55143412Y-72885299D01*
X55140135Y-72887117D01*
X55140130Y-72887120D01*
X54968782Y-72982225D01*
X54968773Y-72982231D01*
X54965498Y-72984049D01*
X54962656Y-72986488D01*
X54962647Y-72986495D01*
X54813950Y-73114148D01*
X54813941Y-73114156D01*
X54811105Y-73116592D01*
X54808814Y-73119551D01*
X54808807Y-73119559D01*
X54688849Y-73274531D01*
X54688844Y-73274538D01*
X54686552Y-73277500D01*
X54684901Y-73280863D01*
X54684900Y-73280867D01*
X54598591Y-73456819D01*
X54598587Y-73456827D01*
X54596940Y-73460187D01*
X54596001Y-73463810D01*
X54595999Y-73463818D01*
X54546877Y-73653540D01*
X54546876Y-73653546D01*
X54545937Y-73657173D01*
X54545747Y-73660911D01*
X54545746Y-73660921D01*
X54540985Y-73754816D01*
X54535631Y-73860394D01*
X32300500Y-73860394D01*
X32300500Y-71514335D01*
X35374500Y-71514335D01*
X35375001Y-71517340D01*
X35375002Y-71517346D01*
X35414924Y-71756591D01*
X35414925Y-71756597D01*
X35415429Y-71759614D01*
X35416424Y-71762513D01*
X35416425Y-71762516D01*
X35493927Y-71988273D01*
X35496172Y-71994810D01*
X35614526Y-72213509D01*
X35616407Y-72215926D01*
X35616408Y-72215927D01*
X35762365Y-72403453D01*
X35767262Y-72409744D01*
X35950215Y-72578164D01*
X35952776Y-72579837D01*
X36155827Y-72712497D01*
X36155830Y-72712499D01*
X36158393Y-72714173D01*
X36386119Y-72814063D01*
X36627179Y-72875108D01*
X36812933Y-72890500D01*
X37935528Y-72890500D01*
X37937067Y-72890500D01*
X38122821Y-72875108D01*
X38363881Y-72814063D01*
X38591607Y-72714173D01*
X38799785Y-72578164D01*
X38982738Y-72409744D01*
X39135474Y-72213509D01*
X39253828Y-71994810D01*
X39334571Y-71759614D01*
X39375500Y-71514335D01*
X40874500Y-71514335D01*
X40875001Y-71517340D01*
X40875002Y-71517346D01*
X40914924Y-71756591D01*
X40914925Y-71756597D01*
X40915429Y-71759614D01*
X40916424Y-71762513D01*
X40916425Y-71762516D01*
X40993927Y-71988273D01*
X40996172Y-71994810D01*
X41114526Y-72213509D01*
X41116407Y-72215926D01*
X41116408Y-72215927D01*
X41262365Y-72403453D01*
X41267262Y-72409744D01*
X41450215Y-72578164D01*
X41452776Y-72579837D01*
X41655827Y-72712497D01*
X41655830Y-72712499D01*
X41658393Y-72714173D01*
X41886119Y-72814063D01*
X42127179Y-72875108D01*
X42312933Y-72890500D01*
X43435528Y-72890500D01*
X43437067Y-72890500D01*
X43622821Y-72875108D01*
X43863881Y-72814063D01*
X44091607Y-72714173D01*
X44299785Y-72578164D01*
X44482738Y-72409744D01*
X44635474Y-72213509D01*
X44696902Y-72100000D01*
X49879819Y-72100000D01*
X49880730Y-72105752D01*
X49897369Y-72210813D01*
X49898426Y-72217482D01*
X49952427Y-72323465D01*
X50036535Y-72407573D01*
X50142518Y-72461574D01*
X50260000Y-72480181D01*
X50377482Y-72461574D01*
X50483465Y-72407573D01*
X50567573Y-72323465D01*
X50621574Y-72217482D01*
X50640181Y-72100000D01*
X50621574Y-71982518D01*
X50567573Y-71876535D01*
X50483465Y-71792427D01*
X50377482Y-71738426D01*
X50371728Y-71737514D01*
X50371726Y-71737514D01*
X50265752Y-71720730D01*
X50260000Y-71719819D01*
X50254248Y-71720730D01*
X50148273Y-71737514D01*
X50148269Y-71737515D01*
X50142518Y-71738426D01*
X50137326Y-71741071D01*
X50137324Y-71741072D01*
X50041727Y-71789781D01*
X50041724Y-71789782D01*
X50036535Y-71792427D01*
X50032418Y-71796543D01*
X50032415Y-71796546D01*
X49956546Y-71872415D01*
X49956543Y-71872418D01*
X49952427Y-71876535D01*
X49949782Y-71881724D01*
X49949781Y-71881727D01*
X49901072Y-71977324D01*
X49898426Y-71982518D01*
X49897515Y-71988269D01*
X49897514Y-71988273D01*
X49896938Y-71991910D01*
X49879819Y-72100000D01*
X44696902Y-72100000D01*
X44753828Y-71994810D01*
X44834571Y-71759614D01*
X44875500Y-71514335D01*
X44875500Y-71265665D01*
X44834571Y-71020386D01*
X44753828Y-70785190D01*
X44635474Y-70566491D01*
X44482738Y-70370256D01*
X44407800Y-70301270D01*
X44302032Y-70203904D01*
X44302028Y-70203901D01*
X44299785Y-70201836D01*
X44297223Y-70200162D01*
X44094172Y-70067502D01*
X44094164Y-70067498D01*
X44091607Y-70065827D01*
X43863881Y-69965937D01*
X43860917Y-69965186D01*
X43860916Y-69965186D01*
X43625780Y-69905641D01*
X43625776Y-69905640D01*
X43622821Y-69904892D01*
X43619780Y-69904640D01*
X43619774Y-69904639D01*
X43438604Y-69889627D01*
X43438595Y-69889626D01*
X43437067Y-69889500D01*
X42312933Y-69889500D01*
X42311405Y-69889626D01*
X42311395Y-69889627D01*
X42130225Y-69904639D01*
X42130217Y-69904640D01*
X42127179Y-69904892D01*
X42124225Y-69905639D01*
X42124219Y-69905641D01*
X41889083Y-69965186D01*
X41889078Y-69965187D01*
X41886119Y-69965937D01*
X41883318Y-69967165D01*
X41883314Y-69967167D01*
X41661199Y-70064596D01*
X41658393Y-70065827D01*
X41655839Y-70067495D01*
X41655827Y-70067502D01*
X41452776Y-70200162D01*
X41452769Y-70200167D01*
X41450215Y-70201836D01*
X41447977Y-70203896D01*
X41447967Y-70203904D01*
X41269510Y-70368186D01*
X41269506Y-70368189D01*
X41267262Y-70370256D01*
X41265388Y-70372662D01*
X41265383Y-70372669D01*
X41116408Y-70564072D01*
X41116403Y-70564078D01*
X41114526Y-70566491D01*
X41113070Y-70569181D01*
X41113067Y-70569186D01*
X40997630Y-70782495D01*
X40996172Y-70785190D01*
X40995179Y-70788080D01*
X40995176Y-70788089D01*
X40916425Y-71017483D01*
X40916423Y-71017489D01*
X40915429Y-71020386D01*
X40914926Y-71023399D01*
X40914924Y-71023408D01*
X40875002Y-71262653D01*
X40875001Y-71262660D01*
X40874500Y-71265665D01*
X40874500Y-71514335D01*
X39375500Y-71514335D01*
X39375500Y-71265665D01*
X39334571Y-71020386D01*
X39253828Y-70785190D01*
X39135474Y-70566491D01*
X38982738Y-70370256D01*
X38907800Y-70301270D01*
X38802032Y-70203904D01*
X38802028Y-70203901D01*
X38799785Y-70201836D01*
X38797223Y-70200162D01*
X38594172Y-70067502D01*
X38594164Y-70067498D01*
X38591607Y-70065827D01*
X38363881Y-69965937D01*
X38360917Y-69965186D01*
X38360916Y-69965186D01*
X38125780Y-69905641D01*
X38125776Y-69905640D01*
X38122821Y-69904892D01*
X38119780Y-69904640D01*
X38119774Y-69904639D01*
X37938604Y-69889627D01*
X37938595Y-69889626D01*
X37937067Y-69889500D01*
X36812933Y-69889500D01*
X36811405Y-69889626D01*
X36811395Y-69889627D01*
X36630225Y-69904639D01*
X36630217Y-69904640D01*
X36627179Y-69904892D01*
X36624225Y-69905639D01*
X36624219Y-69905641D01*
X36389083Y-69965186D01*
X36389078Y-69965187D01*
X36386119Y-69965937D01*
X36383318Y-69967165D01*
X36383314Y-69967167D01*
X36161199Y-70064596D01*
X36158393Y-70065827D01*
X36155839Y-70067495D01*
X36155827Y-70067502D01*
X35952776Y-70200162D01*
X35952769Y-70200167D01*
X35950215Y-70201836D01*
X35947977Y-70203896D01*
X35947967Y-70203904D01*
X35769510Y-70368186D01*
X35769506Y-70368189D01*
X35767262Y-70370256D01*
X35765388Y-70372662D01*
X35765383Y-70372669D01*
X35616408Y-70564072D01*
X35616403Y-70564078D01*
X35614526Y-70566491D01*
X35613070Y-70569181D01*
X35613067Y-70569186D01*
X35497630Y-70782495D01*
X35496172Y-70785190D01*
X35495179Y-70788080D01*
X35495176Y-70788089D01*
X35416425Y-71017483D01*
X35416423Y-71017489D01*
X35415429Y-71020386D01*
X35414926Y-71023399D01*
X35414924Y-71023408D01*
X35375002Y-71262653D01*
X35375001Y-71262660D01*
X35374500Y-71265665D01*
X35374500Y-71514335D01*
X32300500Y-71514335D01*
X32300500Y-67000000D01*
X42719819Y-67000000D01*
X42738426Y-67117482D01*
X42792427Y-67223465D01*
X42876535Y-67307573D01*
X42982518Y-67361574D01*
X43100000Y-67380181D01*
X43217482Y-67361574D01*
X43323465Y-67307573D01*
X43407573Y-67223465D01*
X43461574Y-67117482D01*
X43480181Y-67000000D01*
X43461574Y-66882518D01*
X43407573Y-66776535D01*
X43323465Y-66692427D01*
X43217482Y-66638426D01*
X43211728Y-66637514D01*
X43211726Y-66637514D01*
X43105752Y-66620730D01*
X43100000Y-66619819D01*
X43094248Y-66620730D01*
X42988273Y-66637514D01*
X42988269Y-66637515D01*
X42982518Y-66638426D01*
X42977326Y-66641071D01*
X42977324Y-66641072D01*
X42881727Y-66689781D01*
X42881724Y-66689782D01*
X42876535Y-66692427D01*
X42872418Y-66696543D01*
X42872415Y-66696546D01*
X42796546Y-66772415D01*
X42796543Y-66772418D01*
X42792427Y-66776535D01*
X42789782Y-66781724D01*
X42789781Y-66781727D01*
X42741072Y-66877324D01*
X42738426Y-66882518D01*
X42737515Y-66888269D01*
X42737514Y-66888273D01*
X42720730Y-66994248D01*
X42719819Y-67000000D01*
X32300500Y-67000000D01*
X32300500Y-66150000D01*
X39519819Y-66150000D01*
X39520730Y-66155752D01*
X39533674Y-66237482D01*
X39538426Y-66267482D01*
X39592427Y-66373465D01*
X39676535Y-66457573D01*
X39782518Y-66511574D01*
X39900000Y-66530181D01*
X40017482Y-66511574D01*
X40123465Y-66457573D01*
X40207573Y-66373465D01*
X40257743Y-66275000D01*
X46444819Y-66275000D01*
X46445730Y-66280752D01*
X46459591Y-66368272D01*
X46463426Y-66392482D01*
X46517427Y-66498465D01*
X46601535Y-66582573D01*
X46707518Y-66636574D01*
X46825000Y-66655181D01*
X46942482Y-66636574D01*
X47048465Y-66582573D01*
X47132573Y-66498465D01*
X47186574Y-66392482D01*
X47205181Y-66275000D01*
X47186574Y-66157518D01*
X47167458Y-66120000D01*
X53699819Y-66120000D01*
X53700730Y-66125752D01*
X53704938Y-66152324D01*
X53718426Y-66237482D01*
X53772427Y-66343465D01*
X53856535Y-66427573D01*
X53962518Y-66481574D01*
X54080000Y-66500181D01*
X54197482Y-66481574D01*
X54303465Y-66427573D01*
X54387573Y-66343465D01*
X54441574Y-66237482D01*
X54460181Y-66120000D01*
X54441574Y-66002518D01*
X54387573Y-65896535D01*
X54303465Y-65812427D01*
X54197482Y-65758426D01*
X54191728Y-65757514D01*
X54191726Y-65757514D01*
X54085752Y-65740730D01*
X54080000Y-65739819D01*
X54074248Y-65740730D01*
X53968273Y-65757514D01*
X53968269Y-65757515D01*
X53962518Y-65758426D01*
X53957326Y-65761071D01*
X53957324Y-65761072D01*
X53861727Y-65809781D01*
X53861724Y-65809782D01*
X53856535Y-65812427D01*
X53852418Y-65816543D01*
X53852415Y-65816546D01*
X53776546Y-65892415D01*
X53776543Y-65892418D01*
X53772427Y-65896535D01*
X53769782Y-65901724D01*
X53769781Y-65901727D01*
X53734207Y-65971546D01*
X53718426Y-66002518D01*
X53717515Y-66008269D01*
X53717514Y-66008273D01*
X53709840Y-66056727D01*
X53699819Y-66120000D01*
X47167458Y-66120000D01*
X47132573Y-66051535D01*
X47048465Y-65967427D01*
X47026024Y-65955993D01*
X46947675Y-65916072D01*
X46942482Y-65913426D01*
X46936728Y-65912514D01*
X46936726Y-65912514D01*
X46830752Y-65895730D01*
X46825000Y-65894819D01*
X46819248Y-65895730D01*
X46713273Y-65912514D01*
X46713269Y-65912515D01*
X46707518Y-65913426D01*
X46702326Y-65916071D01*
X46702324Y-65916072D01*
X46606727Y-65964781D01*
X46606724Y-65964782D01*
X46601535Y-65967427D01*
X46597418Y-65971543D01*
X46597415Y-65971546D01*
X46521546Y-66047415D01*
X46521543Y-66047418D01*
X46517427Y-66051535D01*
X46514782Y-66056724D01*
X46514781Y-66056727D01*
X46466072Y-66152324D01*
X46463426Y-66157518D01*
X46462515Y-66163269D01*
X46462514Y-66163273D01*
X46451673Y-66231726D01*
X46444819Y-66275000D01*
X40257743Y-66275000D01*
X40261574Y-66267482D01*
X40280181Y-66150000D01*
X40261574Y-66032518D01*
X40207573Y-65926535D01*
X40123465Y-65842427D01*
X40017482Y-65788426D01*
X40011728Y-65787514D01*
X40011726Y-65787514D01*
X39905752Y-65770730D01*
X39900000Y-65769819D01*
X39894248Y-65770730D01*
X39788273Y-65787514D01*
X39788269Y-65787515D01*
X39782518Y-65788426D01*
X39777326Y-65791071D01*
X39777324Y-65791072D01*
X39681727Y-65839781D01*
X39681724Y-65839782D01*
X39676535Y-65842427D01*
X39672418Y-65846543D01*
X39672415Y-65846546D01*
X39596546Y-65922415D01*
X39596543Y-65922418D01*
X39592427Y-65926535D01*
X39589782Y-65931724D01*
X39589781Y-65931727D01*
X39550779Y-66008273D01*
X39538426Y-66032518D01*
X39537515Y-66038269D01*
X39537514Y-66038273D01*
X39525481Y-66114248D01*
X39519819Y-66150000D01*
X32300500Y-66150000D01*
X32300500Y-65576723D01*
X56675524Y-65576723D01*
X56694131Y-65694205D01*
X56748132Y-65800188D01*
X56832240Y-65884296D01*
X56938223Y-65938297D01*
X57055705Y-65956904D01*
X57173187Y-65938297D01*
X57279170Y-65884296D01*
X57363278Y-65800188D01*
X57417279Y-65694205D01*
X57435886Y-65576723D01*
X57417279Y-65459241D01*
X57363278Y-65353258D01*
X57279170Y-65269150D01*
X57173187Y-65215149D01*
X57167433Y-65214237D01*
X57167431Y-65214237D01*
X57061457Y-65197453D01*
X57055705Y-65196542D01*
X57049953Y-65197453D01*
X56943978Y-65214237D01*
X56943974Y-65214238D01*
X56938223Y-65215149D01*
X56933031Y-65217794D01*
X56933029Y-65217795D01*
X56837432Y-65266504D01*
X56837429Y-65266505D01*
X56832240Y-65269150D01*
X56828123Y-65273266D01*
X56828120Y-65273269D01*
X56752251Y-65349138D01*
X56752248Y-65349141D01*
X56748132Y-65353258D01*
X56745487Y-65358447D01*
X56745486Y-65358450D01*
X56696777Y-65454047D01*
X56694131Y-65459241D01*
X56693220Y-65464992D01*
X56693219Y-65464996D01*
X56677180Y-65566265D01*
X56675524Y-65576723D01*
X32300500Y-65576723D01*
X32300500Y-64655000D01*
X44789819Y-64655000D01*
X44808426Y-64772482D01*
X44862427Y-64878465D01*
X44946535Y-64962573D01*
X45052518Y-65016574D01*
X45170000Y-65035181D01*
X45287482Y-65016574D01*
X45393465Y-64962573D01*
X45477573Y-64878465D01*
X45531574Y-64772482D01*
X45537881Y-64732660D01*
X59210891Y-64732660D01*
X59211247Y-64736275D01*
X59215324Y-64777675D01*
X59230208Y-64928792D01*
X59231260Y-64932261D01*
X59231261Y-64932264D01*
X59262481Y-65035181D01*
X59287418Y-65117387D01*
X59289130Y-65120590D01*
X59289133Y-65120597D01*
X59329727Y-65196542D01*
X59380322Y-65291198D01*
X59382623Y-65294002D01*
X59382626Y-65294006D01*
X59503042Y-65440732D01*
X59505349Y-65443543D01*
X59657694Y-65568570D01*
X59773112Y-65630262D01*
X59828294Y-65659758D01*
X59828296Y-65659759D01*
X59831505Y-65661474D01*
X60020100Y-65718684D01*
X60216232Y-65738001D01*
X60412364Y-65718684D01*
X60600959Y-65661474D01*
X60774770Y-65568570D01*
X60927115Y-65443543D01*
X61052142Y-65291198D01*
X61145046Y-65117387D01*
X61202256Y-64928792D01*
X61221573Y-64732660D01*
X61202256Y-64536528D01*
X61145046Y-64347933D01*
X61052142Y-64174122D01*
X61018043Y-64132573D01*
X60929421Y-64024587D01*
X60927115Y-64021777D01*
X60836822Y-63947675D01*
X60777578Y-63899054D01*
X60777574Y-63899051D01*
X60774770Y-63896750D01*
X60651297Y-63830752D01*
X60604169Y-63805561D01*
X60604162Y-63805558D01*
X60600959Y-63803846D01*
X60597478Y-63802790D01*
X60415836Y-63747689D01*
X60415833Y-63747688D01*
X60412364Y-63746636D01*
X60408752Y-63746280D01*
X60408751Y-63746280D01*
X60219847Y-63727675D01*
X60216232Y-63727319D01*
X60212617Y-63727675D01*
X60023712Y-63746280D01*
X60023709Y-63746280D01*
X60020100Y-63746636D01*
X60016632Y-63747687D01*
X60016627Y-63747689D01*
X59834985Y-63802790D01*
X59834981Y-63802791D01*
X59831505Y-63803846D01*
X59828304Y-63805556D01*
X59828294Y-63805561D01*
X59660900Y-63895036D01*
X59660897Y-63895037D01*
X59657694Y-63896750D01*
X59654893Y-63899048D01*
X59654885Y-63899054D01*
X59508159Y-64019470D01*
X59508154Y-64019474D01*
X59505349Y-64021777D01*
X59503046Y-64024582D01*
X59503042Y-64024587D01*
X59382626Y-64171313D01*
X59382620Y-64171321D01*
X59380322Y-64174122D01*
X59378609Y-64177325D01*
X59378608Y-64177328D01*
X59289133Y-64344722D01*
X59289128Y-64344732D01*
X59287418Y-64347933D01*
X59286363Y-64351409D01*
X59286362Y-64351413D01*
X59231261Y-64533055D01*
X59231259Y-64533060D01*
X59230208Y-64536528D01*
X59229852Y-64540137D01*
X59229852Y-64540140D01*
X59219106Y-64649248D01*
X59210891Y-64732660D01*
X45537881Y-64732660D01*
X45550181Y-64655000D01*
X45531574Y-64537518D01*
X45477573Y-64431535D01*
X45393465Y-64347427D01*
X45287482Y-64293426D01*
X45281728Y-64292514D01*
X45281726Y-64292514D01*
X45175752Y-64275730D01*
X45170000Y-64274819D01*
X45164248Y-64275730D01*
X45058273Y-64292514D01*
X45058269Y-64292515D01*
X45052518Y-64293426D01*
X45047326Y-64296071D01*
X45047324Y-64296072D01*
X44951727Y-64344781D01*
X44951724Y-64344782D01*
X44946535Y-64347427D01*
X44942418Y-64351543D01*
X44942415Y-64351546D01*
X44866546Y-64427415D01*
X44866543Y-64427418D01*
X44862427Y-64431535D01*
X44859782Y-64436724D01*
X44859781Y-64436727D01*
X44811072Y-64532324D01*
X44808426Y-64537518D01*
X44807515Y-64543269D01*
X44807514Y-64543273D01*
X44790730Y-64649248D01*
X44789819Y-64655000D01*
X32300500Y-64655000D01*
X32300500Y-63825000D01*
X46394819Y-63825000D01*
X46413426Y-63942482D01*
X46467427Y-64048465D01*
X46551535Y-64132573D01*
X46657518Y-64186574D01*
X46775000Y-64205181D01*
X46892482Y-64186574D01*
X46998465Y-64132573D01*
X47082573Y-64048465D01*
X47136574Y-63942482D01*
X47155181Y-63825000D01*
X47136574Y-63707518D01*
X47082573Y-63601535D01*
X46998465Y-63517427D01*
X46892482Y-63463426D01*
X46886728Y-63462514D01*
X46886726Y-63462514D01*
X46780752Y-63445730D01*
X46775000Y-63444819D01*
X46769248Y-63445730D01*
X46663273Y-63462514D01*
X46663269Y-63462515D01*
X46657518Y-63463426D01*
X46652326Y-63466071D01*
X46652324Y-63466072D01*
X46556727Y-63514781D01*
X46556724Y-63514782D01*
X46551535Y-63517427D01*
X46547418Y-63521543D01*
X46547415Y-63521546D01*
X46471546Y-63597415D01*
X46471543Y-63597418D01*
X46467427Y-63601535D01*
X46464782Y-63606724D01*
X46464781Y-63606727D01*
X46416072Y-63702324D01*
X46413426Y-63707518D01*
X46412515Y-63713269D01*
X46412514Y-63713273D01*
X46398337Y-63802790D01*
X46394819Y-63825000D01*
X32300500Y-63825000D01*
X32300500Y-62600000D01*
X46444819Y-62600000D01*
X46463426Y-62717482D01*
X46517427Y-62823465D01*
X46601535Y-62907573D01*
X46707518Y-62961574D01*
X46825000Y-62980181D01*
X46942482Y-62961574D01*
X47048465Y-62907573D01*
X47132573Y-62823465D01*
X47186574Y-62717482D01*
X47205181Y-62600000D01*
X47186574Y-62482518D01*
X47132573Y-62376535D01*
X47048465Y-62292427D01*
X46942482Y-62238426D01*
X46936728Y-62237514D01*
X46936726Y-62237514D01*
X46830752Y-62220730D01*
X46825000Y-62219819D01*
X46819248Y-62220730D01*
X46713273Y-62237514D01*
X46713269Y-62237515D01*
X46707518Y-62238426D01*
X46702326Y-62241071D01*
X46702324Y-62241072D01*
X46606727Y-62289781D01*
X46606724Y-62289782D01*
X46601535Y-62292427D01*
X46597418Y-62296543D01*
X46597415Y-62296546D01*
X46521546Y-62372415D01*
X46521543Y-62372418D01*
X46517427Y-62376535D01*
X46514782Y-62381724D01*
X46514781Y-62381727D01*
X46466072Y-62477324D01*
X46463426Y-62482518D01*
X46462515Y-62488269D01*
X46462514Y-62488273D01*
X46445730Y-62594248D01*
X46444819Y-62600000D01*
X32300500Y-62600000D01*
X32300500Y-61280000D01*
X53519819Y-61280000D01*
X53520730Y-61285752D01*
X53527177Y-61326461D01*
X53538426Y-61397482D01*
X53592427Y-61503465D01*
X53676535Y-61587573D01*
X53782518Y-61641574D01*
X53900000Y-61660181D01*
X54017482Y-61641574D01*
X54123465Y-61587573D01*
X54207573Y-61503465D01*
X54261574Y-61397482D01*
X54280181Y-61280000D01*
X54261574Y-61162518D01*
X54243404Y-61126857D01*
X56669437Y-61126857D01*
X56669793Y-61130472D01*
X56685086Y-61285752D01*
X56688754Y-61322989D01*
X56689806Y-61326458D01*
X56689807Y-61326461D01*
X56741926Y-61498272D01*
X56745964Y-61511584D01*
X56747676Y-61514787D01*
X56747679Y-61514794D01*
X56814030Y-61638927D01*
X56838868Y-61685395D01*
X56963895Y-61837740D01*
X57116240Y-61962767D01*
X57231658Y-62024459D01*
X57286840Y-62053955D01*
X57286842Y-62053956D01*
X57290051Y-62055671D01*
X57478646Y-62112881D01*
X57674778Y-62132198D01*
X57870910Y-62112881D01*
X58059505Y-62055671D01*
X58233316Y-61962767D01*
X58385661Y-61837740D01*
X58510688Y-61685395D01*
X58603592Y-61511584D01*
X58660802Y-61322989D01*
X58680119Y-61126857D01*
X58660802Y-60930725D01*
X58603592Y-60742130D01*
X58510688Y-60568319D01*
X58479857Y-60530752D01*
X58387967Y-60418784D01*
X58385661Y-60415974D01*
X58365826Y-60399696D01*
X58236124Y-60293251D01*
X58236120Y-60293248D01*
X58233316Y-60290947D01*
X58198970Y-60272589D01*
X58062715Y-60199758D01*
X58062708Y-60199755D01*
X58059505Y-60198043D01*
X58047179Y-60194304D01*
X57874382Y-60141886D01*
X57874379Y-60141885D01*
X57870910Y-60140833D01*
X57867298Y-60140477D01*
X57867297Y-60140477D01*
X57678393Y-60121872D01*
X57674778Y-60121516D01*
X57671163Y-60121872D01*
X57482258Y-60140477D01*
X57482255Y-60140477D01*
X57478646Y-60140833D01*
X57475178Y-60141884D01*
X57475173Y-60141886D01*
X57293531Y-60196987D01*
X57293527Y-60196988D01*
X57290051Y-60198043D01*
X57286850Y-60199753D01*
X57286840Y-60199758D01*
X57119446Y-60289233D01*
X57119443Y-60289234D01*
X57116240Y-60290947D01*
X57113439Y-60293245D01*
X57113431Y-60293251D01*
X56966705Y-60413667D01*
X56966700Y-60413671D01*
X56963895Y-60415974D01*
X56961592Y-60418779D01*
X56961588Y-60418784D01*
X56841172Y-60565510D01*
X56841166Y-60565518D01*
X56838868Y-60568319D01*
X56837155Y-60571522D01*
X56837154Y-60571525D01*
X56747679Y-60738919D01*
X56747674Y-60738929D01*
X56745964Y-60742130D01*
X56744909Y-60745606D01*
X56744908Y-60745610D01*
X56689807Y-60927252D01*
X56689805Y-60927257D01*
X56688754Y-60930725D01*
X56669437Y-61126857D01*
X54243404Y-61126857D01*
X54207573Y-61056535D01*
X54123465Y-60972427D01*
X54017482Y-60918426D01*
X54011728Y-60917514D01*
X54011726Y-60917514D01*
X53905752Y-60900730D01*
X53900000Y-60899819D01*
X53894248Y-60900730D01*
X53788273Y-60917514D01*
X53788269Y-60917515D01*
X53782518Y-60918426D01*
X53777326Y-60921071D01*
X53777324Y-60921072D01*
X53681727Y-60969781D01*
X53681724Y-60969782D01*
X53676535Y-60972427D01*
X53672418Y-60976543D01*
X53672415Y-60976546D01*
X53596546Y-61052415D01*
X53596543Y-61052418D01*
X53592427Y-61056535D01*
X53589782Y-61061724D01*
X53589781Y-61061727D01*
X53558438Y-61123242D01*
X53538426Y-61162518D01*
X53537515Y-61168269D01*
X53537514Y-61168273D01*
X53520730Y-61274248D01*
X53519819Y-61280000D01*
X32300500Y-61280000D01*
X32300500Y-60525000D01*
X36941508Y-60525000D01*
X36961354Y-60650304D01*
X37018950Y-60763342D01*
X37108658Y-60853050D01*
X37221696Y-60910646D01*
X37347000Y-60930492D01*
X37472304Y-60910646D01*
X37585342Y-60853050D01*
X37675050Y-60763342D01*
X37732646Y-60650304D01*
X37752492Y-60525000D01*
X37732646Y-60399696D01*
X37675050Y-60286658D01*
X37585342Y-60196950D01*
X37472304Y-60139354D01*
X37466550Y-60138442D01*
X37466548Y-60138442D01*
X37352752Y-60120419D01*
X37347000Y-60119508D01*
X37341248Y-60120419D01*
X37227451Y-60138442D01*
X37227447Y-60138442D01*
X37221696Y-60139354D01*
X37216504Y-60141999D01*
X37216502Y-60142000D01*
X37113850Y-60194304D01*
X37113847Y-60194305D01*
X37108658Y-60196950D01*
X37104541Y-60201066D01*
X37104538Y-60201069D01*
X37023069Y-60282538D01*
X37023066Y-60282541D01*
X37018950Y-60286658D01*
X37016305Y-60291847D01*
X37016304Y-60291850D01*
X36964000Y-60394502D01*
X36961354Y-60399696D01*
X36960442Y-60405447D01*
X36960442Y-60405451D01*
X36942419Y-60519248D01*
X36941508Y-60525000D01*
X32300500Y-60525000D01*
X32300500Y-57412000D01*
X41794508Y-57412000D01*
X41814354Y-57537304D01*
X41871950Y-57650342D01*
X41961658Y-57740050D01*
X42074696Y-57797646D01*
X42200000Y-57817492D01*
X42325304Y-57797646D01*
X42438342Y-57740050D01*
X42528050Y-57650342D01*
X42582709Y-57543068D01*
X56670381Y-57543068D01*
X56689698Y-57739200D01*
X56690750Y-57742669D01*
X56690751Y-57742672D01*
X56707704Y-57798557D01*
X56746908Y-57927795D01*
X56748620Y-57930998D01*
X56748623Y-57931005D01*
X56821454Y-58067260D01*
X56839812Y-58101606D01*
X56964839Y-58253951D01*
X57117184Y-58378978D01*
X57232602Y-58440670D01*
X57287784Y-58470166D01*
X57287786Y-58470167D01*
X57290995Y-58471882D01*
X57479590Y-58529092D01*
X57675722Y-58548409D01*
X57871854Y-58529092D01*
X58060449Y-58471882D01*
X58234260Y-58378978D01*
X58386605Y-58253951D01*
X58511632Y-58101606D01*
X58604536Y-57927795D01*
X58661746Y-57739200D01*
X58681063Y-57543068D01*
X59210381Y-57543068D01*
X59229698Y-57739200D01*
X59230750Y-57742669D01*
X59230751Y-57742672D01*
X59247704Y-57798557D01*
X59286908Y-57927795D01*
X59288620Y-57930998D01*
X59288623Y-57931005D01*
X59361454Y-58067260D01*
X59379812Y-58101606D01*
X59504839Y-58253951D01*
X59657184Y-58378978D01*
X59772602Y-58440670D01*
X59827784Y-58470166D01*
X59827786Y-58470167D01*
X59830995Y-58471882D01*
X60019590Y-58529092D01*
X60215722Y-58548409D01*
X60411854Y-58529092D01*
X60600449Y-58471882D01*
X60774260Y-58378978D01*
X60926605Y-58253951D01*
X61051632Y-58101606D01*
X61144536Y-57927795D01*
X61201746Y-57739200D01*
X61221063Y-57543068D01*
X61201746Y-57346936D01*
X61144536Y-57158341D01*
X61051632Y-56984530D01*
X60926605Y-56832185D01*
X60923794Y-56829878D01*
X60777068Y-56709462D01*
X60777064Y-56709459D01*
X60774260Y-56707158D01*
X60739914Y-56688800D01*
X60603659Y-56615969D01*
X60603652Y-56615966D01*
X60600449Y-56614254D01*
X60505143Y-56585343D01*
X60415326Y-56558097D01*
X60415323Y-56558096D01*
X60411854Y-56557044D01*
X60408242Y-56556688D01*
X60408241Y-56556688D01*
X60219337Y-56538083D01*
X60215722Y-56537727D01*
X60212107Y-56538083D01*
X60023202Y-56556688D01*
X60023199Y-56556688D01*
X60019590Y-56557044D01*
X60016122Y-56558095D01*
X60016117Y-56558097D01*
X59834475Y-56613198D01*
X59834471Y-56613199D01*
X59830995Y-56614254D01*
X59827794Y-56615964D01*
X59827784Y-56615969D01*
X59660390Y-56705444D01*
X59660387Y-56705445D01*
X59657184Y-56707158D01*
X59654383Y-56709456D01*
X59654375Y-56709462D01*
X59507649Y-56829878D01*
X59507644Y-56829882D01*
X59504839Y-56832185D01*
X59502536Y-56834990D01*
X59502532Y-56834995D01*
X59382116Y-56981721D01*
X59382110Y-56981729D01*
X59379812Y-56984530D01*
X59378099Y-56987733D01*
X59378098Y-56987736D01*
X59288623Y-57155130D01*
X59288618Y-57155140D01*
X59286908Y-57158341D01*
X59285853Y-57161817D01*
X59285852Y-57161821D01*
X59230751Y-57343463D01*
X59230749Y-57343468D01*
X59229698Y-57346936D01*
X59210381Y-57543068D01*
X58681063Y-57543068D01*
X58661746Y-57346936D01*
X58604536Y-57158341D01*
X58511632Y-56984530D01*
X58386605Y-56832185D01*
X58383794Y-56829878D01*
X58237068Y-56709462D01*
X58237064Y-56709459D01*
X58234260Y-56707158D01*
X58199914Y-56688800D01*
X58063659Y-56615969D01*
X58063652Y-56615966D01*
X58060449Y-56614254D01*
X57965143Y-56585343D01*
X57875326Y-56558097D01*
X57875323Y-56558096D01*
X57871854Y-56557044D01*
X57868242Y-56556688D01*
X57868241Y-56556688D01*
X57679337Y-56538083D01*
X57675722Y-56537727D01*
X57672107Y-56538083D01*
X57483202Y-56556688D01*
X57483199Y-56556688D01*
X57479590Y-56557044D01*
X57476122Y-56558095D01*
X57476117Y-56558097D01*
X57294475Y-56613198D01*
X57294471Y-56613199D01*
X57290995Y-56614254D01*
X57287794Y-56615964D01*
X57287784Y-56615969D01*
X57120390Y-56705444D01*
X57120387Y-56705445D01*
X57117184Y-56707158D01*
X57114383Y-56709456D01*
X57114375Y-56709462D01*
X56967649Y-56829878D01*
X56967644Y-56829882D01*
X56964839Y-56832185D01*
X56962536Y-56834990D01*
X56962532Y-56834995D01*
X56842116Y-56981721D01*
X56842110Y-56981729D01*
X56839812Y-56984530D01*
X56838099Y-56987733D01*
X56838098Y-56987736D01*
X56748623Y-57155130D01*
X56748618Y-57155140D01*
X56746908Y-57158341D01*
X56745853Y-57161817D01*
X56745852Y-57161821D01*
X56690751Y-57343463D01*
X56690749Y-57343468D01*
X56689698Y-57346936D01*
X56670381Y-57543068D01*
X42582709Y-57543068D01*
X42585646Y-57537304D01*
X42605492Y-57412000D01*
X42585646Y-57286696D01*
X42528050Y-57173658D01*
X42438342Y-57083950D01*
X42325304Y-57026354D01*
X42319550Y-57025442D01*
X42319548Y-57025442D01*
X42205752Y-57007419D01*
X42200000Y-57006508D01*
X42194248Y-57007419D01*
X42080451Y-57025442D01*
X42080447Y-57025442D01*
X42074696Y-57026354D01*
X42069504Y-57028999D01*
X42069502Y-57029000D01*
X41966850Y-57081304D01*
X41966847Y-57081305D01*
X41961658Y-57083950D01*
X41957541Y-57088066D01*
X41957538Y-57088069D01*
X41876069Y-57169538D01*
X41876066Y-57169541D01*
X41871950Y-57173658D01*
X41869305Y-57178847D01*
X41869304Y-57178850D01*
X41817000Y-57281502D01*
X41814354Y-57286696D01*
X41813442Y-57292447D01*
X41813442Y-57292451D01*
X41805363Y-57343463D01*
X41794508Y-57412000D01*
X32300500Y-57412000D01*
X32300500Y-56136334D01*
X40939082Y-56136334D01*
X40939835Y-56141571D01*
X40955922Y-56253465D01*
X40957518Y-56264560D01*
X41011333Y-56382397D01*
X41014794Y-56386392D01*
X41014796Y-56386394D01*
X41092700Y-56476301D01*
X41096166Y-56480301D01*
X41205146Y-56550338D01*
X41210218Y-56551827D01*
X41210220Y-56551828D01*
X41227985Y-56557044D01*
X41329443Y-56586834D01*
X41453695Y-56586834D01*
X41458987Y-56586834D01*
X41583284Y-56550338D01*
X41692264Y-56480301D01*
X41777097Y-56382397D01*
X41830912Y-56264560D01*
X41849348Y-56136334D01*
X41834060Y-56030000D01*
X49729819Y-56030000D01*
X49730730Y-56035752D01*
X49747489Y-56141571D01*
X49748426Y-56147482D01*
X49802427Y-56253465D01*
X49886535Y-56337573D01*
X49992518Y-56391574D01*
X50110000Y-56410181D01*
X50227482Y-56391574D01*
X50333465Y-56337573D01*
X50417573Y-56253465D01*
X50471574Y-56147482D01*
X50490181Y-56030000D01*
X50471574Y-55912518D01*
X50417573Y-55806535D01*
X50333465Y-55722427D01*
X50227482Y-55668426D01*
X50221728Y-55667514D01*
X50221726Y-55667514D01*
X50115752Y-55650730D01*
X50110000Y-55649819D01*
X50104248Y-55650730D01*
X49998273Y-55667514D01*
X49998269Y-55667515D01*
X49992518Y-55668426D01*
X49987326Y-55671071D01*
X49987324Y-55671072D01*
X49891727Y-55719781D01*
X49891724Y-55719782D01*
X49886535Y-55722427D01*
X49882418Y-55726543D01*
X49882415Y-55726546D01*
X49806546Y-55802415D01*
X49806543Y-55802418D01*
X49802427Y-55806535D01*
X49799782Y-55811724D01*
X49799781Y-55811727D01*
X49751072Y-55907324D01*
X49748426Y-55912518D01*
X49747515Y-55918269D01*
X49747514Y-55918273D01*
X49745359Y-55931882D01*
X49729819Y-56030000D01*
X41834060Y-56030000D01*
X41830912Y-56008108D01*
X41777097Y-55890271D01*
X41692264Y-55792367D01*
X41583284Y-55722330D01*
X41578214Y-55720841D01*
X41578209Y-55720839D01*
X41464063Y-55687324D01*
X41464060Y-55687323D01*
X41458987Y-55685834D01*
X41329443Y-55685834D01*
X41324370Y-55687323D01*
X41324366Y-55687324D01*
X41210220Y-55720839D01*
X41210212Y-55720842D01*
X41205146Y-55722330D01*
X41200697Y-55725188D01*
X41200695Y-55725190D01*
X41100618Y-55789505D01*
X41100614Y-55789508D01*
X41096166Y-55792367D01*
X41092703Y-55796362D01*
X41092700Y-55796366D01*
X41014796Y-55886273D01*
X41014792Y-55886278D01*
X41011333Y-55890271D01*
X41009137Y-55895079D01*
X41009136Y-55895081D01*
X40966684Y-55988038D01*
X40957518Y-56008108D01*
X40956765Y-56013343D01*
X40956764Y-56013348D01*
X40955197Y-56024248D01*
X40939082Y-56136334D01*
X32300500Y-56136334D01*
X32300500Y-55003068D01*
X56670381Y-55003068D01*
X56689698Y-55199200D01*
X56746908Y-55387795D01*
X56748620Y-55390998D01*
X56748623Y-55391005D01*
X56821454Y-55527260D01*
X56839812Y-55561606D01*
X56842113Y-55564410D01*
X56842116Y-55564414D01*
X56926729Y-55667514D01*
X56964839Y-55713951D01*
X56967649Y-55716257D01*
X57083978Y-55811727D01*
X57117184Y-55838978D01*
X57222145Y-55895081D01*
X57287784Y-55930166D01*
X57287786Y-55930167D01*
X57290995Y-55931882D01*
X57479590Y-55989092D01*
X57675722Y-56008409D01*
X57871854Y-55989092D01*
X58060449Y-55931882D01*
X58234260Y-55838978D01*
X58386605Y-55713951D01*
X58511632Y-55561606D01*
X58604536Y-55387795D01*
X58661746Y-55199200D01*
X58681063Y-55003068D01*
X59210381Y-55003068D01*
X59229698Y-55199200D01*
X59286908Y-55387795D01*
X59288620Y-55390998D01*
X59288623Y-55391005D01*
X59361454Y-55527260D01*
X59379812Y-55561606D01*
X59382113Y-55564410D01*
X59382116Y-55564414D01*
X59466729Y-55667514D01*
X59504839Y-55713951D01*
X59507649Y-55716257D01*
X59623978Y-55811727D01*
X59657184Y-55838978D01*
X59762145Y-55895081D01*
X59827784Y-55930166D01*
X59827786Y-55930167D01*
X59830995Y-55931882D01*
X60019590Y-55989092D01*
X60215722Y-56008409D01*
X60411854Y-55989092D01*
X60600449Y-55931882D01*
X60774260Y-55838978D01*
X60926605Y-55713951D01*
X61051632Y-55561606D01*
X61144536Y-55387795D01*
X61201746Y-55199200D01*
X61221063Y-55003068D01*
X61201746Y-54806936D01*
X61144536Y-54618341D01*
X61051632Y-54444530D01*
X60926605Y-54292185D01*
X60923794Y-54289878D01*
X60777068Y-54169462D01*
X60777064Y-54169459D01*
X60774260Y-54167158D01*
X60739914Y-54148800D01*
X60603659Y-54075969D01*
X60603652Y-54075966D01*
X60600449Y-54074254D01*
X60596968Y-54073198D01*
X60415326Y-54018097D01*
X60415323Y-54018096D01*
X60411854Y-54017044D01*
X60408242Y-54016688D01*
X60408241Y-54016688D01*
X60219337Y-53998083D01*
X60215722Y-53997727D01*
X60212107Y-53998083D01*
X60023202Y-54016688D01*
X60023199Y-54016688D01*
X60019590Y-54017044D01*
X60016122Y-54018095D01*
X60016117Y-54018097D01*
X59834475Y-54073198D01*
X59834471Y-54073199D01*
X59830995Y-54074254D01*
X59827794Y-54075964D01*
X59827784Y-54075969D01*
X59660390Y-54165444D01*
X59660387Y-54165445D01*
X59657184Y-54167158D01*
X59654383Y-54169456D01*
X59654375Y-54169462D01*
X59507649Y-54289878D01*
X59507644Y-54289882D01*
X59504839Y-54292185D01*
X59502536Y-54294990D01*
X59502532Y-54294995D01*
X59382116Y-54441721D01*
X59382110Y-54441729D01*
X59379812Y-54444530D01*
X59378099Y-54447733D01*
X59378098Y-54447736D01*
X59288623Y-54615130D01*
X59288618Y-54615140D01*
X59286908Y-54618341D01*
X59285853Y-54621817D01*
X59285852Y-54621821D01*
X59230751Y-54803463D01*
X59230749Y-54803468D01*
X59229698Y-54806936D01*
X59210381Y-55003068D01*
X58681063Y-55003068D01*
X58661746Y-54806936D01*
X58604536Y-54618341D01*
X58511632Y-54444530D01*
X58386605Y-54292185D01*
X58383794Y-54289878D01*
X58237068Y-54169462D01*
X58237064Y-54169459D01*
X58234260Y-54167158D01*
X58199914Y-54148800D01*
X58063659Y-54075969D01*
X58063652Y-54075966D01*
X58060449Y-54074254D01*
X58056968Y-54073198D01*
X57875326Y-54018097D01*
X57875323Y-54018096D01*
X57871854Y-54017044D01*
X57868242Y-54016688D01*
X57868241Y-54016688D01*
X57679337Y-53998083D01*
X57675722Y-53997727D01*
X57672107Y-53998083D01*
X57483202Y-54016688D01*
X57483199Y-54016688D01*
X57479590Y-54017044D01*
X57476122Y-54018095D01*
X57476117Y-54018097D01*
X57294475Y-54073198D01*
X57294471Y-54073199D01*
X57290995Y-54074254D01*
X57287794Y-54075964D01*
X57287784Y-54075969D01*
X57120390Y-54165444D01*
X57120387Y-54165445D01*
X57117184Y-54167158D01*
X57114383Y-54169456D01*
X57114375Y-54169462D01*
X56967649Y-54289878D01*
X56967644Y-54289882D01*
X56964839Y-54292185D01*
X56962536Y-54294990D01*
X56962532Y-54294995D01*
X56842116Y-54441721D01*
X56842110Y-54441729D01*
X56839812Y-54444530D01*
X56838099Y-54447733D01*
X56838098Y-54447736D01*
X56748623Y-54615130D01*
X56748618Y-54615140D01*
X56746908Y-54618341D01*
X56745853Y-54621817D01*
X56745852Y-54621821D01*
X56690751Y-54803463D01*
X56690749Y-54803468D01*
X56689698Y-54806936D01*
X56670381Y-55003068D01*
X32300500Y-55003068D01*
X32300500Y-52400000D01*
X41944867Y-52400000D01*
X41945620Y-52405237D01*
X41954454Y-52466683D01*
X41963303Y-52528226D01*
X42017118Y-52646063D01*
X42020579Y-52650058D01*
X42020581Y-52650060D01*
X42098485Y-52739967D01*
X42101951Y-52743967D01*
X42210931Y-52814004D01*
X42216003Y-52815493D01*
X42216005Y-52815494D01*
X42258620Y-52828006D01*
X42335228Y-52850500D01*
X42459480Y-52850500D01*
X42464772Y-52850500D01*
X42589069Y-52814004D01*
X42698049Y-52743967D01*
X42782882Y-52646063D01*
X42836697Y-52528226D01*
X42846065Y-52463068D01*
X56670381Y-52463068D01*
X56689698Y-52659200D01*
X56690750Y-52662669D01*
X56690751Y-52662672D01*
X56745852Y-52844314D01*
X56746908Y-52847795D01*
X56748620Y-52850998D01*
X56748623Y-52851005D01*
X56821454Y-52987260D01*
X56839812Y-53021606D01*
X56964839Y-53173951D01*
X57117184Y-53298978D01*
X57232602Y-53360670D01*
X57287784Y-53390166D01*
X57287786Y-53390167D01*
X57290995Y-53391882D01*
X57479590Y-53449092D01*
X57675722Y-53468409D01*
X57871854Y-53449092D01*
X58060449Y-53391882D01*
X58234260Y-53298978D01*
X58386605Y-53173951D01*
X58511632Y-53021606D01*
X58604536Y-52847795D01*
X58661746Y-52659200D01*
X58681063Y-52463068D01*
X59210381Y-52463068D01*
X59229698Y-52659200D01*
X59230750Y-52662669D01*
X59230751Y-52662672D01*
X59285852Y-52844314D01*
X59286908Y-52847795D01*
X59288620Y-52850998D01*
X59288623Y-52851005D01*
X59361454Y-52987260D01*
X59379812Y-53021606D01*
X59504839Y-53173951D01*
X59657184Y-53298978D01*
X59772602Y-53360670D01*
X59827784Y-53390166D01*
X59827786Y-53390167D01*
X59830995Y-53391882D01*
X60019590Y-53449092D01*
X60215722Y-53468409D01*
X60411854Y-53449092D01*
X60600449Y-53391882D01*
X60774260Y-53298978D01*
X60926605Y-53173951D01*
X61051632Y-53021606D01*
X61144536Y-52847795D01*
X61201746Y-52659200D01*
X61221063Y-52463068D01*
X61201746Y-52266936D01*
X61144536Y-52078341D01*
X61131082Y-52053171D01*
X61096705Y-51988856D01*
X61051632Y-51904530D01*
X60926605Y-51752185D01*
X60923794Y-51749878D01*
X60777068Y-51629462D01*
X60777064Y-51629459D01*
X60774260Y-51627158D01*
X60739914Y-51608800D01*
X60603659Y-51535969D01*
X60603652Y-51535966D01*
X60600449Y-51534254D01*
X60596968Y-51533198D01*
X60415326Y-51478097D01*
X60415323Y-51478096D01*
X60411854Y-51477044D01*
X60408242Y-51476688D01*
X60408241Y-51476688D01*
X60219337Y-51458083D01*
X60215722Y-51457727D01*
X60212107Y-51458083D01*
X60023202Y-51476688D01*
X60023199Y-51476688D01*
X60019590Y-51477044D01*
X60016122Y-51478095D01*
X60016117Y-51478097D01*
X59834475Y-51533198D01*
X59834471Y-51533199D01*
X59830995Y-51534254D01*
X59827794Y-51535964D01*
X59827784Y-51535969D01*
X59660390Y-51625444D01*
X59660387Y-51625445D01*
X59657184Y-51627158D01*
X59654383Y-51629456D01*
X59654375Y-51629462D01*
X59507649Y-51749878D01*
X59507644Y-51749882D01*
X59504839Y-51752185D01*
X59502536Y-51754990D01*
X59502532Y-51754995D01*
X59382116Y-51901721D01*
X59382110Y-51901729D01*
X59379812Y-51904530D01*
X59378099Y-51907733D01*
X59378098Y-51907736D01*
X59288623Y-52075130D01*
X59288618Y-52075140D01*
X59286908Y-52078341D01*
X59285853Y-52081817D01*
X59285852Y-52081821D01*
X59230751Y-52263463D01*
X59230749Y-52263468D01*
X59229698Y-52266936D01*
X59229342Y-52270545D01*
X59229342Y-52270548D01*
X59216077Y-52405237D01*
X59210381Y-52463068D01*
X58681063Y-52463068D01*
X58661746Y-52266936D01*
X58604536Y-52078341D01*
X58591082Y-52053171D01*
X58556705Y-51988856D01*
X58511632Y-51904530D01*
X58386605Y-51752185D01*
X58383794Y-51749878D01*
X58237068Y-51629462D01*
X58237064Y-51629459D01*
X58234260Y-51627158D01*
X58199914Y-51608800D01*
X58063659Y-51535969D01*
X58063652Y-51535966D01*
X58060449Y-51534254D01*
X58056968Y-51533198D01*
X57875326Y-51478097D01*
X57875323Y-51478096D01*
X57871854Y-51477044D01*
X57868242Y-51476688D01*
X57868241Y-51476688D01*
X57679337Y-51458083D01*
X57675722Y-51457727D01*
X57672107Y-51458083D01*
X57483202Y-51476688D01*
X57483199Y-51476688D01*
X57479590Y-51477044D01*
X57476122Y-51478095D01*
X57476117Y-51478097D01*
X57294475Y-51533198D01*
X57294471Y-51533199D01*
X57290995Y-51534254D01*
X57287794Y-51535964D01*
X57287784Y-51535969D01*
X57120390Y-51625444D01*
X57120387Y-51625445D01*
X57117184Y-51627158D01*
X57114383Y-51629456D01*
X57114375Y-51629462D01*
X56967649Y-51749878D01*
X56967644Y-51749882D01*
X56964839Y-51752185D01*
X56962536Y-51754990D01*
X56962532Y-51754995D01*
X56842116Y-51901721D01*
X56842110Y-51901729D01*
X56839812Y-51904530D01*
X56838099Y-51907733D01*
X56838098Y-51907736D01*
X56748623Y-52075130D01*
X56748618Y-52075140D01*
X56746908Y-52078341D01*
X56745853Y-52081817D01*
X56745852Y-52081821D01*
X56690751Y-52263463D01*
X56690749Y-52263468D01*
X56689698Y-52266936D01*
X56689342Y-52270545D01*
X56689342Y-52270548D01*
X56676077Y-52405237D01*
X56670381Y-52463068D01*
X42846065Y-52463068D01*
X42855133Y-52400000D01*
X42836697Y-52271774D01*
X42782882Y-52153937D01*
X42698049Y-52056033D01*
X42589069Y-51985996D01*
X42583999Y-51984507D01*
X42583994Y-51984505D01*
X42469848Y-51950990D01*
X42469845Y-51950989D01*
X42464772Y-51949500D01*
X42335228Y-51949500D01*
X42330155Y-51950989D01*
X42330151Y-51950990D01*
X42216005Y-51984505D01*
X42215997Y-51984508D01*
X42210931Y-51985996D01*
X42206482Y-51988854D01*
X42206480Y-51988856D01*
X42106403Y-52053171D01*
X42106399Y-52053174D01*
X42101951Y-52056033D01*
X42098488Y-52060028D01*
X42098485Y-52060032D01*
X42020581Y-52149939D01*
X42020577Y-52149944D01*
X42017118Y-52153937D01*
X42014922Y-52158745D01*
X42014921Y-52158747D01*
X41967099Y-52263463D01*
X41963303Y-52271774D01*
X41962550Y-52277009D01*
X41962549Y-52277014D01*
X41946613Y-52387855D01*
X41944867Y-52400000D01*
X32300500Y-52400000D01*
X32300500Y-50302139D01*
X37717505Y-50302139D01*
X37718416Y-50307891D01*
X37734981Y-50412485D01*
X37736112Y-50419621D01*
X37790113Y-50525604D01*
X37874221Y-50609712D01*
X37980204Y-50663713D01*
X38097686Y-50682320D01*
X38215168Y-50663713D01*
X38321151Y-50609712D01*
X38400401Y-50530462D01*
X38433574Y-50511309D01*
X38471880Y-50511309D01*
X38505053Y-50530462D01*
X38585393Y-50610802D01*
X38691376Y-50664803D01*
X38808858Y-50683410D01*
X38926340Y-50664803D01*
X39032323Y-50610802D01*
X39116431Y-50526694D01*
X39170432Y-50420711D01*
X39189039Y-50303229D01*
X39170432Y-50185747D01*
X39116431Y-50079764D01*
X39086667Y-50050000D01*
X40294819Y-50050000D01*
X40295730Y-50055752D01*
X40298880Y-50075644D01*
X40313426Y-50167482D01*
X40367427Y-50273465D01*
X40451535Y-50357573D01*
X40557518Y-50411574D01*
X40675000Y-50430181D01*
X40792482Y-50411574D01*
X40898465Y-50357573D01*
X40982573Y-50273465D01*
X41036574Y-50167482D01*
X41055181Y-50050000D01*
X41036574Y-49932518D01*
X41031759Y-49923068D01*
X56670381Y-49923068D01*
X56670737Y-49926683D01*
X56685706Y-50078674D01*
X56689698Y-50119200D01*
X56690750Y-50122669D01*
X56690751Y-50122672D01*
X56743447Y-50296387D01*
X56746908Y-50307795D01*
X56748620Y-50310998D01*
X56748623Y-50311005D01*
X56804186Y-50414955D01*
X56839812Y-50481606D01*
X56842113Y-50484410D01*
X56842116Y-50484414D01*
X56879907Y-50530462D01*
X56964839Y-50633951D01*
X57117184Y-50758978D01*
X57232602Y-50820670D01*
X57287784Y-50850166D01*
X57287786Y-50850167D01*
X57290995Y-50851882D01*
X57479590Y-50909092D01*
X57675722Y-50928409D01*
X57871854Y-50909092D01*
X58060449Y-50851882D01*
X58234260Y-50758978D01*
X58386605Y-50633951D01*
X58511632Y-50481606D01*
X58604536Y-50307795D01*
X58661746Y-50119200D01*
X58681063Y-49923068D01*
X58661746Y-49726936D01*
X58604536Y-49538341D01*
X58600174Y-49530181D01*
X58562273Y-49459273D01*
X58511632Y-49364530D01*
X58501945Y-49352727D01*
X58388911Y-49214995D01*
X58386605Y-49212185D01*
X58317842Y-49155752D01*
X58237068Y-49089462D01*
X58237064Y-49089459D01*
X58234260Y-49087158D01*
X58138891Y-49036182D01*
X58063659Y-48995969D01*
X58063652Y-48995966D01*
X58060449Y-48994254D01*
X58056968Y-48993198D01*
X57875326Y-48938097D01*
X57875323Y-48938096D01*
X57871854Y-48937044D01*
X57868242Y-48936688D01*
X57868241Y-48936688D01*
X57679337Y-48918083D01*
X57675722Y-48917727D01*
X57672107Y-48918083D01*
X57483202Y-48936688D01*
X57483199Y-48936688D01*
X57479590Y-48937044D01*
X57476122Y-48938095D01*
X57476117Y-48938097D01*
X57294475Y-48993198D01*
X57294471Y-48993199D01*
X57290995Y-48994254D01*
X57287794Y-48995964D01*
X57287784Y-48995969D01*
X57120390Y-49085444D01*
X57120387Y-49085445D01*
X57117184Y-49087158D01*
X57114383Y-49089456D01*
X57114375Y-49089462D01*
X56967649Y-49209878D01*
X56967644Y-49209882D01*
X56964839Y-49212185D01*
X56962536Y-49214990D01*
X56962532Y-49214995D01*
X56842116Y-49361721D01*
X56842110Y-49361729D01*
X56839812Y-49364530D01*
X56838099Y-49367733D01*
X56838098Y-49367736D01*
X56748623Y-49535130D01*
X56748618Y-49535140D01*
X56746908Y-49538341D01*
X56745853Y-49541817D01*
X56745852Y-49541821D01*
X56690751Y-49723463D01*
X56690749Y-49723468D01*
X56689698Y-49726936D01*
X56689342Y-49730545D01*
X56689342Y-49730548D01*
X56678642Y-49839188D01*
X56670381Y-49923068D01*
X41031759Y-49923068D01*
X40994020Y-49849001D01*
X40985954Y-49815406D01*
X40994019Y-49781813D01*
X41041574Y-49688482D01*
X41060181Y-49571000D01*
X41041574Y-49453518D01*
X40987573Y-49347535D01*
X40903465Y-49263427D01*
X40797482Y-49209426D01*
X40791728Y-49208514D01*
X40791726Y-49208514D01*
X40685752Y-49191730D01*
X40680000Y-49190819D01*
X40674248Y-49191730D01*
X40568273Y-49208514D01*
X40568269Y-49208515D01*
X40562518Y-49209426D01*
X40557326Y-49212071D01*
X40557324Y-49212072D01*
X40461727Y-49260781D01*
X40461724Y-49260782D01*
X40456535Y-49263427D01*
X40452418Y-49267543D01*
X40452415Y-49267546D01*
X40376546Y-49343415D01*
X40376543Y-49343418D01*
X40372427Y-49347535D01*
X40369782Y-49352724D01*
X40369781Y-49352727D01*
X40321072Y-49448324D01*
X40318426Y-49453518D01*
X40317515Y-49459269D01*
X40317514Y-49459273D01*
X40304440Y-49541821D01*
X40299819Y-49571000D01*
X40318426Y-49688482D01*
X40360980Y-49771999D01*
X40369045Y-49805593D01*
X40360980Y-49839187D01*
X40313426Y-49932518D01*
X40312515Y-49938269D01*
X40312514Y-49938273D01*
X40295730Y-50044248D01*
X40294819Y-50050000D01*
X39086667Y-50050000D01*
X39032323Y-49995656D01*
X38926340Y-49941655D01*
X38920586Y-49940743D01*
X38920584Y-49940743D01*
X38814610Y-49923959D01*
X38808858Y-49923048D01*
X38803106Y-49923959D01*
X38697131Y-49940743D01*
X38697127Y-49940744D01*
X38691376Y-49941655D01*
X38686184Y-49944300D01*
X38686182Y-49944301D01*
X38590585Y-49993010D01*
X38590582Y-49993011D01*
X38585393Y-49995656D01*
X38581276Y-49999772D01*
X38581273Y-49999775D01*
X38506143Y-50074906D01*
X38472970Y-50094059D01*
X38434664Y-50094059D01*
X38401491Y-50074906D01*
X38325270Y-49998685D01*
X38321151Y-49994566D01*
X38215168Y-49940565D01*
X38209414Y-49939653D01*
X38209412Y-49939653D01*
X38103438Y-49922869D01*
X38097686Y-49921958D01*
X38091934Y-49922869D01*
X37985959Y-49939653D01*
X37985955Y-49939654D01*
X37980204Y-49940565D01*
X37975012Y-49943210D01*
X37975010Y-49943211D01*
X37879413Y-49991920D01*
X37879410Y-49991921D01*
X37874221Y-49994566D01*
X37870104Y-49998682D01*
X37870101Y-49998685D01*
X37794232Y-50074554D01*
X37794229Y-50074557D01*
X37790113Y-50078674D01*
X37787468Y-50083863D01*
X37787467Y-50083866D01*
X37738758Y-50179463D01*
X37736112Y-50184657D01*
X37735201Y-50190408D01*
X37735200Y-50190412D01*
X37722869Y-50268272D01*
X37717505Y-50302139D01*
X32300500Y-50302139D01*
X32300500Y-49352820D01*
X35045563Y-49331785D01*
X35176799Y-49386144D01*
X35320508Y-49405064D01*
X35464217Y-49386144D01*
X35598133Y-49330675D01*
X35602245Y-49327519D01*
X37788194Y-49310769D01*
X37822007Y-49377129D01*
X37906115Y-49461237D01*
X38012098Y-49515238D01*
X38129580Y-49533845D01*
X38247062Y-49515238D01*
X38353045Y-49461237D01*
X38394296Y-49419985D01*
X38427469Y-49400833D01*
X38465775Y-49400833D01*
X38498947Y-49419985D01*
X38536535Y-49457573D01*
X38642518Y-49511574D01*
X38760000Y-49530181D01*
X38877482Y-49511574D01*
X38983465Y-49457573D01*
X39067573Y-49373465D01*
X39121574Y-49267482D01*
X39140181Y-49150000D01*
X39135430Y-49120000D01*
X41159819Y-49120000D01*
X41160730Y-49125752D01*
X41174401Y-49212072D01*
X41178426Y-49237482D01*
X41181072Y-49242675D01*
X41224404Y-49327720D01*
X41232427Y-49343465D01*
X41316535Y-49427573D01*
X41422518Y-49481574D01*
X41540000Y-49500181D01*
X41657482Y-49481574D01*
X41763465Y-49427573D01*
X41847573Y-49343465D01*
X41901574Y-49237482D01*
X41920181Y-49120000D01*
X41901574Y-49002518D01*
X41847573Y-48896535D01*
X41763465Y-48812427D01*
X41657482Y-48758426D01*
X41651728Y-48757514D01*
X41651726Y-48757514D01*
X41545752Y-48740730D01*
X41540000Y-48739819D01*
X41534248Y-48740730D01*
X41428273Y-48757514D01*
X41428269Y-48757515D01*
X41422518Y-48758426D01*
X41417326Y-48761071D01*
X41417324Y-48761072D01*
X41321727Y-48809781D01*
X41321724Y-48809782D01*
X41316535Y-48812427D01*
X41312418Y-48816543D01*
X41312415Y-48816546D01*
X41236546Y-48892415D01*
X41236543Y-48892418D01*
X41232427Y-48896535D01*
X41229782Y-48901724D01*
X41229781Y-48901727D01*
X41181072Y-48997324D01*
X41178426Y-49002518D01*
X41177515Y-49008269D01*
X41177514Y-49008273D01*
X41164656Y-49089462D01*
X41159819Y-49120000D01*
X39135430Y-49120000D01*
X39121574Y-49032518D01*
X39067573Y-48926535D01*
X38983465Y-48842427D01*
X38877482Y-48788426D01*
X38871728Y-48787514D01*
X38871726Y-48787514D01*
X38765752Y-48770730D01*
X38760000Y-48769819D01*
X38754248Y-48770730D01*
X38711592Y-48777485D01*
X38705234Y-48465945D01*
X38778579Y-48477562D01*
X38896061Y-48458955D01*
X39002044Y-48404954D01*
X39086152Y-48320846D01*
X39140153Y-48214863D01*
X39157822Y-48103306D01*
X41129819Y-48103306D01*
X41130730Y-48109058D01*
X41147487Y-48214863D01*
X41148426Y-48220788D01*
X41202427Y-48326771D01*
X41286535Y-48410879D01*
X41392518Y-48464880D01*
X41510000Y-48483487D01*
X41627482Y-48464880D01*
X41675927Y-48440196D01*
X47114592Y-48440196D01*
X47115621Y-48445150D01*
X47115622Y-48445157D01*
X47130318Y-48515877D01*
X47145604Y-48589436D01*
X47147930Y-48593926D01*
X47147931Y-48593927D01*
X47208547Y-48710912D01*
X47215731Y-48724775D01*
X47219183Y-48728471D01*
X47278598Y-48792090D01*
X47319772Y-48836176D01*
X47450010Y-48915375D01*
X47596786Y-48956500D01*
X47708394Y-48956500D01*
X47710927Y-48956500D01*
X47824009Y-48940957D01*
X47963818Y-48880230D01*
X48082058Y-48784034D01*
X48169961Y-48659504D01*
X48221006Y-48515877D01*
X48226183Y-48440196D01*
X52894592Y-48440196D01*
X52895621Y-48445150D01*
X52895622Y-48445157D01*
X52910318Y-48515877D01*
X52925604Y-48589436D01*
X52927930Y-48593926D01*
X52927931Y-48593927D01*
X52988547Y-48710912D01*
X52995731Y-48724775D01*
X52999183Y-48728471D01*
X53058598Y-48792090D01*
X53099772Y-48836176D01*
X53230010Y-48915375D01*
X53376786Y-48956500D01*
X53488394Y-48956500D01*
X53490927Y-48956500D01*
X53604009Y-48940957D01*
X53743818Y-48880230D01*
X53862058Y-48784034D01*
X53949961Y-48659504D01*
X54001006Y-48515877D01*
X54011408Y-48363804D01*
X53980396Y-48214564D01*
X53910269Y-48079225D01*
X53818188Y-47980630D01*
X53809682Y-47971522D01*
X53809680Y-47971520D01*
X53806228Y-47967824D01*
X53801903Y-47965194D01*
X53801902Y-47965193D01*
X53730465Y-47921752D01*
X53675990Y-47888625D01*
X53671118Y-47887260D01*
X53671116Y-47887259D01*
X53534088Y-47848865D01*
X53534083Y-47848864D01*
X53529214Y-47847500D01*
X53415073Y-47847500D01*
X53412575Y-47847843D01*
X53412565Y-47847844D01*
X53307005Y-47862353D01*
X53306999Y-47862354D01*
X53301991Y-47863043D01*
X53297352Y-47865057D01*
X53297348Y-47865059D01*
X53166827Y-47921752D01*
X53166824Y-47921753D01*
X53162182Y-47923770D01*
X53158253Y-47926966D01*
X53158252Y-47926967D01*
X53047869Y-48016770D01*
X53047864Y-48016774D01*
X53043942Y-48019966D01*
X53041023Y-48024099D01*
X53041022Y-48024102D01*
X52958958Y-48140360D01*
X52958956Y-48140362D01*
X52956039Y-48144496D01*
X52954344Y-48149264D01*
X52954343Y-48149267D01*
X52929376Y-48219519D01*
X52904994Y-48288123D01*
X52904648Y-48293168D01*
X52904648Y-48293173D01*
X52894937Y-48435139D01*
X52894937Y-48435145D01*
X52894592Y-48440196D01*
X48226183Y-48440196D01*
X48231408Y-48363804D01*
X48200396Y-48214564D01*
X48130269Y-48079225D01*
X48038188Y-47980630D01*
X48029682Y-47971522D01*
X48029680Y-47971520D01*
X48026228Y-47967824D01*
X48021903Y-47965194D01*
X48021902Y-47965193D01*
X47950465Y-47921752D01*
X47895990Y-47888625D01*
X47891118Y-47887260D01*
X47891116Y-47887259D01*
X47754088Y-47848865D01*
X47754083Y-47848864D01*
X47749214Y-47847500D01*
X47635073Y-47847500D01*
X47632575Y-47847843D01*
X47632565Y-47847844D01*
X47527005Y-47862353D01*
X47526999Y-47862354D01*
X47521991Y-47863043D01*
X47517352Y-47865057D01*
X47517348Y-47865059D01*
X47386827Y-47921752D01*
X47386824Y-47921753D01*
X47382182Y-47923770D01*
X47378253Y-47926966D01*
X47378252Y-47926967D01*
X47267869Y-48016770D01*
X47267864Y-48016774D01*
X47263942Y-48019966D01*
X47261023Y-48024099D01*
X47261022Y-48024102D01*
X47178958Y-48140360D01*
X47178956Y-48140362D01*
X47176039Y-48144496D01*
X47174344Y-48149264D01*
X47174343Y-48149267D01*
X47149376Y-48219519D01*
X47124994Y-48288123D01*
X47124648Y-48293168D01*
X47124648Y-48293173D01*
X47114937Y-48435139D01*
X47114937Y-48435145D01*
X47114592Y-48440196D01*
X41675927Y-48440196D01*
X41733465Y-48410879D01*
X41817573Y-48326771D01*
X41871574Y-48220788D01*
X41890181Y-48103306D01*
X41871574Y-47985824D01*
X41817573Y-47879841D01*
X41733465Y-47795733D01*
X41716643Y-47787162D01*
X41632675Y-47744378D01*
X41627482Y-47741732D01*
X41621728Y-47740820D01*
X41621726Y-47740820D01*
X41515752Y-47724036D01*
X41510000Y-47723125D01*
X41504248Y-47724036D01*
X41398273Y-47740820D01*
X41398269Y-47740821D01*
X41392518Y-47741732D01*
X41387326Y-47744377D01*
X41387324Y-47744378D01*
X41291727Y-47793087D01*
X41291724Y-47793088D01*
X41286535Y-47795733D01*
X41282418Y-47799849D01*
X41282415Y-47799852D01*
X41206546Y-47875721D01*
X41206543Y-47875724D01*
X41202427Y-47879841D01*
X41199782Y-47885030D01*
X41199781Y-47885033D01*
X41151072Y-47980630D01*
X41148426Y-47985824D01*
X41147515Y-47991575D01*
X41147514Y-47991579D01*
X41133633Y-48079225D01*
X41129819Y-48103306D01*
X39157822Y-48103306D01*
X39158760Y-48097381D01*
X39140153Y-47979899D01*
X39086152Y-47873916D01*
X39002044Y-47789808D01*
X38896061Y-47735807D01*
X38890307Y-47734895D01*
X38890305Y-47734895D01*
X38784331Y-47718111D01*
X38778579Y-47717200D01*
X38772827Y-47718111D01*
X38690239Y-47731190D01*
X38687347Y-47589492D01*
X40329819Y-47589492D01*
X40348426Y-47706974D01*
X40402427Y-47812957D01*
X40486535Y-47897065D01*
X40592518Y-47951066D01*
X40710000Y-47969673D01*
X40827482Y-47951066D01*
X40933465Y-47897065D01*
X41017573Y-47812957D01*
X41071574Y-47706974D01*
X41090181Y-47589492D01*
X41071574Y-47472010D01*
X41032190Y-47394715D01*
X41024126Y-47361123D01*
X41032191Y-47327530D01*
X41072978Y-47247482D01*
X41091585Y-47130000D01*
X41072978Y-47012518D01*
X41018977Y-46906535D01*
X40934869Y-46822427D01*
X40828886Y-46768426D01*
X40823132Y-46767514D01*
X40823130Y-46767514D01*
X40717156Y-46750730D01*
X40711404Y-46749819D01*
X40705652Y-46750730D01*
X40599677Y-46767514D01*
X40599673Y-46767515D01*
X40593922Y-46768426D01*
X40588730Y-46771071D01*
X40588728Y-46771072D01*
X40493131Y-46819781D01*
X40493128Y-46819782D01*
X40487939Y-46822427D01*
X40483822Y-46826543D01*
X40483819Y-46826546D01*
X40407950Y-46902415D01*
X40407947Y-46902418D01*
X40403831Y-46906535D01*
X40401186Y-46911724D01*
X40401185Y-46911727D01*
X40388750Y-46936133D01*
X40349830Y-47012518D01*
X40348919Y-47018269D01*
X40348918Y-47018273D01*
X40342410Y-47059367D01*
X40331223Y-47130000D01*
X40332134Y-47135752D01*
X40347524Y-47232926D01*
X40349830Y-47247482D01*
X40389212Y-47324773D01*
X40397277Y-47358368D01*
X40389212Y-47391962D01*
X40348426Y-47472010D01*
X40347515Y-47477761D01*
X40347514Y-47477765D01*
X40330730Y-47583740D01*
X40329819Y-47589492D01*
X38687347Y-47589492D01*
X38681676Y-47311590D01*
X38747818Y-47322066D01*
X38865300Y-47303459D01*
X38971283Y-47249458D01*
X39055391Y-47165350D01*
X39109392Y-47059367D01*
X39127999Y-46941885D01*
X39109392Y-46824403D01*
X39055391Y-46718420D01*
X38971283Y-46634312D01*
X38865300Y-46580311D01*
X38859546Y-46579399D01*
X38859544Y-46579399D01*
X38753570Y-46562615D01*
X38747818Y-46561704D01*
X38742066Y-46562615D01*
X38666635Y-46574561D01*
X38611848Y-43890000D01*
X39639819Y-43890000D01*
X39640730Y-43895752D01*
X39653400Y-43975752D01*
X39658426Y-44007482D01*
X39712427Y-44113465D01*
X39796535Y-44197573D01*
X39902518Y-44251574D01*
X40020000Y-44270181D01*
X40137482Y-44251574D01*
X40243465Y-44197573D01*
X40327573Y-44113465D01*
X40381574Y-44007482D01*
X40387510Y-43970000D01*
X43299819Y-43970000D01*
X43318426Y-44087482D01*
X43372427Y-44193465D01*
X43456535Y-44277573D01*
X43562518Y-44331574D01*
X43680000Y-44350181D01*
X43797482Y-44331574D01*
X43903465Y-44277573D01*
X43987573Y-44193465D01*
X44041574Y-44087482D01*
X44060181Y-43970000D01*
X44041574Y-43852518D01*
X43987573Y-43746535D01*
X43903465Y-43662427D01*
X43797482Y-43608426D01*
X43791728Y-43607514D01*
X43791726Y-43607514D01*
X43685752Y-43590730D01*
X43680000Y-43589819D01*
X43674248Y-43590730D01*
X43568273Y-43607514D01*
X43568269Y-43607515D01*
X43562518Y-43608426D01*
X43557326Y-43611071D01*
X43557324Y-43611072D01*
X43461727Y-43659781D01*
X43461724Y-43659782D01*
X43456535Y-43662427D01*
X43452418Y-43666543D01*
X43452415Y-43666546D01*
X43376546Y-43742415D01*
X43376543Y-43742418D01*
X43372427Y-43746535D01*
X43369782Y-43751724D01*
X43369781Y-43751727D01*
X43341709Y-43806822D01*
X43318426Y-43852518D01*
X43317515Y-43858269D01*
X43317514Y-43858273D01*
X43310021Y-43905584D01*
X43299819Y-43970000D01*
X40387510Y-43970000D01*
X40400181Y-43890000D01*
X40387006Y-43806818D01*
X40395659Y-43758858D01*
X40432263Y-43726678D01*
X40474723Y-43724553D01*
X40474910Y-43723256D01*
X40480151Y-43724009D01*
X40485228Y-43725500D01*
X40609480Y-43725500D01*
X40614772Y-43725500D01*
X40739069Y-43689004D01*
X40848049Y-43618967D01*
X40932882Y-43521063D01*
X40986697Y-43403226D01*
X41005133Y-43275000D01*
X40986697Y-43146774D01*
X40932882Y-43028937D01*
X40892393Y-42982210D01*
X40851514Y-42935032D01*
X40848049Y-42931033D01*
X40739069Y-42860996D01*
X40733999Y-42859507D01*
X40733994Y-42859505D01*
X40619848Y-42825990D01*
X40619845Y-42825989D01*
X40614772Y-42824500D01*
X40485228Y-42824500D01*
X40480155Y-42825989D01*
X40480151Y-42825990D01*
X40366005Y-42859505D01*
X40365997Y-42859508D01*
X40360931Y-42860996D01*
X40356482Y-42863854D01*
X40356480Y-42863856D01*
X40256403Y-42928171D01*
X40256399Y-42928174D01*
X40251951Y-42931033D01*
X40248488Y-42935028D01*
X40248485Y-42935032D01*
X40170581Y-43024939D01*
X40170577Y-43024944D01*
X40167118Y-43028937D01*
X40113303Y-43146774D01*
X40112550Y-43152009D01*
X40112549Y-43152014D01*
X40096613Y-43262855D01*
X40094867Y-43275000D01*
X40113303Y-43403226D01*
X40115499Y-43408035D01*
X40115502Y-43408044D01*
X40115786Y-43408664D01*
X40115907Y-43409421D01*
X40116993Y-43413119D01*
X40116521Y-43413257D01*
X40122021Y-43447578D01*
X40107397Y-43484173D01*
X40076060Y-43508072D01*
X40036899Y-43512495D01*
X40025754Y-43510730D01*
X40025752Y-43510730D01*
X40020000Y-43509819D01*
X40014248Y-43510730D01*
X39908273Y-43527514D01*
X39908269Y-43527515D01*
X39902518Y-43528426D01*
X39897326Y-43531071D01*
X39897324Y-43531072D01*
X39801727Y-43579781D01*
X39801724Y-43579782D01*
X39796535Y-43582427D01*
X39792418Y-43586543D01*
X39792415Y-43586546D01*
X39716546Y-43662415D01*
X39716543Y-43662418D01*
X39712427Y-43666535D01*
X39709782Y-43671724D01*
X39709781Y-43671727D01*
X39665386Y-43758858D01*
X39658426Y-43772518D01*
X39657515Y-43778269D01*
X39657514Y-43778273D01*
X39646578Y-43847324D01*
X39639819Y-43890000D01*
X38611848Y-43890000D01*
X38581246Y-42390500D01*
X55848783Y-42390500D01*
X55825000Y-48750000D01*
G37*
%TD.AperFunction*%
%TD*%
M02*
