%TF.GenerationSoftware,KiCad,Pcbnew,(7.0.0)*%
%TF.CreationDate,2023-06-12T15:08:29+01:00*%
%TF.ProjectId,Chad,43686164-2e6b-4696-9361-645f70636258,rev?*%
%TF.SameCoordinates,Original*%
%TF.FileFunction,Drillmap*%
%TF.FilePolarity,Positive*%
%FSLAX45Y45*%
G04 Gerber Fmt 4.5, Leading zero omitted, Abs format (unit mm)*
G04 Created by KiCad (PCBNEW (7.0.0)) date 2023-06-12 15:08:29*
%MOMM*%
%LPD*%
G01*
G04 APERTURE LIST*
%ADD10C,0.100000*%
%ADD11C,0.200000*%
%ADD12C,0.020000*%
%ADD13C,0.030000*%
%ADD14C,0.040000*%
%ADD15C,0.060000*%
%ADD16C,0.120000*%
%ADD17C,0.180000*%
%ADD18C,0.320000*%
G04 APERTURE END LIST*
D10*
X3500000Y-4209000D02*
G75*
G03*
X3200000Y-4509000I0J-300000D01*
G01*
X5900000Y-4209000D02*
X3500000Y-4209000D01*
X3500000Y-10209000D02*
X5900000Y-10209000D01*
X6200000Y-4509000D02*
G75*
G03*
X5900000Y-4209000I-300000J0D01*
G01*
X5900000Y-10209000D02*
G75*
G03*
X6200000Y-9909000I0J300000D01*
G01*
X3200000Y-4509000D02*
X3200000Y-9909000D01*
X3200000Y-9909000D02*
G75*
G03*
X3500000Y-10209000I300000J0D01*
G01*
X6200000Y-9909000D02*
X6200000Y-4509000D01*
D11*
D12*
X4358000Y-4387000D02*
X4378000Y-4407000D01*
X4378000Y-4387000D02*
X4358000Y-4407000D01*
D13*
X3274950Y-5810000D02*
G75*
G03*
X3274950Y-5810000I-15000J0D01*
G01*
X3275000Y-5017500D02*
G75*
G03*
X3275000Y-5017500I-15000J0D01*
G01*
X3275000Y-5267500D02*
G75*
G03*
X3275000Y-5267500I-15000J0D01*
G01*
X3275000Y-5497500D02*
G75*
G03*
X3275000Y-5497500I-15000J0D01*
G01*
X3275000Y-6017500D02*
G75*
G03*
X3275000Y-6017500I-15000J0D01*
G01*
X3275000Y-6267500D02*
G75*
G03*
X3275000Y-6267500I-15000J0D01*
G01*
X3275000Y-6522500D02*
G75*
G03*
X3275000Y-6522500I-15000J0D01*
G01*
X3275000Y-6772500D02*
G75*
G03*
X3275000Y-6772500I-15000J0D01*
G01*
X3275000Y-7022500D02*
G75*
G03*
X3275000Y-7022500I-15000J0D01*
G01*
X3275000Y-7272500D02*
G75*
G03*
X3275000Y-7272500I-15000J0D01*
G01*
X3275000Y-7522500D02*
G75*
G03*
X3275000Y-7522500I-15000J0D01*
G01*
X3275000Y-7772500D02*
G75*
G03*
X3275000Y-7772500I-15000J0D01*
G01*
X3275000Y-8022500D02*
G75*
G03*
X3275000Y-8022500I-15000J0D01*
G01*
X3275000Y-8277500D02*
G75*
G03*
X3275000Y-8277500I-15000J0D01*
G01*
X3275000Y-8527500D02*
G75*
G03*
X3275000Y-8527500I-15000J0D01*
G01*
X3275000Y-8777500D02*
G75*
G03*
X3275000Y-8777500I-15000J0D01*
G01*
X3275000Y-9027500D02*
G75*
G03*
X3275000Y-9027500I-15000J0D01*
G01*
X3275000Y-9277500D02*
G75*
G03*
X3275000Y-9277500I-15000J0D01*
G01*
X3275000Y-9527500D02*
G75*
G03*
X3275000Y-9527500I-15000J0D01*
G01*
X3487100Y-6116200D02*
G75*
G03*
X3487100Y-6116200I-15000J0D01*
G01*
X3492000Y-6321500D02*
G75*
G03*
X3492000Y-6321500I-15000J0D01*
G01*
X3756700Y-6187300D02*
G75*
G03*
X3756700Y-6187300I-15000J0D01*
G01*
X3824769Y-5030214D02*
G75*
G03*
X3824769Y-5030214I-15000J0D01*
G01*
X3827958Y-4915366D02*
G75*
G03*
X3827958Y-4915366I-15000J0D01*
G01*
X3830358Y-4809629D02*
G75*
G03*
X3830358Y-4809629I-15000J0D01*
G01*
X3831317Y-4694189D02*
G75*
G03*
X3831317Y-4694189I-15000J0D01*
G01*
X3889782Y-4694189D02*
G75*
G03*
X3889782Y-4694189I-15000J0D01*
G01*
X3891000Y-4915000D02*
G75*
G03*
X3891000Y-4915000I-15000J0D01*
G01*
X3892858Y-4809738D02*
G75*
G03*
X3892858Y-4809738I-15000J0D01*
G01*
X3895886Y-5030323D02*
G75*
G03*
X3895886Y-5030323I-15000J0D01*
G01*
X3917500Y-10147500D02*
G75*
G03*
X3917500Y-10147500I-15000J0D01*
G01*
X4005000Y-6615000D02*
G75*
G03*
X4005000Y-6615000I-15000J0D01*
G01*
X4007500Y-4270000D02*
G75*
G03*
X4007500Y-4270000I-15000J0D01*
G01*
X4017000Y-4389000D02*
G75*
G03*
X4017000Y-4389000I-15000J0D01*
G01*
X4070000Y-4327500D02*
G75*
G03*
X4070000Y-4327500I-15000J0D01*
G01*
X4083100Y-5016700D02*
G75*
G03*
X4083100Y-5016700I-15000J0D01*
G01*
X4084300Y-4958300D02*
G75*
G03*
X4084300Y-4958300I-15000J0D01*
G01*
X4085300Y-4703700D02*
G75*
G03*
X4085300Y-4703700I-15000J0D01*
G01*
X4085400Y-4761800D02*
G75*
G03*
X4085400Y-4761800I-15000J0D01*
G01*
X4154421Y-5613633D02*
G75*
G03*
X4154421Y-5613633I-15000J0D01*
G01*
X4165000Y-4810331D02*
G75*
G03*
X4165000Y-4810331I-15000J0D01*
G01*
X4165000Y-4913000D02*
G75*
G03*
X4165000Y-4913000I-15000J0D01*
G01*
X4167500Y-10147500D02*
G75*
G03*
X4167500Y-10147500I-15000J0D01*
G01*
X4170000Y-6595000D02*
G75*
G03*
X4170000Y-6595000I-15000J0D01*
G01*
X4235000Y-5741200D02*
G75*
G03*
X4235000Y-5741200I-15000J0D01*
G01*
X4255000Y-5240000D02*
G75*
G03*
X4255000Y-5240000I-15000J0D01*
G01*
X4268900Y-4265000D02*
G75*
G03*
X4268900Y-4265000I-15000J0D01*
G01*
X4325000Y-6700000D02*
G75*
G03*
X4325000Y-6700000I-15000J0D01*
G01*
X4374500Y-4460600D02*
G75*
G03*
X4374500Y-4460600I-15000J0D01*
G01*
X4417500Y-10147500D02*
G75*
G03*
X4417500Y-10147500I-15000J0D01*
G01*
X4452281Y-4712849D02*
G75*
G03*
X4452281Y-4712849I-15000J0D01*
G01*
X4507900Y-6160900D02*
G75*
G03*
X4507900Y-6160900I-15000J0D01*
G01*
X4517500Y-4270000D02*
G75*
G03*
X4517500Y-4270000I-15000J0D01*
G01*
X4532000Y-6465500D02*
G75*
G03*
X4532000Y-6465500I-15000J0D01*
G01*
X4576000Y-6577000D02*
G75*
G03*
X4576000Y-6577000I-15000J0D01*
G01*
X4587500Y-8900000D02*
G75*
G03*
X4587500Y-8900000I-15000J0D01*
G01*
X4592500Y-8970000D02*
G75*
G03*
X4592500Y-8970000I-15000J0D01*
G01*
X4597500Y-8785000D02*
G75*
G03*
X4597500Y-8785000I-15000J0D01*
G01*
X4667500Y-10147500D02*
G75*
G03*
X4667500Y-10147500I-15000J0D01*
G01*
X4682500Y-8387500D02*
G75*
G03*
X4682500Y-8387500I-15000J0D01*
G01*
X4686400Y-6382000D02*
G75*
G03*
X4686400Y-6382000I-15000J0D01*
G01*
X4697500Y-6260000D02*
G75*
G03*
X4697500Y-6260000I-15000J0D01*
G01*
X4698500Y-6629700D02*
G75*
G03*
X4698500Y-6629700I-15000J0D01*
G01*
X4711000Y-7440000D02*
G75*
G03*
X4711000Y-7440000I-15000J0D01*
G01*
X4712500Y-8900000D02*
G75*
G03*
X4712500Y-8900000I-15000J0D01*
G01*
X4720000Y-8970000D02*
G75*
G03*
X4720000Y-8970000I-15000J0D01*
G01*
X4760000Y-7625000D02*
G75*
G03*
X4760000Y-7625000I-15000J0D01*
G01*
X4762000Y-5343000D02*
G75*
G03*
X4762000Y-5343000I-15000J0D01*
G01*
X4767200Y-6125200D02*
G75*
G03*
X4767200Y-6125200I-15000J0D01*
G01*
X4767500Y-4270000D02*
G75*
G03*
X4767500Y-4270000I-15000J0D01*
G01*
X4768000Y-5947100D02*
G75*
G03*
X4768000Y-5947100I-15000J0D01*
G01*
X4770000Y-8785000D02*
G75*
G03*
X4770000Y-8785000I-15000J0D01*
G01*
X4789800Y-6290200D02*
G75*
G03*
X4789800Y-6290200I-15000J0D01*
G01*
X4792963Y-6865370D02*
G75*
G03*
X4792963Y-6865370I-15000J0D01*
G01*
X4793914Y-6972135D02*
G75*
G03*
X4793914Y-6972135I-15000J0D01*
G01*
X4807500Y-8892500D02*
G75*
G03*
X4807500Y-8892500I-15000J0D01*
G01*
X4826500Y-7998600D02*
G75*
G03*
X4826500Y-7998600I-15000J0D01*
G01*
X4829800Y-7335500D02*
G75*
G03*
X4829800Y-7335500I-15000J0D01*
G01*
X4845017Y-6754963D02*
G75*
G03*
X4845017Y-6754963I-15000J0D01*
G01*
X4852500Y-8385000D02*
G75*
G03*
X4852500Y-8385000I-15000J0D01*
G01*
X4914000Y-6832200D02*
G75*
G03*
X4914000Y-6832200I-15000J0D01*
G01*
X4917500Y-10147500D02*
G75*
G03*
X4917500Y-10147500I-15000J0D01*
G01*
X4919000Y-7031531D02*
G75*
G03*
X4919000Y-7031531I-15000J0D01*
G01*
X4945800Y-6296600D02*
G75*
G03*
X4945800Y-6296600I-15000J0D01*
G01*
X4946700Y-6121300D02*
G75*
G03*
X4946700Y-6121300I-15000J0D01*
G01*
X4948400Y-5945100D02*
G75*
G03*
X4948400Y-5945100I-15000J0D01*
G01*
X4949500Y-6729200D02*
G75*
G03*
X4949500Y-6729200I-15000J0D01*
G01*
X5017500Y-4270000D02*
G75*
G03*
X5017500Y-4270000I-15000J0D01*
G01*
X5024000Y-8878217D02*
G75*
G03*
X5024000Y-8878217I-15000J0D01*
G01*
X5024300Y-6720000D02*
G75*
G03*
X5024300Y-6720000I-15000J0D01*
G01*
X5026000Y-5603000D02*
G75*
G03*
X5026000Y-5603000I-15000J0D01*
G01*
X5033500Y-6607000D02*
G75*
G03*
X5033500Y-6607000I-15000J0D01*
G01*
X5034100Y-6665300D02*
G75*
G03*
X5034100Y-6665300I-15000J0D01*
G01*
X5034200Y-6547200D02*
G75*
G03*
X5034200Y-6547200I-15000J0D01*
G01*
X5041000Y-7210000D02*
G75*
G03*
X5041000Y-7210000I-15000J0D01*
G01*
X5052370Y-7032185D02*
G75*
G03*
X5052370Y-7032185I-15000J0D01*
G01*
X5115000Y-5392500D02*
G75*
G03*
X5115000Y-5392500I-15000J0D01*
G01*
X5118300Y-5942600D02*
G75*
G03*
X5118300Y-5942600I-15000J0D01*
G01*
X5119700Y-6294300D02*
G75*
G03*
X5119700Y-6294300I-15000J0D01*
G01*
X5120900Y-6122700D02*
G75*
G03*
X5120900Y-6122700I-15000J0D01*
G01*
X5153900Y-8799600D02*
G75*
G03*
X5153900Y-8799600I-15000J0D01*
G01*
X5167000Y-5666000D02*
G75*
G03*
X5167000Y-5666000I-15000J0D01*
G01*
X5167500Y-10147500D02*
G75*
G03*
X5167500Y-10147500I-15000J0D01*
G01*
X5185600Y-6932700D02*
G75*
G03*
X5185600Y-6932700I-15000J0D01*
G01*
X5201045Y-7031133D02*
G75*
G03*
X5201045Y-7031133I-15000J0D01*
G01*
X5203345Y-6061000D02*
G75*
G03*
X5203345Y-6061000I-15000J0D01*
G01*
X5211600Y-6546400D02*
G75*
G03*
X5211600Y-6546400I-15000J0D01*
G01*
X5218000Y-6606000D02*
G75*
G03*
X5218000Y-6606000I-15000J0D01*
G01*
X5221200Y-6666500D02*
G75*
G03*
X5221200Y-6666500I-15000J0D01*
G01*
X5233900Y-6739700D02*
G75*
G03*
X5233900Y-6739700I-15000J0D01*
G01*
X5272500Y-4270000D02*
G75*
G03*
X5272500Y-4270000I-15000J0D01*
G01*
X5290300Y-7194900D02*
G75*
G03*
X5290300Y-7194900I-15000J0D01*
G01*
X5300000Y-6995000D02*
G75*
G03*
X5300000Y-6995000I-15000J0D01*
G01*
X5308000Y-6779600D02*
G75*
G03*
X5308000Y-6779600I-15000J0D01*
G01*
X5327500Y-6892500D02*
G75*
G03*
X5327500Y-6892500I-15000J0D01*
G01*
X5405000Y-6128000D02*
G75*
G03*
X5405000Y-6128000I-15000J0D01*
G01*
X5417400Y-6603700D02*
G75*
G03*
X5417400Y-6603700I-15000J0D01*
G01*
X5422500Y-10147500D02*
G75*
G03*
X5422500Y-10147500I-15000J0D01*
G01*
X5424600Y-7983200D02*
G75*
G03*
X5424600Y-7983200I-15000J0D01*
G01*
X5522500Y-4270000D02*
G75*
G03*
X5522500Y-4270000I-15000J0D01*
G01*
X5527500Y-6732500D02*
G75*
G03*
X5527500Y-6732500I-15000J0D01*
G01*
X5557500Y-6047500D02*
G75*
G03*
X5557500Y-6047500I-15000J0D01*
G01*
X5617200Y-6315400D02*
G75*
G03*
X5617200Y-6315400I-15000J0D01*
G01*
X5697700Y-6365500D02*
G75*
G03*
X5697700Y-6365500I-15000J0D01*
G01*
X5720570Y-6557672D02*
G75*
G03*
X5720570Y-6557672I-15000J0D01*
G01*
X5735000Y-6760000D02*
G75*
G03*
X5735000Y-6760000I-15000J0D01*
G01*
X5835000Y-6482500D02*
G75*
G03*
X5835000Y-6482500I-15000J0D01*
G01*
X6155000Y-5157500D02*
G75*
G03*
X6155000Y-5157500I-15000J0D01*
G01*
X6155000Y-5407500D02*
G75*
G03*
X6155000Y-5407500I-15000J0D01*
G01*
X6155000Y-5657500D02*
G75*
G03*
X6155000Y-5657500I-15000J0D01*
G01*
X6155000Y-5907500D02*
G75*
G03*
X6155000Y-5907500I-15000J0D01*
G01*
X6155000Y-6407500D02*
G75*
G03*
X6155000Y-6407500I-15000J0D01*
G01*
X6155000Y-6912500D02*
G75*
G03*
X6155000Y-6912500I-15000J0D01*
G01*
X6155000Y-7162500D02*
G75*
G03*
X6155000Y-7162500I-15000J0D01*
G01*
X6155000Y-7412500D02*
G75*
G03*
X6155000Y-7412500I-15000J0D01*
G01*
X6155000Y-7662500D02*
G75*
G03*
X6155000Y-7662500I-15000J0D01*
G01*
X6155000Y-7912500D02*
G75*
G03*
X6155000Y-7912500I-15000J0D01*
G01*
X6155000Y-8162500D02*
G75*
G03*
X6155000Y-8162500I-15000J0D01*
G01*
X6155000Y-8417500D02*
G75*
G03*
X6155000Y-8417500I-15000J0D01*
G01*
X6155000Y-8667500D02*
G75*
G03*
X6155000Y-8667500I-15000J0D01*
G01*
X6155000Y-8917500D02*
G75*
G03*
X6155000Y-8917500I-15000J0D01*
G01*
X6155000Y-9167500D02*
G75*
G03*
X6155000Y-9167500I-15000J0D01*
G01*
X6155000Y-9417500D02*
G75*
G03*
X6155000Y-9417500I-15000J0D01*
G01*
D14*
X3485000Y-9115000D02*
X3485000Y-9155000D01*
X3465000Y-9135000D02*
X3505000Y-9135000D01*
X3532051Y-4864981D02*
X3532051Y-4904981D01*
X3512051Y-4884981D02*
X3552051Y-4884981D01*
X3565000Y-8420000D02*
X3565000Y-8460000D01*
X3545000Y-8440000D02*
X3585000Y-8440000D01*
X3570000Y-8565000D02*
X3570000Y-8605000D01*
X3550000Y-8585000D02*
X3590000Y-8585000D01*
X3571800Y-9302100D02*
X3571800Y-9342100D01*
X3551800Y-9322100D02*
X3591800Y-9322100D01*
X3647500Y-5392500D02*
X3647500Y-5432500D01*
X3627500Y-5412500D02*
X3667500Y-5412500D01*
X3685000Y-9125000D02*
X3685000Y-9165000D01*
X3665000Y-9145000D02*
X3705000Y-9145000D01*
X3778400Y-9295100D02*
X3778400Y-9335100D01*
X3758400Y-9315100D02*
X3798400Y-9315100D01*
X3810000Y-8420000D02*
X3810000Y-8460000D01*
X3790000Y-8440000D02*
X3830000Y-8440000D01*
X3810000Y-8565000D02*
X3810000Y-8605000D01*
X3790000Y-8585000D02*
X3830000Y-8585000D01*
X3900000Y-9135000D02*
X3900000Y-9175000D01*
X3880000Y-9155000D02*
X3920000Y-9155000D01*
X3989000Y-9302600D02*
X3989000Y-9342600D01*
X3969000Y-9322600D02*
X4009000Y-9322600D01*
X4040000Y-8420000D02*
X4040000Y-8460000D01*
X4020000Y-8440000D02*
X4060000Y-8440000D01*
X4040000Y-8565000D02*
X4040000Y-8605000D01*
X4020000Y-8585000D02*
X4060000Y-8585000D01*
X4095000Y-9140000D02*
X4095000Y-9180000D01*
X4075000Y-9160000D02*
X4115000Y-9160000D01*
X4200500Y-9767000D02*
X4200500Y-9807000D01*
X4180500Y-9787000D02*
X4220500Y-9787000D01*
X4203000Y-9639000D02*
X4203000Y-9679000D01*
X4183000Y-9659000D02*
X4223000Y-9659000D01*
X4203000Y-9894100D02*
X4203000Y-9934100D01*
X4183000Y-9914100D02*
X4223000Y-9914100D01*
X4203000Y-10028000D02*
X4203000Y-10068000D01*
X4183000Y-10048000D02*
X4223000Y-10048000D01*
X4255000Y-8575000D02*
X4255000Y-8615000D01*
X4235000Y-8595000D02*
X4275000Y-8595000D01*
X4265000Y-8420000D02*
X4265000Y-8460000D01*
X4245000Y-8440000D02*
X4285000Y-8440000D01*
X4427500Y-8921900D02*
X4427500Y-8961900D01*
X4407500Y-8941900D02*
X4447500Y-8941900D01*
X4430400Y-8700100D02*
X4430400Y-8740100D01*
X4410400Y-8720100D02*
X4450400Y-8720100D01*
X4458000Y-9638000D02*
X4458000Y-9678000D01*
X4438000Y-9658000D02*
X4478000Y-9658000D01*
X4458000Y-10027000D02*
X4458000Y-10067000D01*
X4438000Y-10047000D02*
X4478000Y-10047000D01*
X4530000Y-8092500D02*
X4530000Y-8132500D01*
X4510000Y-8112500D02*
X4550000Y-8112500D01*
X4744000Y-9636000D02*
X4744000Y-9676000D01*
X4724000Y-9656000D02*
X4764000Y-9656000D01*
X4744000Y-10025000D02*
X4744000Y-10065000D01*
X4724000Y-10045000D02*
X4764000Y-10045000D01*
X5038000Y-9638000D02*
X5038000Y-9678000D01*
X5018000Y-9658000D02*
X5058000Y-9658000D01*
X5038000Y-10027000D02*
X5038000Y-10067000D01*
X5018000Y-10047000D02*
X5058000Y-10047000D01*
X5041600Y-9892200D02*
X5041600Y-9932200D01*
X5021600Y-9912200D02*
X5061600Y-9912200D01*
X5047800Y-9768800D02*
X5047800Y-9808800D01*
X5027800Y-9788800D02*
X5067800Y-9788800D01*
X5206500Y-9063400D02*
X5206500Y-9103400D01*
X5186500Y-9083400D02*
X5226500Y-9083400D01*
X5267300Y-8821400D02*
X5267300Y-8861400D01*
X5247300Y-8841400D02*
X5287300Y-8841400D01*
D15*
X4645513Y-4492413D02*
X4645513Y-4449987D01*
X4603087Y-4449987D01*
X4603087Y-4492413D01*
X4645513Y-4492413D01*
D11*
X4594300Y-4431200D02*
X4594300Y-4511200D01*
X4594300Y-4511200D02*
G75*
G03*
X4654300Y-4511200I30000J0D01*
G01*
X4654300Y-4511200D02*
X4654300Y-4431200D01*
X4654300Y-4431200D02*
G75*
G03*
X4594300Y-4431200I-30000J0D01*
G01*
D15*
X4645513Y-4909413D02*
X4645513Y-4866987D01*
X4603087Y-4866987D01*
X4603087Y-4909413D01*
X4645513Y-4909413D01*
D11*
X4594300Y-4833200D02*
X4594300Y-4943200D01*
X4594300Y-4943200D02*
G75*
G03*
X4654300Y-4943200I30000J0D01*
G01*
X4654300Y-4943200D02*
X4654300Y-4833200D01*
X4654300Y-4833200D02*
G75*
G03*
X4594300Y-4833200I-30000J0D01*
G01*
D15*
X5509513Y-4492413D02*
X5509513Y-4449987D01*
X5467087Y-4449987D01*
X5467087Y-4492413D01*
X5509513Y-4492413D01*
D11*
X5458300Y-4431200D02*
X5458300Y-4511200D01*
X5458300Y-4511200D02*
G75*
G03*
X5518300Y-4511200I30000J0D01*
G01*
X5518300Y-4511200D02*
X5518300Y-4431200D01*
X5518300Y-4431200D02*
G75*
G03*
X5458300Y-4431200I-30000J0D01*
G01*
D15*
X5509513Y-4909413D02*
X5509513Y-4866987D01*
X5467087Y-4866987D01*
X5467087Y-4909413D01*
X5509513Y-4909413D01*
D11*
X5458300Y-4833200D02*
X5458300Y-4943200D01*
X5458300Y-4943200D02*
G75*
G03*
X5518300Y-4943200I30000J0D01*
G01*
X5518300Y-4943200D02*
X5518300Y-4833200D01*
X5518300Y-4833200D02*
G75*
G03*
X5458300Y-4833200I-30000J0D01*
G01*
D10*
X5767478Y-6162686D02*
X5817478Y-6112686D01*
X5767478Y-6062686D01*
X5717478Y-6112686D01*
X5767478Y-6162686D01*
X5767572Y-5042307D02*
X5817572Y-4992307D01*
X5767572Y-4942307D01*
X5717572Y-4992307D01*
X5767572Y-5042307D01*
X5767572Y-5296307D02*
X5817572Y-5246307D01*
X5767572Y-5196307D01*
X5717572Y-5246307D01*
X5767572Y-5296307D01*
X5767572Y-5550307D02*
X5817572Y-5500307D01*
X5767572Y-5450307D01*
X5717572Y-5500307D01*
X5767572Y-5550307D01*
X5767572Y-5804307D02*
X5817572Y-5754307D01*
X5767572Y-5704307D01*
X5717572Y-5754307D01*
X5767572Y-5804307D01*
X6021478Y-6162686D02*
X6071478Y-6112686D01*
X6021478Y-6062686D01*
X5971478Y-6112686D01*
X6021478Y-6162686D01*
X6021572Y-5042307D02*
X6071572Y-4992307D01*
X6021572Y-4942307D01*
X5971572Y-4992307D01*
X6021572Y-5042307D01*
X6021572Y-5296307D02*
X6071572Y-5246307D01*
X6021572Y-5196307D01*
X5971572Y-5246307D01*
X6021572Y-5296307D01*
X6021572Y-5550307D02*
X6071572Y-5500307D01*
X6021572Y-5450307D01*
X5971572Y-5500307D01*
X6021572Y-5550307D01*
X6021572Y-5804307D02*
X6071572Y-5754307D01*
X6021572Y-5704307D01*
X5971572Y-5754307D01*
X6021572Y-5804307D01*
X6021623Y-6523266D02*
X6071623Y-6473266D01*
X6021623Y-6423266D01*
X5971623Y-6473266D01*
X6021623Y-6523266D01*
X6021623Y-6777266D02*
X6071623Y-6727266D01*
X6021623Y-6677266D01*
X5971623Y-6727266D01*
X6021623Y-6777266D01*
D16*
X5519000Y-7070946D02*
X5639000Y-7190946D01*
X5639000Y-7070946D02*
X5519000Y-7190946D01*
X5639000Y-7130946D02*
G75*
G03*
X5639000Y-7130946I-60000J0D01*
G01*
X5519000Y-7320946D02*
X5639000Y-7440946D01*
X5639000Y-7320946D02*
X5519000Y-7440946D01*
X5639000Y-7380946D02*
G75*
G03*
X5639000Y-7380946I-60000J0D01*
G01*
X5519000Y-7570946D02*
X5639000Y-7690946D01*
X5639000Y-7570946D02*
X5519000Y-7690946D01*
X5639000Y-7630946D02*
G75*
G03*
X5639000Y-7630946I-60000J0D01*
G01*
X5519159Y-8015495D02*
X5639159Y-8135495D01*
X5639159Y-8015495D02*
X5519159Y-8135495D01*
X5639159Y-8075495D02*
G75*
G03*
X5639159Y-8075495I-60000J0D01*
G01*
X5519159Y-8265495D02*
X5639159Y-8385495D01*
X5639159Y-8265495D02*
X5519159Y-8385495D01*
X5639159Y-8325495D02*
G75*
G03*
X5639159Y-8325495I-60000J0D01*
G01*
X5519159Y-8515496D02*
X5639159Y-8635496D01*
X5639159Y-8515496D02*
X5519159Y-8635496D01*
X5639159Y-8575496D02*
G75*
G03*
X5639159Y-8575496I-60000J0D01*
G01*
D17*
X3647500Y-7049000D02*
X3827500Y-7229000D01*
X3827500Y-7049000D02*
X3647500Y-7229000D01*
X3737500Y-7049000D02*
X3737500Y-7229000D01*
X3647500Y-7139000D02*
X3827500Y-7139000D01*
X3647500Y-7469000D02*
X3827500Y-7649000D01*
X3827500Y-7469000D02*
X3647500Y-7649000D01*
X3737500Y-7469000D02*
X3737500Y-7649000D01*
X3647500Y-7559000D02*
X3827500Y-7559000D01*
X3647500Y-7889000D02*
X3827500Y-8069000D01*
X3827500Y-7889000D02*
X3647500Y-8069000D01*
X3737500Y-7889000D02*
X3737500Y-8069000D01*
X3647500Y-7979000D02*
X3827500Y-7979000D01*
X4197500Y-7049000D02*
X4377500Y-7229000D01*
X4377500Y-7049000D02*
X4197500Y-7229000D01*
X4287500Y-7049000D02*
X4287500Y-7229000D01*
X4197500Y-7139000D02*
X4377500Y-7139000D01*
X4197500Y-7469000D02*
X4377500Y-7649000D01*
X4377500Y-7469000D02*
X4197500Y-7649000D01*
X4287500Y-7469000D02*
X4287500Y-7649000D01*
X4197500Y-7559000D02*
X4377500Y-7559000D01*
X4197500Y-7889000D02*
X4377500Y-8069000D01*
X4377500Y-7889000D02*
X4197500Y-8069000D01*
X4287500Y-7889000D02*
X4287500Y-8069000D01*
X4197500Y-7979000D02*
X4377500Y-7979000D01*
D18*
X3340000Y-4349000D02*
X3660000Y-4669000D01*
X3660000Y-4349000D02*
X3340000Y-4669000D01*
X3613138Y-4622138D02*
X3613138Y-4395862D01*
X3386862Y-4395862D01*
X3386862Y-4622138D01*
X3613138Y-4622138D01*
X3340000Y-9749000D02*
X3660000Y-10069000D01*
X3660000Y-9749000D02*
X3340000Y-10069000D01*
X3613138Y-10022138D02*
X3613138Y-9795862D01*
X3386862Y-9795862D01*
X3386862Y-10022138D01*
X3613138Y-10022138D01*
X5740000Y-4349000D02*
X6060000Y-4669000D01*
X6060000Y-4349000D02*
X5740000Y-4669000D01*
X6013138Y-4622138D02*
X6013138Y-4395862D01*
X5786862Y-4395862D01*
X5786862Y-4622138D01*
X6013138Y-4622138D01*
X5740000Y-9749000D02*
X6060000Y-10069000D01*
X6060000Y-9749000D02*
X5740000Y-10069000D01*
X6013138Y-10022138D02*
X6013138Y-9795862D01*
X5786862Y-9795862D01*
X5786862Y-10022138D01*
X6013138Y-10022138D01*
D11*
X3442619Y-10507476D02*
X3442619Y-10307476D01*
X3442619Y-10307476D02*
X3490238Y-10307476D01*
X3490238Y-10307476D02*
X3518809Y-10317000D01*
X3518809Y-10317000D02*
X3537857Y-10336048D01*
X3537857Y-10336048D02*
X3547381Y-10355095D01*
X3547381Y-10355095D02*
X3556905Y-10393190D01*
X3556905Y-10393190D02*
X3556905Y-10421762D01*
X3556905Y-10421762D02*
X3547381Y-10459857D01*
X3547381Y-10459857D02*
X3537857Y-10478905D01*
X3537857Y-10478905D02*
X3518809Y-10497952D01*
X3518809Y-10497952D02*
X3490238Y-10507476D01*
X3490238Y-10507476D02*
X3442619Y-10507476D01*
X3642619Y-10507476D02*
X3642619Y-10374143D01*
X3642619Y-10412238D02*
X3652143Y-10393190D01*
X3652143Y-10393190D02*
X3661667Y-10383667D01*
X3661667Y-10383667D02*
X3680714Y-10374143D01*
X3680714Y-10374143D02*
X3699762Y-10374143D01*
X3766428Y-10507476D02*
X3766428Y-10374143D01*
X3766428Y-10307476D02*
X3756905Y-10317000D01*
X3756905Y-10317000D02*
X3766428Y-10326524D01*
X3766428Y-10326524D02*
X3775952Y-10317000D01*
X3775952Y-10317000D02*
X3766428Y-10307476D01*
X3766428Y-10307476D02*
X3766428Y-10326524D01*
X3890238Y-10507476D02*
X3871190Y-10497952D01*
X3871190Y-10497952D02*
X3861667Y-10478905D01*
X3861667Y-10478905D02*
X3861667Y-10307476D01*
X3995000Y-10507476D02*
X3975952Y-10497952D01*
X3975952Y-10497952D02*
X3966428Y-10478905D01*
X3966428Y-10478905D02*
X3966428Y-10307476D01*
X4191190Y-10507476D02*
X4191190Y-10307476D01*
X4191190Y-10307476D02*
X4257857Y-10450333D01*
X4257857Y-10450333D02*
X4324524Y-10307476D01*
X4324524Y-10307476D02*
X4324524Y-10507476D01*
X4505476Y-10507476D02*
X4505476Y-10402714D01*
X4505476Y-10402714D02*
X4495952Y-10383667D01*
X4495952Y-10383667D02*
X4476905Y-10374143D01*
X4476905Y-10374143D02*
X4438809Y-10374143D01*
X4438809Y-10374143D02*
X4419762Y-10383667D01*
X4505476Y-10497952D02*
X4486429Y-10507476D01*
X4486429Y-10507476D02*
X4438809Y-10507476D01*
X4438809Y-10507476D02*
X4419762Y-10497952D01*
X4419762Y-10497952D02*
X4410238Y-10478905D01*
X4410238Y-10478905D02*
X4410238Y-10459857D01*
X4410238Y-10459857D02*
X4419762Y-10440810D01*
X4419762Y-10440810D02*
X4438809Y-10431286D01*
X4438809Y-10431286D02*
X4486429Y-10431286D01*
X4486429Y-10431286D02*
X4505476Y-10421762D01*
X4600714Y-10374143D02*
X4600714Y-10574143D01*
X4600714Y-10383667D02*
X4619762Y-10374143D01*
X4619762Y-10374143D02*
X4657857Y-10374143D01*
X4657857Y-10374143D02*
X4676905Y-10383667D01*
X4676905Y-10383667D02*
X4686429Y-10393190D01*
X4686429Y-10393190D02*
X4695952Y-10412238D01*
X4695952Y-10412238D02*
X4695952Y-10469381D01*
X4695952Y-10469381D02*
X4686429Y-10488429D01*
X4686429Y-10488429D02*
X4676905Y-10497952D01*
X4676905Y-10497952D02*
X4657857Y-10507476D01*
X4657857Y-10507476D02*
X4619762Y-10507476D01*
X4619762Y-10507476D02*
X4600714Y-10497952D01*
X4781667Y-10488429D02*
X4791190Y-10497952D01*
X4791190Y-10497952D02*
X4781667Y-10507476D01*
X4781667Y-10507476D02*
X4772143Y-10497952D01*
X4772143Y-10497952D02*
X4781667Y-10488429D01*
X4781667Y-10488429D02*
X4781667Y-10507476D01*
X4781667Y-10383667D02*
X4791190Y-10393190D01*
X4791190Y-10393190D02*
X4781667Y-10402714D01*
X4781667Y-10402714D02*
X4772143Y-10393190D01*
X4772143Y-10393190D02*
X4781667Y-10383667D01*
X4781667Y-10383667D02*
X4781667Y-10402714D01*
D12*
X3175000Y-10844000D02*
X3195000Y-10864000D01*
X3195000Y-10844000D02*
X3175000Y-10864000D01*
D11*
X3480714Y-10727476D02*
X3499762Y-10727476D01*
X3499762Y-10727476D02*
X3518809Y-10737000D01*
X3518809Y-10737000D02*
X3528333Y-10746524D01*
X3528333Y-10746524D02*
X3537857Y-10765571D01*
X3537857Y-10765571D02*
X3547381Y-10803667D01*
X3547381Y-10803667D02*
X3547381Y-10851286D01*
X3547381Y-10851286D02*
X3537857Y-10889381D01*
X3537857Y-10889381D02*
X3528333Y-10908429D01*
X3528333Y-10908429D02*
X3518809Y-10917952D01*
X3518809Y-10917952D02*
X3499762Y-10927476D01*
X3499762Y-10927476D02*
X3480714Y-10927476D01*
X3480714Y-10927476D02*
X3461667Y-10917952D01*
X3461667Y-10917952D02*
X3452143Y-10908429D01*
X3452143Y-10908429D02*
X3442619Y-10889381D01*
X3442619Y-10889381D02*
X3433095Y-10851286D01*
X3433095Y-10851286D02*
X3433095Y-10803667D01*
X3433095Y-10803667D02*
X3442619Y-10765571D01*
X3442619Y-10765571D02*
X3452143Y-10746524D01*
X3452143Y-10746524D02*
X3461667Y-10737000D01*
X3461667Y-10737000D02*
X3480714Y-10727476D01*
X3633095Y-10908429D02*
X3642619Y-10917952D01*
X3642619Y-10917952D02*
X3633095Y-10927476D01*
X3633095Y-10927476D02*
X3623571Y-10917952D01*
X3623571Y-10917952D02*
X3633095Y-10908429D01*
X3633095Y-10908429D02*
X3633095Y-10927476D01*
X3718809Y-10746524D02*
X3728333Y-10737000D01*
X3728333Y-10737000D02*
X3747381Y-10727476D01*
X3747381Y-10727476D02*
X3795000Y-10727476D01*
X3795000Y-10727476D02*
X3814048Y-10737000D01*
X3814048Y-10737000D02*
X3823571Y-10746524D01*
X3823571Y-10746524D02*
X3833095Y-10765571D01*
X3833095Y-10765571D02*
X3833095Y-10784619D01*
X3833095Y-10784619D02*
X3823571Y-10813190D01*
X3823571Y-10813190D02*
X3709286Y-10927476D01*
X3709286Y-10927476D02*
X3833095Y-10927476D01*
X3956905Y-10727476D02*
X3975952Y-10727476D01*
X3975952Y-10727476D02*
X3995000Y-10737000D01*
X3995000Y-10737000D02*
X4004524Y-10746524D01*
X4004524Y-10746524D02*
X4014048Y-10765571D01*
X4014048Y-10765571D02*
X4023571Y-10803667D01*
X4023571Y-10803667D02*
X4023571Y-10851286D01*
X4023571Y-10851286D02*
X4014048Y-10889381D01*
X4014048Y-10889381D02*
X4004524Y-10908429D01*
X4004524Y-10908429D02*
X3995000Y-10917952D01*
X3995000Y-10917952D02*
X3975952Y-10927476D01*
X3975952Y-10927476D02*
X3956905Y-10927476D01*
X3956905Y-10927476D02*
X3937857Y-10917952D01*
X3937857Y-10917952D02*
X3928333Y-10908429D01*
X3928333Y-10908429D02*
X3918809Y-10889381D01*
X3918809Y-10889381D02*
X3909286Y-10851286D01*
X3909286Y-10851286D02*
X3909286Y-10803667D01*
X3909286Y-10803667D02*
X3918809Y-10765571D01*
X3918809Y-10765571D02*
X3928333Y-10746524D01*
X3928333Y-10746524D02*
X3937857Y-10737000D01*
X3937857Y-10737000D02*
X3956905Y-10727476D01*
X4147381Y-10727476D02*
X4166429Y-10727476D01*
X4166429Y-10727476D02*
X4185476Y-10737000D01*
X4185476Y-10737000D02*
X4195000Y-10746524D01*
X4195000Y-10746524D02*
X4204524Y-10765571D01*
X4204524Y-10765571D02*
X4214048Y-10803667D01*
X4214048Y-10803667D02*
X4214048Y-10851286D01*
X4214048Y-10851286D02*
X4204524Y-10889381D01*
X4204524Y-10889381D02*
X4195000Y-10908429D01*
X4195000Y-10908429D02*
X4185476Y-10917952D01*
X4185476Y-10917952D02*
X4166429Y-10927476D01*
X4166429Y-10927476D02*
X4147381Y-10927476D01*
X4147381Y-10927476D02*
X4128333Y-10917952D01*
X4128333Y-10917952D02*
X4118809Y-10908429D01*
X4118809Y-10908429D02*
X4109286Y-10889381D01*
X4109286Y-10889381D02*
X4099762Y-10851286D01*
X4099762Y-10851286D02*
X4099762Y-10803667D01*
X4099762Y-10803667D02*
X4109286Y-10765571D01*
X4109286Y-10765571D02*
X4118809Y-10746524D01*
X4118809Y-10746524D02*
X4128333Y-10737000D01*
X4128333Y-10737000D02*
X4147381Y-10727476D01*
X4299762Y-10927476D02*
X4299762Y-10794143D01*
X4299762Y-10813190D02*
X4309286Y-10803667D01*
X4309286Y-10803667D02*
X4328333Y-10794143D01*
X4328333Y-10794143D02*
X4356905Y-10794143D01*
X4356905Y-10794143D02*
X4375952Y-10803667D01*
X4375952Y-10803667D02*
X4385476Y-10822714D01*
X4385476Y-10822714D02*
X4385476Y-10927476D01*
X4385476Y-10822714D02*
X4395000Y-10803667D01*
X4395000Y-10803667D02*
X4414048Y-10794143D01*
X4414048Y-10794143D02*
X4442619Y-10794143D01*
X4442619Y-10794143D02*
X4461667Y-10803667D01*
X4461667Y-10803667D02*
X4471191Y-10822714D01*
X4471191Y-10822714D02*
X4471191Y-10927476D01*
X4566429Y-10927476D02*
X4566429Y-10794143D01*
X4566429Y-10813190D02*
X4575952Y-10803667D01*
X4575952Y-10803667D02*
X4595000Y-10794143D01*
X4595000Y-10794143D02*
X4623572Y-10794143D01*
X4623572Y-10794143D02*
X4642619Y-10803667D01*
X4642619Y-10803667D02*
X4652143Y-10822714D01*
X4652143Y-10822714D02*
X4652143Y-10927476D01*
X4652143Y-10822714D02*
X4661667Y-10803667D01*
X4661667Y-10803667D02*
X4680714Y-10794143D01*
X4680714Y-10794143D02*
X4709286Y-10794143D01*
X4709286Y-10794143D02*
X4728333Y-10803667D01*
X4728333Y-10803667D02*
X4737857Y-10822714D01*
X4737857Y-10822714D02*
X4737857Y-10927476D01*
X5095952Y-10717952D02*
X4924524Y-10975095D01*
X5320714Y-10727476D02*
X5339762Y-10727476D01*
X5339762Y-10727476D02*
X5358810Y-10737000D01*
X5358810Y-10737000D02*
X5368333Y-10746524D01*
X5368333Y-10746524D02*
X5377857Y-10765571D01*
X5377857Y-10765571D02*
X5387381Y-10803667D01*
X5387381Y-10803667D02*
X5387381Y-10851286D01*
X5387381Y-10851286D02*
X5377857Y-10889381D01*
X5377857Y-10889381D02*
X5368333Y-10908429D01*
X5368333Y-10908429D02*
X5358810Y-10917952D01*
X5358810Y-10917952D02*
X5339762Y-10927476D01*
X5339762Y-10927476D02*
X5320714Y-10927476D01*
X5320714Y-10927476D02*
X5301667Y-10917952D01*
X5301667Y-10917952D02*
X5292143Y-10908429D01*
X5292143Y-10908429D02*
X5282619Y-10889381D01*
X5282619Y-10889381D02*
X5273095Y-10851286D01*
X5273095Y-10851286D02*
X5273095Y-10803667D01*
X5273095Y-10803667D02*
X5282619Y-10765571D01*
X5282619Y-10765571D02*
X5292143Y-10746524D01*
X5292143Y-10746524D02*
X5301667Y-10737000D01*
X5301667Y-10737000D02*
X5320714Y-10727476D01*
X5473095Y-10908429D02*
X5482619Y-10917952D01*
X5482619Y-10917952D02*
X5473095Y-10927476D01*
X5473095Y-10927476D02*
X5463572Y-10917952D01*
X5463572Y-10917952D02*
X5473095Y-10908429D01*
X5473095Y-10908429D02*
X5473095Y-10927476D01*
X5606429Y-10727476D02*
X5625476Y-10727476D01*
X5625476Y-10727476D02*
X5644524Y-10737000D01*
X5644524Y-10737000D02*
X5654048Y-10746524D01*
X5654048Y-10746524D02*
X5663571Y-10765571D01*
X5663571Y-10765571D02*
X5673095Y-10803667D01*
X5673095Y-10803667D02*
X5673095Y-10851286D01*
X5673095Y-10851286D02*
X5663571Y-10889381D01*
X5663571Y-10889381D02*
X5654048Y-10908429D01*
X5654048Y-10908429D02*
X5644524Y-10917952D01*
X5644524Y-10917952D02*
X5625476Y-10927476D01*
X5625476Y-10927476D02*
X5606429Y-10927476D01*
X5606429Y-10927476D02*
X5587381Y-10917952D01*
X5587381Y-10917952D02*
X5577857Y-10908429D01*
X5577857Y-10908429D02*
X5568333Y-10889381D01*
X5568333Y-10889381D02*
X5558810Y-10851286D01*
X5558810Y-10851286D02*
X5558810Y-10803667D01*
X5558810Y-10803667D02*
X5568333Y-10765571D01*
X5568333Y-10765571D02*
X5577857Y-10746524D01*
X5577857Y-10746524D02*
X5587381Y-10737000D01*
X5587381Y-10737000D02*
X5606429Y-10727476D01*
X5796905Y-10727476D02*
X5815952Y-10727476D01*
X5815952Y-10727476D02*
X5835000Y-10737000D01*
X5835000Y-10737000D02*
X5844524Y-10746524D01*
X5844524Y-10746524D02*
X5854048Y-10765571D01*
X5854048Y-10765571D02*
X5863571Y-10803667D01*
X5863571Y-10803667D02*
X5863571Y-10851286D01*
X5863571Y-10851286D02*
X5854048Y-10889381D01*
X5854048Y-10889381D02*
X5844524Y-10908429D01*
X5844524Y-10908429D02*
X5835000Y-10917952D01*
X5835000Y-10917952D02*
X5815952Y-10927476D01*
X5815952Y-10927476D02*
X5796905Y-10927476D01*
X5796905Y-10927476D02*
X5777857Y-10917952D01*
X5777857Y-10917952D02*
X5768333Y-10908429D01*
X5768333Y-10908429D02*
X5758810Y-10889381D01*
X5758810Y-10889381D02*
X5749286Y-10851286D01*
X5749286Y-10851286D02*
X5749286Y-10803667D01*
X5749286Y-10803667D02*
X5758810Y-10765571D01*
X5758810Y-10765571D02*
X5768333Y-10746524D01*
X5768333Y-10746524D02*
X5777857Y-10737000D01*
X5777857Y-10737000D02*
X5796905Y-10727476D01*
X5930238Y-10727476D02*
X6063571Y-10727476D01*
X6063571Y-10727476D02*
X5977857Y-10927476D01*
X6149286Y-10927476D02*
X6187381Y-10927476D01*
X6187381Y-10927476D02*
X6206429Y-10917952D01*
X6206429Y-10917952D02*
X6215952Y-10908429D01*
X6215952Y-10908429D02*
X6235000Y-10879857D01*
X6235000Y-10879857D02*
X6244524Y-10841762D01*
X6244524Y-10841762D02*
X6244524Y-10765571D01*
X6244524Y-10765571D02*
X6235000Y-10746524D01*
X6235000Y-10746524D02*
X6225476Y-10737000D01*
X6225476Y-10737000D02*
X6206429Y-10727476D01*
X6206429Y-10727476D02*
X6168333Y-10727476D01*
X6168333Y-10727476D02*
X6149286Y-10737000D01*
X6149286Y-10737000D02*
X6139762Y-10746524D01*
X6139762Y-10746524D02*
X6130238Y-10765571D01*
X6130238Y-10765571D02*
X6130238Y-10813190D01*
X6130238Y-10813190D02*
X6139762Y-10832238D01*
X6139762Y-10832238D02*
X6149286Y-10841762D01*
X6149286Y-10841762D02*
X6168333Y-10851286D01*
X6168333Y-10851286D02*
X6206429Y-10851286D01*
X6206429Y-10851286D02*
X6225476Y-10841762D01*
X6225476Y-10841762D02*
X6235000Y-10832238D01*
X6235000Y-10832238D02*
X6244524Y-10813190D01*
X6320714Y-10727476D02*
X6320714Y-10765571D01*
X6396905Y-10727476D02*
X6396905Y-10765571D01*
X6659762Y-11003667D02*
X6650238Y-10994143D01*
X6650238Y-10994143D02*
X6631191Y-10965571D01*
X6631191Y-10965571D02*
X6621667Y-10946524D01*
X6621667Y-10946524D02*
X6612143Y-10917952D01*
X6612143Y-10917952D02*
X6602619Y-10870333D01*
X6602619Y-10870333D02*
X6602619Y-10832238D01*
X6602619Y-10832238D02*
X6612143Y-10784619D01*
X6612143Y-10784619D02*
X6621667Y-10756048D01*
X6621667Y-10756048D02*
X6631191Y-10737000D01*
X6631191Y-10737000D02*
X6650238Y-10708429D01*
X6650238Y-10708429D02*
X6659762Y-10698905D01*
X6840714Y-10927476D02*
X6726429Y-10927476D01*
X6783571Y-10927476D02*
X6783571Y-10727476D01*
X6783571Y-10727476D02*
X6764524Y-10756048D01*
X6764524Y-10756048D02*
X6745476Y-10775095D01*
X6745476Y-10775095D02*
X6726429Y-10784619D01*
X7046429Y-10927476D02*
X7046429Y-10727476D01*
X7132143Y-10927476D02*
X7132143Y-10822714D01*
X7132143Y-10822714D02*
X7122619Y-10803667D01*
X7122619Y-10803667D02*
X7103572Y-10794143D01*
X7103572Y-10794143D02*
X7075000Y-10794143D01*
X7075000Y-10794143D02*
X7055952Y-10803667D01*
X7055952Y-10803667D02*
X7046429Y-10813190D01*
X7255952Y-10927476D02*
X7236905Y-10917952D01*
X7236905Y-10917952D02*
X7227381Y-10908429D01*
X7227381Y-10908429D02*
X7217857Y-10889381D01*
X7217857Y-10889381D02*
X7217857Y-10832238D01*
X7217857Y-10832238D02*
X7227381Y-10813190D01*
X7227381Y-10813190D02*
X7236905Y-10803667D01*
X7236905Y-10803667D02*
X7255952Y-10794143D01*
X7255952Y-10794143D02*
X7284524Y-10794143D01*
X7284524Y-10794143D02*
X7303572Y-10803667D01*
X7303572Y-10803667D02*
X7313095Y-10813190D01*
X7313095Y-10813190D02*
X7322619Y-10832238D01*
X7322619Y-10832238D02*
X7322619Y-10889381D01*
X7322619Y-10889381D02*
X7313095Y-10908429D01*
X7313095Y-10908429D02*
X7303572Y-10917952D01*
X7303572Y-10917952D02*
X7284524Y-10927476D01*
X7284524Y-10927476D02*
X7255952Y-10927476D01*
X7436905Y-10927476D02*
X7417857Y-10917952D01*
X7417857Y-10917952D02*
X7408333Y-10898905D01*
X7408333Y-10898905D02*
X7408333Y-10727476D01*
X7589286Y-10917952D02*
X7570238Y-10927476D01*
X7570238Y-10927476D02*
X7532143Y-10927476D01*
X7532143Y-10927476D02*
X7513095Y-10917952D01*
X7513095Y-10917952D02*
X7503572Y-10898905D01*
X7503572Y-10898905D02*
X7503572Y-10822714D01*
X7503572Y-10822714D02*
X7513095Y-10803667D01*
X7513095Y-10803667D02*
X7532143Y-10794143D01*
X7532143Y-10794143D02*
X7570238Y-10794143D01*
X7570238Y-10794143D02*
X7589286Y-10803667D01*
X7589286Y-10803667D02*
X7598810Y-10822714D01*
X7598810Y-10822714D02*
X7598810Y-10841762D01*
X7598810Y-10841762D02*
X7503572Y-10860810D01*
X7665476Y-11003667D02*
X7675000Y-10994143D01*
X7675000Y-10994143D02*
X7694048Y-10965571D01*
X7694048Y-10965571D02*
X7703572Y-10946524D01*
X7703572Y-10946524D02*
X7713095Y-10917952D01*
X7713095Y-10917952D02*
X7722619Y-10870333D01*
X7722619Y-10870333D02*
X7722619Y-10832238D01*
X7722619Y-10832238D02*
X7713095Y-10784619D01*
X7713095Y-10784619D02*
X7703572Y-10756048D01*
X7703572Y-10756048D02*
X7694048Y-10737000D01*
X7694048Y-10737000D02*
X7675000Y-10708429D01*
X7675000Y-10708429D02*
X7665476Y-10698905D01*
D13*
X3195000Y-11118000D02*
G75*
G03*
X3195000Y-11118000I-15000J0D01*
G01*
D11*
X3480714Y-10991476D02*
X3499762Y-10991476D01*
X3499762Y-10991476D02*
X3518809Y-11001000D01*
X3518809Y-11001000D02*
X3528333Y-11010524D01*
X3528333Y-11010524D02*
X3537857Y-11029571D01*
X3537857Y-11029571D02*
X3547381Y-11067667D01*
X3547381Y-11067667D02*
X3547381Y-11115286D01*
X3547381Y-11115286D02*
X3537857Y-11153381D01*
X3537857Y-11153381D02*
X3528333Y-11172429D01*
X3528333Y-11172429D02*
X3518809Y-11181952D01*
X3518809Y-11181952D02*
X3499762Y-11191476D01*
X3499762Y-11191476D02*
X3480714Y-11191476D01*
X3480714Y-11191476D02*
X3461667Y-11181952D01*
X3461667Y-11181952D02*
X3452143Y-11172429D01*
X3452143Y-11172429D02*
X3442619Y-11153381D01*
X3442619Y-11153381D02*
X3433095Y-11115286D01*
X3433095Y-11115286D02*
X3433095Y-11067667D01*
X3433095Y-11067667D02*
X3442619Y-11029571D01*
X3442619Y-11029571D02*
X3452143Y-11010524D01*
X3452143Y-11010524D02*
X3461667Y-11001000D01*
X3461667Y-11001000D02*
X3480714Y-10991476D01*
X3633095Y-11172429D02*
X3642619Y-11181952D01*
X3642619Y-11181952D02*
X3633095Y-11191476D01*
X3633095Y-11191476D02*
X3623571Y-11181952D01*
X3623571Y-11181952D02*
X3633095Y-11172429D01*
X3633095Y-11172429D02*
X3633095Y-11191476D01*
X3709286Y-10991476D02*
X3833095Y-10991476D01*
X3833095Y-10991476D02*
X3766428Y-11067667D01*
X3766428Y-11067667D02*
X3795000Y-11067667D01*
X3795000Y-11067667D02*
X3814048Y-11077190D01*
X3814048Y-11077190D02*
X3823571Y-11086714D01*
X3823571Y-11086714D02*
X3833095Y-11105762D01*
X3833095Y-11105762D02*
X3833095Y-11153381D01*
X3833095Y-11153381D02*
X3823571Y-11172429D01*
X3823571Y-11172429D02*
X3814048Y-11181952D01*
X3814048Y-11181952D02*
X3795000Y-11191476D01*
X3795000Y-11191476D02*
X3737857Y-11191476D01*
X3737857Y-11191476D02*
X3718809Y-11181952D01*
X3718809Y-11181952D02*
X3709286Y-11172429D01*
X3956905Y-10991476D02*
X3975952Y-10991476D01*
X3975952Y-10991476D02*
X3995000Y-11001000D01*
X3995000Y-11001000D02*
X4004524Y-11010524D01*
X4004524Y-11010524D02*
X4014048Y-11029571D01*
X4014048Y-11029571D02*
X4023571Y-11067667D01*
X4023571Y-11067667D02*
X4023571Y-11115286D01*
X4023571Y-11115286D02*
X4014048Y-11153381D01*
X4014048Y-11153381D02*
X4004524Y-11172429D01*
X4004524Y-11172429D02*
X3995000Y-11181952D01*
X3995000Y-11181952D02*
X3975952Y-11191476D01*
X3975952Y-11191476D02*
X3956905Y-11191476D01*
X3956905Y-11191476D02*
X3937857Y-11181952D01*
X3937857Y-11181952D02*
X3928333Y-11172429D01*
X3928333Y-11172429D02*
X3918809Y-11153381D01*
X3918809Y-11153381D02*
X3909286Y-11115286D01*
X3909286Y-11115286D02*
X3909286Y-11067667D01*
X3909286Y-11067667D02*
X3918809Y-11029571D01*
X3918809Y-11029571D02*
X3928333Y-11010524D01*
X3928333Y-11010524D02*
X3937857Y-11001000D01*
X3937857Y-11001000D02*
X3956905Y-10991476D01*
X4147381Y-10991476D02*
X4166429Y-10991476D01*
X4166429Y-10991476D02*
X4185476Y-11001000D01*
X4185476Y-11001000D02*
X4195000Y-11010524D01*
X4195000Y-11010524D02*
X4204524Y-11029571D01*
X4204524Y-11029571D02*
X4214048Y-11067667D01*
X4214048Y-11067667D02*
X4214048Y-11115286D01*
X4214048Y-11115286D02*
X4204524Y-11153381D01*
X4204524Y-11153381D02*
X4195000Y-11172429D01*
X4195000Y-11172429D02*
X4185476Y-11181952D01*
X4185476Y-11181952D02*
X4166429Y-11191476D01*
X4166429Y-11191476D02*
X4147381Y-11191476D01*
X4147381Y-11191476D02*
X4128333Y-11181952D01*
X4128333Y-11181952D02*
X4118809Y-11172429D01*
X4118809Y-11172429D02*
X4109286Y-11153381D01*
X4109286Y-11153381D02*
X4099762Y-11115286D01*
X4099762Y-11115286D02*
X4099762Y-11067667D01*
X4099762Y-11067667D02*
X4109286Y-11029571D01*
X4109286Y-11029571D02*
X4118809Y-11010524D01*
X4118809Y-11010524D02*
X4128333Y-11001000D01*
X4128333Y-11001000D02*
X4147381Y-10991476D01*
X4299762Y-11191476D02*
X4299762Y-11058143D01*
X4299762Y-11077190D02*
X4309286Y-11067667D01*
X4309286Y-11067667D02*
X4328333Y-11058143D01*
X4328333Y-11058143D02*
X4356905Y-11058143D01*
X4356905Y-11058143D02*
X4375952Y-11067667D01*
X4375952Y-11067667D02*
X4385476Y-11086714D01*
X4385476Y-11086714D02*
X4385476Y-11191476D01*
X4385476Y-11086714D02*
X4395000Y-11067667D01*
X4395000Y-11067667D02*
X4414048Y-11058143D01*
X4414048Y-11058143D02*
X4442619Y-11058143D01*
X4442619Y-11058143D02*
X4461667Y-11067667D01*
X4461667Y-11067667D02*
X4471191Y-11086714D01*
X4471191Y-11086714D02*
X4471191Y-11191476D01*
X4566429Y-11191476D02*
X4566429Y-11058143D01*
X4566429Y-11077190D02*
X4575952Y-11067667D01*
X4575952Y-11067667D02*
X4595000Y-11058143D01*
X4595000Y-11058143D02*
X4623572Y-11058143D01*
X4623572Y-11058143D02*
X4642619Y-11067667D01*
X4642619Y-11067667D02*
X4652143Y-11086714D01*
X4652143Y-11086714D02*
X4652143Y-11191476D01*
X4652143Y-11086714D02*
X4661667Y-11067667D01*
X4661667Y-11067667D02*
X4680714Y-11058143D01*
X4680714Y-11058143D02*
X4709286Y-11058143D01*
X4709286Y-11058143D02*
X4728333Y-11067667D01*
X4728333Y-11067667D02*
X4737857Y-11086714D01*
X4737857Y-11086714D02*
X4737857Y-11191476D01*
X5095952Y-10981952D02*
X4924524Y-11239095D01*
X5320714Y-10991476D02*
X5339762Y-10991476D01*
X5339762Y-10991476D02*
X5358810Y-11001000D01*
X5358810Y-11001000D02*
X5368333Y-11010524D01*
X5368333Y-11010524D02*
X5377857Y-11029571D01*
X5377857Y-11029571D02*
X5387381Y-11067667D01*
X5387381Y-11067667D02*
X5387381Y-11115286D01*
X5387381Y-11115286D02*
X5377857Y-11153381D01*
X5377857Y-11153381D02*
X5368333Y-11172429D01*
X5368333Y-11172429D02*
X5358810Y-11181952D01*
X5358810Y-11181952D02*
X5339762Y-11191476D01*
X5339762Y-11191476D02*
X5320714Y-11191476D01*
X5320714Y-11191476D02*
X5301667Y-11181952D01*
X5301667Y-11181952D02*
X5292143Y-11172429D01*
X5292143Y-11172429D02*
X5282619Y-11153381D01*
X5282619Y-11153381D02*
X5273095Y-11115286D01*
X5273095Y-11115286D02*
X5273095Y-11067667D01*
X5273095Y-11067667D02*
X5282619Y-11029571D01*
X5282619Y-11029571D02*
X5292143Y-11010524D01*
X5292143Y-11010524D02*
X5301667Y-11001000D01*
X5301667Y-11001000D02*
X5320714Y-10991476D01*
X5473095Y-11172429D02*
X5482619Y-11181952D01*
X5482619Y-11181952D02*
X5473095Y-11191476D01*
X5473095Y-11191476D02*
X5463572Y-11181952D01*
X5463572Y-11181952D02*
X5473095Y-11172429D01*
X5473095Y-11172429D02*
X5473095Y-11191476D01*
X5606429Y-10991476D02*
X5625476Y-10991476D01*
X5625476Y-10991476D02*
X5644524Y-11001000D01*
X5644524Y-11001000D02*
X5654048Y-11010524D01*
X5654048Y-11010524D02*
X5663571Y-11029571D01*
X5663571Y-11029571D02*
X5673095Y-11067667D01*
X5673095Y-11067667D02*
X5673095Y-11115286D01*
X5673095Y-11115286D02*
X5663571Y-11153381D01*
X5663571Y-11153381D02*
X5654048Y-11172429D01*
X5654048Y-11172429D02*
X5644524Y-11181952D01*
X5644524Y-11181952D02*
X5625476Y-11191476D01*
X5625476Y-11191476D02*
X5606429Y-11191476D01*
X5606429Y-11191476D02*
X5587381Y-11181952D01*
X5587381Y-11181952D02*
X5577857Y-11172429D01*
X5577857Y-11172429D02*
X5568333Y-11153381D01*
X5568333Y-11153381D02*
X5558810Y-11115286D01*
X5558810Y-11115286D02*
X5558810Y-11067667D01*
X5558810Y-11067667D02*
X5568333Y-11029571D01*
X5568333Y-11029571D02*
X5577857Y-11010524D01*
X5577857Y-11010524D02*
X5587381Y-11001000D01*
X5587381Y-11001000D02*
X5606429Y-10991476D01*
X5863571Y-11191476D02*
X5749286Y-11191476D01*
X5806429Y-11191476D02*
X5806429Y-10991476D01*
X5806429Y-10991476D02*
X5787381Y-11020048D01*
X5787381Y-11020048D02*
X5768333Y-11039095D01*
X5768333Y-11039095D02*
X5749286Y-11048619D01*
X6054048Y-11191476D02*
X5939762Y-11191476D01*
X5996905Y-11191476D02*
X5996905Y-10991476D01*
X5996905Y-10991476D02*
X5977857Y-11020048D01*
X5977857Y-11020048D02*
X5958810Y-11039095D01*
X5958810Y-11039095D02*
X5939762Y-11048619D01*
X6168333Y-11077190D02*
X6149286Y-11067667D01*
X6149286Y-11067667D02*
X6139762Y-11058143D01*
X6139762Y-11058143D02*
X6130238Y-11039095D01*
X6130238Y-11039095D02*
X6130238Y-11029571D01*
X6130238Y-11029571D02*
X6139762Y-11010524D01*
X6139762Y-11010524D02*
X6149286Y-11001000D01*
X6149286Y-11001000D02*
X6168333Y-10991476D01*
X6168333Y-10991476D02*
X6206429Y-10991476D01*
X6206429Y-10991476D02*
X6225476Y-11001000D01*
X6225476Y-11001000D02*
X6235000Y-11010524D01*
X6235000Y-11010524D02*
X6244524Y-11029571D01*
X6244524Y-11029571D02*
X6244524Y-11039095D01*
X6244524Y-11039095D02*
X6235000Y-11058143D01*
X6235000Y-11058143D02*
X6225476Y-11067667D01*
X6225476Y-11067667D02*
X6206429Y-11077190D01*
X6206429Y-11077190D02*
X6168333Y-11077190D01*
X6168333Y-11077190D02*
X6149286Y-11086714D01*
X6149286Y-11086714D02*
X6139762Y-11096238D01*
X6139762Y-11096238D02*
X6130238Y-11115286D01*
X6130238Y-11115286D02*
X6130238Y-11153381D01*
X6130238Y-11153381D02*
X6139762Y-11172429D01*
X6139762Y-11172429D02*
X6149286Y-11181952D01*
X6149286Y-11181952D02*
X6168333Y-11191476D01*
X6168333Y-11191476D02*
X6206429Y-11191476D01*
X6206429Y-11191476D02*
X6225476Y-11181952D01*
X6225476Y-11181952D02*
X6235000Y-11172429D01*
X6235000Y-11172429D02*
X6244524Y-11153381D01*
X6244524Y-11153381D02*
X6244524Y-11115286D01*
X6244524Y-11115286D02*
X6235000Y-11096238D01*
X6235000Y-11096238D02*
X6225476Y-11086714D01*
X6225476Y-11086714D02*
X6206429Y-11077190D01*
X6320714Y-10991476D02*
X6320714Y-11029571D01*
X6396905Y-10991476D02*
X6396905Y-11029571D01*
X6659762Y-11267667D02*
X6650238Y-11258143D01*
X6650238Y-11258143D02*
X6631191Y-11229571D01*
X6631191Y-11229571D02*
X6621667Y-11210524D01*
X6621667Y-11210524D02*
X6612143Y-11181952D01*
X6612143Y-11181952D02*
X6602619Y-11134333D01*
X6602619Y-11134333D02*
X6602619Y-11096238D01*
X6602619Y-11096238D02*
X6612143Y-11048619D01*
X6612143Y-11048619D02*
X6621667Y-11020048D01*
X6621667Y-11020048D02*
X6631191Y-11001000D01*
X6631191Y-11001000D02*
X6650238Y-10972429D01*
X6650238Y-10972429D02*
X6659762Y-10962905D01*
X6840714Y-11191476D02*
X6726429Y-11191476D01*
X6783571Y-11191476D02*
X6783571Y-10991476D01*
X6783571Y-10991476D02*
X6764524Y-11020048D01*
X6764524Y-11020048D02*
X6745476Y-11039095D01*
X6745476Y-11039095D02*
X6726429Y-11048619D01*
X7012143Y-11058143D02*
X7012143Y-11191476D01*
X6964524Y-10981952D02*
X6916905Y-11124810D01*
X6916905Y-11124810D02*
X7040714Y-11124810D01*
X7097857Y-10991476D02*
X7221667Y-10991476D01*
X7221667Y-10991476D02*
X7155000Y-11067667D01*
X7155000Y-11067667D02*
X7183572Y-11067667D01*
X7183572Y-11067667D02*
X7202619Y-11077190D01*
X7202619Y-11077190D02*
X7212143Y-11086714D01*
X7212143Y-11086714D02*
X7221667Y-11105762D01*
X7221667Y-11105762D02*
X7221667Y-11153381D01*
X7221667Y-11153381D02*
X7212143Y-11172429D01*
X7212143Y-11172429D02*
X7202619Y-11181952D01*
X7202619Y-11181952D02*
X7183572Y-11191476D01*
X7183572Y-11191476D02*
X7126429Y-11191476D01*
X7126429Y-11191476D02*
X7107381Y-11181952D01*
X7107381Y-11181952D02*
X7097857Y-11172429D01*
X7427381Y-11191476D02*
X7427381Y-10991476D01*
X7513095Y-11191476D02*
X7513095Y-11086714D01*
X7513095Y-11086714D02*
X7503572Y-11067667D01*
X7503572Y-11067667D02*
X7484524Y-11058143D01*
X7484524Y-11058143D02*
X7455952Y-11058143D01*
X7455952Y-11058143D02*
X7436905Y-11067667D01*
X7436905Y-11067667D02*
X7427381Y-11077190D01*
X7636905Y-11191476D02*
X7617857Y-11181952D01*
X7617857Y-11181952D02*
X7608333Y-11172429D01*
X7608333Y-11172429D02*
X7598810Y-11153381D01*
X7598810Y-11153381D02*
X7598810Y-11096238D01*
X7598810Y-11096238D02*
X7608333Y-11077190D01*
X7608333Y-11077190D02*
X7617857Y-11067667D01*
X7617857Y-11067667D02*
X7636905Y-11058143D01*
X7636905Y-11058143D02*
X7665476Y-11058143D01*
X7665476Y-11058143D02*
X7684524Y-11067667D01*
X7684524Y-11067667D02*
X7694048Y-11077190D01*
X7694048Y-11077190D02*
X7703572Y-11096238D01*
X7703572Y-11096238D02*
X7703572Y-11153381D01*
X7703572Y-11153381D02*
X7694048Y-11172429D01*
X7694048Y-11172429D02*
X7684524Y-11181952D01*
X7684524Y-11181952D02*
X7665476Y-11191476D01*
X7665476Y-11191476D02*
X7636905Y-11191476D01*
X7817857Y-11191476D02*
X7798810Y-11181952D01*
X7798810Y-11181952D02*
X7789286Y-11162905D01*
X7789286Y-11162905D02*
X7789286Y-10991476D01*
X7970238Y-11181952D02*
X7951191Y-11191476D01*
X7951191Y-11191476D02*
X7913095Y-11191476D01*
X7913095Y-11191476D02*
X7894048Y-11181952D01*
X7894048Y-11181952D02*
X7884524Y-11162905D01*
X7884524Y-11162905D02*
X7884524Y-11086714D01*
X7884524Y-11086714D02*
X7894048Y-11067667D01*
X7894048Y-11067667D02*
X7913095Y-11058143D01*
X7913095Y-11058143D02*
X7951191Y-11058143D01*
X7951191Y-11058143D02*
X7970238Y-11067667D01*
X7970238Y-11067667D02*
X7979762Y-11086714D01*
X7979762Y-11086714D02*
X7979762Y-11105762D01*
X7979762Y-11105762D02*
X7884524Y-11124810D01*
X8055953Y-11181952D02*
X8075000Y-11191476D01*
X8075000Y-11191476D02*
X8113095Y-11191476D01*
X8113095Y-11191476D02*
X8132143Y-11181952D01*
X8132143Y-11181952D02*
X8141667Y-11162905D01*
X8141667Y-11162905D02*
X8141667Y-11153381D01*
X8141667Y-11153381D02*
X8132143Y-11134333D01*
X8132143Y-11134333D02*
X8113095Y-11124810D01*
X8113095Y-11124810D02*
X8084524Y-11124810D01*
X8084524Y-11124810D02*
X8065476Y-11115286D01*
X8065476Y-11115286D02*
X8055953Y-11096238D01*
X8055953Y-11096238D02*
X8055953Y-11086714D01*
X8055953Y-11086714D02*
X8065476Y-11067667D01*
X8065476Y-11067667D02*
X8084524Y-11058143D01*
X8084524Y-11058143D02*
X8113095Y-11058143D01*
X8113095Y-11058143D02*
X8132143Y-11067667D01*
X8208334Y-11267667D02*
X8217857Y-11258143D01*
X8217857Y-11258143D02*
X8236905Y-11229571D01*
X8236905Y-11229571D02*
X8246429Y-11210524D01*
X8246429Y-11210524D02*
X8255953Y-11181952D01*
X8255953Y-11181952D02*
X8265476Y-11134333D01*
X8265476Y-11134333D02*
X8265476Y-11096238D01*
X8265476Y-11096238D02*
X8255953Y-11048619D01*
X8255953Y-11048619D02*
X8246429Y-11020048D01*
X8246429Y-11020048D02*
X8236905Y-11001000D01*
X8236905Y-11001000D02*
X8217857Y-10972429D01*
X8217857Y-10972429D02*
X8208334Y-10962905D01*
D14*
X3175000Y-11362000D02*
X3175000Y-11402000D01*
X3155000Y-11382000D02*
X3195000Y-11382000D01*
D11*
X3480714Y-11255476D02*
X3499762Y-11255476D01*
X3499762Y-11255476D02*
X3518809Y-11265000D01*
X3518809Y-11265000D02*
X3528333Y-11274524D01*
X3528333Y-11274524D02*
X3537857Y-11293571D01*
X3537857Y-11293571D02*
X3547381Y-11331667D01*
X3547381Y-11331667D02*
X3547381Y-11379286D01*
X3547381Y-11379286D02*
X3537857Y-11417381D01*
X3537857Y-11417381D02*
X3528333Y-11436428D01*
X3528333Y-11436428D02*
X3518809Y-11445952D01*
X3518809Y-11445952D02*
X3499762Y-11455476D01*
X3499762Y-11455476D02*
X3480714Y-11455476D01*
X3480714Y-11455476D02*
X3461667Y-11445952D01*
X3461667Y-11445952D02*
X3452143Y-11436428D01*
X3452143Y-11436428D02*
X3442619Y-11417381D01*
X3442619Y-11417381D02*
X3433095Y-11379286D01*
X3433095Y-11379286D02*
X3433095Y-11331667D01*
X3433095Y-11331667D02*
X3442619Y-11293571D01*
X3442619Y-11293571D02*
X3452143Y-11274524D01*
X3452143Y-11274524D02*
X3461667Y-11265000D01*
X3461667Y-11265000D02*
X3480714Y-11255476D01*
X3633095Y-11436428D02*
X3642619Y-11445952D01*
X3642619Y-11445952D02*
X3633095Y-11455476D01*
X3633095Y-11455476D02*
X3623571Y-11445952D01*
X3623571Y-11445952D02*
X3633095Y-11436428D01*
X3633095Y-11436428D02*
X3633095Y-11455476D01*
X3814048Y-11322143D02*
X3814048Y-11455476D01*
X3766428Y-11245952D02*
X3718809Y-11388809D01*
X3718809Y-11388809D02*
X3842619Y-11388809D01*
X3956905Y-11255476D02*
X3975952Y-11255476D01*
X3975952Y-11255476D02*
X3995000Y-11265000D01*
X3995000Y-11265000D02*
X4004524Y-11274524D01*
X4004524Y-11274524D02*
X4014048Y-11293571D01*
X4014048Y-11293571D02*
X4023571Y-11331667D01*
X4023571Y-11331667D02*
X4023571Y-11379286D01*
X4023571Y-11379286D02*
X4014048Y-11417381D01*
X4014048Y-11417381D02*
X4004524Y-11436428D01*
X4004524Y-11436428D02*
X3995000Y-11445952D01*
X3995000Y-11445952D02*
X3975952Y-11455476D01*
X3975952Y-11455476D02*
X3956905Y-11455476D01*
X3956905Y-11455476D02*
X3937857Y-11445952D01*
X3937857Y-11445952D02*
X3928333Y-11436428D01*
X3928333Y-11436428D02*
X3918809Y-11417381D01*
X3918809Y-11417381D02*
X3909286Y-11379286D01*
X3909286Y-11379286D02*
X3909286Y-11331667D01*
X3909286Y-11331667D02*
X3918809Y-11293571D01*
X3918809Y-11293571D02*
X3928333Y-11274524D01*
X3928333Y-11274524D02*
X3937857Y-11265000D01*
X3937857Y-11265000D02*
X3956905Y-11255476D01*
X4147381Y-11255476D02*
X4166429Y-11255476D01*
X4166429Y-11255476D02*
X4185476Y-11265000D01*
X4185476Y-11265000D02*
X4195000Y-11274524D01*
X4195000Y-11274524D02*
X4204524Y-11293571D01*
X4204524Y-11293571D02*
X4214048Y-11331667D01*
X4214048Y-11331667D02*
X4214048Y-11379286D01*
X4214048Y-11379286D02*
X4204524Y-11417381D01*
X4204524Y-11417381D02*
X4195000Y-11436428D01*
X4195000Y-11436428D02*
X4185476Y-11445952D01*
X4185476Y-11445952D02*
X4166429Y-11455476D01*
X4166429Y-11455476D02*
X4147381Y-11455476D01*
X4147381Y-11455476D02*
X4128333Y-11445952D01*
X4128333Y-11445952D02*
X4118809Y-11436428D01*
X4118809Y-11436428D02*
X4109286Y-11417381D01*
X4109286Y-11417381D02*
X4099762Y-11379286D01*
X4099762Y-11379286D02*
X4099762Y-11331667D01*
X4099762Y-11331667D02*
X4109286Y-11293571D01*
X4109286Y-11293571D02*
X4118809Y-11274524D01*
X4118809Y-11274524D02*
X4128333Y-11265000D01*
X4128333Y-11265000D02*
X4147381Y-11255476D01*
X4299762Y-11455476D02*
X4299762Y-11322143D01*
X4299762Y-11341190D02*
X4309286Y-11331667D01*
X4309286Y-11331667D02*
X4328333Y-11322143D01*
X4328333Y-11322143D02*
X4356905Y-11322143D01*
X4356905Y-11322143D02*
X4375952Y-11331667D01*
X4375952Y-11331667D02*
X4385476Y-11350714D01*
X4385476Y-11350714D02*
X4385476Y-11455476D01*
X4385476Y-11350714D02*
X4395000Y-11331667D01*
X4395000Y-11331667D02*
X4414048Y-11322143D01*
X4414048Y-11322143D02*
X4442619Y-11322143D01*
X4442619Y-11322143D02*
X4461667Y-11331667D01*
X4461667Y-11331667D02*
X4471191Y-11350714D01*
X4471191Y-11350714D02*
X4471191Y-11455476D01*
X4566429Y-11455476D02*
X4566429Y-11322143D01*
X4566429Y-11341190D02*
X4575952Y-11331667D01*
X4575952Y-11331667D02*
X4595000Y-11322143D01*
X4595000Y-11322143D02*
X4623572Y-11322143D01*
X4623572Y-11322143D02*
X4642619Y-11331667D01*
X4642619Y-11331667D02*
X4652143Y-11350714D01*
X4652143Y-11350714D02*
X4652143Y-11455476D01*
X4652143Y-11350714D02*
X4661667Y-11331667D01*
X4661667Y-11331667D02*
X4680714Y-11322143D01*
X4680714Y-11322143D02*
X4709286Y-11322143D01*
X4709286Y-11322143D02*
X4728333Y-11331667D01*
X4728333Y-11331667D02*
X4737857Y-11350714D01*
X4737857Y-11350714D02*
X4737857Y-11455476D01*
X5095952Y-11245952D02*
X4924524Y-11503095D01*
X5320714Y-11255476D02*
X5339762Y-11255476D01*
X5339762Y-11255476D02*
X5358810Y-11265000D01*
X5358810Y-11265000D02*
X5368333Y-11274524D01*
X5368333Y-11274524D02*
X5377857Y-11293571D01*
X5377857Y-11293571D02*
X5387381Y-11331667D01*
X5387381Y-11331667D02*
X5387381Y-11379286D01*
X5387381Y-11379286D02*
X5377857Y-11417381D01*
X5377857Y-11417381D02*
X5368333Y-11436428D01*
X5368333Y-11436428D02*
X5358810Y-11445952D01*
X5358810Y-11445952D02*
X5339762Y-11455476D01*
X5339762Y-11455476D02*
X5320714Y-11455476D01*
X5320714Y-11455476D02*
X5301667Y-11445952D01*
X5301667Y-11445952D02*
X5292143Y-11436428D01*
X5292143Y-11436428D02*
X5282619Y-11417381D01*
X5282619Y-11417381D02*
X5273095Y-11379286D01*
X5273095Y-11379286D02*
X5273095Y-11331667D01*
X5273095Y-11331667D02*
X5282619Y-11293571D01*
X5282619Y-11293571D02*
X5292143Y-11274524D01*
X5292143Y-11274524D02*
X5301667Y-11265000D01*
X5301667Y-11265000D02*
X5320714Y-11255476D01*
X5473095Y-11436428D02*
X5482619Y-11445952D01*
X5482619Y-11445952D02*
X5473095Y-11455476D01*
X5473095Y-11455476D02*
X5463572Y-11445952D01*
X5463572Y-11445952D02*
X5473095Y-11436428D01*
X5473095Y-11436428D02*
X5473095Y-11455476D01*
X5606429Y-11255476D02*
X5625476Y-11255476D01*
X5625476Y-11255476D02*
X5644524Y-11265000D01*
X5644524Y-11265000D02*
X5654048Y-11274524D01*
X5654048Y-11274524D02*
X5663571Y-11293571D01*
X5663571Y-11293571D02*
X5673095Y-11331667D01*
X5673095Y-11331667D02*
X5673095Y-11379286D01*
X5673095Y-11379286D02*
X5663571Y-11417381D01*
X5663571Y-11417381D02*
X5654048Y-11436428D01*
X5654048Y-11436428D02*
X5644524Y-11445952D01*
X5644524Y-11445952D02*
X5625476Y-11455476D01*
X5625476Y-11455476D02*
X5606429Y-11455476D01*
X5606429Y-11455476D02*
X5587381Y-11445952D01*
X5587381Y-11445952D02*
X5577857Y-11436428D01*
X5577857Y-11436428D02*
X5568333Y-11417381D01*
X5568333Y-11417381D02*
X5558810Y-11379286D01*
X5558810Y-11379286D02*
X5558810Y-11331667D01*
X5558810Y-11331667D02*
X5568333Y-11293571D01*
X5568333Y-11293571D02*
X5577857Y-11274524D01*
X5577857Y-11274524D02*
X5587381Y-11265000D01*
X5587381Y-11265000D02*
X5606429Y-11255476D01*
X5863571Y-11455476D02*
X5749286Y-11455476D01*
X5806429Y-11455476D02*
X5806429Y-11255476D01*
X5806429Y-11255476D02*
X5787381Y-11284048D01*
X5787381Y-11284048D02*
X5768333Y-11303095D01*
X5768333Y-11303095D02*
X5749286Y-11312619D01*
X6044524Y-11255476D02*
X5949286Y-11255476D01*
X5949286Y-11255476D02*
X5939762Y-11350714D01*
X5939762Y-11350714D02*
X5949286Y-11341190D01*
X5949286Y-11341190D02*
X5968333Y-11331667D01*
X5968333Y-11331667D02*
X6015952Y-11331667D01*
X6015952Y-11331667D02*
X6035000Y-11341190D01*
X6035000Y-11341190D02*
X6044524Y-11350714D01*
X6044524Y-11350714D02*
X6054048Y-11369762D01*
X6054048Y-11369762D02*
X6054048Y-11417381D01*
X6054048Y-11417381D02*
X6044524Y-11436428D01*
X6044524Y-11436428D02*
X6035000Y-11445952D01*
X6035000Y-11445952D02*
X6015952Y-11455476D01*
X6015952Y-11455476D02*
X5968333Y-11455476D01*
X5968333Y-11455476D02*
X5949286Y-11445952D01*
X5949286Y-11445952D02*
X5939762Y-11436428D01*
X6120714Y-11255476D02*
X6254048Y-11255476D01*
X6254048Y-11255476D02*
X6168333Y-11455476D01*
X6320714Y-11255476D02*
X6320714Y-11293571D01*
X6396905Y-11255476D02*
X6396905Y-11293571D01*
X6659762Y-11531667D02*
X6650238Y-11522143D01*
X6650238Y-11522143D02*
X6631191Y-11493571D01*
X6631191Y-11493571D02*
X6621667Y-11474524D01*
X6621667Y-11474524D02*
X6612143Y-11445952D01*
X6612143Y-11445952D02*
X6602619Y-11398333D01*
X6602619Y-11398333D02*
X6602619Y-11360238D01*
X6602619Y-11360238D02*
X6612143Y-11312619D01*
X6612143Y-11312619D02*
X6621667Y-11284048D01*
X6621667Y-11284048D02*
X6631191Y-11265000D01*
X6631191Y-11265000D02*
X6650238Y-11236428D01*
X6650238Y-11236428D02*
X6659762Y-11226905D01*
X6716905Y-11255476D02*
X6840714Y-11255476D01*
X6840714Y-11255476D02*
X6774048Y-11331667D01*
X6774048Y-11331667D02*
X6802619Y-11331667D01*
X6802619Y-11331667D02*
X6821667Y-11341190D01*
X6821667Y-11341190D02*
X6831191Y-11350714D01*
X6831191Y-11350714D02*
X6840714Y-11369762D01*
X6840714Y-11369762D02*
X6840714Y-11417381D01*
X6840714Y-11417381D02*
X6831191Y-11436428D01*
X6831191Y-11436428D02*
X6821667Y-11445952D01*
X6821667Y-11445952D02*
X6802619Y-11455476D01*
X6802619Y-11455476D02*
X6745476Y-11455476D01*
X6745476Y-11455476D02*
X6726429Y-11445952D01*
X6726429Y-11445952D02*
X6716905Y-11436428D01*
X7012143Y-11322143D02*
X7012143Y-11455476D01*
X6964524Y-11245952D02*
X6916905Y-11388809D01*
X6916905Y-11388809D02*
X7040714Y-11388809D01*
X7236905Y-11455476D02*
X7236905Y-11255476D01*
X7322619Y-11455476D02*
X7322619Y-11350714D01*
X7322619Y-11350714D02*
X7313095Y-11331667D01*
X7313095Y-11331667D02*
X7294048Y-11322143D01*
X7294048Y-11322143D02*
X7265476Y-11322143D01*
X7265476Y-11322143D02*
X7246429Y-11331667D01*
X7246429Y-11331667D02*
X7236905Y-11341190D01*
X7446429Y-11455476D02*
X7427381Y-11445952D01*
X7427381Y-11445952D02*
X7417857Y-11436428D01*
X7417857Y-11436428D02*
X7408333Y-11417381D01*
X7408333Y-11417381D02*
X7408333Y-11360238D01*
X7408333Y-11360238D02*
X7417857Y-11341190D01*
X7417857Y-11341190D02*
X7427381Y-11331667D01*
X7427381Y-11331667D02*
X7446429Y-11322143D01*
X7446429Y-11322143D02*
X7475000Y-11322143D01*
X7475000Y-11322143D02*
X7494048Y-11331667D01*
X7494048Y-11331667D02*
X7503572Y-11341190D01*
X7503572Y-11341190D02*
X7513095Y-11360238D01*
X7513095Y-11360238D02*
X7513095Y-11417381D01*
X7513095Y-11417381D02*
X7503572Y-11436428D01*
X7503572Y-11436428D02*
X7494048Y-11445952D01*
X7494048Y-11445952D02*
X7475000Y-11455476D01*
X7475000Y-11455476D02*
X7446429Y-11455476D01*
X7627381Y-11455476D02*
X7608333Y-11445952D01*
X7608333Y-11445952D02*
X7598810Y-11426905D01*
X7598810Y-11426905D02*
X7598810Y-11255476D01*
X7779762Y-11445952D02*
X7760714Y-11455476D01*
X7760714Y-11455476D02*
X7722619Y-11455476D01*
X7722619Y-11455476D02*
X7703572Y-11445952D01*
X7703572Y-11445952D02*
X7694048Y-11426905D01*
X7694048Y-11426905D02*
X7694048Y-11350714D01*
X7694048Y-11350714D02*
X7703572Y-11331667D01*
X7703572Y-11331667D02*
X7722619Y-11322143D01*
X7722619Y-11322143D02*
X7760714Y-11322143D01*
X7760714Y-11322143D02*
X7779762Y-11331667D01*
X7779762Y-11331667D02*
X7789286Y-11350714D01*
X7789286Y-11350714D02*
X7789286Y-11369762D01*
X7789286Y-11369762D02*
X7694048Y-11388809D01*
X7865476Y-11445952D02*
X7884524Y-11455476D01*
X7884524Y-11455476D02*
X7922619Y-11455476D01*
X7922619Y-11455476D02*
X7941667Y-11445952D01*
X7941667Y-11445952D02*
X7951191Y-11426905D01*
X7951191Y-11426905D02*
X7951191Y-11417381D01*
X7951191Y-11417381D02*
X7941667Y-11398333D01*
X7941667Y-11398333D02*
X7922619Y-11388809D01*
X7922619Y-11388809D02*
X7894048Y-11388809D01*
X7894048Y-11388809D02*
X7875000Y-11379286D01*
X7875000Y-11379286D02*
X7865476Y-11360238D01*
X7865476Y-11360238D02*
X7865476Y-11350714D01*
X7865476Y-11350714D02*
X7875000Y-11331667D01*
X7875000Y-11331667D02*
X7894048Y-11322143D01*
X7894048Y-11322143D02*
X7922619Y-11322143D01*
X7922619Y-11322143D02*
X7941667Y-11331667D01*
X8017857Y-11531667D02*
X8027381Y-11522143D01*
X8027381Y-11522143D02*
X8046429Y-11493571D01*
X8046429Y-11493571D02*
X8055953Y-11474524D01*
X8055953Y-11474524D02*
X8065476Y-11445952D01*
X8065476Y-11445952D02*
X8075000Y-11398333D01*
X8075000Y-11398333D02*
X8075000Y-11360238D01*
X8075000Y-11360238D02*
X8065476Y-11312619D01*
X8065476Y-11312619D02*
X8055953Y-11284048D01*
X8055953Y-11284048D02*
X8046429Y-11265000D01*
X8046429Y-11265000D02*
X8027381Y-11236428D01*
X8027381Y-11236428D02*
X8017857Y-11226905D01*
D15*
X3186213Y-11667213D02*
X3186213Y-11624787D01*
X3143787Y-11624787D01*
X3143787Y-11667213D01*
X3186213Y-11667213D01*
D11*
X3480714Y-11519476D02*
X3499762Y-11519476D01*
X3499762Y-11519476D02*
X3518809Y-11529000D01*
X3518809Y-11529000D02*
X3528333Y-11538524D01*
X3528333Y-11538524D02*
X3537857Y-11557571D01*
X3537857Y-11557571D02*
X3547381Y-11595667D01*
X3547381Y-11595667D02*
X3547381Y-11643286D01*
X3547381Y-11643286D02*
X3537857Y-11681381D01*
X3537857Y-11681381D02*
X3528333Y-11700428D01*
X3528333Y-11700428D02*
X3518809Y-11709952D01*
X3518809Y-11709952D02*
X3499762Y-11719476D01*
X3499762Y-11719476D02*
X3480714Y-11719476D01*
X3480714Y-11719476D02*
X3461667Y-11709952D01*
X3461667Y-11709952D02*
X3452143Y-11700428D01*
X3452143Y-11700428D02*
X3442619Y-11681381D01*
X3442619Y-11681381D02*
X3433095Y-11643286D01*
X3433095Y-11643286D02*
X3433095Y-11595667D01*
X3433095Y-11595667D02*
X3442619Y-11557571D01*
X3442619Y-11557571D02*
X3452143Y-11538524D01*
X3452143Y-11538524D02*
X3461667Y-11529000D01*
X3461667Y-11529000D02*
X3480714Y-11519476D01*
X3633095Y-11700428D02*
X3642619Y-11709952D01*
X3642619Y-11709952D02*
X3633095Y-11719476D01*
X3633095Y-11719476D02*
X3623571Y-11709952D01*
X3623571Y-11709952D02*
X3633095Y-11700428D01*
X3633095Y-11700428D02*
X3633095Y-11719476D01*
X3814048Y-11519476D02*
X3775952Y-11519476D01*
X3775952Y-11519476D02*
X3756905Y-11529000D01*
X3756905Y-11529000D02*
X3747381Y-11538524D01*
X3747381Y-11538524D02*
X3728333Y-11567095D01*
X3728333Y-11567095D02*
X3718809Y-11605190D01*
X3718809Y-11605190D02*
X3718809Y-11681381D01*
X3718809Y-11681381D02*
X3728333Y-11700428D01*
X3728333Y-11700428D02*
X3737857Y-11709952D01*
X3737857Y-11709952D02*
X3756905Y-11719476D01*
X3756905Y-11719476D02*
X3795000Y-11719476D01*
X3795000Y-11719476D02*
X3814048Y-11709952D01*
X3814048Y-11709952D02*
X3823571Y-11700428D01*
X3823571Y-11700428D02*
X3833095Y-11681381D01*
X3833095Y-11681381D02*
X3833095Y-11633762D01*
X3833095Y-11633762D02*
X3823571Y-11614714D01*
X3823571Y-11614714D02*
X3814048Y-11605190D01*
X3814048Y-11605190D02*
X3795000Y-11595667D01*
X3795000Y-11595667D02*
X3756905Y-11595667D01*
X3756905Y-11595667D02*
X3737857Y-11605190D01*
X3737857Y-11605190D02*
X3728333Y-11614714D01*
X3728333Y-11614714D02*
X3718809Y-11633762D01*
X3956905Y-11519476D02*
X3975952Y-11519476D01*
X3975952Y-11519476D02*
X3995000Y-11529000D01*
X3995000Y-11529000D02*
X4004524Y-11538524D01*
X4004524Y-11538524D02*
X4014048Y-11557571D01*
X4014048Y-11557571D02*
X4023571Y-11595667D01*
X4023571Y-11595667D02*
X4023571Y-11643286D01*
X4023571Y-11643286D02*
X4014048Y-11681381D01*
X4014048Y-11681381D02*
X4004524Y-11700428D01*
X4004524Y-11700428D02*
X3995000Y-11709952D01*
X3995000Y-11709952D02*
X3975952Y-11719476D01*
X3975952Y-11719476D02*
X3956905Y-11719476D01*
X3956905Y-11719476D02*
X3937857Y-11709952D01*
X3937857Y-11709952D02*
X3928333Y-11700428D01*
X3928333Y-11700428D02*
X3918809Y-11681381D01*
X3918809Y-11681381D02*
X3909286Y-11643286D01*
X3909286Y-11643286D02*
X3909286Y-11595667D01*
X3909286Y-11595667D02*
X3918809Y-11557571D01*
X3918809Y-11557571D02*
X3928333Y-11538524D01*
X3928333Y-11538524D02*
X3937857Y-11529000D01*
X3937857Y-11529000D02*
X3956905Y-11519476D01*
X4147381Y-11519476D02*
X4166429Y-11519476D01*
X4166429Y-11519476D02*
X4185476Y-11529000D01*
X4185476Y-11529000D02*
X4195000Y-11538524D01*
X4195000Y-11538524D02*
X4204524Y-11557571D01*
X4204524Y-11557571D02*
X4214048Y-11595667D01*
X4214048Y-11595667D02*
X4214048Y-11643286D01*
X4214048Y-11643286D02*
X4204524Y-11681381D01*
X4204524Y-11681381D02*
X4195000Y-11700428D01*
X4195000Y-11700428D02*
X4185476Y-11709952D01*
X4185476Y-11709952D02*
X4166429Y-11719476D01*
X4166429Y-11719476D02*
X4147381Y-11719476D01*
X4147381Y-11719476D02*
X4128333Y-11709952D01*
X4128333Y-11709952D02*
X4118809Y-11700428D01*
X4118809Y-11700428D02*
X4109286Y-11681381D01*
X4109286Y-11681381D02*
X4099762Y-11643286D01*
X4099762Y-11643286D02*
X4099762Y-11595667D01*
X4099762Y-11595667D02*
X4109286Y-11557571D01*
X4109286Y-11557571D02*
X4118809Y-11538524D01*
X4118809Y-11538524D02*
X4128333Y-11529000D01*
X4128333Y-11529000D02*
X4147381Y-11519476D01*
X4299762Y-11719476D02*
X4299762Y-11586143D01*
X4299762Y-11605190D02*
X4309286Y-11595667D01*
X4309286Y-11595667D02*
X4328333Y-11586143D01*
X4328333Y-11586143D02*
X4356905Y-11586143D01*
X4356905Y-11586143D02*
X4375952Y-11595667D01*
X4375952Y-11595667D02*
X4385476Y-11614714D01*
X4385476Y-11614714D02*
X4385476Y-11719476D01*
X4385476Y-11614714D02*
X4395000Y-11595667D01*
X4395000Y-11595667D02*
X4414048Y-11586143D01*
X4414048Y-11586143D02*
X4442619Y-11586143D01*
X4442619Y-11586143D02*
X4461667Y-11595667D01*
X4461667Y-11595667D02*
X4471191Y-11614714D01*
X4471191Y-11614714D02*
X4471191Y-11719476D01*
X4566429Y-11719476D02*
X4566429Y-11586143D01*
X4566429Y-11605190D02*
X4575952Y-11595667D01*
X4575952Y-11595667D02*
X4595000Y-11586143D01*
X4595000Y-11586143D02*
X4623572Y-11586143D01*
X4623572Y-11586143D02*
X4642619Y-11595667D01*
X4642619Y-11595667D02*
X4652143Y-11614714D01*
X4652143Y-11614714D02*
X4652143Y-11719476D01*
X4652143Y-11614714D02*
X4661667Y-11595667D01*
X4661667Y-11595667D02*
X4680714Y-11586143D01*
X4680714Y-11586143D02*
X4709286Y-11586143D01*
X4709286Y-11586143D02*
X4728333Y-11595667D01*
X4728333Y-11595667D02*
X4737857Y-11614714D01*
X4737857Y-11614714D02*
X4737857Y-11719476D01*
X5095952Y-11509952D02*
X4924524Y-11767095D01*
X5320714Y-11519476D02*
X5339762Y-11519476D01*
X5339762Y-11519476D02*
X5358810Y-11529000D01*
X5358810Y-11529000D02*
X5368333Y-11538524D01*
X5368333Y-11538524D02*
X5377857Y-11557571D01*
X5377857Y-11557571D02*
X5387381Y-11595667D01*
X5387381Y-11595667D02*
X5387381Y-11643286D01*
X5387381Y-11643286D02*
X5377857Y-11681381D01*
X5377857Y-11681381D02*
X5368333Y-11700428D01*
X5368333Y-11700428D02*
X5358810Y-11709952D01*
X5358810Y-11709952D02*
X5339762Y-11719476D01*
X5339762Y-11719476D02*
X5320714Y-11719476D01*
X5320714Y-11719476D02*
X5301667Y-11709952D01*
X5301667Y-11709952D02*
X5292143Y-11700428D01*
X5292143Y-11700428D02*
X5282619Y-11681381D01*
X5282619Y-11681381D02*
X5273095Y-11643286D01*
X5273095Y-11643286D02*
X5273095Y-11595667D01*
X5273095Y-11595667D02*
X5282619Y-11557571D01*
X5282619Y-11557571D02*
X5292143Y-11538524D01*
X5292143Y-11538524D02*
X5301667Y-11529000D01*
X5301667Y-11529000D02*
X5320714Y-11519476D01*
X5473095Y-11700428D02*
X5482619Y-11709952D01*
X5482619Y-11709952D02*
X5473095Y-11719476D01*
X5473095Y-11719476D02*
X5463572Y-11709952D01*
X5463572Y-11709952D02*
X5473095Y-11700428D01*
X5473095Y-11700428D02*
X5473095Y-11719476D01*
X5606429Y-11519476D02*
X5625476Y-11519476D01*
X5625476Y-11519476D02*
X5644524Y-11529000D01*
X5644524Y-11529000D02*
X5654048Y-11538524D01*
X5654048Y-11538524D02*
X5663571Y-11557571D01*
X5663571Y-11557571D02*
X5673095Y-11595667D01*
X5673095Y-11595667D02*
X5673095Y-11643286D01*
X5673095Y-11643286D02*
X5663571Y-11681381D01*
X5663571Y-11681381D02*
X5654048Y-11700428D01*
X5654048Y-11700428D02*
X5644524Y-11709952D01*
X5644524Y-11709952D02*
X5625476Y-11719476D01*
X5625476Y-11719476D02*
X5606429Y-11719476D01*
X5606429Y-11719476D02*
X5587381Y-11709952D01*
X5587381Y-11709952D02*
X5577857Y-11700428D01*
X5577857Y-11700428D02*
X5568333Y-11681381D01*
X5568333Y-11681381D02*
X5558810Y-11643286D01*
X5558810Y-11643286D02*
X5558810Y-11595667D01*
X5558810Y-11595667D02*
X5568333Y-11557571D01*
X5568333Y-11557571D02*
X5577857Y-11538524D01*
X5577857Y-11538524D02*
X5587381Y-11529000D01*
X5587381Y-11529000D02*
X5606429Y-11519476D01*
X5749286Y-11538524D02*
X5758810Y-11529000D01*
X5758810Y-11529000D02*
X5777857Y-11519476D01*
X5777857Y-11519476D02*
X5825476Y-11519476D01*
X5825476Y-11519476D02*
X5844524Y-11529000D01*
X5844524Y-11529000D02*
X5854048Y-11538524D01*
X5854048Y-11538524D02*
X5863571Y-11557571D01*
X5863571Y-11557571D02*
X5863571Y-11576619D01*
X5863571Y-11576619D02*
X5854048Y-11605190D01*
X5854048Y-11605190D02*
X5739762Y-11719476D01*
X5739762Y-11719476D02*
X5863571Y-11719476D01*
X5930238Y-11519476D02*
X6054048Y-11519476D01*
X6054048Y-11519476D02*
X5987381Y-11595667D01*
X5987381Y-11595667D02*
X6015952Y-11595667D01*
X6015952Y-11595667D02*
X6035000Y-11605190D01*
X6035000Y-11605190D02*
X6044524Y-11614714D01*
X6044524Y-11614714D02*
X6054048Y-11633762D01*
X6054048Y-11633762D02*
X6054048Y-11681381D01*
X6054048Y-11681381D02*
X6044524Y-11700428D01*
X6044524Y-11700428D02*
X6035000Y-11709952D01*
X6035000Y-11709952D02*
X6015952Y-11719476D01*
X6015952Y-11719476D02*
X5958810Y-11719476D01*
X5958810Y-11719476D02*
X5939762Y-11709952D01*
X5939762Y-11709952D02*
X5930238Y-11700428D01*
X6225476Y-11519476D02*
X6187381Y-11519476D01*
X6187381Y-11519476D02*
X6168333Y-11529000D01*
X6168333Y-11529000D02*
X6158810Y-11538524D01*
X6158810Y-11538524D02*
X6139762Y-11567095D01*
X6139762Y-11567095D02*
X6130238Y-11605190D01*
X6130238Y-11605190D02*
X6130238Y-11681381D01*
X6130238Y-11681381D02*
X6139762Y-11700428D01*
X6139762Y-11700428D02*
X6149286Y-11709952D01*
X6149286Y-11709952D02*
X6168333Y-11719476D01*
X6168333Y-11719476D02*
X6206429Y-11719476D01*
X6206429Y-11719476D02*
X6225476Y-11709952D01*
X6225476Y-11709952D02*
X6235000Y-11700428D01*
X6235000Y-11700428D02*
X6244524Y-11681381D01*
X6244524Y-11681381D02*
X6244524Y-11633762D01*
X6244524Y-11633762D02*
X6235000Y-11614714D01*
X6235000Y-11614714D02*
X6225476Y-11605190D01*
X6225476Y-11605190D02*
X6206429Y-11595667D01*
X6206429Y-11595667D02*
X6168333Y-11595667D01*
X6168333Y-11595667D02*
X6149286Y-11605190D01*
X6149286Y-11605190D02*
X6139762Y-11614714D01*
X6139762Y-11614714D02*
X6130238Y-11633762D01*
X6320714Y-11519476D02*
X6320714Y-11557571D01*
X6396905Y-11519476D02*
X6396905Y-11557571D01*
X6659762Y-11795667D02*
X6650238Y-11786143D01*
X6650238Y-11786143D02*
X6631191Y-11757571D01*
X6631191Y-11757571D02*
X6621667Y-11738524D01*
X6621667Y-11738524D02*
X6612143Y-11709952D01*
X6612143Y-11709952D02*
X6602619Y-11662333D01*
X6602619Y-11662333D02*
X6602619Y-11624238D01*
X6602619Y-11624238D02*
X6612143Y-11576619D01*
X6612143Y-11576619D02*
X6621667Y-11548048D01*
X6621667Y-11548048D02*
X6631191Y-11529000D01*
X6631191Y-11529000D02*
X6650238Y-11500428D01*
X6650238Y-11500428D02*
X6659762Y-11490905D01*
X6774048Y-11519476D02*
X6793095Y-11519476D01*
X6793095Y-11519476D02*
X6812143Y-11529000D01*
X6812143Y-11529000D02*
X6821667Y-11538524D01*
X6821667Y-11538524D02*
X6831191Y-11557571D01*
X6831191Y-11557571D02*
X6840714Y-11595667D01*
X6840714Y-11595667D02*
X6840714Y-11643286D01*
X6840714Y-11643286D02*
X6831191Y-11681381D01*
X6831191Y-11681381D02*
X6821667Y-11700428D01*
X6821667Y-11700428D02*
X6812143Y-11709952D01*
X6812143Y-11709952D02*
X6793095Y-11719476D01*
X6793095Y-11719476D02*
X6774048Y-11719476D01*
X6774048Y-11719476D02*
X6755000Y-11709952D01*
X6755000Y-11709952D02*
X6745476Y-11700428D01*
X6745476Y-11700428D02*
X6735952Y-11681381D01*
X6735952Y-11681381D02*
X6726429Y-11643286D01*
X6726429Y-11643286D02*
X6726429Y-11595667D01*
X6726429Y-11595667D02*
X6735952Y-11557571D01*
X6735952Y-11557571D02*
X6745476Y-11538524D01*
X6745476Y-11538524D02*
X6755000Y-11529000D01*
X6755000Y-11529000D02*
X6774048Y-11519476D01*
X7046429Y-11719476D02*
X7046429Y-11519476D01*
X7132143Y-11719476D02*
X7132143Y-11614714D01*
X7132143Y-11614714D02*
X7122619Y-11595667D01*
X7122619Y-11595667D02*
X7103572Y-11586143D01*
X7103572Y-11586143D02*
X7075000Y-11586143D01*
X7075000Y-11586143D02*
X7055952Y-11595667D01*
X7055952Y-11595667D02*
X7046429Y-11605190D01*
X7255952Y-11719476D02*
X7236905Y-11709952D01*
X7236905Y-11709952D02*
X7227381Y-11700428D01*
X7227381Y-11700428D02*
X7217857Y-11681381D01*
X7217857Y-11681381D02*
X7217857Y-11624238D01*
X7217857Y-11624238D02*
X7227381Y-11605190D01*
X7227381Y-11605190D02*
X7236905Y-11595667D01*
X7236905Y-11595667D02*
X7255952Y-11586143D01*
X7255952Y-11586143D02*
X7284524Y-11586143D01*
X7284524Y-11586143D02*
X7303572Y-11595667D01*
X7303572Y-11595667D02*
X7313095Y-11605190D01*
X7313095Y-11605190D02*
X7322619Y-11624238D01*
X7322619Y-11624238D02*
X7322619Y-11681381D01*
X7322619Y-11681381D02*
X7313095Y-11700428D01*
X7313095Y-11700428D02*
X7303572Y-11709952D01*
X7303572Y-11709952D02*
X7284524Y-11719476D01*
X7284524Y-11719476D02*
X7255952Y-11719476D01*
X7436905Y-11719476D02*
X7417857Y-11709952D01*
X7417857Y-11709952D02*
X7408333Y-11690905D01*
X7408333Y-11690905D02*
X7408333Y-11519476D01*
X7589286Y-11709952D02*
X7570238Y-11719476D01*
X7570238Y-11719476D02*
X7532143Y-11719476D01*
X7532143Y-11719476D02*
X7513095Y-11709952D01*
X7513095Y-11709952D02*
X7503572Y-11690905D01*
X7503572Y-11690905D02*
X7503572Y-11614714D01*
X7503572Y-11614714D02*
X7513095Y-11595667D01*
X7513095Y-11595667D02*
X7532143Y-11586143D01*
X7532143Y-11586143D02*
X7570238Y-11586143D01*
X7570238Y-11586143D02*
X7589286Y-11595667D01*
X7589286Y-11595667D02*
X7598810Y-11614714D01*
X7598810Y-11614714D02*
X7598810Y-11633762D01*
X7598810Y-11633762D02*
X7503572Y-11652809D01*
X7675000Y-11709952D02*
X7694048Y-11719476D01*
X7694048Y-11719476D02*
X7732143Y-11719476D01*
X7732143Y-11719476D02*
X7751191Y-11709952D01*
X7751191Y-11709952D02*
X7760714Y-11690905D01*
X7760714Y-11690905D02*
X7760714Y-11681381D01*
X7760714Y-11681381D02*
X7751191Y-11662333D01*
X7751191Y-11662333D02*
X7732143Y-11652809D01*
X7732143Y-11652809D02*
X7703572Y-11652809D01*
X7703572Y-11652809D02*
X7684524Y-11643286D01*
X7684524Y-11643286D02*
X7675000Y-11624238D01*
X7675000Y-11624238D02*
X7675000Y-11614714D01*
X7675000Y-11614714D02*
X7684524Y-11595667D01*
X7684524Y-11595667D02*
X7703572Y-11586143D01*
X7703572Y-11586143D02*
X7732143Y-11586143D01*
X7732143Y-11586143D02*
X7751191Y-11595667D01*
X7966429Y-11643286D02*
X8118810Y-11643286D01*
X8042619Y-11719476D02*
X8042619Y-11567095D01*
X8419762Y-11586143D02*
X8419762Y-11719476D01*
X8372143Y-11509952D02*
X8324524Y-11652809D01*
X8324524Y-11652809D02*
X8448334Y-11652809D01*
X8635000Y-11709952D02*
X8654048Y-11719476D01*
X8654048Y-11719476D02*
X8692143Y-11719476D01*
X8692143Y-11719476D02*
X8711191Y-11709952D01*
X8711191Y-11709952D02*
X8720715Y-11690905D01*
X8720715Y-11690905D02*
X8720715Y-11681381D01*
X8720715Y-11681381D02*
X8711191Y-11662333D01*
X8711191Y-11662333D02*
X8692143Y-11652809D01*
X8692143Y-11652809D02*
X8663572Y-11652809D01*
X8663572Y-11652809D02*
X8644524Y-11643286D01*
X8644524Y-11643286D02*
X8635000Y-11624238D01*
X8635000Y-11624238D02*
X8635000Y-11614714D01*
X8635000Y-11614714D02*
X8644524Y-11595667D01*
X8644524Y-11595667D02*
X8663572Y-11586143D01*
X8663572Y-11586143D02*
X8692143Y-11586143D01*
X8692143Y-11586143D02*
X8711191Y-11595667D01*
X8835000Y-11719476D02*
X8815953Y-11709952D01*
X8815953Y-11709952D02*
X8806429Y-11690905D01*
X8806429Y-11690905D02*
X8806429Y-11519476D01*
X8939762Y-11719476D02*
X8920715Y-11709952D01*
X8920715Y-11709952D02*
X8911191Y-11700428D01*
X8911191Y-11700428D02*
X8901667Y-11681381D01*
X8901667Y-11681381D02*
X8901667Y-11624238D01*
X8901667Y-11624238D02*
X8911191Y-11605190D01*
X8911191Y-11605190D02*
X8920715Y-11595667D01*
X8920715Y-11595667D02*
X8939762Y-11586143D01*
X8939762Y-11586143D02*
X8968334Y-11586143D01*
X8968334Y-11586143D02*
X8987381Y-11595667D01*
X8987381Y-11595667D02*
X8996905Y-11605190D01*
X8996905Y-11605190D02*
X9006429Y-11624238D01*
X9006429Y-11624238D02*
X9006429Y-11681381D01*
X9006429Y-11681381D02*
X8996905Y-11700428D01*
X8996905Y-11700428D02*
X8987381Y-11709952D01*
X8987381Y-11709952D02*
X8968334Y-11719476D01*
X8968334Y-11719476D02*
X8939762Y-11719476D01*
X9063572Y-11586143D02*
X9139762Y-11586143D01*
X9092143Y-11519476D02*
X9092143Y-11690905D01*
X9092143Y-11690905D02*
X9101667Y-11709952D01*
X9101667Y-11709952D02*
X9120715Y-11719476D01*
X9120715Y-11719476D02*
X9139762Y-11719476D01*
X9196905Y-11709952D02*
X9215953Y-11719476D01*
X9215953Y-11719476D02*
X9254048Y-11719476D01*
X9254048Y-11719476D02*
X9273096Y-11709952D01*
X9273096Y-11709952D02*
X9282619Y-11690905D01*
X9282619Y-11690905D02*
X9282619Y-11681381D01*
X9282619Y-11681381D02*
X9273096Y-11662333D01*
X9273096Y-11662333D02*
X9254048Y-11652809D01*
X9254048Y-11652809D02*
X9225476Y-11652809D01*
X9225476Y-11652809D02*
X9206429Y-11643286D01*
X9206429Y-11643286D02*
X9196905Y-11624238D01*
X9196905Y-11624238D02*
X9196905Y-11614714D01*
X9196905Y-11614714D02*
X9206429Y-11595667D01*
X9206429Y-11595667D02*
X9225476Y-11586143D01*
X9225476Y-11586143D02*
X9254048Y-11586143D01*
X9254048Y-11586143D02*
X9273096Y-11595667D01*
X9349286Y-11795667D02*
X9358810Y-11786143D01*
X9358810Y-11786143D02*
X9377857Y-11757571D01*
X9377857Y-11757571D02*
X9387381Y-11738524D01*
X9387381Y-11738524D02*
X9396905Y-11709952D01*
X9396905Y-11709952D02*
X9406429Y-11662333D01*
X9406429Y-11662333D02*
X9406429Y-11624238D01*
X9406429Y-11624238D02*
X9396905Y-11576619D01*
X9396905Y-11576619D02*
X9387381Y-11548048D01*
X9387381Y-11548048D02*
X9377857Y-11529000D01*
X9377857Y-11529000D02*
X9358810Y-11500428D01*
X9358810Y-11500428D02*
X9349286Y-11490905D01*
D10*
X3145000Y-11960000D02*
X3195000Y-11910000D01*
X3145000Y-11860000D01*
X3095000Y-11910000D01*
X3145000Y-11960000D01*
D11*
X3547381Y-11983476D02*
X3433095Y-11983476D01*
X3490238Y-11983476D02*
X3490238Y-11783476D01*
X3490238Y-11783476D02*
X3471190Y-11812048D01*
X3471190Y-11812048D02*
X3452143Y-11831095D01*
X3452143Y-11831095D02*
X3433095Y-11840619D01*
X3633095Y-11964428D02*
X3642619Y-11973952D01*
X3642619Y-11973952D02*
X3633095Y-11983476D01*
X3633095Y-11983476D02*
X3623571Y-11973952D01*
X3623571Y-11973952D02*
X3633095Y-11964428D01*
X3633095Y-11964428D02*
X3633095Y-11983476D01*
X3766428Y-11783476D02*
X3785476Y-11783476D01*
X3785476Y-11783476D02*
X3804524Y-11793000D01*
X3804524Y-11793000D02*
X3814048Y-11802524D01*
X3814048Y-11802524D02*
X3823571Y-11821571D01*
X3823571Y-11821571D02*
X3833095Y-11859667D01*
X3833095Y-11859667D02*
X3833095Y-11907286D01*
X3833095Y-11907286D02*
X3823571Y-11945381D01*
X3823571Y-11945381D02*
X3814048Y-11964428D01*
X3814048Y-11964428D02*
X3804524Y-11973952D01*
X3804524Y-11973952D02*
X3785476Y-11983476D01*
X3785476Y-11983476D02*
X3766428Y-11983476D01*
X3766428Y-11983476D02*
X3747381Y-11973952D01*
X3747381Y-11973952D02*
X3737857Y-11964428D01*
X3737857Y-11964428D02*
X3728333Y-11945381D01*
X3728333Y-11945381D02*
X3718809Y-11907286D01*
X3718809Y-11907286D02*
X3718809Y-11859667D01*
X3718809Y-11859667D02*
X3728333Y-11821571D01*
X3728333Y-11821571D02*
X3737857Y-11802524D01*
X3737857Y-11802524D02*
X3747381Y-11793000D01*
X3747381Y-11793000D02*
X3766428Y-11783476D01*
X3956905Y-11783476D02*
X3975952Y-11783476D01*
X3975952Y-11783476D02*
X3995000Y-11793000D01*
X3995000Y-11793000D02*
X4004524Y-11802524D01*
X4004524Y-11802524D02*
X4014048Y-11821571D01*
X4014048Y-11821571D02*
X4023571Y-11859667D01*
X4023571Y-11859667D02*
X4023571Y-11907286D01*
X4023571Y-11907286D02*
X4014048Y-11945381D01*
X4014048Y-11945381D02*
X4004524Y-11964428D01*
X4004524Y-11964428D02*
X3995000Y-11973952D01*
X3995000Y-11973952D02*
X3975952Y-11983476D01*
X3975952Y-11983476D02*
X3956905Y-11983476D01*
X3956905Y-11983476D02*
X3937857Y-11973952D01*
X3937857Y-11973952D02*
X3928333Y-11964428D01*
X3928333Y-11964428D02*
X3918809Y-11945381D01*
X3918809Y-11945381D02*
X3909286Y-11907286D01*
X3909286Y-11907286D02*
X3909286Y-11859667D01*
X3909286Y-11859667D02*
X3918809Y-11821571D01*
X3918809Y-11821571D02*
X3928333Y-11802524D01*
X3928333Y-11802524D02*
X3937857Y-11793000D01*
X3937857Y-11793000D02*
X3956905Y-11783476D01*
X4147381Y-11783476D02*
X4166429Y-11783476D01*
X4166429Y-11783476D02*
X4185476Y-11793000D01*
X4185476Y-11793000D02*
X4195000Y-11802524D01*
X4195000Y-11802524D02*
X4204524Y-11821571D01*
X4204524Y-11821571D02*
X4214048Y-11859667D01*
X4214048Y-11859667D02*
X4214048Y-11907286D01*
X4214048Y-11907286D02*
X4204524Y-11945381D01*
X4204524Y-11945381D02*
X4195000Y-11964428D01*
X4195000Y-11964428D02*
X4185476Y-11973952D01*
X4185476Y-11973952D02*
X4166429Y-11983476D01*
X4166429Y-11983476D02*
X4147381Y-11983476D01*
X4147381Y-11983476D02*
X4128333Y-11973952D01*
X4128333Y-11973952D02*
X4118809Y-11964428D01*
X4118809Y-11964428D02*
X4109286Y-11945381D01*
X4109286Y-11945381D02*
X4099762Y-11907286D01*
X4099762Y-11907286D02*
X4099762Y-11859667D01*
X4099762Y-11859667D02*
X4109286Y-11821571D01*
X4109286Y-11821571D02*
X4118809Y-11802524D01*
X4118809Y-11802524D02*
X4128333Y-11793000D01*
X4128333Y-11793000D02*
X4147381Y-11783476D01*
X4299762Y-11983476D02*
X4299762Y-11850143D01*
X4299762Y-11869190D02*
X4309286Y-11859667D01*
X4309286Y-11859667D02*
X4328333Y-11850143D01*
X4328333Y-11850143D02*
X4356905Y-11850143D01*
X4356905Y-11850143D02*
X4375952Y-11859667D01*
X4375952Y-11859667D02*
X4385476Y-11878714D01*
X4385476Y-11878714D02*
X4385476Y-11983476D01*
X4385476Y-11878714D02*
X4395000Y-11859667D01*
X4395000Y-11859667D02*
X4414048Y-11850143D01*
X4414048Y-11850143D02*
X4442619Y-11850143D01*
X4442619Y-11850143D02*
X4461667Y-11859667D01*
X4461667Y-11859667D02*
X4471191Y-11878714D01*
X4471191Y-11878714D02*
X4471191Y-11983476D01*
X4566429Y-11983476D02*
X4566429Y-11850143D01*
X4566429Y-11869190D02*
X4575952Y-11859667D01*
X4575952Y-11859667D02*
X4595000Y-11850143D01*
X4595000Y-11850143D02*
X4623572Y-11850143D01*
X4623572Y-11850143D02*
X4642619Y-11859667D01*
X4642619Y-11859667D02*
X4652143Y-11878714D01*
X4652143Y-11878714D02*
X4652143Y-11983476D01*
X4652143Y-11878714D02*
X4661667Y-11859667D01*
X4661667Y-11859667D02*
X4680714Y-11850143D01*
X4680714Y-11850143D02*
X4709286Y-11850143D01*
X4709286Y-11850143D02*
X4728333Y-11859667D01*
X4728333Y-11859667D02*
X4737857Y-11878714D01*
X4737857Y-11878714D02*
X4737857Y-11983476D01*
X5095952Y-11773952D02*
X4924524Y-12031095D01*
X5320714Y-11783476D02*
X5339762Y-11783476D01*
X5339762Y-11783476D02*
X5358810Y-11793000D01*
X5358810Y-11793000D02*
X5368333Y-11802524D01*
X5368333Y-11802524D02*
X5377857Y-11821571D01*
X5377857Y-11821571D02*
X5387381Y-11859667D01*
X5387381Y-11859667D02*
X5387381Y-11907286D01*
X5387381Y-11907286D02*
X5377857Y-11945381D01*
X5377857Y-11945381D02*
X5368333Y-11964428D01*
X5368333Y-11964428D02*
X5358810Y-11973952D01*
X5358810Y-11973952D02*
X5339762Y-11983476D01*
X5339762Y-11983476D02*
X5320714Y-11983476D01*
X5320714Y-11983476D02*
X5301667Y-11973952D01*
X5301667Y-11973952D02*
X5292143Y-11964428D01*
X5292143Y-11964428D02*
X5282619Y-11945381D01*
X5282619Y-11945381D02*
X5273095Y-11907286D01*
X5273095Y-11907286D02*
X5273095Y-11859667D01*
X5273095Y-11859667D02*
X5282619Y-11821571D01*
X5282619Y-11821571D02*
X5292143Y-11802524D01*
X5292143Y-11802524D02*
X5301667Y-11793000D01*
X5301667Y-11793000D02*
X5320714Y-11783476D01*
X5473095Y-11964428D02*
X5482619Y-11973952D01*
X5482619Y-11973952D02*
X5473095Y-11983476D01*
X5473095Y-11983476D02*
X5463572Y-11973952D01*
X5463572Y-11973952D02*
X5473095Y-11964428D01*
X5473095Y-11964428D02*
X5473095Y-11983476D01*
X5606429Y-11783476D02*
X5625476Y-11783476D01*
X5625476Y-11783476D02*
X5644524Y-11793000D01*
X5644524Y-11793000D02*
X5654048Y-11802524D01*
X5654048Y-11802524D02*
X5663571Y-11821571D01*
X5663571Y-11821571D02*
X5673095Y-11859667D01*
X5673095Y-11859667D02*
X5673095Y-11907286D01*
X5673095Y-11907286D02*
X5663571Y-11945381D01*
X5663571Y-11945381D02*
X5654048Y-11964428D01*
X5654048Y-11964428D02*
X5644524Y-11973952D01*
X5644524Y-11973952D02*
X5625476Y-11983476D01*
X5625476Y-11983476D02*
X5606429Y-11983476D01*
X5606429Y-11983476D02*
X5587381Y-11973952D01*
X5587381Y-11973952D02*
X5577857Y-11964428D01*
X5577857Y-11964428D02*
X5568333Y-11945381D01*
X5568333Y-11945381D02*
X5558810Y-11907286D01*
X5558810Y-11907286D02*
X5558810Y-11859667D01*
X5558810Y-11859667D02*
X5568333Y-11821571D01*
X5568333Y-11821571D02*
X5577857Y-11802524D01*
X5577857Y-11802524D02*
X5587381Y-11793000D01*
X5587381Y-11793000D02*
X5606429Y-11783476D01*
X5739762Y-11783476D02*
X5863571Y-11783476D01*
X5863571Y-11783476D02*
X5796905Y-11859667D01*
X5796905Y-11859667D02*
X5825476Y-11859667D01*
X5825476Y-11859667D02*
X5844524Y-11869190D01*
X5844524Y-11869190D02*
X5854048Y-11878714D01*
X5854048Y-11878714D02*
X5863571Y-11897762D01*
X5863571Y-11897762D02*
X5863571Y-11945381D01*
X5863571Y-11945381D02*
X5854048Y-11964428D01*
X5854048Y-11964428D02*
X5844524Y-11973952D01*
X5844524Y-11973952D02*
X5825476Y-11983476D01*
X5825476Y-11983476D02*
X5768333Y-11983476D01*
X5768333Y-11983476D02*
X5749286Y-11973952D01*
X5749286Y-11973952D02*
X5739762Y-11964428D01*
X5958810Y-11983476D02*
X5996905Y-11983476D01*
X5996905Y-11983476D02*
X6015952Y-11973952D01*
X6015952Y-11973952D02*
X6025476Y-11964428D01*
X6025476Y-11964428D02*
X6044524Y-11935857D01*
X6044524Y-11935857D02*
X6054048Y-11897762D01*
X6054048Y-11897762D02*
X6054048Y-11821571D01*
X6054048Y-11821571D02*
X6044524Y-11802524D01*
X6044524Y-11802524D02*
X6035000Y-11793000D01*
X6035000Y-11793000D02*
X6015952Y-11783476D01*
X6015952Y-11783476D02*
X5977857Y-11783476D01*
X5977857Y-11783476D02*
X5958810Y-11793000D01*
X5958810Y-11793000D02*
X5949286Y-11802524D01*
X5949286Y-11802524D02*
X5939762Y-11821571D01*
X5939762Y-11821571D02*
X5939762Y-11869190D01*
X5939762Y-11869190D02*
X5949286Y-11888238D01*
X5949286Y-11888238D02*
X5958810Y-11897762D01*
X5958810Y-11897762D02*
X5977857Y-11907286D01*
X5977857Y-11907286D02*
X6015952Y-11907286D01*
X6015952Y-11907286D02*
X6035000Y-11897762D01*
X6035000Y-11897762D02*
X6044524Y-11888238D01*
X6044524Y-11888238D02*
X6054048Y-11869190D01*
X6225476Y-11850143D02*
X6225476Y-11983476D01*
X6177857Y-11773952D02*
X6130238Y-11916809D01*
X6130238Y-11916809D02*
X6254048Y-11916809D01*
X6320714Y-11783476D02*
X6320714Y-11821571D01*
X6396905Y-11783476D02*
X6396905Y-11821571D01*
X6659762Y-12059667D02*
X6650238Y-12050143D01*
X6650238Y-12050143D02*
X6631191Y-12021571D01*
X6631191Y-12021571D02*
X6621667Y-12002524D01*
X6621667Y-12002524D02*
X6612143Y-11973952D01*
X6612143Y-11973952D02*
X6602619Y-11926333D01*
X6602619Y-11926333D02*
X6602619Y-11888238D01*
X6602619Y-11888238D02*
X6612143Y-11840619D01*
X6612143Y-11840619D02*
X6621667Y-11812048D01*
X6621667Y-11812048D02*
X6631191Y-11793000D01*
X6631191Y-11793000D02*
X6650238Y-11764428D01*
X6650238Y-11764428D02*
X6659762Y-11754905D01*
X6840714Y-11983476D02*
X6726429Y-11983476D01*
X6783571Y-11983476D02*
X6783571Y-11783476D01*
X6783571Y-11783476D02*
X6764524Y-11812048D01*
X6764524Y-11812048D02*
X6745476Y-11831095D01*
X6745476Y-11831095D02*
X6726429Y-11840619D01*
X6916905Y-11802524D02*
X6926429Y-11793000D01*
X6926429Y-11793000D02*
X6945476Y-11783476D01*
X6945476Y-11783476D02*
X6993095Y-11783476D01*
X6993095Y-11783476D02*
X7012143Y-11793000D01*
X7012143Y-11793000D02*
X7021667Y-11802524D01*
X7021667Y-11802524D02*
X7031191Y-11821571D01*
X7031191Y-11821571D02*
X7031191Y-11840619D01*
X7031191Y-11840619D02*
X7021667Y-11869190D01*
X7021667Y-11869190D02*
X6907381Y-11983476D01*
X6907381Y-11983476D02*
X7031191Y-11983476D01*
X7236905Y-11983476D02*
X7236905Y-11783476D01*
X7322619Y-11983476D02*
X7322619Y-11878714D01*
X7322619Y-11878714D02*
X7313095Y-11859667D01*
X7313095Y-11859667D02*
X7294048Y-11850143D01*
X7294048Y-11850143D02*
X7265476Y-11850143D01*
X7265476Y-11850143D02*
X7246429Y-11859667D01*
X7246429Y-11859667D02*
X7236905Y-11869190D01*
X7446429Y-11983476D02*
X7427381Y-11973952D01*
X7427381Y-11973952D02*
X7417857Y-11964428D01*
X7417857Y-11964428D02*
X7408333Y-11945381D01*
X7408333Y-11945381D02*
X7408333Y-11888238D01*
X7408333Y-11888238D02*
X7417857Y-11869190D01*
X7417857Y-11869190D02*
X7427381Y-11859667D01*
X7427381Y-11859667D02*
X7446429Y-11850143D01*
X7446429Y-11850143D02*
X7475000Y-11850143D01*
X7475000Y-11850143D02*
X7494048Y-11859667D01*
X7494048Y-11859667D02*
X7503572Y-11869190D01*
X7503572Y-11869190D02*
X7513095Y-11888238D01*
X7513095Y-11888238D02*
X7513095Y-11945381D01*
X7513095Y-11945381D02*
X7503572Y-11964428D01*
X7503572Y-11964428D02*
X7494048Y-11973952D01*
X7494048Y-11973952D02*
X7475000Y-11983476D01*
X7475000Y-11983476D02*
X7446429Y-11983476D01*
X7627381Y-11983476D02*
X7608333Y-11973952D01*
X7608333Y-11973952D02*
X7598810Y-11954905D01*
X7598810Y-11954905D02*
X7598810Y-11783476D01*
X7779762Y-11973952D02*
X7760714Y-11983476D01*
X7760714Y-11983476D02*
X7722619Y-11983476D01*
X7722619Y-11983476D02*
X7703572Y-11973952D01*
X7703572Y-11973952D02*
X7694048Y-11954905D01*
X7694048Y-11954905D02*
X7694048Y-11878714D01*
X7694048Y-11878714D02*
X7703572Y-11859667D01*
X7703572Y-11859667D02*
X7722619Y-11850143D01*
X7722619Y-11850143D02*
X7760714Y-11850143D01*
X7760714Y-11850143D02*
X7779762Y-11859667D01*
X7779762Y-11859667D02*
X7789286Y-11878714D01*
X7789286Y-11878714D02*
X7789286Y-11897762D01*
X7789286Y-11897762D02*
X7694048Y-11916809D01*
X7865476Y-11973952D02*
X7884524Y-11983476D01*
X7884524Y-11983476D02*
X7922619Y-11983476D01*
X7922619Y-11983476D02*
X7941667Y-11973952D01*
X7941667Y-11973952D02*
X7951191Y-11954905D01*
X7951191Y-11954905D02*
X7951191Y-11945381D01*
X7951191Y-11945381D02*
X7941667Y-11926333D01*
X7941667Y-11926333D02*
X7922619Y-11916809D01*
X7922619Y-11916809D02*
X7894048Y-11916809D01*
X7894048Y-11916809D02*
X7875000Y-11907286D01*
X7875000Y-11907286D02*
X7865476Y-11888238D01*
X7865476Y-11888238D02*
X7865476Y-11878714D01*
X7865476Y-11878714D02*
X7875000Y-11859667D01*
X7875000Y-11859667D02*
X7894048Y-11850143D01*
X7894048Y-11850143D02*
X7922619Y-11850143D01*
X7922619Y-11850143D02*
X7941667Y-11859667D01*
X8017857Y-12059667D02*
X8027381Y-12050143D01*
X8027381Y-12050143D02*
X8046429Y-12021571D01*
X8046429Y-12021571D02*
X8055953Y-12002524D01*
X8055953Y-12002524D02*
X8065476Y-11973952D01*
X8065476Y-11973952D02*
X8075000Y-11926333D01*
X8075000Y-11926333D02*
X8075000Y-11888238D01*
X8075000Y-11888238D02*
X8065476Y-11840619D01*
X8065476Y-11840619D02*
X8055953Y-11812048D01*
X8055953Y-11812048D02*
X8046429Y-11793000D01*
X8046429Y-11793000D02*
X8027381Y-11764428D01*
X8027381Y-11764428D02*
X8017857Y-11754905D01*
D16*
X3075000Y-12114000D02*
X3195000Y-12234000D01*
X3195000Y-12114000D02*
X3075000Y-12234000D01*
X3195000Y-12174000D02*
G75*
G03*
X3195000Y-12174000I-60000J0D01*
G01*
D11*
X3547381Y-12247476D02*
X3433095Y-12247476D01*
X3490238Y-12247476D02*
X3490238Y-12047476D01*
X3490238Y-12047476D02*
X3471190Y-12076048D01*
X3471190Y-12076048D02*
X3452143Y-12095095D01*
X3452143Y-12095095D02*
X3433095Y-12104619D01*
X3633095Y-12228428D02*
X3642619Y-12237952D01*
X3642619Y-12237952D02*
X3633095Y-12247476D01*
X3633095Y-12247476D02*
X3623571Y-12237952D01*
X3623571Y-12237952D02*
X3633095Y-12228428D01*
X3633095Y-12228428D02*
X3633095Y-12247476D01*
X3718809Y-12066524D02*
X3728333Y-12057000D01*
X3728333Y-12057000D02*
X3747381Y-12047476D01*
X3747381Y-12047476D02*
X3795000Y-12047476D01*
X3795000Y-12047476D02*
X3814048Y-12057000D01*
X3814048Y-12057000D02*
X3823571Y-12066524D01*
X3823571Y-12066524D02*
X3833095Y-12085571D01*
X3833095Y-12085571D02*
X3833095Y-12104619D01*
X3833095Y-12104619D02*
X3823571Y-12133190D01*
X3823571Y-12133190D02*
X3709286Y-12247476D01*
X3709286Y-12247476D02*
X3833095Y-12247476D01*
X3956905Y-12047476D02*
X3975952Y-12047476D01*
X3975952Y-12047476D02*
X3995000Y-12057000D01*
X3995000Y-12057000D02*
X4004524Y-12066524D01*
X4004524Y-12066524D02*
X4014048Y-12085571D01*
X4014048Y-12085571D02*
X4023571Y-12123667D01*
X4023571Y-12123667D02*
X4023571Y-12171286D01*
X4023571Y-12171286D02*
X4014048Y-12209381D01*
X4014048Y-12209381D02*
X4004524Y-12228428D01*
X4004524Y-12228428D02*
X3995000Y-12237952D01*
X3995000Y-12237952D02*
X3975952Y-12247476D01*
X3975952Y-12247476D02*
X3956905Y-12247476D01*
X3956905Y-12247476D02*
X3937857Y-12237952D01*
X3937857Y-12237952D02*
X3928333Y-12228428D01*
X3928333Y-12228428D02*
X3918809Y-12209381D01*
X3918809Y-12209381D02*
X3909286Y-12171286D01*
X3909286Y-12171286D02*
X3909286Y-12123667D01*
X3909286Y-12123667D02*
X3918809Y-12085571D01*
X3918809Y-12085571D02*
X3928333Y-12066524D01*
X3928333Y-12066524D02*
X3937857Y-12057000D01*
X3937857Y-12057000D02*
X3956905Y-12047476D01*
X4147381Y-12047476D02*
X4166429Y-12047476D01*
X4166429Y-12047476D02*
X4185476Y-12057000D01*
X4185476Y-12057000D02*
X4195000Y-12066524D01*
X4195000Y-12066524D02*
X4204524Y-12085571D01*
X4204524Y-12085571D02*
X4214048Y-12123667D01*
X4214048Y-12123667D02*
X4214048Y-12171286D01*
X4214048Y-12171286D02*
X4204524Y-12209381D01*
X4204524Y-12209381D02*
X4195000Y-12228428D01*
X4195000Y-12228428D02*
X4185476Y-12237952D01*
X4185476Y-12237952D02*
X4166429Y-12247476D01*
X4166429Y-12247476D02*
X4147381Y-12247476D01*
X4147381Y-12247476D02*
X4128333Y-12237952D01*
X4128333Y-12237952D02*
X4118809Y-12228428D01*
X4118809Y-12228428D02*
X4109286Y-12209381D01*
X4109286Y-12209381D02*
X4099762Y-12171286D01*
X4099762Y-12171286D02*
X4099762Y-12123667D01*
X4099762Y-12123667D02*
X4109286Y-12085571D01*
X4109286Y-12085571D02*
X4118809Y-12066524D01*
X4118809Y-12066524D02*
X4128333Y-12057000D01*
X4128333Y-12057000D02*
X4147381Y-12047476D01*
X4299762Y-12247476D02*
X4299762Y-12114143D01*
X4299762Y-12133190D02*
X4309286Y-12123667D01*
X4309286Y-12123667D02*
X4328333Y-12114143D01*
X4328333Y-12114143D02*
X4356905Y-12114143D01*
X4356905Y-12114143D02*
X4375952Y-12123667D01*
X4375952Y-12123667D02*
X4385476Y-12142714D01*
X4385476Y-12142714D02*
X4385476Y-12247476D01*
X4385476Y-12142714D02*
X4395000Y-12123667D01*
X4395000Y-12123667D02*
X4414048Y-12114143D01*
X4414048Y-12114143D02*
X4442619Y-12114143D01*
X4442619Y-12114143D02*
X4461667Y-12123667D01*
X4461667Y-12123667D02*
X4471191Y-12142714D01*
X4471191Y-12142714D02*
X4471191Y-12247476D01*
X4566429Y-12247476D02*
X4566429Y-12114143D01*
X4566429Y-12133190D02*
X4575952Y-12123667D01*
X4575952Y-12123667D02*
X4595000Y-12114143D01*
X4595000Y-12114143D02*
X4623572Y-12114143D01*
X4623572Y-12114143D02*
X4642619Y-12123667D01*
X4642619Y-12123667D02*
X4652143Y-12142714D01*
X4652143Y-12142714D02*
X4652143Y-12247476D01*
X4652143Y-12142714D02*
X4661667Y-12123667D01*
X4661667Y-12123667D02*
X4680714Y-12114143D01*
X4680714Y-12114143D02*
X4709286Y-12114143D01*
X4709286Y-12114143D02*
X4728333Y-12123667D01*
X4728333Y-12123667D02*
X4737857Y-12142714D01*
X4737857Y-12142714D02*
X4737857Y-12247476D01*
X5095952Y-12037952D02*
X4924524Y-12295095D01*
X5320714Y-12047476D02*
X5339762Y-12047476D01*
X5339762Y-12047476D02*
X5358810Y-12057000D01*
X5358810Y-12057000D02*
X5368333Y-12066524D01*
X5368333Y-12066524D02*
X5377857Y-12085571D01*
X5377857Y-12085571D02*
X5387381Y-12123667D01*
X5387381Y-12123667D02*
X5387381Y-12171286D01*
X5387381Y-12171286D02*
X5377857Y-12209381D01*
X5377857Y-12209381D02*
X5368333Y-12228428D01*
X5368333Y-12228428D02*
X5358810Y-12237952D01*
X5358810Y-12237952D02*
X5339762Y-12247476D01*
X5339762Y-12247476D02*
X5320714Y-12247476D01*
X5320714Y-12247476D02*
X5301667Y-12237952D01*
X5301667Y-12237952D02*
X5292143Y-12228428D01*
X5292143Y-12228428D02*
X5282619Y-12209381D01*
X5282619Y-12209381D02*
X5273095Y-12171286D01*
X5273095Y-12171286D02*
X5273095Y-12123667D01*
X5273095Y-12123667D02*
X5282619Y-12085571D01*
X5282619Y-12085571D02*
X5292143Y-12066524D01*
X5292143Y-12066524D02*
X5301667Y-12057000D01*
X5301667Y-12057000D02*
X5320714Y-12047476D01*
X5473095Y-12228428D02*
X5482619Y-12237952D01*
X5482619Y-12237952D02*
X5473095Y-12247476D01*
X5473095Y-12247476D02*
X5463572Y-12237952D01*
X5463572Y-12237952D02*
X5473095Y-12228428D01*
X5473095Y-12228428D02*
X5473095Y-12247476D01*
X5606429Y-12047476D02*
X5625476Y-12047476D01*
X5625476Y-12047476D02*
X5644524Y-12057000D01*
X5644524Y-12057000D02*
X5654048Y-12066524D01*
X5654048Y-12066524D02*
X5663571Y-12085571D01*
X5663571Y-12085571D02*
X5673095Y-12123667D01*
X5673095Y-12123667D02*
X5673095Y-12171286D01*
X5673095Y-12171286D02*
X5663571Y-12209381D01*
X5663571Y-12209381D02*
X5654048Y-12228428D01*
X5654048Y-12228428D02*
X5644524Y-12237952D01*
X5644524Y-12237952D02*
X5625476Y-12247476D01*
X5625476Y-12247476D02*
X5606429Y-12247476D01*
X5606429Y-12247476D02*
X5587381Y-12237952D01*
X5587381Y-12237952D02*
X5577857Y-12228428D01*
X5577857Y-12228428D02*
X5568333Y-12209381D01*
X5568333Y-12209381D02*
X5558810Y-12171286D01*
X5558810Y-12171286D02*
X5558810Y-12123667D01*
X5558810Y-12123667D02*
X5568333Y-12085571D01*
X5568333Y-12085571D02*
X5577857Y-12066524D01*
X5577857Y-12066524D02*
X5587381Y-12057000D01*
X5587381Y-12057000D02*
X5606429Y-12047476D01*
X5844524Y-12114143D02*
X5844524Y-12247476D01*
X5796905Y-12037952D02*
X5749286Y-12180809D01*
X5749286Y-12180809D02*
X5873095Y-12180809D01*
X5930238Y-12047476D02*
X6063571Y-12047476D01*
X6063571Y-12047476D02*
X5977857Y-12247476D01*
X6130238Y-12066524D02*
X6139762Y-12057000D01*
X6139762Y-12057000D02*
X6158810Y-12047476D01*
X6158810Y-12047476D02*
X6206429Y-12047476D01*
X6206429Y-12047476D02*
X6225476Y-12057000D01*
X6225476Y-12057000D02*
X6235000Y-12066524D01*
X6235000Y-12066524D02*
X6244524Y-12085571D01*
X6244524Y-12085571D02*
X6244524Y-12104619D01*
X6244524Y-12104619D02*
X6235000Y-12133190D01*
X6235000Y-12133190D02*
X6120714Y-12247476D01*
X6120714Y-12247476D02*
X6244524Y-12247476D01*
X6320714Y-12047476D02*
X6320714Y-12085571D01*
X6396905Y-12047476D02*
X6396905Y-12085571D01*
X6659762Y-12323667D02*
X6650238Y-12314143D01*
X6650238Y-12314143D02*
X6631191Y-12285571D01*
X6631191Y-12285571D02*
X6621667Y-12266524D01*
X6621667Y-12266524D02*
X6612143Y-12237952D01*
X6612143Y-12237952D02*
X6602619Y-12190333D01*
X6602619Y-12190333D02*
X6602619Y-12152238D01*
X6602619Y-12152238D02*
X6612143Y-12104619D01*
X6612143Y-12104619D02*
X6621667Y-12076048D01*
X6621667Y-12076048D02*
X6631191Y-12057000D01*
X6631191Y-12057000D02*
X6650238Y-12028428D01*
X6650238Y-12028428D02*
X6659762Y-12018905D01*
X6821667Y-12047476D02*
X6783571Y-12047476D01*
X6783571Y-12047476D02*
X6764524Y-12057000D01*
X6764524Y-12057000D02*
X6755000Y-12066524D01*
X6755000Y-12066524D02*
X6735952Y-12095095D01*
X6735952Y-12095095D02*
X6726429Y-12133190D01*
X6726429Y-12133190D02*
X6726429Y-12209381D01*
X6726429Y-12209381D02*
X6735952Y-12228428D01*
X6735952Y-12228428D02*
X6745476Y-12237952D01*
X6745476Y-12237952D02*
X6764524Y-12247476D01*
X6764524Y-12247476D02*
X6802619Y-12247476D01*
X6802619Y-12247476D02*
X6821667Y-12237952D01*
X6821667Y-12237952D02*
X6831191Y-12228428D01*
X6831191Y-12228428D02*
X6840714Y-12209381D01*
X6840714Y-12209381D02*
X6840714Y-12161762D01*
X6840714Y-12161762D02*
X6831191Y-12142714D01*
X6831191Y-12142714D02*
X6821667Y-12133190D01*
X6821667Y-12133190D02*
X6802619Y-12123667D01*
X6802619Y-12123667D02*
X6764524Y-12123667D01*
X6764524Y-12123667D02*
X6745476Y-12133190D01*
X6745476Y-12133190D02*
X6735952Y-12142714D01*
X6735952Y-12142714D02*
X6726429Y-12161762D01*
X7046429Y-12247476D02*
X7046429Y-12047476D01*
X7132143Y-12247476D02*
X7132143Y-12142714D01*
X7132143Y-12142714D02*
X7122619Y-12123667D01*
X7122619Y-12123667D02*
X7103572Y-12114143D01*
X7103572Y-12114143D02*
X7075000Y-12114143D01*
X7075000Y-12114143D02*
X7055952Y-12123667D01*
X7055952Y-12123667D02*
X7046429Y-12133190D01*
X7255952Y-12247476D02*
X7236905Y-12237952D01*
X7236905Y-12237952D02*
X7227381Y-12228428D01*
X7227381Y-12228428D02*
X7217857Y-12209381D01*
X7217857Y-12209381D02*
X7217857Y-12152238D01*
X7217857Y-12152238D02*
X7227381Y-12133190D01*
X7227381Y-12133190D02*
X7236905Y-12123667D01*
X7236905Y-12123667D02*
X7255952Y-12114143D01*
X7255952Y-12114143D02*
X7284524Y-12114143D01*
X7284524Y-12114143D02*
X7303572Y-12123667D01*
X7303572Y-12123667D02*
X7313095Y-12133190D01*
X7313095Y-12133190D02*
X7322619Y-12152238D01*
X7322619Y-12152238D02*
X7322619Y-12209381D01*
X7322619Y-12209381D02*
X7313095Y-12228428D01*
X7313095Y-12228428D02*
X7303572Y-12237952D01*
X7303572Y-12237952D02*
X7284524Y-12247476D01*
X7284524Y-12247476D02*
X7255952Y-12247476D01*
X7436905Y-12247476D02*
X7417857Y-12237952D01*
X7417857Y-12237952D02*
X7408333Y-12218905D01*
X7408333Y-12218905D02*
X7408333Y-12047476D01*
X7589286Y-12237952D02*
X7570238Y-12247476D01*
X7570238Y-12247476D02*
X7532143Y-12247476D01*
X7532143Y-12247476D02*
X7513095Y-12237952D01*
X7513095Y-12237952D02*
X7503572Y-12218905D01*
X7503572Y-12218905D02*
X7503572Y-12142714D01*
X7503572Y-12142714D02*
X7513095Y-12123667D01*
X7513095Y-12123667D02*
X7532143Y-12114143D01*
X7532143Y-12114143D02*
X7570238Y-12114143D01*
X7570238Y-12114143D02*
X7589286Y-12123667D01*
X7589286Y-12123667D02*
X7598810Y-12142714D01*
X7598810Y-12142714D02*
X7598810Y-12161762D01*
X7598810Y-12161762D02*
X7503572Y-12180809D01*
X7675000Y-12237952D02*
X7694048Y-12247476D01*
X7694048Y-12247476D02*
X7732143Y-12247476D01*
X7732143Y-12247476D02*
X7751191Y-12237952D01*
X7751191Y-12237952D02*
X7760714Y-12218905D01*
X7760714Y-12218905D02*
X7760714Y-12209381D01*
X7760714Y-12209381D02*
X7751191Y-12190333D01*
X7751191Y-12190333D02*
X7732143Y-12180809D01*
X7732143Y-12180809D02*
X7703572Y-12180809D01*
X7703572Y-12180809D02*
X7684524Y-12171286D01*
X7684524Y-12171286D02*
X7675000Y-12152238D01*
X7675000Y-12152238D02*
X7675000Y-12142714D01*
X7675000Y-12142714D02*
X7684524Y-12123667D01*
X7684524Y-12123667D02*
X7703572Y-12114143D01*
X7703572Y-12114143D02*
X7732143Y-12114143D01*
X7732143Y-12114143D02*
X7751191Y-12123667D01*
X7827381Y-12323667D02*
X7836905Y-12314143D01*
X7836905Y-12314143D02*
X7855953Y-12285571D01*
X7855953Y-12285571D02*
X7865476Y-12266524D01*
X7865476Y-12266524D02*
X7875000Y-12237952D01*
X7875000Y-12237952D02*
X7884524Y-12190333D01*
X7884524Y-12190333D02*
X7884524Y-12152238D01*
X7884524Y-12152238D02*
X7875000Y-12104619D01*
X7875000Y-12104619D02*
X7865476Y-12076048D01*
X7865476Y-12076048D02*
X7855953Y-12057000D01*
X7855953Y-12057000D02*
X7836905Y-12028428D01*
X7836905Y-12028428D02*
X7827381Y-12018905D01*
D17*
X3015000Y-12348000D02*
X3195000Y-12528000D01*
X3195000Y-12348000D02*
X3015000Y-12528000D01*
X3105000Y-12348000D02*
X3105000Y-12528000D01*
X3015000Y-12438000D02*
X3195000Y-12438000D01*
D11*
X3547381Y-12511476D02*
X3433095Y-12511476D01*
X3490238Y-12511476D02*
X3490238Y-12311476D01*
X3490238Y-12311476D02*
X3471190Y-12340048D01*
X3471190Y-12340048D02*
X3452143Y-12359095D01*
X3452143Y-12359095D02*
X3433095Y-12368619D01*
X3633095Y-12492428D02*
X3642619Y-12501952D01*
X3642619Y-12501952D02*
X3633095Y-12511476D01*
X3633095Y-12511476D02*
X3623571Y-12501952D01*
X3623571Y-12501952D02*
X3633095Y-12492428D01*
X3633095Y-12492428D02*
X3633095Y-12511476D01*
X3756905Y-12397190D02*
X3737857Y-12387667D01*
X3737857Y-12387667D02*
X3728333Y-12378143D01*
X3728333Y-12378143D02*
X3718809Y-12359095D01*
X3718809Y-12359095D02*
X3718809Y-12349571D01*
X3718809Y-12349571D02*
X3728333Y-12330524D01*
X3728333Y-12330524D02*
X3737857Y-12321000D01*
X3737857Y-12321000D02*
X3756905Y-12311476D01*
X3756905Y-12311476D02*
X3795000Y-12311476D01*
X3795000Y-12311476D02*
X3814048Y-12321000D01*
X3814048Y-12321000D02*
X3823571Y-12330524D01*
X3823571Y-12330524D02*
X3833095Y-12349571D01*
X3833095Y-12349571D02*
X3833095Y-12359095D01*
X3833095Y-12359095D02*
X3823571Y-12378143D01*
X3823571Y-12378143D02*
X3814048Y-12387667D01*
X3814048Y-12387667D02*
X3795000Y-12397190D01*
X3795000Y-12397190D02*
X3756905Y-12397190D01*
X3756905Y-12397190D02*
X3737857Y-12406714D01*
X3737857Y-12406714D02*
X3728333Y-12416238D01*
X3728333Y-12416238D02*
X3718809Y-12435286D01*
X3718809Y-12435286D02*
X3718809Y-12473381D01*
X3718809Y-12473381D02*
X3728333Y-12492428D01*
X3728333Y-12492428D02*
X3737857Y-12501952D01*
X3737857Y-12501952D02*
X3756905Y-12511476D01*
X3756905Y-12511476D02*
X3795000Y-12511476D01*
X3795000Y-12511476D02*
X3814048Y-12501952D01*
X3814048Y-12501952D02*
X3823571Y-12492428D01*
X3823571Y-12492428D02*
X3833095Y-12473381D01*
X3833095Y-12473381D02*
X3833095Y-12435286D01*
X3833095Y-12435286D02*
X3823571Y-12416238D01*
X3823571Y-12416238D02*
X3814048Y-12406714D01*
X3814048Y-12406714D02*
X3795000Y-12397190D01*
X3956905Y-12311476D02*
X3975952Y-12311476D01*
X3975952Y-12311476D02*
X3995000Y-12321000D01*
X3995000Y-12321000D02*
X4004524Y-12330524D01*
X4004524Y-12330524D02*
X4014048Y-12349571D01*
X4014048Y-12349571D02*
X4023571Y-12387667D01*
X4023571Y-12387667D02*
X4023571Y-12435286D01*
X4023571Y-12435286D02*
X4014048Y-12473381D01*
X4014048Y-12473381D02*
X4004524Y-12492428D01*
X4004524Y-12492428D02*
X3995000Y-12501952D01*
X3995000Y-12501952D02*
X3975952Y-12511476D01*
X3975952Y-12511476D02*
X3956905Y-12511476D01*
X3956905Y-12511476D02*
X3937857Y-12501952D01*
X3937857Y-12501952D02*
X3928333Y-12492428D01*
X3928333Y-12492428D02*
X3918809Y-12473381D01*
X3918809Y-12473381D02*
X3909286Y-12435286D01*
X3909286Y-12435286D02*
X3909286Y-12387667D01*
X3909286Y-12387667D02*
X3918809Y-12349571D01*
X3918809Y-12349571D02*
X3928333Y-12330524D01*
X3928333Y-12330524D02*
X3937857Y-12321000D01*
X3937857Y-12321000D02*
X3956905Y-12311476D01*
X4147381Y-12311476D02*
X4166429Y-12311476D01*
X4166429Y-12311476D02*
X4185476Y-12321000D01*
X4185476Y-12321000D02*
X4195000Y-12330524D01*
X4195000Y-12330524D02*
X4204524Y-12349571D01*
X4204524Y-12349571D02*
X4214048Y-12387667D01*
X4214048Y-12387667D02*
X4214048Y-12435286D01*
X4214048Y-12435286D02*
X4204524Y-12473381D01*
X4204524Y-12473381D02*
X4195000Y-12492428D01*
X4195000Y-12492428D02*
X4185476Y-12501952D01*
X4185476Y-12501952D02*
X4166429Y-12511476D01*
X4166429Y-12511476D02*
X4147381Y-12511476D01*
X4147381Y-12511476D02*
X4128333Y-12501952D01*
X4128333Y-12501952D02*
X4118809Y-12492428D01*
X4118809Y-12492428D02*
X4109286Y-12473381D01*
X4109286Y-12473381D02*
X4099762Y-12435286D01*
X4099762Y-12435286D02*
X4099762Y-12387667D01*
X4099762Y-12387667D02*
X4109286Y-12349571D01*
X4109286Y-12349571D02*
X4118809Y-12330524D01*
X4118809Y-12330524D02*
X4128333Y-12321000D01*
X4128333Y-12321000D02*
X4147381Y-12311476D01*
X4299762Y-12511476D02*
X4299762Y-12378143D01*
X4299762Y-12397190D02*
X4309286Y-12387667D01*
X4309286Y-12387667D02*
X4328333Y-12378143D01*
X4328333Y-12378143D02*
X4356905Y-12378143D01*
X4356905Y-12378143D02*
X4375952Y-12387667D01*
X4375952Y-12387667D02*
X4385476Y-12406714D01*
X4385476Y-12406714D02*
X4385476Y-12511476D01*
X4385476Y-12406714D02*
X4395000Y-12387667D01*
X4395000Y-12387667D02*
X4414048Y-12378143D01*
X4414048Y-12378143D02*
X4442619Y-12378143D01*
X4442619Y-12378143D02*
X4461667Y-12387667D01*
X4461667Y-12387667D02*
X4471191Y-12406714D01*
X4471191Y-12406714D02*
X4471191Y-12511476D01*
X4566429Y-12511476D02*
X4566429Y-12378143D01*
X4566429Y-12397190D02*
X4575952Y-12387667D01*
X4575952Y-12387667D02*
X4595000Y-12378143D01*
X4595000Y-12378143D02*
X4623572Y-12378143D01*
X4623572Y-12378143D02*
X4642619Y-12387667D01*
X4642619Y-12387667D02*
X4652143Y-12406714D01*
X4652143Y-12406714D02*
X4652143Y-12511476D01*
X4652143Y-12406714D02*
X4661667Y-12387667D01*
X4661667Y-12387667D02*
X4680714Y-12378143D01*
X4680714Y-12378143D02*
X4709286Y-12378143D01*
X4709286Y-12378143D02*
X4728333Y-12387667D01*
X4728333Y-12387667D02*
X4737857Y-12406714D01*
X4737857Y-12406714D02*
X4737857Y-12511476D01*
X5095952Y-12301952D02*
X4924524Y-12559095D01*
X5320714Y-12311476D02*
X5339762Y-12311476D01*
X5339762Y-12311476D02*
X5358810Y-12321000D01*
X5358810Y-12321000D02*
X5368333Y-12330524D01*
X5368333Y-12330524D02*
X5377857Y-12349571D01*
X5377857Y-12349571D02*
X5387381Y-12387667D01*
X5387381Y-12387667D02*
X5387381Y-12435286D01*
X5387381Y-12435286D02*
X5377857Y-12473381D01*
X5377857Y-12473381D02*
X5368333Y-12492428D01*
X5368333Y-12492428D02*
X5358810Y-12501952D01*
X5358810Y-12501952D02*
X5339762Y-12511476D01*
X5339762Y-12511476D02*
X5320714Y-12511476D01*
X5320714Y-12511476D02*
X5301667Y-12501952D01*
X5301667Y-12501952D02*
X5292143Y-12492428D01*
X5292143Y-12492428D02*
X5282619Y-12473381D01*
X5282619Y-12473381D02*
X5273095Y-12435286D01*
X5273095Y-12435286D02*
X5273095Y-12387667D01*
X5273095Y-12387667D02*
X5282619Y-12349571D01*
X5282619Y-12349571D02*
X5292143Y-12330524D01*
X5292143Y-12330524D02*
X5301667Y-12321000D01*
X5301667Y-12321000D02*
X5320714Y-12311476D01*
X5473095Y-12492428D02*
X5482619Y-12501952D01*
X5482619Y-12501952D02*
X5473095Y-12511476D01*
X5473095Y-12511476D02*
X5463572Y-12501952D01*
X5463572Y-12501952D02*
X5473095Y-12492428D01*
X5473095Y-12492428D02*
X5473095Y-12511476D01*
X5606429Y-12311476D02*
X5625476Y-12311476D01*
X5625476Y-12311476D02*
X5644524Y-12321000D01*
X5644524Y-12321000D02*
X5654048Y-12330524D01*
X5654048Y-12330524D02*
X5663571Y-12349571D01*
X5663571Y-12349571D02*
X5673095Y-12387667D01*
X5673095Y-12387667D02*
X5673095Y-12435286D01*
X5673095Y-12435286D02*
X5663571Y-12473381D01*
X5663571Y-12473381D02*
X5654048Y-12492428D01*
X5654048Y-12492428D02*
X5644524Y-12501952D01*
X5644524Y-12501952D02*
X5625476Y-12511476D01*
X5625476Y-12511476D02*
X5606429Y-12511476D01*
X5606429Y-12511476D02*
X5587381Y-12501952D01*
X5587381Y-12501952D02*
X5577857Y-12492428D01*
X5577857Y-12492428D02*
X5568333Y-12473381D01*
X5568333Y-12473381D02*
X5558810Y-12435286D01*
X5558810Y-12435286D02*
X5558810Y-12387667D01*
X5558810Y-12387667D02*
X5568333Y-12349571D01*
X5568333Y-12349571D02*
X5577857Y-12330524D01*
X5577857Y-12330524D02*
X5587381Y-12321000D01*
X5587381Y-12321000D02*
X5606429Y-12311476D01*
X5739762Y-12311476D02*
X5873095Y-12311476D01*
X5873095Y-12311476D02*
X5787381Y-12511476D01*
X5987381Y-12311476D02*
X6006429Y-12311476D01*
X6006429Y-12311476D02*
X6025476Y-12321000D01*
X6025476Y-12321000D02*
X6035000Y-12330524D01*
X6035000Y-12330524D02*
X6044524Y-12349571D01*
X6044524Y-12349571D02*
X6054048Y-12387667D01*
X6054048Y-12387667D02*
X6054048Y-12435286D01*
X6054048Y-12435286D02*
X6044524Y-12473381D01*
X6044524Y-12473381D02*
X6035000Y-12492428D01*
X6035000Y-12492428D02*
X6025476Y-12501952D01*
X6025476Y-12501952D02*
X6006429Y-12511476D01*
X6006429Y-12511476D02*
X5987381Y-12511476D01*
X5987381Y-12511476D02*
X5968333Y-12501952D01*
X5968333Y-12501952D02*
X5958810Y-12492428D01*
X5958810Y-12492428D02*
X5949286Y-12473381D01*
X5949286Y-12473381D02*
X5939762Y-12435286D01*
X5939762Y-12435286D02*
X5939762Y-12387667D01*
X5939762Y-12387667D02*
X5949286Y-12349571D01*
X5949286Y-12349571D02*
X5958810Y-12330524D01*
X5958810Y-12330524D02*
X5968333Y-12321000D01*
X5968333Y-12321000D02*
X5987381Y-12311476D01*
X6149286Y-12511476D02*
X6187381Y-12511476D01*
X6187381Y-12511476D02*
X6206429Y-12501952D01*
X6206429Y-12501952D02*
X6215952Y-12492428D01*
X6215952Y-12492428D02*
X6235000Y-12463857D01*
X6235000Y-12463857D02*
X6244524Y-12425762D01*
X6244524Y-12425762D02*
X6244524Y-12349571D01*
X6244524Y-12349571D02*
X6235000Y-12330524D01*
X6235000Y-12330524D02*
X6225476Y-12321000D01*
X6225476Y-12321000D02*
X6206429Y-12311476D01*
X6206429Y-12311476D02*
X6168333Y-12311476D01*
X6168333Y-12311476D02*
X6149286Y-12321000D01*
X6149286Y-12321000D02*
X6139762Y-12330524D01*
X6139762Y-12330524D02*
X6130238Y-12349571D01*
X6130238Y-12349571D02*
X6130238Y-12397190D01*
X6130238Y-12397190D02*
X6139762Y-12416238D01*
X6139762Y-12416238D02*
X6149286Y-12425762D01*
X6149286Y-12425762D02*
X6168333Y-12435286D01*
X6168333Y-12435286D02*
X6206429Y-12435286D01*
X6206429Y-12435286D02*
X6225476Y-12425762D01*
X6225476Y-12425762D02*
X6235000Y-12416238D01*
X6235000Y-12416238D02*
X6244524Y-12397190D01*
X6320714Y-12311476D02*
X6320714Y-12349571D01*
X6396905Y-12311476D02*
X6396905Y-12349571D01*
X6659762Y-12587667D02*
X6650238Y-12578143D01*
X6650238Y-12578143D02*
X6631191Y-12549571D01*
X6631191Y-12549571D02*
X6621667Y-12530524D01*
X6621667Y-12530524D02*
X6612143Y-12501952D01*
X6612143Y-12501952D02*
X6602619Y-12454333D01*
X6602619Y-12454333D02*
X6602619Y-12416238D01*
X6602619Y-12416238D02*
X6612143Y-12368619D01*
X6612143Y-12368619D02*
X6621667Y-12340048D01*
X6621667Y-12340048D02*
X6631191Y-12321000D01*
X6631191Y-12321000D02*
X6650238Y-12292428D01*
X6650238Y-12292428D02*
X6659762Y-12282905D01*
X6821667Y-12311476D02*
X6783571Y-12311476D01*
X6783571Y-12311476D02*
X6764524Y-12321000D01*
X6764524Y-12321000D02*
X6755000Y-12330524D01*
X6755000Y-12330524D02*
X6735952Y-12359095D01*
X6735952Y-12359095D02*
X6726429Y-12397190D01*
X6726429Y-12397190D02*
X6726429Y-12473381D01*
X6726429Y-12473381D02*
X6735952Y-12492428D01*
X6735952Y-12492428D02*
X6745476Y-12501952D01*
X6745476Y-12501952D02*
X6764524Y-12511476D01*
X6764524Y-12511476D02*
X6802619Y-12511476D01*
X6802619Y-12511476D02*
X6821667Y-12501952D01*
X6821667Y-12501952D02*
X6831191Y-12492428D01*
X6831191Y-12492428D02*
X6840714Y-12473381D01*
X6840714Y-12473381D02*
X6840714Y-12425762D01*
X6840714Y-12425762D02*
X6831191Y-12406714D01*
X6831191Y-12406714D02*
X6821667Y-12397190D01*
X6821667Y-12397190D02*
X6802619Y-12387667D01*
X6802619Y-12387667D02*
X6764524Y-12387667D01*
X6764524Y-12387667D02*
X6745476Y-12397190D01*
X6745476Y-12397190D02*
X6735952Y-12406714D01*
X6735952Y-12406714D02*
X6726429Y-12425762D01*
X7046429Y-12511476D02*
X7046429Y-12311476D01*
X7132143Y-12511476D02*
X7132143Y-12406714D01*
X7132143Y-12406714D02*
X7122619Y-12387667D01*
X7122619Y-12387667D02*
X7103572Y-12378143D01*
X7103572Y-12378143D02*
X7075000Y-12378143D01*
X7075000Y-12378143D02*
X7055952Y-12387667D01*
X7055952Y-12387667D02*
X7046429Y-12397190D01*
X7255952Y-12511476D02*
X7236905Y-12501952D01*
X7236905Y-12501952D02*
X7227381Y-12492428D01*
X7227381Y-12492428D02*
X7217857Y-12473381D01*
X7217857Y-12473381D02*
X7217857Y-12416238D01*
X7217857Y-12416238D02*
X7227381Y-12397190D01*
X7227381Y-12397190D02*
X7236905Y-12387667D01*
X7236905Y-12387667D02*
X7255952Y-12378143D01*
X7255952Y-12378143D02*
X7284524Y-12378143D01*
X7284524Y-12378143D02*
X7303572Y-12387667D01*
X7303572Y-12387667D02*
X7313095Y-12397190D01*
X7313095Y-12397190D02*
X7322619Y-12416238D01*
X7322619Y-12416238D02*
X7322619Y-12473381D01*
X7322619Y-12473381D02*
X7313095Y-12492428D01*
X7313095Y-12492428D02*
X7303572Y-12501952D01*
X7303572Y-12501952D02*
X7284524Y-12511476D01*
X7284524Y-12511476D02*
X7255952Y-12511476D01*
X7436905Y-12511476D02*
X7417857Y-12501952D01*
X7417857Y-12501952D02*
X7408333Y-12482905D01*
X7408333Y-12482905D02*
X7408333Y-12311476D01*
X7589286Y-12501952D02*
X7570238Y-12511476D01*
X7570238Y-12511476D02*
X7532143Y-12511476D01*
X7532143Y-12511476D02*
X7513095Y-12501952D01*
X7513095Y-12501952D02*
X7503572Y-12482905D01*
X7503572Y-12482905D02*
X7503572Y-12406714D01*
X7503572Y-12406714D02*
X7513095Y-12387667D01*
X7513095Y-12387667D02*
X7532143Y-12378143D01*
X7532143Y-12378143D02*
X7570238Y-12378143D01*
X7570238Y-12378143D02*
X7589286Y-12387667D01*
X7589286Y-12387667D02*
X7598810Y-12406714D01*
X7598810Y-12406714D02*
X7598810Y-12425762D01*
X7598810Y-12425762D02*
X7503572Y-12444809D01*
X7675000Y-12501952D02*
X7694048Y-12511476D01*
X7694048Y-12511476D02*
X7732143Y-12511476D01*
X7732143Y-12511476D02*
X7751191Y-12501952D01*
X7751191Y-12501952D02*
X7760714Y-12482905D01*
X7760714Y-12482905D02*
X7760714Y-12473381D01*
X7760714Y-12473381D02*
X7751191Y-12454333D01*
X7751191Y-12454333D02*
X7732143Y-12444809D01*
X7732143Y-12444809D02*
X7703572Y-12444809D01*
X7703572Y-12444809D02*
X7684524Y-12435286D01*
X7684524Y-12435286D02*
X7675000Y-12416238D01*
X7675000Y-12416238D02*
X7675000Y-12406714D01*
X7675000Y-12406714D02*
X7684524Y-12387667D01*
X7684524Y-12387667D02*
X7703572Y-12378143D01*
X7703572Y-12378143D02*
X7732143Y-12378143D01*
X7732143Y-12378143D02*
X7751191Y-12387667D01*
X7827381Y-12587667D02*
X7836905Y-12578143D01*
X7836905Y-12578143D02*
X7855953Y-12549571D01*
X7855953Y-12549571D02*
X7865476Y-12530524D01*
X7865476Y-12530524D02*
X7875000Y-12501952D01*
X7875000Y-12501952D02*
X7884524Y-12454333D01*
X7884524Y-12454333D02*
X7884524Y-12416238D01*
X7884524Y-12416238D02*
X7875000Y-12368619D01*
X7875000Y-12368619D02*
X7865476Y-12340048D01*
X7865476Y-12340048D02*
X7855953Y-12321000D01*
X7855953Y-12321000D02*
X7836905Y-12292428D01*
X7836905Y-12292428D02*
X7827381Y-12282905D01*
X2995000Y-12638000D02*
X3195000Y-12838000D01*
X3195000Y-12638000D02*
X2995000Y-12838000D01*
X3165711Y-12808711D02*
X3165711Y-12667289D01*
X3024289Y-12667289D01*
X3024289Y-12808711D01*
X3165711Y-12808711D01*
X3423571Y-12611476D02*
X3547381Y-12611476D01*
X3547381Y-12611476D02*
X3480714Y-12687667D01*
X3480714Y-12687667D02*
X3509286Y-12687667D01*
X3509286Y-12687667D02*
X3528333Y-12697190D01*
X3528333Y-12697190D02*
X3537857Y-12706714D01*
X3537857Y-12706714D02*
X3547381Y-12725762D01*
X3547381Y-12725762D02*
X3547381Y-12773381D01*
X3547381Y-12773381D02*
X3537857Y-12792428D01*
X3537857Y-12792428D02*
X3528333Y-12801952D01*
X3528333Y-12801952D02*
X3509286Y-12811476D01*
X3509286Y-12811476D02*
X3452143Y-12811476D01*
X3452143Y-12811476D02*
X3433095Y-12801952D01*
X3433095Y-12801952D02*
X3423571Y-12792428D01*
X3633095Y-12792428D02*
X3642619Y-12801952D01*
X3642619Y-12801952D02*
X3633095Y-12811476D01*
X3633095Y-12811476D02*
X3623571Y-12801952D01*
X3623571Y-12801952D02*
X3633095Y-12792428D01*
X3633095Y-12792428D02*
X3633095Y-12811476D01*
X3718809Y-12630524D02*
X3728333Y-12621000D01*
X3728333Y-12621000D02*
X3747381Y-12611476D01*
X3747381Y-12611476D02*
X3795000Y-12611476D01*
X3795000Y-12611476D02*
X3814048Y-12621000D01*
X3814048Y-12621000D02*
X3823571Y-12630524D01*
X3823571Y-12630524D02*
X3833095Y-12649571D01*
X3833095Y-12649571D02*
X3833095Y-12668619D01*
X3833095Y-12668619D02*
X3823571Y-12697190D01*
X3823571Y-12697190D02*
X3709286Y-12811476D01*
X3709286Y-12811476D02*
X3833095Y-12811476D01*
X3956905Y-12611476D02*
X3975952Y-12611476D01*
X3975952Y-12611476D02*
X3995000Y-12621000D01*
X3995000Y-12621000D02*
X4004524Y-12630524D01*
X4004524Y-12630524D02*
X4014048Y-12649571D01*
X4014048Y-12649571D02*
X4023571Y-12687667D01*
X4023571Y-12687667D02*
X4023571Y-12735286D01*
X4023571Y-12735286D02*
X4014048Y-12773381D01*
X4014048Y-12773381D02*
X4004524Y-12792428D01*
X4004524Y-12792428D02*
X3995000Y-12801952D01*
X3995000Y-12801952D02*
X3975952Y-12811476D01*
X3975952Y-12811476D02*
X3956905Y-12811476D01*
X3956905Y-12811476D02*
X3937857Y-12801952D01*
X3937857Y-12801952D02*
X3928333Y-12792428D01*
X3928333Y-12792428D02*
X3918809Y-12773381D01*
X3918809Y-12773381D02*
X3909286Y-12735286D01*
X3909286Y-12735286D02*
X3909286Y-12687667D01*
X3909286Y-12687667D02*
X3918809Y-12649571D01*
X3918809Y-12649571D02*
X3928333Y-12630524D01*
X3928333Y-12630524D02*
X3937857Y-12621000D01*
X3937857Y-12621000D02*
X3956905Y-12611476D01*
X4147381Y-12611476D02*
X4166429Y-12611476D01*
X4166429Y-12611476D02*
X4185476Y-12621000D01*
X4185476Y-12621000D02*
X4195000Y-12630524D01*
X4195000Y-12630524D02*
X4204524Y-12649571D01*
X4204524Y-12649571D02*
X4214048Y-12687667D01*
X4214048Y-12687667D02*
X4214048Y-12735286D01*
X4214048Y-12735286D02*
X4204524Y-12773381D01*
X4204524Y-12773381D02*
X4195000Y-12792428D01*
X4195000Y-12792428D02*
X4185476Y-12801952D01*
X4185476Y-12801952D02*
X4166429Y-12811476D01*
X4166429Y-12811476D02*
X4147381Y-12811476D01*
X4147381Y-12811476D02*
X4128333Y-12801952D01*
X4128333Y-12801952D02*
X4118809Y-12792428D01*
X4118809Y-12792428D02*
X4109286Y-12773381D01*
X4109286Y-12773381D02*
X4099762Y-12735286D01*
X4099762Y-12735286D02*
X4099762Y-12687667D01*
X4099762Y-12687667D02*
X4109286Y-12649571D01*
X4109286Y-12649571D02*
X4118809Y-12630524D01*
X4118809Y-12630524D02*
X4128333Y-12621000D01*
X4128333Y-12621000D02*
X4147381Y-12611476D01*
X4299762Y-12811476D02*
X4299762Y-12678143D01*
X4299762Y-12697190D02*
X4309286Y-12687667D01*
X4309286Y-12687667D02*
X4328333Y-12678143D01*
X4328333Y-12678143D02*
X4356905Y-12678143D01*
X4356905Y-12678143D02*
X4375952Y-12687667D01*
X4375952Y-12687667D02*
X4385476Y-12706714D01*
X4385476Y-12706714D02*
X4385476Y-12811476D01*
X4385476Y-12706714D02*
X4395000Y-12687667D01*
X4395000Y-12687667D02*
X4414048Y-12678143D01*
X4414048Y-12678143D02*
X4442619Y-12678143D01*
X4442619Y-12678143D02*
X4461667Y-12687667D01*
X4461667Y-12687667D02*
X4471191Y-12706714D01*
X4471191Y-12706714D02*
X4471191Y-12811476D01*
X4566429Y-12811476D02*
X4566429Y-12678143D01*
X4566429Y-12697190D02*
X4575952Y-12687667D01*
X4575952Y-12687667D02*
X4595000Y-12678143D01*
X4595000Y-12678143D02*
X4623572Y-12678143D01*
X4623572Y-12678143D02*
X4642619Y-12687667D01*
X4642619Y-12687667D02*
X4652143Y-12706714D01*
X4652143Y-12706714D02*
X4652143Y-12811476D01*
X4652143Y-12706714D02*
X4661667Y-12687667D01*
X4661667Y-12687667D02*
X4680714Y-12678143D01*
X4680714Y-12678143D02*
X4709286Y-12678143D01*
X4709286Y-12678143D02*
X4728333Y-12687667D01*
X4728333Y-12687667D02*
X4737857Y-12706714D01*
X4737857Y-12706714D02*
X4737857Y-12811476D01*
X5095952Y-12601952D02*
X4924524Y-12859095D01*
X5320714Y-12611476D02*
X5339762Y-12611476D01*
X5339762Y-12611476D02*
X5358810Y-12621000D01*
X5358810Y-12621000D02*
X5368333Y-12630524D01*
X5368333Y-12630524D02*
X5377857Y-12649571D01*
X5377857Y-12649571D02*
X5387381Y-12687667D01*
X5387381Y-12687667D02*
X5387381Y-12735286D01*
X5387381Y-12735286D02*
X5377857Y-12773381D01*
X5377857Y-12773381D02*
X5368333Y-12792428D01*
X5368333Y-12792428D02*
X5358810Y-12801952D01*
X5358810Y-12801952D02*
X5339762Y-12811476D01*
X5339762Y-12811476D02*
X5320714Y-12811476D01*
X5320714Y-12811476D02*
X5301667Y-12801952D01*
X5301667Y-12801952D02*
X5292143Y-12792428D01*
X5292143Y-12792428D02*
X5282619Y-12773381D01*
X5282619Y-12773381D02*
X5273095Y-12735286D01*
X5273095Y-12735286D02*
X5273095Y-12687667D01*
X5273095Y-12687667D02*
X5282619Y-12649571D01*
X5282619Y-12649571D02*
X5292143Y-12630524D01*
X5292143Y-12630524D02*
X5301667Y-12621000D01*
X5301667Y-12621000D02*
X5320714Y-12611476D01*
X5473095Y-12792428D02*
X5482619Y-12801952D01*
X5482619Y-12801952D02*
X5473095Y-12811476D01*
X5473095Y-12811476D02*
X5463572Y-12801952D01*
X5463572Y-12801952D02*
X5473095Y-12792428D01*
X5473095Y-12792428D02*
X5473095Y-12811476D01*
X5673095Y-12811476D02*
X5558810Y-12811476D01*
X5615952Y-12811476D02*
X5615952Y-12611476D01*
X5615952Y-12611476D02*
X5596905Y-12640048D01*
X5596905Y-12640048D02*
X5577857Y-12659095D01*
X5577857Y-12659095D02*
X5558810Y-12668619D01*
X5749286Y-12630524D02*
X5758810Y-12621000D01*
X5758810Y-12621000D02*
X5777857Y-12611476D01*
X5777857Y-12611476D02*
X5825476Y-12611476D01*
X5825476Y-12611476D02*
X5844524Y-12621000D01*
X5844524Y-12621000D02*
X5854048Y-12630524D01*
X5854048Y-12630524D02*
X5863571Y-12649571D01*
X5863571Y-12649571D02*
X5863571Y-12668619D01*
X5863571Y-12668619D02*
X5854048Y-12697190D01*
X5854048Y-12697190D02*
X5739762Y-12811476D01*
X5739762Y-12811476D02*
X5863571Y-12811476D01*
X6035000Y-12611476D02*
X5996905Y-12611476D01*
X5996905Y-12611476D02*
X5977857Y-12621000D01*
X5977857Y-12621000D02*
X5968333Y-12630524D01*
X5968333Y-12630524D02*
X5949286Y-12659095D01*
X5949286Y-12659095D02*
X5939762Y-12697190D01*
X5939762Y-12697190D02*
X5939762Y-12773381D01*
X5939762Y-12773381D02*
X5949286Y-12792428D01*
X5949286Y-12792428D02*
X5958810Y-12801952D01*
X5958810Y-12801952D02*
X5977857Y-12811476D01*
X5977857Y-12811476D02*
X6015952Y-12811476D01*
X6015952Y-12811476D02*
X6035000Y-12801952D01*
X6035000Y-12801952D02*
X6044524Y-12792428D01*
X6044524Y-12792428D02*
X6054048Y-12773381D01*
X6054048Y-12773381D02*
X6054048Y-12725762D01*
X6054048Y-12725762D02*
X6044524Y-12706714D01*
X6044524Y-12706714D02*
X6035000Y-12697190D01*
X6035000Y-12697190D02*
X6015952Y-12687667D01*
X6015952Y-12687667D02*
X5977857Y-12687667D01*
X5977857Y-12687667D02*
X5958810Y-12697190D01*
X5958810Y-12697190D02*
X5949286Y-12706714D01*
X5949286Y-12706714D02*
X5939762Y-12725762D01*
X6177857Y-12611476D02*
X6196905Y-12611476D01*
X6196905Y-12611476D02*
X6215952Y-12621000D01*
X6215952Y-12621000D02*
X6225476Y-12630524D01*
X6225476Y-12630524D02*
X6235000Y-12649571D01*
X6235000Y-12649571D02*
X6244524Y-12687667D01*
X6244524Y-12687667D02*
X6244524Y-12735286D01*
X6244524Y-12735286D02*
X6235000Y-12773381D01*
X6235000Y-12773381D02*
X6225476Y-12792428D01*
X6225476Y-12792428D02*
X6215952Y-12801952D01*
X6215952Y-12801952D02*
X6196905Y-12811476D01*
X6196905Y-12811476D02*
X6177857Y-12811476D01*
X6177857Y-12811476D02*
X6158810Y-12801952D01*
X6158810Y-12801952D02*
X6149286Y-12792428D01*
X6149286Y-12792428D02*
X6139762Y-12773381D01*
X6139762Y-12773381D02*
X6130238Y-12735286D01*
X6130238Y-12735286D02*
X6130238Y-12687667D01*
X6130238Y-12687667D02*
X6139762Y-12649571D01*
X6139762Y-12649571D02*
X6149286Y-12630524D01*
X6149286Y-12630524D02*
X6158810Y-12621000D01*
X6158810Y-12621000D02*
X6177857Y-12611476D01*
X6320714Y-12611476D02*
X6320714Y-12649571D01*
X6396905Y-12611476D02*
X6396905Y-12649571D01*
X6659762Y-12887667D02*
X6650238Y-12878143D01*
X6650238Y-12878143D02*
X6631191Y-12849571D01*
X6631191Y-12849571D02*
X6621667Y-12830524D01*
X6621667Y-12830524D02*
X6612143Y-12801952D01*
X6612143Y-12801952D02*
X6602619Y-12754333D01*
X6602619Y-12754333D02*
X6602619Y-12716238D01*
X6602619Y-12716238D02*
X6612143Y-12668619D01*
X6612143Y-12668619D02*
X6621667Y-12640048D01*
X6621667Y-12640048D02*
X6631191Y-12621000D01*
X6631191Y-12621000D02*
X6650238Y-12592428D01*
X6650238Y-12592428D02*
X6659762Y-12582905D01*
X6821667Y-12678143D02*
X6821667Y-12811476D01*
X6774048Y-12601952D02*
X6726429Y-12744809D01*
X6726429Y-12744809D02*
X6850238Y-12744809D01*
X7046429Y-12811476D02*
X7046429Y-12611476D01*
X7132143Y-12811476D02*
X7132143Y-12706714D01*
X7132143Y-12706714D02*
X7122619Y-12687667D01*
X7122619Y-12687667D02*
X7103572Y-12678143D01*
X7103572Y-12678143D02*
X7075000Y-12678143D01*
X7075000Y-12678143D02*
X7055952Y-12687667D01*
X7055952Y-12687667D02*
X7046429Y-12697190D01*
X7255952Y-12811476D02*
X7236905Y-12801952D01*
X7236905Y-12801952D02*
X7227381Y-12792428D01*
X7227381Y-12792428D02*
X7217857Y-12773381D01*
X7217857Y-12773381D02*
X7217857Y-12716238D01*
X7217857Y-12716238D02*
X7227381Y-12697190D01*
X7227381Y-12697190D02*
X7236905Y-12687667D01*
X7236905Y-12687667D02*
X7255952Y-12678143D01*
X7255952Y-12678143D02*
X7284524Y-12678143D01*
X7284524Y-12678143D02*
X7303572Y-12687667D01*
X7303572Y-12687667D02*
X7313095Y-12697190D01*
X7313095Y-12697190D02*
X7322619Y-12716238D01*
X7322619Y-12716238D02*
X7322619Y-12773381D01*
X7322619Y-12773381D02*
X7313095Y-12792428D01*
X7313095Y-12792428D02*
X7303572Y-12801952D01*
X7303572Y-12801952D02*
X7284524Y-12811476D01*
X7284524Y-12811476D02*
X7255952Y-12811476D01*
X7436905Y-12811476D02*
X7417857Y-12801952D01*
X7417857Y-12801952D02*
X7408333Y-12782905D01*
X7408333Y-12782905D02*
X7408333Y-12611476D01*
X7589286Y-12801952D02*
X7570238Y-12811476D01*
X7570238Y-12811476D02*
X7532143Y-12811476D01*
X7532143Y-12811476D02*
X7513095Y-12801952D01*
X7513095Y-12801952D02*
X7503572Y-12782905D01*
X7503572Y-12782905D02*
X7503572Y-12706714D01*
X7503572Y-12706714D02*
X7513095Y-12687667D01*
X7513095Y-12687667D02*
X7532143Y-12678143D01*
X7532143Y-12678143D02*
X7570238Y-12678143D01*
X7570238Y-12678143D02*
X7589286Y-12687667D01*
X7589286Y-12687667D02*
X7598810Y-12706714D01*
X7598810Y-12706714D02*
X7598810Y-12725762D01*
X7598810Y-12725762D02*
X7503572Y-12744809D01*
X7675000Y-12801952D02*
X7694048Y-12811476D01*
X7694048Y-12811476D02*
X7732143Y-12811476D01*
X7732143Y-12811476D02*
X7751191Y-12801952D01*
X7751191Y-12801952D02*
X7760714Y-12782905D01*
X7760714Y-12782905D02*
X7760714Y-12773381D01*
X7760714Y-12773381D02*
X7751191Y-12754333D01*
X7751191Y-12754333D02*
X7732143Y-12744809D01*
X7732143Y-12744809D02*
X7703572Y-12744809D01*
X7703572Y-12744809D02*
X7684524Y-12735286D01*
X7684524Y-12735286D02*
X7675000Y-12716238D01*
X7675000Y-12716238D02*
X7675000Y-12706714D01*
X7675000Y-12706714D02*
X7684524Y-12687667D01*
X7684524Y-12687667D02*
X7703572Y-12678143D01*
X7703572Y-12678143D02*
X7732143Y-12678143D01*
X7732143Y-12678143D02*
X7751191Y-12687667D01*
X7827381Y-12887667D02*
X7836905Y-12878143D01*
X7836905Y-12878143D02*
X7855953Y-12849571D01*
X7855953Y-12849571D02*
X7865476Y-12830524D01*
X7865476Y-12830524D02*
X7875000Y-12801952D01*
X7875000Y-12801952D02*
X7884524Y-12754333D01*
X7884524Y-12754333D02*
X7884524Y-12716238D01*
X7884524Y-12716238D02*
X7875000Y-12668619D01*
X7875000Y-12668619D02*
X7865476Y-12640048D01*
X7865476Y-12640048D02*
X7855953Y-12621000D01*
X7855953Y-12621000D02*
X7836905Y-12592428D01*
X7836905Y-12592428D02*
X7827381Y-12582905D01*
M02*
