%TF.GenerationSoftware,KiCad,Pcbnew,(7.0.0)*%
%TF.CreationDate,2023-06-05T19:21:43+01:00*%
%TF.ProjectId,Chad,43686164-2e6b-4696-9361-645f70636258,rev?*%
%TF.SameCoordinates,Original*%
%TF.FileFunction,Soldermask,Bot*%
%TF.FilePolarity,Negative*%
%FSLAX46Y46*%
G04 Gerber Fmt 4.6, Leading zero omitted, Abs format (unit mm)*
G04 Created by KiCad (PCBNEW (7.0.0)) date 2023-06-05 19:21:43*
%MOMM*%
%LPD*%
G01*
G04 APERTURE LIST*
G04 Aperture macros list*
%AMRoundRect*
0 Rectangle with rounded corners*
0 $1 Rounding radius*
0 $2 $3 $4 $5 $6 $7 $8 $9 X,Y pos of 4 corners*
0 Add a 4 corners polygon primitive as box body*
4,1,4,$2,$3,$4,$5,$6,$7,$8,$9,$2,$3,0*
0 Add four circle primitives for the rounded corners*
1,1,$1+$1,$2,$3*
1,1,$1+$1,$4,$5*
1,1,$1+$1,$6,$7*
1,1,$1+$1,$8,$9*
0 Add four rect primitives between the rounded corners*
20,1,$1+$1,$2,$3,$4,$5,0*
20,1,$1+$1,$4,$5,$6,$7,0*
20,1,$1+$1,$6,$7,$8,$9,0*
20,1,$1+$1,$8,$9,$2,$3,0*%
G04 Aperture macros list end*
%ADD10RoundRect,0.250000X-0.850000X-0.600000X0.850000X-0.600000X0.850000X0.600000X-0.850000X0.600000X0*%
%ADD11O,2.200000X1.700000*%
%ADD12C,5.600000*%
%ADD13R,1.700000X1.700000*%
%ADD14O,1.700000X1.700000*%
%ADD15C,0.600000*%
%ADD16O,0.900000X2.000000*%
%ADD17O,0.900000X1.700000*%
%ADD18RoundRect,0.250001X1.599999X-1.099999X1.599999X1.099999X-1.599999X1.099999X-1.599999X-1.099999X0*%
%ADD19O,3.700000X2.700000*%
%ADD20RoundRect,0.135000X-0.135000X-0.185000X0.135000X-0.185000X0.135000X0.185000X-0.135000X0.185000X0*%
%ADD21RoundRect,0.250000X-0.325000X-0.650000X0.325000X-0.650000X0.325000X0.650000X-0.325000X0.650000X0*%
%ADD22RoundRect,0.250000X-0.650000X0.325000X-0.650000X-0.325000X0.650000X-0.325000X0.650000X0.325000X0*%
%ADD23RoundRect,0.250000X0.524568X0.113813X0.203174X0.496835X-0.524568X-0.113813X-0.203174X-0.496835X0*%
G04 APERTURE END LIST*
D10*
%TO.C,J4*%
X55791590Y-80754955D03*
D11*
X55791589Y-83254954D03*
X55791589Y-85754954D03*
%TD*%
D12*
%TO.C,H3*%
X59000000Y-99090000D03*
%TD*%
D13*
%TO.C,ENJUMPER1*%
X60216231Y-67272659D03*
D14*
X60216231Y-64732659D03*
%TD*%
D15*
%TO.C,J5*%
X53453000Y-48402000D03*
X47673000Y-48402000D03*
D16*
X54882999Y-48881999D03*
D17*
X54882999Y-44711999D03*
D16*
X46242999Y-48881999D03*
D17*
X46242999Y-44711999D03*
%TD*%
D13*
%TO.C,J2*%
X60215721Y-49923067D03*
D14*
X57675721Y-49923067D03*
X60215721Y-52463067D03*
X57675721Y-52463067D03*
X60215721Y-55003067D03*
X57675721Y-55003067D03*
X60215721Y-57543067D03*
X57675721Y-57543067D03*
%TD*%
D13*
%TO.C,BOOTJUMPER1*%
X60214777Y-61126856D03*
D14*
X57674777Y-61126856D03*
%TD*%
D12*
%TO.C,H4*%
X35000000Y-45090000D03*
%TD*%
D10*
%TO.C,J3*%
X55790000Y-71309458D03*
D11*
X55789999Y-73809457D03*
X55789999Y-76309457D03*
%TD*%
D12*
%TO.C,H2*%
X59000000Y-45090000D03*
%TD*%
D18*
%TO.C,J1*%
X37375000Y-79790000D03*
D19*
X37374999Y-75589999D03*
X37374999Y-71389999D03*
X42874999Y-79789999D03*
X42874999Y-75589999D03*
X42874999Y-71389999D03*
%TD*%
D12*
%TO.C,H1*%
X35000000Y-99090000D03*
%TD*%
D20*
%TO.C,R33*%
X54813359Y-56398345D03*
X55833359Y-56398345D03*
%TD*%
D21*
%TO.C,C40*%
X57768000Y-92048000D03*
X60718000Y-92048000D03*
%TD*%
D22*
%TO.C,C43*%
X39489357Y-87248335D03*
X39489357Y-90198335D03*
%TD*%
D20*
%TO.C,R28*%
X54815000Y-52650000D03*
X55835000Y-52650000D03*
%TD*%
D22*
%TO.C,C42*%
X37185711Y-87246450D03*
X37185711Y-90196450D03*
%TD*%
D23*
%TO.C,C48*%
X54310648Y-94027742D03*
X53089352Y-92572258D03*
%TD*%
D22*
%TO.C,C44*%
X41802781Y-87249629D03*
X41802781Y-90199629D03*
%TD*%
D21*
%TO.C,C31*%
X57780000Y-89744000D03*
X60730000Y-89744000D03*
%TD*%
D20*
%TO.C,R29*%
X54815000Y-53575000D03*
X55835000Y-53575000D03*
%TD*%
%TO.C,R32*%
X54815184Y-55460437D03*
X55835184Y-55460437D03*
%TD*%
%TO.C,R31*%
X54814516Y-51705161D03*
X55834516Y-51705161D03*
%TD*%
%TO.C,R30*%
X54814682Y-54517718D03*
X55834682Y-54517718D03*
%TD*%
D22*
%TO.C,C41*%
X34880458Y-87248706D03*
X34880458Y-90198706D03*
%TD*%
M02*
