M48
; DRILL file {KiCad (7.0.0)} date Mon Jun 12 15:08:29 2023
; FORMAT={3:3/ absolute / metric / suppress trailing zeros}
; #@! TF.CreationDate,2023-06-12T15:08:29+01:00
; #@! TF.GenerationSoftware,Kicad,Pcbnew,(7.0.0)
; #@! TF.FileFunction,Plated,1,4,PTH
FMAT,2
METRIC,LZ
; #@! TA.AperFunction,Plated,PTH,ViaDrill
T1C0.200
; #@! TA.AperFunction,Plated,PTH,ViaDrill
T2C0.300
; #@! TA.AperFunction,Plated,PTH,ViaDrill
T3C0.400
; #@! TA.AperFunction,Plated,PTH,ComponentDrill
T4C0.600
; #@! TA.AperFunction,Plated,PTH,ComponentDrill
T5C1.000
; #@! TA.AperFunction,Plated,PTH,ComponentDrill
T6C1.200
; #@! TA.AperFunction,Plated,PTH,ComponentDrill
T7C1.800
; #@! TA.AperFunction,Plated,PTH,ComponentDrill
T8C3.200
%
G90
G05
T1
X04368Y-04397
T2
X0326Y-0581
X0326Y-050175
X0326Y-052675
X0326Y-054975
X0326Y-060175
X0326Y-062675
X0326Y-065225
X0326Y-067725
X0326Y-070225
X0326Y-072725
X0326Y-075225
X0326Y-077725
X0326Y-080225
X0326Y-082775
X0326Y-085275
X0326Y-087775
X0326Y-090275
X0326Y-092775
X0326Y-095275
X034721Y-061162
X03477Y-063215
X037417Y-061873
X038098Y-050302
X03813Y-049154
X038154Y-048096
X038163Y-046942
X038748Y-046942
X03876Y-04915
X038779Y-048097
X038809Y-050303
X039025Y-101475
X0399Y-06615
X039925Y-0427
X04002Y-04389
X04055Y-043275
X040681Y-050167
X040693Y-049583
X040703Y-047037
X040704Y-047618
X041394Y-056136
X0415Y-048103
X0415Y-04913
X041525Y-101475
X04155Y-06595
X0422Y-057412
X0424Y-0524
X042539Y-04265
X0431Y-067
X043595Y-044606
X044025Y-101475
X044373Y-047128
X044929Y-061609
X045025Y-0427
X04517Y-064655
X04561Y-06577
X045725Y-089
X045775Y-0897
X045825Y-08785
X046525Y-101475
X046675Y-083875
X046714Y-06382
X046825Y-0626
X046835Y-066297
X04696Y-0744
X046975Y-089
X04705Y-0897
X04745Y-07625
X04747Y-05343
X047522Y-061252
X047525Y-0427
X04753Y-059471
X04755Y-08785
X047748Y-062902
X04778Y-068654
X047789Y-069721
X047925Y-088925
X048115Y-079986
X048148Y-073355
X0483Y-06755
X048375Y-08385
X04899Y-068322
X049025Y-101475
X04904Y-070315
X049308Y-062966
X049317Y-061213
X049334Y-059451
X049345Y-067292
X050025Y-0427
X05009Y-088782
X050093Y-0672
X05011Y-05603
X050185Y-06607
X050191Y-066653
X050192Y-065472
X05026Y-0721
X050374Y-070322
X051Y-053925
X051033Y-059426
X051047Y-062943
X051059Y-061227
X051389Y-087996
X05152Y-05666
X051525Y-101475
X051706Y-069327
X05186Y-070311
X051883Y-06061
X051966Y-065464
X05203Y-06606
X052062Y-066665
X052189Y-067397
X052575Y-0427
X052753Y-071949
X05285Y-06995
X05293Y-067796
X053125Y-068925
X0539Y-06128
X054024Y-066037
X054075Y-101475
X054096Y-079832
X055075Y-0427
X055125Y-067325
X055425Y-060475
X056022Y-063154
X056827Y-063655
X057056Y-065577
X0572Y-0676
X0582Y-064825
X0614Y-051575
X0614Y-054075
X0614Y-056575
X0614Y-059075
X0614Y-064075
X0614Y-069125
X0614Y-071625
X0614Y-074125
X0614Y-076625
X0614Y-079125
X0614Y-081625
X0614Y-084175
X0614Y-086675
X0614Y-089175
X0614Y-091675
X0614Y-094175
T3
X03485Y-09135
X035321Y-04885
X03565Y-0844
X0357Y-08585
X035718Y-093221
X036475Y-054125
X03685Y-09145
X037784Y-093151
X0381Y-0844
X0381Y-08585
X039Y-09155
X03989Y-093226
X0404Y-0844
X0404Y-08585
X04095Y-0916
X042005Y-09787
X04203Y-09659
X04203Y-099141
X04203Y-10048
X04255Y-08595
X04265Y-0844
X044275Y-089419
X044304Y-087201
X04458Y-09658
X04458Y-10047
X0453Y-081125
X04744Y-09656
X04744Y-10045
X05038Y-09658
X05038Y-10047
X050416Y-099122
X050478Y-097888
X052065Y-090834
X052673Y-088414
T5
X057675Y-061127
X057676Y-049923
X057676Y-052463
X057676Y-055003
X057676Y-057543
X060215Y-061127
X060216Y-049923
X060216Y-052463
X060216Y-055003
X060216Y-057543
X060216Y-064733
X060216Y-067273
T6
X05579Y-071309
X05579Y-073809
X05579Y-076309
X055792Y-080755
X055792Y-083255
X055792Y-085755
T7
X037375Y-07139
X037375Y-07559
X037375Y-07979
X042875Y-07139
X042875Y-07559
X042875Y-07979
T8
X035Y-04509
X035Y-09909
X059Y-04509
X059Y-09909
T4
G00X046243Y-044312
M15
G01X046243Y-045112
M16
G05
G00X046243Y-048332
M15
G01X046243Y-049432
M16
G05
G00X054883Y-044312
M15
G01X054883Y-045112
M16
G05
G00X054883Y-048332
M15
G01X054883Y-049432
M16
G05
T0
M30
