%TF.GenerationSoftware,KiCad,Pcbnew,(7.0.0)*%
%TF.CreationDate,2023-03-09T01:51:22+00:00*%
%TF.ProjectId,Chad,43686164-2e6b-4696-9361-645f70636258,rev?*%
%TF.SameCoordinates,Original*%
%TF.FileFunction,Copper,L2,Inr*%
%TF.FilePolarity,Positive*%
%FSLAX46Y46*%
G04 Gerber Fmt 4.6, Leading zero omitted, Abs format (unit mm)*
G04 Created by KiCad (PCBNEW (7.0.0)) date 2023-03-09 01:51:22*
%MOMM*%
%LPD*%
G01*
G04 APERTURE LIST*
G04 Aperture macros list*
%AMRoundRect*
0 Rectangle with rounded corners*
0 $1 Rounding radius*
0 $2 $3 $4 $5 $6 $7 $8 $9 X,Y pos of 4 corners*
0 Add a 4 corners polygon primitive as box body*
4,1,4,$2,$3,$4,$5,$6,$7,$8,$9,$2,$3,0*
0 Add four circle primitives for the rounded corners*
1,1,$1+$1,$2,$3*
1,1,$1+$1,$4,$5*
1,1,$1+$1,$6,$7*
1,1,$1+$1,$8,$9*
0 Add four rect primitives between the rounded corners*
20,1,$1+$1,$2,$3,$4,$5,0*
20,1,$1+$1,$4,$5,$6,$7,0*
20,1,$1+$1,$6,$7,$8,$9,0*
20,1,$1+$1,$8,$9,$2,$3,0*%
G04 Aperture macros list end*
%TA.AperFunction,ComponentPad*%
%ADD10RoundRect,0.250000X-0.850000X-0.600000X0.850000X-0.600000X0.850000X0.600000X-0.850000X0.600000X0*%
%TD*%
%TA.AperFunction,ComponentPad*%
%ADD11O,2.200000X1.700000*%
%TD*%
%TA.AperFunction,ComponentPad*%
%ADD12C,5.600000*%
%TD*%
%TA.AperFunction,ComponentPad*%
%ADD13R,1.700000X1.700000*%
%TD*%
%TA.AperFunction,ComponentPad*%
%ADD14O,1.700000X1.700000*%
%TD*%
%TA.AperFunction,ComponentPad*%
%ADD15O,0.900000X2.000000*%
%TD*%
%TA.AperFunction,ComponentPad*%
%ADD16O,0.900000X1.700000*%
%TD*%
%TA.AperFunction,ComponentPad*%
%ADD17RoundRect,0.250001X1.599999X-1.099999X1.599999X1.099999X-1.599999X1.099999X-1.599999X-1.099999X0*%
%TD*%
%TA.AperFunction,ComponentPad*%
%ADD18O,3.700000X2.700000*%
%TD*%
%TA.AperFunction,ViaPad*%
%ADD19C,0.450000*%
%TD*%
%TA.AperFunction,ViaPad*%
%ADD20C,0.600000*%
%TD*%
%TA.AperFunction,ViaPad*%
%ADD21C,0.800000*%
%TD*%
%TA.AperFunction,ViaPad*%
%ADD22C,0.500000*%
%TD*%
G04 APERTURE END LIST*
D10*
%TO.N,GND*%
%TO.C,J4*%
X55791590Y-80754955D03*
D11*
%TO.N,+6V*%
X55791589Y-83254954D03*
%TO.N,/Servo2PWM*%
X55791589Y-85754954D03*
%TD*%
D12*
%TO.N,GND*%
%TO.C,H3*%
X59000000Y-99090000D03*
%TD*%
D13*
%TO.N,GND*%
%TO.C,ENJUMPER1*%
X60216231Y-67272659D03*
D14*
%TO.N,/CHIP_PU*%
X60216231Y-64732659D03*
%TD*%
D15*
%TO.N,GND*%
%TO.C,J5*%
X54882999Y-48881999D03*
D16*
X54882999Y-44711999D03*
D15*
X46242999Y-48881999D03*
D16*
X46242999Y-44711999D03*
%TD*%
D13*
%TO.N,GND*%
%TO.C,J2*%
X60215721Y-49923067D03*
D14*
%TO.N,/GPIO0*%
X57675721Y-49923067D03*
%TO.N,/GPIO1*%
X60215721Y-52463067D03*
%TO.N,/GPIO2*%
X57675721Y-52463067D03*
%TO.N,+3V3*%
X60215721Y-55003067D03*
%TO.N,/GPIO3*%
X57675721Y-55003067D03*
%TO.N,/GPIO4*%
X60215721Y-57543067D03*
%TO.N,/GPIO5*%
X57675721Y-57543067D03*
%TD*%
D13*
%TO.N,GND*%
%TO.C,BOOTJUMPER1*%
X60214777Y-61126856D03*
D14*
%TO.N,/BOOT*%
X57674777Y-61126856D03*
%TD*%
D12*
%TO.N,GND*%
%TO.C,H4*%
X35000000Y-45090000D03*
%TD*%
D10*
%TO.N,GND*%
%TO.C,J3*%
X55790000Y-71309458D03*
D11*
%TO.N,+6V*%
X55789999Y-73809457D03*
%TO.N,/Servo1PWM*%
X55789999Y-76309457D03*
%TD*%
D12*
%TO.N,GND*%
%TO.C,H2*%
X59000000Y-45090000D03*
%TD*%
D17*
%TO.N,GND*%
%TO.C,J1*%
X37375000Y-79790000D03*
D18*
X37374999Y-75589999D03*
%TO.N,RBUS_uC_V*%
X37374999Y-71389999D03*
%TO.N,+12V*%
X42874999Y-79789999D03*
%TO.N,/CAN+*%
X42874999Y-75589999D03*
%TO.N,/CAN-*%
X42874999Y-71389999D03*
%TD*%
D12*
%TO.N,GND*%
%TO.C,H1*%
X35000000Y-99090000D03*
%TD*%
D19*
%TO.N,GND*%
X52943363Y-69756431D03*
X55950000Y-63275000D03*
D20*
X61400000Y-59075000D03*
X32600000Y-90275000D03*
X32600000Y-82775000D03*
X32600000Y-75225000D03*
X61400000Y-54075000D03*
D19*
X53036254Y-68805518D03*
X47550000Y-87850000D03*
X50183736Y-65969157D03*
D20*
X61400000Y-74125000D03*
D19*
X34700000Y-61320000D03*
X55125000Y-67325000D03*
D20*
X47522000Y-61252000D03*
D21*
X34800000Y-93300000D03*
D20*
X61400000Y-76625000D03*
D21*
X33450000Y-53890000D03*
D19*
X50373703Y-70321851D03*
X52072888Y-66425108D03*
D21*
X34850000Y-91350000D03*
D19*
X46975000Y-89000000D03*
D20*
X32600000Y-67725000D03*
X50025000Y-42700000D03*
X32600000Y-60175000D03*
D19*
X47779626Y-68653703D03*
D20*
X45025000Y-42700000D03*
D19*
X52072888Y-65945108D03*
D20*
X32600000Y-72725000D03*
X51059000Y-61227000D03*
X51047000Y-62943000D03*
X61400000Y-81625000D03*
D19*
X55425000Y-60475000D03*
D21*
X37000000Y-93250000D03*
D20*
X51000000Y-53925000D03*
X32600000Y-87775000D03*
D21*
X40650000Y-93350000D03*
D19*
X51886422Y-65426520D03*
X47470000Y-53430000D03*
D20*
X55075000Y-42700000D03*
X61400000Y-89175000D03*
D21*
X53950000Y-91000000D03*
D20*
X32600000Y-85275000D03*
D19*
X45775000Y-89700000D03*
X50183736Y-66469157D03*
X45725000Y-89000000D03*
D20*
X47530000Y-59471000D03*
X61400000Y-94175000D03*
D21*
X53950000Y-88450000D03*
X45240000Y-81040000D03*
D20*
X39025000Y-101475000D03*
X32600000Y-77725000D03*
D19*
X53020216Y-67935546D03*
D20*
X49025000Y-101475000D03*
D19*
X58200000Y-64825000D03*
X50183528Y-65469934D03*
X46675000Y-83875000D03*
D20*
X61400000Y-79125000D03*
X48990000Y-68322000D03*
X32600000Y-92775000D03*
X54075000Y-101475000D03*
X51706000Y-69327000D03*
X32600000Y-54975000D03*
D19*
X45610000Y-65770000D03*
D20*
X61400000Y-84175000D03*
X32599500Y-58100000D03*
D19*
X51520000Y-56660000D03*
D20*
X61400000Y-86675000D03*
X49308000Y-62966000D03*
D21*
X51250000Y-92800000D03*
D20*
X46525000Y-101475000D03*
D21*
X38900000Y-93250000D03*
D20*
X39925000Y-42700000D03*
D21*
X36475000Y-54125000D03*
D20*
X32600000Y-95275000D03*
D19*
X49780000Y-67270000D03*
X51860446Y-70311334D03*
X57050000Y-67525000D03*
X34700000Y-62350000D03*
D20*
X49334000Y-59451000D03*
D19*
X43475000Y-44650000D03*
D20*
X41525000Y-101475000D03*
X32600000Y-70225000D03*
X32600000Y-50175000D03*
X47525000Y-42700000D03*
X61400000Y-64075000D03*
D19*
X42540216Y-42617260D03*
D20*
X61400000Y-56575000D03*
X61400000Y-69125000D03*
X61400000Y-71625000D03*
D19*
X49040000Y-70315311D03*
D20*
X32600000Y-52675000D03*
X51525000Y-101475000D03*
D19*
X56600000Y-63675000D03*
D20*
X61400000Y-51575000D03*
D19*
X52072888Y-66905108D03*
X47050000Y-89700000D03*
X52310671Y-67524447D03*
D21*
X36850000Y-91450000D03*
D20*
X61400000Y-91675000D03*
D19*
X48872032Y-67325677D03*
D20*
X32600000Y-62675000D03*
D21*
X39000000Y-91550000D03*
D20*
X49317000Y-61213000D03*
X47650000Y-62875000D03*
D19*
X41550000Y-65950000D03*
D21*
X40950000Y-91600000D03*
D20*
X32600000Y-80225000D03*
D19*
X47789135Y-69721355D03*
X47925000Y-88925000D03*
D20*
X32600000Y-65225000D03*
X44372814Y-47128492D03*
X54100000Y-79775000D03*
D21*
X51700000Y-91650000D03*
D19*
X50184626Y-66969251D03*
D20*
X51033000Y-59426000D03*
X44025000Y-101475000D03*
X52575000Y-42700000D03*
D19*
%TO.N,+3V3*%
X53900000Y-61280000D03*
D22*
X43739000Y-65958000D03*
D19*
X50110000Y-56030000D03*
D20*
X41394215Y-56136334D03*
D19*
X43100000Y-67000000D03*
X50260000Y-72100000D03*
X53250000Y-65400000D03*
X46653427Y-66377570D03*
X56140000Y-65590000D03*
D21*
X35320508Y-48849814D03*
D19*
X39900000Y-66150000D03*
D22*
%TO.N,Net-(JP1-B)*%
X42584000Y-57412000D03*
X37347000Y-60525000D03*
D19*
%TO.N,VBUS*%
X40020000Y-43890000D03*
X43680000Y-43970000D03*
D20*
%TO.N,RBUS_uC_V*%
X42491000Y-52574000D03*
X40550000Y-43275000D03*
D21*
%TO.N,+12V*%
X40400000Y-84400000D03*
D19*
X45825000Y-87850000D03*
D21*
X40400000Y-85850000D03*
X42550000Y-85950000D03*
X38100000Y-85850000D03*
X35650000Y-84400000D03*
X42650000Y-84400000D03*
X38100000Y-84400000D03*
X35700000Y-85850000D03*
D19*
%TO.N,/Servo1PWM*%
X46825000Y-62600000D03*
%TO.N,/BuckPGOOD*%
X46960000Y-74400000D03*
X45170000Y-64655000D03*
%TO.N,/Power/LX1*%
X38153576Y-48096290D03*
X38163173Y-46941885D03*
X38747818Y-46941885D03*
X41510000Y-48103306D03*
X38778579Y-48097381D03*
X40711404Y-47130000D03*
X40710000Y-47589492D03*
%TO.N,/Power/LX2*%
X38097686Y-50302139D03*
X38760000Y-49150000D03*
X38808858Y-50303229D03*
X40680000Y-49571000D03*
X38129580Y-49153664D03*
X41540000Y-49120000D03*
X40675000Y-50050000D03*
D21*
%TO.N,+6V*%
X47440000Y-96560000D03*
X44580000Y-100470000D03*
X50380000Y-98470000D03*
X47440000Y-100450000D03*
X42030000Y-100480000D03*
X50380000Y-100470000D03*
X42030000Y-97510000D03*
X50380000Y-99440000D03*
X44580000Y-96580000D03*
X42030000Y-99450000D03*
X50380000Y-97500000D03*
X42030000Y-96590000D03*
X50380000Y-96580000D03*
X42030000Y-98480000D03*
D19*
%TO.N,/Servo2PWM*%
X46775000Y-63825000D03*
%TO.N,/buckC/VDD*%
X51389000Y-87996000D03*
X48375000Y-83850000D03*
%TO.N,/buckC/PGOOD*%
X50090000Y-88782168D03*
X47450000Y-76250000D03*
%TD*%
%TA.AperFunction,Conductor*%
%TO.N,GND*%
G36*
X59002777Y-42390655D02*
G01*
X59296701Y-42407162D01*
X59307724Y-42408404D01*
X59595224Y-42457252D01*
X59606018Y-42459715D01*
X59886251Y-42540449D01*
X59896722Y-42544113D01*
X60166134Y-42655708D01*
X60176136Y-42660525D01*
X60431354Y-42801578D01*
X60440755Y-42807485D01*
X60678575Y-42976228D01*
X60687254Y-42983149D01*
X60717388Y-43010078D01*
X60904697Y-43177467D01*
X60912532Y-43185302D01*
X61006053Y-43289952D01*
X61106850Y-43402745D01*
X61113771Y-43411424D01*
X61282514Y-43649244D01*
X61288421Y-43658645D01*
X61429474Y-43913863D01*
X61434291Y-43923865D01*
X61545884Y-44193273D01*
X61549551Y-44203752D01*
X61630280Y-44483966D01*
X61632750Y-44494790D01*
X61681594Y-44782270D01*
X61682837Y-44793302D01*
X61699344Y-45087222D01*
X61699500Y-45092773D01*
X61699500Y-48678650D01*
X55825000Y-48750000D01*
X55848783Y-42390500D01*
X58952405Y-42390500D01*
X58997227Y-42390500D01*
X59002777Y-42390655D01*
G37*
%TD.AperFunction*%
%TD*%
%TA.AperFunction,Conductor*%
%TO.N,GND*%
G36*
X38665605Y-46524101D02*
G01*
X38622386Y-46530947D01*
X38622383Y-46530947D01*
X38614692Y-46532166D01*
X38607754Y-46535700D01*
X38607751Y-46535702D01*
X38500440Y-46590380D01*
X38455495Y-46601170D01*
X38410550Y-46590380D01*
X38303239Y-46535702D01*
X38303238Y-46535701D01*
X38296299Y-46532166D01*
X38288605Y-46530947D01*
X38288604Y-46530947D01*
X38170869Y-46512300D01*
X38163173Y-46511081D01*
X38155477Y-46512300D01*
X38037741Y-46530947D01*
X38037738Y-46530947D01*
X38030047Y-46532166D01*
X38023109Y-46535700D01*
X38023106Y-46535702D01*
X37916892Y-46589821D01*
X37916890Y-46589822D01*
X37909953Y-46593357D01*
X37904449Y-46598860D01*
X37904446Y-46598863D01*
X37820151Y-46683158D01*
X37820148Y-46683161D01*
X37814645Y-46688665D01*
X37811110Y-46695602D01*
X37811109Y-46695604D01*
X37756990Y-46801818D01*
X37756988Y-46801821D01*
X37753454Y-46808759D01*
X37732369Y-46941885D01*
X37753454Y-47075011D01*
X37814645Y-47195105D01*
X37909953Y-47290413D01*
X38030047Y-47351604D01*
X38163173Y-47372689D01*
X38296299Y-47351604D01*
X38410551Y-47293389D01*
X38455495Y-47282599D01*
X38500440Y-47293390D01*
X38607746Y-47348066D01*
X38607752Y-47348068D01*
X38614692Y-47351604D01*
X38682712Y-47362377D01*
X38689209Y-47680731D01*
X38653147Y-47686443D01*
X38653144Y-47686443D01*
X38645453Y-47687662D01*
X38638515Y-47691196D01*
X38638512Y-47691198D01*
X38532299Y-47745316D01*
X38532294Y-47745318D01*
X38525359Y-47748853D01*
X38522924Y-47751287D01*
X38466827Y-47769513D01*
X38410123Y-47751089D01*
X38406796Y-47747762D01*
X38399855Y-47744225D01*
X38399852Y-47744223D01*
X38293642Y-47690107D01*
X38293641Y-47690106D01*
X38286702Y-47686571D01*
X38279008Y-47685352D01*
X38279007Y-47685352D01*
X38161272Y-47666705D01*
X38153576Y-47665486D01*
X38145880Y-47666705D01*
X38028144Y-47685352D01*
X38028141Y-47685352D01*
X38020450Y-47686571D01*
X38013512Y-47690105D01*
X38013509Y-47690107D01*
X37907295Y-47744226D01*
X37907293Y-47744227D01*
X37900356Y-47747762D01*
X37894852Y-47753265D01*
X37894849Y-47753268D01*
X37810554Y-47837563D01*
X37810551Y-47837566D01*
X37805048Y-47843070D01*
X37801513Y-47850007D01*
X37801512Y-47850009D01*
X37747393Y-47956223D01*
X37747391Y-47956226D01*
X37743857Y-47963164D01*
X37722772Y-48096290D01*
X37743857Y-48229416D01*
X37805048Y-48349510D01*
X37900356Y-48444818D01*
X38020450Y-48506009D01*
X38153576Y-48527094D01*
X38286702Y-48506009D01*
X38406796Y-48444818D01*
X38409682Y-48441931D01*
X38444740Y-48426321D01*
X38485908Y-48426320D01*
X38521709Y-48442259D01*
X38525359Y-48445909D01*
X38645453Y-48507100D01*
X38706271Y-48516732D01*
X38710562Y-48727025D01*
X38634568Y-48739062D01*
X38634565Y-48739062D01*
X38626874Y-48740281D01*
X38619936Y-48743815D01*
X38619933Y-48743817D01*
X38513717Y-48797937D01*
X38513715Y-48797938D01*
X38506780Y-48801472D01*
X38501277Y-48806974D01*
X38500455Y-48807572D01*
X38442267Y-48826477D01*
X38385791Y-48808127D01*
X38382800Y-48805136D01*
X38375864Y-48801601D01*
X38375860Y-48801599D01*
X38269646Y-48747481D01*
X38269645Y-48747480D01*
X38262706Y-48743945D01*
X38255012Y-48742726D01*
X38255011Y-48742726D01*
X38137276Y-48724079D01*
X38129580Y-48722860D01*
X38121884Y-48724079D01*
X38004148Y-48742726D01*
X38004145Y-48742726D01*
X37996454Y-48743945D01*
X37989516Y-48747479D01*
X37989513Y-48747481D01*
X37883299Y-48801600D01*
X37883297Y-48801601D01*
X37876360Y-48805136D01*
X37870856Y-48810639D01*
X37870853Y-48810642D01*
X37786558Y-48894937D01*
X37786555Y-48894940D01*
X37781052Y-48900444D01*
X37777517Y-48907381D01*
X37777516Y-48907383D01*
X37723397Y-49013597D01*
X37723395Y-49013600D01*
X37719861Y-49020538D01*
X37698776Y-49153664D01*
X37699995Y-49161360D01*
X37717667Y-49272942D01*
X37719861Y-49286790D01*
X37723396Y-49293729D01*
X37723397Y-49293730D01*
X37732297Y-49311197D01*
X35685209Y-49326882D01*
X35748790Y-49278096D01*
X35845044Y-49152655D01*
X35905552Y-49006576D01*
X35926190Y-48849814D01*
X35905552Y-48693052D01*
X35845044Y-48546973D01*
X35748790Y-48421532D01*
X35662104Y-48355016D01*
X35628497Y-48329228D01*
X35628496Y-48329227D01*
X35623349Y-48325278D01*
X35617355Y-48322795D01*
X35617353Y-48322794D01*
X35483267Y-48267254D01*
X35483266Y-48267253D01*
X35477270Y-48264770D01*
X35470839Y-48263923D01*
X35470834Y-48263922D01*
X35326942Y-48244979D01*
X35320508Y-48244132D01*
X35314074Y-48244979D01*
X35170181Y-48263922D01*
X35170174Y-48263923D01*
X35163746Y-48264770D01*
X35157751Y-48267253D01*
X35157748Y-48267254D01*
X35023662Y-48322794D01*
X35023657Y-48322796D01*
X35017667Y-48325278D01*
X35012523Y-48329225D01*
X35012518Y-48329228D01*
X34897379Y-48417577D01*
X34897374Y-48417581D01*
X34892226Y-48421532D01*
X34888275Y-48426680D01*
X34888271Y-48426685D01*
X34799922Y-48541824D01*
X34799919Y-48541829D01*
X34795972Y-48546973D01*
X34793490Y-48552963D01*
X34793488Y-48552968D01*
X34737948Y-48687054D01*
X34735464Y-48693052D01*
X34734617Y-48699480D01*
X34734616Y-48699487D01*
X34721173Y-48801600D01*
X34714826Y-48849814D01*
X34715673Y-48856248D01*
X34734616Y-49000140D01*
X34734617Y-49000145D01*
X34735464Y-49006576D01*
X34795972Y-49152655D01*
X34799921Y-49157802D01*
X34799922Y-49157803D01*
X34802651Y-49161360D01*
X34892226Y-49278096D01*
X34963018Y-49332417D01*
X32300500Y-49352820D01*
X32300500Y-45092773D01*
X32300656Y-45087222D01*
X32317162Y-44793302D01*
X32318405Y-44782270D01*
X32367253Y-44494771D01*
X32369714Y-44483985D01*
X32450451Y-44203742D01*
X32454111Y-44193283D01*
X32565711Y-43923858D01*
X32570525Y-43913863D01*
X32575101Y-43905584D01*
X32711583Y-43658636D01*
X32717479Y-43649253D01*
X32886230Y-43411421D01*
X32893149Y-43402745D01*
X33087475Y-43185293D01*
X33095293Y-43177475D01*
X33312748Y-42983146D01*
X33321424Y-42976228D01*
X33559253Y-42807479D01*
X33568636Y-42801583D01*
X33823869Y-42660522D01*
X33833858Y-42655711D01*
X34103283Y-42544111D01*
X34113742Y-42540451D01*
X34393985Y-42459714D01*
X34404771Y-42457253D01*
X34692277Y-42408404D01*
X34703296Y-42407162D01*
X34997222Y-42390655D01*
X35002773Y-42390500D01*
X38581246Y-42390500D01*
X38665605Y-46524101D01*
G37*
%TD.AperFunction*%
%TD*%
%TA.AperFunction,Conductor*%
%TO.N,GND*%
G36*
X50284317Y-85198133D02*
G01*
X50223960Y-88372874D01*
X50223126Y-88372449D01*
X50215432Y-88371230D01*
X50215431Y-88371230D01*
X50097696Y-88352583D01*
X50090000Y-88351364D01*
X50082304Y-88352583D01*
X49964568Y-88371230D01*
X49964565Y-88371230D01*
X49956874Y-88372449D01*
X49949936Y-88375983D01*
X49949933Y-88375985D01*
X49843719Y-88430104D01*
X49843717Y-88430105D01*
X49836780Y-88433640D01*
X49831276Y-88439143D01*
X49831273Y-88439146D01*
X49746978Y-88523441D01*
X49746975Y-88523444D01*
X49741472Y-88528948D01*
X49737937Y-88535885D01*
X49737936Y-88535887D01*
X49683817Y-88642101D01*
X49683815Y-88642104D01*
X49680281Y-88649042D01*
X49659196Y-88782168D01*
X49680281Y-88915294D01*
X49741472Y-89035388D01*
X49836780Y-89130696D01*
X49956874Y-89191887D01*
X50090000Y-89212972D01*
X50208344Y-89194228D01*
X50159317Y-91773133D01*
X43984317Y-91848133D01*
X43999269Y-87850000D01*
X45394196Y-87850000D01*
X45415281Y-87983126D01*
X45476472Y-88103220D01*
X45571780Y-88198528D01*
X45691874Y-88259719D01*
X45825000Y-88280804D01*
X45958126Y-88259719D01*
X46078220Y-88198528D01*
X46173528Y-88103220D01*
X46234719Y-87983126D01*
X46255804Y-87850000D01*
X46234719Y-87716874D01*
X46173528Y-87596780D01*
X46078220Y-87501472D01*
X45958126Y-87440281D01*
X45950432Y-87439062D01*
X45950431Y-87439062D01*
X45832696Y-87420415D01*
X45825000Y-87419196D01*
X45817304Y-87420415D01*
X45699568Y-87439062D01*
X45699565Y-87439062D01*
X45691874Y-87440281D01*
X45684936Y-87443815D01*
X45684933Y-87443817D01*
X45578719Y-87497936D01*
X45578717Y-87497937D01*
X45571780Y-87501472D01*
X45566276Y-87506975D01*
X45566273Y-87506978D01*
X45481978Y-87591273D01*
X45481975Y-87591276D01*
X45476472Y-87596780D01*
X45472937Y-87603717D01*
X45472936Y-87603719D01*
X45418817Y-87709933D01*
X45418815Y-87709936D01*
X45415281Y-87716874D01*
X45394196Y-87850000D01*
X43999269Y-87850000D01*
X44009317Y-85163133D01*
X50284317Y-85198133D01*
G37*
%TD.AperFunction*%
%TD*%
%TA.AperFunction,Conductor*%
%TO.N,GND*%
G36*
X55825000Y-48750000D02*
G01*
X61699500Y-48678650D01*
X61699500Y-99087227D01*
X61699344Y-99092778D01*
X61682837Y-99386697D01*
X61681594Y-99397729D01*
X61632750Y-99685209D01*
X61630280Y-99696033D01*
X61549551Y-99976247D01*
X61545884Y-99986726D01*
X61434291Y-100256134D01*
X61429474Y-100266136D01*
X61288421Y-100521354D01*
X61282514Y-100530755D01*
X61113771Y-100768575D01*
X61106850Y-100777254D01*
X60912540Y-100994689D01*
X60904689Y-101002540D01*
X60687254Y-101196850D01*
X60678575Y-101203771D01*
X60440755Y-101372514D01*
X60431354Y-101378421D01*
X60176136Y-101519474D01*
X60166134Y-101524291D01*
X59896726Y-101635884D01*
X59886247Y-101639551D01*
X59606033Y-101720280D01*
X59595209Y-101722750D01*
X59307729Y-101771594D01*
X59296697Y-101772837D01*
X59002778Y-101789344D01*
X58997227Y-101789500D01*
X35002773Y-101789500D01*
X34997222Y-101789344D01*
X34703302Y-101772837D01*
X34692270Y-101771594D01*
X34404790Y-101722750D01*
X34393966Y-101720280D01*
X34113752Y-101639551D01*
X34103273Y-101635884D01*
X33833865Y-101524291D01*
X33823863Y-101519474D01*
X33568645Y-101378421D01*
X33559244Y-101372514D01*
X33321424Y-101203771D01*
X33312745Y-101196850D01*
X33211695Y-101106547D01*
X33095302Y-101002532D01*
X33087467Y-100994697D01*
X32969745Y-100862966D01*
X32893149Y-100777254D01*
X32886228Y-100768575D01*
X32717485Y-100530755D01*
X32711578Y-100521354D01*
X32688723Y-100480000D01*
X41434405Y-100480000D01*
X41435252Y-100486434D01*
X41453851Y-100627715D01*
X41453852Y-100627720D01*
X41454699Y-100634151D01*
X41514200Y-100777798D01*
X41608851Y-100901149D01*
X41732202Y-100995800D01*
X41875849Y-101055301D01*
X42030000Y-101075595D01*
X42184151Y-101055301D01*
X42327798Y-100995800D01*
X42451149Y-100901149D01*
X42545800Y-100777798D01*
X42605301Y-100634151D01*
X42625595Y-100480000D01*
X42624278Y-100470000D01*
X43984405Y-100470000D01*
X43985252Y-100476434D01*
X44003851Y-100617715D01*
X44003852Y-100617720D01*
X44004699Y-100624151D01*
X44064200Y-100767798D01*
X44158851Y-100891149D01*
X44282202Y-100985800D01*
X44425849Y-101045301D01*
X44580000Y-101065595D01*
X44734151Y-101045301D01*
X44877798Y-100985800D01*
X45001149Y-100891149D01*
X45095800Y-100767798D01*
X45155301Y-100624151D01*
X45173431Y-100486434D01*
X45174748Y-100476434D01*
X45175595Y-100470000D01*
X45172962Y-100450000D01*
X46844405Y-100450000D01*
X46845252Y-100456434D01*
X46863851Y-100597715D01*
X46863852Y-100597720D01*
X46864699Y-100604151D01*
X46924200Y-100747798D01*
X47018851Y-100871149D01*
X47142202Y-100965800D01*
X47285849Y-101025301D01*
X47440000Y-101045595D01*
X47594151Y-101025301D01*
X47737798Y-100965800D01*
X47861149Y-100871149D01*
X47955800Y-100747798D01*
X48015301Y-100604151D01*
X48032962Y-100470000D01*
X49784405Y-100470000D01*
X49785252Y-100476434D01*
X49803851Y-100617715D01*
X49803852Y-100617720D01*
X49804699Y-100624151D01*
X49864200Y-100767798D01*
X49958851Y-100891149D01*
X50082202Y-100985800D01*
X50225849Y-101045301D01*
X50380000Y-101065595D01*
X50534151Y-101045301D01*
X50677798Y-100985800D01*
X50801149Y-100891149D01*
X50895800Y-100767798D01*
X50955301Y-100624151D01*
X50973431Y-100486434D01*
X50974748Y-100476434D01*
X50975595Y-100470000D01*
X50955301Y-100315849D01*
X50895800Y-100172203D01*
X50801149Y-100048851D01*
X50781196Y-100033540D01*
X50747046Y-99984771D01*
X50747046Y-99925229D01*
X50781196Y-99876459D01*
X50801149Y-99861149D01*
X50895800Y-99737798D01*
X50955301Y-99594151D01*
X50973431Y-99456434D01*
X50974748Y-99446434D01*
X50975595Y-99440000D01*
X50955301Y-99285849D01*
X50895800Y-99142203D01*
X50801149Y-99018851D01*
X50801149Y-99018850D01*
X50802120Y-99018105D01*
X50780479Y-98980619D01*
X50780483Y-98929368D01*
X50802122Y-98891896D01*
X50801149Y-98891149D01*
X50801148Y-98891149D01*
X50895800Y-98767798D01*
X50955301Y-98624151D01*
X50973431Y-98486434D01*
X50974748Y-98476434D01*
X50975595Y-98470000D01*
X50955301Y-98315849D01*
X50895800Y-98172203D01*
X50801149Y-98048851D01*
X50802120Y-98048105D01*
X50780479Y-98010619D01*
X50780483Y-97959368D01*
X50802122Y-97921896D01*
X50801149Y-97921149D01*
X50801148Y-97921149D01*
X50895800Y-97797798D01*
X50955301Y-97654151D01*
X50973431Y-97516434D01*
X50974748Y-97506434D01*
X50975595Y-97500000D01*
X50955301Y-97345849D01*
X50895800Y-97202203D01*
X50817581Y-97100266D01*
X50799471Y-97061427D01*
X50799471Y-97018572D01*
X50817580Y-96979735D01*
X50895800Y-96877798D01*
X50955301Y-96734151D01*
X50973431Y-96596434D01*
X50974748Y-96586434D01*
X50975595Y-96580000D01*
X50955301Y-96425849D01*
X50895800Y-96282203D01*
X50801149Y-96158851D01*
X50781792Y-96143998D01*
X50682943Y-96068148D01*
X50677798Y-96064200D01*
X50671801Y-96061716D01*
X50623517Y-96041716D01*
X50534151Y-96004699D01*
X50527720Y-96003852D01*
X50527715Y-96003851D01*
X50386434Y-95985252D01*
X50380000Y-95984405D01*
X50373566Y-95985252D01*
X50232284Y-96003851D01*
X50232277Y-96003852D01*
X50225849Y-96004699D01*
X50219852Y-96007182D01*
X50219852Y-96007183D01*
X50088198Y-96061716D01*
X50088193Y-96061718D01*
X50082203Y-96064200D01*
X50077059Y-96068147D01*
X50077054Y-96068150D01*
X49964004Y-96154896D01*
X49963999Y-96154900D01*
X49958851Y-96158851D01*
X49954902Y-96163998D01*
X49954896Y-96164004D01*
X49868150Y-96277054D01*
X49868147Y-96277059D01*
X49864200Y-96282203D01*
X49861718Y-96288193D01*
X49861716Y-96288198D01*
X49815467Y-96399852D01*
X49804699Y-96425849D01*
X49803852Y-96432277D01*
X49803851Y-96432284D01*
X49803382Y-96435849D01*
X49784405Y-96580000D01*
X49785252Y-96586434D01*
X49803851Y-96727715D01*
X49803852Y-96727720D01*
X49804699Y-96734151D01*
X49864200Y-96877798D01*
X49868148Y-96882943D01*
X49942417Y-96979732D01*
X49960528Y-97018572D01*
X49960528Y-97061427D01*
X49942417Y-97100267D01*
X49868151Y-97197053D01*
X49868148Y-97197056D01*
X49864200Y-97202203D01*
X49861718Y-97208193D01*
X49861716Y-97208198D01*
X49807183Y-97339852D01*
X49804699Y-97345849D01*
X49803852Y-97352277D01*
X49803851Y-97352284D01*
X49803382Y-97355849D01*
X49784405Y-97500000D01*
X49785252Y-97506434D01*
X49803851Y-97647715D01*
X49803852Y-97647720D01*
X49804699Y-97654151D01*
X49864200Y-97797798D01*
X49868148Y-97802943D01*
X49958851Y-97921149D01*
X49957879Y-97921894D01*
X49979517Y-97959372D01*
X49979521Y-98010614D01*
X49957880Y-98048106D01*
X49958851Y-98048851D01*
X49868150Y-98167054D01*
X49868147Y-98167059D01*
X49864200Y-98172203D01*
X49861718Y-98178193D01*
X49861716Y-98178198D01*
X49807183Y-98309852D01*
X49804699Y-98315849D01*
X49803852Y-98322277D01*
X49803851Y-98322284D01*
X49803382Y-98325849D01*
X49784405Y-98470000D01*
X49785252Y-98476434D01*
X49803851Y-98617715D01*
X49803852Y-98617720D01*
X49804699Y-98624151D01*
X49864200Y-98767798D01*
X49868148Y-98772943D01*
X49958851Y-98891149D01*
X49957879Y-98891894D01*
X49979517Y-98929372D01*
X49979521Y-98980614D01*
X49957880Y-99018106D01*
X49958851Y-99018851D01*
X49868150Y-99137054D01*
X49868147Y-99137059D01*
X49864200Y-99142203D01*
X49861718Y-99148193D01*
X49861716Y-99148198D01*
X49814175Y-99262972D01*
X49804699Y-99285849D01*
X49803852Y-99292277D01*
X49803851Y-99292284D01*
X49789970Y-99397729D01*
X49784405Y-99440000D01*
X49785252Y-99446434D01*
X49803851Y-99587715D01*
X49803852Y-99587720D01*
X49804699Y-99594151D01*
X49864200Y-99737798D01*
X49958851Y-99861149D01*
X49963999Y-99865099D01*
X49964006Y-99865106D01*
X49978802Y-99876460D01*
X50012951Y-99925231D01*
X50012951Y-99984769D01*
X49978802Y-100033540D01*
X49964002Y-100044896D01*
X49963991Y-100044906D01*
X49958851Y-100048851D01*
X49954903Y-100053995D01*
X49954901Y-100053998D01*
X49868150Y-100167054D01*
X49868147Y-100167059D01*
X49864200Y-100172203D01*
X49861718Y-100178193D01*
X49861716Y-100178198D01*
X49829434Y-100256134D01*
X49804699Y-100315849D01*
X49803852Y-100322277D01*
X49803851Y-100322284D01*
X49803382Y-100325849D01*
X49784405Y-100470000D01*
X48032962Y-100470000D01*
X48035595Y-100450000D01*
X48015301Y-100295849D01*
X47955800Y-100152203D01*
X47861149Y-100028851D01*
X47816735Y-99994771D01*
X47742943Y-99938148D01*
X47737798Y-99934200D01*
X47731801Y-99931716D01*
X47686866Y-99913103D01*
X47594151Y-99874699D01*
X47587720Y-99873852D01*
X47587715Y-99873851D01*
X47446434Y-99855252D01*
X47440000Y-99854405D01*
X47433566Y-99855252D01*
X47292284Y-99873851D01*
X47292277Y-99873852D01*
X47285849Y-99874699D01*
X47279852Y-99877182D01*
X47279852Y-99877183D01*
X47148198Y-99931716D01*
X47148193Y-99931718D01*
X47142203Y-99934200D01*
X47137059Y-99938147D01*
X47137054Y-99938150D01*
X47024004Y-100024896D01*
X47023999Y-100024900D01*
X47018851Y-100028851D01*
X47014902Y-100033998D01*
X47014896Y-100034004D01*
X46928150Y-100147054D01*
X46928147Y-100147059D01*
X46924200Y-100152203D01*
X46921718Y-100158193D01*
X46921716Y-100158198D01*
X46877007Y-100266136D01*
X46864699Y-100295849D01*
X46863852Y-100302277D01*
X46863851Y-100302284D01*
X46860749Y-100325849D01*
X46844405Y-100450000D01*
X45172962Y-100450000D01*
X45155301Y-100315849D01*
X45095800Y-100172203D01*
X45001149Y-100048851D01*
X44995997Y-100044898D01*
X44882943Y-99958148D01*
X44877798Y-99954200D01*
X44871801Y-99951716D01*
X44807856Y-99925229D01*
X44734151Y-99894699D01*
X44727720Y-99893852D01*
X44727715Y-99893851D01*
X44586434Y-99875252D01*
X44580000Y-99874405D01*
X44573566Y-99875252D01*
X44432284Y-99893851D01*
X44432277Y-99893852D01*
X44425849Y-99894699D01*
X44419852Y-99897182D01*
X44419852Y-99897183D01*
X44288198Y-99951716D01*
X44288193Y-99951718D01*
X44282203Y-99954200D01*
X44277059Y-99958147D01*
X44277054Y-99958150D01*
X44164004Y-100044896D01*
X44163999Y-100044900D01*
X44158851Y-100048851D01*
X44154902Y-100053998D01*
X44154896Y-100054004D01*
X44068150Y-100167054D01*
X44068147Y-100167059D01*
X44064200Y-100172203D01*
X44061718Y-100178193D01*
X44061716Y-100178198D01*
X44029434Y-100256134D01*
X44004699Y-100315849D01*
X44003852Y-100322277D01*
X44003851Y-100322284D01*
X44003382Y-100325849D01*
X43984405Y-100470000D01*
X42624278Y-100470000D01*
X42606148Y-100332284D01*
X42605301Y-100325849D01*
X42545800Y-100182203D01*
X42451149Y-100058851D01*
X42431196Y-100043540D01*
X42397046Y-99994771D01*
X42397046Y-99935229D01*
X42431196Y-99886459D01*
X42451149Y-99871149D01*
X42545800Y-99747798D01*
X42605301Y-99604151D01*
X42625595Y-99450000D01*
X42624278Y-99440000D01*
X42621403Y-99418160D01*
X42605301Y-99295849D01*
X42545800Y-99152203D01*
X42451149Y-99028851D01*
X42452120Y-99028105D01*
X42430479Y-98990619D01*
X42430483Y-98939368D01*
X42452122Y-98901896D01*
X42451149Y-98901149D01*
X42458822Y-98891149D01*
X42545800Y-98777798D01*
X42605301Y-98634151D01*
X42625595Y-98480000D01*
X42624278Y-98470000D01*
X42606148Y-98332284D01*
X42605301Y-98325849D01*
X42545800Y-98182203D01*
X42451149Y-98058851D01*
X42452120Y-98058105D01*
X42430479Y-98020619D01*
X42430483Y-97969368D01*
X42452122Y-97931896D01*
X42451149Y-97931149D01*
X42458822Y-97921149D01*
X42545800Y-97807798D01*
X42605301Y-97664151D01*
X42625595Y-97510000D01*
X42624278Y-97500000D01*
X42606148Y-97362284D01*
X42605301Y-97355849D01*
X42545800Y-97212203D01*
X42467581Y-97110266D01*
X42449471Y-97071427D01*
X42449471Y-97028572D01*
X42467580Y-96989735D01*
X42545800Y-96887798D01*
X42605301Y-96744151D01*
X42625595Y-96590000D01*
X42624278Y-96580000D01*
X43984405Y-96580000D01*
X43985252Y-96586434D01*
X44003851Y-96727715D01*
X44003852Y-96727720D01*
X44004699Y-96734151D01*
X44064200Y-96877798D01*
X44158851Y-97001149D01*
X44282202Y-97095800D01*
X44425849Y-97155301D01*
X44580000Y-97175595D01*
X44734151Y-97155301D01*
X44877798Y-97095800D01*
X45001149Y-97001149D01*
X45095800Y-96877798D01*
X45155301Y-96734151D01*
X45173431Y-96596434D01*
X45174748Y-96586434D01*
X45175595Y-96580000D01*
X45172962Y-96560000D01*
X46844405Y-96560000D01*
X46845252Y-96566434D01*
X46863851Y-96707715D01*
X46863852Y-96707720D01*
X46864699Y-96714151D01*
X46924200Y-96857798D01*
X47018851Y-96981149D01*
X47142202Y-97075800D01*
X47285849Y-97135301D01*
X47440000Y-97155595D01*
X47594151Y-97135301D01*
X47737798Y-97075800D01*
X47861149Y-96981149D01*
X47955800Y-96857798D01*
X48015301Y-96714151D01*
X48035595Y-96560000D01*
X48015301Y-96405849D01*
X47955800Y-96262203D01*
X47861149Y-96138851D01*
X47769007Y-96068148D01*
X47742943Y-96048148D01*
X47737798Y-96044200D01*
X47731801Y-96041716D01*
X47666577Y-96014699D01*
X47594151Y-95984699D01*
X47587720Y-95983852D01*
X47587715Y-95983851D01*
X47446434Y-95965252D01*
X47440000Y-95964405D01*
X47433566Y-95965252D01*
X47292284Y-95983851D01*
X47292277Y-95983852D01*
X47285849Y-95984699D01*
X47279852Y-95987182D01*
X47279852Y-95987183D01*
X47148198Y-96041716D01*
X47148193Y-96041718D01*
X47142203Y-96044200D01*
X47137059Y-96048147D01*
X47137054Y-96048150D01*
X47024004Y-96134896D01*
X47023999Y-96134900D01*
X47018851Y-96138851D01*
X47014902Y-96143998D01*
X47014896Y-96144004D01*
X46928150Y-96257054D01*
X46928147Y-96257059D01*
X46924200Y-96262203D01*
X46921718Y-96268193D01*
X46921716Y-96268198D01*
X46913906Y-96287054D01*
X46864699Y-96405849D01*
X46863852Y-96412277D01*
X46863851Y-96412284D01*
X46860749Y-96435849D01*
X46844405Y-96560000D01*
X45172962Y-96560000D01*
X45155301Y-96425849D01*
X45095800Y-96282203D01*
X45001149Y-96158851D01*
X44981792Y-96143998D01*
X44882943Y-96068148D01*
X44877798Y-96064200D01*
X44871801Y-96061716D01*
X44823517Y-96041716D01*
X44734151Y-96004699D01*
X44727720Y-96003852D01*
X44727715Y-96003851D01*
X44586434Y-95985252D01*
X44580000Y-95984405D01*
X44573566Y-95985252D01*
X44432284Y-96003851D01*
X44432277Y-96003852D01*
X44425849Y-96004699D01*
X44419852Y-96007182D01*
X44419852Y-96007183D01*
X44288198Y-96061716D01*
X44288193Y-96061718D01*
X44282203Y-96064200D01*
X44277059Y-96068147D01*
X44277054Y-96068150D01*
X44164004Y-96154896D01*
X44163999Y-96154900D01*
X44158851Y-96158851D01*
X44154902Y-96163998D01*
X44154896Y-96164004D01*
X44068150Y-96277054D01*
X44068147Y-96277059D01*
X44064200Y-96282203D01*
X44061718Y-96288193D01*
X44061716Y-96288198D01*
X44015467Y-96399852D01*
X44004699Y-96425849D01*
X44003852Y-96432277D01*
X44003851Y-96432284D01*
X44003382Y-96435849D01*
X43984405Y-96580000D01*
X42624278Y-96580000D01*
X42606148Y-96442284D01*
X42605301Y-96435849D01*
X42545800Y-96292203D01*
X42451149Y-96168851D01*
X42444832Y-96164004D01*
X42332943Y-96078148D01*
X42327798Y-96074200D01*
X42321801Y-96071716D01*
X42255372Y-96044200D01*
X42184151Y-96014699D01*
X42177720Y-96013852D01*
X42177715Y-96013851D01*
X42036434Y-95995252D01*
X42030000Y-95994405D01*
X42023566Y-95995252D01*
X41882284Y-96013851D01*
X41882277Y-96013852D01*
X41875849Y-96014699D01*
X41869852Y-96017182D01*
X41869852Y-96017183D01*
X41738198Y-96071716D01*
X41738193Y-96071718D01*
X41732203Y-96074200D01*
X41727059Y-96078147D01*
X41727054Y-96078150D01*
X41614004Y-96164896D01*
X41613999Y-96164900D01*
X41608851Y-96168851D01*
X41604902Y-96173998D01*
X41604896Y-96174004D01*
X41518150Y-96287054D01*
X41518147Y-96287059D01*
X41514200Y-96292203D01*
X41511718Y-96298193D01*
X41511716Y-96298198D01*
X41464460Y-96412284D01*
X41454699Y-96435849D01*
X41453852Y-96442277D01*
X41453851Y-96442284D01*
X41435252Y-96583566D01*
X41434405Y-96590000D01*
X41435252Y-96596434D01*
X41453851Y-96737715D01*
X41453852Y-96737720D01*
X41454699Y-96744151D01*
X41514200Y-96887798D01*
X41518148Y-96892943D01*
X41592417Y-96989732D01*
X41610528Y-97028572D01*
X41610528Y-97071427D01*
X41592417Y-97110267D01*
X41518151Y-97207053D01*
X41518148Y-97207056D01*
X41514200Y-97212203D01*
X41511718Y-97218193D01*
X41511716Y-97218198D01*
X41461325Y-97339852D01*
X41454699Y-97355849D01*
X41453852Y-97362277D01*
X41453851Y-97362284D01*
X41435252Y-97503566D01*
X41434405Y-97510000D01*
X41435252Y-97516434D01*
X41453851Y-97657715D01*
X41453852Y-97657720D01*
X41454699Y-97664151D01*
X41514200Y-97807798D01*
X41518148Y-97812943D01*
X41608851Y-97931149D01*
X41607879Y-97931894D01*
X41629517Y-97969372D01*
X41629521Y-98020614D01*
X41607880Y-98058106D01*
X41608851Y-98058851D01*
X41518150Y-98177054D01*
X41518147Y-98177059D01*
X41514200Y-98182203D01*
X41511718Y-98188193D01*
X41511716Y-98188198D01*
X41461325Y-98309852D01*
X41454699Y-98325849D01*
X41453852Y-98332277D01*
X41453851Y-98332284D01*
X41435252Y-98473566D01*
X41434405Y-98480000D01*
X41435252Y-98486434D01*
X41453851Y-98627715D01*
X41453852Y-98627720D01*
X41454699Y-98634151D01*
X41514200Y-98777798D01*
X41518148Y-98782943D01*
X41608851Y-98901149D01*
X41607879Y-98901894D01*
X41629517Y-98939372D01*
X41629521Y-98990614D01*
X41607880Y-99028106D01*
X41608851Y-99028851D01*
X41518150Y-99147054D01*
X41518147Y-99147059D01*
X41514200Y-99152203D01*
X41511718Y-99158193D01*
X41511716Y-99158198D01*
X41468317Y-99262972D01*
X41454699Y-99295849D01*
X41453852Y-99302277D01*
X41453851Y-99302284D01*
X41435252Y-99443566D01*
X41434405Y-99450000D01*
X41435252Y-99456434D01*
X41453851Y-99597715D01*
X41453852Y-99597720D01*
X41454699Y-99604151D01*
X41514200Y-99747798D01*
X41608851Y-99871149D01*
X41613999Y-99875099D01*
X41614006Y-99875106D01*
X41628802Y-99886460D01*
X41662951Y-99935231D01*
X41662951Y-99994769D01*
X41628802Y-100043540D01*
X41614002Y-100054896D01*
X41613991Y-100054906D01*
X41608851Y-100058851D01*
X41604903Y-100063995D01*
X41604901Y-100063998D01*
X41518150Y-100177054D01*
X41518147Y-100177059D01*
X41514200Y-100182203D01*
X41511718Y-100188193D01*
X41511716Y-100188198D01*
X41464460Y-100302284D01*
X41454699Y-100325849D01*
X41453852Y-100332277D01*
X41453851Y-100332284D01*
X41435252Y-100473566D01*
X41434405Y-100480000D01*
X32688723Y-100480000D01*
X32570525Y-100266136D01*
X32565708Y-100256134D01*
X32532952Y-100177054D01*
X32454113Y-99986722D01*
X32450448Y-99976247D01*
X32447208Y-99965000D01*
X32369715Y-99696018D01*
X32367252Y-99685224D01*
X32318404Y-99397724D01*
X32317162Y-99386697D01*
X32311723Y-99289852D01*
X32300655Y-99092777D01*
X32300500Y-99087227D01*
X32300500Y-91848133D01*
X43984317Y-91848133D01*
X50159317Y-91773133D01*
X50208538Y-89184072D01*
X50219997Y-89182258D01*
X50337269Y-89122504D01*
X50430336Y-89029437D01*
X50490090Y-88912165D01*
X50510679Y-88782168D01*
X50490090Y-88652171D01*
X50430336Y-88534899D01*
X50337269Y-88441832D01*
X50330330Y-88438296D01*
X50330327Y-88438294D01*
X50226937Y-88385614D01*
X50226936Y-88385613D01*
X50223749Y-88383989D01*
X50231125Y-87996000D01*
X50968321Y-87996000D01*
X50969540Y-88003697D01*
X50983260Y-88090327D01*
X50988910Y-88125997D01*
X50992445Y-88132936D01*
X50992446Y-88132937D01*
X51045126Y-88236327D01*
X51045128Y-88236330D01*
X51048664Y-88243269D01*
X51141731Y-88336336D01*
X51148670Y-88339871D01*
X51148672Y-88339873D01*
X51191096Y-88361489D01*
X51259003Y-88396090D01*
X51389000Y-88416679D01*
X51518997Y-88396090D01*
X51636269Y-88336336D01*
X51729336Y-88243269D01*
X51789090Y-88125997D01*
X51809679Y-87996000D01*
X51789090Y-87866003D01*
X51729336Y-87748731D01*
X51636269Y-87655664D01*
X51629330Y-87652128D01*
X51629327Y-87652126D01*
X51525937Y-87599446D01*
X51525936Y-87599445D01*
X51518997Y-87595910D01*
X51511305Y-87594691D01*
X51511303Y-87594691D01*
X51396697Y-87576540D01*
X51389000Y-87575321D01*
X51381303Y-87576540D01*
X51266696Y-87594691D01*
X51266692Y-87594692D01*
X51259003Y-87595910D01*
X51252065Y-87599444D01*
X51252062Y-87599446D01*
X51148672Y-87652126D01*
X51148665Y-87652130D01*
X51141731Y-87655664D01*
X51136226Y-87661168D01*
X51136223Y-87661171D01*
X51054171Y-87743223D01*
X51054168Y-87743226D01*
X51048664Y-87748731D01*
X51045130Y-87755665D01*
X51045126Y-87755672D01*
X50992446Y-87859062D01*
X50992444Y-87859065D01*
X50988910Y-87866003D01*
X50987692Y-87873692D01*
X50987691Y-87873696D01*
X50969756Y-87986937D01*
X50968321Y-87996000D01*
X50231125Y-87996000D01*
X50273731Y-85754955D01*
X54496055Y-85754955D01*
X54516145Y-85958929D01*
X54517556Y-85963581D01*
X54517557Y-85963585D01*
X54573438Y-86147798D01*
X54575642Y-86155064D01*
X54672259Y-86335823D01*
X54675340Y-86339578D01*
X54675342Y-86339580D01*
X54778928Y-86465800D01*
X54802285Y-86494260D01*
X54960722Y-86624286D01*
X55141481Y-86720903D01*
X55337616Y-86780400D01*
X55490470Y-86795455D01*
X56090271Y-86795455D01*
X56092710Y-86795455D01*
X56245564Y-86780400D01*
X56441699Y-86720903D01*
X56622458Y-86624286D01*
X56780895Y-86494260D01*
X56910921Y-86335823D01*
X57007538Y-86155064D01*
X57067035Y-85958929D01*
X57087125Y-85754955D01*
X57067035Y-85550981D01*
X57007538Y-85354846D01*
X56910921Y-85174087D01*
X56780895Y-85015650D01*
X56622458Y-84885624D01*
X56441699Y-84789007D01*
X56437044Y-84787595D01*
X56437042Y-84787594D01*
X56250220Y-84730922D01*
X56250216Y-84730921D01*
X56245564Y-84729510D01*
X56240701Y-84729031D01*
X56095140Y-84714694D01*
X56095133Y-84714693D01*
X56092710Y-84714455D01*
X55490470Y-84714455D01*
X55488047Y-84714693D01*
X55488039Y-84714694D01*
X55342458Y-84729033D01*
X55342457Y-84729033D01*
X55337616Y-84729510D01*
X55332965Y-84730920D01*
X55332959Y-84730922D01*
X55146137Y-84787594D01*
X55146131Y-84787596D01*
X55141481Y-84789007D01*
X55137193Y-84791298D01*
X55137188Y-84791301D01*
X54965009Y-84883332D01*
X54965004Y-84883334D01*
X54960722Y-84885624D01*
X54956971Y-84888702D01*
X54956964Y-84888707D01*
X54806049Y-85012560D01*
X54806043Y-85012565D01*
X54802285Y-85015650D01*
X54799200Y-85019408D01*
X54799195Y-85019414D01*
X54675342Y-85170329D01*
X54675337Y-85170336D01*
X54672259Y-85174087D01*
X54669969Y-85178369D01*
X54669967Y-85178374D01*
X54577936Y-85350553D01*
X54577933Y-85350558D01*
X54575642Y-85354846D01*
X54574231Y-85359496D01*
X54574229Y-85359502D01*
X54517557Y-85546324D01*
X54517555Y-85546330D01*
X54516145Y-85550981D01*
X54515668Y-85555822D01*
X54515668Y-85555823D01*
X54501243Y-85702284D01*
X54496055Y-85754955D01*
X50273731Y-85754955D01*
X50284317Y-85198133D01*
X44009317Y-85163133D01*
X43984317Y-91848133D01*
X32300500Y-91848133D01*
X32300500Y-85850000D01*
X35104405Y-85850000D01*
X35105252Y-85856434D01*
X35123851Y-85997715D01*
X35123852Y-85997720D01*
X35124699Y-86004151D01*
X35184200Y-86147798D01*
X35278851Y-86271149D01*
X35402202Y-86365800D01*
X35545849Y-86425301D01*
X35700000Y-86445595D01*
X35854151Y-86425301D01*
X35997798Y-86365800D01*
X36121149Y-86271149D01*
X36215800Y-86147798D01*
X36275301Y-86004151D01*
X36295595Y-85850000D01*
X37504405Y-85850000D01*
X37505252Y-85856434D01*
X37523851Y-85997715D01*
X37523852Y-85997720D01*
X37524699Y-86004151D01*
X37584200Y-86147798D01*
X37678851Y-86271149D01*
X37802202Y-86365800D01*
X37945849Y-86425301D01*
X38100000Y-86445595D01*
X38254151Y-86425301D01*
X38397798Y-86365800D01*
X38521149Y-86271149D01*
X38615800Y-86147798D01*
X38675301Y-86004151D01*
X38695595Y-85850000D01*
X39804405Y-85850000D01*
X39805252Y-85856434D01*
X39823851Y-85997715D01*
X39823852Y-85997720D01*
X39824699Y-86004151D01*
X39884200Y-86147798D01*
X39978851Y-86271149D01*
X40102202Y-86365800D01*
X40245849Y-86425301D01*
X40400000Y-86445595D01*
X40554151Y-86425301D01*
X40697798Y-86365800D01*
X40821149Y-86271149D01*
X40915800Y-86147798D01*
X40975301Y-86004151D01*
X40982430Y-85950000D01*
X41954405Y-85950000D01*
X41955252Y-85956434D01*
X41973851Y-86097715D01*
X41973852Y-86097720D01*
X41974699Y-86104151D01*
X42034200Y-86247798D01*
X42128851Y-86371149D01*
X42252202Y-86465800D01*
X42395849Y-86525301D01*
X42550000Y-86545595D01*
X42704151Y-86525301D01*
X42847798Y-86465800D01*
X42971149Y-86371149D01*
X43065800Y-86247798D01*
X43125301Y-86104151D01*
X43143807Y-85963585D01*
X43144748Y-85956434D01*
X43145595Y-85950000D01*
X43125301Y-85795849D01*
X43065800Y-85652203D01*
X42971149Y-85528851D01*
X42847798Y-85434200D01*
X42841801Y-85431716D01*
X42796866Y-85413103D01*
X42704151Y-85374699D01*
X42697720Y-85373852D01*
X42697715Y-85373851D01*
X42556434Y-85355252D01*
X42550000Y-85354405D01*
X42543566Y-85355252D01*
X42402284Y-85373851D01*
X42402277Y-85373852D01*
X42395849Y-85374699D01*
X42389852Y-85377182D01*
X42389852Y-85377183D01*
X42258198Y-85431716D01*
X42258193Y-85431718D01*
X42252203Y-85434200D01*
X42247059Y-85438147D01*
X42247054Y-85438150D01*
X42134004Y-85524896D01*
X42133999Y-85524900D01*
X42128851Y-85528851D01*
X42124902Y-85533998D01*
X42124896Y-85534004D01*
X42038150Y-85647054D01*
X42038147Y-85647059D01*
X42034200Y-85652203D01*
X42031718Y-85658193D01*
X42031716Y-85658198D01*
X42013455Y-85702284D01*
X41974699Y-85795849D01*
X41973852Y-85802277D01*
X41973851Y-85802284D01*
X41955252Y-85943566D01*
X41954405Y-85950000D01*
X40982430Y-85950000D01*
X40995595Y-85850000D01*
X40975301Y-85695849D01*
X40915800Y-85552203D01*
X40821149Y-85428851D01*
X40697798Y-85334200D01*
X40691801Y-85331716D01*
X40646866Y-85313103D01*
X40554151Y-85274699D01*
X40547720Y-85273852D01*
X40547715Y-85273851D01*
X40406434Y-85255252D01*
X40400000Y-85254405D01*
X40393566Y-85255252D01*
X40252284Y-85273851D01*
X40252277Y-85273852D01*
X40245849Y-85274699D01*
X40239852Y-85277182D01*
X40239852Y-85277183D01*
X40108198Y-85331716D01*
X40108193Y-85331718D01*
X40102203Y-85334200D01*
X40097059Y-85338147D01*
X40097054Y-85338150D01*
X39984004Y-85424896D01*
X39983999Y-85424900D01*
X39978851Y-85428851D01*
X39974902Y-85433998D01*
X39974896Y-85434004D01*
X39888150Y-85547054D01*
X39888147Y-85547059D01*
X39884200Y-85552203D01*
X39881718Y-85558193D01*
X39881716Y-85558198D01*
X39844911Y-85647054D01*
X39824699Y-85695849D01*
X39823852Y-85702277D01*
X39823851Y-85702284D01*
X39816280Y-85759798D01*
X39804405Y-85850000D01*
X38695595Y-85850000D01*
X38675301Y-85695849D01*
X38615800Y-85552203D01*
X38521149Y-85428851D01*
X38397798Y-85334200D01*
X38391801Y-85331716D01*
X38346866Y-85313103D01*
X38254151Y-85274699D01*
X38247720Y-85273852D01*
X38247715Y-85273851D01*
X38106434Y-85255252D01*
X38100000Y-85254405D01*
X38093566Y-85255252D01*
X37952284Y-85273851D01*
X37952277Y-85273852D01*
X37945849Y-85274699D01*
X37939852Y-85277182D01*
X37939852Y-85277183D01*
X37808198Y-85331716D01*
X37808193Y-85331718D01*
X37802203Y-85334200D01*
X37797059Y-85338147D01*
X37797054Y-85338150D01*
X37684004Y-85424896D01*
X37683999Y-85424900D01*
X37678851Y-85428851D01*
X37674902Y-85433998D01*
X37674896Y-85434004D01*
X37588150Y-85547054D01*
X37588147Y-85547059D01*
X37584200Y-85552203D01*
X37581718Y-85558193D01*
X37581716Y-85558198D01*
X37544911Y-85647054D01*
X37524699Y-85695849D01*
X37523852Y-85702277D01*
X37523851Y-85702284D01*
X37516280Y-85759798D01*
X37504405Y-85850000D01*
X36295595Y-85850000D01*
X36275301Y-85695849D01*
X36215800Y-85552203D01*
X36121149Y-85428851D01*
X35997798Y-85334200D01*
X35991801Y-85331716D01*
X35946866Y-85313103D01*
X35854151Y-85274699D01*
X35847720Y-85273852D01*
X35847715Y-85273851D01*
X35706434Y-85255252D01*
X35700000Y-85254405D01*
X35693566Y-85255252D01*
X35552284Y-85273851D01*
X35552277Y-85273852D01*
X35545849Y-85274699D01*
X35539852Y-85277182D01*
X35539852Y-85277183D01*
X35408198Y-85331716D01*
X35408193Y-85331718D01*
X35402203Y-85334200D01*
X35397059Y-85338147D01*
X35397054Y-85338150D01*
X35284004Y-85424896D01*
X35283999Y-85424900D01*
X35278851Y-85428851D01*
X35274902Y-85433998D01*
X35274896Y-85434004D01*
X35188150Y-85547054D01*
X35188147Y-85547059D01*
X35184200Y-85552203D01*
X35181718Y-85558193D01*
X35181716Y-85558198D01*
X35144911Y-85647054D01*
X35124699Y-85695849D01*
X35123852Y-85702277D01*
X35123851Y-85702284D01*
X35116280Y-85759798D01*
X35104405Y-85850000D01*
X32300500Y-85850000D01*
X32300500Y-84400000D01*
X35054405Y-84400000D01*
X35055252Y-84406434D01*
X35073851Y-84547715D01*
X35073852Y-84547720D01*
X35074699Y-84554151D01*
X35134200Y-84697798D01*
X35228851Y-84821149D01*
X35352202Y-84915800D01*
X35495849Y-84975301D01*
X35650000Y-84995595D01*
X35804151Y-84975301D01*
X35947798Y-84915800D01*
X36071149Y-84821149D01*
X36165800Y-84697798D01*
X36225301Y-84554151D01*
X36245595Y-84400000D01*
X37504405Y-84400000D01*
X37505252Y-84406434D01*
X37523851Y-84547715D01*
X37523852Y-84547720D01*
X37524699Y-84554151D01*
X37584200Y-84697798D01*
X37678851Y-84821149D01*
X37802202Y-84915800D01*
X37945849Y-84975301D01*
X38100000Y-84995595D01*
X38254151Y-84975301D01*
X38397798Y-84915800D01*
X38521149Y-84821149D01*
X38615800Y-84697798D01*
X38675301Y-84554151D01*
X38695595Y-84400000D01*
X39804405Y-84400000D01*
X39805252Y-84406434D01*
X39823851Y-84547715D01*
X39823852Y-84547720D01*
X39824699Y-84554151D01*
X39884200Y-84697798D01*
X39978851Y-84821149D01*
X40102202Y-84915800D01*
X40245849Y-84975301D01*
X40400000Y-84995595D01*
X40554151Y-84975301D01*
X40697798Y-84915800D01*
X40821149Y-84821149D01*
X40915800Y-84697798D01*
X40975301Y-84554151D01*
X40995595Y-84400000D01*
X42054405Y-84400000D01*
X42055252Y-84406434D01*
X42073851Y-84547715D01*
X42073852Y-84547720D01*
X42074699Y-84554151D01*
X42134200Y-84697798D01*
X42228851Y-84821149D01*
X42352202Y-84915800D01*
X42495849Y-84975301D01*
X42650000Y-84995595D01*
X42804151Y-84975301D01*
X42947798Y-84915800D01*
X43071149Y-84821149D01*
X43165800Y-84697798D01*
X43225301Y-84554151D01*
X43245595Y-84400000D01*
X43225301Y-84245849D01*
X43165800Y-84102203D01*
X43071149Y-83978851D01*
X42947798Y-83884200D01*
X42941801Y-83881716D01*
X42896866Y-83863103D01*
X42804151Y-83824699D01*
X42797720Y-83823852D01*
X42797715Y-83823851D01*
X42656434Y-83805252D01*
X42650000Y-83804405D01*
X42643566Y-83805252D01*
X42502284Y-83823851D01*
X42502277Y-83823852D01*
X42495849Y-83824699D01*
X42489852Y-83827182D01*
X42489852Y-83827183D01*
X42358198Y-83881716D01*
X42358193Y-83881718D01*
X42352203Y-83884200D01*
X42347059Y-83888147D01*
X42347054Y-83888150D01*
X42234004Y-83974896D01*
X42233999Y-83974900D01*
X42228851Y-83978851D01*
X42224902Y-83983998D01*
X42224896Y-83984004D01*
X42138150Y-84097054D01*
X42138147Y-84097059D01*
X42134200Y-84102203D01*
X42131718Y-84108193D01*
X42131716Y-84108198D01*
X42085983Y-84218608D01*
X42074699Y-84245849D01*
X42073852Y-84252277D01*
X42073851Y-84252284D01*
X42068168Y-84295455D01*
X42054405Y-84400000D01*
X40995595Y-84400000D01*
X40975301Y-84245849D01*
X40915800Y-84102203D01*
X40821149Y-83978851D01*
X40697798Y-83884200D01*
X40691801Y-83881716D01*
X40646866Y-83863103D01*
X40554151Y-83824699D01*
X40547720Y-83823852D01*
X40547715Y-83823851D01*
X40406434Y-83805252D01*
X40400000Y-83804405D01*
X40393566Y-83805252D01*
X40252284Y-83823851D01*
X40252277Y-83823852D01*
X40245849Y-83824699D01*
X40239852Y-83827182D01*
X40239852Y-83827183D01*
X40108198Y-83881716D01*
X40108193Y-83881718D01*
X40102203Y-83884200D01*
X40097059Y-83888147D01*
X40097054Y-83888150D01*
X39984004Y-83974896D01*
X39983999Y-83974900D01*
X39978851Y-83978851D01*
X39974902Y-83983998D01*
X39974896Y-83984004D01*
X39888150Y-84097054D01*
X39888147Y-84097059D01*
X39884200Y-84102203D01*
X39881718Y-84108193D01*
X39881716Y-84108198D01*
X39835983Y-84218608D01*
X39824699Y-84245849D01*
X39823852Y-84252277D01*
X39823851Y-84252284D01*
X39818168Y-84295455D01*
X39804405Y-84400000D01*
X38695595Y-84400000D01*
X38675301Y-84245849D01*
X38615800Y-84102203D01*
X38521149Y-83978851D01*
X38397798Y-83884200D01*
X38391801Y-83881716D01*
X38346866Y-83863103D01*
X38254151Y-83824699D01*
X38247720Y-83823852D01*
X38247715Y-83823851D01*
X38106434Y-83805252D01*
X38100000Y-83804405D01*
X38093566Y-83805252D01*
X37952284Y-83823851D01*
X37952277Y-83823852D01*
X37945849Y-83824699D01*
X37939852Y-83827182D01*
X37939852Y-83827183D01*
X37808198Y-83881716D01*
X37808193Y-83881718D01*
X37802203Y-83884200D01*
X37797059Y-83888147D01*
X37797054Y-83888150D01*
X37684004Y-83974896D01*
X37683999Y-83974900D01*
X37678851Y-83978851D01*
X37674902Y-83983998D01*
X37674896Y-83984004D01*
X37588150Y-84097054D01*
X37588147Y-84097059D01*
X37584200Y-84102203D01*
X37581718Y-84108193D01*
X37581716Y-84108198D01*
X37535983Y-84218608D01*
X37524699Y-84245849D01*
X37523852Y-84252277D01*
X37523851Y-84252284D01*
X37518168Y-84295455D01*
X37504405Y-84400000D01*
X36245595Y-84400000D01*
X36225301Y-84245849D01*
X36165800Y-84102203D01*
X36071149Y-83978851D01*
X35947798Y-83884200D01*
X35941801Y-83881716D01*
X35896866Y-83863103D01*
X35804151Y-83824699D01*
X35797720Y-83823852D01*
X35797715Y-83823851D01*
X35656434Y-83805252D01*
X35650000Y-83804405D01*
X35643566Y-83805252D01*
X35502284Y-83823851D01*
X35502277Y-83823852D01*
X35495849Y-83824699D01*
X35489852Y-83827182D01*
X35489852Y-83827183D01*
X35358198Y-83881716D01*
X35358193Y-83881718D01*
X35352203Y-83884200D01*
X35347059Y-83888147D01*
X35347054Y-83888150D01*
X35234004Y-83974896D01*
X35233999Y-83974900D01*
X35228851Y-83978851D01*
X35224902Y-83983998D01*
X35224896Y-83984004D01*
X35138150Y-84097054D01*
X35138147Y-84097059D01*
X35134200Y-84102203D01*
X35131718Y-84108193D01*
X35131716Y-84108198D01*
X35085983Y-84218608D01*
X35074699Y-84245849D01*
X35073852Y-84252277D01*
X35073851Y-84252284D01*
X35068168Y-84295455D01*
X35054405Y-84400000D01*
X32300500Y-84400000D01*
X32300500Y-83625000D01*
X46200000Y-83625000D01*
X46203238Y-83636567D01*
X46203239Y-83636569D01*
X46372014Y-84239338D01*
X46372015Y-84239340D01*
X46375000Y-84250000D01*
X47025000Y-84225000D01*
X47037931Y-83850000D01*
X47954321Y-83850000D01*
X47955540Y-83857697D01*
X47959737Y-83884200D01*
X47974910Y-83979997D01*
X47978445Y-83986936D01*
X47978446Y-83986937D01*
X48031126Y-84090327D01*
X48031128Y-84090330D01*
X48034664Y-84097269D01*
X48127731Y-84190336D01*
X48134670Y-84193871D01*
X48134672Y-84193873D01*
X48171396Y-84212585D01*
X48245003Y-84250090D01*
X48375000Y-84270679D01*
X48504997Y-84250090D01*
X48622269Y-84190336D01*
X48715336Y-84097269D01*
X48775090Y-83979997D01*
X48795679Y-83850000D01*
X48775090Y-83720003D01*
X48726683Y-83625000D01*
X48718873Y-83609672D01*
X48718871Y-83609670D01*
X48715336Y-83602731D01*
X48622269Y-83509664D01*
X48615330Y-83506128D01*
X48615327Y-83506126D01*
X48511937Y-83453446D01*
X48511936Y-83453445D01*
X48504997Y-83449910D01*
X48497305Y-83448691D01*
X48497303Y-83448691D01*
X48382697Y-83430540D01*
X48375000Y-83429321D01*
X48367303Y-83430540D01*
X48252696Y-83448691D01*
X48252692Y-83448692D01*
X48245003Y-83449910D01*
X48238065Y-83453444D01*
X48238062Y-83453446D01*
X48134672Y-83506126D01*
X48134665Y-83506130D01*
X48127731Y-83509664D01*
X48122226Y-83515168D01*
X48122223Y-83515171D01*
X48040171Y-83597223D01*
X48040168Y-83597226D01*
X48034664Y-83602731D01*
X48031130Y-83609665D01*
X48031126Y-83609672D01*
X47978446Y-83713062D01*
X47978444Y-83713065D01*
X47974910Y-83720003D01*
X47973692Y-83727692D01*
X47973691Y-83727696D01*
X47961542Y-83804405D01*
X47954321Y-83850000D01*
X47037931Y-83850000D01*
X47050000Y-83500000D01*
X46500000Y-83500000D01*
X46490953Y-83503769D01*
X46490950Y-83503770D01*
X46211088Y-83620379D01*
X46211084Y-83620381D01*
X46200000Y-83625000D01*
X32300500Y-83625000D01*
X32300500Y-83254955D01*
X54496055Y-83254955D01*
X54516145Y-83458929D01*
X54517556Y-83463581D01*
X54517557Y-83463585D01*
X54574229Y-83650407D01*
X54575642Y-83655064D01*
X54672259Y-83835823D01*
X54675340Y-83839578D01*
X54675342Y-83839580D01*
X54793863Y-83983998D01*
X54802285Y-83994260D01*
X54960722Y-84124286D01*
X55141481Y-84220903D01*
X55337616Y-84280400D01*
X55490470Y-84295455D01*
X56090271Y-84295455D01*
X56092710Y-84295455D01*
X56245564Y-84280400D01*
X56441699Y-84220903D01*
X56622458Y-84124286D01*
X56780895Y-83994260D01*
X56910921Y-83835823D01*
X57007538Y-83655064D01*
X57067035Y-83458929D01*
X57087125Y-83254955D01*
X57067035Y-83050981D01*
X57007538Y-82854846D01*
X56910921Y-82674087D01*
X56780895Y-82515650D01*
X56622458Y-82385624D01*
X56441699Y-82289007D01*
X56437044Y-82287595D01*
X56437042Y-82287594D01*
X56250220Y-82230922D01*
X56250216Y-82230921D01*
X56245564Y-82229510D01*
X56240701Y-82229031D01*
X56095140Y-82214694D01*
X56095133Y-82214693D01*
X56092710Y-82214455D01*
X55490470Y-82214455D01*
X55488047Y-82214693D01*
X55488039Y-82214694D01*
X55342458Y-82229033D01*
X55342457Y-82229033D01*
X55337616Y-82229510D01*
X55332965Y-82230920D01*
X55332959Y-82230922D01*
X55146137Y-82287594D01*
X55146131Y-82287596D01*
X55141481Y-82289007D01*
X55137193Y-82291298D01*
X55137188Y-82291301D01*
X54965009Y-82383332D01*
X54965004Y-82383334D01*
X54960722Y-82385624D01*
X54956971Y-82388702D01*
X54956964Y-82388707D01*
X54806049Y-82512560D01*
X54806043Y-82512565D01*
X54802285Y-82515650D01*
X54799200Y-82519408D01*
X54799195Y-82519414D01*
X54675342Y-82670329D01*
X54675337Y-82670336D01*
X54672259Y-82674087D01*
X54669969Y-82678369D01*
X54669967Y-82678374D01*
X54577936Y-82850553D01*
X54577933Y-82850558D01*
X54575642Y-82854846D01*
X54574231Y-82859496D01*
X54574229Y-82859502D01*
X54517557Y-83046324D01*
X54517555Y-83046330D01*
X54516145Y-83050981D01*
X54496055Y-83254955D01*
X32300500Y-83254955D01*
X32300500Y-79852231D01*
X40830741Y-79852231D01*
X40831221Y-79856189D01*
X40831222Y-79856197D01*
X40860240Y-80095178D01*
X40860241Y-80095186D01*
X40860722Y-80099142D01*
X40929921Y-80338046D01*
X40931627Y-80341642D01*
X40931630Y-80341649D01*
X41034836Y-80559151D01*
X41036547Y-80562756D01*
X41038808Y-80566033D01*
X41038813Y-80566040D01*
X41106777Y-80664502D01*
X41177839Y-80767452D01*
X41350136Y-80946832D01*
X41548977Y-81096251D01*
X41769211Y-81211839D01*
X42005135Y-81290602D01*
X42250638Y-81330500D01*
X43435084Y-81330500D01*
X43437085Y-81330500D01*
X43622918Y-81315498D01*
X43864414Y-81255974D01*
X44093235Y-81158483D01*
X44303454Y-81025548D01*
X44489627Y-80860614D01*
X44646931Y-80667951D01*
X44771293Y-80452549D01*
X44859492Y-80219988D01*
X44909243Y-79976291D01*
X44919259Y-79727769D01*
X44889278Y-79480858D01*
X44820079Y-79241954D01*
X44713453Y-79017244D01*
X44572161Y-78812548D01*
X44399864Y-78633168D01*
X44201023Y-78483749D01*
X44197495Y-78481897D01*
X44197493Y-78481896D01*
X43984319Y-78370013D01*
X43984312Y-78370010D01*
X43980789Y-78368161D01*
X43977006Y-78366898D01*
X43748652Y-78290662D01*
X43748648Y-78290661D01*
X43744865Y-78289398D01*
X43740933Y-78288759D01*
X43740925Y-78288757D01*
X43503299Y-78250139D01*
X43503288Y-78250138D01*
X43499362Y-78249500D01*
X42312915Y-78249500D01*
X42310944Y-78249659D01*
X42310921Y-78249660D01*
X42131062Y-78264180D01*
X42131053Y-78264181D01*
X42127082Y-78264502D01*
X42123204Y-78265457D01*
X42123203Y-78265458D01*
X41889464Y-78323070D01*
X41889462Y-78323070D01*
X41885586Y-78324026D01*
X41881922Y-78325586D01*
X41881913Y-78325590D01*
X41660434Y-78419953D01*
X41660425Y-78419957D01*
X41656765Y-78421517D01*
X41653405Y-78423641D01*
X41653393Y-78423648D01*
X41449923Y-78552316D01*
X41449918Y-78552319D01*
X41446546Y-78554452D01*
X41443560Y-78557096D01*
X41443555Y-78557101D01*
X41263359Y-78716740D01*
X41263354Y-78716744D01*
X41260373Y-78719386D01*
X41257856Y-78722468D01*
X41257848Y-78722477D01*
X41105589Y-78908962D01*
X41103069Y-78912049D01*
X41101084Y-78915485D01*
X41101077Y-78915497D01*
X40980699Y-79123999D01*
X40980694Y-79124008D01*
X40978707Y-79127451D01*
X40977295Y-79131172D01*
X40977293Y-79131178D01*
X40891920Y-79356288D01*
X40890508Y-79360012D01*
X40889712Y-79363907D01*
X40889710Y-79363917D01*
X40841555Y-79599795D01*
X40841553Y-79599807D01*
X40840757Y-79603709D01*
X40840596Y-79607692D01*
X40840596Y-79607696D01*
X40830901Y-79848241D01*
X40830901Y-79848250D01*
X40830741Y-79852231D01*
X32300500Y-79852231D01*
X32300500Y-75652231D01*
X40830741Y-75652231D01*
X40831221Y-75656189D01*
X40831222Y-75656197D01*
X40860240Y-75895178D01*
X40860241Y-75895186D01*
X40860722Y-75899142D01*
X40929921Y-76138046D01*
X40931627Y-76141642D01*
X40931630Y-76141649D01*
X41034836Y-76359151D01*
X41036547Y-76362756D01*
X41038808Y-76366033D01*
X41038813Y-76366040D01*
X41143765Y-76518088D01*
X41177839Y-76567452D01*
X41180598Y-76570324D01*
X41180601Y-76570328D01*
X41253817Y-76646553D01*
X41350136Y-76746832D01*
X41548977Y-76896251D01*
X41769211Y-77011839D01*
X42005135Y-77090602D01*
X42250638Y-77130500D01*
X43435084Y-77130500D01*
X43437085Y-77130500D01*
X43622918Y-77115498D01*
X43864414Y-77055974D01*
X44093235Y-76958483D01*
X44303454Y-76825548D01*
X44489627Y-76660614D01*
X44646931Y-76467951D01*
X44771293Y-76252549D01*
X44772260Y-76250000D01*
X47029321Y-76250000D01*
X47049910Y-76379997D01*
X47053445Y-76386936D01*
X47053446Y-76386937D01*
X47106126Y-76490327D01*
X47106128Y-76490330D01*
X47109664Y-76497269D01*
X47202731Y-76590336D01*
X47209670Y-76593871D01*
X47209672Y-76593873D01*
X47261367Y-76620213D01*
X47320003Y-76650090D01*
X47450000Y-76670679D01*
X47579997Y-76650090D01*
X47697269Y-76590336D01*
X47790336Y-76497269D01*
X47850090Y-76379997D01*
X47861262Y-76309458D01*
X54494465Y-76309458D01*
X54514555Y-76513432D01*
X54515966Y-76518084D01*
X54515967Y-76518088D01*
X54562255Y-76670679D01*
X54574052Y-76709567D01*
X54670669Y-76890326D01*
X54673750Y-76894081D01*
X54673752Y-76894083D01*
X54770392Y-77011839D01*
X54800695Y-77048763D01*
X54804459Y-77051852D01*
X54900095Y-77130339D01*
X54959132Y-77178789D01*
X55139891Y-77275406D01*
X55336026Y-77334903D01*
X55488880Y-77349958D01*
X56088681Y-77349958D01*
X56091120Y-77349958D01*
X56243974Y-77334903D01*
X56440109Y-77275406D01*
X56620868Y-77178789D01*
X56779305Y-77048763D01*
X56909331Y-76890326D01*
X57005948Y-76709567D01*
X57065445Y-76513432D01*
X57085535Y-76309458D01*
X57065445Y-76105484D01*
X57005948Y-75909349D01*
X56909331Y-75728590D01*
X56779305Y-75570153D01*
X56620868Y-75440127D01*
X56616580Y-75437835D01*
X56444401Y-75345804D01*
X56444400Y-75345803D01*
X56440109Y-75343510D01*
X56435454Y-75342098D01*
X56435452Y-75342097D01*
X56248630Y-75285425D01*
X56248626Y-75285424D01*
X56243974Y-75284013D01*
X56239111Y-75283534D01*
X56093550Y-75269197D01*
X56093543Y-75269196D01*
X56091120Y-75268958D01*
X55488880Y-75268958D01*
X55486457Y-75269196D01*
X55486449Y-75269197D01*
X55340868Y-75283536D01*
X55340867Y-75283536D01*
X55336026Y-75284013D01*
X55331375Y-75285423D01*
X55331369Y-75285425D01*
X55144547Y-75342097D01*
X55144541Y-75342099D01*
X55139891Y-75343510D01*
X55135603Y-75345801D01*
X55135598Y-75345804D01*
X54963419Y-75437835D01*
X54963414Y-75437837D01*
X54959132Y-75440127D01*
X54955381Y-75443205D01*
X54955374Y-75443210D01*
X54804459Y-75567063D01*
X54804453Y-75567068D01*
X54800695Y-75570153D01*
X54797610Y-75573911D01*
X54797605Y-75573917D01*
X54673752Y-75724832D01*
X54673747Y-75724839D01*
X54670669Y-75728590D01*
X54668379Y-75732872D01*
X54668377Y-75732877D01*
X54576346Y-75905056D01*
X54576343Y-75905061D01*
X54574052Y-75909349D01*
X54572641Y-75913999D01*
X54572639Y-75914005D01*
X54515967Y-76100827D01*
X54515965Y-76100833D01*
X54514555Y-76105484D01*
X54494465Y-76309458D01*
X47861262Y-76309458D01*
X47870679Y-76250000D01*
X47850090Y-76120003D01*
X47790336Y-76002731D01*
X47697269Y-75909664D01*
X47690330Y-75906128D01*
X47690327Y-75906126D01*
X47586937Y-75853446D01*
X47586936Y-75853445D01*
X47579997Y-75849910D01*
X47572305Y-75848691D01*
X47572303Y-75848691D01*
X47457697Y-75830540D01*
X47450000Y-75829321D01*
X47442303Y-75830540D01*
X47327696Y-75848691D01*
X47327692Y-75848692D01*
X47320003Y-75849910D01*
X47313065Y-75853444D01*
X47313062Y-75853446D01*
X47209672Y-75906126D01*
X47209665Y-75906130D01*
X47202731Y-75909664D01*
X47197226Y-75915168D01*
X47197223Y-75915171D01*
X47115171Y-75997223D01*
X47115168Y-75997226D01*
X47109664Y-76002731D01*
X47106130Y-76009665D01*
X47106126Y-76009672D01*
X47053446Y-76113062D01*
X47053444Y-76113065D01*
X47049910Y-76120003D01*
X47048692Y-76127692D01*
X47048691Y-76127696D01*
X47030540Y-76242303D01*
X47029321Y-76250000D01*
X44772260Y-76250000D01*
X44859492Y-76019988D01*
X44909243Y-75776291D01*
X44919259Y-75527769D01*
X44889278Y-75280858D01*
X44820079Y-75041954D01*
X44713453Y-74817244D01*
X44702453Y-74801308D01*
X44596127Y-74647269D01*
X44572161Y-74612548D01*
X44399864Y-74433168D01*
X44355725Y-74400000D01*
X46539321Y-74400000D01*
X46559910Y-74529997D01*
X46563445Y-74536936D01*
X46563446Y-74536937D01*
X46616126Y-74640327D01*
X46616128Y-74640330D01*
X46619664Y-74647269D01*
X46712731Y-74740336D01*
X46719670Y-74743871D01*
X46719672Y-74743873D01*
X46771366Y-74770212D01*
X46830003Y-74800090D01*
X46960000Y-74820679D01*
X47089997Y-74800090D01*
X47207269Y-74740336D01*
X47300336Y-74647269D01*
X47360090Y-74529997D01*
X47380679Y-74400000D01*
X47360090Y-74270003D01*
X47300336Y-74152731D01*
X47207269Y-74059664D01*
X47200330Y-74056128D01*
X47200327Y-74056126D01*
X47096937Y-74003446D01*
X47096936Y-74003445D01*
X47089997Y-73999910D01*
X47082305Y-73998691D01*
X47082303Y-73998691D01*
X46967697Y-73980540D01*
X46960000Y-73979321D01*
X46952303Y-73980540D01*
X46837696Y-73998691D01*
X46837692Y-73998692D01*
X46830003Y-73999910D01*
X46823065Y-74003444D01*
X46823062Y-74003446D01*
X46719672Y-74056126D01*
X46719665Y-74056130D01*
X46712731Y-74059664D01*
X46707226Y-74065168D01*
X46707223Y-74065171D01*
X46625171Y-74147223D01*
X46625168Y-74147226D01*
X46619664Y-74152731D01*
X46616130Y-74159665D01*
X46616126Y-74159672D01*
X46563446Y-74263062D01*
X46563444Y-74263065D01*
X46559910Y-74270003D01*
X46558692Y-74277692D01*
X46558691Y-74277696D01*
X46546873Y-74352316D01*
X46539321Y-74400000D01*
X44355725Y-74400000D01*
X44345482Y-74392303D01*
X44204210Y-74286144D01*
X44204211Y-74286144D01*
X44201023Y-74283749D01*
X44197495Y-74281897D01*
X44197493Y-74281896D01*
X43984319Y-74170013D01*
X43984312Y-74170010D01*
X43980789Y-74168161D01*
X43977006Y-74166898D01*
X43748652Y-74090662D01*
X43748648Y-74090661D01*
X43744865Y-74089398D01*
X43740933Y-74088759D01*
X43740925Y-74088757D01*
X43503299Y-74050139D01*
X43503288Y-74050138D01*
X43499362Y-74049500D01*
X42312915Y-74049500D01*
X42310944Y-74049659D01*
X42310921Y-74049660D01*
X42131062Y-74064180D01*
X42131053Y-74064181D01*
X42127082Y-74064502D01*
X42123204Y-74065457D01*
X42123203Y-74065458D01*
X41889464Y-74123070D01*
X41889462Y-74123070D01*
X41885586Y-74124026D01*
X41881922Y-74125586D01*
X41881913Y-74125590D01*
X41660434Y-74219953D01*
X41660425Y-74219957D01*
X41656765Y-74221517D01*
X41653405Y-74223641D01*
X41653393Y-74223648D01*
X41449923Y-74352316D01*
X41449918Y-74352319D01*
X41446546Y-74354452D01*
X41443560Y-74357096D01*
X41443555Y-74357101D01*
X41263359Y-74516740D01*
X41263354Y-74516744D01*
X41260373Y-74519386D01*
X41257856Y-74522468D01*
X41257848Y-74522477D01*
X41128354Y-74681080D01*
X41103069Y-74712049D01*
X41101084Y-74715485D01*
X41101077Y-74715497D01*
X40980699Y-74923999D01*
X40980694Y-74924008D01*
X40978707Y-74927451D01*
X40977295Y-74931172D01*
X40977293Y-74931178D01*
X40891920Y-75156288D01*
X40890508Y-75160012D01*
X40889712Y-75163907D01*
X40889710Y-75163917D01*
X40841555Y-75399795D01*
X40841553Y-75399807D01*
X40840757Y-75403709D01*
X40840596Y-75407692D01*
X40840596Y-75407696D01*
X40830901Y-75648241D01*
X40830901Y-75648250D01*
X40830741Y-75652231D01*
X32300500Y-75652231D01*
X32300500Y-73809458D01*
X54494465Y-73809458D01*
X54514555Y-74013432D01*
X54515966Y-74018084D01*
X54515967Y-74018088D01*
X54562053Y-74170013D01*
X54574052Y-74209567D01*
X54670669Y-74390326D01*
X54673750Y-74394081D01*
X54673752Y-74394083D01*
X54797605Y-74544998D01*
X54800695Y-74548763D01*
X54959132Y-74678789D01*
X55139891Y-74775406D01*
X55336026Y-74834903D01*
X55488880Y-74849958D01*
X56088681Y-74849958D01*
X56091120Y-74849958D01*
X56243974Y-74834903D01*
X56440109Y-74775406D01*
X56620868Y-74678789D01*
X56779305Y-74548763D01*
X56909331Y-74390326D01*
X57005948Y-74209567D01*
X57065445Y-74013432D01*
X57085535Y-73809458D01*
X57065445Y-73605484D01*
X57005948Y-73409349D01*
X56909331Y-73228590D01*
X56779305Y-73070153D01*
X56620868Y-72940127D01*
X56525846Y-72889337D01*
X56444401Y-72845804D01*
X56444400Y-72845803D01*
X56440109Y-72843510D01*
X56435454Y-72842098D01*
X56435452Y-72842097D01*
X56248630Y-72785425D01*
X56248626Y-72785424D01*
X56243974Y-72784013D01*
X56239111Y-72783534D01*
X56093550Y-72769197D01*
X56093543Y-72769196D01*
X56091120Y-72768958D01*
X55488880Y-72768958D01*
X55486457Y-72769196D01*
X55486449Y-72769197D01*
X55340868Y-72783536D01*
X55340867Y-72783536D01*
X55336026Y-72784013D01*
X55331375Y-72785423D01*
X55331369Y-72785425D01*
X55144547Y-72842097D01*
X55144541Y-72842099D01*
X55139891Y-72843510D01*
X55135603Y-72845801D01*
X55135598Y-72845804D01*
X54963419Y-72937835D01*
X54963414Y-72937837D01*
X54959132Y-72940127D01*
X54955381Y-72943205D01*
X54955374Y-72943210D01*
X54804459Y-73067063D01*
X54804453Y-73067068D01*
X54800695Y-73070153D01*
X54797610Y-73073911D01*
X54797605Y-73073917D01*
X54673752Y-73224832D01*
X54673747Y-73224839D01*
X54670669Y-73228590D01*
X54668379Y-73232872D01*
X54668377Y-73232877D01*
X54576346Y-73405056D01*
X54576343Y-73405061D01*
X54574052Y-73409349D01*
X54572641Y-73413999D01*
X54572639Y-73414005D01*
X54515967Y-73600827D01*
X54515965Y-73600833D01*
X54514555Y-73605484D01*
X54494465Y-73809458D01*
X32300500Y-73809458D01*
X32300500Y-71452231D01*
X35330741Y-71452231D01*
X35331221Y-71456189D01*
X35331222Y-71456197D01*
X35360240Y-71695178D01*
X35360241Y-71695186D01*
X35360722Y-71699142D01*
X35361832Y-71702976D01*
X35361833Y-71702978D01*
X35377227Y-71756126D01*
X35429921Y-71938046D01*
X35431627Y-71941642D01*
X35431630Y-71941649D01*
X35510421Y-72107697D01*
X35536547Y-72162756D01*
X35538808Y-72166033D01*
X35538813Y-72166040D01*
X35606777Y-72264502D01*
X35677839Y-72367452D01*
X35850136Y-72546832D01*
X36048977Y-72696251D01*
X36269211Y-72811839D01*
X36505135Y-72890602D01*
X36750638Y-72930500D01*
X37935084Y-72930500D01*
X37937085Y-72930500D01*
X38122918Y-72915498D01*
X38364414Y-72855974D01*
X38593235Y-72758483D01*
X38803454Y-72625548D01*
X38989627Y-72460614D01*
X39146931Y-72267951D01*
X39271293Y-72052549D01*
X39359492Y-71819988D01*
X39409243Y-71576291D01*
X39414243Y-71452231D01*
X40830741Y-71452231D01*
X40831221Y-71456189D01*
X40831222Y-71456197D01*
X40860240Y-71695178D01*
X40860241Y-71695186D01*
X40860722Y-71699142D01*
X40861832Y-71702976D01*
X40861833Y-71702978D01*
X40877227Y-71756126D01*
X40929921Y-71938046D01*
X40931627Y-71941642D01*
X40931630Y-71941649D01*
X41010421Y-72107697D01*
X41036547Y-72162756D01*
X41038808Y-72166033D01*
X41038813Y-72166040D01*
X41106777Y-72264502D01*
X41177839Y-72367452D01*
X41350136Y-72546832D01*
X41548977Y-72696251D01*
X41769211Y-72811839D01*
X42005135Y-72890602D01*
X42250638Y-72930500D01*
X43435084Y-72930500D01*
X43437085Y-72930500D01*
X43622918Y-72915498D01*
X43864414Y-72855974D01*
X44093235Y-72758483D01*
X44303454Y-72625548D01*
X44489627Y-72460614D01*
X44646931Y-72267951D01*
X44743897Y-72100000D01*
X49839321Y-72100000D01*
X49859910Y-72229997D01*
X49863445Y-72236936D01*
X49863446Y-72236937D01*
X49916126Y-72340327D01*
X49916128Y-72340330D01*
X49919664Y-72347269D01*
X50012731Y-72440336D01*
X50019670Y-72443871D01*
X50019672Y-72443873D01*
X50046460Y-72457522D01*
X50130003Y-72500090D01*
X50260000Y-72520679D01*
X50389997Y-72500090D01*
X50507269Y-72440336D01*
X50600336Y-72347269D01*
X50660090Y-72229997D01*
X50680679Y-72100000D01*
X50660090Y-71970003D01*
X50600336Y-71852731D01*
X50507269Y-71759664D01*
X50500330Y-71756128D01*
X50500327Y-71756126D01*
X50396937Y-71703446D01*
X50396936Y-71703445D01*
X50389997Y-71699910D01*
X50382305Y-71698691D01*
X50382303Y-71698691D01*
X50267697Y-71680540D01*
X50260000Y-71679321D01*
X50252303Y-71680540D01*
X50137696Y-71698691D01*
X50137692Y-71698692D01*
X50130003Y-71699910D01*
X50123065Y-71703444D01*
X50123062Y-71703446D01*
X50019672Y-71756126D01*
X50019665Y-71756130D01*
X50012731Y-71759664D01*
X50007226Y-71765168D01*
X50007223Y-71765171D01*
X49925171Y-71847223D01*
X49925168Y-71847226D01*
X49919664Y-71852731D01*
X49916130Y-71859665D01*
X49916126Y-71859672D01*
X49863446Y-71963062D01*
X49863444Y-71963065D01*
X49859910Y-71970003D01*
X49858692Y-71977692D01*
X49858691Y-71977696D01*
X49847427Y-72048821D01*
X49839321Y-72100000D01*
X44743897Y-72100000D01*
X44771293Y-72052549D01*
X44859492Y-71819988D01*
X44909243Y-71576291D01*
X44919259Y-71327769D01*
X44889278Y-71080858D01*
X44820079Y-70841954D01*
X44713453Y-70617244D01*
X44572161Y-70412548D01*
X44399864Y-70233168D01*
X44201023Y-70083749D01*
X44197495Y-70081897D01*
X44197493Y-70081896D01*
X43984319Y-69970013D01*
X43984312Y-69970010D01*
X43980789Y-69968161D01*
X43977006Y-69966898D01*
X43748652Y-69890662D01*
X43748648Y-69890661D01*
X43744865Y-69889398D01*
X43740933Y-69888759D01*
X43740925Y-69888757D01*
X43503299Y-69850139D01*
X43503288Y-69850138D01*
X43499362Y-69849500D01*
X42312915Y-69849500D01*
X42310944Y-69849659D01*
X42310921Y-69849660D01*
X42131062Y-69864180D01*
X42131053Y-69864181D01*
X42127082Y-69864502D01*
X42123204Y-69865457D01*
X42123203Y-69865458D01*
X41889464Y-69923070D01*
X41889462Y-69923070D01*
X41885586Y-69924026D01*
X41881922Y-69925586D01*
X41881913Y-69925590D01*
X41660434Y-70019953D01*
X41660425Y-70019957D01*
X41656765Y-70021517D01*
X41653405Y-70023641D01*
X41653393Y-70023648D01*
X41449923Y-70152316D01*
X41449918Y-70152319D01*
X41446546Y-70154452D01*
X41443560Y-70157096D01*
X41443555Y-70157101D01*
X41263359Y-70316740D01*
X41263354Y-70316744D01*
X41260373Y-70319386D01*
X41257856Y-70322468D01*
X41257848Y-70322477D01*
X41105589Y-70508962D01*
X41103069Y-70512049D01*
X41101084Y-70515485D01*
X41101077Y-70515497D01*
X40980699Y-70723999D01*
X40980694Y-70724008D01*
X40978707Y-70727451D01*
X40977295Y-70731172D01*
X40977293Y-70731178D01*
X40891920Y-70956288D01*
X40890508Y-70960012D01*
X40889712Y-70963907D01*
X40889710Y-70963917D01*
X40841555Y-71199795D01*
X40841553Y-71199807D01*
X40840757Y-71203709D01*
X40840596Y-71207692D01*
X40840596Y-71207696D01*
X40830901Y-71448241D01*
X40830901Y-71448250D01*
X40830741Y-71452231D01*
X39414243Y-71452231D01*
X39419259Y-71327769D01*
X39389278Y-71080858D01*
X39320079Y-70841954D01*
X39213453Y-70617244D01*
X39072161Y-70412548D01*
X38899864Y-70233168D01*
X38701023Y-70083749D01*
X38697495Y-70081897D01*
X38697493Y-70081896D01*
X38484319Y-69970013D01*
X38484312Y-69970010D01*
X38480789Y-69968161D01*
X38477006Y-69966898D01*
X38248652Y-69890662D01*
X38248648Y-69890661D01*
X38244865Y-69889398D01*
X38240933Y-69888759D01*
X38240925Y-69888757D01*
X38003299Y-69850139D01*
X38003288Y-69850138D01*
X37999362Y-69849500D01*
X36812915Y-69849500D01*
X36810944Y-69849659D01*
X36810921Y-69849660D01*
X36631062Y-69864180D01*
X36631053Y-69864181D01*
X36627082Y-69864502D01*
X36623204Y-69865457D01*
X36623203Y-69865458D01*
X36389464Y-69923070D01*
X36389462Y-69923070D01*
X36385586Y-69924026D01*
X36381922Y-69925586D01*
X36381913Y-69925590D01*
X36160434Y-70019953D01*
X36160425Y-70019957D01*
X36156765Y-70021517D01*
X36153405Y-70023641D01*
X36153393Y-70023648D01*
X35949923Y-70152316D01*
X35949918Y-70152319D01*
X35946546Y-70154452D01*
X35943560Y-70157096D01*
X35943555Y-70157101D01*
X35763359Y-70316740D01*
X35763354Y-70316744D01*
X35760373Y-70319386D01*
X35757856Y-70322468D01*
X35757848Y-70322477D01*
X35605589Y-70508962D01*
X35603069Y-70512049D01*
X35601084Y-70515485D01*
X35601077Y-70515497D01*
X35480699Y-70723999D01*
X35480694Y-70724008D01*
X35478707Y-70727451D01*
X35477295Y-70731172D01*
X35477293Y-70731178D01*
X35391920Y-70956288D01*
X35390508Y-70960012D01*
X35389712Y-70963907D01*
X35389710Y-70963917D01*
X35341555Y-71199795D01*
X35341553Y-71199807D01*
X35340757Y-71203709D01*
X35340596Y-71207692D01*
X35340596Y-71207696D01*
X35330901Y-71448241D01*
X35330901Y-71448250D01*
X35330741Y-71452231D01*
X32300500Y-71452231D01*
X32300500Y-67000000D01*
X42679321Y-67000000D01*
X42699910Y-67129997D01*
X42703445Y-67136936D01*
X42703446Y-67136937D01*
X42756126Y-67240327D01*
X42756128Y-67240330D01*
X42759664Y-67247269D01*
X42852731Y-67340336D01*
X42859670Y-67343871D01*
X42859672Y-67343873D01*
X42911367Y-67370213D01*
X42970003Y-67400090D01*
X43100000Y-67420679D01*
X43229997Y-67400090D01*
X43347269Y-67340336D01*
X43440336Y-67247269D01*
X43500090Y-67129997D01*
X43520679Y-67000000D01*
X43500090Y-66870003D01*
X43440336Y-66752731D01*
X43347269Y-66659664D01*
X43340330Y-66656128D01*
X43340327Y-66656126D01*
X43236937Y-66603446D01*
X43236936Y-66603445D01*
X43229997Y-66599910D01*
X43222305Y-66598691D01*
X43222303Y-66598691D01*
X43107697Y-66580540D01*
X43100000Y-66579321D01*
X43092303Y-66580540D01*
X42977696Y-66598691D01*
X42977692Y-66598692D01*
X42970003Y-66599910D01*
X42963065Y-66603444D01*
X42963062Y-66603446D01*
X42859672Y-66656126D01*
X42859665Y-66656130D01*
X42852731Y-66659664D01*
X42847226Y-66665168D01*
X42847223Y-66665171D01*
X42765171Y-66747223D01*
X42765168Y-66747226D01*
X42759664Y-66752731D01*
X42756130Y-66759665D01*
X42756126Y-66759672D01*
X42703446Y-66863062D01*
X42703444Y-66863065D01*
X42699910Y-66870003D01*
X42698692Y-66877692D01*
X42698691Y-66877696D01*
X42680540Y-66992303D01*
X42679321Y-67000000D01*
X32300500Y-67000000D01*
X32300500Y-66150000D01*
X39479321Y-66150000D01*
X39480540Y-66157697D01*
X39494774Y-66247573D01*
X39499910Y-66279997D01*
X39503445Y-66286936D01*
X39503446Y-66286937D01*
X39556126Y-66390327D01*
X39556128Y-66390330D01*
X39559664Y-66397269D01*
X39652731Y-66490336D01*
X39659670Y-66493871D01*
X39659672Y-66493873D01*
X39711366Y-66520212D01*
X39770003Y-66550090D01*
X39900000Y-66570679D01*
X40029997Y-66550090D01*
X40147269Y-66490336D01*
X40240336Y-66397269D01*
X40300090Y-66279997D01*
X40320679Y-66150000D01*
X40300090Y-66020003D01*
X40268497Y-65958000D01*
X43293970Y-65958000D01*
X43294978Y-65965011D01*
X43310988Y-66076366D01*
X43310989Y-66076370D01*
X43311997Y-66083379D01*
X43364617Y-66198601D01*
X43447567Y-66294331D01*
X43554128Y-66362814D01*
X43675666Y-66398500D01*
X43795256Y-66398500D01*
X43802334Y-66398500D01*
X43873617Y-66377570D01*
X46232748Y-66377570D01*
X46233967Y-66385267D01*
X46249735Y-66484828D01*
X46253337Y-66507567D01*
X46256872Y-66514506D01*
X46256873Y-66514507D01*
X46309553Y-66617897D01*
X46309555Y-66617900D01*
X46313091Y-66624839D01*
X46406158Y-66717906D01*
X46413097Y-66721441D01*
X46413099Y-66721443D01*
X46463695Y-66747223D01*
X46523430Y-66777660D01*
X46653427Y-66798249D01*
X46783424Y-66777660D01*
X46900696Y-66717906D01*
X46993763Y-66624839D01*
X47053517Y-66507567D01*
X47074106Y-66377570D01*
X47053517Y-66247573D01*
X47007722Y-66157697D01*
X46997300Y-66137242D01*
X46997298Y-66137240D01*
X46993763Y-66130301D01*
X46900696Y-66037234D01*
X46893757Y-66033698D01*
X46893754Y-66033696D01*
X46790364Y-65981016D01*
X46790363Y-65981015D01*
X46783424Y-65977480D01*
X46775732Y-65976261D01*
X46775730Y-65976261D01*
X46661124Y-65958110D01*
X46653427Y-65956891D01*
X46645730Y-65958110D01*
X46531123Y-65976261D01*
X46531119Y-65976262D01*
X46523430Y-65977480D01*
X46516492Y-65981014D01*
X46516489Y-65981016D01*
X46413099Y-66033696D01*
X46413092Y-66033700D01*
X46406158Y-66037234D01*
X46400653Y-66042738D01*
X46400650Y-66042741D01*
X46318598Y-66124793D01*
X46318595Y-66124796D01*
X46313091Y-66130301D01*
X46309557Y-66137235D01*
X46309553Y-66137242D01*
X46256873Y-66240632D01*
X46256871Y-66240635D01*
X46253337Y-66247573D01*
X46252119Y-66255262D01*
X46252118Y-66255266D01*
X46246779Y-66288977D01*
X46232748Y-66377570D01*
X43873617Y-66377570D01*
X43923872Y-66362814D01*
X44030433Y-66294331D01*
X44113383Y-66198601D01*
X44166003Y-66083379D01*
X44184030Y-65958000D01*
X44166003Y-65832621D01*
X44113383Y-65717399D01*
X44030433Y-65621669D01*
X43923872Y-65553186D01*
X43917079Y-65551191D01*
X43917076Y-65551190D01*
X43809125Y-65519494D01*
X43802334Y-65517500D01*
X43675666Y-65517500D01*
X43668875Y-65519493D01*
X43668874Y-65519494D01*
X43560923Y-65551190D01*
X43560917Y-65551192D01*
X43554128Y-65553186D01*
X43548172Y-65557013D01*
X43548169Y-65557015D01*
X43453524Y-65617840D01*
X43453521Y-65617842D01*
X43447567Y-65621669D01*
X43442930Y-65627019D01*
X43442928Y-65627022D01*
X43369254Y-65712047D01*
X43369252Y-65712049D01*
X43364617Y-65717399D01*
X43361677Y-65723835D01*
X43361676Y-65723838D01*
X43314939Y-65826178D01*
X43311997Y-65832621D01*
X43310989Y-65839627D01*
X43310988Y-65839633D01*
X43297439Y-65933873D01*
X43293970Y-65958000D01*
X40268497Y-65958000D01*
X40240336Y-65902731D01*
X40147269Y-65809664D01*
X40140330Y-65806128D01*
X40140327Y-65806126D01*
X40036937Y-65753446D01*
X40036936Y-65753445D01*
X40029997Y-65749910D01*
X40022305Y-65748691D01*
X40022303Y-65748691D01*
X39907697Y-65730540D01*
X39900000Y-65729321D01*
X39892303Y-65730540D01*
X39777696Y-65748691D01*
X39777692Y-65748692D01*
X39770003Y-65749910D01*
X39763065Y-65753444D01*
X39763062Y-65753446D01*
X39659672Y-65806126D01*
X39659665Y-65806130D01*
X39652731Y-65809664D01*
X39647226Y-65815168D01*
X39647223Y-65815171D01*
X39565171Y-65897223D01*
X39565168Y-65897226D01*
X39559664Y-65902731D01*
X39556130Y-65909665D01*
X39556126Y-65909672D01*
X39503446Y-66013062D01*
X39503444Y-66013065D01*
X39499910Y-66020003D01*
X39498692Y-66027692D01*
X39498691Y-66027696D01*
X39490983Y-66076366D01*
X39479321Y-66150000D01*
X32300500Y-66150000D01*
X32300500Y-65400000D01*
X52829321Y-65400000D01*
X52830540Y-65407697D01*
X52848246Y-65519494D01*
X52849910Y-65529997D01*
X52853445Y-65536936D01*
X52853446Y-65536937D01*
X52906126Y-65640327D01*
X52906128Y-65640330D01*
X52909664Y-65647269D01*
X53002731Y-65740336D01*
X53009670Y-65743871D01*
X53009672Y-65743873D01*
X53028460Y-65753446D01*
X53120003Y-65800090D01*
X53250000Y-65820679D01*
X53379997Y-65800090D01*
X53497269Y-65740336D01*
X53590336Y-65647269D01*
X53619516Y-65590000D01*
X55719321Y-65590000D01*
X55720540Y-65597697D01*
X55738650Y-65712047D01*
X55739910Y-65719997D01*
X55743445Y-65726936D01*
X55743446Y-65726937D01*
X55796126Y-65830327D01*
X55796128Y-65830330D01*
X55799664Y-65837269D01*
X55892731Y-65930336D01*
X55899670Y-65933871D01*
X55899672Y-65933873D01*
X55933264Y-65950989D01*
X56010003Y-65990090D01*
X56140000Y-66010679D01*
X56269997Y-65990090D01*
X56387269Y-65930336D01*
X56480336Y-65837269D01*
X56540090Y-65719997D01*
X56560679Y-65590000D01*
X56540090Y-65460003D01*
X56480336Y-65342731D01*
X56387269Y-65249664D01*
X56380330Y-65246128D01*
X56380327Y-65246126D01*
X56276937Y-65193446D01*
X56276936Y-65193445D01*
X56269997Y-65189910D01*
X56262305Y-65188691D01*
X56262303Y-65188691D01*
X56147697Y-65170540D01*
X56140000Y-65169321D01*
X56132303Y-65170540D01*
X56017696Y-65188691D01*
X56017692Y-65188692D01*
X56010003Y-65189910D01*
X56003065Y-65193444D01*
X56003062Y-65193446D01*
X55899672Y-65246126D01*
X55899665Y-65246130D01*
X55892731Y-65249664D01*
X55887226Y-65255168D01*
X55887223Y-65255171D01*
X55805171Y-65337223D01*
X55805168Y-65337226D01*
X55799664Y-65342731D01*
X55796130Y-65349665D01*
X55796126Y-65349672D01*
X55743446Y-65453062D01*
X55743444Y-65453065D01*
X55739910Y-65460003D01*
X55738692Y-65467692D01*
X55738691Y-65467696D01*
X55724545Y-65557015D01*
X55719321Y-65590000D01*
X53619516Y-65590000D01*
X53650090Y-65529997D01*
X53670679Y-65400000D01*
X53650090Y-65270003D01*
X53608659Y-65188691D01*
X53593873Y-65159672D01*
X53593871Y-65159670D01*
X53590336Y-65152731D01*
X53497269Y-65059664D01*
X53490330Y-65056128D01*
X53490327Y-65056126D01*
X53386937Y-65003446D01*
X53386936Y-65003445D01*
X53379997Y-64999910D01*
X53372305Y-64998691D01*
X53372303Y-64998691D01*
X53257697Y-64980540D01*
X53250000Y-64979321D01*
X53242303Y-64980540D01*
X53127696Y-64998691D01*
X53127692Y-64998692D01*
X53120003Y-64999910D01*
X53113065Y-65003444D01*
X53113062Y-65003446D01*
X53009672Y-65056126D01*
X53009665Y-65056130D01*
X53002731Y-65059664D01*
X52997226Y-65065168D01*
X52997223Y-65065171D01*
X52915171Y-65147223D01*
X52915168Y-65147226D01*
X52909664Y-65152731D01*
X52906130Y-65159665D01*
X52906126Y-65159672D01*
X52853446Y-65263062D01*
X52853444Y-65263065D01*
X52849910Y-65270003D01*
X52848692Y-65277692D01*
X52848691Y-65277696D01*
X52838391Y-65342731D01*
X52829321Y-65400000D01*
X32300500Y-65400000D01*
X32300500Y-64655000D01*
X44749321Y-64655000D01*
X44769910Y-64784997D01*
X44773445Y-64791936D01*
X44773446Y-64791937D01*
X44826126Y-64895327D01*
X44826128Y-64895330D01*
X44829664Y-64902269D01*
X44922731Y-64995336D01*
X44929670Y-64998871D01*
X44929672Y-64998873D01*
X44981366Y-65025212D01*
X45040003Y-65055090D01*
X45170000Y-65075679D01*
X45299997Y-65055090D01*
X45417269Y-64995336D01*
X45510336Y-64902269D01*
X45570090Y-64784997D01*
X45578379Y-64732660D01*
X59170697Y-64732660D01*
X59190787Y-64936634D01*
X59192198Y-64941286D01*
X59192199Y-64941290D01*
X59229778Y-65065171D01*
X59250284Y-65132769D01*
X59252577Y-65137060D01*
X59252578Y-65137061D01*
X59344609Y-65309240D01*
X59346901Y-65313528D01*
X59349982Y-65317283D01*
X59349984Y-65317285D01*
X59473837Y-65468200D01*
X59476927Y-65471965D01*
X59480691Y-65475054D01*
X59556095Y-65536937D01*
X59635364Y-65601991D01*
X59816123Y-65698608D01*
X60012258Y-65758105D01*
X60216232Y-65778195D01*
X60420206Y-65758105D01*
X60616341Y-65698608D01*
X60797100Y-65601991D01*
X60955537Y-65471965D01*
X61085563Y-65313528D01*
X61182180Y-65132769D01*
X61241677Y-64936634D01*
X61261767Y-64732660D01*
X61241677Y-64528686D01*
X61182180Y-64332551D01*
X61085563Y-64151792D01*
X60955537Y-63993355D01*
X60797100Y-63863329D01*
X60616341Y-63766712D01*
X60611686Y-63765300D01*
X60611684Y-63765299D01*
X60424862Y-63708627D01*
X60424858Y-63708626D01*
X60420206Y-63707215D01*
X60216232Y-63687125D01*
X60211389Y-63687602D01*
X60017100Y-63706738D01*
X60017099Y-63706738D01*
X60012258Y-63707215D01*
X60007607Y-63708625D01*
X60007601Y-63708627D01*
X59820779Y-63765299D01*
X59820773Y-63765301D01*
X59816123Y-63766712D01*
X59811835Y-63769003D01*
X59811830Y-63769006D01*
X59639651Y-63861037D01*
X59639646Y-63861039D01*
X59635364Y-63863329D01*
X59631613Y-63866407D01*
X59631606Y-63866412D01*
X59480691Y-63990265D01*
X59480685Y-63990270D01*
X59476927Y-63993355D01*
X59473842Y-63997113D01*
X59473837Y-63997119D01*
X59349984Y-64148034D01*
X59349979Y-64148041D01*
X59346901Y-64151792D01*
X59344611Y-64156074D01*
X59344609Y-64156079D01*
X59252578Y-64328258D01*
X59252575Y-64328263D01*
X59250284Y-64332551D01*
X59248873Y-64337201D01*
X59248871Y-64337207D01*
X59192199Y-64524029D01*
X59192197Y-64524035D01*
X59190787Y-64528686D01*
X59170697Y-64732660D01*
X45578379Y-64732660D01*
X45590679Y-64655000D01*
X45570090Y-64525003D01*
X45510336Y-64407731D01*
X45417269Y-64314664D01*
X45410330Y-64311128D01*
X45410327Y-64311126D01*
X45306937Y-64258446D01*
X45306936Y-64258445D01*
X45299997Y-64254910D01*
X45292305Y-64253691D01*
X45292303Y-64253691D01*
X45177697Y-64235540D01*
X45170000Y-64234321D01*
X45162303Y-64235540D01*
X45047696Y-64253691D01*
X45047692Y-64253692D01*
X45040003Y-64254910D01*
X45033065Y-64258444D01*
X45033062Y-64258446D01*
X44929672Y-64311126D01*
X44929665Y-64311130D01*
X44922731Y-64314664D01*
X44917226Y-64320168D01*
X44917223Y-64320171D01*
X44835171Y-64402223D01*
X44835168Y-64402226D01*
X44829664Y-64407731D01*
X44826130Y-64414665D01*
X44826126Y-64414672D01*
X44773446Y-64518062D01*
X44773444Y-64518065D01*
X44769910Y-64525003D01*
X44768692Y-64532692D01*
X44768691Y-64532696D01*
X44750540Y-64647303D01*
X44749321Y-64655000D01*
X32300500Y-64655000D01*
X32300500Y-63825000D01*
X46354321Y-63825000D01*
X46355540Y-63832697D01*
X46360391Y-63863329D01*
X46374910Y-63954997D01*
X46378445Y-63961936D01*
X46378446Y-63961937D01*
X46431126Y-64065327D01*
X46431128Y-64065330D01*
X46434664Y-64072269D01*
X46527731Y-64165336D01*
X46534670Y-64168871D01*
X46534672Y-64168873D01*
X46586366Y-64195212D01*
X46645003Y-64225090D01*
X46775000Y-64245679D01*
X46904997Y-64225090D01*
X47022269Y-64165336D01*
X47115336Y-64072269D01*
X47175090Y-63954997D01*
X47195679Y-63825000D01*
X47175090Y-63695003D01*
X47115336Y-63577731D01*
X47022269Y-63484664D01*
X47015330Y-63481128D01*
X47015327Y-63481126D01*
X46911937Y-63428446D01*
X46911936Y-63428445D01*
X46904997Y-63424910D01*
X46897305Y-63423691D01*
X46897303Y-63423691D01*
X46782697Y-63405540D01*
X46775000Y-63404321D01*
X46767303Y-63405540D01*
X46652696Y-63423691D01*
X46652692Y-63423692D01*
X46645003Y-63424910D01*
X46638065Y-63428444D01*
X46638062Y-63428446D01*
X46534672Y-63481126D01*
X46534665Y-63481130D01*
X46527731Y-63484664D01*
X46522226Y-63490168D01*
X46522223Y-63490171D01*
X46440171Y-63572223D01*
X46440168Y-63572226D01*
X46434664Y-63577731D01*
X46431130Y-63584665D01*
X46431126Y-63584672D01*
X46378446Y-63688062D01*
X46378444Y-63688065D01*
X46374910Y-63695003D01*
X46373692Y-63702692D01*
X46373691Y-63702696D01*
X46363189Y-63769006D01*
X46354321Y-63825000D01*
X32300500Y-63825000D01*
X32300500Y-62600000D01*
X46404321Y-62600000D01*
X46424910Y-62729997D01*
X46428445Y-62736936D01*
X46428446Y-62736937D01*
X46481126Y-62840327D01*
X46481128Y-62840330D01*
X46484664Y-62847269D01*
X46577731Y-62940336D01*
X46584670Y-62943871D01*
X46584672Y-62943873D01*
X46636366Y-62970212D01*
X46695003Y-63000090D01*
X46825000Y-63020679D01*
X46954997Y-63000090D01*
X47072269Y-62940336D01*
X47165336Y-62847269D01*
X47225090Y-62729997D01*
X47245679Y-62600000D01*
X47225090Y-62470003D01*
X47165336Y-62352731D01*
X47072269Y-62259664D01*
X47065330Y-62256128D01*
X47065327Y-62256126D01*
X46961937Y-62203446D01*
X46961936Y-62203445D01*
X46954997Y-62199910D01*
X46947305Y-62198691D01*
X46947303Y-62198691D01*
X46832697Y-62180540D01*
X46825000Y-62179321D01*
X46817303Y-62180540D01*
X46702696Y-62198691D01*
X46702692Y-62198692D01*
X46695003Y-62199910D01*
X46688065Y-62203444D01*
X46688062Y-62203446D01*
X46584672Y-62256126D01*
X46584665Y-62256130D01*
X46577731Y-62259664D01*
X46572226Y-62265168D01*
X46572223Y-62265171D01*
X46490171Y-62347223D01*
X46490168Y-62347226D01*
X46484664Y-62352731D01*
X46481130Y-62359665D01*
X46481126Y-62359672D01*
X46428446Y-62463062D01*
X46428444Y-62463065D01*
X46424910Y-62470003D01*
X46423692Y-62477692D01*
X46423691Y-62477696D01*
X46405540Y-62592303D01*
X46404321Y-62600000D01*
X32300500Y-62600000D01*
X32300500Y-61280000D01*
X53479321Y-61280000D01*
X53480540Y-61287697D01*
X53487371Y-61330831D01*
X53499910Y-61409997D01*
X53503445Y-61416936D01*
X53503446Y-61416937D01*
X53556126Y-61520327D01*
X53556128Y-61520330D01*
X53559664Y-61527269D01*
X53652731Y-61620336D01*
X53659670Y-61623871D01*
X53659672Y-61623873D01*
X53711367Y-61650213D01*
X53770003Y-61680090D01*
X53900000Y-61700679D01*
X54029997Y-61680090D01*
X54147269Y-61620336D01*
X54240336Y-61527269D01*
X54300090Y-61409997D01*
X54320679Y-61280000D01*
X54300090Y-61150003D01*
X54288296Y-61126857D01*
X56629243Y-61126857D01*
X56649333Y-61330831D01*
X56650744Y-61335483D01*
X56650745Y-61335487D01*
X56675453Y-61416937D01*
X56708830Y-61526966D01*
X56805447Y-61707725D01*
X56935473Y-61866162D01*
X57093910Y-61996188D01*
X57274669Y-62092805D01*
X57470804Y-62152302D01*
X57674778Y-62172392D01*
X57878752Y-62152302D01*
X58074887Y-62092805D01*
X58255646Y-61996188D01*
X58414083Y-61866162D01*
X58544109Y-61707725D01*
X58640726Y-61526966D01*
X58700223Y-61330831D01*
X58720313Y-61126857D01*
X58700223Y-60922883D01*
X58640726Y-60726748D01*
X58544109Y-60545989D01*
X58414083Y-60387552D01*
X58288391Y-60284399D01*
X58259403Y-60260609D01*
X58259401Y-60260607D01*
X58255646Y-60257526D01*
X58074887Y-60160909D01*
X58070232Y-60159497D01*
X58070230Y-60159496D01*
X57883408Y-60102824D01*
X57883404Y-60102823D01*
X57878752Y-60101412D01*
X57674778Y-60081322D01*
X57669935Y-60081799D01*
X57475646Y-60100935D01*
X57475645Y-60100935D01*
X57470804Y-60101412D01*
X57466153Y-60102822D01*
X57466147Y-60102824D01*
X57279325Y-60159496D01*
X57279319Y-60159498D01*
X57274669Y-60160909D01*
X57270381Y-60163200D01*
X57270376Y-60163203D01*
X57098197Y-60255234D01*
X57098192Y-60255236D01*
X57093910Y-60257526D01*
X57090159Y-60260604D01*
X57090152Y-60260609D01*
X56939237Y-60384462D01*
X56939231Y-60384467D01*
X56935473Y-60387552D01*
X56932388Y-60391310D01*
X56932383Y-60391316D01*
X56808530Y-60542231D01*
X56808525Y-60542238D01*
X56805447Y-60545989D01*
X56803157Y-60550271D01*
X56803155Y-60550276D01*
X56711124Y-60722455D01*
X56711121Y-60722460D01*
X56708830Y-60726748D01*
X56707419Y-60731398D01*
X56707417Y-60731404D01*
X56650745Y-60918226D01*
X56650743Y-60918232D01*
X56649333Y-60922883D01*
X56648856Y-60927724D01*
X56648856Y-60927725D01*
X56639056Y-61027223D01*
X56629243Y-61126857D01*
X54288296Y-61126857D01*
X54240336Y-61032731D01*
X54147269Y-60939664D01*
X54140330Y-60936128D01*
X54140327Y-60936126D01*
X54036937Y-60883446D01*
X54036936Y-60883445D01*
X54029997Y-60879910D01*
X54022305Y-60878691D01*
X54022303Y-60878691D01*
X53907697Y-60860540D01*
X53900000Y-60859321D01*
X53892303Y-60860540D01*
X53777696Y-60878691D01*
X53777692Y-60878692D01*
X53770003Y-60879910D01*
X53763065Y-60883444D01*
X53763062Y-60883446D01*
X53659672Y-60936126D01*
X53659665Y-60936130D01*
X53652731Y-60939664D01*
X53647226Y-60945168D01*
X53647223Y-60945171D01*
X53565171Y-61027223D01*
X53565168Y-61027226D01*
X53559664Y-61032731D01*
X53556130Y-61039665D01*
X53556126Y-61039672D01*
X53503446Y-61143062D01*
X53503444Y-61143065D01*
X53499910Y-61150003D01*
X53498692Y-61157692D01*
X53498691Y-61157696D01*
X53480540Y-61272303D01*
X53479321Y-61280000D01*
X32300500Y-61280000D01*
X32300500Y-60525000D01*
X36901970Y-60525000D01*
X36902978Y-60532011D01*
X36918988Y-60643366D01*
X36918989Y-60643370D01*
X36919997Y-60650379D01*
X36972617Y-60765601D01*
X37055567Y-60861331D01*
X37162128Y-60929814D01*
X37283666Y-60965500D01*
X37403256Y-60965500D01*
X37410334Y-60965500D01*
X37531872Y-60929814D01*
X37638433Y-60861331D01*
X37721383Y-60765601D01*
X37774003Y-60650379D01*
X37792030Y-60525000D01*
X37774003Y-60399621D01*
X37721383Y-60284399D01*
X37638433Y-60188669D01*
X37531872Y-60120186D01*
X37525079Y-60118191D01*
X37525076Y-60118190D01*
X37417125Y-60086494D01*
X37410334Y-60084500D01*
X37283666Y-60084500D01*
X37276875Y-60086493D01*
X37276874Y-60086494D01*
X37168923Y-60118190D01*
X37168917Y-60118192D01*
X37162128Y-60120186D01*
X37156172Y-60124013D01*
X37156169Y-60124015D01*
X37061524Y-60184840D01*
X37061521Y-60184842D01*
X37055567Y-60188669D01*
X37050930Y-60194019D01*
X37050928Y-60194022D01*
X36977254Y-60279047D01*
X36977252Y-60279049D01*
X36972617Y-60284399D01*
X36969677Y-60290835D01*
X36969676Y-60290838D01*
X36922939Y-60393178D01*
X36919997Y-60399621D01*
X36918989Y-60406627D01*
X36918988Y-60406633D01*
X36902978Y-60517989D01*
X36901970Y-60525000D01*
X32300500Y-60525000D01*
X32300500Y-57412000D01*
X42138970Y-57412000D01*
X42139978Y-57419011D01*
X42155988Y-57530366D01*
X42155989Y-57530370D01*
X42156997Y-57537379D01*
X42209617Y-57652601D01*
X42292567Y-57748331D01*
X42399128Y-57816814D01*
X42520666Y-57852500D01*
X42640256Y-57852500D01*
X42647334Y-57852500D01*
X42768872Y-57816814D01*
X42875433Y-57748331D01*
X42958383Y-57652601D01*
X43008405Y-57543068D01*
X56630187Y-57543068D01*
X56650277Y-57747042D01*
X56709774Y-57943177D01*
X56806391Y-58123936D01*
X56936417Y-58282373D01*
X57094854Y-58412399D01*
X57275613Y-58509016D01*
X57471748Y-58568513D01*
X57675722Y-58588603D01*
X57879696Y-58568513D01*
X58075831Y-58509016D01*
X58256590Y-58412399D01*
X58415027Y-58282373D01*
X58545053Y-58123936D01*
X58641670Y-57943177D01*
X58701167Y-57747042D01*
X58721257Y-57543068D01*
X59170187Y-57543068D01*
X59190277Y-57747042D01*
X59249774Y-57943177D01*
X59346391Y-58123936D01*
X59476417Y-58282373D01*
X59634854Y-58412399D01*
X59815613Y-58509016D01*
X60011748Y-58568513D01*
X60215722Y-58588603D01*
X60419696Y-58568513D01*
X60615831Y-58509016D01*
X60796590Y-58412399D01*
X60955027Y-58282373D01*
X61085053Y-58123936D01*
X61181670Y-57943177D01*
X61241167Y-57747042D01*
X61261257Y-57543068D01*
X61241167Y-57339094D01*
X61181670Y-57142959D01*
X61085053Y-56962200D01*
X60955027Y-56803763D01*
X60796590Y-56673737D01*
X60634497Y-56587097D01*
X60620123Y-56579414D01*
X60620122Y-56579413D01*
X60615831Y-56577120D01*
X60611176Y-56575708D01*
X60611174Y-56575707D01*
X60424352Y-56519035D01*
X60424348Y-56519034D01*
X60419696Y-56517623D01*
X60215722Y-56497533D01*
X60210879Y-56498010D01*
X60016590Y-56517146D01*
X60016589Y-56517146D01*
X60011748Y-56517623D01*
X60007097Y-56519033D01*
X60007091Y-56519035D01*
X59820269Y-56575707D01*
X59820263Y-56575709D01*
X59815613Y-56577120D01*
X59811325Y-56579411D01*
X59811320Y-56579414D01*
X59639141Y-56671445D01*
X59639136Y-56671447D01*
X59634854Y-56673737D01*
X59631103Y-56676815D01*
X59631096Y-56676820D01*
X59480181Y-56800673D01*
X59480175Y-56800678D01*
X59476417Y-56803763D01*
X59473332Y-56807521D01*
X59473327Y-56807527D01*
X59349474Y-56958442D01*
X59349469Y-56958449D01*
X59346391Y-56962200D01*
X59344101Y-56966482D01*
X59344099Y-56966487D01*
X59252068Y-57138666D01*
X59252065Y-57138671D01*
X59249774Y-57142959D01*
X59248363Y-57147609D01*
X59248361Y-57147615D01*
X59191689Y-57334437D01*
X59191687Y-57334443D01*
X59190277Y-57339094D01*
X59170187Y-57543068D01*
X58721257Y-57543068D01*
X58701167Y-57339094D01*
X58641670Y-57142959D01*
X58545053Y-56962200D01*
X58415027Y-56803763D01*
X58256590Y-56673737D01*
X58094497Y-56587097D01*
X58080123Y-56579414D01*
X58080122Y-56579413D01*
X58075831Y-56577120D01*
X58071176Y-56575708D01*
X58071174Y-56575707D01*
X57884352Y-56519035D01*
X57884348Y-56519034D01*
X57879696Y-56517623D01*
X57675722Y-56497533D01*
X57670879Y-56498010D01*
X57476590Y-56517146D01*
X57476589Y-56517146D01*
X57471748Y-56517623D01*
X57467097Y-56519033D01*
X57467091Y-56519035D01*
X57280269Y-56575707D01*
X57280263Y-56575709D01*
X57275613Y-56577120D01*
X57271325Y-56579411D01*
X57271320Y-56579414D01*
X57099141Y-56671445D01*
X57099136Y-56671447D01*
X57094854Y-56673737D01*
X57091103Y-56676815D01*
X57091096Y-56676820D01*
X56940181Y-56800673D01*
X56940175Y-56800678D01*
X56936417Y-56803763D01*
X56933332Y-56807521D01*
X56933327Y-56807527D01*
X56809474Y-56958442D01*
X56809469Y-56958449D01*
X56806391Y-56962200D01*
X56804101Y-56966482D01*
X56804099Y-56966487D01*
X56712068Y-57138666D01*
X56712065Y-57138671D01*
X56709774Y-57142959D01*
X56708363Y-57147609D01*
X56708361Y-57147615D01*
X56651689Y-57334437D01*
X56651687Y-57334443D01*
X56650277Y-57339094D01*
X56630187Y-57543068D01*
X43008405Y-57543068D01*
X43011003Y-57537379D01*
X43029030Y-57412000D01*
X43011003Y-57286621D01*
X42958383Y-57171399D01*
X42875433Y-57075669D01*
X42768872Y-57007186D01*
X42762079Y-57005191D01*
X42762076Y-57005190D01*
X42654125Y-56973494D01*
X42647334Y-56971500D01*
X42520666Y-56971500D01*
X42513875Y-56973493D01*
X42513874Y-56973494D01*
X42405923Y-57005190D01*
X42405917Y-57005192D01*
X42399128Y-57007186D01*
X42393172Y-57011013D01*
X42393169Y-57011015D01*
X42298524Y-57071840D01*
X42298521Y-57071842D01*
X42292567Y-57075669D01*
X42287930Y-57081019D01*
X42287928Y-57081022D01*
X42214254Y-57166047D01*
X42214252Y-57166049D01*
X42209617Y-57171399D01*
X42156997Y-57286621D01*
X42155989Y-57293627D01*
X42155988Y-57293633D01*
X42149452Y-57339094D01*
X42138970Y-57412000D01*
X32300500Y-57412000D01*
X32300500Y-56136334D01*
X40898671Y-56136334D01*
X40899679Y-56143345D01*
X40917735Y-56268931D01*
X40917736Y-56268934D01*
X40918744Y-56275945D01*
X40921685Y-56282386D01*
X40921687Y-56282391D01*
X40961851Y-56370336D01*
X40977337Y-56404245D01*
X41069703Y-56510841D01*
X41188359Y-56587097D01*
X41323692Y-56626834D01*
X41457660Y-56626834D01*
X41464738Y-56626834D01*
X41600071Y-56587097D01*
X41718727Y-56510841D01*
X41811093Y-56404245D01*
X41869686Y-56275945D01*
X41889759Y-56136334D01*
X41874471Y-56030000D01*
X49689321Y-56030000D01*
X49690540Y-56037697D01*
X49707272Y-56143345D01*
X49709910Y-56159997D01*
X49713445Y-56166936D01*
X49713446Y-56166937D01*
X49766126Y-56270327D01*
X49766128Y-56270330D01*
X49769664Y-56277269D01*
X49862731Y-56370336D01*
X49869670Y-56373871D01*
X49869672Y-56373873D01*
X49916625Y-56397797D01*
X49980003Y-56430090D01*
X50110000Y-56450679D01*
X50239997Y-56430090D01*
X50357269Y-56370336D01*
X50450336Y-56277269D01*
X50510090Y-56159997D01*
X50530679Y-56030000D01*
X50510090Y-55900003D01*
X50450336Y-55782731D01*
X50357269Y-55689664D01*
X50350330Y-55686128D01*
X50350327Y-55686126D01*
X50246937Y-55633446D01*
X50246936Y-55633445D01*
X50239997Y-55629910D01*
X50232305Y-55628691D01*
X50232303Y-55628691D01*
X50117697Y-55610540D01*
X50110000Y-55609321D01*
X50102303Y-55610540D01*
X49987696Y-55628691D01*
X49987692Y-55628692D01*
X49980003Y-55629910D01*
X49973065Y-55633444D01*
X49973062Y-55633446D01*
X49869672Y-55686126D01*
X49869665Y-55686130D01*
X49862731Y-55689664D01*
X49857226Y-55695168D01*
X49857223Y-55695171D01*
X49775171Y-55777223D01*
X49775168Y-55777226D01*
X49769664Y-55782731D01*
X49766130Y-55789665D01*
X49766126Y-55789672D01*
X49713446Y-55893062D01*
X49713444Y-55893065D01*
X49709910Y-55900003D01*
X49708692Y-55907692D01*
X49708691Y-55907696D01*
X49694591Y-55996723D01*
X49689321Y-56030000D01*
X41874471Y-56030000D01*
X41869686Y-55996723D01*
X41857677Y-55970428D01*
X41814037Y-55874870D01*
X41811093Y-55868423D01*
X41718727Y-55761827D01*
X41600071Y-55685571D01*
X41593275Y-55683575D01*
X41593274Y-55683575D01*
X41471529Y-55647828D01*
X41464738Y-55645834D01*
X41323692Y-55645834D01*
X41316901Y-55647827D01*
X41316900Y-55647828D01*
X41195155Y-55683575D01*
X41195151Y-55683576D01*
X41188359Y-55685571D01*
X41182403Y-55689398D01*
X41182400Y-55689400D01*
X41075660Y-55757998D01*
X41075657Y-55758000D01*
X41069703Y-55761827D01*
X41065066Y-55767177D01*
X41065064Y-55767180D01*
X40981977Y-55863067D01*
X40981974Y-55863071D01*
X40977337Y-55868423D01*
X40974394Y-55874866D01*
X40974392Y-55874870D01*
X40921687Y-55990276D01*
X40921684Y-55990283D01*
X40918744Y-55996723D01*
X40917736Y-56003731D01*
X40917735Y-56003736D01*
X40899679Y-56129323D01*
X40898671Y-56136334D01*
X32300500Y-56136334D01*
X32300500Y-55003068D01*
X56630187Y-55003068D01*
X56650277Y-55207042D01*
X56709774Y-55403177D01*
X56806391Y-55583936D01*
X56809472Y-55587691D01*
X56809474Y-55587693D01*
X56889801Y-55685571D01*
X56936417Y-55742373D01*
X57094854Y-55872399D01*
X57275613Y-55969016D01*
X57471748Y-56028513D01*
X57675722Y-56048603D01*
X57879696Y-56028513D01*
X58075831Y-55969016D01*
X58256590Y-55872399D01*
X58415027Y-55742373D01*
X58545053Y-55583936D01*
X58641670Y-55403177D01*
X58701167Y-55207042D01*
X58721257Y-55003068D01*
X59170187Y-55003068D01*
X59190277Y-55207042D01*
X59249774Y-55403177D01*
X59346391Y-55583936D01*
X59349472Y-55587691D01*
X59349474Y-55587693D01*
X59429801Y-55685571D01*
X59476417Y-55742373D01*
X59634854Y-55872399D01*
X59815613Y-55969016D01*
X60011748Y-56028513D01*
X60215722Y-56048603D01*
X60419696Y-56028513D01*
X60615831Y-55969016D01*
X60796590Y-55872399D01*
X60955027Y-55742373D01*
X61085053Y-55583936D01*
X61181670Y-55403177D01*
X61241167Y-55207042D01*
X61261257Y-55003068D01*
X61241167Y-54799094D01*
X61181670Y-54602959D01*
X61085053Y-54422200D01*
X60955027Y-54263763D01*
X60796590Y-54133737D01*
X60615831Y-54037120D01*
X60611176Y-54035708D01*
X60611174Y-54035707D01*
X60424352Y-53979035D01*
X60424348Y-53979034D01*
X60419696Y-53977623D01*
X60215722Y-53957533D01*
X60210879Y-53958010D01*
X60016590Y-53977146D01*
X60016589Y-53977146D01*
X60011748Y-53977623D01*
X60007097Y-53979033D01*
X60007091Y-53979035D01*
X59820269Y-54035707D01*
X59820263Y-54035709D01*
X59815613Y-54037120D01*
X59811325Y-54039411D01*
X59811320Y-54039414D01*
X59639141Y-54131445D01*
X59639136Y-54131447D01*
X59634854Y-54133737D01*
X59631103Y-54136815D01*
X59631096Y-54136820D01*
X59480181Y-54260673D01*
X59480175Y-54260678D01*
X59476417Y-54263763D01*
X59473332Y-54267521D01*
X59473327Y-54267527D01*
X59349474Y-54418442D01*
X59349469Y-54418449D01*
X59346391Y-54422200D01*
X59344101Y-54426482D01*
X59344099Y-54426487D01*
X59252068Y-54598666D01*
X59252065Y-54598671D01*
X59249774Y-54602959D01*
X59248363Y-54607609D01*
X59248361Y-54607615D01*
X59191689Y-54794437D01*
X59191687Y-54794443D01*
X59190277Y-54799094D01*
X59170187Y-55003068D01*
X58721257Y-55003068D01*
X58701167Y-54799094D01*
X58641670Y-54602959D01*
X58545053Y-54422200D01*
X58415027Y-54263763D01*
X58256590Y-54133737D01*
X58075831Y-54037120D01*
X58071176Y-54035708D01*
X58071174Y-54035707D01*
X57884352Y-53979035D01*
X57884348Y-53979034D01*
X57879696Y-53977623D01*
X57675722Y-53957533D01*
X57670879Y-53958010D01*
X57476590Y-53977146D01*
X57476589Y-53977146D01*
X57471748Y-53977623D01*
X57467097Y-53979033D01*
X57467091Y-53979035D01*
X57280269Y-54035707D01*
X57280263Y-54035709D01*
X57275613Y-54037120D01*
X57271325Y-54039411D01*
X57271320Y-54039414D01*
X57099141Y-54131445D01*
X57099136Y-54131447D01*
X57094854Y-54133737D01*
X57091103Y-54136815D01*
X57091096Y-54136820D01*
X56940181Y-54260673D01*
X56940175Y-54260678D01*
X56936417Y-54263763D01*
X56933332Y-54267521D01*
X56933327Y-54267527D01*
X56809474Y-54418442D01*
X56809469Y-54418449D01*
X56806391Y-54422200D01*
X56804101Y-54426482D01*
X56804099Y-54426487D01*
X56712068Y-54598666D01*
X56712065Y-54598671D01*
X56709774Y-54602959D01*
X56708363Y-54607609D01*
X56708361Y-54607615D01*
X56651689Y-54794437D01*
X56651687Y-54794443D01*
X56650277Y-54799094D01*
X56630187Y-55003068D01*
X32300500Y-55003068D01*
X32300500Y-52574000D01*
X41995456Y-52574000D01*
X41996464Y-52581011D01*
X42014520Y-52706597D01*
X42014521Y-52706600D01*
X42015529Y-52713611D01*
X42018470Y-52720052D01*
X42018472Y-52720057D01*
X42071177Y-52835463D01*
X42074122Y-52841911D01*
X42166488Y-52948507D01*
X42285144Y-53024763D01*
X42420477Y-53064500D01*
X42554445Y-53064500D01*
X42561523Y-53064500D01*
X42696856Y-53024763D01*
X42815512Y-52948507D01*
X42907878Y-52841911D01*
X42966471Y-52713611D01*
X42986544Y-52574000D01*
X42970594Y-52463068D01*
X56630187Y-52463068D01*
X56650277Y-52667042D01*
X56651688Y-52671694D01*
X56651689Y-52671698D01*
X56666359Y-52720057D01*
X56709774Y-52863177D01*
X56712067Y-52867468D01*
X56712068Y-52867469D01*
X56757430Y-52952335D01*
X56806391Y-53043936D01*
X56936417Y-53202373D01*
X57094854Y-53332399D01*
X57275613Y-53429016D01*
X57471748Y-53488513D01*
X57675722Y-53508603D01*
X57879696Y-53488513D01*
X58075831Y-53429016D01*
X58256590Y-53332399D01*
X58415027Y-53202373D01*
X58545053Y-53043936D01*
X58641670Y-52863177D01*
X58701167Y-52667042D01*
X58721257Y-52463068D01*
X59170187Y-52463068D01*
X59190277Y-52667042D01*
X59191688Y-52671694D01*
X59191689Y-52671698D01*
X59206359Y-52720057D01*
X59249774Y-52863177D01*
X59252067Y-52867468D01*
X59252068Y-52867469D01*
X59297430Y-52952335D01*
X59346391Y-53043936D01*
X59476417Y-53202373D01*
X59634854Y-53332399D01*
X59815613Y-53429016D01*
X60011748Y-53488513D01*
X60215722Y-53508603D01*
X60419696Y-53488513D01*
X60615831Y-53429016D01*
X60796590Y-53332399D01*
X60955027Y-53202373D01*
X61085053Y-53043936D01*
X61181670Y-52863177D01*
X61241167Y-52667042D01*
X61261257Y-52463068D01*
X61241167Y-52259094D01*
X61181670Y-52062959D01*
X61085053Y-51882200D01*
X60955027Y-51723763D01*
X60796590Y-51593737D01*
X60615831Y-51497120D01*
X60611176Y-51495708D01*
X60611174Y-51495707D01*
X60424352Y-51439035D01*
X60424348Y-51439034D01*
X60419696Y-51437623D01*
X60215722Y-51417533D01*
X60210879Y-51418010D01*
X60016590Y-51437146D01*
X60016589Y-51437146D01*
X60011748Y-51437623D01*
X60007097Y-51439033D01*
X60007091Y-51439035D01*
X59820269Y-51495707D01*
X59820263Y-51495709D01*
X59815613Y-51497120D01*
X59811325Y-51499411D01*
X59811320Y-51499414D01*
X59639141Y-51591445D01*
X59639136Y-51591447D01*
X59634854Y-51593737D01*
X59631103Y-51596815D01*
X59631096Y-51596820D01*
X59480181Y-51720673D01*
X59480175Y-51720678D01*
X59476417Y-51723763D01*
X59473332Y-51727521D01*
X59473327Y-51727527D01*
X59349474Y-51878442D01*
X59349469Y-51878449D01*
X59346391Y-51882200D01*
X59344101Y-51886482D01*
X59344099Y-51886487D01*
X59252068Y-52058666D01*
X59252065Y-52058671D01*
X59249774Y-52062959D01*
X59248363Y-52067609D01*
X59248361Y-52067615D01*
X59191689Y-52254437D01*
X59191687Y-52254443D01*
X59190277Y-52259094D01*
X59170187Y-52463068D01*
X58721257Y-52463068D01*
X58701167Y-52259094D01*
X58641670Y-52062959D01*
X58545053Y-51882200D01*
X58415027Y-51723763D01*
X58256590Y-51593737D01*
X58075831Y-51497120D01*
X58071176Y-51495708D01*
X58071174Y-51495707D01*
X57884352Y-51439035D01*
X57884348Y-51439034D01*
X57879696Y-51437623D01*
X57675722Y-51417533D01*
X57670879Y-51418010D01*
X57476590Y-51437146D01*
X57476589Y-51437146D01*
X57471748Y-51437623D01*
X57467097Y-51439033D01*
X57467091Y-51439035D01*
X57280269Y-51495707D01*
X57280263Y-51495709D01*
X57275613Y-51497120D01*
X57271325Y-51499411D01*
X57271320Y-51499414D01*
X57099141Y-51591445D01*
X57099136Y-51591447D01*
X57094854Y-51593737D01*
X57091103Y-51596815D01*
X57091096Y-51596820D01*
X56940181Y-51720673D01*
X56940175Y-51720678D01*
X56936417Y-51723763D01*
X56933332Y-51727521D01*
X56933327Y-51727527D01*
X56809474Y-51878442D01*
X56809469Y-51878449D01*
X56806391Y-51882200D01*
X56804101Y-51886482D01*
X56804099Y-51886487D01*
X56712068Y-52058666D01*
X56712065Y-52058671D01*
X56709774Y-52062959D01*
X56708363Y-52067609D01*
X56708361Y-52067615D01*
X56651689Y-52254437D01*
X56651687Y-52254443D01*
X56650277Y-52259094D01*
X56630187Y-52463068D01*
X42970594Y-52463068D01*
X42966471Y-52434389D01*
X42907878Y-52306089D01*
X42815512Y-52199493D01*
X42696856Y-52123237D01*
X42690060Y-52121241D01*
X42690059Y-52121241D01*
X42568314Y-52085494D01*
X42561523Y-52083500D01*
X42420477Y-52083500D01*
X42413686Y-52085493D01*
X42413685Y-52085494D01*
X42291940Y-52121241D01*
X42291936Y-52121242D01*
X42285144Y-52123237D01*
X42279188Y-52127064D01*
X42279185Y-52127066D01*
X42172445Y-52195664D01*
X42172442Y-52195666D01*
X42166488Y-52199493D01*
X42161851Y-52204843D01*
X42161849Y-52204846D01*
X42078762Y-52300733D01*
X42078759Y-52300737D01*
X42074122Y-52306089D01*
X42071179Y-52312532D01*
X42071177Y-52312536D01*
X42018472Y-52427942D01*
X42018469Y-52427949D01*
X42015529Y-52434389D01*
X42014521Y-52441397D01*
X42014520Y-52441402D01*
X42010709Y-52467911D01*
X41995456Y-52574000D01*
X32300500Y-52574000D01*
X32300500Y-50302139D01*
X37677007Y-50302139D01*
X37678226Y-50309836D01*
X37690975Y-50390336D01*
X37697596Y-50432136D01*
X37701131Y-50439075D01*
X37701132Y-50439076D01*
X37753812Y-50542466D01*
X37753814Y-50542469D01*
X37757350Y-50549408D01*
X37850417Y-50642475D01*
X37857356Y-50646010D01*
X37857358Y-50646012D01*
X37882079Y-50658608D01*
X37967689Y-50702229D01*
X38097686Y-50722818D01*
X38227683Y-50702229D01*
X38344955Y-50642475D01*
X38382723Y-50604706D01*
X38427104Y-50579084D01*
X38478350Y-50579084D01*
X38522730Y-50604706D01*
X38561589Y-50643565D01*
X38568528Y-50647100D01*
X38568530Y-50647102D01*
X38620224Y-50673441D01*
X38678861Y-50703319D01*
X38808858Y-50723908D01*
X38938855Y-50703319D01*
X39056127Y-50643565D01*
X39149194Y-50550498D01*
X39208948Y-50433226D01*
X39229537Y-50303229D01*
X39208948Y-50173232D01*
X39149194Y-50055960D01*
X39143234Y-50050000D01*
X40254321Y-50050000D01*
X40255540Y-50057697D01*
X40272566Y-50165201D01*
X40274910Y-50179997D01*
X40278445Y-50186936D01*
X40278446Y-50186937D01*
X40331126Y-50290327D01*
X40331128Y-50290330D01*
X40334664Y-50297269D01*
X40427731Y-50390336D01*
X40434670Y-50393871D01*
X40434672Y-50393873D01*
X40486366Y-50420212D01*
X40545003Y-50450090D01*
X40675000Y-50470679D01*
X40804997Y-50450090D01*
X40922269Y-50390336D01*
X41015336Y-50297269D01*
X41075090Y-50179997D01*
X41095679Y-50050000D01*
X41075575Y-49923068D01*
X56630187Y-49923068D01*
X56650277Y-50127042D01*
X56651688Y-50131694D01*
X56651689Y-50131698D01*
X56708361Y-50318520D01*
X56709774Y-50323177D01*
X56712067Y-50327468D01*
X56712068Y-50327469D01*
X56763901Y-50424442D01*
X56806391Y-50503936D01*
X56809472Y-50507691D01*
X56809474Y-50507693D01*
X56915567Y-50636967D01*
X56936417Y-50662373D01*
X57094854Y-50792399D01*
X57275613Y-50889016D01*
X57471748Y-50948513D01*
X57675722Y-50968603D01*
X57879696Y-50948513D01*
X58075831Y-50889016D01*
X58256590Y-50792399D01*
X58415027Y-50662373D01*
X58545053Y-50503936D01*
X58641670Y-50323177D01*
X58701167Y-50127042D01*
X58721257Y-49923068D01*
X58701167Y-49719094D01*
X58641670Y-49522959D01*
X58545053Y-49342200D01*
X58415027Y-49183763D01*
X58383266Y-49157697D01*
X58260347Y-49056820D01*
X58260345Y-49056818D01*
X58256590Y-49053737D01*
X58174690Y-49009961D01*
X58080123Y-48959414D01*
X58080122Y-48959413D01*
X58075831Y-48957120D01*
X58071176Y-48955708D01*
X58071174Y-48955707D01*
X57884352Y-48899035D01*
X57884348Y-48899034D01*
X57879696Y-48897623D01*
X57675722Y-48877533D01*
X57670879Y-48878010D01*
X57476590Y-48897146D01*
X57476589Y-48897146D01*
X57471748Y-48897623D01*
X57467097Y-48899033D01*
X57467091Y-48899035D01*
X57280269Y-48955707D01*
X57280263Y-48955709D01*
X57275613Y-48957120D01*
X57271325Y-48959411D01*
X57271320Y-48959414D01*
X57099141Y-49051445D01*
X57099136Y-49051447D01*
X57094854Y-49053737D01*
X57091103Y-49056815D01*
X57091096Y-49056820D01*
X56940181Y-49180673D01*
X56940175Y-49180678D01*
X56936417Y-49183763D01*
X56933332Y-49187521D01*
X56933327Y-49187527D01*
X56809474Y-49338442D01*
X56809469Y-49338449D01*
X56806391Y-49342200D01*
X56804101Y-49346482D01*
X56804099Y-49346487D01*
X56712068Y-49518666D01*
X56712065Y-49518671D01*
X56709774Y-49522959D01*
X56708363Y-49527609D01*
X56708361Y-49527615D01*
X56651689Y-49714437D01*
X56651687Y-49714443D01*
X56650277Y-49719094D01*
X56630187Y-49923068D01*
X41075575Y-49923068D01*
X41075090Y-49920003D01*
X41044693Y-49860348D01*
X41033904Y-49815406D01*
X41044693Y-49770463D01*
X41080090Y-49700997D01*
X41100679Y-49571000D01*
X41098140Y-49554972D01*
X41091375Y-49512256D01*
X41100946Y-49451824D01*
X41144211Y-49408559D01*
X41204643Y-49398988D01*
X41259160Y-49426765D01*
X41292731Y-49460336D01*
X41299670Y-49463871D01*
X41299672Y-49463873D01*
X41347989Y-49488492D01*
X41410003Y-49520090D01*
X41540000Y-49540679D01*
X41669997Y-49520090D01*
X41787269Y-49460336D01*
X41880336Y-49367269D01*
X41940090Y-49249997D01*
X41960679Y-49120000D01*
X41940090Y-48990003D01*
X41895622Y-48902731D01*
X41883873Y-48879672D01*
X41883871Y-48879670D01*
X41880336Y-48872731D01*
X41787269Y-48779664D01*
X41780330Y-48776128D01*
X41780327Y-48776126D01*
X41676937Y-48723446D01*
X41676936Y-48723445D01*
X41669997Y-48719910D01*
X41662305Y-48718691D01*
X41662303Y-48718691D01*
X41588852Y-48707058D01*
X41538869Y-48683538D01*
X41526506Y-48664058D01*
X41511131Y-48688288D01*
X41461148Y-48711809D01*
X41417696Y-48718691D01*
X41417692Y-48718692D01*
X41410003Y-48719910D01*
X41403065Y-48723444D01*
X41403062Y-48723446D01*
X41299672Y-48776126D01*
X41299665Y-48776130D01*
X41292731Y-48779664D01*
X41287226Y-48785168D01*
X41287223Y-48785171D01*
X41205171Y-48867223D01*
X41205168Y-48867226D01*
X41199664Y-48872731D01*
X41196130Y-48879665D01*
X41196126Y-48879672D01*
X41143446Y-48983062D01*
X41143444Y-48983065D01*
X41139910Y-48990003D01*
X41138692Y-48997692D01*
X41138691Y-48997696D01*
X41129327Y-49056820D01*
X41119321Y-49120000D01*
X41120540Y-49127697D01*
X41120540Y-49127699D01*
X41128624Y-49178745D01*
X41119052Y-49239176D01*
X41075787Y-49282440D01*
X41015356Y-49292011D01*
X40960839Y-49264234D01*
X40932776Y-49236171D01*
X40932775Y-49236170D01*
X40927269Y-49230664D01*
X40920330Y-49227128D01*
X40920327Y-49227126D01*
X40816937Y-49174446D01*
X40816936Y-49174445D01*
X40809997Y-49170910D01*
X40802305Y-49169691D01*
X40802303Y-49169691D01*
X40687697Y-49151540D01*
X40680000Y-49150321D01*
X40672303Y-49151540D01*
X40557696Y-49169691D01*
X40557692Y-49169692D01*
X40550003Y-49170910D01*
X40543065Y-49174444D01*
X40543062Y-49174446D01*
X40439672Y-49227126D01*
X40439665Y-49227130D01*
X40432731Y-49230664D01*
X40427226Y-49236168D01*
X40427223Y-49236171D01*
X40345171Y-49318223D01*
X40345168Y-49318226D01*
X40339664Y-49323731D01*
X40336130Y-49330665D01*
X40336126Y-49330672D01*
X40283446Y-49434062D01*
X40283444Y-49434065D01*
X40279910Y-49441003D01*
X40278692Y-49448692D01*
X40278691Y-49448696D01*
X40260540Y-49563303D01*
X40259321Y-49571000D01*
X40279910Y-49700997D01*
X40283445Y-49707934D01*
X40283447Y-49707940D01*
X40310303Y-49760647D01*
X40321094Y-49805591D01*
X40310304Y-49850536D01*
X40278447Y-49913059D01*
X40278444Y-49913065D01*
X40274910Y-49920003D01*
X40273691Y-49927694D01*
X40273691Y-49927697D01*
X40268117Y-49962893D01*
X40254321Y-50050000D01*
X39143234Y-50050000D01*
X39056127Y-49962893D01*
X39049188Y-49959357D01*
X39049185Y-49959355D01*
X38945795Y-49906675D01*
X38945794Y-49906674D01*
X38938855Y-49903139D01*
X38931163Y-49901920D01*
X38931161Y-49901920D01*
X38816555Y-49883769D01*
X38808858Y-49882550D01*
X38801161Y-49883769D01*
X38686554Y-49901920D01*
X38686550Y-49901921D01*
X38678861Y-49903139D01*
X38671923Y-49906673D01*
X38671920Y-49906675D01*
X38568530Y-49959355D01*
X38568523Y-49959359D01*
X38561589Y-49962893D01*
X38556084Y-49968397D01*
X38556081Y-49968400D01*
X38523821Y-50000661D01*
X38479440Y-50026284D01*
X38428194Y-50026284D01*
X38383813Y-50000661D01*
X38350462Y-49967310D01*
X38344955Y-49961803D01*
X38338016Y-49958267D01*
X38338013Y-49958265D01*
X38234623Y-49905585D01*
X38234622Y-49905584D01*
X38227683Y-49902049D01*
X38219991Y-49900830D01*
X38219989Y-49900830D01*
X38105383Y-49882679D01*
X38097686Y-49881460D01*
X38089989Y-49882679D01*
X37975382Y-49900830D01*
X37975378Y-49900831D01*
X37967689Y-49902049D01*
X37960751Y-49905583D01*
X37960748Y-49905585D01*
X37857358Y-49958265D01*
X37857351Y-49958269D01*
X37850417Y-49961803D01*
X37844912Y-49967307D01*
X37844909Y-49967310D01*
X37762857Y-50049362D01*
X37762854Y-50049365D01*
X37757350Y-50054870D01*
X37753816Y-50061804D01*
X37753812Y-50061811D01*
X37701132Y-50165201D01*
X37701130Y-50165204D01*
X37697596Y-50172142D01*
X37696378Y-50179831D01*
X37696377Y-50179835D01*
X37678878Y-50290327D01*
X37677007Y-50302139D01*
X32300500Y-50302139D01*
X32300500Y-49352820D01*
X34979285Y-49332293D01*
X35022710Y-49365614D01*
X35166357Y-49425115D01*
X35320508Y-49445409D01*
X35474659Y-49425115D01*
X35618306Y-49365614D01*
X35668614Y-49327011D01*
X37743476Y-49311111D01*
X37785706Y-49393991D01*
X37785708Y-49393994D01*
X37789244Y-49400933D01*
X37882311Y-49494000D01*
X37889250Y-49497535D01*
X37889252Y-49497537D01*
X37918140Y-49512256D01*
X37999583Y-49553754D01*
X38129580Y-49574343D01*
X38259577Y-49553754D01*
X38376849Y-49494000D01*
X38382356Y-49488492D01*
X38388664Y-49483910D01*
X38390029Y-49485789D01*
X38416563Y-49469490D01*
X38462680Y-49465830D01*
X38505426Y-49483523D01*
X38507224Y-49484829D01*
X38512731Y-49490336D01*
X38630003Y-49550090D01*
X38760000Y-49570679D01*
X38889997Y-49550090D01*
X39007269Y-49490336D01*
X39100336Y-49397269D01*
X39160090Y-49279997D01*
X39180679Y-49150000D01*
X39179351Y-49141618D01*
X39175928Y-49120000D01*
X39160090Y-49020003D01*
X39120283Y-48941878D01*
X39103873Y-48909672D01*
X39103871Y-48909670D01*
X39100336Y-48902731D01*
X39007269Y-48809664D01*
X39000330Y-48806128D01*
X39000327Y-48806126D01*
X38896937Y-48753446D01*
X38896936Y-48753445D01*
X38889997Y-48749910D01*
X38882305Y-48748691D01*
X38882303Y-48748691D01*
X38767697Y-48730540D01*
X38760000Y-48729321D01*
X38752303Y-48730540D01*
X38710768Y-48737118D01*
X38706063Y-48506575D01*
X38778579Y-48518060D01*
X38908576Y-48497471D01*
X39025848Y-48437717D01*
X39118915Y-48344650D01*
X39178669Y-48227378D01*
X39199258Y-48097381D01*
X39197334Y-48085236D01*
X39186320Y-48015693D01*
X39178669Y-47967384D01*
X39137608Y-47886798D01*
X39122452Y-47857053D01*
X39122450Y-47857051D01*
X39118915Y-47850112D01*
X39025848Y-47757045D01*
X39018909Y-47753509D01*
X39018906Y-47753507D01*
X38915516Y-47700827D01*
X38915515Y-47700826D01*
X38908576Y-47697291D01*
X38900884Y-47696072D01*
X38900882Y-47696072D01*
X38786276Y-47677921D01*
X38778579Y-47676702D01*
X38770882Y-47677921D01*
X38689415Y-47690823D01*
X38687347Y-47589492D01*
X40289321Y-47589492D01*
X40290540Y-47597187D01*
X40290540Y-47597189D01*
X40307892Y-47706752D01*
X40309910Y-47719489D01*
X40313445Y-47726428D01*
X40313446Y-47726429D01*
X40366126Y-47829819D01*
X40366128Y-47829822D01*
X40369664Y-47836761D01*
X40462731Y-47929828D01*
X40469670Y-47933363D01*
X40469672Y-47933365D01*
X40520674Y-47959352D01*
X40580003Y-47989582D01*
X40710000Y-48010171D01*
X40839997Y-47989582D01*
X40957269Y-47929828D01*
X40958729Y-47932694D01*
X40998698Y-47918806D01*
X41054336Y-47933296D01*
X41092539Y-47976262D01*
X41100422Y-48033213D01*
X41093135Y-48079225D01*
X41089321Y-48103306D01*
X41090540Y-48111003D01*
X41107992Y-48221198D01*
X41109910Y-48233303D01*
X41113445Y-48240242D01*
X41113446Y-48240243D01*
X41166126Y-48343633D01*
X41166128Y-48343636D01*
X41169664Y-48350575D01*
X41262731Y-48443642D01*
X41269670Y-48447177D01*
X41269672Y-48447179D01*
X41321366Y-48473518D01*
X41380003Y-48503396D01*
X41461147Y-48516247D01*
X41511129Y-48539766D01*
X41523491Y-48559246D01*
X41538870Y-48535015D01*
X41588852Y-48511496D01*
X41639997Y-48503396D01*
X41757269Y-48443642D01*
X41760715Y-48440196D01*
X47114592Y-48440196D01*
X47115968Y-48446820D01*
X47115969Y-48446826D01*
X47144225Y-48582801D01*
X47145604Y-48589436D01*
X47148719Y-48595448D01*
X47148720Y-48595450D01*
X47212615Y-48718763D01*
X47212618Y-48718767D01*
X47215731Y-48724775D01*
X47220350Y-48729721D01*
X47220351Y-48729722D01*
X47224537Y-48734204D01*
X47319772Y-48836176D01*
X47450010Y-48915375D01*
X47596786Y-48956500D01*
X47707550Y-48956500D01*
X47710927Y-48956500D01*
X47824009Y-48940957D01*
X47963818Y-48880230D01*
X48082058Y-48784034D01*
X48169961Y-48659504D01*
X48221006Y-48515877D01*
X48226183Y-48440196D01*
X52894592Y-48440196D01*
X52895968Y-48446820D01*
X52895969Y-48446826D01*
X52924225Y-48582801D01*
X52925604Y-48589436D01*
X52928719Y-48595448D01*
X52928720Y-48595450D01*
X52992615Y-48718763D01*
X52992618Y-48718767D01*
X52995731Y-48724775D01*
X53000350Y-48729721D01*
X53000351Y-48729722D01*
X53004537Y-48734204D01*
X53099772Y-48836176D01*
X53230010Y-48915375D01*
X53376786Y-48956500D01*
X53487550Y-48956500D01*
X53490927Y-48956500D01*
X53604009Y-48940957D01*
X53743818Y-48880230D01*
X53862058Y-48784034D01*
X53949961Y-48659504D01*
X54001006Y-48515877D01*
X54011408Y-48363804D01*
X53980396Y-48214564D01*
X53919677Y-48097381D01*
X53913384Y-48085236D01*
X53913382Y-48085234D01*
X53910269Y-48079225D01*
X53806228Y-47967824D01*
X53794090Y-47960443D01*
X53681772Y-47892141D01*
X53681771Y-47892140D01*
X53675990Y-47888625D01*
X53669476Y-47886800D01*
X53669472Y-47886798D01*
X53535733Y-47849326D01*
X53535729Y-47849325D01*
X53529214Y-47847500D01*
X53415073Y-47847500D01*
X53411739Y-47847958D01*
X53411728Y-47847959D01*
X53308695Y-47862121D01*
X53308691Y-47862122D01*
X53301991Y-47863043D01*
X53295787Y-47865737D01*
X53295782Y-47865739D01*
X53168398Y-47921069D01*
X53168392Y-47921072D01*
X53162182Y-47923770D01*
X53156932Y-47928040D01*
X53156924Y-47928046D01*
X53049193Y-48015693D01*
X53049189Y-48015697D01*
X53043942Y-48019966D01*
X53040040Y-48025493D01*
X53040037Y-48025497D01*
X52959943Y-48138964D01*
X52959940Y-48138968D01*
X52956039Y-48144496D01*
X52953772Y-48150872D01*
X52953772Y-48150874D01*
X52907262Y-48281739D01*
X52907260Y-48281744D01*
X52904994Y-48288123D01*
X52904532Y-48294877D01*
X52904531Y-48294882D01*
X52896545Y-48411642D01*
X52894592Y-48440196D01*
X48226183Y-48440196D01*
X48231408Y-48363804D01*
X48200396Y-48214564D01*
X48139677Y-48097381D01*
X48133384Y-48085236D01*
X48133382Y-48085234D01*
X48130269Y-48079225D01*
X48026228Y-47967824D01*
X48014090Y-47960443D01*
X47901772Y-47892141D01*
X47901771Y-47892140D01*
X47895990Y-47888625D01*
X47889476Y-47886800D01*
X47889472Y-47886798D01*
X47755733Y-47849326D01*
X47755729Y-47849325D01*
X47749214Y-47847500D01*
X47635073Y-47847500D01*
X47631739Y-47847958D01*
X47631728Y-47847959D01*
X47528695Y-47862121D01*
X47528691Y-47862122D01*
X47521991Y-47863043D01*
X47515787Y-47865737D01*
X47515782Y-47865739D01*
X47388398Y-47921069D01*
X47388392Y-47921072D01*
X47382182Y-47923770D01*
X47376932Y-47928040D01*
X47376924Y-47928046D01*
X47269193Y-48015693D01*
X47269189Y-48015697D01*
X47263942Y-48019966D01*
X47260040Y-48025493D01*
X47260037Y-48025497D01*
X47179943Y-48138964D01*
X47179940Y-48138968D01*
X47176039Y-48144496D01*
X47173772Y-48150872D01*
X47173772Y-48150874D01*
X47127262Y-48281739D01*
X47127260Y-48281744D01*
X47124994Y-48288123D01*
X47124532Y-48294877D01*
X47124531Y-48294882D01*
X47116545Y-48411642D01*
X47114592Y-48440196D01*
X41760715Y-48440196D01*
X41850336Y-48350575D01*
X41910090Y-48233303D01*
X41930679Y-48103306D01*
X41910090Y-47973309D01*
X41866010Y-47886798D01*
X41853873Y-47862978D01*
X41853871Y-47862976D01*
X41850336Y-47856037D01*
X41757269Y-47762970D01*
X41750330Y-47759434D01*
X41750327Y-47759432D01*
X41646937Y-47706752D01*
X41646936Y-47706751D01*
X41639997Y-47703216D01*
X41632305Y-47701997D01*
X41632303Y-47701997D01*
X41517697Y-47683846D01*
X41510000Y-47682627D01*
X41502303Y-47683846D01*
X41387696Y-47701997D01*
X41387692Y-47701998D01*
X41380003Y-47703216D01*
X41373065Y-47706750D01*
X41373062Y-47706752D01*
X41262731Y-47762970D01*
X41261288Y-47760139D01*
X41221104Y-47773999D01*
X41165550Y-47759432D01*
X41127432Y-47716474D01*
X41119577Y-47659585D01*
X41130679Y-47589492D01*
X41110090Y-47459495D01*
X41082866Y-47406066D01*
X41072076Y-47361123D01*
X41082868Y-47316176D01*
X41111494Y-47259997D01*
X41132083Y-47130000D01*
X41111494Y-47000003D01*
X41051740Y-46882731D01*
X40958673Y-46789664D01*
X40951734Y-46786128D01*
X40951731Y-46786126D01*
X40848341Y-46733446D01*
X40848340Y-46733445D01*
X40841401Y-46729910D01*
X40833709Y-46728691D01*
X40833707Y-46728691D01*
X40719101Y-46710540D01*
X40711404Y-46709321D01*
X40703707Y-46710540D01*
X40589100Y-46728691D01*
X40589096Y-46728692D01*
X40581407Y-46729910D01*
X40574469Y-46733444D01*
X40574466Y-46733446D01*
X40471076Y-46786126D01*
X40471069Y-46786130D01*
X40464135Y-46789664D01*
X40458630Y-46795168D01*
X40458627Y-46795171D01*
X40376575Y-46877223D01*
X40376572Y-46877226D01*
X40371068Y-46882731D01*
X40367534Y-46889665D01*
X40367530Y-46889672D01*
X40314850Y-46993062D01*
X40314848Y-46993065D01*
X40311314Y-47000003D01*
X40310096Y-47007692D01*
X40310095Y-47007696D01*
X40291944Y-47122303D01*
X40290725Y-47130000D01*
X40311314Y-47259997D01*
X40324440Y-47285758D01*
X40338536Y-47313422D01*
X40349326Y-47358367D01*
X40338536Y-47403311D01*
X40313447Y-47452551D01*
X40313444Y-47452557D01*
X40309910Y-47459495D01*
X40308691Y-47467186D01*
X40308692Y-47467188D01*
X40289321Y-47589492D01*
X38687347Y-47589492D01*
X38682505Y-47352219D01*
X38721319Y-47358367D01*
X38738719Y-47361123D01*
X38747818Y-47362564D01*
X38756917Y-47361123D01*
X38774317Y-47358367D01*
X38877815Y-47341975D01*
X38995087Y-47282221D01*
X39088154Y-47189154D01*
X39147908Y-47071882D01*
X39168497Y-46941885D01*
X39147908Y-46811888D01*
X39107939Y-46733446D01*
X39091691Y-46701557D01*
X39091689Y-46701555D01*
X39088154Y-46694616D01*
X38995087Y-46601549D01*
X38988148Y-46598013D01*
X38988145Y-46598011D01*
X38884755Y-46545331D01*
X38884754Y-46545330D01*
X38877815Y-46541795D01*
X38870123Y-46540576D01*
X38870121Y-46540576D01*
X38755515Y-46522425D01*
X38747818Y-46521206D01*
X38740121Y-46522425D01*
X38665811Y-46534193D01*
X38611848Y-43890000D01*
X39599321Y-43890000D01*
X39600540Y-43897697D01*
X39613210Y-43977697D01*
X39619910Y-44019997D01*
X39623445Y-44026936D01*
X39623446Y-44026937D01*
X39676126Y-44130327D01*
X39676128Y-44130330D01*
X39679664Y-44137269D01*
X39772731Y-44230336D01*
X39779670Y-44233871D01*
X39779672Y-44233873D01*
X39831367Y-44260213D01*
X39890003Y-44290090D01*
X40020000Y-44310679D01*
X40149997Y-44290090D01*
X40267269Y-44230336D01*
X40360336Y-44137269D01*
X40420090Y-44019997D01*
X40428009Y-43970000D01*
X43259321Y-43970000D01*
X43260540Y-43977697D01*
X43267239Y-44019997D01*
X43279910Y-44099997D01*
X43283445Y-44106936D01*
X43283446Y-44106937D01*
X43336126Y-44210327D01*
X43336128Y-44210330D01*
X43339664Y-44217269D01*
X43432731Y-44310336D01*
X43439670Y-44313871D01*
X43439672Y-44313873D01*
X43491367Y-44340213D01*
X43550003Y-44370090D01*
X43680000Y-44390679D01*
X43809997Y-44370090D01*
X43927269Y-44310336D01*
X44020336Y-44217269D01*
X44080090Y-44099997D01*
X44100679Y-43970000D01*
X44080090Y-43840003D01*
X44035791Y-43753062D01*
X44023873Y-43729672D01*
X44023871Y-43729670D01*
X44020336Y-43722731D01*
X43927269Y-43629664D01*
X43920330Y-43626128D01*
X43920327Y-43626126D01*
X43816937Y-43573446D01*
X43816936Y-43573445D01*
X43809997Y-43569910D01*
X43802305Y-43568691D01*
X43802303Y-43568691D01*
X43687697Y-43550540D01*
X43680000Y-43549321D01*
X43672303Y-43550540D01*
X43557696Y-43568691D01*
X43557692Y-43568692D01*
X43550003Y-43569910D01*
X43543065Y-43573444D01*
X43543062Y-43573446D01*
X43439672Y-43626126D01*
X43439665Y-43626130D01*
X43432731Y-43629664D01*
X43427226Y-43635168D01*
X43427223Y-43635171D01*
X43345171Y-43717223D01*
X43345168Y-43717226D01*
X43339664Y-43722731D01*
X43336130Y-43729665D01*
X43336126Y-43729672D01*
X43283446Y-43833062D01*
X43283444Y-43833065D01*
X43279910Y-43840003D01*
X43278692Y-43847692D01*
X43278691Y-43847696D01*
X43273210Y-43882305D01*
X43259321Y-43970000D01*
X40428009Y-43970000D01*
X40440679Y-43890000D01*
X40439093Y-43879986D01*
X40439460Y-43877200D01*
X40439460Y-43874513D01*
X40439814Y-43874513D01*
X40446433Y-43824234D01*
X40482954Y-43781472D01*
X40536874Y-43765500D01*
X40613445Y-43765500D01*
X40620523Y-43765500D01*
X40755856Y-43725763D01*
X40874512Y-43649507D01*
X40966878Y-43542911D01*
X41025471Y-43414611D01*
X41045544Y-43275000D01*
X41025471Y-43135389D01*
X40966878Y-43007089D01*
X40874512Y-42900493D01*
X40755856Y-42824237D01*
X40749060Y-42822241D01*
X40749059Y-42822241D01*
X40627314Y-42786494D01*
X40620523Y-42784500D01*
X40479477Y-42784500D01*
X40472686Y-42786493D01*
X40472685Y-42786494D01*
X40350940Y-42822241D01*
X40350936Y-42822242D01*
X40344144Y-42824237D01*
X40338188Y-42828064D01*
X40338185Y-42828066D01*
X40231445Y-42896664D01*
X40231442Y-42896666D01*
X40225488Y-42900493D01*
X40220851Y-42905843D01*
X40220849Y-42905846D01*
X40137762Y-43001733D01*
X40137759Y-43001737D01*
X40133122Y-43007089D01*
X40130179Y-43013532D01*
X40130177Y-43013536D01*
X40077472Y-43128942D01*
X40077469Y-43128949D01*
X40074529Y-43135389D01*
X40073521Y-43142397D01*
X40073520Y-43142402D01*
X40068480Y-43177459D01*
X40054456Y-43275000D01*
X40055464Y-43282011D01*
X40067116Y-43363055D01*
X40061206Y-43413501D01*
X40031060Y-43454377D01*
X39984612Y-43474925D01*
X39897696Y-43488691D01*
X39897692Y-43488692D01*
X39890003Y-43489910D01*
X39883065Y-43493444D01*
X39883062Y-43493446D01*
X39779672Y-43546126D01*
X39779665Y-43546130D01*
X39772731Y-43549664D01*
X39767226Y-43555168D01*
X39767223Y-43555171D01*
X39685171Y-43637223D01*
X39685168Y-43637226D01*
X39679664Y-43642731D01*
X39676130Y-43649665D01*
X39676126Y-43649672D01*
X39623446Y-43753062D01*
X39623444Y-43753065D01*
X39619910Y-43760003D01*
X39618692Y-43767692D01*
X39618691Y-43767696D01*
X39606021Y-43847696D01*
X39599321Y-43890000D01*
X38611848Y-43890000D01*
X38581246Y-42390500D01*
X55848783Y-42390500D01*
X55825000Y-48750000D01*
G37*
%TD.AperFunction*%
%TD*%
M02*
