%TF.GenerationSoftware,KiCad,Pcbnew,(7.0.0)*%
%TF.CreationDate,2023-03-09T01:51:22+00:00*%
%TF.ProjectId,Chad,43686164-2e6b-4696-9361-645f70636258,rev?*%
%TF.SameCoordinates,Original*%
%TF.FileFunction,Legend,Top*%
%TF.FilePolarity,Positive*%
%FSLAX46Y46*%
G04 Gerber Fmt 4.6, Leading zero omitted, Abs format (unit mm)*
G04 Created by KiCad (PCBNEW (7.0.0)) date 2023-03-09 01:51:22*
%MOMM*%
%LPD*%
G01*
G04 APERTURE LIST*
%ADD10C,0.150000*%
%ADD11C,0.125000*%
%ADD12C,0.152400*%
%ADD13C,0.254000*%
%ADD14C,0.100000*%
%ADD15C,0.120000*%
%ADD16C,0.127000*%
%ADD17C,0.200000*%
G04 APERTURE END LIST*
D10*
X49925000Y-83475000D02*
X49725000Y-83275000D01*
X49925000Y-83475000D02*
X50125000Y-83275000D01*
X49925000Y-82825000D02*
X49925000Y-83475000D01*
D11*
X48824464Y-82406428D02*
X48624464Y-82120714D01*
X48481607Y-82406428D02*
X48481607Y-81806428D01*
X48481607Y-81806428D02*
X48710178Y-81806428D01*
X48710178Y-81806428D02*
X48767321Y-81835000D01*
X48767321Y-81835000D02*
X48795892Y-81863571D01*
X48795892Y-81863571D02*
X48824464Y-81920714D01*
X48824464Y-81920714D02*
X48824464Y-82006428D01*
X48824464Y-82006428D02*
X48795892Y-82063571D01*
X48795892Y-82063571D02*
X48767321Y-82092142D01*
X48767321Y-82092142D02*
X48710178Y-82120714D01*
X48710178Y-82120714D02*
X48481607Y-82120714D01*
X49310178Y-82377857D02*
X49253035Y-82406428D01*
X49253035Y-82406428D02*
X49138750Y-82406428D01*
X49138750Y-82406428D02*
X49081607Y-82377857D01*
X49081607Y-82377857D02*
X49053035Y-82320714D01*
X49053035Y-82320714D02*
X49053035Y-82092142D01*
X49053035Y-82092142D02*
X49081607Y-82035000D01*
X49081607Y-82035000D02*
X49138750Y-82006428D01*
X49138750Y-82006428D02*
X49253035Y-82006428D01*
X49253035Y-82006428D02*
X49310178Y-82035000D01*
X49310178Y-82035000D02*
X49338750Y-82092142D01*
X49338750Y-82092142D02*
X49338750Y-82149285D01*
X49338750Y-82149285D02*
X49053035Y-82206428D01*
X49595893Y-82406428D02*
X49595893Y-82006428D01*
X49595893Y-82063571D02*
X49624464Y-82035000D01*
X49624464Y-82035000D02*
X49681607Y-82006428D01*
X49681607Y-82006428D02*
X49767321Y-82006428D01*
X49767321Y-82006428D02*
X49824464Y-82035000D01*
X49824464Y-82035000D02*
X49853036Y-82092142D01*
X49853036Y-82092142D02*
X49853036Y-82406428D01*
X49853036Y-82092142D02*
X49881607Y-82035000D01*
X49881607Y-82035000D02*
X49938750Y-82006428D01*
X49938750Y-82006428D02*
X50024464Y-82006428D01*
X50024464Y-82006428D02*
X50081607Y-82035000D01*
X50081607Y-82035000D02*
X50110178Y-82092142D01*
X50110178Y-82092142D02*
X50110178Y-82406428D01*
X50481607Y-82406428D02*
X50424464Y-82377857D01*
X50424464Y-82377857D02*
X50395893Y-82349285D01*
X50395893Y-82349285D02*
X50367321Y-82292142D01*
X50367321Y-82292142D02*
X50367321Y-82120714D01*
X50367321Y-82120714D02*
X50395893Y-82063571D01*
X50395893Y-82063571D02*
X50424464Y-82035000D01*
X50424464Y-82035000D02*
X50481607Y-82006428D01*
X50481607Y-82006428D02*
X50567321Y-82006428D01*
X50567321Y-82006428D02*
X50624464Y-82035000D01*
X50624464Y-82035000D02*
X50653036Y-82063571D01*
X50653036Y-82063571D02*
X50681607Y-82120714D01*
X50681607Y-82120714D02*
X50681607Y-82292142D01*
X50681607Y-82292142D02*
X50653036Y-82349285D01*
X50653036Y-82349285D02*
X50624464Y-82377857D01*
X50624464Y-82377857D02*
X50567321Y-82406428D01*
X50567321Y-82406428D02*
X50481607Y-82406428D01*
X50881607Y-82006428D02*
X51024464Y-82406428D01*
X51024464Y-82406428D02*
X51167321Y-82006428D01*
X51624464Y-82377857D02*
X51567321Y-82406428D01*
X51567321Y-82406428D02*
X51453036Y-82406428D01*
X51453036Y-82406428D02*
X51395893Y-82377857D01*
X51395893Y-82377857D02*
X51367321Y-82320714D01*
X51367321Y-82320714D02*
X51367321Y-82092142D01*
X51367321Y-82092142D02*
X51395893Y-82035000D01*
X51395893Y-82035000D02*
X51453036Y-82006428D01*
X51453036Y-82006428D02*
X51567321Y-82006428D01*
X51567321Y-82006428D02*
X51624464Y-82035000D01*
X51624464Y-82035000D02*
X51653036Y-82092142D01*
X51653036Y-82092142D02*
X51653036Y-82149285D01*
X51653036Y-82149285D02*
X51367321Y-82206428D01*
X52184464Y-82006428D02*
X52413036Y-82006428D01*
X52270179Y-82406428D02*
X52270179Y-81892142D01*
X52270179Y-81892142D02*
X52298750Y-81835000D01*
X52298750Y-81835000D02*
X52355893Y-81806428D01*
X52355893Y-81806428D02*
X52413036Y-81806428D01*
X52698750Y-82406428D02*
X52641607Y-82377857D01*
X52641607Y-82377857D02*
X52613036Y-82349285D01*
X52613036Y-82349285D02*
X52584464Y-82292142D01*
X52584464Y-82292142D02*
X52584464Y-82120714D01*
X52584464Y-82120714D02*
X52613036Y-82063571D01*
X52613036Y-82063571D02*
X52641607Y-82035000D01*
X52641607Y-82035000D02*
X52698750Y-82006428D01*
X52698750Y-82006428D02*
X52784464Y-82006428D01*
X52784464Y-82006428D02*
X52841607Y-82035000D01*
X52841607Y-82035000D02*
X52870179Y-82063571D01*
X52870179Y-82063571D02*
X52898750Y-82120714D01*
X52898750Y-82120714D02*
X52898750Y-82292142D01*
X52898750Y-82292142D02*
X52870179Y-82349285D01*
X52870179Y-82349285D02*
X52841607Y-82377857D01*
X52841607Y-82377857D02*
X52784464Y-82406428D01*
X52784464Y-82406428D02*
X52698750Y-82406428D01*
X53155893Y-82406428D02*
X53155893Y-82006428D01*
X53155893Y-82120714D02*
X53184464Y-82063571D01*
X53184464Y-82063571D02*
X53213036Y-82035000D01*
X53213036Y-82035000D02*
X53270178Y-82006428D01*
X53270178Y-82006428D02*
X53327321Y-82006428D01*
X48567321Y-83035571D02*
X48510178Y-83007000D01*
X48510178Y-83007000D02*
X48481607Y-82978428D01*
X48481607Y-82978428D02*
X48453035Y-82921285D01*
X48453035Y-82921285D02*
X48453035Y-82892714D01*
X48453035Y-82892714D02*
X48481607Y-82835571D01*
X48481607Y-82835571D02*
X48510178Y-82807000D01*
X48510178Y-82807000D02*
X48567321Y-82778428D01*
X48567321Y-82778428D02*
X48681607Y-82778428D01*
X48681607Y-82778428D02*
X48738750Y-82807000D01*
X48738750Y-82807000D02*
X48767321Y-82835571D01*
X48767321Y-82835571D02*
X48795892Y-82892714D01*
X48795892Y-82892714D02*
X48795892Y-82921285D01*
X48795892Y-82921285D02*
X48767321Y-82978428D01*
X48767321Y-82978428D02*
X48738750Y-83007000D01*
X48738750Y-83007000D02*
X48681607Y-83035571D01*
X48681607Y-83035571D02*
X48567321Y-83035571D01*
X48567321Y-83035571D02*
X48510178Y-83064142D01*
X48510178Y-83064142D02*
X48481607Y-83092714D01*
X48481607Y-83092714D02*
X48453035Y-83149857D01*
X48453035Y-83149857D02*
X48453035Y-83264142D01*
X48453035Y-83264142D02*
X48481607Y-83321285D01*
X48481607Y-83321285D02*
X48510178Y-83349857D01*
X48510178Y-83349857D02*
X48567321Y-83378428D01*
X48567321Y-83378428D02*
X48681607Y-83378428D01*
X48681607Y-83378428D02*
X48738750Y-83349857D01*
X48738750Y-83349857D02*
X48767321Y-83321285D01*
X48767321Y-83321285D02*
X48795892Y-83264142D01*
X48795892Y-83264142D02*
X48795892Y-83149857D01*
X48795892Y-83149857D02*
X48767321Y-83092714D01*
X48767321Y-83092714D02*
X48738750Y-83064142D01*
X48738750Y-83064142D02*
X48681607Y-83035571D01*
X48967321Y-82778428D02*
X49167321Y-83378428D01*
X49167321Y-83378428D02*
X49367321Y-82778428D01*
%TO.C,C21*%
X39211071Y-46371428D02*
X39234880Y-46395237D01*
X39234880Y-46395237D02*
X39258690Y-46466666D01*
X39258690Y-46466666D02*
X39258690Y-46514285D01*
X39258690Y-46514285D02*
X39234880Y-46585713D01*
X39234880Y-46585713D02*
X39187261Y-46633332D01*
X39187261Y-46633332D02*
X39139642Y-46657142D01*
X39139642Y-46657142D02*
X39044404Y-46680951D01*
X39044404Y-46680951D02*
X38972976Y-46680951D01*
X38972976Y-46680951D02*
X38877738Y-46657142D01*
X38877738Y-46657142D02*
X38830119Y-46633332D01*
X38830119Y-46633332D02*
X38782500Y-46585713D01*
X38782500Y-46585713D02*
X38758690Y-46514285D01*
X38758690Y-46514285D02*
X38758690Y-46466666D01*
X38758690Y-46466666D02*
X38782500Y-46395237D01*
X38782500Y-46395237D02*
X38806309Y-46371428D01*
X38806309Y-46180951D02*
X38782500Y-46157142D01*
X38782500Y-46157142D02*
X38758690Y-46109523D01*
X38758690Y-46109523D02*
X38758690Y-45990475D01*
X38758690Y-45990475D02*
X38782500Y-45942856D01*
X38782500Y-45942856D02*
X38806309Y-45919047D01*
X38806309Y-45919047D02*
X38853928Y-45895237D01*
X38853928Y-45895237D02*
X38901547Y-45895237D01*
X38901547Y-45895237D02*
X38972976Y-45919047D01*
X38972976Y-45919047D02*
X39258690Y-46204761D01*
X39258690Y-46204761D02*
X39258690Y-45895237D01*
X39258690Y-45419047D02*
X39258690Y-45704761D01*
X39258690Y-45561904D02*
X38758690Y-45561904D01*
X38758690Y-45561904D02*
X38830119Y-45609523D01*
X38830119Y-45609523D02*
X38877738Y-45657142D01*
X38877738Y-45657142D02*
X38901547Y-45704761D01*
%TO.C,TP10*%
X45676190Y-70353690D02*
X45509524Y-70115595D01*
X45390476Y-70353690D02*
X45390476Y-69853690D01*
X45390476Y-69853690D02*
X45580952Y-69853690D01*
X45580952Y-69853690D02*
X45628571Y-69877500D01*
X45628571Y-69877500D02*
X45652381Y-69901309D01*
X45652381Y-69901309D02*
X45676190Y-69948928D01*
X45676190Y-69948928D02*
X45676190Y-70020357D01*
X45676190Y-70020357D02*
X45652381Y-70067976D01*
X45652381Y-70067976D02*
X45628571Y-70091785D01*
X45628571Y-70091785D02*
X45580952Y-70115595D01*
X45580952Y-70115595D02*
X45390476Y-70115595D01*
X45842857Y-69853690D02*
X46176190Y-70353690D01*
X46176190Y-69853690D02*
X45842857Y-70353690D01*
X46295238Y-69853690D02*
X46580952Y-69853690D01*
X46438095Y-70353690D02*
X46438095Y-69853690D01*
X46747618Y-70353690D02*
X46747618Y-69853690D01*
X46747618Y-69853690D02*
X46938094Y-69853690D01*
X46938094Y-69853690D02*
X46985713Y-69877500D01*
X46985713Y-69877500D02*
X47009523Y-69901309D01*
X47009523Y-69901309D02*
X47033332Y-69948928D01*
X47033332Y-69948928D02*
X47033332Y-70020357D01*
X47033332Y-70020357D02*
X47009523Y-70067976D01*
X47009523Y-70067976D02*
X46985713Y-70091785D01*
X46985713Y-70091785D02*
X46938094Y-70115595D01*
X46938094Y-70115595D02*
X46747618Y-70115595D01*
D10*
%TO.C,12VLED1*%
X45382143Y-77295428D02*
X45382143Y-76695428D01*
X45382143Y-76695428D02*
X45525000Y-76695428D01*
X45525000Y-76695428D02*
X45610714Y-76724000D01*
X45610714Y-76724000D02*
X45667857Y-76781142D01*
X45667857Y-76781142D02*
X45696428Y-76838285D01*
X45696428Y-76838285D02*
X45725000Y-76952571D01*
X45725000Y-76952571D02*
X45725000Y-77038285D01*
X45725000Y-77038285D02*
X45696428Y-77152571D01*
X45696428Y-77152571D02*
X45667857Y-77209714D01*
X45667857Y-77209714D02*
X45610714Y-77266857D01*
X45610714Y-77266857D02*
X45525000Y-77295428D01*
X45525000Y-77295428D02*
X45382143Y-77295428D01*
X45982143Y-76981142D02*
X46182143Y-76981142D01*
X46267857Y-77295428D02*
X45982143Y-77295428D01*
X45982143Y-77295428D02*
X45982143Y-76695428D01*
X45982143Y-76695428D02*
X46267857Y-76695428D01*
X46525000Y-77295428D02*
X46525000Y-76695428D01*
X46525000Y-76695428D02*
X46753571Y-76695428D01*
X46753571Y-76695428D02*
X46810714Y-76724000D01*
X46810714Y-76724000D02*
X46839285Y-76752571D01*
X46839285Y-76752571D02*
X46867857Y-76809714D01*
X46867857Y-76809714D02*
X46867857Y-76895428D01*
X46867857Y-76895428D02*
X46839285Y-76952571D01*
X46839285Y-76952571D02*
X46810714Y-76981142D01*
X46810714Y-76981142D02*
X46753571Y-77009714D01*
X46753571Y-77009714D02*
X46525000Y-77009714D01*
X47410714Y-77295428D02*
X47125000Y-77295428D01*
X47125000Y-77295428D02*
X47125000Y-76695428D01*
X47724999Y-76695428D02*
X47839285Y-76695428D01*
X47839285Y-76695428D02*
X47896428Y-76724000D01*
X47896428Y-76724000D02*
X47953571Y-76781142D01*
X47953571Y-76781142D02*
X47982142Y-76895428D01*
X47982142Y-76895428D02*
X47982142Y-77095428D01*
X47982142Y-77095428D02*
X47953571Y-77209714D01*
X47953571Y-77209714D02*
X47896428Y-77266857D01*
X47896428Y-77266857D02*
X47839285Y-77295428D01*
X47839285Y-77295428D02*
X47724999Y-77295428D01*
X47724999Y-77295428D02*
X47667857Y-77266857D01*
X47667857Y-77266857D02*
X47610714Y-77209714D01*
X47610714Y-77209714D02*
X47582142Y-77095428D01*
X47582142Y-77095428D02*
X47582142Y-76895428D01*
X47582142Y-76895428D02*
X47610714Y-76781142D01*
X47610714Y-76781142D02*
X47667857Y-76724000D01*
X47667857Y-76724000D02*
X47724999Y-76695428D01*
X48353570Y-77009714D02*
X48353570Y-77295428D01*
X48153570Y-76695428D02*
X48353570Y-77009714D01*
X48353570Y-77009714D02*
X48553570Y-76695428D01*
X45405000Y-78295428D02*
X45405000Y-77695428D01*
X45405000Y-77695428D02*
X45633571Y-77695428D01*
X45633571Y-77695428D02*
X45690714Y-77724000D01*
X45690714Y-77724000D02*
X45719285Y-77752571D01*
X45719285Y-77752571D02*
X45747857Y-77809714D01*
X45747857Y-77809714D02*
X45747857Y-77895428D01*
X45747857Y-77895428D02*
X45719285Y-77952571D01*
X45719285Y-77952571D02*
X45690714Y-77981142D01*
X45690714Y-77981142D02*
X45633571Y-78009714D01*
X45633571Y-78009714D02*
X45405000Y-78009714D01*
X45947857Y-77695428D02*
X46090714Y-78295428D01*
X46090714Y-78295428D02*
X46205000Y-77866857D01*
X46205000Y-77866857D02*
X46319285Y-78295428D01*
X46319285Y-78295428D02*
X46462143Y-77695428D01*
X47033571Y-78295428D02*
X46833571Y-78009714D01*
X46690714Y-78295428D02*
X46690714Y-77695428D01*
X46690714Y-77695428D02*
X46919285Y-77695428D01*
X46919285Y-77695428D02*
X46976428Y-77724000D01*
X46976428Y-77724000D02*
X47004999Y-77752571D01*
X47004999Y-77752571D02*
X47033571Y-77809714D01*
X47033571Y-77809714D02*
X47033571Y-77895428D01*
X47033571Y-77895428D02*
X47004999Y-77952571D01*
X47004999Y-77952571D02*
X46976428Y-77981142D01*
X46976428Y-77981142D02*
X46919285Y-78009714D01*
X46919285Y-78009714D02*
X46690714Y-78009714D01*
%TO.C,C30*%
X41972142Y-85692857D02*
X42019761Y-85740476D01*
X42019761Y-85740476D02*
X42067380Y-85883333D01*
X42067380Y-85883333D02*
X42067380Y-85978571D01*
X42067380Y-85978571D02*
X42019761Y-86121428D01*
X42019761Y-86121428D02*
X41924523Y-86216666D01*
X41924523Y-86216666D02*
X41829285Y-86264285D01*
X41829285Y-86264285D02*
X41638809Y-86311904D01*
X41638809Y-86311904D02*
X41495952Y-86311904D01*
X41495952Y-86311904D02*
X41305476Y-86264285D01*
X41305476Y-86264285D02*
X41210238Y-86216666D01*
X41210238Y-86216666D02*
X41115000Y-86121428D01*
X41115000Y-86121428D02*
X41067380Y-85978571D01*
X41067380Y-85978571D02*
X41067380Y-85883333D01*
X41067380Y-85883333D02*
X41115000Y-85740476D01*
X41115000Y-85740476D02*
X41162619Y-85692857D01*
X41067380Y-85359523D02*
X41067380Y-84740476D01*
X41067380Y-84740476D02*
X41448333Y-85073809D01*
X41448333Y-85073809D02*
X41448333Y-84930952D01*
X41448333Y-84930952D02*
X41495952Y-84835714D01*
X41495952Y-84835714D02*
X41543571Y-84788095D01*
X41543571Y-84788095D02*
X41638809Y-84740476D01*
X41638809Y-84740476D02*
X41876904Y-84740476D01*
X41876904Y-84740476D02*
X41972142Y-84788095D01*
X41972142Y-84788095D02*
X42019761Y-84835714D01*
X42019761Y-84835714D02*
X42067380Y-84930952D01*
X42067380Y-84930952D02*
X42067380Y-85216666D01*
X42067380Y-85216666D02*
X42019761Y-85311904D01*
X42019761Y-85311904D02*
X41972142Y-85359523D01*
X41067380Y-84121428D02*
X41067380Y-84026190D01*
X41067380Y-84026190D02*
X41115000Y-83930952D01*
X41115000Y-83930952D02*
X41162619Y-83883333D01*
X41162619Y-83883333D02*
X41257857Y-83835714D01*
X41257857Y-83835714D02*
X41448333Y-83788095D01*
X41448333Y-83788095D02*
X41686428Y-83788095D01*
X41686428Y-83788095D02*
X41876904Y-83835714D01*
X41876904Y-83835714D02*
X41972142Y-83883333D01*
X41972142Y-83883333D02*
X42019761Y-83930952D01*
X42019761Y-83930952D02*
X42067380Y-84026190D01*
X42067380Y-84026190D02*
X42067380Y-84121428D01*
X42067380Y-84121428D02*
X42019761Y-84216666D01*
X42019761Y-84216666D02*
X41972142Y-84264285D01*
X41972142Y-84264285D02*
X41876904Y-84311904D01*
X41876904Y-84311904D02*
X41686428Y-84359523D01*
X41686428Y-84359523D02*
X41448333Y-84359523D01*
X41448333Y-84359523D02*
X41257857Y-84311904D01*
X41257857Y-84311904D02*
X41162619Y-84264285D01*
X41162619Y-84264285D02*
X41115000Y-84216666D01*
X41115000Y-84216666D02*
X41067380Y-84121428D01*
%TO.C,J4*%
X53991857Y-84894285D02*
X54020428Y-84808571D01*
X54020428Y-84808571D02*
X54020428Y-84665713D01*
X54020428Y-84665713D02*
X53991857Y-84608571D01*
X53991857Y-84608571D02*
X53963285Y-84579999D01*
X53963285Y-84579999D02*
X53906142Y-84551428D01*
X53906142Y-84551428D02*
X53849000Y-84551428D01*
X53849000Y-84551428D02*
X53791857Y-84579999D01*
X53791857Y-84579999D02*
X53763285Y-84608571D01*
X53763285Y-84608571D02*
X53734714Y-84665713D01*
X53734714Y-84665713D02*
X53706142Y-84779999D01*
X53706142Y-84779999D02*
X53677571Y-84837142D01*
X53677571Y-84837142D02*
X53649000Y-84865713D01*
X53649000Y-84865713D02*
X53591857Y-84894285D01*
X53591857Y-84894285D02*
X53534714Y-84894285D01*
X53534714Y-84894285D02*
X53477571Y-84865713D01*
X53477571Y-84865713D02*
X53449000Y-84837142D01*
X53449000Y-84837142D02*
X53420428Y-84779999D01*
X53420428Y-84779999D02*
X53420428Y-84637142D01*
X53420428Y-84637142D02*
X53449000Y-84551428D01*
X53706142Y-84294284D02*
X53706142Y-84094284D01*
X54020428Y-84008570D02*
X54020428Y-84294284D01*
X54020428Y-84294284D02*
X53420428Y-84294284D01*
X53420428Y-84294284D02*
X53420428Y-84008570D01*
X54020428Y-83408570D02*
X53734714Y-83608570D01*
X54020428Y-83751427D02*
X53420428Y-83751427D01*
X53420428Y-83751427D02*
X53420428Y-83522856D01*
X53420428Y-83522856D02*
X53449000Y-83465713D01*
X53449000Y-83465713D02*
X53477571Y-83437142D01*
X53477571Y-83437142D02*
X53534714Y-83408570D01*
X53534714Y-83408570D02*
X53620428Y-83408570D01*
X53620428Y-83408570D02*
X53677571Y-83437142D01*
X53677571Y-83437142D02*
X53706142Y-83465713D01*
X53706142Y-83465713D02*
X53734714Y-83522856D01*
X53734714Y-83522856D02*
X53734714Y-83751427D01*
X53420428Y-83237142D02*
X54020428Y-83037142D01*
X54020428Y-83037142D02*
X53420428Y-82837142D01*
X53420428Y-82522856D02*
X53420428Y-82408570D01*
X53420428Y-82408570D02*
X53449000Y-82351427D01*
X53449000Y-82351427D02*
X53506142Y-82294284D01*
X53506142Y-82294284D02*
X53620428Y-82265713D01*
X53620428Y-82265713D02*
X53820428Y-82265713D01*
X53820428Y-82265713D02*
X53934714Y-82294284D01*
X53934714Y-82294284D02*
X53991857Y-82351427D01*
X53991857Y-82351427D02*
X54020428Y-82408570D01*
X54020428Y-82408570D02*
X54020428Y-82522856D01*
X54020428Y-82522856D02*
X53991857Y-82579999D01*
X53991857Y-82579999D02*
X53934714Y-82637141D01*
X53934714Y-82637141D02*
X53820428Y-82665713D01*
X53820428Y-82665713D02*
X53620428Y-82665713D01*
X53620428Y-82665713D02*
X53506142Y-82637141D01*
X53506142Y-82637141D02*
X53449000Y-82579999D01*
X53449000Y-82579999D02*
X53420428Y-82522856D01*
X53963285Y-81305713D02*
X53991857Y-81334285D01*
X53991857Y-81334285D02*
X54020428Y-81419999D01*
X54020428Y-81419999D02*
X54020428Y-81477142D01*
X54020428Y-81477142D02*
X53991857Y-81562856D01*
X53991857Y-81562856D02*
X53934714Y-81619999D01*
X53934714Y-81619999D02*
X53877571Y-81648570D01*
X53877571Y-81648570D02*
X53763285Y-81677142D01*
X53763285Y-81677142D02*
X53677571Y-81677142D01*
X53677571Y-81677142D02*
X53563285Y-81648570D01*
X53563285Y-81648570D02*
X53506142Y-81619999D01*
X53506142Y-81619999D02*
X53449000Y-81562856D01*
X53449000Y-81562856D02*
X53420428Y-81477142D01*
X53420428Y-81477142D02*
X53420428Y-81419999D01*
X53420428Y-81419999D02*
X53449000Y-81334285D01*
X53449000Y-81334285D02*
X53477571Y-81305713D01*
X54020428Y-81048570D02*
X53420428Y-81048570D01*
X53706142Y-81048570D02*
X53706142Y-80705713D01*
X54020428Y-80705713D02*
X53420428Y-80705713D01*
X53477571Y-80448571D02*
X53449000Y-80419999D01*
X53449000Y-80419999D02*
X53420428Y-80362857D01*
X53420428Y-80362857D02*
X53420428Y-80219999D01*
X53420428Y-80219999D02*
X53449000Y-80162857D01*
X53449000Y-80162857D02*
X53477571Y-80134285D01*
X53477571Y-80134285D02*
X53534714Y-80105714D01*
X53534714Y-80105714D02*
X53591857Y-80105714D01*
X53591857Y-80105714D02*
X53677571Y-80134285D01*
X53677571Y-80134285D02*
X54020428Y-80477142D01*
X54020428Y-80477142D02*
X54020428Y-80105714D01*
%TO.C,C11*%
X48414285Y-65838285D02*
X48385713Y-65866857D01*
X48385713Y-65866857D02*
X48299999Y-65895428D01*
X48299999Y-65895428D02*
X48242856Y-65895428D01*
X48242856Y-65895428D02*
X48157142Y-65866857D01*
X48157142Y-65866857D02*
X48099999Y-65809714D01*
X48099999Y-65809714D02*
X48071428Y-65752571D01*
X48071428Y-65752571D02*
X48042856Y-65638285D01*
X48042856Y-65638285D02*
X48042856Y-65552571D01*
X48042856Y-65552571D02*
X48071428Y-65438285D01*
X48071428Y-65438285D02*
X48099999Y-65381142D01*
X48099999Y-65381142D02*
X48157142Y-65324000D01*
X48157142Y-65324000D02*
X48242856Y-65295428D01*
X48242856Y-65295428D02*
X48299999Y-65295428D01*
X48299999Y-65295428D02*
X48385713Y-65324000D01*
X48385713Y-65324000D02*
X48414285Y-65352571D01*
X48985713Y-65895428D02*
X48642856Y-65895428D01*
X48814285Y-65895428D02*
X48814285Y-65295428D01*
X48814285Y-65295428D02*
X48757142Y-65381142D01*
X48757142Y-65381142D02*
X48699999Y-65438285D01*
X48699999Y-65438285D02*
X48642856Y-65466857D01*
X49557142Y-65895428D02*
X49214285Y-65895428D01*
X49385714Y-65895428D02*
X49385714Y-65295428D01*
X49385714Y-65295428D02*
X49328571Y-65381142D01*
X49328571Y-65381142D02*
X49271428Y-65438285D01*
X49271428Y-65438285D02*
X49214285Y-65466857D01*
%TO.C,C19*%
X32964285Y-63088285D02*
X32935713Y-63116857D01*
X32935713Y-63116857D02*
X32849999Y-63145428D01*
X32849999Y-63145428D02*
X32792856Y-63145428D01*
X32792856Y-63145428D02*
X32707142Y-63116857D01*
X32707142Y-63116857D02*
X32649999Y-63059714D01*
X32649999Y-63059714D02*
X32621428Y-63002571D01*
X32621428Y-63002571D02*
X32592856Y-62888285D01*
X32592856Y-62888285D02*
X32592856Y-62802571D01*
X32592856Y-62802571D02*
X32621428Y-62688285D01*
X32621428Y-62688285D02*
X32649999Y-62631142D01*
X32649999Y-62631142D02*
X32707142Y-62574000D01*
X32707142Y-62574000D02*
X32792856Y-62545428D01*
X32792856Y-62545428D02*
X32849999Y-62545428D01*
X32849999Y-62545428D02*
X32935713Y-62574000D01*
X32935713Y-62574000D02*
X32964285Y-62602571D01*
X33535713Y-63145428D02*
X33192856Y-63145428D01*
X33364285Y-63145428D02*
X33364285Y-62545428D01*
X33364285Y-62545428D02*
X33307142Y-62631142D01*
X33307142Y-62631142D02*
X33249999Y-62688285D01*
X33249999Y-62688285D02*
X33192856Y-62716857D01*
X33821428Y-63145428D02*
X33935714Y-63145428D01*
X33935714Y-63145428D02*
X33992857Y-63116857D01*
X33992857Y-63116857D02*
X34021428Y-63088285D01*
X34021428Y-63088285D02*
X34078571Y-63002571D01*
X34078571Y-63002571D02*
X34107142Y-62888285D01*
X34107142Y-62888285D02*
X34107142Y-62659714D01*
X34107142Y-62659714D02*
X34078571Y-62602571D01*
X34078571Y-62602571D02*
X34050000Y-62574000D01*
X34050000Y-62574000D02*
X33992857Y-62545428D01*
X33992857Y-62545428D02*
X33878571Y-62545428D01*
X33878571Y-62545428D02*
X33821428Y-62574000D01*
X33821428Y-62574000D02*
X33792857Y-62602571D01*
X33792857Y-62602571D02*
X33764285Y-62659714D01*
X33764285Y-62659714D02*
X33764285Y-62802571D01*
X33764285Y-62802571D02*
X33792857Y-62859714D01*
X33792857Y-62859714D02*
X33821428Y-62888285D01*
X33821428Y-62888285D02*
X33878571Y-62916857D01*
X33878571Y-62916857D02*
X33992857Y-62916857D01*
X33992857Y-62916857D02*
X34050000Y-62888285D01*
X34050000Y-62888285D02*
X34078571Y-62859714D01*
X34078571Y-62859714D02*
X34107142Y-62802571D01*
%TO.C,R6*%
X47925000Y-67120428D02*
X47725000Y-66834714D01*
X47582143Y-67120428D02*
X47582143Y-66520428D01*
X47582143Y-66520428D02*
X47810714Y-66520428D01*
X47810714Y-66520428D02*
X47867857Y-66549000D01*
X47867857Y-66549000D02*
X47896428Y-66577571D01*
X47896428Y-66577571D02*
X47925000Y-66634714D01*
X47925000Y-66634714D02*
X47925000Y-66720428D01*
X47925000Y-66720428D02*
X47896428Y-66777571D01*
X47896428Y-66777571D02*
X47867857Y-66806142D01*
X47867857Y-66806142D02*
X47810714Y-66834714D01*
X47810714Y-66834714D02*
X47582143Y-66834714D01*
X48439286Y-66520428D02*
X48325000Y-66520428D01*
X48325000Y-66520428D02*
X48267857Y-66549000D01*
X48267857Y-66549000D02*
X48239286Y-66577571D01*
X48239286Y-66577571D02*
X48182143Y-66663285D01*
X48182143Y-66663285D02*
X48153571Y-66777571D01*
X48153571Y-66777571D02*
X48153571Y-67006142D01*
X48153571Y-67006142D02*
X48182143Y-67063285D01*
X48182143Y-67063285D02*
X48210714Y-67091857D01*
X48210714Y-67091857D02*
X48267857Y-67120428D01*
X48267857Y-67120428D02*
X48382143Y-67120428D01*
X48382143Y-67120428D02*
X48439286Y-67091857D01*
X48439286Y-67091857D02*
X48467857Y-67063285D01*
X48467857Y-67063285D02*
X48496428Y-67006142D01*
X48496428Y-67006142D02*
X48496428Y-66863285D01*
X48496428Y-66863285D02*
X48467857Y-66806142D01*
X48467857Y-66806142D02*
X48439286Y-66777571D01*
X48439286Y-66777571D02*
X48382143Y-66749000D01*
X48382143Y-66749000D02*
X48267857Y-66749000D01*
X48267857Y-66749000D02*
X48210714Y-66777571D01*
X48210714Y-66777571D02*
X48182143Y-66806142D01*
X48182143Y-66806142D02*
X48153571Y-66863285D01*
%TO.C,R2*%
X51725000Y-71745428D02*
X51525000Y-71459714D01*
X51382143Y-71745428D02*
X51382143Y-71145428D01*
X51382143Y-71145428D02*
X51610714Y-71145428D01*
X51610714Y-71145428D02*
X51667857Y-71174000D01*
X51667857Y-71174000D02*
X51696428Y-71202571D01*
X51696428Y-71202571D02*
X51725000Y-71259714D01*
X51725000Y-71259714D02*
X51725000Y-71345428D01*
X51725000Y-71345428D02*
X51696428Y-71402571D01*
X51696428Y-71402571D02*
X51667857Y-71431142D01*
X51667857Y-71431142D02*
X51610714Y-71459714D01*
X51610714Y-71459714D02*
X51382143Y-71459714D01*
X51953571Y-71202571D02*
X51982143Y-71174000D01*
X51982143Y-71174000D02*
X52039286Y-71145428D01*
X52039286Y-71145428D02*
X52182143Y-71145428D01*
X52182143Y-71145428D02*
X52239286Y-71174000D01*
X52239286Y-71174000D02*
X52267857Y-71202571D01*
X52267857Y-71202571D02*
X52296428Y-71259714D01*
X52296428Y-71259714D02*
X52296428Y-71316857D01*
X52296428Y-71316857D02*
X52267857Y-71402571D01*
X52267857Y-71402571D02*
X51925000Y-71745428D01*
X51925000Y-71745428D02*
X52296428Y-71745428D01*
D12*
%TO.C,C31*%
X53928305Y-96332472D02*
X53861218Y-96326603D01*
X53861218Y-96326603D02*
X53732913Y-96247777D01*
X53732913Y-96247777D02*
X53671695Y-96174820D01*
X53671695Y-96174820D02*
X53616347Y-96034777D01*
X53616347Y-96034777D02*
X53628085Y-95900602D01*
X53628085Y-95900602D02*
X53670433Y-95802906D01*
X53670433Y-95802906D02*
X53785737Y-95643992D01*
X53785737Y-95643992D02*
X53895172Y-95552165D01*
X53895172Y-95552165D02*
X54071694Y-95466208D01*
X54071694Y-95466208D02*
X54175260Y-95441468D01*
X54175260Y-95441468D02*
X54309434Y-95453207D01*
X54309434Y-95453207D02*
X54437740Y-95532033D01*
X54437740Y-95532033D02*
X54498957Y-95604989D01*
X54498957Y-95604989D02*
X54554306Y-95745033D01*
X54554306Y-95745033D02*
X54548437Y-95812121D01*
X54835656Y-96006251D02*
X55233572Y-96480469D01*
X55233572Y-96480469D02*
X54727483Y-96469992D01*
X54727483Y-96469992D02*
X54819310Y-96579427D01*
X54819310Y-96579427D02*
X54844049Y-96682993D01*
X54844049Y-96682993D02*
X54838180Y-96750080D01*
X54838180Y-96750080D02*
X54795832Y-96847776D01*
X54795832Y-96847776D02*
X54613441Y-97000821D01*
X54613441Y-97000821D02*
X54509875Y-97025560D01*
X54509875Y-97025560D02*
X54442788Y-97019691D01*
X54442788Y-97019691D02*
X54345092Y-96977343D01*
X54345092Y-96977343D02*
X54161438Y-96758473D01*
X54161438Y-96758473D02*
X54136699Y-96654908D01*
X54136699Y-96654908D02*
X54142568Y-96587821D01*
X55079706Y-97852823D02*
X54712399Y-97415083D01*
X54896053Y-97633953D02*
X55662097Y-96991165D01*
X55662097Y-96991165D02*
X55491444Y-97010035D01*
X55491444Y-97010035D02*
X55357270Y-96998297D01*
X55357270Y-96998297D02*
X55259574Y-96955949D01*
D11*
%TO.C,R17*%
X32783690Y-49571428D02*
X32545595Y-49738094D01*
X32783690Y-49857142D02*
X32283690Y-49857142D01*
X32283690Y-49857142D02*
X32283690Y-49666666D01*
X32283690Y-49666666D02*
X32307500Y-49619047D01*
X32307500Y-49619047D02*
X32331309Y-49595237D01*
X32331309Y-49595237D02*
X32378928Y-49571428D01*
X32378928Y-49571428D02*
X32450357Y-49571428D01*
X32450357Y-49571428D02*
X32497976Y-49595237D01*
X32497976Y-49595237D02*
X32521785Y-49619047D01*
X32521785Y-49619047D02*
X32545595Y-49666666D01*
X32545595Y-49666666D02*
X32545595Y-49857142D01*
X32783690Y-49095237D02*
X32783690Y-49380951D01*
X32783690Y-49238094D02*
X32283690Y-49238094D01*
X32283690Y-49238094D02*
X32355119Y-49285713D01*
X32355119Y-49285713D02*
X32402738Y-49333332D01*
X32402738Y-49333332D02*
X32426547Y-49380951D01*
X32283690Y-48928571D02*
X32283690Y-48595238D01*
X32283690Y-48595238D02*
X32783690Y-48809523D01*
D10*
%TO.C,D2*%
X51320428Y-55192856D02*
X50720428Y-55192856D01*
X50720428Y-55192856D02*
X50720428Y-55049999D01*
X50720428Y-55049999D02*
X50749000Y-54964285D01*
X50749000Y-54964285D02*
X50806142Y-54907142D01*
X50806142Y-54907142D02*
X50863285Y-54878571D01*
X50863285Y-54878571D02*
X50977571Y-54849999D01*
X50977571Y-54849999D02*
X51063285Y-54849999D01*
X51063285Y-54849999D02*
X51177571Y-54878571D01*
X51177571Y-54878571D02*
X51234714Y-54907142D01*
X51234714Y-54907142D02*
X51291857Y-54964285D01*
X51291857Y-54964285D02*
X51320428Y-55049999D01*
X51320428Y-55049999D02*
X51320428Y-55192856D01*
X50777571Y-54621428D02*
X50749000Y-54592856D01*
X50749000Y-54592856D02*
X50720428Y-54535714D01*
X50720428Y-54535714D02*
X50720428Y-54392856D01*
X50720428Y-54392856D02*
X50749000Y-54335714D01*
X50749000Y-54335714D02*
X50777571Y-54307142D01*
X50777571Y-54307142D02*
X50834714Y-54278571D01*
X50834714Y-54278571D02*
X50891857Y-54278571D01*
X50891857Y-54278571D02*
X50977571Y-54307142D01*
X50977571Y-54307142D02*
X51320428Y-54649999D01*
X51320428Y-54649999D02*
X51320428Y-54278571D01*
%TO.C,R1*%
X58710428Y-64089999D02*
X58424714Y-64289999D01*
X58710428Y-64432856D02*
X58110428Y-64432856D01*
X58110428Y-64432856D02*
X58110428Y-64204285D01*
X58110428Y-64204285D02*
X58139000Y-64147142D01*
X58139000Y-64147142D02*
X58167571Y-64118571D01*
X58167571Y-64118571D02*
X58224714Y-64089999D01*
X58224714Y-64089999D02*
X58310428Y-64089999D01*
X58310428Y-64089999D02*
X58367571Y-64118571D01*
X58367571Y-64118571D02*
X58396142Y-64147142D01*
X58396142Y-64147142D02*
X58424714Y-64204285D01*
X58424714Y-64204285D02*
X58424714Y-64432856D01*
X58710428Y-63518571D02*
X58710428Y-63861428D01*
X58710428Y-63689999D02*
X58110428Y-63689999D01*
X58110428Y-63689999D02*
X58196142Y-63747142D01*
X58196142Y-63747142D02*
X58253285Y-63804285D01*
X58253285Y-63804285D02*
X58281857Y-63861428D01*
D12*
%TO.C,R18*%
X52899999Y-88507166D02*
X52666666Y-88173833D01*
X52499999Y-88507166D02*
X52499999Y-87807166D01*
X52499999Y-87807166D02*
X52766666Y-87807166D01*
X52766666Y-87807166D02*
X52833333Y-87840500D01*
X52833333Y-87840500D02*
X52866666Y-87873833D01*
X52866666Y-87873833D02*
X52899999Y-87940500D01*
X52899999Y-87940500D02*
X52899999Y-88040500D01*
X52899999Y-88040500D02*
X52866666Y-88107166D01*
X52866666Y-88107166D02*
X52833333Y-88140500D01*
X52833333Y-88140500D02*
X52766666Y-88173833D01*
X52766666Y-88173833D02*
X52499999Y-88173833D01*
X53566666Y-88507166D02*
X53166666Y-88507166D01*
X53366666Y-88507166D02*
X53366666Y-87807166D01*
X53366666Y-87807166D02*
X53299999Y-87907166D01*
X53299999Y-87907166D02*
X53233333Y-87973833D01*
X53233333Y-87973833D02*
X53166666Y-88007166D01*
X53966666Y-88107166D02*
X53900000Y-88073833D01*
X53900000Y-88073833D02*
X53866666Y-88040500D01*
X53866666Y-88040500D02*
X53833333Y-87973833D01*
X53833333Y-87973833D02*
X53833333Y-87940500D01*
X53833333Y-87940500D02*
X53866666Y-87873833D01*
X53866666Y-87873833D02*
X53900000Y-87840500D01*
X53900000Y-87840500D02*
X53966666Y-87807166D01*
X53966666Y-87807166D02*
X54100000Y-87807166D01*
X54100000Y-87807166D02*
X54166666Y-87840500D01*
X54166666Y-87840500D02*
X54200000Y-87873833D01*
X54200000Y-87873833D02*
X54233333Y-87940500D01*
X54233333Y-87940500D02*
X54233333Y-87973833D01*
X54233333Y-87973833D02*
X54200000Y-88040500D01*
X54200000Y-88040500D02*
X54166666Y-88073833D01*
X54166666Y-88073833D02*
X54100000Y-88107166D01*
X54100000Y-88107166D02*
X53966666Y-88107166D01*
X53966666Y-88107166D02*
X53900000Y-88140500D01*
X53900000Y-88140500D02*
X53866666Y-88173833D01*
X53866666Y-88173833D02*
X53833333Y-88240500D01*
X53833333Y-88240500D02*
X53833333Y-88373833D01*
X53833333Y-88373833D02*
X53866666Y-88440500D01*
X53866666Y-88440500D02*
X53900000Y-88473833D01*
X53900000Y-88473833D02*
X53966666Y-88507166D01*
X53966666Y-88507166D02*
X54100000Y-88507166D01*
X54100000Y-88507166D02*
X54166666Y-88473833D01*
X54166666Y-88473833D02*
X54200000Y-88440500D01*
X54200000Y-88440500D02*
X54233333Y-88373833D01*
X54233333Y-88373833D02*
X54233333Y-88240500D01*
X54233333Y-88240500D02*
X54200000Y-88173833D01*
X54200000Y-88173833D02*
X54166666Y-88140500D01*
X54166666Y-88140500D02*
X54100000Y-88107166D01*
D11*
%TO.C,JP1*%
X42501286Y-55517690D02*
X42787000Y-55517690D01*
X42644143Y-56017690D02*
X42644143Y-55517690D01*
X43144142Y-55993880D02*
X43096523Y-56017690D01*
X43096523Y-56017690D02*
X43001285Y-56017690D01*
X43001285Y-56017690D02*
X42953666Y-55993880D01*
X42953666Y-55993880D02*
X42929857Y-55946261D01*
X42929857Y-55946261D02*
X42929857Y-55755785D01*
X42929857Y-55755785D02*
X42953666Y-55708166D01*
X42953666Y-55708166D02*
X43001285Y-55684357D01*
X43001285Y-55684357D02*
X43096523Y-55684357D01*
X43096523Y-55684357D02*
X43144142Y-55708166D01*
X43144142Y-55708166D02*
X43167952Y-55755785D01*
X43167952Y-55755785D02*
X43167952Y-55803404D01*
X43167952Y-55803404D02*
X42929857Y-55851023D01*
X43382237Y-56017690D02*
X43382237Y-55684357D01*
X43382237Y-55779595D02*
X43406047Y-55731976D01*
X43406047Y-55731976D02*
X43429856Y-55708166D01*
X43429856Y-55708166D02*
X43477475Y-55684357D01*
X43477475Y-55684357D02*
X43525094Y-55684357D01*
X43691761Y-56017690D02*
X43691761Y-55684357D01*
X43691761Y-55731976D02*
X43715571Y-55708166D01*
X43715571Y-55708166D02*
X43763190Y-55684357D01*
X43763190Y-55684357D02*
X43834618Y-55684357D01*
X43834618Y-55684357D02*
X43882237Y-55708166D01*
X43882237Y-55708166D02*
X43906047Y-55755785D01*
X43906047Y-55755785D02*
X43906047Y-56017690D01*
X43906047Y-55755785D02*
X43929856Y-55708166D01*
X43929856Y-55708166D02*
X43977475Y-55684357D01*
X43977475Y-55684357D02*
X44048904Y-55684357D01*
X44048904Y-55684357D02*
X44096523Y-55708166D01*
X44096523Y-55708166D02*
X44120333Y-55755785D01*
X44120333Y-55755785D02*
X44120333Y-56017690D01*
X44501285Y-55517690D02*
X44501285Y-55874833D01*
X44501285Y-55874833D02*
X44477476Y-55946261D01*
X44477476Y-55946261D02*
X44429857Y-55993880D01*
X44429857Y-55993880D02*
X44358428Y-56017690D01*
X44358428Y-56017690D02*
X44310809Y-56017690D01*
X44739380Y-56017690D02*
X44739380Y-55517690D01*
X44739380Y-55517690D02*
X44929856Y-55517690D01*
X44929856Y-55517690D02*
X44977475Y-55541500D01*
X44977475Y-55541500D02*
X45001285Y-55565309D01*
X45001285Y-55565309D02*
X45025094Y-55612928D01*
X45025094Y-55612928D02*
X45025094Y-55684357D01*
X45025094Y-55684357D02*
X45001285Y-55731976D01*
X45001285Y-55731976D02*
X44977475Y-55755785D01*
X44977475Y-55755785D02*
X44929856Y-55779595D01*
X44929856Y-55779595D02*
X44739380Y-55779595D01*
D10*
%TO.C,TXLED1*%
X47853571Y-72220428D02*
X48196429Y-72220428D01*
X48025000Y-72820428D02*
X48025000Y-72220428D01*
X48339286Y-72220428D02*
X48739286Y-72820428D01*
X48739286Y-72220428D02*
X48339286Y-72820428D01*
X49253572Y-72820428D02*
X48967858Y-72820428D01*
X48967858Y-72820428D02*
X48967858Y-72220428D01*
X49453572Y-72506142D02*
X49653572Y-72506142D01*
X49739286Y-72820428D02*
X49453572Y-72820428D01*
X49453572Y-72820428D02*
X49453572Y-72220428D01*
X49453572Y-72220428D02*
X49739286Y-72220428D01*
X49996429Y-72820428D02*
X49996429Y-72220428D01*
X49996429Y-72220428D02*
X50139286Y-72220428D01*
X50139286Y-72220428D02*
X50225000Y-72249000D01*
X50225000Y-72249000D02*
X50282143Y-72306142D01*
X50282143Y-72306142D02*
X50310714Y-72363285D01*
X50310714Y-72363285D02*
X50339286Y-72477571D01*
X50339286Y-72477571D02*
X50339286Y-72563285D01*
X50339286Y-72563285D02*
X50310714Y-72677571D01*
X50310714Y-72677571D02*
X50282143Y-72734714D01*
X50282143Y-72734714D02*
X50225000Y-72791857D01*
X50225000Y-72791857D02*
X50139286Y-72820428D01*
X50139286Y-72820428D02*
X49996429Y-72820428D01*
%TO.C,C28*%
X52914285Y-87163285D02*
X52885713Y-87191857D01*
X52885713Y-87191857D02*
X52799999Y-87220428D01*
X52799999Y-87220428D02*
X52742856Y-87220428D01*
X52742856Y-87220428D02*
X52657142Y-87191857D01*
X52657142Y-87191857D02*
X52599999Y-87134714D01*
X52599999Y-87134714D02*
X52571428Y-87077571D01*
X52571428Y-87077571D02*
X52542856Y-86963285D01*
X52542856Y-86963285D02*
X52542856Y-86877571D01*
X52542856Y-86877571D02*
X52571428Y-86763285D01*
X52571428Y-86763285D02*
X52599999Y-86706142D01*
X52599999Y-86706142D02*
X52657142Y-86649000D01*
X52657142Y-86649000D02*
X52742856Y-86620428D01*
X52742856Y-86620428D02*
X52799999Y-86620428D01*
X52799999Y-86620428D02*
X52885713Y-86649000D01*
X52885713Y-86649000D02*
X52914285Y-86677571D01*
X53142856Y-86677571D02*
X53171428Y-86649000D01*
X53171428Y-86649000D02*
X53228571Y-86620428D01*
X53228571Y-86620428D02*
X53371428Y-86620428D01*
X53371428Y-86620428D02*
X53428571Y-86649000D01*
X53428571Y-86649000D02*
X53457142Y-86677571D01*
X53457142Y-86677571D02*
X53485713Y-86734714D01*
X53485713Y-86734714D02*
X53485713Y-86791857D01*
X53485713Y-86791857D02*
X53457142Y-86877571D01*
X53457142Y-86877571D02*
X53114285Y-87220428D01*
X53114285Y-87220428D02*
X53485713Y-87220428D01*
X53828571Y-86877571D02*
X53771428Y-86849000D01*
X53771428Y-86849000D02*
X53742857Y-86820428D01*
X53742857Y-86820428D02*
X53714285Y-86763285D01*
X53714285Y-86763285D02*
X53714285Y-86734714D01*
X53714285Y-86734714D02*
X53742857Y-86677571D01*
X53742857Y-86677571D02*
X53771428Y-86649000D01*
X53771428Y-86649000D02*
X53828571Y-86620428D01*
X53828571Y-86620428D02*
X53942857Y-86620428D01*
X53942857Y-86620428D02*
X54000000Y-86649000D01*
X54000000Y-86649000D02*
X54028571Y-86677571D01*
X54028571Y-86677571D02*
X54057142Y-86734714D01*
X54057142Y-86734714D02*
X54057142Y-86763285D01*
X54057142Y-86763285D02*
X54028571Y-86820428D01*
X54028571Y-86820428D02*
X54000000Y-86849000D01*
X54000000Y-86849000D02*
X53942857Y-86877571D01*
X53942857Y-86877571D02*
X53828571Y-86877571D01*
X53828571Y-86877571D02*
X53771428Y-86906142D01*
X53771428Y-86906142D02*
X53742857Y-86934714D01*
X53742857Y-86934714D02*
X53714285Y-86991857D01*
X53714285Y-86991857D02*
X53714285Y-87106142D01*
X53714285Y-87106142D02*
X53742857Y-87163285D01*
X53742857Y-87163285D02*
X53771428Y-87191857D01*
X53771428Y-87191857D02*
X53828571Y-87220428D01*
X53828571Y-87220428D02*
X53942857Y-87220428D01*
X53942857Y-87220428D02*
X54000000Y-87191857D01*
X54000000Y-87191857D02*
X54028571Y-87163285D01*
X54028571Y-87163285D02*
X54057142Y-87106142D01*
X54057142Y-87106142D02*
X54057142Y-86991857D01*
X54057142Y-86991857D02*
X54028571Y-86934714D01*
X54028571Y-86934714D02*
X54000000Y-86906142D01*
X54000000Y-86906142D02*
X53942857Y-86877571D01*
%TO.C,R34*%
X45953720Y-75613110D02*
X45668006Y-75813110D01*
X45953720Y-75955967D02*
X45353720Y-75955967D01*
X45353720Y-75955967D02*
X45353720Y-75727396D01*
X45353720Y-75727396D02*
X45382292Y-75670253D01*
X45382292Y-75670253D02*
X45410863Y-75641682D01*
X45410863Y-75641682D02*
X45468006Y-75613110D01*
X45468006Y-75613110D02*
X45553720Y-75613110D01*
X45553720Y-75613110D02*
X45610863Y-75641682D01*
X45610863Y-75641682D02*
X45639434Y-75670253D01*
X45639434Y-75670253D02*
X45668006Y-75727396D01*
X45668006Y-75727396D02*
X45668006Y-75955967D01*
X45353720Y-75413110D02*
X45353720Y-75041682D01*
X45353720Y-75041682D02*
X45582292Y-75241682D01*
X45582292Y-75241682D02*
X45582292Y-75155967D01*
X45582292Y-75155967D02*
X45610863Y-75098825D01*
X45610863Y-75098825D02*
X45639434Y-75070253D01*
X45639434Y-75070253D02*
X45696577Y-75041682D01*
X45696577Y-75041682D02*
X45839434Y-75041682D01*
X45839434Y-75041682D02*
X45896577Y-75070253D01*
X45896577Y-75070253D02*
X45925149Y-75098825D01*
X45925149Y-75098825D02*
X45953720Y-75155967D01*
X45953720Y-75155967D02*
X45953720Y-75327396D01*
X45953720Y-75327396D02*
X45925149Y-75384539D01*
X45925149Y-75384539D02*
X45896577Y-75413110D01*
X45553720Y-74527396D02*
X45953720Y-74527396D01*
X45325149Y-74670253D02*
X45753720Y-74813110D01*
X45753720Y-74813110D02*
X45753720Y-74441681D01*
%TO.C,R8*%
X38149428Y-57939999D02*
X37863714Y-58139999D01*
X38149428Y-58282856D02*
X37549428Y-58282856D01*
X37549428Y-58282856D02*
X37549428Y-58054285D01*
X37549428Y-58054285D02*
X37578000Y-57997142D01*
X37578000Y-57997142D02*
X37606571Y-57968571D01*
X37606571Y-57968571D02*
X37663714Y-57939999D01*
X37663714Y-57939999D02*
X37749428Y-57939999D01*
X37749428Y-57939999D02*
X37806571Y-57968571D01*
X37806571Y-57968571D02*
X37835142Y-57997142D01*
X37835142Y-57997142D02*
X37863714Y-58054285D01*
X37863714Y-58054285D02*
X37863714Y-58282856D01*
X37806571Y-57597142D02*
X37778000Y-57654285D01*
X37778000Y-57654285D02*
X37749428Y-57682856D01*
X37749428Y-57682856D02*
X37692285Y-57711428D01*
X37692285Y-57711428D02*
X37663714Y-57711428D01*
X37663714Y-57711428D02*
X37606571Y-57682856D01*
X37606571Y-57682856D02*
X37578000Y-57654285D01*
X37578000Y-57654285D02*
X37549428Y-57597142D01*
X37549428Y-57597142D02*
X37549428Y-57482856D01*
X37549428Y-57482856D02*
X37578000Y-57425714D01*
X37578000Y-57425714D02*
X37606571Y-57397142D01*
X37606571Y-57397142D02*
X37663714Y-57368571D01*
X37663714Y-57368571D02*
X37692285Y-57368571D01*
X37692285Y-57368571D02*
X37749428Y-57397142D01*
X37749428Y-57397142D02*
X37778000Y-57425714D01*
X37778000Y-57425714D02*
X37806571Y-57482856D01*
X37806571Y-57482856D02*
X37806571Y-57597142D01*
X37806571Y-57597142D02*
X37835142Y-57654285D01*
X37835142Y-57654285D02*
X37863714Y-57682856D01*
X37863714Y-57682856D02*
X37920857Y-57711428D01*
X37920857Y-57711428D02*
X38035142Y-57711428D01*
X38035142Y-57711428D02*
X38092285Y-57682856D01*
X38092285Y-57682856D02*
X38120857Y-57654285D01*
X38120857Y-57654285D02*
X38149428Y-57597142D01*
X38149428Y-57597142D02*
X38149428Y-57482856D01*
X38149428Y-57482856D02*
X38120857Y-57425714D01*
X38120857Y-57425714D02*
X38092285Y-57397142D01*
X38092285Y-57397142D02*
X38035142Y-57368571D01*
X38035142Y-57368571D02*
X37920857Y-57368571D01*
X37920857Y-57368571D02*
X37863714Y-57397142D01*
X37863714Y-57397142D02*
X37835142Y-57425714D01*
X37835142Y-57425714D02*
X37806571Y-57482856D01*
%TO.C,ENJUMPER1*%
X58656142Y-68221427D02*
X58656142Y-68021427D01*
X58970428Y-67935713D02*
X58970428Y-68221427D01*
X58970428Y-68221427D02*
X58370428Y-68221427D01*
X58370428Y-68221427D02*
X58370428Y-67935713D01*
X58970428Y-67678570D02*
X58370428Y-67678570D01*
X58370428Y-67678570D02*
X58970428Y-67335713D01*
X58970428Y-67335713D02*
X58370428Y-67335713D01*
X58370428Y-66878571D02*
X58799000Y-66878571D01*
X58799000Y-66878571D02*
X58884714Y-66907142D01*
X58884714Y-66907142D02*
X58941857Y-66964285D01*
X58941857Y-66964285D02*
X58970428Y-67049999D01*
X58970428Y-67049999D02*
X58970428Y-67107142D01*
X58970428Y-66592856D02*
X58370428Y-66592856D01*
X58370428Y-66592856D02*
X58370428Y-66364285D01*
X58370428Y-66364285D02*
X58399000Y-66307142D01*
X58399000Y-66307142D02*
X58427571Y-66278571D01*
X58427571Y-66278571D02*
X58484714Y-66249999D01*
X58484714Y-66249999D02*
X58570428Y-66249999D01*
X58570428Y-66249999D02*
X58627571Y-66278571D01*
X58627571Y-66278571D02*
X58656142Y-66307142D01*
X58656142Y-66307142D02*
X58684714Y-66364285D01*
X58684714Y-66364285D02*
X58684714Y-66592856D01*
%TO.C,C16*%
X41464285Y-67363285D02*
X41435713Y-67391857D01*
X41435713Y-67391857D02*
X41349999Y-67420428D01*
X41349999Y-67420428D02*
X41292856Y-67420428D01*
X41292856Y-67420428D02*
X41207142Y-67391857D01*
X41207142Y-67391857D02*
X41149999Y-67334714D01*
X41149999Y-67334714D02*
X41121428Y-67277571D01*
X41121428Y-67277571D02*
X41092856Y-67163285D01*
X41092856Y-67163285D02*
X41092856Y-67077571D01*
X41092856Y-67077571D02*
X41121428Y-66963285D01*
X41121428Y-66963285D02*
X41149999Y-66906142D01*
X41149999Y-66906142D02*
X41207142Y-66849000D01*
X41207142Y-66849000D02*
X41292856Y-66820428D01*
X41292856Y-66820428D02*
X41349999Y-66820428D01*
X41349999Y-66820428D02*
X41435713Y-66849000D01*
X41435713Y-66849000D02*
X41464285Y-66877571D01*
X42035713Y-67420428D02*
X41692856Y-67420428D01*
X41864285Y-67420428D02*
X41864285Y-66820428D01*
X41864285Y-66820428D02*
X41807142Y-66906142D01*
X41807142Y-66906142D02*
X41749999Y-66963285D01*
X41749999Y-66963285D02*
X41692856Y-66991857D01*
X42550000Y-66820428D02*
X42435714Y-66820428D01*
X42435714Y-66820428D02*
X42378571Y-66849000D01*
X42378571Y-66849000D02*
X42350000Y-66877571D01*
X42350000Y-66877571D02*
X42292857Y-66963285D01*
X42292857Y-66963285D02*
X42264285Y-67077571D01*
X42264285Y-67077571D02*
X42264285Y-67306142D01*
X42264285Y-67306142D02*
X42292857Y-67363285D01*
X42292857Y-67363285D02*
X42321428Y-67391857D01*
X42321428Y-67391857D02*
X42378571Y-67420428D01*
X42378571Y-67420428D02*
X42492857Y-67420428D01*
X42492857Y-67420428D02*
X42550000Y-67391857D01*
X42550000Y-67391857D02*
X42578571Y-67363285D01*
X42578571Y-67363285D02*
X42607142Y-67306142D01*
X42607142Y-67306142D02*
X42607142Y-67163285D01*
X42607142Y-67163285D02*
X42578571Y-67106142D01*
X42578571Y-67106142D02*
X42550000Y-67077571D01*
X42550000Y-67077571D02*
X42492857Y-67049000D01*
X42492857Y-67049000D02*
X42378571Y-67049000D01*
X42378571Y-67049000D02*
X42321428Y-67077571D01*
X42321428Y-67077571D02*
X42292857Y-67106142D01*
X42292857Y-67106142D02*
X42264285Y-67163285D01*
%TO.C,R19*%
X51934285Y-85490428D02*
X51734285Y-85204714D01*
X51591428Y-85490428D02*
X51591428Y-84890428D01*
X51591428Y-84890428D02*
X51819999Y-84890428D01*
X51819999Y-84890428D02*
X51877142Y-84919000D01*
X51877142Y-84919000D02*
X51905713Y-84947571D01*
X51905713Y-84947571D02*
X51934285Y-85004714D01*
X51934285Y-85004714D02*
X51934285Y-85090428D01*
X51934285Y-85090428D02*
X51905713Y-85147571D01*
X51905713Y-85147571D02*
X51877142Y-85176142D01*
X51877142Y-85176142D02*
X51819999Y-85204714D01*
X51819999Y-85204714D02*
X51591428Y-85204714D01*
X52505713Y-85490428D02*
X52162856Y-85490428D01*
X52334285Y-85490428D02*
X52334285Y-84890428D01*
X52334285Y-84890428D02*
X52277142Y-84976142D01*
X52277142Y-84976142D02*
X52219999Y-85033285D01*
X52219999Y-85033285D02*
X52162856Y-85061857D01*
X52791428Y-85490428D02*
X52905714Y-85490428D01*
X52905714Y-85490428D02*
X52962857Y-85461857D01*
X52962857Y-85461857D02*
X52991428Y-85433285D01*
X52991428Y-85433285D02*
X53048571Y-85347571D01*
X53048571Y-85347571D02*
X53077142Y-85233285D01*
X53077142Y-85233285D02*
X53077142Y-85004714D01*
X53077142Y-85004714D02*
X53048571Y-84947571D01*
X53048571Y-84947571D02*
X53020000Y-84919000D01*
X53020000Y-84919000D02*
X52962857Y-84890428D01*
X52962857Y-84890428D02*
X52848571Y-84890428D01*
X52848571Y-84890428D02*
X52791428Y-84919000D01*
X52791428Y-84919000D02*
X52762857Y-84947571D01*
X52762857Y-84947571D02*
X52734285Y-85004714D01*
X52734285Y-85004714D02*
X52734285Y-85147571D01*
X52734285Y-85147571D02*
X52762857Y-85204714D01*
X52762857Y-85204714D02*
X52791428Y-85233285D01*
X52791428Y-85233285D02*
X52848571Y-85261857D01*
X52848571Y-85261857D02*
X52962857Y-85261857D01*
X52962857Y-85261857D02*
X53020000Y-85233285D01*
X53020000Y-85233285D02*
X53048571Y-85204714D01*
X53048571Y-85204714D02*
X53077142Y-85147571D01*
%TO.C,TP8*%
X38166143Y-52381142D02*
X38251857Y-52409714D01*
X38251857Y-52409714D02*
X38280428Y-52438285D01*
X38280428Y-52438285D02*
X38309000Y-52495428D01*
X38309000Y-52495428D02*
X38309000Y-52581142D01*
X38309000Y-52581142D02*
X38280428Y-52638285D01*
X38280428Y-52638285D02*
X38251857Y-52666857D01*
X38251857Y-52666857D02*
X38194714Y-52695428D01*
X38194714Y-52695428D02*
X37966143Y-52695428D01*
X37966143Y-52695428D02*
X37966143Y-52095428D01*
X37966143Y-52095428D02*
X38166143Y-52095428D01*
X38166143Y-52095428D02*
X38223286Y-52124000D01*
X38223286Y-52124000D02*
X38251857Y-52152571D01*
X38251857Y-52152571D02*
X38280428Y-52209714D01*
X38280428Y-52209714D02*
X38280428Y-52266857D01*
X38280428Y-52266857D02*
X38251857Y-52324000D01*
X38251857Y-52324000D02*
X38223286Y-52352571D01*
X38223286Y-52352571D02*
X38166143Y-52381142D01*
X38166143Y-52381142D02*
X37966143Y-52381142D01*
X38766143Y-52381142D02*
X38851857Y-52409714D01*
X38851857Y-52409714D02*
X38880428Y-52438285D01*
X38880428Y-52438285D02*
X38909000Y-52495428D01*
X38909000Y-52495428D02*
X38909000Y-52581142D01*
X38909000Y-52581142D02*
X38880428Y-52638285D01*
X38880428Y-52638285D02*
X38851857Y-52666857D01*
X38851857Y-52666857D02*
X38794714Y-52695428D01*
X38794714Y-52695428D02*
X38566143Y-52695428D01*
X38566143Y-52695428D02*
X38566143Y-52095428D01*
X38566143Y-52095428D02*
X38766143Y-52095428D01*
X38766143Y-52095428D02*
X38823286Y-52124000D01*
X38823286Y-52124000D02*
X38851857Y-52152571D01*
X38851857Y-52152571D02*
X38880428Y-52209714D01*
X38880428Y-52209714D02*
X38880428Y-52266857D01*
X38880428Y-52266857D02*
X38851857Y-52324000D01*
X38851857Y-52324000D02*
X38823286Y-52352571D01*
X38823286Y-52352571D02*
X38766143Y-52381142D01*
X38766143Y-52381142D02*
X38566143Y-52381142D01*
X39280428Y-52095428D02*
X39394714Y-52095428D01*
X39394714Y-52095428D02*
X39451857Y-52124000D01*
X39451857Y-52124000D02*
X39509000Y-52181142D01*
X39509000Y-52181142D02*
X39537571Y-52295428D01*
X39537571Y-52295428D02*
X39537571Y-52495428D01*
X39537571Y-52495428D02*
X39509000Y-52609714D01*
X39509000Y-52609714D02*
X39451857Y-52666857D01*
X39451857Y-52666857D02*
X39394714Y-52695428D01*
X39394714Y-52695428D02*
X39280428Y-52695428D01*
X39280428Y-52695428D02*
X39223286Y-52666857D01*
X39223286Y-52666857D02*
X39166143Y-52609714D01*
X39166143Y-52609714D02*
X39137571Y-52495428D01*
X39137571Y-52495428D02*
X39137571Y-52295428D01*
X39137571Y-52295428D02*
X39166143Y-52181142D01*
X39166143Y-52181142D02*
X39223286Y-52124000D01*
X39223286Y-52124000D02*
X39280428Y-52095428D01*
X39794714Y-52095428D02*
X39794714Y-52581142D01*
X39794714Y-52581142D02*
X39823285Y-52638285D01*
X39823285Y-52638285D02*
X39851857Y-52666857D01*
X39851857Y-52666857D02*
X39908999Y-52695428D01*
X39908999Y-52695428D02*
X40023285Y-52695428D01*
X40023285Y-52695428D02*
X40080428Y-52666857D01*
X40080428Y-52666857D02*
X40108999Y-52638285D01*
X40108999Y-52638285D02*
X40137571Y-52581142D01*
X40137571Y-52581142D02*
X40137571Y-52095428D01*
X40337570Y-52095428D02*
X40680428Y-52095428D01*
X40508999Y-52695428D02*
X40508999Y-52095428D01*
X40794713Y-52095428D02*
X41137571Y-52095428D01*
X40966142Y-52695428D02*
X40966142Y-52095428D01*
X41337571Y-52695428D02*
X41337571Y-52095428D01*
X41337571Y-52095428D02*
X41566142Y-52095428D01*
X41566142Y-52095428D02*
X41623285Y-52124000D01*
X41623285Y-52124000D02*
X41651856Y-52152571D01*
X41651856Y-52152571D02*
X41680428Y-52209714D01*
X41680428Y-52209714D02*
X41680428Y-52295428D01*
X41680428Y-52295428D02*
X41651856Y-52352571D01*
X41651856Y-52352571D02*
X41623285Y-52381142D01*
X41623285Y-52381142D02*
X41566142Y-52409714D01*
X41566142Y-52409714D02*
X41337571Y-52409714D01*
%TO.C,C38*%
X43538285Y-87160714D02*
X43566857Y-87189286D01*
X43566857Y-87189286D02*
X43595428Y-87275000D01*
X43595428Y-87275000D02*
X43595428Y-87332143D01*
X43595428Y-87332143D02*
X43566857Y-87417857D01*
X43566857Y-87417857D02*
X43509714Y-87475000D01*
X43509714Y-87475000D02*
X43452571Y-87503571D01*
X43452571Y-87503571D02*
X43338285Y-87532143D01*
X43338285Y-87532143D02*
X43252571Y-87532143D01*
X43252571Y-87532143D02*
X43138285Y-87503571D01*
X43138285Y-87503571D02*
X43081142Y-87475000D01*
X43081142Y-87475000D02*
X43024000Y-87417857D01*
X43024000Y-87417857D02*
X42995428Y-87332143D01*
X42995428Y-87332143D02*
X42995428Y-87275000D01*
X42995428Y-87275000D02*
X43024000Y-87189286D01*
X43024000Y-87189286D02*
X43052571Y-87160714D01*
X42995428Y-86960714D02*
X42995428Y-86589286D01*
X42995428Y-86589286D02*
X43224000Y-86789286D01*
X43224000Y-86789286D02*
X43224000Y-86703571D01*
X43224000Y-86703571D02*
X43252571Y-86646429D01*
X43252571Y-86646429D02*
X43281142Y-86617857D01*
X43281142Y-86617857D02*
X43338285Y-86589286D01*
X43338285Y-86589286D02*
X43481142Y-86589286D01*
X43481142Y-86589286D02*
X43538285Y-86617857D01*
X43538285Y-86617857D02*
X43566857Y-86646429D01*
X43566857Y-86646429D02*
X43595428Y-86703571D01*
X43595428Y-86703571D02*
X43595428Y-86875000D01*
X43595428Y-86875000D02*
X43566857Y-86932143D01*
X43566857Y-86932143D02*
X43538285Y-86960714D01*
X43252571Y-86246428D02*
X43224000Y-86303571D01*
X43224000Y-86303571D02*
X43195428Y-86332142D01*
X43195428Y-86332142D02*
X43138285Y-86360714D01*
X43138285Y-86360714D02*
X43109714Y-86360714D01*
X43109714Y-86360714D02*
X43052571Y-86332142D01*
X43052571Y-86332142D02*
X43024000Y-86303571D01*
X43024000Y-86303571D02*
X42995428Y-86246428D01*
X42995428Y-86246428D02*
X42995428Y-86132142D01*
X42995428Y-86132142D02*
X43024000Y-86075000D01*
X43024000Y-86075000D02*
X43052571Y-86046428D01*
X43052571Y-86046428D02*
X43109714Y-86017857D01*
X43109714Y-86017857D02*
X43138285Y-86017857D01*
X43138285Y-86017857D02*
X43195428Y-86046428D01*
X43195428Y-86046428D02*
X43224000Y-86075000D01*
X43224000Y-86075000D02*
X43252571Y-86132142D01*
X43252571Y-86132142D02*
X43252571Y-86246428D01*
X43252571Y-86246428D02*
X43281142Y-86303571D01*
X43281142Y-86303571D02*
X43309714Y-86332142D01*
X43309714Y-86332142D02*
X43366857Y-86360714D01*
X43366857Y-86360714D02*
X43481142Y-86360714D01*
X43481142Y-86360714D02*
X43538285Y-86332142D01*
X43538285Y-86332142D02*
X43566857Y-86303571D01*
X43566857Y-86303571D02*
X43595428Y-86246428D01*
X43595428Y-86246428D02*
X43595428Y-86132142D01*
X43595428Y-86132142D02*
X43566857Y-86075000D01*
X43566857Y-86075000D02*
X43538285Y-86046428D01*
X43538285Y-86046428D02*
X43481142Y-86017857D01*
X43481142Y-86017857D02*
X43366857Y-86017857D01*
X43366857Y-86017857D02*
X43309714Y-86046428D01*
X43309714Y-86046428D02*
X43281142Y-86075000D01*
X43281142Y-86075000D02*
X43252571Y-86132142D01*
%TO.C,R7*%
X46390428Y-81079999D02*
X46104714Y-81279999D01*
X46390428Y-81422856D02*
X45790428Y-81422856D01*
X45790428Y-81422856D02*
X45790428Y-81194285D01*
X45790428Y-81194285D02*
X45819000Y-81137142D01*
X45819000Y-81137142D02*
X45847571Y-81108571D01*
X45847571Y-81108571D02*
X45904714Y-81079999D01*
X45904714Y-81079999D02*
X45990428Y-81079999D01*
X45990428Y-81079999D02*
X46047571Y-81108571D01*
X46047571Y-81108571D02*
X46076142Y-81137142D01*
X46076142Y-81137142D02*
X46104714Y-81194285D01*
X46104714Y-81194285D02*
X46104714Y-81422856D01*
X45790428Y-80879999D02*
X45790428Y-80479999D01*
X45790428Y-80479999D02*
X46390428Y-80737142D01*
%TO.C,C18*%
X34689285Y-60263285D02*
X34660713Y-60291857D01*
X34660713Y-60291857D02*
X34574999Y-60320428D01*
X34574999Y-60320428D02*
X34517856Y-60320428D01*
X34517856Y-60320428D02*
X34432142Y-60291857D01*
X34432142Y-60291857D02*
X34374999Y-60234714D01*
X34374999Y-60234714D02*
X34346428Y-60177571D01*
X34346428Y-60177571D02*
X34317856Y-60063285D01*
X34317856Y-60063285D02*
X34317856Y-59977571D01*
X34317856Y-59977571D02*
X34346428Y-59863285D01*
X34346428Y-59863285D02*
X34374999Y-59806142D01*
X34374999Y-59806142D02*
X34432142Y-59749000D01*
X34432142Y-59749000D02*
X34517856Y-59720428D01*
X34517856Y-59720428D02*
X34574999Y-59720428D01*
X34574999Y-59720428D02*
X34660713Y-59749000D01*
X34660713Y-59749000D02*
X34689285Y-59777571D01*
X35260713Y-60320428D02*
X34917856Y-60320428D01*
X35089285Y-60320428D02*
X35089285Y-59720428D01*
X35089285Y-59720428D02*
X35032142Y-59806142D01*
X35032142Y-59806142D02*
X34974999Y-59863285D01*
X34974999Y-59863285D02*
X34917856Y-59891857D01*
X35603571Y-59977571D02*
X35546428Y-59949000D01*
X35546428Y-59949000D02*
X35517857Y-59920428D01*
X35517857Y-59920428D02*
X35489285Y-59863285D01*
X35489285Y-59863285D02*
X35489285Y-59834714D01*
X35489285Y-59834714D02*
X35517857Y-59777571D01*
X35517857Y-59777571D02*
X35546428Y-59749000D01*
X35546428Y-59749000D02*
X35603571Y-59720428D01*
X35603571Y-59720428D02*
X35717857Y-59720428D01*
X35717857Y-59720428D02*
X35775000Y-59749000D01*
X35775000Y-59749000D02*
X35803571Y-59777571D01*
X35803571Y-59777571D02*
X35832142Y-59834714D01*
X35832142Y-59834714D02*
X35832142Y-59863285D01*
X35832142Y-59863285D02*
X35803571Y-59920428D01*
X35803571Y-59920428D02*
X35775000Y-59949000D01*
X35775000Y-59949000D02*
X35717857Y-59977571D01*
X35717857Y-59977571D02*
X35603571Y-59977571D01*
X35603571Y-59977571D02*
X35546428Y-60006142D01*
X35546428Y-60006142D02*
X35517857Y-60034714D01*
X35517857Y-60034714D02*
X35489285Y-60091857D01*
X35489285Y-60091857D02*
X35489285Y-60206142D01*
X35489285Y-60206142D02*
X35517857Y-60263285D01*
X35517857Y-60263285D02*
X35546428Y-60291857D01*
X35546428Y-60291857D02*
X35603571Y-60320428D01*
X35603571Y-60320428D02*
X35717857Y-60320428D01*
X35717857Y-60320428D02*
X35775000Y-60291857D01*
X35775000Y-60291857D02*
X35803571Y-60263285D01*
X35803571Y-60263285D02*
X35832142Y-60206142D01*
X35832142Y-60206142D02*
X35832142Y-60091857D01*
X35832142Y-60091857D02*
X35803571Y-60034714D01*
X35803571Y-60034714D02*
X35775000Y-60006142D01*
X35775000Y-60006142D02*
X35717857Y-59977571D01*
%TO.C,R10*%
X39745428Y-63010714D02*
X39459714Y-63210714D01*
X39745428Y-63353571D02*
X39145428Y-63353571D01*
X39145428Y-63353571D02*
X39145428Y-63125000D01*
X39145428Y-63125000D02*
X39174000Y-63067857D01*
X39174000Y-63067857D02*
X39202571Y-63039286D01*
X39202571Y-63039286D02*
X39259714Y-63010714D01*
X39259714Y-63010714D02*
X39345428Y-63010714D01*
X39345428Y-63010714D02*
X39402571Y-63039286D01*
X39402571Y-63039286D02*
X39431142Y-63067857D01*
X39431142Y-63067857D02*
X39459714Y-63125000D01*
X39459714Y-63125000D02*
X39459714Y-63353571D01*
X39745428Y-62439286D02*
X39745428Y-62782143D01*
X39745428Y-62610714D02*
X39145428Y-62610714D01*
X39145428Y-62610714D02*
X39231142Y-62667857D01*
X39231142Y-62667857D02*
X39288285Y-62725000D01*
X39288285Y-62725000D02*
X39316857Y-62782143D01*
X39145428Y-62067857D02*
X39145428Y-62010714D01*
X39145428Y-62010714D02*
X39174000Y-61953571D01*
X39174000Y-61953571D02*
X39202571Y-61925000D01*
X39202571Y-61925000D02*
X39259714Y-61896428D01*
X39259714Y-61896428D02*
X39374000Y-61867857D01*
X39374000Y-61867857D02*
X39516857Y-61867857D01*
X39516857Y-61867857D02*
X39631142Y-61896428D01*
X39631142Y-61896428D02*
X39688285Y-61925000D01*
X39688285Y-61925000D02*
X39716857Y-61953571D01*
X39716857Y-61953571D02*
X39745428Y-62010714D01*
X39745428Y-62010714D02*
X39745428Y-62067857D01*
X39745428Y-62067857D02*
X39716857Y-62125000D01*
X39716857Y-62125000D02*
X39688285Y-62153571D01*
X39688285Y-62153571D02*
X39631142Y-62182142D01*
X39631142Y-62182142D02*
X39516857Y-62210714D01*
X39516857Y-62210714D02*
X39374000Y-62210714D01*
X39374000Y-62210714D02*
X39259714Y-62182142D01*
X39259714Y-62182142D02*
X39202571Y-62153571D01*
X39202571Y-62153571D02*
X39174000Y-62125000D01*
X39174000Y-62125000D02*
X39145428Y-62067857D01*
%TO.C,C9*%
X53083285Y-67669999D02*
X53111857Y-67698571D01*
X53111857Y-67698571D02*
X53140428Y-67784285D01*
X53140428Y-67784285D02*
X53140428Y-67841428D01*
X53140428Y-67841428D02*
X53111857Y-67927142D01*
X53111857Y-67927142D02*
X53054714Y-67984285D01*
X53054714Y-67984285D02*
X52997571Y-68012856D01*
X52997571Y-68012856D02*
X52883285Y-68041428D01*
X52883285Y-68041428D02*
X52797571Y-68041428D01*
X52797571Y-68041428D02*
X52683285Y-68012856D01*
X52683285Y-68012856D02*
X52626142Y-67984285D01*
X52626142Y-67984285D02*
X52569000Y-67927142D01*
X52569000Y-67927142D02*
X52540428Y-67841428D01*
X52540428Y-67841428D02*
X52540428Y-67784285D01*
X52540428Y-67784285D02*
X52569000Y-67698571D01*
X52569000Y-67698571D02*
X52597571Y-67669999D01*
X53140428Y-67384285D02*
X53140428Y-67269999D01*
X53140428Y-67269999D02*
X53111857Y-67212856D01*
X53111857Y-67212856D02*
X53083285Y-67184285D01*
X53083285Y-67184285D02*
X52997571Y-67127142D01*
X52997571Y-67127142D02*
X52883285Y-67098571D01*
X52883285Y-67098571D02*
X52654714Y-67098571D01*
X52654714Y-67098571D02*
X52597571Y-67127142D01*
X52597571Y-67127142D02*
X52569000Y-67155714D01*
X52569000Y-67155714D02*
X52540428Y-67212856D01*
X52540428Y-67212856D02*
X52540428Y-67327142D01*
X52540428Y-67327142D02*
X52569000Y-67384285D01*
X52569000Y-67384285D02*
X52597571Y-67412856D01*
X52597571Y-67412856D02*
X52654714Y-67441428D01*
X52654714Y-67441428D02*
X52797571Y-67441428D01*
X52797571Y-67441428D02*
X52854714Y-67412856D01*
X52854714Y-67412856D02*
X52883285Y-67384285D01*
X52883285Y-67384285D02*
X52911857Y-67327142D01*
X52911857Y-67327142D02*
X52911857Y-67212856D01*
X52911857Y-67212856D02*
X52883285Y-67155714D01*
X52883285Y-67155714D02*
X52854714Y-67127142D01*
X52854714Y-67127142D02*
X52797571Y-67098571D01*
%TO.C,C17*%
X32968285Y-62054285D02*
X32939713Y-62082857D01*
X32939713Y-62082857D02*
X32853999Y-62111428D01*
X32853999Y-62111428D02*
X32796856Y-62111428D01*
X32796856Y-62111428D02*
X32711142Y-62082857D01*
X32711142Y-62082857D02*
X32653999Y-62025714D01*
X32653999Y-62025714D02*
X32625428Y-61968571D01*
X32625428Y-61968571D02*
X32596856Y-61854285D01*
X32596856Y-61854285D02*
X32596856Y-61768571D01*
X32596856Y-61768571D02*
X32625428Y-61654285D01*
X32625428Y-61654285D02*
X32653999Y-61597142D01*
X32653999Y-61597142D02*
X32711142Y-61540000D01*
X32711142Y-61540000D02*
X32796856Y-61511428D01*
X32796856Y-61511428D02*
X32853999Y-61511428D01*
X32853999Y-61511428D02*
X32939713Y-61540000D01*
X32939713Y-61540000D02*
X32968285Y-61568571D01*
X33539713Y-62111428D02*
X33196856Y-62111428D01*
X33368285Y-62111428D02*
X33368285Y-61511428D01*
X33368285Y-61511428D02*
X33311142Y-61597142D01*
X33311142Y-61597142D02*
X33253999Y-61654285D01*
X33253999Y-61654285D02*
X33196856Y-61682857D01*
X33739714Y-61511428D02*
X34139714Y-61511428D01*
X34139714Y-61511428D02*
X33882571Y-62111428D01*
%TO.C,C8*%
X55613285Y-59899999D02*
X55641857Y-59928571D01*
X55641857Y-59928571D02*
X55670428Y-60014285D01*
X55670428Y-60014285D02*
X55670428Y-60071428D01*
X55670428Y-60071428D02*
X55641857Y-60157142D01*
X55641857Y-60157142D02*
X55584714Y-60214285D01*
X55584714Y-60214285D02*
X55527571Y-60242856D01*
X55527571Y-60242856D02*
X55413285Y-60271428D01*
X55413285Y-60271428D02*
X55327571Y-60271428D01*
X55327571Y-60271428D02*
X55213285Y-60242856D01*
X55213285Y-60242856D02*
X55156142Y-60214285D01*
X55156142Y-60214285D02*
X55099000Y-60157142D01*
X55099000Y-60157142D02*
X55070428Y-60071428D01*
X55070428Y-60071428D02*
X55070428Y-60014285D01*
X55070428Y-60014285D02*
X55099000Y-59928571D01*
X55099000Y-59928571D02*
X55127571Y-59899999D01*
X55327571Y-59557142D02*
X55299000Y-59614285D01*
X55299000Y-59614285D02*
X55270428Y-59642856D01*
X55270428Y-59642856D02*
X55213285Y-59671428D01*
X55213285Y-59671428D02*
X55184714Y-59671428D01*
X55184714Y-59671428D02*
X55127571Y-59642856D01*
X55127571Y-59642856D02*
X55099000Y-59614285D01*
X55099000Y-59614285D02*
X55070428Y-59557142D01*
X55070428Y-59557142D02*
X55070428Y-59442856D01*
X55070428Y-59442856D02*
X55099000Y-59385714D01*
X55099000Y-59385714D02*
X55127571Y-59357142D01*
X55127571Y-59357142D02*
X55184714Y-59328571D01*
X55184714Y-59328571D02*
X55213285Y-59328571D01*
X55213285Y-59328571D02*
X55270428Y-59357142D01*
X55270428Y-59357142D02*
X55299000Y-59385714D01*
X55299000Y-59385714D02*
X55327571Y-59442856D01*
X55327571Y-59442856D02*
X55327571Y-59557142D01*
X55327571Y-59557142D02*
X55356142Y-59614285D01*
X55356142Y-59614285D02*
X55384714Y-59642856D01*
X55384714Y-59642856D02*
X55441857Y-59671428D01*
X55441857Y-59671428D02*
X55556142Y-59671428D01*
X55556142Y-59671428D02*
X55613285Y-59642856D01*
X55613285Y-59642856D02*
X55641857Y-59614285D01*
X55641857Y-59614285D02*
X55670428Y-59557142D01*
X55670428Y-59557142D02*
X55670428Y-59442856D01*
X55670428Y-59442856D02*
X55641857Y-59385714D01*
X55641857Y-59385714D02*
X55613285Y-59357142D01*
X55613285Y-59357142D02*
X55556142Y-59328571D01*
X55556142Y-59328571D02*
X55441857Y-59328571D01*
X55441857Y-59328571D02*
X55384714Y-59357142D01*
X55384714Y-59357142D02*
X55356142Y-59385714D01*
X55356142Y-59385714D02*
X55327571Y-59442856D01*
D12*
%TO.C,R21*%
X43549999Y-82907166D02*
X43316666Y-82573833D01*
X43149999Y-82907166D02*
X43149999Y-82207166D01*
X43149999Y-82207166D02*
X43416666Y-82207166D01*
X43416666Y-82207166D02*
X43483333Y-82240500D01*
X43483333Y-82240500D02*
X43516666Y-82273833D01*
X43516666Y-82273833D02*
X43549999Y-82340500D01*
X43549999Y-82340500D02*
X43549999Y-82440500D01*
X43549999Y-82440500D02*
X43516666Y-82507166D01*
X43516666Y-82507166D02*
X43483333Y-82540500D01*
X43483333Y-82540500D02*
X43416666Y-82573833D01*
X43416666Y-82573833D02*
X43149999Y-82573833D01*
X43816666Y-82273833D02*
X43849999Y-82240500D01*
X43849999Y-82240500D02*
X43916666Y-82207166D01*
X43916666Y-82207166D02*
X44083333Y-82207166D01*
X44083333Y-82207166D02*
X44149999Y-82240500D01*
X44149999Y-82240500D02*
X44183333Y-82273833D01*
X44183333Y-82273833D02*
X44216666Y-82340500D01*
X44216666Y-82340500D02*
X44216666Y-82407166D01*
X44216666Y-82407166D02*
X44183333Y-82507166D01*
X44183333Y-82507166D02*
X43783333Y-82907166D01*
X43783333Y-82907166D02*
X44216666Y-82907166D01*
X44883333Y-82907166D02*
X44483333Y-82907166D01*
X44683333Y-82907166D02*
X44683333Y-82207166D01*
X44683333Y-82207166D02*
X44616666Y-82307166D01*
X44616666Y-82307166D02*
X44550000Y-82373833D01*
X44550000Y-82373833D02*
X44483333Y-82407166D01*
D10*
%TO.C,U5*%
X37345428Y-51932142D02*
X37831142Y-51932142D01*
X37831142Y-51932142D02*
X37888285Y-51903571D01*
X37888285Y-51903571D02*
X37916857Y-51875000D01*
X37916857Y-51875000D02*
X37945428Y-51817857D01*
X37945428Y-51817857D02*
X37945428Y-51703571D01*
X37945428Y-51703571D02*
X37916857Y-51646428D01*
X37916857Y-51646428D02*
X37888285Y-51617857D01*
X37888285Y-51617857D02*
X37831142Y-51589285D01*
X37831142Y-51589285D02*
X37345428Y-51589285D01*
X37345428Y-51017857D02*
X37345428Y-51303571D01*
X37345428Y-51303571D02*
X37631142Y-51332143D01*
X37631142Y-51332143D02*
X37602571Y-51303571D01*
X37602571Y-51303571D02*
X37574000Y-51246429D01*
X37574000Y-51246429D02*
X37574000Y-51103571D01*
X37574000Y-51103571D02*
X37602571Y-51046429D01*
X37602571Y-51046429D02*
X37631142Y-51017857D01*
X37631142Y-51017857D02*
X37688285Y-50989286D01*
X37688285Y-50989286D02*
X37831142Y-50989286D01*
X37831142Y-50989286D02*
X37888285Y-51017857D01*
X37888285Y-51017857D02*
X37916857Y-51046429D01*
X37916857Y-51046429D02*
X37945428Y-51103571D01*
X37945428Y-51103571D02*
X37945428Y-51246429D01*
X37945428Y-51246429D02*
X37916857Y-51303571D01*
X37916857Y-51303571D02*
X37888285Y-51332143D01*
D11*
%TO.C,C20*%
X43870385Y-44892563D02*
X43846576Y-44916372D01*
X43846576Y-44916372D02*
X43775147Y-44940182D01*
X43775147Y-44940182D02*
X43727528Y-44940182D01*
X43727528Y-44940182D02*
X43656100Y-44916372D01*
X43656100Y-44916372D02*
X43608481Y-44868753D01*
X43608481Y-44868753D02*
X43584671Y-44821134D01*
X43584671Y-44821134D02*
X43560862Y-44725896D01*
X43560862Y-44725896D02*
X43560862Y-44654468D01*
X43560862Y-44654468D02*
X43584671Y-44559230D01*
X43584671Y-44559230D02*
X43608481Y-44511611D01*
X43608481Y-44511611D02*
X43656100Y-44463992D01*
X43656100Y-44463992D02*
X43727528Y-44440182D01*
X43727528Y-44440182D02*
X43775147Y-44440182D01*
X43775147Y-44440182D02*
X43846576Y-44463992D01*
X43846576Y-44463992D02*
X43870385Y-44487801D01*
X44060862Y-44487801D02*
X44084671Y-44463992D01*
X44084671Y-44463992D02*
X44132290Y-44440182D01*
X44132290Y-44440182D02*
X44251338Y-44440182D01*
X44251338Y-44440182D02*
X44298957Y-44463992D01*
X44298957Y-44463992D02*
X44322766Y-44487801D01*
X44322766Y-44487801D02*
X44346576Y-44535420D01*
X44346576Y-44535420D02*
X44346576Y-44583039D01*
X44346576Y-44583039D02*
X44322766Y-44654468D01*
X44322766Y-44654468D02*
X44037052Y-44940182D01*
X44037052Y-44940182D02*
X44346576Y-44940182D01*
X44656099Y-44440182D02*
X44703718Y-44440182D01*
X44703718Y-44440182D02*
X44751337Y-44463992D01*
X44751337Y-44463992D02*
X44775147Y-44487801D01*
X44775147Y-44487801D02*
X44798956Y-44535420D01*
X44798956Y-44535420D02*
X44822766Y-44630658D01*
X44822766Y-44630658D02*
X44822766Y-44749706D01*
X44822766Y-44749706D02*
X44798956Y-44844944D01*
X44798956Y-44844944D02*
X44775147Y-44892563D01*
X44775147Y-44892563D02*
X44751337Y-44916372D01*
X44751337Y-44916372D02*
X44703718Y-44940182D01*
X44703718Y-44940182D02*
X44656099Y-44940182D01*
X44656099Y-44940182D02*
X44608480Y-44916372D01*
X44608480Y-44916372D02*
X44584671Y-44892563D01*
X44584671Y-44892563D02*
X44560861Y-44844944D01*
X44560861Y-44844944D02*
X44537052Y-44749706D01*
X44537052Y-44749706D02*
X44537052Y-44630658D01*
X44537052Y-44630658D02*
X44560861Y-44535420D01*
X44560861Y-44535420D02*
X44584671Y-44487801D01*
X44584671Y-44487801D02*
X44608480Y-44463992D01*
X44608480Y-44463992D02*
X44656099Y-44440182D01*
D10*
%TO.C,TP1*%
X52760225Y-52471621D02*
X52760225Y-51871621D01*
X52760225Y-51871621D02*
X52903082Y-51871621D01*
X52903082Y-51871621D02*
X52988796Y-51900193D01*
X52988796Y-51900193D02*
X53045939Y-51957335D01*
X53045939Y-51957335D02*
X53074510Y-52014478D01*
X53074510Y-52014478D02*
X53103082Y-52128764D01*
X53103082Y-52128764D02*
X53103082Y-52214478D01*
X53103082Y-52214478D02*
X53074510Y-52328764D01*
X53074510Y-52328764D02*
X53045939Y-52385907D01*
X53045939Y-52385907D02*
X52988796Y-52443050D01*
X52988796Y-52443050D02*
X52903082Y-52471621D01*
X52903082Y-52471621D02*
X52760225Y-52471621D01*
X53360225Y-52243050D02*
X53817368Y-52243050D01*
X54017367Y-51871621D02*
X54360225Y-51871621D01*
X54188796Y-52471621D02*
X54188796Y-51871621D01*
X54560225Y-52471621D02*
X54560225Y-51871621D01*
X54560225Y-51871621D02*
X54788796Y-51871621D01*
X54788796Y-51871621D02*
X54845939Y-51900193D01*
X54845939Y-51900193D02*
X54874510Y-51928764D01*
X54874510Y-51928764D02*
X54903082Y-51985907D01*
X54903082Y-51985907D02*
X54903082Y-52071621D01*
X54903082Y-52071621D02*
X54874510Y-52128764D01*
X54874510Y-52128764D02*
X54845939Y-52157335D01*
X54845939Y-52157335D02*
X54788796Y-52185907D01*
X54788796Y-52185907D02*
X54560225Y-52185907D01*
%TO.C,C14*%
X53313285Y-69410714D02*
X53341857Y-69439286D01*
X53341857Y-69439286D02*
X53370428Y-69525000D01*
X53370428Y-69525000D02*
X53370428Y-69582143D01*
X53370428Y-69582143D02*
X53341857Y-69667857D01*
X53341857Y-69667857D02*
X53284714Y-69725000D01*
X53284714Y-69725000D02*
X53227571Y-69753571D01*
X53227571Y-69753571D02*
X53113285Y-69782143D01*
X53113285Y-69782143D02*
X53027571Y-69782143D01*
X53027571Y-69782143D02*
X52913285Y-69753571D01*
X52913285Y-69753571D02*
X52856142Y-69725000D01*
X52856142Y-69725000D02*
X52799000Y-69667857D01*
X52799000Y-69667857D02*
X52770428Y-69582143D01*
X52770428Y-69582143D02*
X52770428Y-69525000D01*
X52770428Y-69525000D02*
X52799000Y-69439286D01*
X52799000Y-69439286D02*
X52827571Y-69410714D01*
X53370428Y-68839286D02*
X53370428Y-69182143D01*
X53370428Y-69010714D02*
X52770428Y-69010714D01*
X52770428Y-69010714D02*
X52856142Y-69067857D01*
X52856142Y-69067857D02*
X52913285Y-69125000D01*
X52913285Y-69125000D02*
X52941857Y-69182143D01*
X52970428Y-68325000D02*
X53370428Y-68325000D01*
X52741857Y-68467857D02*
X53170428Y-68610714D01*
X53170428Y-68610714D02*
X53170428Y-68239285D01*
%TO.C,R26*%
X38687328Y-66560460D02*
X38401614Y-66760460D01*
X38687328Y-66903317D02*
X38087328Y-66903317D01*
X38087328Y-66903317D02*
X38087328Y-66674746D01*
X38087328Y-66674746D02*
X38115900Y-66617603D01*
X38115900Y-66617603D02*
X38144471Y-66589032D01*
X38144471Y-66589032D02*
X38201614Y-66560460D01*
X38201614Y-66560460D02*
X38287328Y-66560460D01*
X38287328Y-66560460D02*
X38344471Y-66589032D01*
X38344471Y-66589032D02*
X38373042Y-66617603D01*
X38373042Y-66617603D02*
X38401614Y-66674746D01*
X38401614Y-66674746D02*
X38401614Y-66903317D01*
X38144471Y-66331889D02*
X38115900Y-66303317D01*
X38115900Y-66303317D02*
X38087328Y-66246175D01*
X38087328Y-66246175D02*
X38087328Y-66103317D01*
X38087328Y-66103317D02*
X38115900Y-66046175D01*
X38115900Y-66046175D02*
X38144471Y-66017603D01*
X38144471Y-66017603D02*
X38201614Y-65989032D01*
X38201614Y-65989032D02*
X38258757Y-65989032D01*
X38258757Y-65989032D02*
X38344471Y-66017603D01*
X38344471Y-66017603D02*
X38687328Y-66360460D01*
X38687328Y-66360460D02*
X38687328Y-65989032D01*
X38087328Y-65474746D02*
X38087328Y-65589031D01*
X38087328Y-65589031D02*
X38115900Y-65646174D01*
X38115900Y-65646174D02*
X38144471Y-65674746D01*
X38144471Y-65674746D02*
X38230185Y-65731888D01*
X38230185Y-65731888D02*
X38344471Y-65760460D01*
X38344471Y-65760460D02*
X38573042Y-65760460D01*
X38573042Y-65760460D02*
X38630185Y-65731888D01*
X38630185Y-65731888D02*
X38658757Y-65703317D01*
X38658757Y-65703317D02*
X38687328Y-65646174D01*
X38687328Y-65646174D02*
X38687328Y-65531888D01*
X38687328Y-65531888D02*
X38658757Y-65474746D01*
X38658757Y-65474746D02*
X38630185Y-65446174D01*
X38630185Y-65446174D02*
X38573042Y-65417603D01*
X38573042Y-65417603D02*
X38430185Y-65417603D01*
X38430185Y-65417603D02*
X38373042Y-65446174D01*
X38373042Y-65446174D02*
X38344471Y-65474746D01*
X38344471Y-65474746D02*
X38315900Y-65531888D01*
X38315900Y-65531888D02*
X38315900Y-65646174D01*
X38315900Y-65646174D02*
X38344471Y-65703317D01*
X38344471Y-65703317D02*
X38373042Y-65731888D01*
X38373042Y-65731888D02*
X38430185Y-65760460D01*
%TO.C,J2*%
X55199000Y-53724999D02*
X55170428Y-53782142D01*
X55170428Y-53782142D02*
X55170428Y-53867856D01*
X55170428Y-53867856D02*
X55199000Y-53953570D01*
X55199000Y-53953570D02*
X55256142Y-54010713D01*
X55256142Y-54010713D02*
X55313285Y-54039284D01*
X55313285Y-54039284D02*
X55427571Y-54067856D01*
X55427571Y-54067856D02*
X55513285Y-54067856D01*
X55513285Y-54067856D02*
X55627571Y-54039284D01*
X55627571Y-54039284D02*
X55684714Y-54010713D01*
X55684714Y-54010713D02*
X55741857Y-53953570D01*
X55741857Y-53953570D02*
X55770428Y-53867856D01*
X55770428Y-53867856D02*
X55770428Y-53810713D01*
X55770428Y-53810713D02*
X55741857Y-53724999D01*
X55741857Y-53724999D02*
X55713285Y-53696427D01*
X55713285Y-53696427D02*
X55513285Y-53696427D01*
X55513285Y-53696427D02*
X55513285Y-53810713D01*
X55770428Y-53439284D02*
X55170428Y-53439284D01*
X55170428Y-53439284D02*
X55170428Y-53210713D01*
X55170428Y-53210713D02*
X55199000Y-53153570D01*
X55199000Y-53153570D02*
X55227571Y-53124999D01*
X55227571Y-53124999D02*
X55284714Y-53096427D01*
X55284714Y-53096427D02*
X55370428Y-53096427D01*
X55370428Y-53096427D02*
X55427571Y-53124999D01*
X55427571Y-53124999D02*
X55456142Y-53153570D01*
X55456142Y-53153570D02*
X55484714Y-53210713D01*
X55484714Y-53210713D02*
X55484714Y-53439284D01*
X55770428Y-52839284D02*
X55170428Y-52839284D01*
X55170428Y-52439285D02*
X55170428Y-52324999D01*
X55170428Y-52324999D02*
X55199000Y-52267856D01*
X55199000Y-52267856D02*
X55256142Y-52210713D01*
X55256142Y-52210713D02*
X55370428Y-52182142D01*
X55370428Y-52182142D02*
X55570428Y-52182142D01*
X55570428Y-52182142D02*
X55684714Y-52210713D01*
X55684714Y-52210713D02*
X55741857Y-52267856D01*
X55741857Y-52267856D02*
X55770428Y-52324999D01*
X55770428Y-52324999D02*
X55770428Y-52439285D01*
X55770428Y-52439285D02*
X55741857Y-52496428D01*
X55741857Y-52496428D02*
X55684714Y-52553570D01*
X55684714Y-52553570D02*
X55570428Y-52582142D01*
X55570428Y-52582142D02*
X55370428Y-52582142D01*
X55370428Y-52582142D02*
X55256142Y-52553570D01*
X55256142Y-52553570D02*
X55199000Y-52496428D01*
X55199000Y-52496428D02*
X55170428Y-52439285D01*
%TO.C,R27*%
X43294285Y-68935428D02*
X43094285Y-68649714D01*
X42951428Y-68935428D02*
X42951428Y-68335428D01*
X42951428Y-68335428D02*
X43179999Y-68335428D01*
X43179999Y-68335428D02*
X43237142Y-68364000D01*
X43237142Y-68364000D02*
X43265713Y-68392571D01*
X43265713Y-68392571D02*
X43294285Y-68449714D01*
X43294285Y-68449714D02*
X43294285Y-68535428D01*
X43294285Y-68535428D02*
X43265713Y-68592571D01*
X43265713Y-68592571D02*
X43237142Y-68621142D01*
X43237142Y-68621142D02*
X43179999Y-68649714D01*
X43179999Y-68649714D02*
X42951428Y-68649714D01*
X43522856Y-68392571D02*
X43551428Y-68364000D01*
X43551428Y-68364000D02*
X43608571Y-68335428D01*
X43608571Y-68335428D02*
X43751428Y-68335428D01*
X43751428Y-68335428D02*
X43808571Y-68364000D01*
X43808571Y-68364000D02*
X43837142Y-68392571D01*
X43837142Y-68392571D02*
X43865713Y-68449714D01*
X43865713Y-68449714D02*
X43865713Y-68506857D01*
X43865713Y-68506857D02*
X43837142Y-68592571D01*
X43837142Y-68592571D02*
X43494285Y-68935428D01*
X43494285Y-68935428D02*
X43865713Y-68935428D01*
X44065714Y-68335428D02*
X44465714Y-68335428D01*
X44465714Y-68335428D02*
X44208571Y-68935428D01*
D11*
%TO.C,C23*%
X39267885Y-51617920D02*
X39291694Y-51641729D01*
X39291694Y-51641729D02*
X39315504Y-51713158D01*
X39315504Y-51713158D02*
X39315504Y-51760777D01*
X39315504Y-51760777D02*
X39291694Y-51832205D01*
X39291694Y-51832205D02*
X39244075Y-51879824D01*
X39244075Y-51879824D02*
X39196456Y-51903634D01*
X39196456Y-51903634D02*
X39101218Y-51927443D01*
X39101218Y-51927443D02*
X39029790Y-51927443D01*
X39029790Y-51927443D02*
X38934552Y-51903634D01*
X38934552Y-51903634D02*
X38886933Y-51879824D01*
X38886933Y-51879824D02*
X38839314Y-51832205D01*
X38839314Y-51832205D02*
X38815504Y-51760777D01*
X38815504Y-51760777D02*
X38815504Y-51713158D01*
X38815504Y-51713158D02*
X38839314Y-51641729D01*
X38839314Y-51641729D02*
X38863123Y-51617920D01*
X38863123Y-51427443D02*
X38839314Y-51403634D01*
X38839314Y-51403634D02*
X38815504Y-51356015D01*
X38815504Y-51356015D02*
X38815504Y-51236967D01*
X38815504Y-51236967D02*
X38839314Y-51189348D01*
X38839314Y-51189348D02*
X38863123Y-51165539D01*
X38863123Y-51165539D02*
X38910742Y-51141729D01*
X38910742Y-51141729D02*
X38958361Y-51141729D01*
X38958361Y-51141729D02*
X39029790Y-51165539D01*
X39029790Y-51165539D02*
X39315504Y-51451253D01*
X39315504Y-51451253D02*
X39315504Y-51141729D01*
X38815504Y-50975063D02*
X38815504Y-50665539D01*
X38815504Y-50665539D02*
X39005980Y-50832206D01*
X39005980Y-50832206D02*
X39005980Y-50760777D01*
X39005980Y-50760777D02*
X39029790Y-50713158D01*
X39029790Y-50713158D02*
X39053599Y-50689349D01*
X39053599Y-50689349D02*
X39101218Y-50665539D01*
X39101218Y-50665539D02*
X39220266Y-50665539D01*
X39220266Y-50665539D02*
X39267885Y-50689349D01*
X39267885Y-50689349D02*
X39291694Y-50713158D01*
X39291694Y-50713158D02*
X39315504Y-50760777D01*
X39315504Y-50760777D02*
X39315504Y-50903634D01*
X39315504Y-50903634D02*
X39291694Y-50951253D01*
X39291694Y-50951253D02*
X39267885Y-50975063D01*
D10*
%TO.C,R3*%
X54505769Y-59961296D02*
X54220055Y-60161296D01*
X54505769Y-60304153D02*
X53905769Y-60304153D01*
X53905769Y-60304153D02*
X53905769Y-60075582D01*
X53905769Y-60075582D02*
X53934341Y-60018439D01*
X53934341Y-60018439D02*
X53962912Y-59989868D01*
X53962912Y-59989868D02*
X54020055Y-59961296D01*
X54020055Y-59961296D02*
X54105769Y-59961296D01*
X54105769Y-59961296D02*
X54162912Y-59989868D01*
X54162912Y-59989868D02*
X54191483Y-60018439D01*
X54191483Y-60018439D02*
X54220055Y-60075582D01*
X54220055Y-60075582D02*
X54220055Y-60304153D01*
X53905769Y-59761296D02*
X53905769Y-59389868D01*
X53905769Y-59389868D02*
X54134341Y-59589868D01*
X54134341Y-59589868D02*
X54134341Y-59504153D01*
X54134341Y-59504153D02*
X54162912Y-59447011D01*
X54162912Y-59447011D02*
X54191483Y-59418439D01*
X54191483Y-59418439D02*
X54248626Y-59389868D01*
X54248626Y-59389868D02*
X54391483Y-59389868D01*
X54391483Y-59389868D02*
X54448626Y-59418439D01*
X54448626Y-59418439D02*
X54477198Y-59447011D01*
X54477198Y-59447011D02*
X54505769Y-59504153D01*
X54505769Y-59504153D02*
X54505769Y-59675582D01*
X54505769Y-59675582D02*
X54477198Y-59732725D01*
X54477198Y-59732725D02*
X54448626Y-59761296D01*
D13*
%TO.C,L4*%
X41276573Y-96401666D02*
X41276573Y-97006428D01*
X41276573Y-97006428D02*
X40006573Y-97006428D01*
X40429907Y-95434047D02*
X41276573Y-95434047D01*
X39946097Y-95736428D02*
X40853240Y-96038809D01*
X40853240Y-96038809D02*
X40853240Y-95252618D01*
D10*
%TO.C,BOOTJUMPER1*%
X57507143Y-59306142D02*
X57592857Y-59334714D01*
X57592857Y-59334714D02*
X57621428Y-59363285D01*
X57621428Y-59363285D02*
X57650000Y-59420428D01*
X57650000Y-59420428D02*
X57650000Y-59506142D01*
X57650000Y-59506142D02*
X57621428Y-59563285D01*
X57621428Y-59563285D02*
X57592857Y-59591857D01*
X57592857Y-59591857D02*
X57535714Y-59620428D01*
X57535714Y-59620428D02*
X57307143Y-59620428D01*
X57307143Y-59620428D02*
X57307143Y-59020428D01*
X57307143Y-59020428D02*
X57507143Y-59020428D01*
X57507143Y-59020428D02*
X57564286Y-59049000D01*
X57564286Y-59049000D02*
X57592857Y-59077571D01*
X57592857Y-59077571D02*
X57621428Y-59134714D01*
X57621428Y-59134714D02*
X57621428Y-59191857D01*
X57621428Y-59191857D02*
X57592857Y-59249000D01*
X57592857Y-59249000D02*
X57564286Y-59277571D01*
X57564286Y-59277571D02*
X57507143Y-59306142D01*
X57507143Y-59306142D02*
X57307143Y-59306142D01*
X58021428Y-59020428D02*
X58135714Y-59020428D01*
X58135714Y-59020428D02*
X58192857Y-59049000D01*
X58192857Y-59049000D02*
X58250000Y-59106142D01*
X58250000Y-59106142D02*
X58278571Y-59220428D01*
X58278571Y-59220428D02*
X58278571Y-59420428D01*
X58278571Y-59420428D02*
X58250000Y-59534714D01*
X58250000Y-59534714D02*
X58192857Y-59591857D01*
X58192857Y-59591857D02*
X58135714Y-59620428D01*
X58135714Y-59620428D02*
X58021428Y-59620428D01*
X58021428Y-59620428D02*
X57964286Y-59591857D01*
X57964286Y-59591857D02*
X57907143Y-59534714D01*
X57907143Y-59534714D02*
X57878571Y-59420428D01*
X57878571Y-59420428D02*
X57878571Y-59220428D01*
X57878571Y-59220428D02*
X57907143Y-59106142D01*
X57907143Y-59106142D02*
X57964286Y-59049000D01*
X57964286Y-59049000D02*
X58021428Y-59020428D01*
X58649999Y-59020428D02*
X58764285Y-59020428D01*
X58764285Y-59020428D02*
X58821428Y-59049000D01*
X58821428Y-59049000D02*
X58878571Y-59106142D01*
X58878571Y-59106142D02*
X58907142Y-59220428D01*
X58907142Y-59220428D02*
X58907142Y-59420428D01*
X58907142Y-59420428D02*
X58878571Y-59534714D01*
X58878571Y-59534714D02*
X58821428Y-59591857D01*
X58821428Y-59591857D02*
X58764285Y-59620428D01*
X58764285Y-59620428D02*
X58649999Y-59620428D01*
X58649999Y-59620428D02*
X58592857Y-59591857D01*
X58592857Y-59591857D02*
X58535714Y-59534714D01*
X58535714Y-59534714D02*
X58507142Y-59420428D01*
X58507142Y-59420428D02*
X58507142Y-59220428D01*
X58507142Y-59220428D02*
X58535714Y-59106142D01*
X58535714Y-59106142D02*
X58592857Y-59049000D01*
X58592857Y-59049000D02*
X58649999Y-59020428D01*
X59078570Y-59020428D02*
X59421428Y-59020428D01*
X59249999Y-59620428D02*
X59249999Y-59020428D01*
X59792856Y-59020428D02*
X59792856Y-59449000D01*
X59792856Y-59449000D02*
X59764285Y-59534714D01*
X59764285Y-59534714D02*
X59707142Y-59591857D01*
X59707142Y-59591857D02*
X59621428Y-59620428D01*
X59621428Y-59620428D02*
X59564285Y-59620428D01*
X60078571Y-59620428D02*
X60078571Y-59020428D01*
X60078571Y-59020428D02*
X60307142Y-59020428D01*
X60307142Y-59020428D02*
X60364285Y-59049000D01*
X60364285Y-59049000D02*
X60392856Y-59077571D01*
X60392856Y-59077571D02*
X60421428Y-59134714D01*
X60421428Y-59134714D02*
X60421428Y-59220428D01*
X60421428Y-59220428D02*
X60392856Y-59277571D01*
X60392856Y-59277571D02*
X60364285Y-59306142D01*
X60364285Y-59306142D02*
X60307142Y-59334714D01*
X60307142Y-59334714D02*
X60078571Y-59334714D01*
%TO.C,R11*%
X52939285Y-51245428D02*
X52739285Y-50959714D01*
X52596428Y-51245428D02*
X52596428Y-50645428D01*
X52596428Y-50645428D02*
X52824999Y-50645428D01*
X52824999Y-50645428D02*
X52882142Y-50674000D01*
X52882142Y-50674000D02*
X52910713Y-50702571D01*
X52910713Y-50702571D02*
X52939285Y-50759714D01*
X52939285Y-50759714D02*
X52939285Y-50845428D01*
X52939285Y-50845428D02*
X52910713Y-50902571D01*
X52910713Y-50902571D02*
X52882142Y-50931142D01*
X52882142Y-50931142D02*
X52824999Y-50959714D01*
X52824999Y-50959714D02*
X52596428Y-50959714D01*
X53510713Y-51245428D02*
X53167856Y-51245428D01*
X53339285Y-51245428D02*
X53339285Y-50645428D01*
X53339285Y-50645428D02*
X53282142Y-50731142D01*
X53282142Y-50731142D02*
X53224999Y-50788285D01*
X53224999Y-50788285D02*
X53167856Y-50816857D01*
X54082142Y-51245428D02*
X53739285Y-51245428D01*
X53910714Y-51245428D02*
X53910714Y-50645428D01*
X53910714Y-50645428D02*
X53853571Y-50731142D01*
X53853571Y-50731142D02*
X53796428Y-50788285D01*
X53796428Y-50788285D02*
X53739285Y-50816857D01*
%TO.C,TP2*%
X45425929Y-55466526D02*
X45270638Y-54886970D01*
X45270638Y-54886970D02*
X45408627Y-54849996D01*
X45408627Y-54849996D02*
X45498815Y-54855410D01*
X45498815Y-54855410D02*
X45568801Y-54895816D01*
X45568801Y-54895816D02*
X45611188Y-54943617D01*
X45611188Y-54943617D02*
X45668366Y-55046613D01*
X45668366Y-55046613D02*
X45690550Y-55129407D01*
X45690550Y-55129407D02*
X45692532Y-55247193D01*
X45692532Y-55247193D02*
X45679723Y-55309784D01*
X45679723Y-55309784D02*
X45639317Y-55379769D01*
X45639317Y-55379769D02*
X45563918Y-55429552D01*
X45563918Y-55429552D02*
X45425929Y-55466526D01*
X45946326Y-55090451D02*
X46387892Y-54972134D01*
X46226268Y-55252076D02*
X46107950Y-54810510D01*
X46484944Y-54561598D02*
X46816119Y-54472860D01*
X46805823Y-55096784D02*
X46650531Y-54517229D01*
X47164596Y-55000652D02*
X47009304Y-54421096D01*
X47009304Y-54421096D02*
X47230087Y-54361937D01*
X47230087Y-54361937D02*
X47292678Y-54374746D01*
X47292678Y-54374746D02*
X47327670Y-54394949D01*
X47327670Y-54394949D02*
X47370058Y-54442750D01*
X47370058Y-54442750D02*
X47392242Y-54525543D01*
X47392242Y-54525543D02*
X47379434Y-54588134D01*
X47379434Y-54588134D02*
X47359231Y-54623127D01*
X47359231Y-54623127D02*
X47311430Y-54665514D01*
X47311430Y-54665514D02*
X47090647Y-54724673D01*
%TO.C,C32*%
X39622142Y-85692857D02*
X39669761Y-85740476D01*
X39669761Y-85740476D02*
X39717380Y-85883333D01*
X39717380Y-85883333D02*
X39717380Y-85978571D01*
X39717380Y-85978571D02*
X39669761Y-86121428D01*
X39669761Y-86121428D02*
X39574523Y-86216666D01*
X39574523Y-86216666D02*
X39479285Y-86264285D01*
X39479285Y-86264285D02*
X39288809Y-86311904D01*
X39288809Y-86311904D02*
X39145952Y-86311904D01*
X39145952Y-86311904D02*
X38955476Y-86264285D01*
X38955476Y-86264285D02*
X38860238Y-86216666D01*
X38860238Y-86216666D02*
X38765000Y-86121428D01*
X38765000Y-86121428D02*
X38717380Y-85978571D01*
X38717380Y-85978571D02*
X38717380Y-85883333D01*
X38717380Y-85883333D02*
X38765000Y-85740476D01*
X38765000Y-85740476D02*
X38812619Y-85692857D01*
X38717380Y-85359523D02*
X38717380Y-84740476D01*
X38717380Y-84740476D02*
X39098333Y-85073809D01*
X39098333Y-85073809D02*
X39098333Y-84930952D01*
X39098333Y-84930952D02*
X39145952Y-84835714D01*
X39145952Y-84835714D02*
X39193571Y-84788095D01*
X39193571Y-84788095D02*
X39288809Y-84740476D01*
X39288809Y-84740476D02*
X39526904Y-84740476D01*
X39526904Y-84740476D02*
X39622142Y-84788095D01*
X39622142Y-84788095D02*
X39669761Y-84835714D01*
X39669761Y-84835714D02*
X39717380Y-84930952D01*
X39717380Y-84930952D02*
X39717380Y-85216666D01*
X39717380Y-85216666D02*
X39669761Y-85311904D01*
X39669761Y-85311904D02*
X39622142Y-85359523D01*
X38812619Y-84359523D02*
X38765000Y-84311904D01*
X38765000Y-84311904D02*
X38717380Y-84216666D01*
X38717380Y-84216666D02*
X38717380Y-83978571D01*
X38717380Y-83978571D02*
X38765000Y-83883333D01*
X38765000Y-83883333D02*
X38812619Y-83835714D01*
X38812619Y-83835714D02*
X38907857Y-83788095D01*
X38907857Y-83788095D02*
X39003095Y-83788095D01*
X39003095Y-83788095D02*
X39145952Y-83835714D01*
X39145952Y-83835714D02*
X39717380Y-84407142D01*
X39717380Y-84407142D02*
X39717380Y-83788095D01*
%TO.C,R25*%
X53170428Y-77160714D02*
X52884714Y-77360714D01*
X53170428Y-77503571D02*
X52570428Y-77503571D01*
X52570428Y-77503571D02*
X52570428Y-77275000D01*
X52570428Y-77275000D02*
X52599000Y-77217857D01*
X52599000Y-77217857D02*
X52627571Y-77189286D01*
X52627571Y-77189286D02*
X52684714Y-77160714D01*
X52684714Y-77160714D02*
X52770428Y-77160714D01*
X52770428Y-77160714D02*
X52827571Y-77189286D01*
X52827571Y-77189286D02*
X52856142Y-77217857D01*
X52856142Y-77217857D02*
X52884714Y-77275000D01*
X52884714Y-77275000D02*
X52884714Y-77503571D01*
X52627571Y-76932143D02*
X52599000Y-76903571D01*
X52599000Y-76903571D02*
X52570428Y-76846429D01*
X52570428Y-76846429D02*
X52570428Y-76703571D01*
X52570428Y-76703571D02*
X52599000Y-76646429D01*
X52599000Y-76646429D02*
X52627571Y-76617857D01*
X52627571Y-76617857D02*
X52684714Y-76589286D01*
X52684714Y-76589286D02*
X52741857Y-76589286D01*
X52741857Y-76589286D02*
X52827571Y-76617857D01*
X52827571Y-76617857D02*
X53170428Y-76960714D01*
X53170428Y-76960714D02*
X53170428Y-76589286D01*
X52570428Y-76046428D02*
X52570428Y-76332142D01*
X52570428Y-76332142D02*
X52856142Y-76360714D01*
X52856142Y-76360714D02*
X52827571Y-76332142D01*
X52827571Y-76332142D02*
X52799000Y-76275000D01*
X52799000Y-76275000D02*
X52799000Y-76132142D01*
X52799000Y-76132142D02*
X52827571Y-76075000D01*
X52827571Y-76075000D02*
X52856142Y-76046428D01*
X52856142Y-76046428D02*
X52913285Y-76017857D01*
X52913285Y-76017857D02*
X53056142Y-76017857D01*
X53056142Y-76017857D02*
X53113285Y-76046428D01*
X53113285Y-76046428D02*
X53141857Y-76075000D01*
X53141857Y-76075000D02*
X53170428Y-76132142D01*
X53170428Y-76132142D02*
X53170428Y-76275000D01*
X53170428Y-76275000D02*
X53141857Y-76332142D01*
X53141857Y-76332142D02*
X53113285Y-76360714D01*
X52051857Y-80147142D02*
X52080428Y-80061428D01*
X52080428Y-80061428D02*
X52080428Y-79918570D01*
X52080428Y-79918570D02*
X52051857Y-79861428D01*
X52051857Y-79861428D02*
X52023285Y-79832856D01*
X52023285Y-79832856D02*
X51966142Y-79804285D01*
X51966142Y-79804285D02*
X51909000Y-79804285D01*
X51909000Y-79804285D02*
X51851857Y-79832856D01*
X51851857Y-79832856D02*
X51823285Y-79861428D01*
X51823285Y-79861428D02*
X51794714Y-79918570D01*
X51794714Y-79918570D02*
X51766142Y-80032856D01*
X51766142Y-80032856D02*
X51737571Y-80089999D01*
X51737571Y-80089999D02*
X51709000Y-80118570D01*
X51709000Y-80118570D02*
X51651857Y-80147142D01*
X51651857Y-80147142D02*
X51594714Y-80147142D01*
X51594714Y-80147142D02*
X51537571Y-80118570D01*
X51537571Y-80118570D02*
X51509000Y-80089999D01*
X51509000Y-80089999D02*
X51480428Y-80032856D01*
X51480428Y-80032856D02*
X51480428Y-79889999D01*
X51480428Y-79889999D02*
X51509000Y-79804285D01*
X51766142Y-79547141D02*
X51766142Y-79347141D01*
X52080428Y-79261427D02*
X52080428Y-79547141D01*
X52080428Y-79547141D02*
X51480428Y-79547141D01*
X51480428Y-79547141D02*
X51480428Y-79261427D01*
X52080428Y-78661427D02*
X51794714Y-78861427D01*
X52080428Y-79004284D02*
X51480428Y-79004284D01*
X51480428Y-79004284D02*
X51480428Y-78775713D01*
X51480428Y-78775713D02*
X51509000Y-78718570D01*
X51509000Y-78718570D02*
X51537571Y-78689999D01*
X51537571Y-78689999D02*
X51594714Y-78661427D01*
X51594714Y-78661427D02*
X51680428Y-78661427D01*
X51680428Y-78661427D02*
X51737571Y-78689999D01*
X51737571Y-78689999D02*
X51766142Y-78718570D01*
X51766142Y-78718570D02*
X51794714Y-78775713D01*
X51794714Y-78775713D02*
X51794714Y-79004284D01*
X51480428Y-78489999D02*
X52080428Y-78289999D01*
X52080428Y-78289999D02*
X51480428Y-78089999D01*
X51480428Y-77775713D02*
X51480428Y-77661427D01*
X51480428Y-77661427D02*
X51509000Y-77604284D01*
X51509000Y-77604284D02*
X51566142Y-77547141D01*
X51566142Y-77547141D02*
X51680428Y-77518570D01*
X51680428Y-77518570D02*
X51880428Y-77518570D01*
X51880428Y-77518570D02*
X51994714Y-77547141D01*
X51994714Y-77547141D02*
X52051857Y-77604284D01*
X52051857Y-77604284D02*
X52080428Y-77661427D01*
X52080428Y-77661427D02*
X52080428Y-77775713D01*
X52080428Y-77775713D02*
X52051857Y-77832856D01*
X52051857Y-77832856D02*
X51994714Y-77889998D01*
X51994714Y-77889998D02*
X51880428Y-77918570D01*
X51880428Y-77918570D02*
X51680428Y-77918570D01*
X51680428Y-77918570D02*
X51566142Y-77889998D01*
X51566142Y-77889998D02*
X51509000Y-77832856D01*
X51509000Y-77832856D02*
X51480428Y-77775713D01*
X52080428Y-76901427D02*
X51480428Y-76901427D01*
X51480428Y-76901427D02*
X51480428Y-76672856D01*
X51480428Y-76672856D02*
X51509000Y-76615713D01*
X51509000Y-76615713D02*
X51537571Y-76587142D01*
X51537571Y-76587142D02*
X51594714Y-76558570D01*
X51594714Y-76558570D02*
X51680428Y-76558570D01*
X51680428Y-76558570D02*
X51737571Y-76587142D01*
X51737571Y-76587142D02*
X51766142Y-76615713D01*
X51766142Y-76615713D02*
X51794714Y-76672856D01*
X51794714Y-76672856D02*
X51794714Y-76901427D01*
X51480428Y-76358570D02*
X52080428Y-76215713D01*
X52080428Y-76215713D02*
X51651857Y-76101427D01*
X51651857Y-76101427D02*
X52080428Y-75987142D01*
X52080428Y-75987142D02*
X51480428Y-75844285D01*
X52080428Y-75272856D02*
X51794714Y-75472856D01*
X52080428Y-75615713D02*
X51480428Y-75615713D01*
X51480428Y-75615713D02*
X51480428Y-75387142D01*
X51480428Y-75387142D02*
X51509000Y-75329999D01*
X51509000Y-75329999D02*
X51537571Y-75301428D01*
X51537571Y-75301428D02*
X51594714Y-75272856D01*
X51594714Y-75272856D02*
X51680428Y-75272856D01*
X51680428Y-75272856D02*
X51737571Y-75301428D01*
X51737571Y-75301428D02*
X51766142Y-75329999D01*
X51766142Y-75329999D02*
X51794714Y-75387142D01*
X51794714Y-75387142D02*
X51794714Y-75615713D01*
%TO.C,C2*%
X57625000Y-69038285D02*
X57596428Y-69066857D01*
X57596428Y-69066857D02*
X57510714Y-69095428D01*
X57510714Y-69095428D02*
X57453571Y-69095428D01*
X57453571Y-69095428D02*
X57367857Y-69066857D01*
X57367857Y-69066857D02*
X57310714Y-69009714D01*
X57310714Y-69009714D02*
X57282143Y-68952571D01*
X57282143Y-68952571D02*
X57253571Y-68838285D01*
X57253571Y-68838285D02*
X57253571Y-68752571D01*
X57253571Y-68752571D02*
X57282143Y-68638285D01*
X57282143Y-68638285D02*
X57310714Y-68581142D01*
X57310714Y-68581142D02*
X57367857Y-68524000D01*
X57367857Y-68524000D02*
X57453571Y-68495428D01*
X57453571Y-68495428D02*
X57510714Y-68495428D01*
X57510714Y-68495428D02*
X57596428Y-68524000D01*
X57596428Y-68524000D02*
X57625000Y-68552571D01*
X57853571Y-68552571D02*
X57882143Y-68524000D01*
X57882143Y-68524000D02*
X57939286Y-68495428D01*
X57939286Y-68495428D02*
X58082143Y-68495428D01*
X58082143Y-68495428D02*
X58139286Y-68524000D01*
X58139286Y-68524000D02*
X58167857Y-68552571D01*
X58167857Y-68552571D02*
X58196428Y-68609714D01*
X58196428Y-68609714D02*
X58196428Y-68666857D01*
X58196428Y-68666857D02*
X58167857Y-68752571D01*
X58167857Y-68752571D02*
X57825000Y-69095428D01*
X57825000Y-69095428D02*
X58196428Y-69095428D01*
D12*
%TO.C,C46*%
X58600642Y-96030544D02*
X58553023Y-96078163D01*
X58553023Y-96078163D02*
X58410166Y-96125782D01*
X58410166Y-96125782D02*
X58314928Y-96125782D01*
X58314928Y-96125782D02*
X58172071Y-96078163D01*
X58172071Y-96078163D02*
X58076833Y-95982925D01*
X58076833Y-95982925D02*
X58029214Y-95887687D01*
X58029214Y-95887687D02*
X57981595Y-95697211D01*
X57981595Y-95697211D02*
X57981595Y-95554354D01*
X57981595Y-95554354D02*
X58029214Y-95363878D01*
X58029214Y-95363878D02*
X58076833Y-95268640D01*
X58076833Y-95268640D02*
X58172071Y-95173402D01*
X58172071Y-95173402D02*
X58314928Y-95125782D01*
X58314928Y-95125782D02*
X58410166Y-95125782D01*
X58410166Y-95125782D02*
X58553023Y-95173402D01*
X58553023Y-95173402D02*
X58600642Y-95221021D01*
X59457785Y-95459116D02*
X59457785Y-96125782D01*
X59219690Y-95078163D02*
X58981595Y-95792449D01*
X58981595Y-95792449D02*
X59600642Y-95792449D01*
X60410166Y-95125782D02*
X60219690Y-95125782D01*
X60219690Y-95125782D02*
X60124452Y-95173402D01*
X60124452Y-95173402D02*
X60076833Y-95221021D01*
X60076833Y-95221021D02*
X59981595Y-95363878D01*
X59981595Y-95363878D02*
X59933976Y-95554354D01*
X59933976Y-95554354D02*
X59933976Y-95935306D01*
X59933976Y-95935306D02*
X59981595Y-96030544D01*
X59981595Y-96030544D02*
X60029214Y-96078163D01*
X60029214Y-96078163D02*
X60124452Y-96125782D01*
X60124452Y-96125782D02*
X60314928Y-96125782D01*
X60314928Y-96125782D02*
X60410166Y-96078163D01*
X60410166Y-96078163D02*
X60457785Y-96030544D01*
X60457785Y-96030544D02*
X60505404Y-95935306D01*
X60505404Y-95935306D02*
X60505404Y-95697211D01*
X60505404Y-95697211D02*
X60457785Y-95601973D01*
X60457785Y-95601973D02*
X60410166Y-95554354D01*
X60410166Y-95554354D02*
X60314928Y-95506735D01*
X60314928Y-95506735D02*
X60124452Y-95506735D01*
X60124452Y-95506735D02*
X60029214Y-95554354D01*
X60029214Y-95554354D02*
X59981595Y-95601973D01*
X59981595Y-95601973D02*
X59933976Y-95697211D01*
D10*
%TO.C,C36*%
X34872142Y-85692857D02*
X34919761Y-85740476D01*
X34919761Y-85740476D02*
X34967380Y-85883333D01*
X34967380Y-85883333D02*
X34967380Y-85978571D01*
X34967380Y-85978571D02*
X34919761Y-86121428D01*
X34919761Y-86121428D02*
X34824523Y-86216666D01*
X34824523Y-86216666D02*
X34729285Y-86264285D01*
X34729285Y-86264285D02*
X34538809Y-86311904D01*
X34538809Y-86311904D02*
X34395952Y-86311904D01*
X34395952Y-86311904D02*
X34205476Y-86264285D01*
X34205476Y-86264285D02*
X34110238Y-86216666D01*
X34110238Y-86216666D02*
X34015000Y-86121428D01*
X34015000Y-86121428D02*
X33967380Y-85978571D01*
X33967380Y-85978571D02*
X33967380Y-85883333D01*
X33967380Y-85883333D02*
X34015000Y-85740476D01*
X34015000Y-85740476D02*
X34062619Y-85692857D01*
X33967380Y-85359523D02*
X33967380Y-84740476D01*
X33967380Y-84740476D02*
X34348333Y-85073809D01*
X34348333Y-85073809D02*
X34348333Y-84930952D01*
X34348333Y-84930952D02*
X34395952Y-84835714D01*
X34395952Y-84835714D02*
X34443571Y-84788095D01*
X34443571Y-84788095D02*
X34538809Y-84740476D01*
X34538809Y-84740476D02*
X34776904Y-84740476D01*
X34776904Y-84740476D02*
X34872142Y-84788095D01*
X34872142Y-84788095D02*
X34919761Y-84835714D01*
X34919761Y-84835714D02*
X34967380Y-84930952D01*
X34967380Y-84930952D02*
X34967380Y-85216666D01*
X34967380Y-85216666D02*
X34919761Y-85311904D01*
X34919761Y-85311904D02*
X34872142Y-85359523D01*
X33967380Y-83883333D02*
X33967380Y-84073809D01*
X33967380Y-84073809D02*
X34015000Y-84169047D01*
X34015000Y-84169047D02*
X34062619Y-84216666D01*
X34062619Y-84216666D02*
X34205476Y-84311904D01*
X34205476Y-84311904D02*
X34395952Y-84359523D01*
X34395952Y-84359523D02*
X34776904Y-84359523D01*
X34776904Y-84359523D02*
X34872142Y-84311904D01*
X34872142Y-84311904D02*
X34919761Y-84264285D01*
X34919761Y-84264285D02*
X34967380Y-84169047D01*
X34967380Y-84169047D02*
X34967380Y-83978571D01*
X34967380Y-83978571D02*
X34919761Y-83883333D01*
X34919761Y-83883333D02*
X34872142Y-83835714D01*
X34872142Y-83835714D02*
X34776904Y-83788095D01*
X34776904Y-83788095D02*
X34538809Y-83788095D01*
X34538809Y-83788095D02*
X34443571Y-83835714D01*
X34443571Y-83835714D02*
X34395952Y-83883333D01*
X34395952Y-83883333D02*
X34348333Y-83978571D01*
X34348333Y-83978571D02*
X34348333Y-84169047D01*
X34348333Y-84169047D02*
X34395952Y-84264285D01*
X34395952Y-84264285D02*
X34443571Y-84311904D01*
X34443571Y-84311904D02*
X34538809Y-84359523D01*
D11*
%TO.C,C24*%
X35828571Y-58525286D02*
X35804762Y-58549095D01*
X35804762Y-58549095D02*
X35733333Y-58572905D01*
X35733333Y-58572905D02*
X35685714Y-58572905D01*
X35685714Y-58572905D02*
X35614286Y-58549095D01*
X35614286Y-58549095D02*
X35566667Y-58501476D01*
X35566667Y-58501476D02*
X35542857Y-58453857D01*
X35542857Y-58453857D02*
X35519048Y-58358619D01*
X35519048Y-58358619D02*
X35519048Y-58287191D01*
X35519048Y-58287191D02*
X35542857Y-58191953D01*
X35542857Y-58191953D02*
X35566667Y-58144334D01*
X35566667Y-58144334D02*
X35614286Y-58096715D01*
X35614286Y-58096715D02*
X35685714Y-58072905D01*
X35685714Y-58072905D02*
X35733333Y-58072905D01*
X35733333Y-58072905D02*
X35804762Y-58096715D01*
X35804762Y-58096715D02*
X35828571Y-58120524D01*
X36019048Y-58120524D02*
X36042857Y-58096715D01*
X36042857Y-58096715D02*
X36090476Y-58072905D01*
X36090476Y-58072905D02*
X36209524Y-58072905D01*
X36209524Y-58072905D02*
X36257143Y-58096715D01*
X36257143Y-58096715D02*
X36280952Y-58120524D01*
X36280952Y-58120524D02*
X36304762Y-58168143D01*
X36304762Y-58168143D02*
X36304762Y-58215762D01*
X36304762Y-58215762D02*
X36280952Y-58287191D01*
X36280952Y-58287191D02*
X35995238Y-58572905D01*
X35995238Y-58572905D02*
X36304762Y-58572905D01*
X36733333Y-58239572D02*
X36733333Y-58572905D01*
X36614285Y-58049095D02*
X36495238Y-58406238D01*
X36495238Y-58406238D02*
X36804761Y-58406238D01*
D10*
%TO.C,C5*%
X56838285Y-68049999D02*
X56866857Y-68078571D01*
X56866857Y-68078571D02*
X56895428Y-68164285D01*
X56895428Y-68164285D02*
X56895428Y-68221428D01*
X56895428Y-68221428D02*
X56866857Y-68307142D01*
X56866857Y-68307142D02*
X56809714Y-68364285D01*
X56809714Y-68364285D02*
X56752571Y-68392856D01*
X56752571Y-68392856D02*
X56638285Y-68421428D01*
X56638285Y-68421428D02*
X56552571Y-68421428D01*
X56552571Y-68421428D02*
X56438285Y-68392856D01*
X56438285Y-68392856D02*
X56381142Y-68364285D01*
X56381142Y-68364285D02*
X56324000Y-68307142D01*
X56324000Y-68307142D02*
X56295428Y-68221428D01*
X56295428Y-68221428D02*
X56295428Y-68164285D01*
X56295428Y-68164285D02*
X56324000Y-68078571D01*
X56324000Y-68078571D02*
X56352571Y-68049999D01*
X56295428Y-67507142D02*
X56295428Y-67792856D01*
X56295428Y-67792856D02*
X56581142Y-67821428D01*
X56581142Y-67821428D02*
X56552571Y-67792856D01*
X56552571Y-67792856D02*
X56524000Y-67735714D01*
X56524000Y-67735714D02*
X56524000Y-67592856D01*
X56524000Y-67592856D02*
X56552571Y-67535714D01*
X56552571Y-67535714D02*
X56581142Y-67507142D01*
X56581142Y-67507142D02*
X56638285Y-67478571D01*
X56638285Y-67478571D02*
X56781142Y-67478571D01*
X56781142Y-67478571D02*
X56838285Y-67507142D01*
X56838285Y-67507142D02*
X56866857Y-67535714D01*
X56866857Y-67535714D02*
X56895428Y-67592856D01*
X56895428Y-67592856D02*
X56895428Y-67735714D01*
X56895428Y-67735714D02*
X56866857Y-67792856D01*
X56866857Y-67792856D02*
X56838285Y-67821428D01*
%TO.C,CANTXLED1*%
X36550000Y-64138285D02*
X36521428Y-64166857D01*
X36521428Y-64166857D02*
X36435714Y-64195428D01*
X36435714Y-64195428D02*
X36378571Y-64195428D01*
X36378571Y-64195428D02*
X36292857Y-64166857D01*
X36292857Y-64166857D02*
X36235714Y-64109714D01*
X36235714Y-64109714D02*
X36207143Y-64052571D01*
X36207143Y-64052571D02*
X36178571Y-63938285D01*
X36178571Y-63938285D02*
X36178571Y-63852571D01*
X36178571Y-63852571D02*
X36207143Y-63738285D01*
X36207143Y-63738285D02*
X36235714Y-63681142D01*
X36235714Y-63681142D02*
X36292857Y-63624000D01*
X36292857Y-63624000D02*
X36378571Y-63595428D01*
X36378571Y-63595428D02*
X36435714Y-63595428D01*
X36435714Y-63595428D02*
X36521428Y-63624000D01*
X36521428Y-63624000D02*
X36550000Y-63652571D01*
X36778571Y-64024000D02*
X37064286Y-64024000D01*
X36721428Y-64195428D02*
X36921428Y-63595428D01*
X36921428Y-63595428D02*
X37121428Y-64195428D01*
X37321429Y-64195428D02*
X37321429Y-63595428D01*
X37321429Y-63595428D02*
X37664286Y-64195428D01*
X37664286Y-64195428D02*
X37664286Y-63595428D01*
X37864285Y-63595428D02*
X38207143Y-63595428D01*
X38035714Y-64195428D02*
X38035714Y-63595428D01*
X38350000Y-63595428D02*
X38750000Y-64195428D01*
X38750000Y-63595428D02*
X38350000Y-64195428D01*
D12*
%TO.C,C49*%
X58599999Y-88590500D02*
X58566666Y-88623833D01*
X58566666Y-88623833D02*
X58466666Y-88657166D01*
X58466666Y-88657166D02*
X58399999Y-88657166D01*
X58399999Y-88657166D02*
X58299999Y-88623833D01*
X58299999Y-88623833D02*
X58233333Y-88557166D01*
X58233333Y-88557166D02*
X58199999Y-88490500D01*
X58199999Y-88490500D02*
X58166666Y-88357166D01*
X58166666Y-88357166D02*
X58166666Y-88257166D01*
X58166666Y-88257166D02*
X58199999Y-88123833D01*
X58199999Y-88123833D02*
X58233333Y-88057166D01*
X58233333Y-88057166D02*
X58299999Y-87990500D01*
X58299999Y-87990500D02*
X58399999Y-87957166D01*
X58399999Y-87957166D02*
X58466666Y-87957166D01*
X58466666Y-87957166D02*
X58566666Y-87990500D01*
X58566666Y-87990500D02*
X58599999Y-88023833D01*
X59199999Y-88190500D02*
X59199999Y-88657166D01*
X59033333Y-87923833D02*
X58866666Y-88423833D01*
X58866666Y-88423833D02*
X59299999Y-88423833D01*
X59600000Y-88657166D02*
X59733333Y-88657166D01*
X59733333Y-88657166D02*
X59800000Y-88623833D01*
X59800000Y-88623833D02*
X59833333Y-88590500D01*
X59833333Y-88590500D02*
X59900000Y-88490500D01*
X59900000Y-88490500D02*
X59933333Y-88357166D01*
X59933333Y-88357166D02*
X59933333Y-88090500D01*
X59933333Y-88090500D02*
X59900000Y-88023833D01*
X59900000Y-88023833D02*
X59866666Y-87990500D01*
X59866666Y-87990500D02*
X59800000Y-87957166D01*
X59800000Y-87957166D02*
X59666666Y-87957166D01*
X59666666Y-87957166D02*
X59600000Y-87990500D01*
X59600000Y-87990500D02*
X59566666Y-88023833D01*
X59566666Y-88023833D02*
X59533333Y-88090500D01*
X59533333Y-88090500D02*
X59533333Y-88257166D01*
X59533333Y-88257166D02*
X59566666Y-88323833D01*
X59566666Y-88323833D02*
X59600000Y-88357166D01*
X59600000Y-88357166D02*
X59666666Y-88390500D01*
X59666666Y-88390500D02*
X59800000Y-88390500D01*
X59800000Y-88390500D02*
X59866666Y-88357166D01*
X59866666Y-88357166D02*
X59900000Y-88323833D01*
X59900000Y-88323833D02*
X59933333Y-88257166D01*
D10*
%TO.C,L2*%
X49840428Y-66649999D02*
X49840428Y-66935713D01*
X49840428Y-66935713D02*
X49240428Y-66935713D01*
X49297571Y-66478571D02*
X49269000Y-66449999D01*
X49269000Y-66449999D02*
X49240428Y-66392857D01*
X49240428Y-66392857D02*
X49240428Y-66249999D01*
X49240428Y-66249999D02*
X49269000Y-66192857D01*
X49269000Y-66192857D02*
X49297571Y-66164285D01*
X49297571Y-66164285D02*
X49354714Y-66135714D01*
X49354714Y-66135714D02*
X49411857Y-66135714D01*
X49411857Y-66135714D02*
X49497571Y-66164285D01*
X49497571Y-66164285D02*
X49840428Y-66507142D01*
X49840428Y-66507142D02*
X49840428Y-66135714D01*
%TO.C,R35*%
X48610428Y-75565714D02*
X48324714Y-75765714D01*
X48610428Y-75908571D02*
X48010428Y-75908571D01*
X48010428Y-75908571D02*
X48010428Y-75680000D01*
X48010428Y-75680000D02*
X48039000Y-75622857D01*
X48039000Y-75622857D02*
X48067571Y-75594286D01*
X48067571Y-75594286D02*
X48124714Y-75565714D01*
X48124714Y-75565714D02*
X48210428Y-75565714D01*
X48210428Y-75565714D02*
X48267571Y-75594286D01*
X48267571Y-75594286D02*
X48296142Y-75622857D01*
X48296142Y-75622857D02*
X48324714Y-75680000D01*
X48324714Y-75680000D02*
X48324714Y-75908571D01*
X48010428Y-75365714D02*
X48010428Y-74994286D01*
X48010428Y-74994286D02*
X48239000Y-75194286D01*
X48239000Y-75194286D02*
X48239000Y-75108571D01*
X48239000Y-75108571D02*
X48267571Y-75051429D01*
X48267571Y-75051429D02*
X48296142Y-75022857D01*
X48296142Y-75022857D02*
X48353285Y-74994286D01*
X48353285Y-74994286D02*
X48496142Y-74994286D01*
X48496142Y-74994286D02*
X48553285Y-75022857D01*
X48553285Y-75022857D02*
X48581857Y-75051429D01*
X48581857Y-75051429D02*
X48610428Y-75108571D01*
X48610428Y-75108571D02*
X48610428Y-75280000D01*
X48610428Y-75280000D02*
X48581857Y-75337143D01*
X48581857Y-75337143D02*
X48553285Y-75365714D01*
X48010428Y-74451428D02*
X48010428Y-74737142D01*
X48010428Y-74737142D02*
X48296142Y-74765714D01*
X48296142Y-74765714D02*
X48267571Y-74737142D01*
X48267571Y-74737142D02*
X48239000Y-74680000D01*
X48239000Y-74680000D02*
X48239000Y-74537142D01*
X48239000Y-74537142D02*
X48267571Y-74480000D01*
X48267571Y-74480000D02*
X48296142Y-74451428D01*
X48296142Y-74451428D02*
X48353285Y-74422857D01*
X48353285Y-74422857D02*
X48496142Y-74422857D01*
X48496142Y-74422857D02*
X48553285Y-74451428D01*
X48553285Y-74451428D02*
X48581857Y-74480000D01*
X48581857Y-74480000D02*
X48610428Y-74537142D01*
X48610428Y-74537142D02*
X48610428Y-74680000D01*
X48610428Y-74680000D02*
X48581857Y-74737142D01*
X48581857Y-74737142D02*
X48553285Y-74765714D01*
D11*
%TO.C,R14*%
X40203690Y-43361428D02*
X39965595Y-43528094D01*
X40203690Y-43647142D02*
X39703690Y-43647142D01*
X39703690Y-43647142D02*
X39703690Y-43456666D01*
X39703690Y-43456666D02*
X39727500Y-43409047D01*
X39727500Y-43409047D02*
X39751309Y-43385237D01*
X39751309Y-43385237D02*
X39798928Y-43361428D01*
X39798928Y-43361428D02*
X39870357Y-43361428D01*
X39870357Y-43361428D02*
X39917976Y-43385237D01*
X39917976Y-43385237D02*
X39941785Y-43409047D01*
X39941785Y-43409047D02*
X39965595Y-43456666D01*
X39965595Y-43456666D02*
X39965595Y-43647142D01*
X40203690Y-42885237D02*
X40203690Y-43170951D01*
X40203690Y-43028094D02*
X39703690Y-43028094D01*
X39703690Y-43028094D02*
X39775119Y-43075713D01*
X39775119Y-43075713D02*
X39822738Y-43123332D01*
X39822738Y-43123332D02*
X39846547Y-43170951D01*
X39870357Y-42456666D02*
X40203690Y-42456666D01*
X39679880Y-42575714D02*
X40037023Y-42694761D01*
X40037023Y-42694761D02*
X40037023Y-42385238D01*
D14*
%TO.C,USBLED1*%
X44296952Y-55322618D02*
X44620761Y-55322618D01*
X44620761Y-55322618D02*
X44658857Y-55303571D01*
X44658857Y-55303571D02*
X44677904Y-55284523D01*
X44677904Y-55284523D02*
X44696952Y-55246428D01*
X44696952Y-55246428D02*
X44696952Y-55170237D01*
X44696952Y-55170237D02*
X44677904Y-55132142D01*
X44677904Y-55132142D02*
X44658857Y-55113095D01*
X44658857Y-55113095D02*
X44620761Y-55094047D01*
X44620761Y-55094047D02*
X44296952Y-55094047D01*
X44677904Y-54922618D02*
X44696952Y-54865475D01*
X44696952Y-54865475D02*
X44696952Y-54770237D01*
X44696952Y-54770237D02*
X44677904Y-54732142D01*
X44677904Y-54732142D02*
X44658857Y-54713094D01*
X44658857Y-54713094D02*
X44620761Y-54694047D01*
X44620761Y-54694047D02*
X44582666Y-54694047D01*
X44582666Y-54694047D02*
X44544571Y-54713094D01*
X44544571Y-54713094D02*
X44525523Y-54732142D01*
X44525523Y-54732142D02*
X44506476Y-54770237D01*
X44506476Y-54770237D02*
X44487428Y-54846428D01*
X44487428Y-54846428D02*
X44468380Y-54884523D01*
X44468380Y-54884523D02*
X44449333Y-54903570D01*
X44449333Y-54903570D02*
X44411238Y-54922618D01*
X44411238Y-54922618D02*
X44373142Y-54922618D01*
X44373142Y-54922618D02*
X44335047Y-54903570D01*
X44335047Y-54903570D02*
X44316000Y-54884523D01*
X44316000Y-54884523D02*
X44296952Y-54846428D01*
X44296952Y-54846428D02*
X44296952Y-54751189D01*
X44296952Y-54751189D02*
X44316000Y-54694047D01*
X44487428Y-54389285D02*
X44506476Y-54332142D01*
X44506476Y-54332142D02*
X44525523Y-54313095D01*
X44525523Y-54313095D02*
X44563619Y-54294047D01*
X44563619Y-54294047D02*
X44620761Y-54294047D01*
X44620761Y-54294047D02*
X44658857Y-54313095D01*
X44658857Y-54313095D02*
X44677904Y-54332142D01*
X44677904Y-54332142D02*
X44696952Y-54370237D01*
X44696952Y-54370237D02*
X44696952Y-54522618D01*
X44696952Y-54522618D02*
X44296952Y-54522618D01*
X44296952Y-54522618D02*
X44296952Y-54389285D01*
X44296952Y-54389285D02*
X44316000Y-54351190D01*
X44316000Y-54351190D02*
X44335047Y-54332142D01*
X44335047Y-54332142D02*
X44373142Y-54313095D01*
X44373142Y-54313095D02*
X44411238Y-54313095D01*
X44411238Y-54313095D02*
X44449333Y-54332142D01*
X44449333Y-54332142D02*
X44468380Y-54351190D01*
X44468380Y-54351190D02*
X44487428Y-54389285D01*
X44487428Y-54389285D02*
X44487428Y-54522618D01*
X44696952Y-53932142D02*
X44696952Y-54122618D01*
X44696952Y-54122618D02*
X44296952Y-54122618D01*
X44487428Y-53798808D02*
X44487428Y-53665475D01*
X44696952Y-53608332D02*
X44696952Y-53798808D01*
X44696952Y-53798808D02*
X44296952Y-53798808D01*
X44296952Y-53798808D02*
X44296952Y-53608332D01*
X44696952Y-53436903D02*
X44296952Y-53436903D01*
X44296952Y-53436903D02*
X44296952Y-53341665D01*
X44296952Y-53341665D02*
X44316000Y-53284522D01*
X44316000Y-53284522D02*
X44354095Y-53246427D01*
X44354095Y-53246427D02*
X44392190Y-53227380D01*
X44392190Y-53227380D02*
X44468380Y-53208332D01*
X44468380Y-53208332D02*
X44525523Y-53208332D01*
X44525523Y-53208332D02*
X44601714Y-53227380D01*
X44601714Y-53227380D02*
X44639809Y-53246427D01*
X44639809Y-53246427D02*
X44677904Y-53284522D01*
X44677904Y-53284522D02*
X44696952Y-53341665D01*
X44696952Y-53341665D02*
X44696952Y-53436903D01*
D12*
%TO.C,C35*%
X52287176Y-100167871D02*
X52241642Y-100155670D01*
X52241642Y-100155670D02*
X52162775Y-100085734D01*
X52162775Y-100085734D02*
X52129441Y-100027999D01*
X52129441Y-100027999D02*
X52108309Y-99924730D01*
X52108309Y-99924730D02*
X52132711Y-99833661D01*
X52132711Y-99833661D02*
X52173779Y-99771461D01*
X52173779Y-99771461D02*
X52272582Y-99675926D01*
X52272582Y-99675926D02*
X52359185Y-99625926D01*
X52359185Y-99625926D02*
X52491322Y-99588127D01*
X52491322Y-99588127D02*
X52565723Y-99583661D01*
X52565723Y-99583661D02*
X52656792Y-99608063D01*
X52656792Y-99608063D02*
X52735659Y-99677999D01*
X52735659Y-99677999D02*
X52768993Y-99735734D01*
X52768993Y-99735734D02*
X52790125Y-99839003D01*
X52790125Y-99839003D02*
X52777924Y-99884537D01*
X52952326Y-100053277D02*
X53168993Y-100428554D01*
X53168993Y-100428554D02*
X52821386Y-100359815D01*
X52821386Y-100359815D02*
X52871386Y-100446418D01*
X52871386Y-100446418D02*
X52875852Y-100520819D01*
X52875852Y-100520819D02*
X52863651Y-100566354D01*
X52863651Y-100566354D02*
X52822582Y-100628554D01*
X52822582Y-100628554D02*
X52678245Y-100711888D01*
X52678245Y-100711888D02*
X52603843Y-100716354D01*
X52603843Y-100716354D02*
X52558309Y-100704153D01*
X52558309Y-100704153D02*
X52496108Y-100663084D01*
X52496108Y-100663084D02*
X52396108Y-100489879D01*
X52396108Y-100489879D02*
X52391642Y-100415478D01*
X52391642Y-100415478D02*
X52403843Y-100369943D01*
X53485659Y-100977037D02*
X53318993Y-100688362D01*
X53318993Y-100688362D02*
X53013651Y-100826161D01*
X53013651Y-100826161D02*
X53059185Y-100838362D01*
X53059185Y-100838362D02*
X53121386Y-100879431D01*
X53121386Y-100879431D02*
X53204719Y-101023768D01*
X53204719Y-101023768D02*
X53209185Y-101098170D01*
X53209185Y-101098170D02*
X53196984Y-101143704D01*
X53196984Y-101143704D02*
X53155916Y-101205905D01*
X53155916Y-101205905D02*
X53011578Y-101289238D01*
X53011578Y-101289238D02*
X52937177Y-101293704D01*
X52937177Y-101293704D02*
X52891642Y-101281503D01*
X52891642Y-101281503D02*
X52829442Y-101240435D01*
X52829442Y-101240435D02*
X52746108Y-101096097D01*
X52746108Y-101096097D02*
X52741642Y-101021696D01*
X52741642Y-101021696D02*
X52753843Y-100976161D01*
%TO.C,R23*%
X47147166Y-83170000D02*
X46813833Y-83403333D01*
X47147166Y-83570000D02*
X46447166Y-83570000D01*
X46447166Y-83570000D02*
X46447166Y-83303333D01*
X46447166Y-83303333D02*
X46480500Y-83236667D01*
X46480500Y-83236667D02*
X46513833Y-83203333D01*
X46513833Y-83203333D02*
X46580500Y-83170000D01*
X46580500Y-83170000D02*
X46680500Y-83170000D01*
X46680500Y-83170000D02*
X46747166Y-83203333D01*
X46747166Y-83203333D02*
X46780500Y-83236667D01*
X46780500Y-83236667D02*
X46813833Y-83303333D01*
X46813833Y-83303333D02*
X46813833Y-83570000D01*
X46513833Y-82903333D02*
X46480500Y-82870000D01*
X46480500Y-82870000D02*
X46447166Y-82803333D01*
X46447166Y-82803333D02*
X46447166Y-82636667D01*
X46447166Y-82636667D02*
X46480500Y-82570000D01*
X46480500Y-82570000D02*
X46513833Y-82536667D01*
X46513833Y-82536667D02*
X46580500Y-82503333D01*
X46580500Y-82503333D02*
X46647166Y-82503333D01*
X46647166Y-82503333D02*
X46747166Y-82536667D01*
X46747166Y-82536667D02*
X47147166Y-82936667D01*
X47147166Y-82936667D02*
X47147166Y-82503333D01*
X46447166Y-82270000D02*
X46447166Y-81836666D01*
X46447166Y-81836666D02*
X46713833Y-82070000D01*
X46713833Y-82070000D02*
X46713833Y-81970000D01*
X46713833Y-81970000D02*
X46747166Y-81903333D01*
X46747166Y-81903333D02*
X46780500Y-81870000D01*
X46780500Y-81870000D02*
X46847166Y-81836666D01*
X46847166Y-81836666D02*
X47013833Y-81836666D01*
X47013833Y-81836666D02*
X47080500Y-81870000D01*
X47080500Y-81870000D02*
X47113833Y-81903333D01*
X47113833Y-81903333D02*
X47147166Y-81970000D01*
X47147166Y-81970000D02*
X47147166Y-82170000D01*
X47147166Y-82170000D02*
X47113833Y-82236666D01*
X47113833Y-82236666D02*
X47080500Y-82270000D01*
D10*
%TO.C,TP7*%
X44196428Y-50595428D02*
X44396428Y-51195428D01*
X44396428Y-51195428D02*
X44596428Y-50595428D01*
X44996429Y-50881142D02*
X45082143Y-50909714D01*
X45082143Y-50909714D02*
X45110714Y-50938285D01*
X45110714Y-50938285D02*
X45139286Y-50995428D01*
X45139286Y-50995428D02*
X45139286Y-51081142D01*
X45139286Y-51081142D02*
X45110714Y-51138285D01*
X45110714Y-51138285D02*
X45082143Y-51166857D01*
X45082143Y-51166857D02*
X45025000Y-51195428D01*
X45025000Y-51195428D02*
X44796429Y-51195428D01*
X44796429Y-51195428D02*
X44796429Y-50595428D01*
X44796429Y-50595428D02*
X44996429Y-50595428D01*
X44996429Y-50595428D02*
X45053572Y-50624000D01*
X45053572Y-50624000D02*
X45082143Y-50652571D01*
X45082143Y-50652571D02*
X45110714Y-50709714D01*
X45110714Y-50709714D02*
X45110714Y-50766857D01*
X45110714Y-50766857D02*
X45082143Y-50824000D01*
X45082143Y-50824000D02*
X45053572Y-50852571D01*
X45053572Y-50852571D02*
X44996429Y-50881142D01*
X44996429Y-50881142D02*
X44796429Y-50881142D01*
X45396429Y-50595428D02*
X45396429Y-51081142D01*
X45396429Y-51081142D02*
X45425000Y-51138285D01*
X45425000Y-51138285D02*
X45453572Y-51166857D01*
X45453572Y-51166857D02*
X45510714Y-51195428D01*
X45510714Y-51195428D02*
X45625000Y-51195428D01*
X45625000Y-51195428D02*
X45682143Y-51166857D01*
X45682143Y-51166857D02*
X45710714Y-51138285D01*
X45710714Y-51138285D02*
X45739286Y-51081142D01*
X45739286Y-51081142D02*
X45739286Y-50595428D01*
X45996428Y-51166857D02*
X46082143Y-51195428D01*
X46082143Y-51195428D02*
X46225000Y-51195428D01*
X46225000Y-51195428D02*
X46282143Y-51166857D01*
X46282143Y-51166857D02*
X46310714Y-51138285D01*
X46310714Y-51138285D02*
X46339285Y-51081142D01*
X46339285Y-51081142D02*
X46339285Y-51024000D01*
X46339285Y-51024000D02*
X46310714Y-50966857D01*
X46310714Y-50966857D02*
X46282143Y-50938285D01*
X46282143Y-50938285D02*
X46225000Y-50909714D01*
X46225000Y-50909714D02*
X46110714Y-50881142D01*
X46110714Y-50881142D02*
X46053571Y-50852571D01*
X46053571Y-50852571D02*
X46025000Y-50824000D01*
X46025000Y-50824000D02*
X45996428Y-50766857D01*
X45996428Y-50766857D02*
X45996428Y-50709714D01*
X45996428Y-50709714D02*
X46025000Y-50652571D01*
X46025000Y-50652571D02*
X46053571Y-50624000D01*
X46053571Y-50624000D02*
X46110714Y-50595428D01*
X46110714Y-50595428D02*
X46253571Y-50595428D01*
X46253571Y-50595428D02*
X46339285Y-50624000D01*
X46510714Y-50595428D02*
X46853572Y-50595428D01*
X46682143Y-51195428D02*
X46682143Y-50595428D01*
X47053572Y-51195428D02*
X47053572Y-50595428D01*
X47053572Y-50595428D02*
X47282143Y-50595428D01*
X47282143Y-50595428D02*
X47339286Y-50624000D01*
X47339286Y-50624000D02*
X47367857Y-50652571D01*
X47367857Y-50652571D02*
X47396429Y-50709714D01*
X47396429Y-50709714D02*
X47396429Y-50795428D01*
X47396429Y-50795428D02*
X47367857Y-50852571D01*
X47367857Y-50852571D02*
X47339286Y-50881142D01*
X47339286Y-50881142D02*
X47282143Y-50909714D01*
X47282143Y-50909714D02*
X47053572Y-50909714D01*
D11*
%TO.C,U3*%
X43483690Y-43270952D02*
X43888452Y-43270952D01*
X43888452Y-43270952D02*
X43936071Y-43247142D01*
X43936071Y-43247142D02*
X43959880Y-43223333D01*
X43959880Y-43223333D02*
X43983690Y-43175714D01*
X43983690Y-43175714D02*
X43983690Y-43080476D01*
X43983690Y-43080476D02*
X43959880Y-43032857D01*
X43959880Y-43032857D02*
X43936071Y-43009047D01*
X43936071Y-43009047D02*
X43888452Y-42985238D01*
X43888452Y-42985238D02*
X43483690Y-42985238D01*
X43483690Y-42794761D02*
X43483690Y-42485237D01*
X43483690Y-42485237D02*
X43674166Y-42651904D01*
X43674166Y-42651904D02*
X43674166Y-42580475D01*
X43674166Y-42580475D02*
X43697976Y-42532856D01*
X43697976Y-42532856D02*
X43721785Y-42509047D01*
X43721785Y-42509047D02*
X43769404Y-42485237D01*
X43769404Y-42485237D02*
X43888452Y-42485237D01*
X43888452Y-42485237D02*
X43936071Y-42509047D01*
X43936071Y-42509047D02*
X43959880Y-42532856D01*
X43959880Y-42532856D02*
X43983690Y-42580475D01*
X43983690Y-42580475D02*
X43983690Y-42723332D01*
X43983690Y-42723332D02*
X43959880Y-42770951D01*
X43959880Y-42770951D02*
X43936071Y-42794761D01*
D12*
%TO.C,C33*%
X54949999Y-88390500D02*
X54916666Y-88423833D01*
X54916666Y-88423833D02*
X54816666Y-88457166D01*
X54816666Y-88457166D02*
X54749999Y-88457166D01*
X54749999Y-88457166D02*
X54649999Y-88423833D01*
X54649999Y-88423833D02*
X54583333Y-88357166D01*
X54583333Y-88357166D02*
X54549999Y-88290500D01*
X54549999Y-88290500D02*
X54516666Y-88157166D01*
X54516666Y-88157166D02*
X54516666Y-88057166D01*
X54516666Y-88057166D02*
X54549999Y-87923833D01*
X54549999Y-87923833D02*
X54583333Y-87857166D01*
X54583333Y-87857166D02*
X54649999Y-87790500D01*
X54649999Y-87790500D02*
X54749999Y-87757166D01*
X54749999Y-87757166D02*
X54816666Y-87757166D01*
X54816666Y-87757166D02*
X54916666Y-87790500D01*
X54916666Y-87790500D02*
X54949999Y-87823833D01*
X55183333Y-87757166D02*
X55616666Y-87757166D01*
X55616666Y-87757166D02*
X55383333Y-88023833D01*
X55383333Y-88023833D02*
X55483333Y-88023833D01*
X55483333Y-88023833D02*
X55549999Y-88057166D01*
X55549999Y-88057166D02*
X55583333Y-88090500D01*
X55583333Y-88090500D02*
X55616666Y-88157166D01*
X55616666Y-88157166D02*
X55616666Y-88323833D01*
X55616666Y-88323833D02*
X55583333Y-88390500D01*
X55583333Y-88390500D02*
X55549999Y-88423833D01*
X55549999Y-88423833D02*
X55483333Y-88457166D01*
X55483333Y-88457166D02*
X55283333Y-88457166D01*
X55283333Y-88457166D02*
X55216666Y-88423833D01*
X55216666Y-88423833D02*
X55183333Y-88390500D01*
X55850000Y-87757166D02*
X56283333Y-87757166D01*
X56283333Y-87757166D02*
X56050000Y-88023833D01*
X56050000Y-88023833D02*
X56150000Y-88023833D01*
X56150000Y-88023833D02*
X56216666Y-88057166D01*
X56216666Y-88057166D02*
X56250000Y-88090500D01*
X56250000Y-88090500D02*
X56283333Y-88157166D01*
X56283333Y-88157166D02*
X56283333Y-88323833D01*
X56283333Y-88323833D02*
X56250000Y-88390500D01*
X56250000Y-88390500D02*
X56216666Y-88423833D01*
X56216666Y-88423833D02*
X56150000Y-88457166D01*
X56150000Y-88457166D02*
X55950000Y-88457166D01*
X55950000Y-88457166D02*
X55883333Y-88423833D01*
X55883333Y-88423833D02*
X55850000Y-88390500D01*
D11*
%TO.C,L3*%
X38091666Y-46558690D02*
X37853571Y-46558690D01*
X37853571Y-46558690D02*
X37853571Y-46058690D01*
X38210714Y-46058690D02*
X38520238Y-46058690D01*
X38520238Y-46058690D02*
X38353571Y-46249166D01*
X38353571Y-46249166D02*
X38425000Y-46249166D01*
X38425000Y-46249166D02*
X38472619Y-46272976D01*
X38472619Y-46272976D02*
X38496428Y-46296785D01*
X38496428Y-46296785D02*
X38520238Y-46344404D01*
X38520238Y-46344404D02*
X38520238Y-46463452D01*
X38520238Y-46463452D02*
X38496428Y-46511071D01*
X38496428Y-46511071D02*
X38472619Y-46534880D01*
X38472619Y-46534880D02*
X38425000Y-46558690D01*
X38425000Y-46558690D02*
X38282143Y-46558690D01*
X38282143Y-46558690D02*
X38234524Y-46534880D01*
X38234524Y-46534880D02*
X38210714Y-46511071D01*
D10*
%TO.C,J3*%
X53816857Y-75294285D02*
X53845428Y-75208571D01*
X53845428Y-75208571D02*
X53845428Y-75065713D01*
X53845428Y-75065713D02*
X53816857Y-75008571D01*
X53816857Y-75008571D02*
X53788285Y-74979999D01*
X53788285Y-74979999D02*
X53731142Y-74951428D01*
X53731142Y-74951428D02*
X53674000Y-74951428D01*
X53674000Y-74951428D02*
X53616857Y-74979999D01*
X53616857Y-74979999D02*
X53588285Y-75008571D01*
X53588285Y-75008571D02*
X53559714Y-75065713D01*
X53559714Y-75065713D02*
X53531142Y-75179999D01*
X53531142Y-75179999D02*
X53502571Y-75237142D01*
X53502571Y-75237142D02*
X53474000Y-75265713D01*
X53474000Y-75265713D02*
X53416857Y-75294285D01*
X53416857Y-75294285D02*
X53359714Y-75294285D01*
X53359714Y-75294285D02*
X53302571Y-75265713D01*
X53302571Y-75265713D02*
X53274000Y-75237142D01*
X53274000Y-75237142D02*
X53245428Y-75179999D01*
X53245428Y-75179999D02*
X53245428Y-75037142D01*
X53245428Y-75037142D02*
X53274000Y-74951428D01*
X53531142Y-74694284D02*
X53531142Y-74494284D01*
X53845428Y-74408570D02*
X53845428Y-74694284D01*
X53845428Y-74694284D02*
X53245428Y-74694284D01*
X53245428Y-74694284D02*
X53245428Y-74408570D01*
X53845428Y-73808570D02*
X53559714Y-74008570D01*
X53845428Y-74151427D02*
X53245428Y-74151427D01*
X53245428Y-74151427D02*
X53245428Y-73922856D01*
X53245428Y-73922856D02*
X53274000Y-73865713D01*
X53274000Y-73865713D02*
X53302571Y-73837142D01*
X53302571Y-73837142D02*
X53359714Y-73808570D01*
X53359714Y-73808570D02*
X53445428Y-73808570D01*
X53445428Y-73808570D02*
X53502571Y-73837142D01*
X53502571Y-73837142D02*
X53531142Y-73865713D01*
X53531142Y-73865713D02*
X53559714Y-73922856D01*
X53559714Y-73922856D02*
X53559714Y-74151427D01*
X53245428Y-73637142D02*
X53845428Y-73437142D01*
X53845428Y-73437142D02*
X53245428Y-73237142D01*
X53245428Y-72922856D02*
X53245428Y-72808570D01*
X53245428Y-72808570D02*
X53274000Y-72751427D01*
X53274000Y-72751427D02*
X53331142Y-72694284D01*
X53331142Y-72694284D02*
X53445428Y-72665713D01*
X53445428Y-72665713D02*
X53645428Y-72665713D01*
X53645428Y-72665713D02*
X53759714Y-72694284D01*
X53759714Y-72694284D02*
X53816857Y-72751427D01*
X53816857Y-72751427D02*
X53845428Y-72808570D01*
X53845428Y-72808570D02*
X53845428Y-72922856D01*
X53845428Y-72922856D02*
X53816857Y-72979999D01*
X53816857Y-72979999D02*
X53759714Y-73037141D01*
X53759714Y-73037141D02*
X53645428Y-73065713D01*
X53645428Y-73065713D02*
X53445428Y-73065713D01*
X53445428Y-73065713D02*
X53331142Y-73037141D01*
X53331142Y-73037141D02*
X53274000Y-72979999D01*
X53274000Y-72979999D02*
X53245428Y-72922856D01*
X53788285Y-71705713D02*
X53816857Y-71734285D01*
X53816857Y-71734285D02*
X53845428Y-71819999D01*
X53845428Y-71819999D02*
X53845428Y-71877142D01*
X53845428Y-71877142D02*
X53816857Y-71962856D01*
X53816857Y-71962856D02*
X53759714Y-72019999D01*
X53759714Y-72019999D02*
X53702571Y-72048570D01*
X53702571Y-72048570D02*
X53588285Y-72077142D01*
X53588285Y-72077142D02*
X53502571Y-72077142D01*
X53502571Y-72077142D02*
X53388285Y-72048570D01*
X53388285Y-72048570D02*
X53331142Y-72019999D01*
X53331142Y-72019999D02*
X53274000Y-71962856D01*
X53274000Y-71962856D02*
X53245428Y-71877142D01*
X53245428Y-71877142D02*
X53245428Y-71819999D01*
X53245428Y-71819999D02*
X53274000Y-71734285D01*
X53274000Y-71734285D02*
X53302571Y-71705713D01*
X53845428Y-71448570D02*
X53245428Y-71448570D01*
X53531142Y-71448570D02*
X53531142Y-71105713D01*
X53845428Y-71105713D02*
X53245428Y-71105713D01*
X53845428Y-70505714D02*
X53845428Y-70848571D01*
X53845428Y-70677142D02*
X53245428Y-70677142D01*
X53245428Y-70677142D02*
X53331142Y-70734285D01*
X53331142Y-70734285D02*
X53388285Y-70791428D01*
X53388285Y-70791428D02*
X53416857Y-70848571D01*
%TO.C,TP9*%
X45384285Y-72580428D02*
X45727143Y-72580428D01*
X45555714Y-73180428D02*
X45555714Y-72580428D01*
X45870000Y-72580428D02*
X46270000Y-73180428D01*
X46270000Y-72580428D02*
X45870000Y-73180428D01*
X46412857Y-72580428D02*
X46755715Y-72580428D01*
X46584286Y-73180428D02*
X46584286Y-72580428D01*
X46955715Y-73180428D02*
X46955715Y-72580428D01*
X46955715Y-72580428D02*
X47184286Y-72580428D01*
X47184286Y-72580428D02*
X47241429Y-72609000D01*
X47241429Y-72609000D02*
X47270000Y-72637571D01*
X47270000Y-72637571D02*
X47298572Y-72694714D01*
X47298572Y-72694714D02*
X47298572Y-72780428D01*
X47298572Y-72780428D02*
X47270000Y-72837571D01*
X47270000Y-72837571D02*
X47241429Y-72866142D01*
X47241429Y-72866142D02*
X47184286Y-72894714D01*
X47184286Y-72894714D02*
X46955715Y-72894714D01*
%TO.C,U1*%
X45317857Y-56895428D02*
X45317857Y-57381142D01*
X45317857Y-57381142D02*
X45346428Y-57438285D01*
X45346428Y-57438285D02*
X45375000Y-57466857D01*
X45375000Y-57466857D02*
X45432142Y-57495428D01*
X45432142Y-57495428D02*
X45546428Y-57495428D01*
X45546428Y-57495428D02*
X45603571Y-57466857D01*
X45603571Y-57466857D02*
X45632142Y-57438285D01*
X45632142Y-57438285D02*
X45660714Y-57381142D01*
X45660714Y-57381142D02*
X45660714Y-56895428D01*
X46260713Y-57495428D02*
X45917856Y-57495428D01*
X46089285Y-57495428D02*
X46089285Y-56895428D01*
X46089285Y-56895428D02*
X46032142Y-56981142D01*
X46032142Y-56981142D02*
X45974999Y-57038285D01*
X45974999Y-57038285D02*
X45917856Y-57066857D01*
%TO.C,TP5*%
X43120428Y-54028571D02*
X42834714Y-54228571D01*
X43120428Y-54371428D02*
X42520428Y-54371428D01*
X42520428Y-54371428D02*
X42520428Y-54142857D01*
X42520428Y-54142857D02*
X42549000Y-54085714D01*
X42549000Y-54085714D02*
X42577571Y-54057143D01*
X42577571Y-54057143D02*
X42634714Y-54028571D01*
X42634714Y-54028571D02*
X42720428Y-54028571D01*
X42720428Y-54028571D02*
X42777571Y-54057143D01*
X42777571Y-54057143D02*
X42806142Y-54085714D01*
X42806142Y-54085714D02*
X42834714Y-54142857D01*
X42834714Y-54142857D02*
X42834714Y-54371428D01*
X42806142Y-53571428D02*
X42834714Y-53485714D01*
X42834714Y-53485714D02*
X42863285Y-53457143D01*
X42863285Y-53457143D02*
X42920428Y-53428571D01*
X42920428Y-53428571D02*
X43006142Y-53428571D01*
X43006142Y-53428571D02*
X43063285Y-53457143D01*
X43063285Y-53457143D02*
X43091857Y-53485714D01*
X43091857Y-53485714D02*
X43120428Y-53542857D01*
X43120428Y-53542857D02*
X43120428Y-53771428D01*
X43120428Y-53771428D02*
X42520428Y-53771428D01*
X42520428Y-53771428D02*
X42520428Y-53571428D01*
X42520428Y-53571428D02*
X42549000Y-53514286D01*
X42549000Y-53514286D02*
X42577571Y-53485714D01*
X42577571Y-53485714D02*
X42634714Y-53457143D01*
X42634714Y-53457143D02*
X42691857Y-53457143D01*
X42691857Y-53457143D02*
X42749000Y-53485714D01*
X42749000Y-53485714D02*
X42777571Y-53514286D01*
X42777571Y-53514286D02*
X42806142Y-53571428D01*
X42806142Y-53571428D02*
X42806142Y-53771428D01*
X42520428Y-53228571D02*
X42520428Y-52857143D01*
X42520428Y-52857143D02*
X42749000Y-53057143D01*
X42749000Y-53057143D02*
X42749000Y-52971428D01*
X42749000Y-52971428D02*
X42777571Y-52914286D01*
X42777571Y-52914286D02*
X42806142Y-52885714D01*
X42806142Y-52885714D02*
X42863285Y-52857143D01*
X42863285Y-52857143D02*
X43006142Y-52857143D01*
X43006142Y-52857143D02*
X43063285Y-52885714D01*
X43063285Y-52885714D02*
X43091857Y-52914286D01*
X43091857Y-52914286D02*
X43120428Y-52971428D01*
X43120428Y-52971428D02*
X43120428Y-53142857D01*
X43120428Y-53142857D02*
X43091857Y-53200000D01*
X43091857Y-53200000D02*
X43063285Y-53228571D01*
X43063285Y-52599999D02*
X43091857Y-52571428D01*
X43091857Y-52571428D02*
X43120428Y-52599999D01*
X43120428Y-52599999D02*
X43091857Y-52628571D01*
X43091857Y-52628571D02*
X43063285Y-52599999D01*
X43063285Y-52599999D02*
X43120428Y-52599999D01*
X42520428Y-52371428D02*
X42520428Y-52000000D01*
X42520428Y-52000000D02*
X42749000Y-52200000D01*
X42749000Y-52200000D02*
X42749000Y-52114285D01*
X42749000Y-52114285D02*
X42777571Y-52057143D01*
X42777571Y-52057143D02*
X42806142Y-52028571D01*
X42806142Y-52028571D02*
X42863285Y-52000000D01*
X42863285Y-52000000D02*
X43006142Y-52000000D01*
X43006142Y-52000000D02*
X43063285Y-52028571D01*
X43063285Y-52028571D02*
X43091857Y-52057143D01*
X43091857Y-52057143D02*
X43120428Y-52114285D01*
X43120428Y-52114285D02*
X43120428Y-52285714D01*
X43120428Y-52285714D02*
X43091857Y-52342857D01*
X43091857Y-52342857D02*
X43063285Y-52371428D01*
%TO.C,U2*%
X41297857Y-56816428D02*
X41297857Y-57302142D01*
X41297857Y-57302142D02*
X41326428Y-57359285D01*
X41326428Y-57359285D02*
X41355000Y-57387857D01*
X41355000Y-57387857D02*
X41412142Y-57416428D01*
X41412142Y-57416428D02*
X41526428Y-57416428D01*
X41526428Y-57416428D02*
X41583571Y-57387857D01*
X41583571Y-57387857D02*
X41612142Y-57359285D01*
X41612142Y-57359285D02*
X41640714Y-57302142D01*
X41640714Y-57302142D02*
X41640714Y-56816428D01*
X41897856Y-56873571D02*
X41926428Y-56845000D01*
X41926428Y-56845000D02*
X41983571Y-56816428D01*
X41983571Y-56816428D02*
X42126428Y-56816428D01*
X42126428Y-56816428D02*
X42183571Y-56845000D01*
X42183571Y-56845000D02*
X42212142Y-56873571D01*
X42212142Y-56873571D02*
X42240713Y-56930714D01*
X42240713Y-56930714D02*
X42240713Y-56987857D01*
X42240713Y-56987857D02*
X42212142Y-57073571D01*
X42212142Y-57073571D02*
X41869285Y-57416428D01*
X41869285Y-57416428D02*
X42240713Y-57416428D01*
D11*
%TO.C,C27*%
X36678571Y-48226071D02*
X36654762Y-48249880D01*
X36654762Y-48249880D02*
X36583333Y-48273690D01*
X36583333Y-48273690D02*
X36535714Y-48273690D01*
X36535714Y-48273690D02*
X36464286Y-48249880D01*
X36464286Y-48249880D02*
X36416667Y-48202261D01*
X36416667Y-48202261D02*
X36392857Y-48154642D01*
X36392857Y-48154642D02*
X36369048Y-48059404D01*
X36369048Y-48059404D02*
X36369048Y-47987976D01*
X36369048Y-47987976D02*
X36392857Y-47892738D01*
X36392857Y-47892738D02*
X36416667Y-47845119D01*
X36416667Y-47845119D02*
X36464286Y-47797500D01*
X36464286Y-47797500D02*
X36535714Y-47773690D01*
X36535714Y-47773690D02*
X36583333Y-47773690D01*
X36583333Y-47773690D02*
X36654762Y-47797500D01*
X36654762Y-47797500D02*
X36678571Y-47821309D01*
X36869048Y-47821309D02*
X36892857Y-47797500D01*
X36892857Y-47797500D02*
X36940476Y-47773690D01*
X36940476Y-47773690D02*
X37059524Y-47773690D01*
X37059524Y-47773690D02*
X37107143Y-47797500D01*
X37107143Y-47797500D02*
X37130952Y-47821309D01*
X37130952Y-47821309D02*
X37154762Y-47868928D01*
X37154762Y-47868928D02*
X37154762Y-47916547D01*
X37154762Y-47916547D02*
X37130952Y-47987976D01*
X37130952Y-47987976D02*
X36845238Y-48273690D01*
X36845238Y-48273690D02*
X37154762Y-48273690D01*
X37321428Y-47773690D02*
X37654761Y-47773690D01*
X37654761Y-47773690D02*
X37440476Y-48273690D01*
D12*
%TO.C,C47*%
X59690500Y-92550000D02*
X59723833Y-92583333D01*
X59723833Y-92583333D02*
X59757166Y-92683333D01*
X59757166Y-92683333D02*
X59757166Y-92750000D01*
X59757166Y-92750000D02*
X59723833Y-92850000D01*
X59723833Y-92850000D02*
X59657166Y-92916667D01*
X59657166Y-92916667D02*
X59590500Y-92950000D01*
X59590500Y-92950000D02*
X59457166Y-92983333D01*
X59457166Y-92983333D02*
X59357166Y-92983333D01*
X59357166Y-92983333D02*
X59223833Y-92950000D01*
X59223833Y-92950000D02*
X59157166Y-92916667D01*
X59157166Y-92916667D02*
X59090500Y-92850000D01*
X59090500Y-92850000D02*
X59057166Y-92750000D01*
X59057166Y-92750000D02*
X59057166Y-92683333D01*
X59057166Y-92683333D02*
X59090500Y-92583333D01*
X59090500Y-92583333D02*
X59123833Y-92550000D01*
X59290500Y-91950000D02*
X59757166Y-91950000D01*
X59023833Y-92116667D02*
X59523833Y-92283333D01*
X59523833Y-92283333D02*
X59523833Y-91850000D01*
X59057166Y-91650000D02*
X59057166Y-91183333D01*
X59057166Y-91183333D02*
X59757166Y-91483333D01*
D10*
%TO.C,R9*%
X37370000Y-60147428D02*
X37170000Y-59861714D01*
X37027143Y-60147428D02*
X37027143Y-59547428D01*
X37027143Y-59547428D02*
X37255714Y-59547428D01*
X37255714Y-59547428D02*
X37312857Y-59576000D01*
X37312857Y-59576000D02*
X37341428Y-59604571D01*
X37341428Y-59604571D02*
X37370000Y-59661714D01*
X37370000Y-59661714D02*
X37370000Y-59747428D01*
X37370000Y-59747428D02*
X37341428Y-59804571D01*
X37341428Y-59804571D02*
X37312857Y-59833142D01*
X37312857Y-59833142D02*
X37255714Y-59861714D01*
X37255714Y-59861714D02*
X37027143Y-59861714D01*
X37655714Y-60147428D02*
X37770000Y-60147428D01*
X37770000Y-60147428D02*
X37827143Y-60118857D01*
X37827143Y-60118857D02*
X37855714Y-60090285D01*
X37855714Y-60090285D02*
X37912857Y-60004571D01*
X37912857Y-60004571D02*
X37941428Y-59890285D01*
X37941428Y-59890285D02*
X37941428Y-59661714D01*
X37941428Y-59661714D02*
X37912857Y-59604571D01*
X37912857Y-59604571D02*
X37884286Y-59576000D01*
X37884286Y-59576000D02*
X37827143Y-59547428D01*
X37827143Y-59547428D02*
X37712857Y-59547428D01*
X37712857Y-59547428D02*
X37655714Y-59576000D01*
X37655714Y-59576000D02*
X37627143Y-59604571D01*
X37627143Y-59604571D02*
X37598571Y-59661714D01*
X37598571Y-59661714D02*
X37598571Y-59804571D01*
X37598571Y-59804571D02*
X37627143Y-59861714D01*
X37627143Y-59861714D02*
X37655714Y-59890285D01*
X37655714Y-59890285D02*
X37712857Y-59918857D01*
X37712857Y-59918857D02*
X37827143Y-59918857D01*
X37827143Y-59918857D02*
X37884286Y-59890285D01*
X37884286Y-59890285D02*
X37912857Y-59861714D01*
X37912857Y-59861714D02*
X37941428Y-59804571D01*
%TO.C,R20*%
X51904285Y-86330428D02*
X51704285Y-86044714D01*
X51561428Y-86330428D02*
X51561428Y-85730428D01*
X51561428Y-85730428D02*
X51789999Y-85730428D01*
X51789999Y-85730428D02*
X51847142Y-85759000D01*
X51847142Y-85759000D02*
X51875713Y-85787571D01*
X51875713Y-85787571D02*
X51904285Y-85844714D01*
X51904285Y-85844714D02*
X51904285Y-85930428D01*
X51904285Y-85930428D02*
X51875713Y-85987571D01*
X51875713Y-85987571D02*
X51847142Y-86016142D01*
X51847142Y-86016142D02*
X51789999Y-86044714D01*
X51789999Y-86044714D02*
X51561428Y-86044714D01*
X52132856Y-85787571D02*
X52161428Y-85759000D01*
X52161428Y-85759000D02*
X52218571Y-85730428D01*
X52218571Y-85730428D02*
X52361428Y-85730428D01*
X52361428Y-85730428D02*
X52418571Y-85759000D01*
X52418571Y-85759000D02*
X52447142Y-85787571D01*
X52447142Y-85787571D02*
X52475713Y-85844714D01*
X52475713Y-85844714D02*
X52475713Y-85901857D01*
X52475713Y-85901857D02*
X52447142Y-85987571D01*
X52447142Y-85987571D02*
X52104285Y-86330428D01*
X52104285Y-86330428D02*
X52475713Y-86330428D01*
X52847142Y-85730428D02*
X52904285Y-85730428D01*
X52904285Y-85730428D02*
X52961428Y-85759000D01*
X52961428Y-85759000D02*
X52990000Y-85787571D01*
X52990000Y-85787571D02*
X53018571Y-85844714D01*
X53018571Y-85844714D02*
X53047142Y-85959000D01*
X53047142Y-85959000D02*
X53047142Y-86101857D01*
X53047142Y-86101857D02*
X53018571Y-86216142D01*
X53018571Y-86216142D02*
X52990000Y-86273285D01*
X52990000Y-86273285D02*
X52961428Y-86301857D01*
X52961428Y-86301857D02*
X52904285Y-86330428D01*
X52904285Y-86330428D02*
X52847142Y-86330428D01*
X52847142Y-86330428D02*
X52790000Y-86301857D01*
X52790000Y-86301857D02*
X52761428Y-86273285D01*
X52761428Y-86273285D02*
X52732857Y-86216142D01*
X52732857Y-86216142D02*
X52704285Y-86101857D01*
X52704285Y-86101857D02*
X52704285Y-85959000D01*
X52704285Y-85959000D02*
X52732857Y-85844714D01*
X52732857Y-85844714D02*
X52761428Y-85787571D01*
X52761428Y-85787571D02*
X52790000Y-85759000D01*
X52790000Y-85759000D02*
X52847142Y-85730428D01*
%TO.C,C29*%
X51913285Y-90535714D02*
X51941857Y-90564286D01*
X51941857Y-90564286D02*
X51970428Y-90650000D01*
X51970428Y-90650000D02*
X51970428Y-90707143D01*
X51970428Y-90707143D02*
X51941857Y-90792857D01*
X51941857Y-90792857D02*
X51884714Y-90850000D01*
X51884714Y-90850000D02*
X51827571Y-90878571D01*
X51827571Y-90878571D02*
X51713285Y-90907143D01*
X51713285Y-90907143D02*
X51627571Y-90907143D01*
X51627571Y-90907143D02*
X51513285Y-90878571D01*
X51513285Y-90878571D02*
X51456142Y-90850000D01*
X51456142Y-90850000D02*
X51399000Y-90792857D01*
X51399000Y-90792857D02*
X51370428Y-90707143D01*
X51370428Y-90707143D02*
X51370428Y-90650000D01*
X51370428Y-90650000D02*
X51399000Y-90564286D01*
X51399000Y-90564286D02*
X51427571Y-90535714D01*
X51427571Y-90307143D02*
X51399000Y-90278571D01*
X51399000Y-90278571D02*
X51370428Y-90221429D01*
X51370428Y-90221429D02*
X51370428Y-90078571D01*
X51370428Y-90078571D02*
X51399000Y-90021429D01*
X51399000Y-90021429D02*
X51427571Y-89992857D01*
X51427571Y-89992857D02*
X51484714Y-89964286D01*
X51484714Y-89964286D02*
X51541857Y-89964286D01*
X51541857Y-89964286D02*
X51627571Y-89992857D01*
X51627571Y-89992857D02*
X51970428Y-90335714D01*
X51970428Y-90335714D02*
X51970428Y-89964286D01*
X51970428Y-89678571D02*
X51970428Y-89564285D01*
X51970428Y-89564285D02*
X51941857Y-89507142D01*
X51941857Y-89507142D02*
X51913285Y-89478571D01*
X51913285Y-89478571D02*
X51827571Y-89421428D01*
X51827571Y-89421428D02*
X51713285Y-89392857D01*
X51713285Y-89392857D02*
X51484714Y-89392857D01*
X51484714Y-89392857D02*
X51427571Y-89421428D01*
X51427571Y-89421428D02*
X51399000Y-89450000D01*
X51399000Y-89450000D02*
X51370428Y-89507142D01*
X51370428Y-89507142D02*
X51370428Y-89621428D01*
X51370428Y-89621428D02*
X51399000Y-89678571D01*
X51399000Y-89678571D02*
X51427571Y-89707142D01*
X51427571Y-89707142D02*
X51484714Y-89735714D01*
X51484714Y-89735714D02*
X51627571Y-89735714D01*
X51627571Y-89735714D02*
X51684714Y-89707142D01*
X51684714Y-89707142D02*
X51713285Y-89678571D01*
X51713285Y-89678571D02*
X51741857Y-89621428D01*
X51741857Y-89621428D02*
X51741857Y-89507142D01*
X51741857Y-89507142D02*
X51713285Y-89450000D01*
X51713285Y-89450000D02*
X51684714Y-89421428D01*
X51684714Y-89421428D02*
X51627571Y-89392857D01*
D11*
%TO.C,U6*%
X44008690Y-90755952D02*
X44413452Y-90755952D01*
X44413452Y-90755952D02*
X44461071Y-90732142D01*
X44461071Y-90732142D02*
X44484880Y-90708333D01*
X44484880Y-90708333D02*
X44508690Y-90660714D01*
X44508690Y-90660714D02*
X44508690Y-90565476D01*
X44508690Y-90565476D02*
X44484880Y-90517857D01*
X44484880Y-90517857D02*
X44461071Y-90494047D01*
X44461071Y-90494047D02*
X44413452Y-90470238D01*
X44413452Y-90470238D02*
X44008690Y-90470238D01*
X44008690Y-90017856D02*
X44008690Y-90113094D01*
X44008690Y-90113094D02*
X44032500Y-90160713D01*
X44032500Y-90160713D02*
X44056309Y-90184523D01*
X44056309Y-90184523D02*
X44127738Y-90232142D01*
X44127738Y-90232142D02*
X44222976Y-90255951D01*
X44222976Y-90255951D02*
X44413452Y-90255951D01*
X44413452Y-90255951D02*
X44461071Y-90232142D01*
X44461071Y-90232142D02*
X44484880Y-90208332D01*
X44484880Y-90208332D02*
X44508690Y-90160713D01*
X44508690Y-90160713D02*
X44508690Y-90065475D01*
X44508690Y-90065475D02*
X44484880Y-90017856D01*
X44484880Y-90017856D02*
X44461071Y-89994047D01*
X44461071Y-89994047D02*
X44413452Y-89970237D01*
X44413452Y-89970237D02*
X44294404Y-89970237D01*
X44294404Y-89970237D02*
X44246785Y-89994047D01*
X44246785Y-89994047D02*
X44222976Y-90017856D01*
X44222976Y-90017856D02*
X44199166Y-90065475D01*
X44199166Y-90065475D02*
X44199166Y-90160713D01*
X44199166Y-90160713D02*
X44222976Y-90208332D01*
X44222976Y-90208332D02*
X44246785Y-90232142D01*
X44246785Y-90232142D02*
X44294404Y-90255951D01*
D12*
%TO.C,J1*%
X21642380Y-75923333D02*
X22356666Y-75923333D01*
X22356666Y-75923333D02*
X22499523Y-75970952D01*
X22499523Y-75970952D02*
X22594761Y-76066190D01*
X22594761Y-76066190D02*
X22642380Y-76209047D01*
X22642380Y-76209047D02*
X22642380Y-76304285D01*
X22642380Y-74923333D02*
X22642380Y-75494761D01*
X22642380Y-75209047D02*
X21642380Y-75209047D01*
X21642380Y-75209047D02*
X21785238Y-75304285D01*
X21785238Y-75304285D02*
X21880476Y-75399523D01*
X21880476Y-75399523D02*
X21928095Y-75494761D01*
D10*
%TO.C,CANRXLED1*%
X45523285Y-67571428D02*
X45551857Y-67600000D01*
X45551857Y-67600000D02*
X45580428Y-67685714D01*
X45580428Y-67685714D02*
X45580428Y-67742857D01*
X45580428Y-67742857D02*
X45551857Y-67828571D01*
X45551857Y-67828571D02*
X45494714Y-67885714D01*
X45494714Y-67885714D02*
X45437571Y-67914285D01*
X45437571Y-67914285D02*
X45323285Y-67942857D01*
X45323285Y-67942857D02*
X45237571Y-67942857D01*
X45237571Y-67942857D02*
X45123285Y-67914285D01*
X45123285Y-67914285D02*
X45066142Y-67885714D01*
X45066142Y-67885714D02*
X45009000Y-67828571D01*
X45009000Y-67828571D02*
X44980428Y-67742857D01*
X44980428Y-67742857D02*
X44980428Y-67685714D01*
X44980428Y-67685714D02*
X45009000Y-67600000D01*
X45009000Y-67600000D02*
X45037571Y-67571428D01*
X45409000Y-67342857D02*
X45409000Y-67057143D01*
X45580428Y-67400000D02*
X44980428Y-67200000D01*
X44980428Y-67200000D02*
X45580428Y-67000000D01*
X45580428Y-66799999D02*
X44980428Y-66799999D01*
X44980428Y-66799999D02*
X45580428Y-66457142D01*
X45580428Y-66457142D02*
X44980428Y-66457142D01*
X45580428Y-65828571D02*
X45294714Y-66028571D01*
X45580428Y-66171428D02*
X44980428Y-66171428D01*
X44980428Y-66171428D02*
X44980428Y-65942857D01*
X44980428Y-65942857D02*
X45009000Y-65885714D01*
X45009000Y-65885714D02*
X45037571Y-65857143D01*
X45037571Y-65857143D02*
X45094714Y-65828571D01*
X45094714Y-65828571D02*
X45180428Y-65828571D01*
X45180428Y-65828571D02*
X45237571Y-65857143D01*
X45237571Y-65857143D02*
X45266142Y-65885714D01*
X45266142Y-65885714D02*
X45294714Y-65942857D01*
X45294714Y-65942857D02*
X45294714Y-66171428D01*
X44980428Y-65628571D02*
X45580428Y-65228571D01*
X44980428Y-65228571D02*
X45580428Y-65628571D01*
%TO.C,C6*%
X56200000Y-63488285D02*
X56171428Y-63516857D01*
X56171428Y-63516857D02*
X56085714Y-63545428D01*
X56085714Y-63545428D02*
X56028571Y-63545428D01*
X56028571Y-63545428D02*
X55942857Y-63516857D01*
X55942857Y-63516857D02*
X55885714Y-63459714D01*
X55885714Y-63459714D02*
X55857143Y-63402571D01*
X55857143Y-63402571D02*
X55828571Y-63288285D01*
X55828571Y-63288285D02*
X55828571Y-63202571D01*
X55828571Y-63202571D02*
X55857143Y-63088285D01*
X55857143Y-63088285D02*
X55885714Y-63031142D01*
X55885714Y-63031142D02*
X55942857Y-62974000D01*
X55942857Y-62974000D02*
X56028571Y-62945428D01*
X56028571Y-62945428D02*
X56085714Y-62945428D01*
X56085714Y-62945428D02*
X56171428Y-62974000D01*
X56171428Y-62974000D02*
X56200000Y-63002571D01*
X56714286Y-62945428D02*
X56600000Y-62945428D01*
X56600000Y-62945428D02*
X56542857Y-62974000D01*
X56542857Y-62974000D02*
X56514286Y-63002571D01*
X56514286Y-63002571D02*
X56457143Y-63088285D01*
X56457143Y-63088285D02*
X56428571Y-63202571D01*
X56428571Y-63202571D02*
X56428571Y-63431142D01*
X56428571Y-63431142D02*
X56457143Y-63488285D01*
X56457143Y-63488285D02*
X56485714Y-63516857D01*
X56485714Y-63516857D02*
X56542857Y-63545428D01*
X56542857Y-63545428D02*
X56657143Y-63545428D01*
X56657143Y-63545428D02*
X56714286Y-63516857D01*
X56714286Y-63516857D02*
X56742857Y-63488285D01*
X56742857Y-63488285D02*
X56771428Y-63431142D01*
X56771428Y-63431142D02*
X56771428Y-63288285D01*
X56771428Y-63288285D02*
X56742857Y-63231142D01*
X56742857Y-63231142D02*
X56714286Y-63202571D01*
X56714286Y-63202571D02*
X56657143Y-63174000D01*
X56657143Y-63174000D02*
X56542857Y-63174000D01*
X56542857Y-63174000D02*
X56485714Y-63202571D01*
X56485714Y-63202571D02*
X56457143Y-63231142D01*
X56457143Y-63231142D02*
X56428571Y-63288285D01*
%TO.C,C15*%
X40564285Y-65663285D02*
X40535713Y-65691857D01*
X40535713Y-65691857D02*
X40449999Y-65720428D01*
X40449999Y-65720428D02*
X40392856Y-65720428D01*
X40392856Y-65720428D02*
X40307142Y-65691857D01*
X40307142Y-65691857D02*
X40249999Y-65634714D01*
X40249999Y-65634714D02*
X40221428Y-65577571D01*
X40221428Y-65577571D02*
X40192856Y-65463285D01*
X40192856Y-65463285D02*
X40192856Y-65377571D01*
X40192856Y-65377571D02*
X40221428Y-65263285D01*
X40221428Y-65263285D02*
X40249999Y-65206142D01*
X40249999Y-65206142D02*
X40307142Y-65149000D01*
X40307142Y-65149000D02*
X40392856Y-65120428D01*
X40392856Y-65120428D02*
X40449999Y-65120428D01*
X40449999Y-65120428D02*
X40535713Y-65149000D01*
X40535713Y-65149000D02*
X40564285Y-65177571D01*
X41135713Y-65720428D02*
X40792856Y-65720428D01*
X40964285Y-65720428D02*
X40964285Y-65120428D01*
X40964285Y-65120428D02*
X40907142Y-65206142D01*
X40907142Y-65206142D02*
X40849999Y-65263285D01*
X40849999Y-65263285D02*
X40792856Y-65291857D01*
X41678571Y-65120428D02*
X41392857Y-65120428D01*
X41392857Y-65120428D02*
X41364285Y-65406142D01*
X41364285Y-65406142D02*
X41392857Y-65377571D01*
X41392857Y-65377571D02*
X41450000Y-65349000D01*
X41450000Y-65349000D02*
X41592857Y-65349000D01*
X41592857Y-65349000D02*
X41650000Y-65377571D01*
X41650000Y-65377571D02*
X41678571Y-65406142D01*
X41678571Y-65406142D02*
X41707142Y-65463285D01*
X41707142Y-65463285D02*
X41707142Y-65606142D01*
X41707142Y-65606142D02*
X41678571Y-65663285D01*
X41678571Y-65663285D02*
X41650000Y-65691857D01*
X41650000Y-65691857D02*
X41592857Y-65720428D01*
X41592857Y-65720428D02*
X41450000Y-65720428D01*
X41450000Y-65720428D02*
X41392857Y-65691857D01*
X41392857Y-65691857D02*
X41364285Y-65663285D01*
D11*
%TO.C,C22*%
X45086071Y-46571428D02*
X45109880Y-46595237D01*
X45109880Y-46595237D02*
X45133690Y-46666666D01*
X45133690Y-46666666D02*
X45133690Y-46714285D01*
X45133690Y-46714285D02*
X45109880Y-46785713D01*
X45109880Y-46785713D02*
X45062261Y-46833332D01*
X45062261Y-46833332D02*
X45014642Y-46857142D01*
X45014642Y-46857142D02*
X44919404Y-46880951D01*
X44919404Y-46880951D02*
X44847976Y-46880951D01*
X44847976Y-46880951D02*
X44752738Y-46857142D01*
X44752738Y-46857142D02*
X44705119Y-46833332D01*
X44705119Y-46833332D02*
X44657500Y-46785713D01*
X44657500Y-46785713D02*
X44633690Y-46714285D01*
X44633690Y-46714285D02*
X44633690Y-46666666D01*
X44633690Y-46666666D02*
X44657500Y-46595237D01*
X44657500Y-46595237D02*
X44681309Y-46571428D01*
X44681309Y-46380951D02*
X44657500Y-46357142D01*
X44657500Y-46357142D02*
X44633690Y-46309523D01*
X44633690Y-46309523D02*
X44633690Y-46190475D01*
X44633690Y-46190475D02*
X44657500Y-46142856D01*
X44657500Y-46142856D02*
X44681309Y-46119047D01*
X44681309Y-46119047D02*
X44728928Y-46095237D01*
X44728928Y-46095237D02*
X44776547Y-46095237D01*
X44776547Y-46095237D02*
X44847976Y-46119047D01*
X44847976Y-46119047D02*
X45133690Y-46404761D01*
X45133690Y-46404761D02*
X45133690Y-46095237D01*
X44681309Y-45904761D02*
X44657500Y-45880952D01*
X44657500Y-45880952D02*
X44633690Y-45833333D01*
X44633690Y-45833333D02*
X44633690Y-45714285D01*
X44633690Y-45714285D02*
X44657500Y-45666666D01*
X44657500Y-45666666D02*
X44681309Y-45642857D01*
X44681309Y-45642857D02*
X44728928Y-45619047D01*
X44728928Y-45619047D02*
X44776547Y-45619047D01*
X44776547Y-45619047D02*
X44847976Y-45642857D01*
X44847976Y-45642857D02*
X45133690Y-45928571D01*
X45133690Y-45928571D02*
X45133690Y-45619047D01*
D10*
%TO.C,C13*%
X47667285Y-69196714D02*
X47695857Y-69225286D01*
X47695857Y-69225286D02*
X47724428Y-69311000D01*
X47724428Y-69311000D02*
X47724428Y-69368143D01*
X47724428Y-69368143D02*
X47695857Y-69453857D01*
X47695857Y-69453857D02*
X47638714Y-69511000D01*
X47638714Y-69511000D02*
X47581571Y-69539571D01*
X47581571Y-69539571D02*
X47467285Y-69568143D01*
X47467285Y-69568143D02*
X47381571Y-69568143D01*
X47381571Y-69568143D02*
X47267285Y-69539571D01*
X47267285Y-69539571D02*
X47210142Y-69511000D01*
X47210142Y-69511000D02*
X47153000Y-69453857D01*
X47153000Y-69453857D02*
X47124428Y-69368143D01*
X47124428Y-69368143D02*
X47124428Y-69311000D01*
X47124428Y-69311000D02*
X47153000Y-69225286D01*
X47153000Y-69225286D02*
X47181571Y-69196714D01*
X47724428Y-68625286D02*
X47724428Y-68968143D01*
X47724428Y-68796714D02*
X47124428Y-68796714D01*
X47124428Y-68796714D02*
X47210142Y-68853857D01*
X47210142Y-68853857D02*
X47267285Y-68911000D01*
X47267285Y-68911000D02*
X47295857Y-68968143D01*
X47124428Y-68425285D02*
X47124428Y-68053857D01*
X47124428Y-68053857D02*
X47353000Y-68253857D01*
X47353000Y-68253857D02*
X47353000Y-68168142D01*
X47353000Y-68168142D02*
X47381571Y-68111000D01*
X47381571Y-68111000D02*
X47410142Y-68082428D01*
X47410142Y-68082428D02*
X47467285Y-68053857D01*
X47467285Y-68053857D02*
X47610142Y-68053857D01*
X47610142Y-68053857D02*
X47667285Y-68082428D01*
X47667285Y-68082428D02*
X47695857Y-68111000D01*
X47695857Y-68111000D02*
X47724428Y-68168142D01*
X47724428Y-68168142D02*
X47724428Y-68339571D01*
X47724428Y-68339571D02*
X47695857Y-68396714D01*
X47695857Y-68396714D02*
X47667285Y-68425285D01*
%TO.C,C34*%
X37272142Y-85692857D02*
X37319761Y-85740476D01*
X37319761Y-85740476D02*
X37367380Y-85883333D01*
X37367380Y-85883333D02*
X37367380Y-85978571D01*
X37367380Y-85978571D02*
X37319761Y-86121428D01*
X37319761Y-86121428D02*
X37224523Y-86216666D01*
X37224523Y-86216666D02*
X37129285Y-86264285D01*
X37129285Y-86264285D02*
X36938809Y-86311904D01*
X36938809Y-86311904D02*
X36795952Y-86311904D01*
X36795952Y-86311904D02*
X36605476Y-86264285D01*
X36605476Y-86264285D02*
X36510238Y-86216666D01*
X36510238Y-86216666D02*
X36415000Y-86121428D01*
X36415000Y-86121428D02*
X36367380Y-85978571D01*
X36367380Y-85978571D02*
X36367380Y-85883333D01*
X36367380Y-85883333D02*
X36415000Y-85740476D01*
X36415000Y-85740476D02*
X36462619Y-85692857D01*
X36367380Y-85359523D02*
X36367380Y-84740476D01*
X36367380Y-84740476D02*
X36748333Y-85073809D01*
X36748333Y-85073809D02*
X36748333Y-84930952D01*
X36748333Y-84930952D02*
X36795952Y-84835714D01*
X36795952Y-84835714D02*
X36843571Y-84788095D01*
X36843571Y-84788095D02*
X36938809Y-84740476D01*
X36938809Y-84740476D02*
X37176904Y-84740476D01*
X37176904Y-84740476D02*
X37272142Y-84788095D01*
X37272142Y-84788095D02*
X37319761Y-84835714D01*
X37319761Y-84835714D02*
X37367380Y-84930952D01*
X37367380Y-84930952D02*
X37367380Y-85216666D01*
X37367380Y-85216666D02*
X37319761Y-85311904D01*
X37319761Y-85311904D02*
X37272142Y-85359523D01*
X36700714Y-83883333D02*
X37367380Y-83883333D01*
X36319761Y-84121428D02*
X37034047Y-84359523D01*
X37034047Y-84359523D02*
X37034047Y-83740476D01*
D11*
%TO.C,C25*%
X35803571Y-59325286D02*
X35779762Y-59349095D01*
X35779762Y-59349095D02*
X35708333Y-59372905D01*
X35708333Y-59372905D02*
X35660714Y-59372905D01*
X35660714Y-59372905D02*
X35589286Y-59349095D01*
X35589286Y-59349095D02*
X35541667Y-59301476D01*
X35541667Y-59301476D02*
X35517857Y-59253857D01*
X35517857Y-59253857D02*
X35494048Y-59158619D01*
X35494048Y-59158619D02*
X35494048Y-59087191D01*
X35494048Y-59087191D02*
X35517857Y-58991953D01*
X35517857Y-58991953D02*
X35541667Y-58944334D01*
X35541667Y-58944334D02*
X35589286Y-58896715D01*
X35589286Y-58896715D02*
X35660714Y-58872905D01*
X35660714Y-58872905D02*
X35708333Y-58872905D01*
X35708333Y-58872905D02*
X35779762Y-58896715D01*
X35779762Y-58896715D02*
X35803571Y-58920524D01*
X35994048Y-58920524D02*
X36017857Y-58896715D01*
X36017857Y-58896715D02*
X36065476Y-58872905D01*
X36065476Y-58872905D02*
X36184524Y-58872905D01*
X36184524Y-58872905D02*
X36232143Y-58896715D01*
X36232143Y-58896715D02*
X36255952Y-58920524D01*
X36255952Y-58920524D02*
X36279762Y-58968143D01*
X36279762Y-58968143D02*
X36279762Y-59015762D01*
X36279762Y-59015762D02*
X36255952Y-59087191D01*
X36255952Y-59087191D02*
X35970238Y-59372905D01*
X35970238Y-59372905D02*
X36279762Y-59372905D01*
X36732142Y-58872905D02*
X36494047Y-58872905D01*
X36494047Y-58872905D02*
X36470238Y-59111000D01*
X36470238Y-59111000D02*
X36494047Y-59087191D01*
X36494047Y-59087191D02*
X36541666Y-59063381D01*
X36541666Y-59063381D02*
X36660714Y-59063381D01*
X36660714Y-59063381D02*
X36708333Y-59087191D01*
X36708333Y-59087191D02*
X36732142Y-59111000D01*
X36732142Y-59111000D02*
X36755952Y-59158619D01*
X36755952Y-59158619D02*
X36755952Y-59277667D01*
X36755952Y-59277667D02*
X36732142Y-59325286D01*
X36732142Y-59325286D02*
X36708333Y-59349095D01*
X36708333Y-59349095D02*
X36660714Y-59372905D01*
X36660714Y-59372905D02*
X36541666Y-59372905D01*
X36541666Y-59372905D02*
X36494047Y-59349095D01*
X36494047Y-59349095D02*
X36470238Y-59325286D01*
%TO.C,R16*%
X34528571Y-49008690D02*
X34361905Y-48770595D01*
X34242857Y-49008690D02*
X34242857Y-48508690D01*
X34242857Y-48508690D02*
X34433333Y-48508690D01*
X34433333Y-48508690D02*
X34480952Y-48532500D01*
X34480952Y-48532500D02*
X34504762Y-48556309D01*
X34504762Y-48556309D02*
X34528571Y-48603928D01*
X34528571Y-48603928D02*
X34528571Y-48675357D01*
X34528571Y-48675357D02*
X34504762Y-48722976D01*
X34504762Y-48722976D02*
X34480952Y-48746785D01*
X34480952Y-48746785D02*
X34433333Y-48770595D01*
X34433333Y-48770595D02*
X34242857Y-48770595D01*
X35004762Y-49008690D02*
X34719048Y-49008690D01*
X34861905Y-49008690D02*
X34861905Y-48508690D01*
X34861905Y-48508690D02*
X34814286Y-48580119D01*
X34814286Y-48580119D02*
X34766667Y-48627738D01*
X34766667Y-48627738D02*
X34719048Y-48651547D01*
X35433333Y-48508690D02*
X35338095Y-48508690D01*
X35338095Y-48508690D02*
X35290476Y-48532500D01*
X35290476Y-48532500D02*
X35266666Y-48556309D01*
X35266666Y-48556309D02*
X35219047Y-48627738D01*
X35219047Y-48627738D02*
X35195238Y-48722976D01*
X35195238Y-48722976D02*
X35195238Y-48913452D01*
X35195238Y-48913452D02*
X35219047Y-48961071D01*
X35219047Y-48961071D02*
X35242857Y-48984880D01*
X35242857Y-48984880D02*
X35290476Y-49008690D01*
X35290476Y-49008690D02*
X35385714Y-49008690D01*
X35385714Y-49008690D02*
X35433333Y-48984880D01*
X35433333Y-48984880D02*
X35457142Y-48961071D01*
X35457142Y-48961071D02*
X35480952Y-48913452D01*
X35480952Y-48913452D02*
X35480952Y-48794404D01*
X35480952Y-48794404D02*
X35457142Y-48746785D01*
X35457142Y-48746785D02*
X35433333Y-48722976D01*
X35433333Y-48722976D02*
X35385714Y-48699166D01*
X35385714Y-48699166D02*
X35290476Y-48699166D01*
X35290476Y-48699166D02*
X35242857Y-48722976D01*
X35242857Y-48722976D02*
X35219047Y-48746785D01*
X35219047Y-48746785D02*
X35195238Y-48794404D01*
D10*
%TO.C,C37*%
X53807142Y-94172142D02*
X53759523Y-94219761D01*
X53759523Y-94219761D02*
X53616666Y-94267380D01*
X53616666Y-94267380D02*
X53521428Y-94267380D01*
X53521428Y-94267380D02*
X53378571Y-94219761D01*
X53378571Y-94219761D02*
X53283333Y-94124523D01*
X53283333Y-94124523D02*
X53235714Y-94029285D01*
X53235714Y-94029285D02*
X53188095Y-93838809D01*
X53188095Y-93838809D02*
X53188095Y-93695952D01*
X53188095Y-93695952D02*
X53235714Y-93505476D01*
X53235714Y-93505476D02*
X53283333Y-93410238D01*
X53283333Y-93410238D02*
X53378571Y-93315000D01*
X53378571Y-93315000D02*
X53521428Y-93267380D01*
X53521428Y-93267380D02*
X53616666Y-93267380D01*
X53616666Y-93267380D02*
X53759523Y-93315000D01*
X53759523Y-93315000D02*
X53807142Y-93362619D01*
X54140476Y-93267380D02*
X54759523Y-93267380D01*
X54759523Y-93267380D02*
X54426190Y-93648333D01*
X54426190Y-93648333D02*
X54569047Y-93648333D01*
X54569047Y-93648333D02*
X54664285Y-93695952D01*
X54664285Y-93695952D02*
X54711904Y-93743571D01*
X54711904Y-93743571D02*
X54759523Y-93838809D01*
X54759523Y-93838809D02*
X54759523Y-94076904D01*
X54759523Y-94076904D02*
X54711904Y-94172142D01*
X54711904Y-94172142D02*
X54664285Y-94219761D01*
X54664285Y-94219761D02*
X54569047Y-94267380D01*
X54569047Y-94267380D02*
X54283333Y-94267380D01*
X54283333Y-94267380D02*
X54188095Y-94219761D01*
X54188095Y-94219761D02*
X54140476Y-94172142D01*
X55092857Y-93267380D02*
X55759523Y-93267380D01*
X55759523Y-93267380D02*
X55330952Y-94267380D01*
%TO.C,R24*%
X51864285Y-84500428D02*
X51664285Y-84214714D01*
X51521428Y-84500428D02*
X51521428Y-83900428D01*
X51521428Y-83900428D02*
X51749999Y-83900428D01*
X51749999Y-83900428D02*
X51807142Y-83929000D01*
X51807142Y-83929000D02*
X51835713Y-83957571D01*
X51835713Y-83957571D02*
X51864285Y-84014714D01*
X51864285Y-84014714D02*
X51864285Y-84100428D01*
X51864285Y-84100428D02*
X51835713Y-84157571D01*
X51835713Y-84157571D02*
X51807142Y-84186142D01*
X51807142Y-84186142D02*
X51749999Y-84214714D01*
X51749999Y-84214714D02*
X51521428Y-84214714D01*
X52092856Y-83957571D02*
X52121428Y-83929000D01*
X52121428Y-83929000D02*
X52178571Y-83900428D01*
X52178571Y-83900428D02*
X52321428Y-83900428D01*
X52321428Y-83900428D02*
X52378571Y-83929000D01*
X52378571Y-83929000D02*
X52407142Y-83957571D01*
X52407142Y-83957571D02*
X52435713Y-84014714D01*
X52435713Y-84014714D02*
X52435713Y-84071857D01*
X52435713Y-84071857D02*
X52407142Y-84157571D01*
X52407142Y-84157571D02*
X52064285Y-84500428D01*
X52064285Y-84500428D02*
X52435713Y-84500428D01*
X52950000Y-84100428D02*
X52950000Y-84500428D01*
X52807142Y-83871857D02*
X52664285Y-84300428D01*
X52664285Y-84300428D02*
X53035714Y-84300428D01*
%TO.C,R5*%
X54945428Y-67849999D02*
X54659714Y-68049999D01*
X54945428Y-68192856D02*
X54345428Y-68192856D01*
X54345428Y-68192856D02*
X54345428Y-67964285D01*
X54345428Y-67964285D02*
X54374000Y-67907142D01*
X54374000Y-67907142D02*
X54402571Y-67878571D01*
X54402571Y-67878571D02*
X54459714Y-67849999D01*
X54459714Y-67849999D02*
X54545428Y-67849999D01*
X54545428Y-67849999D02*
X54602571Y-67878571D01*
X54602571Y-67878571D02*
X54631142Y-67907142D01*
X54631142Y-67907142D02*
X54659714Y-67964285D01*
X54659714Y-67964285D02*
X54659714Y-68192856D01*
X54345428Y-67307142D02*
X54345428Y-67592856D01*
X54345428Y-67592856D02*
X54631142Y-67621428D01*
X54631142Y-67621428D02*
X54602571Y-67592856D01*
X54602571Y-67592856D02*
X54574000Y-67535714D01*
X54574000Y-67535714D02*
X54574000Y-67392856D01*
X54574000Y-67392856D02*
X54602571Y-67335714D01*
X54602571Y-67335714D02*
X54631142Y-67307142D01*
X54631142Y-67307142D02*
X54688285Y-67278571D01*
X54688285Y-67278571D02*
X54831142Y-67278571D01*
X54831142Y-67278571D02*
X54888285Y-67307142D01*
X54888285Y-67307142D02*
X54916857Y-67335714D01*
X54916857Y-67335714D02*
X54945428Y-67392856D01*
X54945428Y-67392856D02*
X54945428Y-67535714D01*
X54945428Y-67535714D02*
X54916857Y-67592856D01*
X54916857Y-67592856D02*
X54888285Y-67621428D01*
D11*
%TO.C,C10*%
X51603571Y-56861071D02*
X51579762Y-56884880D01*
X51579762Y-56884880D02*
X51508333Y-56908690D01*
X51508333Y-56908690D02*
X51460714Y-56908690D01*
X51460714Y-56908690D02*
X51389286Y-56884880D01*
X51389286Y-56884880D02*
X51341667Y-56837261D01*
X51341667Y-56837261D02*
X51317857Y-56789642D01*
X51317857Y-56789642D02*
X51294048Y-56694404D01*
X51294048Y-56694404D02*
X51294048Y-56622976D01*
X51294048Y-56622976D02*
X51317857Y-56527738D01*
X51317857Y-56527738D02*
X51341667Y-56480119D01*
X51341667Y-56480119D02*
X51389286Y-56432500D01*
X51389286Y-56432500D02*
X51460714Y-56408690D01*
X51460714Y-56408690D02*
X51508333Y-56408690D01*
X51508333Y-56408690D02*
X51579762Y-56432500D01*
X51579762Y-56432500D02*
X51603571Y-56456309D01*
X52079762Y-56908690D02*
X51794048Y-56908690D01*
X51936905Y-56908690D02*
X51936905Y-56408690D01*
X51936905Y-56408690D02*
X51889286Y-56480119D01*
X51889286Y-56480119D02*
X51841667Y-56527738D01*
X51841667Y-56527738D02*
X51794048Y-56551547D01*
X52389285Y-56408690D02*
X52436904Y-56408690D01*
X52436904Y-56408690D02*
X52484523Y-56432500D01*
X52484523Y-56432500D02*
X52508333Y-56456309D01*
X52508333Y-56456309D02*
X52532142Y-56503928D01*
X52532142Y-56503928D02*
X52555952Y-56599166D01*
X52555952Y-56599166D02*
X52555952Y-56718214D01*
X52555952Y-56718214D02*
X52532142Y-56813452D01*
X52532142Y-56813452D02*
X52508333Y-56861071D01*
X52508333Y-56861071D02*
X52484523Y-56884880D01*
X52484523Y-56884880D02*
X52436904Y-56908690D01*
X52436904Y-56908690D02*
X52389285Y-56908690D01*
X52389285Y-56908690D02*
X52341666Y-56884880D01*
X52341666Y-56884880D02*
X52317857Y-56861071D01*
X52317857Y-56861071D02*
X52294047Y-56813452D01*
X52294047Y-56813452D02*
X52270238Y-56718214D01*
X52270238Y-56718214D02*
X52270238Y-56599166D01*
X52270238Y-56599166D02*
X52294047Y-56503928D01*
X52294047Y-56503928D02*
X52317857Y-56456309D01*
X52317857Y-56456309D02*
X52341666Y-56432500D01*
X52341666Y-56432500D02*
X52389285Y-56408690D01*
D10*
%TO.C,C7*%
X54013285Y-67679999D02*
X54041857Y-67708571D01*
X54041857Y-67708571D02*
X54070428Y-67794285D01*
X54070428Y-67794285D02*
X54070428Y-67851428D01*
X54070428Y-67851428D02*
X54041857Y-67937142D01*
X54041857Y-67937142D02*
X53984714Y-67994285D01*
X53984714Y-67994285D02*
X53927571Y-68022856D01*
X53927571Y-68022856D02*
X53813285Y-68051428D01*
X53813285Y-68051428D02*
X53727571Y-68051428D01*
X53727571Y-68051428D02*
X53613285Y-68022856D01*
X53613285Y-68022856D02*
X53556142Y-67994285D01*
X53556142Y-67994285D02*
X53499000Y-67937142D01*
X53499000Y-67937142D02*
X53470428Y-67851428D01*
X53470428Y-67851428D02*
X53470428Y-67794285D01*
X53470428Y-67794285D02*
X53499000Y-67708571D01*
X53499000Y-67708571D02*
X53527571Y-67679999D01*
X53470428Y-67479999D02*
X53470428Y-67079999D01*
X53470428Y-67079999D02*
X54070428Y-67337142D01*
D12*
%TO.C,R22*%
X48097166Y-83150000D02*
X47763833Y-83383333D01*
X48097166Y-83550000D02*
X47397166Y-83550000D01*
X47397166Y-83550000D02*
X47397166Y-83283333D01*
X47397166Y-83283333D02*
X47430500Y-83216667D01*
X47430500Y-83216667D02*
X47463833Y-83183333D01*
X47463833Y-83183333D02*
X47530500Y-83150000D01*
X47530500Y-83150000D02*
X47630500Y-83150000D01*
X47630500Y-83150000D02*
X47697166Y-83183333D01*
X47697166Y-83183333D02*
X47730500Y-83216667D01*
X47730500Y-83216667D02*
X47763833Y-83283333D01*
X47763833Y-83283333D02*
X47763833Y-83550000D01*
X47463833Y-82883333D02*
X47430500Y-82850000D01*
X47430500Y-82850000D02*
X47397166Y-82783333D01*
X47397166Y-82783333D02*
X47397166Y-82616667D01*
X47397166Y-82616667D02*
X47430500Y-82550000D01*
X47430500Y-82550000D02*
X47463833Y-82516667D01*
X47463833Y-82516667D02*
X47530500Y-82483333D01*
X47530500Y-82483333D02*
X47597166Y-82483333D01*
X47597166Y-82483333D02*
X47697166Y-82516667D01*
X47697166Y-82516667D02*
X48097166Y-82916667D01*
X48097166Y-82916667D02*
X48097166Y-82483333D01*
X47463833Y-82216666D02*
X47430500Y-82183333D01*
X47430500Y-82183333D02*
X47397166Y-82116666D01*
X47397166Y-82116666D02*
X47397166Y-81950000D01*
X47397166Y-81950000D02*
X47430500Y-81883333D01*
X47430500Y-81883333D02*
X47463833Y-81850000D01*
X47463833Y-81850000D02*
X47530500Y-81816666D01*
X47530500Y-81816666D02*
X47597166Y-81816666D01*
X47597166Y-81816666D02*
X47697166Y-81850000D01*
X47697166Y-81850000D02*
X48097166Y-82250000D01*
X48097166Y-82250000D02*
X48097166Y-81816666D01*
D10*
%TO.C,C39*%
X45838285Y-83310714D02*
X45866857Y-83339286D01*
X45866857Y-83339286D02*
X45895428Y-83425000D01*
X45895428Y-83425000D02*
X45895428Y-83482143D01*
X45895428Y-83482143D02*
X45866857Y-83567857D01*
X45866857Y-83567857D02*
X45809714Y-83625000D01*
X45809714Y-83625000D02*
X45752571Y-83653571D01*
X45752571Y-83653571D02*
X45638285Y-83682143D01*
X45638285Y-83682143D02*
X45552571Y-83682143D01*
X45552571Y-83682143D02*
X45438285Y-83653571D01*
X45438285Y-83653571D02*
X45381142Y-83625000D01*
X45381142Y-83625000D02*
X45324000Y-83567857D01*
X45324000Y-83567857D02*
X45295428Y-83482143D01*
X45295428Y-83482143D02*
X45295428Y-83425000D01*
X45295428Y-83425000D02*
X45324000Y-83339286D01*
X45324000Y-83339286D02*
X45352571Y-83310714D01*
X45295428Y-83110714D02*
X45295428Y-82739286D01*
X45295428Y-82739286D02*
X45524000Y-82939286D01*
X45524000Y-82939286D02*
X45524000Y-82853571D01*
X45524000Y-82853571D02*
X45552571Y-82796429D01*
X45552571Y-82796429D02*
X45581142Y-82767857D01*
X45581142Y-82767857D02*
X45638285Y-82739286D01*
X45638285Y-82739286D02*
X45781142Y-82739286D01*
X45781142Y-82739286D02*
X45838285Y-82767857D01*
X45838285Y-82767857D02*
X45866857Y-82796429D01*
X45866857Y-82796429D02*
X45895428Y-82853571D01*
X45895428Y-82853571D02*
X45895428Y-83025000D01*
X45895428Y-83025000D02*
X45866857Y-83082143D01*
X45866857Y-83082143D02*
X45838285Y-83110714D01*
X45895428Y-82453571D02*
X45895428Y-82339285D01*
X45895428Y-82339285D02*
X45866857Y-82282142D01*
X45866857Y-82282142D02*
X45838285Y-82253571D01*
X45838285Y-82253571D02*
X45752571Y-82196428D01*
X45752571Y-82196428D02*
X45638285Y-82167857D01*
X45638285Y-82167857D02*
X45409714Y-82167857D01*
X45409714Y-82167857D02*
X45352571Y-82196428D01*
X45352571Y-82196428D02*
X45324000Y-82225000D01*
X45324000Y-82225000D02*
X45295428Y-82282142D01*
X45295428Y-82282142D02*
X45295428Y-82396428D01*
X45295428Y-82396428D02*
X45324000Y-82453571D01*
X45324000Y-82453571D02*
X45352571Y-82482142D01*
X45352571Y-82482142D02*
X45409714Y-82510714D01*
X45409714Y-82510714D02*
X45552571Y-82510714D01*
X45552571Y-82510714D02*
X45609714Y-82482142D01*
X45609714Y-82482142D02*
X45638285Y-82453571D01*
X45638285Y-82453571D02*
X45666857Y-82396428D01*
X45666857Y-82396428D02*
X45666857Y-82282142D01*
X45666857Y-82282142D02*
X45638285Y-82225000D01*
X45638285Y-82225000D02*
X45609714Y-82196428D01*
X45609714Y-82196428D02*
X45552571Y-82167857D01*
%TO.C,D1*%
X32995428Y-65642856D02*
X32395428Y-65642856D01*
X32395428Y-65642856D02*
X32395428Y-65499999D01*
X32395428Y-65499999D02*
X32424000Y-65414285D01*
X32424000Y-65414285D02*
X32481142Y-65357142D01*
X32481142Y-65357142D02*
X32538285Y-65328571D01*
X32538285Y-65328571D02*
X32652571Y-65299999D01*
X32652571Y-65299999D02*
X32738285Y-65299999D01*
X32738285Y-65299999D02*
X32852571Y-65328571D01*
X32852571Y-65328571D02*
X32909714Y-65357142D01*
X32909714Y-65357142D02*
X32966857Y-65414285D01*
X32966857Y-65414285D02*
X32995428Y-65499999D01*
X32995428Y-65499999D02*
X32995428Y-65642856D01*
X32995428Y-64728571D02*
X32995428Y-65071428D01*
X32995428Y-64899999D02*
X32395428Y-64899999D01*
X32395428Y-64899999D02*
X32481142Y-64957142D01*
X32481142Y-64957142D02*
X32538285Y-65014285D01*
X32538285Y-65014285D02*
X32566857Y-65071428D01*
%TO.C,Y1*%
X50135285Y-70381714D02*
X50135285Y-70667428D01*
X49935285Y-70067428D02*
X50135285Y-70381714D01*
X50135285Y-70381714D02*
X50335285Y-70067428D01*
X50849571Y-70667428D02*
X50506714Y-70667428D01*
X50678143Y-70667428D02*
X50678143Y-70067428D01*
X50678143Y-70067428D02*
X50621000Y-70153142D01*
X50621000Y-70153142D02*
X50563857Y-70210285D01*
X50563857Y-70210285D02*
X50506714Y-70238857D01*
%TO.C,3V3LED1*%
X53435589Y-56471144D02*
X53435589Y-56099716D01*
X53435589Y-56099716D02*
X53664161Y-56299716D01*
X53664161Y-56299716D02*
X53664161Y-56214001D01*
X53664161Y-56214001D02*
X53692732Y-56156859D01*
X53692732Y-56156859D02*
X53721303Y-56128287D01*
X53721303Y-56128287D02*
X53778446Y-56099716D01*
X53778446Y-56099716D02*
X53921303Y-56099716D01*
X53921303Y-56099716D02*
X53978446Y-56128287D01*
X53978446Y-56128287D02*
X54007018Y-56156859D01*
X54007018Y-56156859D02*
X54035589Y-56214001D01*
X54035589Y-56214001D02*
X54035589Y-56385430D01*
X54035589Y-56385430D02*
X54007018Y-56442573D01*
X54007018Y-56442573D02*
X53978446Y-56471144D01*
X53435589Y-55928287D02*
X54035589Y-55728287D01*
X54035589Y-55728287D02*
X53435589Y-55528287D01*
X53435589Y-55385429D02*
X53435589Y-55014001D01*
X53435589Y-55014001D02*
X53664161Y-55214001D01*
X53664161Y-55214001D02*
X53664161Y-55128286D01*
X53664161Y-55128286D02*
X53692732Y-55071144D01*
X53692732Y-55071144D02*
X53721303Y-55042572D01*
X53721303Y-55042572D02*
X53778446Y-55014001D01*
X53778446Y-55014001D02*
X53921303Y-55014001D01*
X53921303Y-55014001D02*
X53978446Y-55042572D01*
X53978446Y-55042572D02*
X54007018Y-55071144D01*
X54007018Y-55071144D02*
X54035589Y-55128286D01*
X54035589Y-55128286D02*
X54035589Y-55299715D01*
X54035589Y-55299715D02*
X54007018Y-55356858D01*
X54007018Y-55356858D02*
X53978446Y-55385429D01*
X54035589Y-54471143D02*
X54035589Y-54756857D01*
X54035589Y-54756857D02*
X53435589Y-54756857D01*
X53721303Y-54271143D02*
X53721303Y-54071143D01*
X54035589Y-53985429D02*
X54035589Y-54271143D01*
X54035589Y-54271143D02*
X53435589Y-54271143D01*
X53435589Y-54271143D02*
X53435589Y-53985429D01*
X54035589Y-53728286D02*
X53435589Y-53728286D01*
X53435589Y-53728286D02*
X53435589Y-53585429D01*
X53435589Y-53585429D02*
X53464161Y-53499715D01*
X53464161Y-53499715D02*
X53521303Y-53442572D01*
X53521303Y-53442572D02*
X53578446Y-53414001D01*
X53578446Y-53414001D02*
X53692732Y-53385429D01*
X53692732Y-53385429D02*
X53778446Y-53385429D01*
X53778446Y-53385429D02*
X53892732Y-53414001D01*
X53892732Y-53414001D02*
X53949875Y-53442572D01*
X53949875Y-53442572D02*
X54007018Y-53499715D01*
X54007018Y-53499715D02*
X54035589Y-53585429D01*
X54035589Y-53585429D02*
X54035589Y-53728286D01*
D14*
%TO.C,C12*%
X54054592Y-64396870D02*
X54035544Y-64415917D01*
X54035544Y-64415917D02*
X53978402Y-64434965D01*
X53978402Y-64434965D02*
X53940306Y-64434965D01*
X53940306Y-64434965D02*
X53883163Y-64415917D01*
X53883163Y-64415917D02*
X53845068Y-64377822D01*
X53845068Y-64377822D02*
X53826021Y-64339727D01*
X53826021Y-64339727D02*
X53806973Y-64263536D01*
X53806973Y-64263536D02*
X53806973Y-64206393D01*
X53806973Y-64206393D02*
X53826021Y-64130203D01*
X53826021Y-64130203D02*
X53845068Y-64092108D01*
X53845068Y-64092108D02*
X53883163Y-64054013D01*
X53883163Y-64054013D02*
X53940306Y-64034965D01*
X53940306Y-64034965D02*
X53978402Y-64034965D01*
X53978402Y-64034965D02*
X54035544Y-64054013D01*
X54035544Y-64054013D02*
X54054592Y-64073060D01*
X54435544Y-64434965D02*
X54206973Y-64434965D01*
X54321259Y-64434965D02*
X54321259Y-64034965D01*
X54321259Y-64034965D02*
X54283163Y-64092108D01*
X54283163Y-64092108D02*
X54245068Y-64130203D01*
X54245068Y-64130203D02*
X54206973Y-64149251D01*
X54587925Y-64073060D02*
X54606973Y-64054013D01*
X54606973Y-64054013D02*
X54645068Y-64034965D01*
X54645068Y-64034965D02*
X54740306Y-64034965D01*
X54740306Y-64034965D02*
X54778401Y-64054013D01*
X54778401Y-64054013D02*
X54797449Y-64073060D01*
X54797449Y-64073060D02*
X54816496Y-64111155D01*
X54816496Y-64111155D02*
X54816496Y-64149251D01*
X54816496Y-64149251D02*
X54797449Y-64206393D01*
X54797449Y-64206393D02*
X54568877Y-64434965D01*
X54568877Y-64434965D02*
X54816496Y-64434965D01*
D11*
%TO.C,U4*%
X42464047Y-50388690D02*
X42464047Y-50793452D01*
X42464047Y-50793452D02*
X42487857Y-50841071D01*
X42487857Y-50841071D02*
X42511666Y-50864880D01*
X42511666Y-50864880D02*
X42559285Y-50888690D01*
X42559285Y-50888690D02*
X42654523Y-50888690D01*
X42654523Y-50888690D02*
X42702142Y-50864880D01*
X42702142Y-50864880D02*
X42725952Y-50841071D01*
X42725952Y-50841071D02*
X42749761Y-50793452D01*
X42749761Y-50793452D02*
X42749761Y-50388690D01*
X43202143Y-50555357D02*
X43202143Y-50888690D01*
X43083095Y-50364880D02*
X42964048Y-50722023D01*
X42964048Y-50722023D02*
X43273571Y-50722023D01*
D10*
%TO.C,TP6*%
X38207145Y-56142318D02*
X38565917Y-56238450D01*
X38565917Y-56238450D02*
X38313573Y-56407470D01*
X38313573Y-56407470D02*
X38396367Y-56429654D01*
X38396367Y-56429654D02*
X38444168Y-56472042D01*
X38444168Y-56472042D02*
X38464371Y-56507034D01*
X38464371Y-56507034D02*
X38477179Y-56569625D01*
X38477179Y-56569625D02*
X38440205Y-56707614D01*
X38440205Y-56707614D02*
X38397818Y-56755415D01*
X38397818Y-56755415D02*
X38362825Y-56775618D01*
X38362825Y-56775618D02*
X38300234Y-56788427D01*
X38300234Y-56788427D02*
X38134647Y-56744058D01*
X38134647Y-56744058D02*
X38086846Y-56701670D01*
X38086846Y-56701670D02*
X38066643Y-56666677D01*
X38673797Y-56829364D02*
X38694000Y-56864356D01*
X38694000Y-56864356D02*
X38659007Y-56884559D01*
X38659007Y-56884559D02*
X38638804Y-56849567D01*
X38638804Y-56849567D02*
X38673797Y-56829364D01*
X38673797Y-56829364D02*
X38659007Y-56884559D01*
X39035081Y-56364163D02*
X39393854Y-56460295D01*
X39393854Y-56460295D02*
X39141510Y-56629315D01*
X39141510Y-56629315D02*
X39224304Y-56651499D01*
X39224304Y-56651499D02*
X39272104Y-56693887D01*
X39272104Y-56693887D02*
X39292308Y-56728879D01*
X39292308Y-56728879D02*
X39305116Y-56791470D01*
X39305116Y-56791470D02*
X39268142Y-56929459D01*
X39268142Y-56929459D02*
X39225754Y-56977260D01*
X39225754Y-56977260D02*
X39190761Y-56997463D01*
X39190761Y-56997463D02*
X39128171Y-57010271D01*
X39128171Y-57010271D02*
X38962583Y-56965902D01*
X38962583Y-56965902D02*
X38914783Y-56923515D01*
X38914783Y-56923515D02*
X38894580Y-56888522D01*
X39559441Y-56504664D02*
X39597335Y-57135984D01*
X39597335Y-57135984D02*
X39945812Y-56608192D01*
X40056204Y-56637771D02*
X40387378Y-56726509D01*
X40066499Y-57261696D02*
X40221791Y-56682140D01*
X40425272Y-57357829D02*
X40580563Y-56778273D01*
X40580563Y-56778273D02*
X40801346Y-56837432D01*
X40801346Y-56837432D02*
X40849147Y-56879819D01*
X40849147Y-56879819D02*
X40869350Y-56914812D01*
X40869350Y-56914812D02*
X40882159Y-56977403D01*
X40882159Y-56977403D02*
X40859974Y-57060196D01*
X40859974Y-57060196D02*
X40817587Y-57107997D01*
X40817587Y-57107997D02*
X40782594Y-57128200D01*
X40782594Y-57128200D02*
X40720003Y-57141009D01*
X40720003Y-57141009D02*
X40499220Y-57081850D01*
D15*
%TO.C,C21*%
X40964538Y-46590869D02*
X40683378Y-46590869D01*
X40964538Y-45570869D02*
X40683378Y-45570869D01*
%TO.C,TP10*%
X46880000Y-68870000D02*
G75*
G03*
X46880000Y-68870000I-700000J0D01*
G01*
D14*
%TO.C,12VLED1*%
X46775000Y-80565000D02*
G75*
G03*
X46775000Y-80565000I-50000J0D01*
G01*
D15*
%TO.C,C30*%
X42716365Y-88020350D02*
X42716365Y-89442854D01*
X40896365Y-88020350D02*
X40896365Y-89442854D01*
%TO.C,J4*%
X55491590Y-79220691D02*
X55791590Y-79644955D01*
X55791590Y-79644955D02*
X56091590Y-79220691D01*
X56091590Y-79220691D02*
X55491590Y-79220691D01*
X57151590Y-80604955D02*
X57151590Y-80904955D01*
X57151590Y-80904955D02*
X57601590Y-80904955D01*
X57151590Y-83104955D02*
X57151590Y-83404955D01*
X57151590Y-83404955D02*
X57601590Y-83404955D01*
X57151590Y-85604955D02*
X57151590Y-85904955D01*
X57151590Y-85904955D02*
X57601590Y-85904955D01*
X57601590Y-78924955D02*
X57601590Y-87584955D01*
X57601590Y-80604955D02*
X57151590Y-80604955D01*
X57601590Y-80904955D02*
X57601590Y-80604955D01*
X57601590Y-83104955D02*
X57151590Y-83104955D01*
X57601590Y-83404955D02*
X57601590Y-83104955D01*
X57601590Y-85604955D02*
X57151590Y-85604955D01*
X57601590Y-85904955D02*
X57601590Y-85604955D01*
X57601590Y-87584955D02*
X66281590Y-87584955D01*
X66281590Y-78924955D02*
X57601590Y-78924955D01*
X66281590Y-87584955D02*
X66281590Y-78924955D01*
%TO.C,C11*%
X46785836Y-66129000D02*
X46570164Y-66129000D01*
X46785836Y-65409000D02*
X46570164Y-65409000D01*
%TO.C,C19*%
X35069164Y-62497000D02*
X35284836Y-62497000D01*
X35069164Y-63217000D02*
X35284836Y-63217000D01*
%TO.C,R6*%
X46296359Y-66695000D02*
X46603641Y-66695000D01*
X46296359Y-67455000D02*
X46603641Y-67455000D01*
%TO.C,R15*%
X44081814Y-48590133D02*
X44081814Y-48282851D01*
X44841814Y-48590133D02*
X44841814Y-48282851D01*
%TO.C,R2*%
X50403641Y-71855000D02*
X50096359Y-71855000D01*
X50403641Y-71095000D02*
X50096359Y-71095000D01*
%TO.C,C31*%
X51854887Y-95222580D02*
X51519028Y-94822318D01*
X52980972Y-94277682D02*
X52645113Y-93877420D01*
%TO.C,R17*%
X33060000Y-49463641D02*
X33060000Y-49156359D01*
X33820000Y-49463641D02*
X33820000Y-49156359D01*
%TO.C,D2*%
X49800000Y-52240000D02*
X48500000Y-52240000D01*
X48500000Y-55360000D02*
X50500000Y-55360000D01*
%TO.C,R1*%
X57167368Y-64016175D02*
X57167368Y-63708893D01*
X57927368Y-64016175D02*
X57927368Y-63708893D01*
%TO.C,R18*%
X51434456Y-89029000D02*
X51127174Y-89029000D01*
X51434456Y-88269000D02*
X51127174Y-88269000D01*
D14*
%TO.C,TXLED1*%
X47356000Y-71466000D02*
G75*
G03*
X47356000Y-71466000I-50000J0D01*
G01*
D15*
%TO.C,C28*%
X52261446Y-87165325D02*
X52261446Y-87380997D01*
X51541446Y-87165325D02*
X51541446Y-87380997D01*
%TO.C,R34*%
X46110000Y-75373641D02*
X46110000Y-75066359D01*
X46870000Y-75373641D02*
X46870000Y-75066359D01*
%TO.C,R8*%
X38518500Y-58884258D02*
X38518500Y-58409742D01*
X39563500Y-58884258D02*
X39563500Y-58409742D01*
%TO.C,C1*%
X56251276Y-64777433D02*
X56251276Y-64561761D01*
X56971276Y-64777433D02*
X56971276Y-64561761D01*
%TO.C,ENJUMPER1*%
X61546232Y-68602660D02*
X60216232Y-68602660D01*
X61546232Y-67272660D02*
X61546232Y-68602660D01*
X61546232Y-66002660D02*
X61546232Y-63402660D01*
X61546232Y-66002660D02*
X58886232Y-66002660D01*
X61546232Y-63402660D02*
X58886232Y-63402660D01*
X58886232Y-66002660D02*
X58886232Y-63402660D01*
%TO.C,C16*%
X42713836Y-66780000D02*
X42498164Y-66780000D01*
X42713836Y-66060000D02*
X42498164Y-66060000D01*
D14*
%TO.C,SERVOLED1*%
X53773588Y-79725680D02*
G75*
G03*
X53773588Y-79725680I-50000J0D01*
G01*
D15*
%TO.C,R4*%
X52480000Y-54996359D02*
X52480000Y-55303641D01*
X51720000Y-54996359D02*
X51720000Y-55303641D01*
%TO.C,R19*%
X50684652Y-85582858D02*
X50377370Y-85582858D01*
X50684652Y-84822858D02*
X50377370Y-84822858D01*
%TO.C,C3*%
X58060000Y-65642164D02*
X58060000Y-65857836D01*
X57340000Y-65642164D02*
X57340000Y-65857836D01*
%TO.C,TP8*%
X40275000Y-53850000D02*
G75*
G03*
X40275000Y-53850000I-950000J0D01*
G01*
%TO.C,C38*%
X43774000Y-88643164D02*
X43774000Y-88858836D01*
X43054000Y-88643164D02*
X43054000Y-88858836D01*
%TO.C,R7*%
X45409000Y-79630641D02*
X45409000Y-79323359D01*
X46169000Y-79630641D02*
X46169000Y-79323359D01*
%TO.C,C18*%
X35071164Y-60494000D02*
X35286836Y-60494000D01*
X35071164Y-61214000D02*
X35286836Y-61214000D01*
%TO.C,R10*%
X37332742Y-62061500D02*
X37807258Y-62061500D01*
X37332742Y-63106500D02*
X37807258Y-63106500D01*
%TO.C,C9*%
X53152598Y-66113939D02*
X53152598Y-66329611D01*
X52432598Y-66113939D02*
X52432598Y-66329611D01*
%TO.C,J5*%
X55033000Y-47622000D02*
X55033000Y-45822000D01*
X55033000Y-42112000D02*
X55033000Y-43572000D01*
X46093000Y-47622000D02*
X46093000Y-45822000D01*
X46093000Y-42112000D02*
X55033000Y-42112000D01*
X46093000Y-42112000D02*
X46093000Y-43572000D01*
%TO.C,C17*%
X35284836Y-62211000D02*
X35069164Y-62211000D01*
X35284836Y-61491000D02*
X35069164Y-61491000D01*
%TO.C,C8*%
X55760456Y-61255204D02*
X55760456Y-61470876D01*
X55040456Y-61255204D02*
X55040456Y-61470876D01*
%TO.C,R21*%
X43866500Y-84833258D02*
X43866500Y-84358742D01*
X44911500Y-84833258D02*
X44911500Y-84358742D01*
D16*
%TO.C,U5*%
X32475000Y-56100000D02*
X32475000Y-52100000D01*
X37475000Y-56100000D02*
X37475000Y-52100000D01*
D17*
X32570000Y-58365000D02*
G75*
G03*
X32570000Y-58365000I-100000J0D01*
G01*
D15*
%TO.C,C20*%
X43493978Y-45076492D02*
X43709650Y-45076492D01*
X43493978Y-45796492D02*
X43709650Y-45796492D01*
%TO.C,TP1*%
X52450000Y-52725000D02*
G75*
G03*
X52450000Y-52725000I-700000J0D01*
G01*
%TO.C,C14*%
X52599000Y-68701164D02*
X52599000Y-68916836D01*
X51879000Y-68701164D02*
X51879000Y-68916836D01*
%TO.C,R26*%
X38911900Y-66293387D02*
X38911900Y-65986105D01*
X39671900Y-66293387D02*
X39671900Y-65986105D01*
%TO.C,C4*%
X56050682Y-66379557D02*
X56050682Y-66595229D01*
X55330682Y-66379557D02*
X55330682Y-66595229D01*
%TO.C,J2*%
X56345722Y-48593068D02*
X56345722Y-58873068D01*
X56345722Y-48593068D02*
X58945722Y-48593068D01*
X56345722Y-58873068D02*
X61545722Y-58873068D01*
X58945722Y-48593068D02*
X58945722Y-51193068D01*
X58945722Y-51193068D02*
X61545722Y-51193068D01*
X60215722Y-48593068D02*
X61545722Y-48593068D01*
X61545722Y-48593068D02*
X61545722Y-49923068D01*
X61545722Y-51193068D02*
X61545722Y-58873068D01*
%TO.C,R27*%
X43486359Y-67310000D02*
X43793641Y-67310000D01*
X43486359Y-68070000D02*
X43793641Y-68070000D01*
%TO.C,C23*%
X41152394Y-51661492D02*
X40871234Y-51661492D01*
X41152394Y-50641492D02*
X40871234Y-50641492D01*
%TO.C,R3*%
X54850000Y-61186359D02*
X54850000Y-61493641D01*
X54090000Y-61186359D02*
X54090000Y-61493641D01*
D17*
%TO.C,L4*%
X42080000Y-92110000D02*
X50480000Y-92110000D01*
X42080000Y-100110000D02*
X42080000Y-92110000D01*
D14*
X46280000Y-100610000D02*
X46280000Y-100610000D01*
X46280000Y-100710000D02*
X46280000Y-100710000D01*
D17*
X50480000Y-92110000D02*
X50480000Y-100110000D01*
X50480000Y-100110000D02*
X42080000Y-100110000D01*
D14*
X46280000Y-100710000D02*
G75*
G03*
X46280000Y-100610000I0J50000D01*
G01*
X46280000Y-100610000D02*
G75*
G03*
X46280000Y-100710000I0J-50000D01*
G01*
D15*
%TO.C,BOOTJUMPER1*%
X61544778Y-59796857D02*
X61544778Y-61126857D01*
X60214778Y-59796857D02*
X61544778Y-59796857D01*
X58944778Y-59796857D02*
X56344778Y-59796857D01*
X58944778Y-59796857D02*
X58944778Y-62456857D01*
X56344778Y-59796857D02*
X56344778Y-62456857D01*
X58944778Y-62456857D02*
X56344778Y-62456857D01*
%TO.C,R11*%
X51552764Y-51432799D02*
X51245482Y-51432799D01*
X51552764Y-50672799D02*
X51245482Y-50672799D01*
%TO.C,TP2*%
X47300000Y-56075000D02*
G75*
G03*
X47300000Y-56075000I-700000J0D01*
G01*
%TO.C,C32*%
X40413584Y-88024162D02*
X40413584Y-89446666D01*
X38593584Y-88024162D02*
X38593584Y-89446666D01*
%TO.C,R25*%
X54105000Y-76621359D02*
X54105000Y-76928641D01*
X53345000Y-76621359D02*
X53345000Y-76928641D01*
%TO.C,C2*%
X58065879Y-67462622D02*
X58065879Y-67678294D01*
X57345879Y-67462622D02*
X57345879Y-67678294D01*
%TO.C,C46*%
X59022248Y-93453402D02*
X59544752Y-93453402D01*
X59022248Y-94923402D02*
X59544752Y-94923402D01*
%TO.C,C36*%
X35815377Y-88023482D02*
X35815377Y-89445986D01*
X33995377Y-88023482D02*
X33995377Y-89445986D01*
%TO.C,C24*%
X34557836Y-58624215D02*
X34342164Y-58624215D01*
X34557836Y-57904215D02*
X34342164Y-57904215D01*
%TO.C,C5*%
X56970682Y-66380557D02*
X56970682Y-66596229D01*
X56250682Y-66380557D02*
X56250682Y-66596229D01*
D14*
%TO.C,CANTXLED1*%
X39350000Y-63185000D02*
G75*
G03*
X39350000Y-63185000I-50000J0D01*
G01*
D15*
%TO.C,C49*%
X58538748Y-88840000D02*
X59961252Y-88840000D01*
X58538748Y-90660000D02*
X59961252Y-90660000D01*
%TO.C,R35*%
X47820000Y-75056359D02*
X47820000Y-75363641D01*
X47060000Y-75056359D02*
X47060000Y-75363641D01*
%TO.C,R14*%
X39866173Y-44116492D02*
X40173455Y-44116492D01*
X39866173Y-44876492D02*
X40173455Y-44876492D01*
D14*
%TO.C,USBLED1*%
X43781463Y-55195240D02*
G75*
G03*
X43781463Y-55195240I-50000J0D01*
G01*
D15*
%TO.C,C35*%
X54332457Y-97879038D02*
X55043709Y-99110962D01*
X52756291Y-98789038D02*
X53467543Y-100020962D01*
%TO.C,R23*%
X46659000Y-85064641D02*
X46659000Y-84757359D01*
X47419000Y-85064641D02*
X47419000Y-84757359D01*
%TO.C,TP7*%
X46300000Y-52400000D02*
G75*
G03*
X46300000Y-52400000I-950000J0D01*
G01*
D17*
%TO.C,U3*%
X43244814Y-44866492D02*
X42769814Y-44866492D01*
X42419814Y-44766492D02*
X41919814Y-44766492D01*
X42419814Y-42666492D02*
X42419814Y-44766492D01*
X41919814Y-44766492D02*
X41919814Y-42666492D01*
X41919814Y-42666492D02*
X42419814Y-42666492D01*
D15*
%TO.C,C33*%
X55311252Y-90660000D02*
X53888748Y-90660000D01*
X55311252Y-88840000D02*
X53888748Y-88840000D01*
%TO.C,L3*%
X39003853Y-48224436D02*
X39003853Y-49023680D01*
X37883853Y-48224436D02*
X37883853Y-49023680D01*
%TO.C,J3*%
X55490000Y-69775194D02*
X55790000Y-70199458D01*
X55790000Y-70199458D02*
X56090000Y-69775194D01*
X56090000Y-69775194D02*
X55490000Y-69775194D01*
X57150000Y-71159458D02*
X57150000Y-71459458D01*
X57150000Y-71459458D02*
X57600000Y-71459458D01*
X57150000Y-73659458D02*
X57150000Y-73959458D01*
X57150000Y-73959458D02*
X57600000Y-73959458D01*
X57150000Y-76159458D02*
X57150000Y-76459458D01*
X57150000Y-76459458D02*
X57600000Y-76459458D01*
X57600000Y-69479458D02*
X57600000Y-78139458D01*
X57600000Y-71159458D02*
X57150000Y-71159458D01*
X57600000Y-71459458D02*
X57600000Y-71159458D01*
X57600000Y-73659458D02*
X57150000Y-73659458D01*
X57600000Y-73959458D02*
X57600000Y-73659458D01*
X57600000Y-76159458D02*
X57150000Y-76159458D01*
X57600000Y-76459458D02*
X57600000Y-76159458D01*
X57600000Y-78139458D02*
X66280000Y-78139458D01*
X66280000Y-69479458D02*
X57600000Y-69479458D01*
X66280000Y-78139458D02*
X66280000Y-69479458D01*
%TO.C,TP9*%
X47100000Y-71550000D02*
G75*
G03*
X47100000Y-71550000I-700000J0D01*
G01*
D16*
%TO.C,U1*%
X52800000Y-64710000D02*
X52800000Y-64240000D01*
X52800000Y-64710000D02*
X52330000Y-64710000D01*
X52800000Y-57710000D02*
X52800000Y-58180000D01*
X52800000Y-57710000D02*
X52330000Y-57710000D01*
X45800000Y-64710000D02*
X46270000Y-64710000D01*
X45800000Y-64710000D02*
X45800000Y-64240000D01*
X45800000Y-57710000D02*
X46270000Y-57710000D01*
X45800000Y-57710000D02*
X45800000Y-58180000D01*
D17*
X53855000Y-63810000D02*
G75*
G03*
X53855000Y-63810000I-100000J0D01*
G01*
D15*
%TO.C,TP5*%
X42424000Y-53786000D02*
G75*
G03*
X42424000Y-53786000I-950000J0D01*
G01*
%TO.C,U2*%
X39916000Y-61340000D02*
X39916000Y-64790000D01*
X39916000Y-61340000D02*
X39916000Y-59390000D01*
X45036000Y-61340000D02*
X45036000Y-63290000D01*
X45036000Y-61340000D02*
X45036000Y-59390000D01*
%TO.C,C27*%
X36793344Y-49224814D02*
X36577672Y-49224814D01*
X36793344Y-48504814D02*
X36577672Y-48504814D01*
%TO.C,R12*%
X46695000Y-52428641D02*
X46695000Y-52121359D01*
X47455000Y-52428641D02*
X47455000Y-52121359D01*
%TO.C,C47*%
X58528748Y-91140000D02*
X59951252Y-91140000D01*
X58528748Y-92960000D02*
X59951252Y-92960000D01*
%TO.C,R9*%
X37807258Y-61649500D02*
X37332742Y-61649500D01*
X37807258Y-60604500D02*
X37332742Y-60604500D01*
%TO.C,R20*%
X50593488Y-86729532D02*
X50593488Y-86422250D01*
X51353488Y-86729532D02*
X51353488Y-86422250D01*
%TO.C,C29*%
X51249000Y-89908164D02*
X51249000Y-90123836D01*
X50529000Y-89908164D02*
X50529000Y-90123836D01*
D14*
%TO.C,U6*%
X44500000Y-87806000D02*
X44500000Y-87806000D01*
X44600000Y-87806000D02*
X44600000Y-87806000D01*
X45000000Y-86700000D02*
X45000000Y-87500000D01*
X45000000Y-89900000D02*
X45000000Y-90706000D01*
X45000000Y-90706000D02*
X45200000Y-90706000D01*
X45200000Y-86700000D02*
X45000000Y-86700000D01*
X48800000Y-86694000D02*
X49000000Y-86694000D01*
X49000000Y-86694000D02*
X49000000Y-87100000D01*
X49000000Y-90500000D02*
X49000000Y-90706000D01*
X49000000Y-90706000D02*
X48400000Y-90706000D01*
X44600000Y-87806000D02*
G75*
G03*
X44500000Y-87806000I-50000J0D01*
G01*
X44500000Y-87806000D02*
G75*
G03*
X44600000Y-87806000I50000J0D01*
G01*
D15*
%TO.C,J1*%
X23365000Y-82600000D02*
X23365000Y-75590000D01*
X36385000Y-82600000D02*
X23365000Y-82600000D01*
X37075000Y-82390000D02*
X37375000Y-81790000D01*
X37675000Y-82390000D02*
X37075000Y-82390000D01*
X36385000Y-81790000D02*
X36385000Y-82600000D01*
X37375000Y-81790000D02*
X37675000Y-82390000D01*
X39485000Y-80090000D02*
X40765000Y-80090000D01*
X39485000Y-79490000D02*
X40765000Y-79490000D01*
X36375000Y-78180000D02*
X36375000Y-77200000D01*
X39485000Y-75890000D02*
X40765000Y-75890000D01*
X39485000Y-75290000D02*
X40765000Y-75290000D01*
X36375000Y-73980000D02*
X36375000Y-73000000D01*
X39485000Y-71690000D02*
X40765000Y-71690000D01*
X39485000Y-71090000D02*
X40765000Y-71090000D01*
X36385000Y-69390000D02*
X36385000Y-68580000D01*
X23365000Y-68580000D02*
X23365000Y-75590000D01*
X36385000Y-68580000D02*
X23365000Y-68580000D01*
D14*
%TO.C,CANRXLED1*%
X44610437Y-65204761D02*
G75*
G03*
X44610437Y-65204761I-50000J0D01*
G01*
D15*
%TO.C,TP4*%
X39525000Y-43675000D02*
G75*
G03*
X39525000Y-43675000I-950000J0D01*
G01*
%TO.C,C6*%
X54836407Y-62892642D02*
X55052079Y-62892642D01*
X54836407Y-63612642D02*
X55052079Y-63612642D01*
%TO.C,C15*%
X42713836Y-65860000D02*
X42498164Y-65860000D01*
X42713836Y-65140000D02*
X42498164Y-65140000D01*
%TO.C,C22*%
X43493978Y-45996492D02*
X43709650Y-45996492D01*
X43493978Y-46716492D02*
X43709650Y-46716492D01*
%TO.C,C13*%
X48160000Y-68909836D02*
X48160000Y-68694164D01*
X48880000Y-68909836D02*
X48880000Y-68694164D01*
%TO.C,C34*%
X38113584Y-88022122D02*
X38113584Y-89444626D01*
X36293584Y-88022122D02*
X36293584Y-89444626D01*
%TO.C,C25*%
X34557854Y-59546291D02*
X34342182Y-59546291D01*
X34557854Y-58826291D02*
X34342182Y-58826291D01*
%TO.C,R16*%
X34991864Y-50154814D02*
X34684582Y-50154814D01*
X34991864Y-49394814D02*
X34684582Y-49394814D01*
%TO.C,C37*%
X55161252Y-92960000D02*
X53738748Y-92960000D01*
X55161252Y-91140000D02*
X53738748Y-91140000D01*
%TO.C,R24*%
X50684652Y-84661579D02*
X50377370Y-84661579D01*
X50684652Y-83901579D02*
X50377370Y-83901579D01*
%TO.C,R5*%
X54279049Y-66392954D02*
X54279049Y-66085672D01*
X55039049Y-66392954D02*
X55039049Y-66085672D01*
%TO.C,C10*%
X50291740Y-56291006D02*
X50507412Y-56291006D01*
X50291740Y-57011006D02*
X50507412Y-57011006D01*
%TO.C,C26*%
X36793344Y-50144814D02*
X36577672Y-50144814D01*
X36793344Y-49424814D02*
X36577672Y-49424814D01*
%TO.C,C7*%
X54072052Y-66114358D02*
X54072052Y-66330030D01*
X53352052Y-66114358D02*
X53352052Y-66330030D01*
%TO.C,R22*%
X47599000Y-85064641D02*
X47599000Y-84757359D01*
X48359000Y-85064641D02*
X48359000Y-84757359D01*
%TO.C,C39*%
X45229000Y-84893836D02*
X45229000Y-84678164D01*
X45949000Y-84893836D02*
X45949000Y-84678164D01*
%TO.C,D1*%
X33214999Y-65262500D02*
X33214999Y-66937500D01*
X33214999Y-65262500D02*
X33214999Y-64612500D01*
X36334999Y-65262500D02*
X36334999Y-65912500D01*
X36334999Y-65262500D02*
X36334999Y-64612500D01*
%TO.C,R13*%
X44108248Y-52091750D02*
X44108248Y-52399032D01*
X43348248Y-52091750D02*
X43348248Y-52399032D01*
%TO.C,Y1*%
X51728000Y-69978000D02*
X51728000Y-67678000D01*
X51728000Y-67678000D02*
X49028000Y-67678000D01*
D14*
%TO.C,3V3LED1*%
X53093159Y-56235521D02*
G75*
G03*
X53093159Y-56235521I-50000J0D01*
G01*
D15*
%TO.C,C12*%
X54423931Y-65207354D02*
X54208259Y-65207354D01*
X54423931Y-64487354D02*
X54208259Y-64487354D01*
D16*
%TO.C,U4*%
X43691814Y-50119418D02*
X43691814Y-49839418D01*
X43691814Y-50119418D02*
X43411814Y-50119418D01*
X43691814Y-47119418D02*
X43691814Y-47399418D01*
X43691814Y-47119418D02*
X43411814Y-47119418D01*
X40691814Y-50119418D02*
X40971814Y-50119418D01*
X40691814Y-50119418D02*
X40691814Y-49839418D01*
X40691814Y-47119418D02*
X40971814Y-47119418D01*
X40691814Y-47119418D02*
X40691814Y-47399418D01*
D17*
X44466735Y-49559572D02*
G75*
G03*
X44466735Y-49559572I-100000J0D01*
G01*
D15*
%TO.C,TP6*%
X41198289Y-55514740D02*
G75*
G03*
X41198289Y-55514740I-950000J0D01*
G01*
%TD*%
M02*
