%TF.GenerationSoftware,KiCad,Pcbnew,(7.0.0)*%
%TF.CreationDate,2023-06-12T15:08:34+01:00*%
%TF.ProjectId,Chad,43686164-2e6b-4696-9361-645f70636258,rev?*%
%TF.SameCoordinates,Original*%
%TF.FileFunction,Copper,L2,Inr*%
%TF.FilePolarity,Positive*%
%FSLAX46Y46*%
G04 Gerber Fmt 4.6, Leading zero omitted, Abs format (unit mm)*
G04 Created by KiCad (PCBNEW (7.0.0)) date 2023-06-12 15:08:34*
%MOMM*%
%LPD*%
G01*
G04 APERTURE LIST*
G04 Aperture macros list*
%AMRoundRect*
0 Rectangle with rounded corners*
0 $1 Rounding radius*
0 $2 $3 $4 $5 $6 $7 $8 $9 X,Y pos of 4 corners*
0 Add a 4 corners polygon primitive as box body*
4,1,4,$2,$3,$4,$5,$6,$7,$8,$9,$2,$3,0*
0 Add four circle primitives for the rounded corners*
1,1,$1+$1,$2,$3*
1,1,$1+$1,$4,$5*
1,1,$1+$1,$6,$7*
1,1,$1+$1,$8,$9*
0 Add four rect primitives between the rounded corners*
20,1,$1+$1,$2,$3,$4,$5,0*
20,1,$1+$1,$4,$5,$6,$7,0*
20,1,$1+$1,$6,$7,$8,$9,0*
20,1,$1+$1,$8,$9,$2,$3,0*%
G04 Aperture macros list end*
%TA.AperFunction,ComponentPad*%
%ADD10RoundRect,0.250000X-0.850000X-0.600000X0.850000X-0.600000X0.850000X0.600000X-0.850000X0.600000X0*%
%TD*%
%TA.AperFunction,ComponentPad*%
%ADD11O,2.200000X1.700000*%
%TD*%
%TA.AperFunction,ComponentPad*%
%ADD12C,5.600000*%
%TD*%
%TA.AperFunction,ComponentPad*%
%ADD13R,1.700000X1.700000*%
%TD*%
%TA.AperFunction,ComponentPad*%
%ADD14O,1.700000X1.700000*%
%TD*%
%TA.AperFunction,ComponentPad*%
%ADD15O,0.900000X2.000000*%
%TD*%
%TA.AperFunction,ComponentPad*%
%ADD16O,0.900000X1.700000*%
%TD*%
%TA.AperFunction,ComponentPad*%
%ADD17RoundRect,0.250001X1.599999X-1.099999X1.599999X1.099999X-1.599999X1.099999X-1.599999X-1.099999X0*%
%TD*%
%TA.AperFunction,ComponentPad*%
%ADD18O,3.700000X2.700000*%
%TD*%
%TA.AperFunction,ViaPad*%
%ADD19C,0.450000*%
%TD*%
%TA.AperFunction,ViaPad*%
%ADD20C,0.600000*%
%TD*%
%TA.AperFunction,ViaPad*%
%ADD21C,0.800000*%
%TD*%
G04 APERTURE END LIST*
D10*
%TO.N,GND*%
%TO.C,J4*%
X55791590Y-80754955D03*
D11*
%TO.N,+6V*%
X55791589Y-83254954D03*
%TO.N,/Servo2PWM*%
X55791589Y-85754954D03*
%TD*%
D12*
%TO.N,GND*%
%TO.C,H3*%
X59000000Y-99090000D03*
%TD*%
D13*
%TO.N,GND*%
%TO.C,ENJUMPER1*%
X60216231Y-67272659D03*
D14*
%TO.N,/CHIP_PU*%
X60216231Y-64732659D03*
%TD*%
D15*
%TO.N,GND*%
%TO.C,J5*%
X54882999Y-48881999D03*
D16*
X54882999Y-44711999D03*
D15*
X46242999Y-48881999D03*
D16*
X46242999Y-44711999D03*
%TD*%
D13*
%TO.N,GND*%
%TO.C,J2*%
X60215721Y-49923067D03*
D14*
%TO.N,/GPIO0*%
X57675721Y-49923067D03*
%TO.N,/GPIO1*%
X60215721Y-52463067D03*
%TO.N,/GPIO2*%
X57675721Y-52463067D03*
%TO.N,+3V3*%
X60215721Y-55003067D03*
%TO.N,/GPIO3*%
X57675721Y-55003067D03*
%TO.N,/GPIO4*%
X60215721Y-57543067D03*
%TO.N,/GPIO5*%
X57675721Y-57543067D03*
%TD*%
D13*
%TO.N,GND*%
%TO.C,BOOTJUMPER1*%
X60214777Y-61126856D03*
D14*
%TO.N,/BOOT*%
X57674777Y-61126856D03*
%TD*%
D12*
%TO.N,GND*%
%TO.C,H4*%
X35000000Y-45090000D03*
%TD*%
D10*
%TO.N,GND*%
%TO.C,J3*%
X55790000Y-71309458D03*
D11*
%TO.N,+6V*%
X55789999Y-73809457D03*
%TO.N,/Servo1PWM*%
X55789999Y-76309457D03*
%TD*%
D12*
%TO.N,GND*%
%TO.C,H2*%
X59000000Y-45090000D03*
%TD*%
D17*
%TO.N,GND*%
%TO.C,J1*%
X37375000Y-79790000D03*
D18*
X37374999Y-75589999D03*
%TO.N,RBUS_uC_V*%
X37374999Y-71389999D03*
%TO.N,+12V*%
X42874999Y-79789999D03*
%TO.N,/CAN+*%
X42874999Y-75589999D03*
%TO.N,/CAN-*%
X42874999Y-71389999D03*
%TD*%
D12*
%TO.N,GND*%
%TO.C,H1*%
X35000000Y-99090000D03*
%TD*%
D19*
%TO.N,GND*%
X52850000Y-69950000D03*
X56022000Y-63154000D03*
D20*
X61400000Y-59075000D03*
X32600000Y-90275000D03*
X32600000Y-82775000D03*
X32600000Y-75225000D03*
X61400000Y-54075000D03*
D19*
X53125000Y-68925000D03*
X47550000Y-87850000D03*
X50185000Y-66070000D03*
D20*
X61400000Y-74125000D03*
D19*
X34721000Y-61162000D03*
X55125000Y-67325000D03*
D20*
X47522000Y-61252000D03*
X61400000Y-76625000D03*
D21*
X35718000Y-93221000D03*
D19*
X50373703Y-70321851D03*
X52062000Y-66665000D03*
D21*
X34850000Y-91350000D03*
D19*
X46975000Y-89000000D03*
D20*
X32600000Y-67725000D03*
X50025000Y-42700000D03*
X32600000Y-60175000D03*
D19*
X47779626Y-68653703D03*
D20*
X45025000Y-42700000D03*
D19*
X52030000Y-66060000D03*
D20*
X32600000Y-72725000D03*
X51059000Y-61227000D03*
X51047000Y-62943000D03*
X61400000Y-81625000D03*
D19*
X55425000Y-60475000D03*
D21*
X37784000Y-93151000D03*
D20*
X51000000Y-53925000D03*
X32600000Y-87775000D03*
D21*
X44275000Y-89419000D03*
D19*
X51966000Y-65464000D03*
X47470000Y-53430000D03*
D20*
X48115000Y-79986000D03*
X55075000Y-42700000D03*
X61400000Y-89175000D03*
D21*
X52065000Y-90834000D03*
D20*
X32600000Y-85275000D03*
D19*
X45775000Y-89700000D03*
X50191000Y-66653000D03*
X45725000Y-89000000D03*
D20*
X47530000Y-59471000D03*
X61400000Y-94175000D03*
D21*
X52673000Y-88414000D03*
X45300000Y-81125000D03*
D20*
X39025000Y-101475000D03*
X32600000Y-77725000D03*
X49025000Y-101475000D03*
D19*
X58200000Y-64825000D03*
X50192000Y-65472000D03*
X46675000Y-83875000D03*
D20*
X61400000Y-79125000D03*
X48990000Y-68322000D03*
X32600000Y-92775000D03*
X54075000Y-101475000D03*
X51706000Y-69327000D03*
X32600000Y-54975000D03*
D19*
X45610000Y-65770000D03*
D20*
X61400000Y-84175000D03*
X32599500Y-58100000D03*
D19*
X51520000Y-56660000D03*
D20*
X61400000Y-86675000D03*
X49308000Y-62966000D03*
X46525000Y-101475000D03*
D21*
X39890000Y-93226000D03*
D20*
X39925000Y-42700000D03*
D21*
X36475000Y-54125000D03*
D20*
X32600000Y-95275000D03*
D19*
X49345000Y-67292000D03*
X51860446Y-70311334D03*
X57200000Y-67600000D03*
X34770000Y-63215000D03*
D20*
X49334000Y-59451000D03*
D19*
X43595000Y-44606000D03*
D20*
X41525000Y-101475000D03*
X32600000Y-70225000D03*
X32600000Y-50175000D03*
X47525000Y-42700000D03*
X61400000Y-64075000D03*
D19*
X42539000Y-42650000D03*
D20*
X61400000Y-56575000D03*
X61400000Y-69125000D03*
X61400000Y-71625000D03*
D19*
X49040000Y-70315311D03*
D20*
X32600000Y-52675000D03*
X51525000Y-101475000D03*
D19*
X56827000Y-63655000D03*
D20*
X61400000Y-51575000D03*
D19*
X52189000Y-67397000D03*
X47050000Y-89700000D03*
X52930000Y-67796000D03*
D21*
X36850000Y-91450000D03*
D20*
X61400000Y-91675000D03*
D19*
X48300169Y-67549633D03*
D20*
X32600000Y-62675000D03*
D21*
X39000000Y-91550000D03*
D20*
X49317000Y-61213000D03*
X47748000Y-62902000D03*
D19*
X41550000Y-65950000D03*
D21*
X40950000Y-91600000D03*
D20*
X32600000Y-80225000D03*
D19*
X47789135Y-69721355D03*
X47925000Y-88925000D03*
D20*
X32600000Y-65225000D03*
X44372814Y-47128492D03*
X54096000Y-79832000D03*
D19*
X50093000Y-67200000D03*
D20*
X51033000Y-59426000D03*
X44025000Y-101475000D03*
X52575000Y-42700000D03*
D19*
%TO.N,+3V3*%
X54024000Y-66037000D03*
X53900000Y-61280000D03*
X57055705Y-65576723D03*
X50110000Y-56030000D03*
D20*
X41394215Y-56136334D03*
D19*
X43100000Y-67000000D03*
X50260000Y-72100000D03*
X46835000Y-66297000D03*
D21*
X35320508Y-48849814D03*
D19*
X39900000Y-66150000D03*
%TO.N,Net-(JP1-B)*%
X42200000Y-57412000D03*
X37417000Y-61873000D03*
%TO.N,VBUS*%
X40020000Y-43890000D03*
X43680000Y-43970000D03*
D20*
%TO.N,RBUS_uC_V*%
X40550000Y-43275000D03*
X42400000Y-52400000D03*
D21*
%TO.N,+12V*%
X40400000Y-84400000D03*
D19*
X45825000Y-87850000D03*
D21*
X40400000Y-85850000D03*
X42550000Y-85950000D03*
X38100000Y-85850000D03*
X35650000Y-84400000D03*
X42650000Y-84400000D03*
X38100000Y-84400000D03*
X44304000Y-87201000D03*
X35700000Y-85850000D03*
D19*
%TO.N,/Servo1PWM*%
X46825000Y-62600000D03*
%TO.N,/BuckPGOOD*%
X44929000Y-61609000D03*
X46960000Y-74400000D03*
%TO.N,/Power/LX1*%
X38153576Y-48096290D03*
X38163173Y-46941885D03*
X38747818Y-46941885D03*
X41500000Y-48103306D03*
X38778579Y-48097381D03*
X40703000Y-47037000D03*
X40704000Y-47618000D03*
%TO.N,/Power/LX2*%
X38097686Y-50302139D03*
X38760000Y-49150000D03*
X38808858Y-50303229D03*
X40693000Y-49583000D03*
X38129580Y-49153664D03*
X41500000Y-49130000D03*
X40681000Y-50167000D03*
D21*
%TO.N,+6V*%
X47440000Y-96560000D03*
X44580000Y-100470000D03*
X47440000Y-100450000D03*
X42030000Y-100480000D03*
X50380000Y-100470000D03*
X42005000Y-97870000D03*
X50416000Y-99122000D03*
X44580000Y-96580000D03*
X42030000Y-99141000D03*
X50478000Y-97888000D03*
X42030000Y-96590000D03*
X50380000Y-96580000D03*
D19*
%TO.N,/Servo2PWM*%
X46714000Y-63820000D03*
%TO.N,/buckC/VDD*%
X51389000Y-87996000D03*
X48375000Y-83850000D03*
%TO.N,/buckC/PGOOD*%
X50090000Y-88782168D03*
X47450000Y-76250000D03*
%TO.N,/ServoV_LOG*%
X51883445Y-60610000D03*
X52753000Y-71949000D03*
%TO.N,/BUCK_EN*%
X48148000Y-73355000D03*
X45170000Y-64655000D03*
%TD*%
%TA.AperFunction,Conductor*%
%TO.N,GND*%
G36*
X59002777Y-42390655D02*
G01*
X59296701Y-42407162D01*
X59307724Y-42408404D01*
X59595224Y-42457252D01*
X59606018Y-42459715D01*
X59886251Y-42540449D01*
X59896722Y-42544113D01*
X60166134Y-42655708D01*
X60176136Y-42660525D01*
X60431354Y-42801578D01*
X60440755Y-42807485D01*
X60678575Y-42976228D01*
X60687254Y-42983149D01*
X60717388Y-43010078D01*
X60904697Y-43177467D01*
X60912532Y-43185302D01*
X61006053Y-43289952D01*
X61106850Y-43402745D01*
X61113771Y-43411424D01*
X61282514Y-43649244D01*
X61288421Y-43658645D01*
X61429474Y-43913863D01*
X61434291Y-43923865D01*
X61545884Y-44193273D01*
X61549551Y-44203752D01*
X61630280Y-44483966D01*
X61632750Y-44494790D01*
X61681594Y-44782270D01*
X61682837Y-44793302D01*
X61699344Y-45087222D01*
X61699500Y-45092773D01*
X61699500Y-48678650D01*
X55825000Y-48750000D01*
X55848783Y-42390500D01*
X58952405Y-42390500D01*
X58997227Y-42390500D01*
X59002777Y-42390655D01*
G37*
%TD.AperFunction*%
%TD*%
%TA.AperFunction,Conductor*%
%TO.N,GND*%
G36*
X55825000Y-48750000D02*
G01*
X61699500Y-48678650D01*
X61699500Y-99087917D01*
X61699384Y-99092066D01*
X61682758Y-99388106D01*
X61681828Y-99396352D01*
X61632515Y-99686591D01*
X61630669Y-99694682D01*
X61549163Y-99977595D01*
X61546422Y-99985428D01*
X61433755Y-100257428D01*
X61430155Y-100264904D01*
X61287740Y-100522587D01*
X61283324Y-100529614D01*
X61112962Y-100769716D01*
X61107789Y-100776204D01*
X60911604Y-100995736D01*
X60905736Y-101001604D01*
X60686204Y-101197789D01*
X60679716Y-101202962D01*
X60439614Y-101373324D01*
X60432587Y-101377740D01*
X60174904Y-101520155D01*
X60167428Y-101523755D01*
X59895428Y-101636422D01*
X59887595Y-101639163D01*
X59604682Y-101720669D01*
X59596591Y-101722515D01*
X59306352Y-101771828D01*
X59298106Y-101772758D01*
X59002066Y-101789384D01*
X58997917Y-101789500D01*
X35002083Y-101789500D01*
X34997934Y-101789384D01*
X34701893Y-101772758D01*
X34693647Y-101771828D01*
X34403408Y-101722515D01*
X34395317Y-101720669D01*
X34112404Y-101639163D01*
X34104571Y-101636422D01*
X33832571Y-101523755D01*
X33825095Y-101520155D01*
X33567412Y-101377740D01*
X33560385Y-101373324D01*
X33320283Y-101202962D01*
X33313795Y-101197789D01*
X33111449Y-101016962D01*
X33094258Y-101001599D01*
X33088400Y-100995741D01*
X32892209Y-100776203D01*
X32887037Y-100769716D01*
X32868180Y-100743140D01*
X32716671Y-100529608D01*
X32712263Y-100522594D01*
X32688722Y-100480000D01*
X41474750Y-100480000D01*
X41493670Y-100623709D01*
X41495525Y-100628189D01*
X41495526Y-100628190D01*
X41546591Y-100751475D01*
X41549139Y-100757625D01*
X41637379Y-100872621D01*
X41752375Y-100960861D01*
X41886291Y-101016330D01*
X42030000Y-101035250D01*
X42173709Y-101016330D01*
X42307625Y-100960861D01*
X42422621Y-100872621D01*
X42510861Y-100757625D01*
X42566330Y-100623709D01*
X42585250Y-100480000D01*
X42583933Y-100470000D01*
X44024750Y-100470000D01*
X44043670Y-100613709D01*
X44045525Y-100618189D01*
X44045526Y-100618190D01*
X44092449Y-100731475D01*
X44099139Y-100747625D01*
X44102092Y-100751473D01*
X44102093Y-100751475D01*
X44169077Y-100838770D01*
X44187379Y-100862621D01*
X44302375Y-100950861D01*
X44436291Y-101006330D01*
X44580000Y-101025250D01*
X44723709Y-101006330D01*
X44857625Y-100950861D01*
X44972621Y-100862621D01*
X45060861Y-100747625D01*
X45116330Y-100613709D01*
X45135250Y-100470000D01*
X45132617Y-100450000D01*
X46884750Y-100450000D01*
X46903670Y-100593709D01*
X46959139Y-100727625D01*
X46962092Y-100731473D01*
X46962093Y-100731475D01*
X46977440Y-100751475D01*
X47047379Y-100842621D01*
X47162375Y-100930861D01*
X47296291Y-100986330D01*
X47440000Y-101005250D01*
X47583709Y-100986330D01*
X47717625Y-100930861D01*
X47832621Y-100842621D01*
X47920861Y-100727625D01*
X47976330Y-100593709D01*
X47992617Y-100470000D01*
X49824750Y-100470000D01*
X49843670Y-100613709D01*
X49845525Y-100618189D01*
X49845526Y-100618190D01*
X49892449Y-100731475D01*
X49899139Y-100747625D01*
X49902092Y-100751473D01*
X49902093Y-100751475D01*
X49969077Y-100838770D01*
X49987379Y-100862621D01*
X50102375Y-100950861D01*
X50236291Y-101006330D01*
X50380000Y-101025250D01*
X50523709Y-101006330D01*
X50657625Y-100950861D01*
X50772621Y-100862621D01*
X50860861Y-100747625D01*
X50916330Y-100613709D01*
X50935250Y-100470000D01*
X50916330Y-100326291D01*
X50860861Y-100192375D01*
X50772621Y-100077379D01*
X50657625Y-99989139D01*
X50653141Y-99987281D01*
X50653140Y-99987281D01*
X50528190Y-99935526D01*
X50528189Y-99935525D01*
X50523709Y-99933670D01*
X50380000Y-99914750D01*
X50375192Y-99915383D01*
X50241098Y-99933037D01*
X50241097Y-99933037D01*
X50236291Y-99933670D01*
X50231812Y-99935525D01*
X50231809Y-99935526D01*
X50106859Y-99987281D01*
X50106854Y-99987283D01*
X50102375Y-99989139D01*
X50098529Y-99992089D01*
X50098524Y-99992093D01*
X49991229Y-100074424D01*
X49991225Y-100074427D01*
X49987379Y-100077379D01*
X49984427Y-100081225D01*
X49984424Y-100081229D01*
X49902093Y-100188524D01*
X49902089Y-100188529D01*
X49899139Y-100192375D01*
X49897283Y-100196854D01*
X49897281Y-100196859D01*
X49851954Y-100306291D01*
X49843670Y-100326291D01*
X49843037Y-100331097D01*
X49843037Y-100331098D01*
X49828016Y-100445192D01*
X49824750Y-100470000D01*
X47992617Y-100470000D01*
X47995250Y-100450000D01*
X47976330Y-100306291D01*
X47920861Y-100172375D01*
X47832621Y-100057379D01*
X47747539Y-99992093D01*
X47721475Y-99972093D01*
X47721473Y-99972092D01*
X47717625Y-99969139D01*
X47713141Y-99967281D01*
X47713140Y-99967281D01*
X47588190Y-99915526D01*
X47588189Y-99915525D01*
X47583709Y-99913670D01*
X47440000Y-99894750D01*
X47435192Y-99895383D01*
X47301098Y-99913037D01*
X47301097Y-99913037D01*
X47296291Y-99913670D01*
X47291812Y-99915525D01*
X47291809Y-99915526D01*
X47166859Y-99967281D01*
X47166854Y-99967283D01*
X47162375Y-99969139D01*
X47158529Y-99972089D01*
X47158524Y-99972093D01*
X47051229Y-100054424D01*
X47051225Y-100054427D01*
X47047379Y-100057379D01*
X47044427Y-100061225D01*
X47044424Y-100061229D01*
X46962093Y-100168524D01*
X46962089Y-100168529D01*
X46959139Y-100172375D01*
X46957283Y-100176854D01*
X46957281Y-100176859D01*
X46905526Y-100301809D01*
X46903670Y-100306291D01*
X46884750Y-100450000D01*
X45132617Y-100450000D01*
X45116330Y-100326291D01*
X45060861Y-100192375D01*
X44972621Y-100077379D01*
X44857625Y-99989139D01*
X44853141Y-99987281D01*
X44853140Y-99987281D01*
X44728190Y-99935526D01*
X44728189Y-99935525D01*
X44723709Y-99933670D01*
X44580000Y-99914750D01*
X44575192Y-99915383D01*
X44441098Y-99933037D01*
X44441097Y-99933037D01*
X44436291Y-99933670D01*
X44431812Y-99935525D01*
X44431809Y-99935526D01*
X44306859Y-99987281D01*
X44306854Y-99987283D01*
X44302375Y-99989139D01*
X44298529Y-99992089D01*
X44298524Y-99992093D01*
X44191229Y-100074424D01*
X44191225Y-100074427D01*
X44187379Y-100077379D01*
X44184427Y-100081225D01*
X44184424Y-100081229D01*
X44102093Y-100188524D01*
X44102089Y-100188529D01*
X44099139Y-100192375D01*
X44097283Y-100196854D01*
X44097281Y-100196859D01*
X44051954Y-100306291D01*
X44043670Y-100326291D01*
X44043037Y-100331097D01*
X44043037Y-100331098D01*
X44028016Y-100445192D01*
X44024750Y-100470000D01*
X42583933Y-100470000D01*
X42566330Y-100336291D01*
X42510861Y-100202375D01*
X42422621Y-100087379D01*
X42388542Y-100061229D01*
X42311475Y-100002093D01*
X42311473Y-100002092D01*
X42307625Y-99999139D01*
X42303141Y-99997281D01*
X42303140Y-99997281D01*
X42178190Y-99945526D01*
X42178189Y-99945525D01*
X42173709Y-99943670D01*
X42030000Y-99924750D01*
X42025192Y-99925383D01*
X41891098Y-99943037D01*
X41891097Y-99943037D01*
X41886291Y-99943670D01*
X41881812Y-99945525D01*
X41881809Y-99945526D01*
X41756859Y-99997281D01*
X41756854Y-99997283D01*
X41752375Y-99999139D01*
X41748529Y-100002089D01*
X41748524Y-100002093D01*
X41641229Y-100084424D01*
X41641225Y-100084427D01*
X41637379Y-100087379D01*
X41634427Y-100091225D01*
X41634424Y-100091229D01*
X41552093Y-100198524D01*
X41552089Y-100198529D01*
X41549139Y-100202375D01*
X41547283Y-100206854D01*
X41547281Y-100206859D01*
X41497812Y-100326291D01*
X41493670Y-100336291D01*
X41474750Y-100480000D01*
X32688722Y-100480000D01*
X32569844Y-100264904D01*
X32566244Y-100257428D01*
X32453573Y-99985418D01*
X32450839Y-99977605D01*
X32369327Y-99694671D01*
X32367486Y-99686603D01*
X32318170Y-99396346D01*
X32317241Y-99388106D01*
X32311434Y-99284709D01*
X32303363Y-99141000D01*
X41474750Y-99141000D01*
X41475383Y-99145808D01*
X41491758Y-99270190D01*
X41493670Y-99284709D01*
X41495525Y-99289189D01*
X41495526Y-99289190D01*
X41542863Y-99403475D01*
X41549139Y-99418625D01*
X41637379Y-99533621D01*
X41752375Y-99621861D01*
X41886291Y-99677330D01*
X42030000Y-99696250D01*
X42173709Y-99677330D01*
X42307625Y-99621861D01*
X42422621Y-99533621D01*
X42510861Y-99418625D01*
X42566330Y-99284709D01*
X42585250Y-99141000D01*
X42582749Y-99122000D01*
X49860750Y-99122000D01*
X49879670Y-99265709D01*
X49881525Y-99270189D01*
X49881526Y-99270190D01*
X49930367Y-99388106D01*
X49935139Y-99399625D01*
X49938092Y-99403473D01*
X49938093Y-99403475D01*
X50020424Y-99510770D01*
X50023379Y-99514621D01*
X50138375Y-99602861D01*
X50272291Y-99658330D01*
X50416000Y-99677250D01*
X50559709Y-99658330D01*
X50693625Y-99602861D01*
X50808621Y-99514621D01*
X50896861Y-99399625D01*
X50952330Y-99265709D01*
X50971250Y-99122000D01*
X50952330Y-98978291D01*
X50896861Y-98844375D01*
X50808621Y-98729379D01*
X50693625Y-98641139D01*
X50689141Y-98639281D01*
X50689140Y-98639281D01*
X50564190Y-98587526D01*
X50564189Y-98587525D01*
X50559709Y-98585670D01*
X50554901Y-98585037D01*
X50535237Y-98582448D01*
X50496837Y-98565351D01*
X50473944Y-98530098D01*
X50473944Y-98488063D01*
X50496838Y-98452811D01*
X50535236Y-98435714D01*
X50621709Y-98424330D01*
X50755625Y-98368861D01*
X50870621Y-98280621D01*
X50958861Y-98165625D01*
X51014330Y-98031709D01*
X51033250Y-97888000D01*
X51014330Y-97744291D01*
X50958861Y-97610375D01*
X50870621Y-97495379D01*
X50866770Y-97492424D01*
X50759475Y-97410093D01*
X50759473Y-97410092D01*
X50755625Y-97407139D01*
X50751141Y-97405281D01*
X50751140Y-97405281D01*
X50626190Y-97353526D01*
X50626189Y-97353525D01*
X50621709Y-97351670D01*
X50478000Y-97332750D01*
X50473192Y-97333383D01*
X50339098Y-97351037D01*
X50339097Y-97351037D01*
X50334291Y-97351670D01*
X50329812Y-97353525D01*
X50329809Y-97353526D01*
X50204859Y-97405281D01*
X50204854Y-97405283D01*
X50200375Y-97407139D01*
X50196529Y-97410089D01*
X50196524Y-97410093D01*
X50089229Y-97492424D01*
X50089225Y-97492427D01*
X50085379Y-97495379D01*
X50082427Y-97499225D01*
X50082424Y-97499229D01*
X50000093Y-97606524D01*
X50000089Y-97606529D01*
X49997139Y-97610375D01*
X49995283Y-97614854D01*
X49995281Y-97614859D01*
X49943526Y-97739809D01*
X49941670Y-97744291D01*
X49922750Y-97888000D01*
X49941670Y-98031709D01*
X49943525Y-98036189D01*
X49943526Y-98036190D01*
X49987825Y-98143140D01*
X49997139Y-98165625D01*
X50085379Y-98280621D01*
X50200375Y-98368861D01*
X50334291Y-98424330D01*
X50358760Y-98427551D01*
X50397160Y-98444647D01*
X50420054Y-98479900D01*
X50420055Y-98521934D01*
X50397162Y-98557187D01*
X50358762Y-98574285D01*
X50277098Y-98585037D01*
X50277097Y-98585037D01*
X50272291Y-98585670D01*
X50267812Y-98587525D01*
X50267809Y-98587526D01*
X50142859Y-98639281D01*
X50142854Y-98639283D01*
X50138375Y-98641139D01*
X50134529Y-98644089D01*
X50134524Y-98644093D01*
X50027229Y-98726424D01*
X50027225Y-98726427D01*
X50023379Y-98729379D01*
X50020427Y-98733225D01*
X50020424Y-98733229D01*
X49938093Y-98840524D01*
X49938089Y-98840529D01*
X49935139Y-98844375D01*
X49933283Y-98848854D01*
X49933281Y-98848859D01*
X49881526Y-98973809D01*
X49879670Y-98978291D01*
X49879037Y-98983097D01*
X49879037Y-98983098D01*
X49876536Y-99002098D01*
X49860750Y-99122000D01*
X42582749Y-99122000D01*
X42566330Y-98997291D01*
X42510861Y-98863375D01*
X42422621Y-98748379D01*
X42307625Y-98660139D01*
X42303141Y-98658281D01*
X42303140Y-98658281D01*
X42178190Y-98606526D01*
X42178189Y-98606525D01*
X42173709Y-98604670D01*
X42030000Y-98585750D01*
X42025192Y-98586383D01*
X41891098Y-98604037D01*
X41891097Y-98604037D01*
X41886291Y-98604670D01*
X41881812Y-98606525D01*
X41881809Y-98606526D01*
X41756859Y-98658281D01*
X41756854Y-98658283D01*
X41752375Y-98660139D01*
X41748529Y-98663089D01*
X41748524Y-98663093D01*
X41641229Y-98745424D01*
X41641225Y-98745427D01*
X41637379Y-98748379D01*
X41634427Y-98752225D01*
X41634424Y-98752229D01*
X41552093Y-98859524D01*
X41552089Y-98859529D01*
X41549139Y-98863375D01*
X41547283Y-98867854D01*
X41547281Y-98867859D01*
X41495526Y-98992809D01*
X41493670Y-98997291D01*
X41493037Y-99002097D01*
X41493037Y-99002098D01*
X41481739Y-99087917D01*
X41474750Y-99141000D01*
X32303363Y-99141000D01*
X32300615Y-99092065D01*
X32300500Y-99087917D01*
X32300500Y-97870000D01*
X41449750Y-97870000D01*
X41468670Y-98013709D01*
X41524139Y-98147625D01*
X41612379Y-98262621D01*
X41727375Y-98350861D01*
X41861291Y-98406330D01*
X42005000Y-98425250D01*
X42148709Y-98406330D01*
X42282625Y-98350861D01*
X42397621Y-98262621D01*
X42485861Y-98147625D01*
X42541330Y-98013709D01*
X42560250Y-97870000D01*
X42541330Y-97726291D01*
X42485861Y-97592375D01*
X42397621Y-97477379D01*
X42282625Y-97389139D01*
X42278141Y-97387281D01*
X42278140Y-97387281D01*
X42153190Y-97335526D01*
X42153189Y-97335525D01*
X42148709Y-97333670D01*
X42005000Y-97314750D01*
X42000192Y-97315383D01*
X41866098Y-97333037D01*
X41866097Y-97333037D01*
X41861291Y-97333670D01*
X41856812Y-97335525D01*
X41856809Y-97335526D01*
X41731859Y-97387281D01*
X41731854Y-97387283D01*
X41727375Y-97389139D01*
X41723529Y-97392089D01*
X41723524Y-97392093D01*
X41616229Y-97474424D01*
X41616225Y-97474427D01*
X41612379Y-97477379D01*
X41609427Y-97481225D01*
X41609424Y-97481229D01*
X41527093Y-97588524D01*
X41527089Y-97588529D01*
X41524139Y-97592375D01*
X41522283Y-97596854D01*
X41522281Y-97596859D01*
X41470526Y-97721809D01*
X41468670Y-97726291D01*
X41449750Y-97870000D01*
X32300500Y-97870000D01*
X32300500Y-96590000D01*
X41474750Y-96590000D01*
X41493670Y-96733709D01*
X41495525Y-96738189D01*
X41495526Y-96738190D01*
X41546591Y-96861475D01*
X41549139Y-96867625D01*
X41637379Y-96982621D01*
X41752375Y-97070861D01*
X41886291Y-97126330D01*
X42030000Y-97145250D01*
X42173709Y-97126330D01*
X42307625Y-97070861D01*
X42422621Y-96982621D01*
X42510861Y-96867625D01*
X42566330Y-96733709D01*
X42585250Y-96590000D01*
X42583933Y-96580000D01*
X44024750Y-96580000D01*
X44043670Y-96723709D01*
X44045525Y-96728189D01*
X44045526Y-96728190D01*
X44092449Y-96841475D01*
X44099139Y-96857625D01*
X44102092Y-96861473D01*
X44102093Y-96861475D01*
X44169077Y-96948770D01*
X44187379Y-96972621D01*
X44302375Y-97060861D01*
X44436291Y-97116330D01*
X44580000Y-97135250D01*
X44723709Y-97116330D01*
X44857625Y-97060861D01*
X44972621Y-96972621D01*
X45060861Y-96857625D01*
X45116330Y-96723709D01*
X45135250Y-96580000D01*
X45132617Y-96560000D01*
X46884750Y-96560000D01*
X46903670Y-96703709D01*
X46959139Y-96837625D01*
X46962092Y-96841473D01*
X46962093Y-96841475D01*
X46977440Y-96861475D01*
X47047379Y-96952621D01*
X47162375Y-97040861D01*
X47296291Y-97096330D01*
X47440000Y-97115250D01*
X47583709Y-97096330D01*
X47717625Y-97040861D01*
X47832621Y-96952621D01*
X47920861Y-96837625D01*
X47976330Y-96703709D01*
X47992617Y-96580000D01*
X49824750Y-96580000D01*
X49843670Y-96723709D01*
X49845525Y-96728189D01*
X49845526Y-96728190D01*
X49892449Y-96841475D01*
X49899139Y-96857625D01*
X49902092Y-96861473D01*
X49902093Y-96861475D01*
X49969077Y-96948770D01*
X49987379Y-96972621D01*
X50102375Y-97060861D01*
X50236291Y-97116330D01*
X50380000Y-97135250D01*
X50523709Y-97116330D01*
X50657625Y-97060861D01*
X50772621Y-96972621D01*
X50860861Y-96857625D01*
X50916330Y-96723709D01*
X50935250Y-96580000D01*
X50916330Y-96436291D01*
X50860861Y-96302375D01*
X50772621Y-96187379D01*
X50657625Y-96099139D01*
X50653141Y-96097281D01*
X50653140Y-96097281D01*
X50528190Y-96045526D01*
X50528189Y-96045525D01*
X50523709Y-96043670D01*
X50380000Y-96024750D01*
X50375192Y-96025383D01*
X50241098Y-96043037D01*
X50241097Y-96043037D01*
X50236291Y-96043670D01*
X50231812Y-96045525D01*
X50231809Y-96045526D01*
X50106859Y-96097281D01*
X50106854Y-96097283D01*
X50102375Y-96099139D01*
X50098529Y-96102089D01*
X50098524Y-96102093D01*
X49991229Y-96184424D01*
X49991225Y-96184427D01*
X49987379Y-96187379D01*
X49984427Y-96191225D01*
X49984424Y-96191229D01*
X49902093Y-96298524D01*
X49902089Y-96298529D01*
X49899139Y-96302375D01*
X49897283Y-96306854D01*
X49897281Y-96306859D01*
X49851954Y-96416291D01*
X49843670Y-96436291D01*
X49843037Y-96441097D01*
X49843037Y-96441098D01*
X49828016Y-96555192D01*
X49824750Y-96580000D01*
X47992617Y-96580000D01*
X47995250Y-96560000D01*
X47976330Y-96416291D01*
X47920861Y-96282375D01*
X47832621Y-96167379D01*
X47747539Y-96102093D01*
X47721475Y-96082093D01*
X47721473Y-96082092D01*
X47717625Y-96079139D01*
X47713141Y-96077281D01*
X47713140Y-96077281D01*
X47588190Y-96025526D01*
X47588189Y-96025525D01*
X47583709Y-96023670D01*
X47440000Y-96004750D01*
X47435192Y-96005383D01*
X47301098Y-96023037D01*
X47301097Y-96023037D01*
X47296291Y-96023670D01*
X47291812Y-96025525D01*
X47291809Y-96025526D01*
X47166859Y-96077281D01*
X47166854Y-96077283D01*
X47162375Y-96079139D01*
X47158529Y-96082089D01*
X47158524Y-96082093D01*
X47051229Y-96164424D01*
X47051225Y-96164427D01*
X47047379Y-96167379D01*
X47044427Y-96171225D01*
X47044424Y-96171229D01*
X46962093Y-96278524D01*
X46962089Y-96278529D01*
X46959139Y-96282375D01*
X46957283Y-96286854D01*
X46957281Y-96286859D01*
X46944855Y-96316859D01*
X46903670Y-96416291D01*
X46884750Y-96560000D01*
X45132617Y-96560000D01*
X45116330Y-96436291D01*
X45060861Y-96302375D01*
X44972621Y-96187379D01*
X44857625Y-96099139D01*
X44853141Y-96097281D01*
X44853140Y-96097281D01*
X44728190Y-96045526D01*
X44728189Y-96045525D01*
X44723709Y-96043670D01*
X44580000Y-96024750D01*
X44575192Y-96025383D01*
X44441098Y-96043037D01*
X44441097Y-96043037D01*
X44436291Y-96043670D01*
X44431812Y-96045525D01*
X44431809Y-96045526D01*
X44306859Y-96097281D01*
X44306854Y-96097283D01*
X44302375Y-96099139D01*
X44298529Y-96102089D01*
X44298524Y-96102093D01*
X44191229Y-96184424D01*
X44191225Y-96184427D01*
X44187379Y-96187379D01*
X44184427Y-96191225D01*
X44184424Y-96191229D01*
X44102093Y-96298524D01*
X44102089Y-96298529D01*
X44099139Y-96302375D01*
X44097283Y-96306854D01*
X44097281Y-96306859D01*
X44051954Y-96416291D01*
X44043670Y-96436291D01*
X44043037Y-96441097D01*
X44043037Y-96441098D01*
X44028016Y-96555192D01*
X44024750Y-96580000D01*
X42583933Y-96580000D01*
X42566330Y-96446291D01*
X42510861Y-96312375D01*
X42422621Y-96197379D01*
X42388542Y-96171229D01*
X42311475Y-96112093D01*
X42311473Y-96112092D01*
X42307625Y-96109139D01*
X42303141Y-96107281D01*
X42303140Y-96107281D01*
X42178190Y-96055526D01*
X42178189Y-96055525D01*
X42173709Y-96053670D01*
X42030000Y-96034750D01*
X42025192Y-96035383D01*
X41891098Y-96053037D01*
X41891097Y-96053037D01*
X41886291Y-96053670D01*
X41881812Y-96055525D01*
X41881809Y-96055526D01*
X41756859Y-96107281D01*
X41756854Y-96107283D01*
X41752375Y-96109139D01*
X41748529Y-96112089D01*
X41748524Y-96112093D01*
X41641229Y-96194424D01*
X41641225Y-96194427D01*
X41637379Y-96197379D01*
X41634427Y-96201225D01*
X41634424Y-96201229D01*
X41552093Y-96308524D01*
X41552089Y-96308529D01*
X41549139Y-96312375D01*
X41547283Y-96316854D01*
X41547281Y-96316859D01*
X41497812Y-96436291D01*
X41493670Y-96446291D01*
X41474750Y-96590000D01*
X32300500Y-96590000D01*
X32300500Y-88782168D01*
X49680458Y-88782168D01*
X49681369Y-88787920D01*
X49699590Y-88902970D01*
X49699591Y-88902974D01*
X49700502Y-88908723D01*
X49703145Y-88913910D01*
X49703146Y-88913913D01*
X49756030Y-89017703D01*
X49756031Y-89017705D01*
X49758674Y-89022891D01*
X49849277Y-89113494D01*
X49963445Y-89171666D01*
X50090000Y-89191710D01*
X50216555Y-89171666D01*
X50330723Y-89113494D01*
X50421326Y-89022891D01*
X50479498Y-88908723D01*
X50499542Y-88782168D01*
X50479498Y-88655613D01*
X50421326Y-88541445D01*
X50330723Y-88450842D01*
X50325537Y-88448199D01*
X50325535Y-88448198D01*
X50221745Y-88395314D01*
X50221742Y-88395313D01*
X50216555Y-88392670D01*
X50210806Y-88391759D01*
X50210802Y-88391758D01*
X50095752Y-88373537D01*
X50090000Y-88372626D01*
X50084248Y-88373537D01*
X49969197Y-88391758D01*
X49969191Y-88391759D01*
X49963445Y-88392670D01*
X49958259Y-88395312D01*
X49958254Y-88395314D01*
X49854464Y-88448198D01*
X49854459Y-88448201D01*
X49849277Y-88450842D01*
X49845163Y-88454955D01*
X49845160Y-88454958D01*
X49762790Y-88537328D01*
X49762787Y-88537331D01*
X49758674Y-88541445D01*
X49756033Y-88546627D01*
X49756030Y-88546632D01*
X49703146Y-88650422D01*
X49703144Y-88650427D01*
X49700502Y-88655613D01*
X49699591Y-88661359D01*
X49699590Y-88661365D01*
X49681369Y-88776416D01*
X49680458Y-88782168D01*
X32300500Y-88782168D01*
X32300500Y-87850000D01*
X45415458Y-87850000D01*
X45416369Y-87855752D01*
X45434590Y-87970802D01*
X45434591Y-87970806D01*
X45435502Y-87976555D01*
X45438145Y-87981742D01*
X45438146Y-87981745D01*
X45491030Y-88085535D01*
X45491031Y-88085537D01*
X45493674Y-88090723D01*
X45584277Y-88181326D01*
X45698445Y-88239498D01*
X45825000Y-88259542D01*
X45951555Y-88239498D01*
X46065723Y-88181326D01*
X46156326Y-88090723D01*
X46204590Y-87996000D01*
X50979458Y-87996000D01*
X50980369Y-88001752D01*
X50998590Y-88116802D01*
X50998591Y-88116806D01*
X50999502Y-88122555D01*
X51002145Y-88127742D01*
X51002146Y-88127745D01*
X51055030Y-88231535D01*
X51055031Y-88231537D01*
X51057674Y-88236723D01*
X51148277Y-88327326D01*
X51262445Y-88385498D01*
X51389000Y-88405542D01*
X51515555Y-88385498D01*
X51629723Y-88327326D01*
X51720326Y-88236723D01*
X51778498Y-88122555D01*
X51798542Y-87996000D01*
X51778498Y-87869445D01*
X51720326Y-87755277D01*
X51629723Y-87664674D01*
X51624537Y-87662031D01*
X51624535Y-87662030D01*
X51520745Y-87609146D01*
X51520742Y-87609145D01*
X51515555Y-87606502D01*
X51509806Y-87605591D01*
X51509802Y-87605590D01*
X51394752Y-87587369D01*
X51389000Y-87586458D01*
X51383248Y-87587369D01*
X51268197Y-87605590D01*
X51268191Y-87605591D01*
X51262445Y-87606502D01*
X51257259Y-87609144D01*
X51257254Y-87609146D01*
X51153464Y-87662030D01*
X51153459Y-87662033D01*
X51148277Y-87664674D01*
X51144163Y-87668787D01*
X51144160Y-87668790D01*
X51061790Y-87751160D01*
X51061787Y-87751163D01*
X51057674Y-87755277D01*
X51055033Y-87760459D01*
X51055030Y-87760464D01*
X51002146Y-87864254D01*
X51002144Y-87864259D01*
X50999502Y-87869445D01*
X50998591Y-87875191D01*
X50998590Y-87875197D01*
X50983449Y-87970802D01*
X50979458Y-87996000D01*
X46204590Y-87996000D01*
X46214498Y-87976555D01*
X46234542Y-87850000D01*
X46214498Y-87723445D01*
X46156326Y-87609277D01*
X46065723Y-87518674D01*
X46060537Y-87516031D01*
X46060535Y-87516030D01*
X45956745Y-87463146D01*
X45956742Y-87463145D01*
X45951555Y-87460502D01*
X45945806Y-87459591D01*
X45945802Y-87459590D01*
X45830752Y-87441369D01*
X45825000Y-87440458D01*
X45819248Y-87441369D01*
X45704197Y-87459590D01*
X45704191Y-87459591D01*
X45698445Y-87460502D01*
X45693259Y-87463144D01*
X45693254Y-87463146D01*
X45589464Y-87516030D01*
X45589459Y-87516033D01*
X45584277Y-87518674D01*
X45580163Y-87522787D01*
X45580160Y-87522790D01*
X45497790Y-87605160D01*
X45497787Y-87605163D01*
X45493674Y-87609277D01*
X45491033Y-87614459D01*
X45491030Y-87614464D01*
X45438146Y-87718254D01*
X45438144Y-87718259D01*
X45435502Y-87723445D01*
X45434591Y-87729191D01*
X45434590Y-87729197D01*
X45416369Y-87844248D01*
X45415458Y-87850000D01*
X32300500Y-87850000D01*
X32300500Y-87201000D01*
X43748750Y-87201000D01*
X43767670Y-87344709D01*
X43769525Y-87349189D01*
X43769526Y-87349190D01*
X43815254Y-87459590D01*
X43823139Y-87478625D01*
X43911379Y-87593621D01*
X44026375Y-87681861D01*
X44160291Y-87737330D01*
X44304000Y-87756250D01*
X44447709Y-87737330D01*
X44581625Y-87681861D01*
X44696621Y-87593621D01*
X44784861Y-87478625D01*
X44840330Y-87344709D01*
X44859250Y-87201000D01*
X44840330Y-87057291D01*
X44784861Y-86923375D01*
X44696621Y-86808379D01*
X44692770Y-86805424D01*
X44585475Y-86723093D01*
X44585473Y-86723092D01*
X44581625Y-86720139D01*
X44577141Y-86718281D01*
X44577140Y-86718281D01*
X44452190Y-86666526D01*
X44452189Y-86666525D01*
X44447709Y-86664670D01*
X44304000Y-86645750D01*
X44299192Y-86646383D01*
X44165098Y-86664037D01*
X44165097Y-86664037D01*
X44160291Y-86664670D01*
X44155812Y-86666525D01*
X44155809Y-86666526D01*
X44030859Y-86718281D01*
X44030854Y-86718283D01*
X44026375Y-86720139D01*
X44022529Y-86723089D01*
X44022524Y-86723093D01*
X43915229Y-86805424D01*
X43915225Y-86805427D01*
X43911379Y-86808379D01*
X43908427Y-86812225D01*
X43908424Y-86812229D01*
X43826093Y-86919524D01*
X43826089Y-86919529D01*
X43823139Y-86923375D01*
X43821283Y-86927854D01*
X43821281Y-86927859D01*
X43769526Y-87052809D01*
X43767670Y-87057291D01*
X43748750Y-87201000D01*
X32300500Y-87201000D01*
X32300500Y-85850000D01*
X35144750Y-85850000D01*
X35163670Y-85993709D01*
X35165525Y-85998189D01*
X35165526Y-85998190D01*
X35210841Y-86107593D01*
X35219139Y-86127625D01*
X35307379Y-86242621D01*
X35422375Y-86330861D01*
X35556291Y-86386330D01*
X35700000Y-86405250D01*
X35843709Y-86386330D01*
X35977625Y-86330861D01*
X36092621Y-86242621D01*
X36180861Y-86127625D01*
X36236330Y-85993709D01*
X36255250Y-85850000D01*
X37544750Y-85850000D01*
X37563670Y-85993709D01*
X37565525Y-85998189D01*
X37565526Y-85998190D01*
X37610841Y-86107593D01*
X37619139Y-86127625D01*
X37707379Y-86242621D01*
X37822375Y-86330861D01*
X37956291Y-86386330D01*
X38100000Y-86405250D01*
X38243709Y-86386330D01*
X38377625Y-86330861D01*
X38492621Y-86242621D01*
X38580861Y-86127625D01*
X38636330Y-85993709D01*
X38655250Y-85850000D01*
X39844750Y-85850000D01*
X39863670Y-85993709D01*
X39865525Y-85998189D01*
X39865526Y-85998190D01*
X39910841Y-86107593D01*
X39919139Y-86127625D01*
X40007379Y-86242621D01*
X40122375Y-86330861D01*
X40256291Y-86386330D01*
X40400000Y-86405250D01*
X40543709Y-86386330D01*
X40677625Y-86330861D01*
X40792621Y-86242621D01*
X40880861Y-86127625D01*
X40936330Y-85993709D01*
X40942085Y-85950000D01*
X41994750Y-85950000D01*
X42013670Y-86093709D01*
X42015525Y-86098189D01*
X42015526Y-86098190D01*
X42056802Y-86197842D01*
X42069139Y-86227625D01*
X42072092Y-86231473D01*
X42072093Y-86231475D01*
X42116910Y-86289881D01*
X42157379Y-86342621D01*
X42272375Y-86430861D01*
X42406291Y-86486330D01*
X42550000Y-86505250D01*
X42693709Y-86486330D01*
X42827625Y-86430861D01*
X42942621Y-86342621D01*
X43030861Y-86227625D01*
X43086330Y-86093709D01*
X43105250Y-85950000D01*
X43086330Y-85806291D01*
X43086164Y-85805891D01*
X54537221Y-85805891D01*
X54537787Y-85809590D01*
X54537788Y-85809596D01*
X54567466Y-86003324D01*
X54567468Y-86003332D01*
X54568034Y-86007026D01*
X54569332Y-86010531D01*
X54569334Y-86010538D01*
X54637399Y-86194320D01*
X54637401Y-86194325D01*
X54638704Y-86197842D01*
X54746338Y-86370526D01*
X54886531Y-86518008D01*
X54889604Y-86520146D01*
X54889603Y-86520146D01*
X54976120Y-86580364D01*
X55053541Y-86634250D01*
X55240532Y-86714495D01*
X55439849Y-86755455D01*
X56090452Y-86755455D01*
X56092332Y-86755455D01*
X56244028Y-86740029D01*
X56438178Y-86679114D01*
X56616092Y-86580364D01*
X56770485Y-86447821D01*
X56895038Y-86286913D01*
X56984650Y-86104226D01*
X57035653Y-85907240D01*
X57045959Y-85704019D01*
X57015146Y-85502884D01*
X56944476Y-85312068D01*
X56836842Y-85139384D01*
X56696649Y-84991902D01*
X56693576Y-84989763D01*
X56532716Y-84877801D01*
X56532711Y-84877798D01*
X56529639Y-84875660D01*
X56526193Y-84874181D01*
X56346093Y-84796893D01*
X56346089Y-84796891D01*
X56342648Y-84795415D01*
X56338980Y-84794661D01*
X56338973Y-84794659D01*
X56147007Y-84755210D01*
X56147002Y-84755209D01*
X56143331Y-84754455D01*
X55490848Y-84754455D01*
X55488986Y-84754644D01*
X55488973Y-84754645D01*
X55342885Y-84769501D01*
X55342881Y-84769501D01*
X55339152Y-84769881D01*
X55335574Y-84771003D01*
X55335572Y-84771004D01*
X55148584Y-84829671D01*
X55148574Y-84829675D01*
X55145002Y-84830796D01*
X55141725Y-84832614D01*
X55141720Y-84832617D01*
X54970372Y-84927722D01*
X54970363Y-84927728D01*
X54967088Y-84929546D01*
X54964246Y-84931985D01*
X54964237Y-84931992D01*
X54815540Y-85059645D01*
X54815531Y-85059653D01*
X54812695Y-85062089D01*
X54810404Y-85065048D01*
X54810397Y-85065056D01*
X54690439Y-85220028D01*
X54690434Y-85220035D01*
X54688142Y-85222997D01*
X54686491Y-85226360D01*
X54686490Y-85226364D01*
X54600181Y-85402316D01*
X54600177Y-85402324D01*
X54598530Y-85405684D01*
X54597591Y-85409307D01*
X54597589Y-85409315D01*
X54548467Y-85599037D01*
X54548466Y-85599043D01*
X54547527Y-85602670D01*
X54547337Y-85606408D01*
X54547336Y-85606418D01*
X54542575Y-85700313D01*
X54537221Y-85805891D01*
X43086164Y-85805891D01*
X43030861Y-85672375D01*
X42942621Y-85557379D01*
X42827625Y-85469139D01*
X42823141Y-85467281D01*
X42823140Y-85467281D01*
X42698190Y-85415526D01*
X42698189Y-85415525D01*
X42693709Y-85413670D01*
X42550000Y-85394750D01*
X42545192Y-85395383D01*
X42411098Y-85413037D01*
X42411097Y-85413037D01*
X42406291Y-85413670D01*
X42401812Y-85415525D01*
X42401809Y-85415526D01*
X42276859Y-85467281D01*
X42276854Y-85467283D01*
X42272375Y-85469139D01*
X42268529Y-85472089D01*
X42268524Y-85472093D01*
X42161229Y-85554424D01*
X42161225Y-85554427D01*
X42157379Y-85557379D01*
X42154427Y-85561225D01*
X42154424Y-85561229D01*
X42072093Y-85668524D01*
X42072089Y-85668529D01*
X42069139Y-85672375D01*
X42067283Y-85676854D01*
X42067281Y-85676859D01*
X42015526Y-85801809D01*
X42013670Y-85806291D01*
X41994750Y-85950000D01*
X40942085Y-85950000D01*
X40955250Y-85850000D01*
X40936330Y-85706291D01*
X40880861Y-85572375D01*
X40792621Y-85457379D01*
X40788770Y-85454424D01*
X40681475Y-85372093D01*
X40681473Y-85372092D01*
X40677625Y-85369139D01*
X40673141Y-85367281D01*
X40673140Y-85367281D01*
X40548190Y-85315526D01*
X40548189Y-85315525D01*
X40543709Y-85313670D01*
X40400000Y-85294750D01*
X40395192Y-85295383D01*
X40261098Y-85313037D01*
X40261097Y-85313037D01*
X40256291Y-85313670D01*
X40251812Y-85315525D01*
X40251809Y-85315526D01*
X40126859Y-85367281D01*
X40126854Y-85367283D01*
X40122375Y-85369139D01*
X40118529Y-85372089D01*
X40118524Y-85372093D01*
X40011229Y-85454424D01*
X40011225Y-85454427D01*
X40007379Y-85457379D01*
X40004427Y-85461225D01*
X40004424Y-85461229D01*
X39922093Y-85568524D01*
X39922089Y-85568529D01*
X39919139Y-85572375D01*
X39917283Y-85576854D01*
X39917281Y-85576859D01*
X39866146Y-85700313D01*
X39863670Y-85706291D01*
X39863037Y-85711097D01*
X39863037Y-85711098D01*
X39850069Y-85809596D01*
X39844750Y-85850000D01*
X38655250Y-85850000D01*
X38636330Y-85706291D01*
X38580861Y-85572375D01*
X38492621Y-85457379D01*
X38488770Y-85454424D01*
X38381475Y-85372093D01*
X38381473Y-85372092D01*
X38377625Y-85369139D01*
X38373141Y-85367281D01*
X38373140Y-85367281D01*
X38248190Y-85315526D01*
X38248189Y-85315525D01*
X38243709Y-85313670D01*
X38100000Y-85294750D01*
X38095192Y-85295383D01*
X37961098Y-85313037D01*
X37961097Y-85313037D01*
X37956291Y-85313670D01*
X37951812Y-85315525D01*
X37951809Y-85315526D01*
X37826859Y-85367281D01*
X37826854Y-85367283D01*
X37822375Y-85369139D01*
X37818529Y-85372089D01*
X37818524Y-85372093D01*
X37711229Y-85454424D01*
X37711225Y-85454427D01*
X37707379Y-85457379D01*
X37704427Y-85461225D01*
X37704424Y-85461229D01*
X37622093Y-85568524D01*
X37622089Y-85568529D01*
X37619139Y-85572375D01*
X37617283Y-85576854D01*
X37617281Y-85576859D01*
X37566146Y-85700313D01*
X37563670Y-85706291D01*
X37563037Y-85711097D01*
X37563037Y-85711098D01*
X37550069Y-85809596D01*
X37544750Y-85850000D01*
X36255250Y-85850000D01*
X36236330Y-85706291D01*
X36180861Y-85572375D01*
X36092621Y-85457379D01*
X36088770Y-85454424D01*
X35981475Y-85372093D01*
X35981473Y-85372092D01*
X35977625Y-85369139D01*
X35973141Y-85367281D01*
X35973140Y-85367281D01*
X35848190Y-85315526D01*
X35848189Y-85315525D01*
X35843709Y-85313670D01*
X35700000Y-85294750D01*
X35695192Y-85295383D01*
X35561098Y-85313037D01*
X35561097Y-85313037D01*
X35556291Y-85313670D01*
X35551812Y-85315525D01*
X35551809Y-85315526D01*
X35426859Y-85367281D01*
X35426854Y-85367283D01*
X35422375Y-85369139D01*
X35418529Y-85372089D01*
X35418524Y-85372093D01*
X35311229Y-85454424D01*
X35311225Y-85454427D01*
X35307379Y-85457379D01*
X35304427Y-85461225D01*
X35304424Y-85461229D01*
X35222093Y-85568524D01*
X35222089Y-85568529D01*
X35219139Y-85572375D01*
X35217283Y-85576854D01*
X35217281Y-85576859D01*
X35166146Y-85700313D01*
X35163670Y-85706291D01*
X35163037Y-85711097D01*
X35163037Y-85711098D01*
X35150069Y-85809596D01*
X35144750Y-85850000D01*
X32300500Y-85850000D01*
X32300500Y-84400000D01*
X35094750Y-84400000D01*
X35113670Y-84543709D01*
X35169139Y-84677625D01*
X35257379Y-84792621D01*
X35372375Y-84880861D01*
X35506291Y-84936330D01*
X35650000Y-84955250D01*
X35793709Y-84936330D01*
X35927625Y-84880861D01*
X36042621Y-84792621D01*
X36130861Y-84677625D01*
X36186330Y-84543709D01*
X36205250Y-84400000D01*
X37544750Y-84400000D01*
X37563670Y-84543709D01*
X37619139Y-84677625D01*
X37707379Y-84792621D01*
X37822375Y-84880861D01*
X37956291Y-84936330D01*
X38100000Y-84955250D01*
X38243709Y-84936330D01*
X38377625Y-84880861D01*
X38492621Y-84792621D01*
X38580861Y-84677625D01*
X38636330Y-84543709D01*
X38655250Y-84400000D01*
X39844750Y-84400000D01*
X39863670Y-84543709D01*
X39919139Y-84677625D01*
X40007379Y-84792621D01*
X40122375Y-84880861D01*
X40256291Y-84936330D01*
X40400000Y-84955250D01*
X40543709Y-84936330D01*
X40677625Y-84880861D01*
X40792621Y-84792621D01*
X40880861Y-84677625D01*
X40936330Y-84543709D01*
X40955250Y-84400000D01*
X42094750Y-84400000D01*
X42113670Y-84543709D01*
X42169139Y-84677625D01*
X42257379Y-84792621D01*
X42372375Y-84880861D01*
X42506291Y-84936330D01*
X42650000Y-84955250D01*
X42793709Y-84936330D01*
X42927625Y-84880861D01*
X43042621Y-84792621D01*
X43130861Y-84677625D01*
X43186330Y-84543709D01*
X43205250Y-84400000D01*
X43186330Y-84256291D01*
X43130861Y-84122375D01*
X43042621Y-84007379D01*
X42927625Y-83919139D01*
X42923141Y-83917281D01*
X42923140Y-83917281D01*
X42798190Y-83865526D01*
X42798189Y-83865525D01*
X42793709Y-83863670D01*
X42650000Y-83844750D01*
X42645192Y-83845383D01*
X42511098Y-83863037D01*
X42511097Y-83863037D01*
X42506291Y-83863670D01*
X42501812Y-83865525D01*
X42501809Y-83865526D01*
X42376859Y-83917281D01*
X42376854Y-83917283D01*
X42372375Y-83919139D01*
X42368529Y-83922089D01*
X42368524Y-83922093D01*
X42261229Y-84004424D01*
X42261225Y-84004427D01*
X42257379Y-84007379D01*
X42254427Y-84011225D01*
X42254424Y-84011229D01*
X42172093Y-84118524D01*
X42172089Y-84118529D01*
X42169139Y-84122375D01*
X42167283Y-84126854D01*
X42167281Y-84126859D01*
X42115526Y-84251809D01*
X42113670Y-84256291D01*
X42094750Y-84400000D01*
X40955250Y-84400000D01*
X40936330Y-84256291D01*
X40880861Y-84122375D01*
X40792621Y-84007379D01*
X40677625Y-83919139D01*
X40673141Y-83917281D01*
X40673140Y-83917281D01*
X40548190Y-83865526D01*
X40548189Y-83865525D01*
X40543709Y-83863670D01*
X40400000Y-83844750D01*
X40395192Y-83845383D01*
X40261098Y-83863037D01*
X40261097Y-83863037D01*
X40256291Y-83863670D01*
X40251812Y-83865525D01*
X40251809Y-83865526D01*
X40126859Y-83917281D01*
X40126854Y-83917283D01*
X40122375Y-83919139D01*
X40118529Y-83922089D01*
X40118524Y-83922093D01*
X40011229Y-84004424D01*
X40011225Y-84004427D01*
X40007379Y-84007379D01*
X40004427Y-84011225D01*
X40004424Y-84011229D01*
X39922093Y-84118524D01*
X39922089Y-84118529D01*
X39919139Y-84122375D01*
X39917283Y-84126854D01*
X39917281Y-84126859D01*
X39865526Y-84251809D01*
X39863670Y-84256291D01*
X39844750Y-84400000D01*
X38655250Y-84400000D01*
X38636330Y-84256291D01*
X38580861Y-84122375D01*
X38492621Y-84007379D01*
X38377625Y-83919139D01*
X38373141Y-83917281D01*
X38373140Y-83917281D01*
X38248190Y-83865526D01*
X38248189Y-83865525D01*
X38243709Y-83863670D01*
X38100000Y-83844750D01*
X38095192Y-83845383D01*
X37961098Y-83863037D01*
X37961097Y-83863037D01*
X37956291Y-83863670D01*
X37951812Y-83865525D01*
X37951809Y-83865526D01*
X37826859Y-83917281D01*
X37826854Y-83917283D01*
X37822375Y-83919139D01*
X37818529Y-83922089D01*
X37818524Y-83922093D01*
X37711229Y-84004424D01*
X37711225Y-84004427D01*
X37707379Y-84007379D01*
X37704427Y-84011225D01*
X37704424Y-84011229D01*
X37622093Y-84118524D01*
X37622089Y-84118529D01*
X37619139Y-84122375D01*
X37617283Y-84126854D01*
X37617281Y-84126859D01*
X37565526Y-84251809D01*
X37563670Y-84256291D01*
X37544750Y-84400000D01*
X36205250Y-84400000D01*
X36186330Y-84256291D01*
X36130861Y-84122375D01*
X36042621Y-84007379D01*
X35927625Y-83919139D01*
X35923141Y-83917281D01*
X35923140Y-83917281D01*
X35798190Y-83865526D01*
X35798189Y-83865525D01*
X35793709Y-83863670D01*
X35650000Y-83844750D01*
X35645192Y-83845383D01*
X35511098Y-83863037D01*
X35511097Y-83863037D01*
X35506291Y-83863670D01*
X35501812Y-83865525D01*
X35501809Y-83865526D01*
X35376859Y-83917281D01*
X35376854Y-83917283D01*
X35372375Y-83919139D01*
X35368529Y-83922089D01*
X35368524Y-83922093D01*
X35261229Y-84004424D01*
X35261225Y-84004427D01*
X35257379Y-84007379D01*
X35254427Y-84011225D01*
X35254424Y-84011229D01*
X35172093Y-84118524D01*
X35172089Y-84118529D01*
X35169139Y-84122375D01*
X35167283Y-84126854D01*
X35167281Y-84126859D01*
X35115526Y-84251809D01*
X35113670Y-84256291D01*
X35094750Y-84400000D01*
X32300500Y-84400000D01*
X32300500Y-83625000D01*
X46200000Y-83625000D01*
X46202421Y-83633646D01*
X46371635Y-84237985D01*
X46371636Y-84237986D01*
X46375000Y-84250000D01*
X47025000Y-84225000D01*
X47037931Y-83850000D01*
X47965458Y-83850000D01*
X47966369Y-83855752D01*
X47984590Y-83970802D01*
X47984591Y-83970806D01*
X47985502Y-83976555D01*
X47988145Y-83981742D01*
X47988146Y-83981745D01*
X48041030Y-84085535D01*
X48041031Y-84085537D01*
X48043674Y-84090723D01*
X48134277Y-84181326D01*
X48248445Y-84239498D01*
X48375000Y-84259542D01*
X48501555Y-84239498D01*
X48615723Y-84181326D01*
X48706326Y-84090723D01*
X48764498Y-83976555D01*
X48784542Y-83850000D01*
X48764498Y-83723445D01*
X48706326Y-83609277D01*
X48615723Y-83518674D01*
X48610537Y-83516031D01*
X48610535Y-83516030D01*
X48506745Y-83463146D01*
X48506742Y-83463145D01*
X48501555Y-83460502D01*
X48495806Y-83459591D01*
X48495802Y-83459590D01*
X48380752Y-83441369D01*
X48375000Y-83440458D01*
X48369248Y-83441369D01*
X48254197Y-83459590D01*
X48254191Y-83459591D01*
X48248445Y-83460502D01*
X48243259Y-83463144D01*
X48243254Y-83463146D01*
X48139464Y-83516030D01*
X48139459Y-83516033D01*
X48134277Y-83518674D01*
X48130163Y-83522787D01*
X48130160Y-83522790D01*
X48047790Y-83605160D01*
X48047787Y-83605163D01*
X48043674Y-83609277D01*
X48041033Y-83614459D01*
X48041030Y-83614464D01*
X47988146Y-83718254D01*
X47988144Y-83718259D01*
X47985502Y-83723445D01*
X47984591Y-83729191D01*
X47984590Y-83729197D01*
X47966369Y-83844248D01*
X47965458Y-83850000D01*
X47037931Y-83850000D01*
X47050000Y-83500000D01*
X46500000Y-83500000D01*
X46493241Y-83502816D01*
X46493237Y-83502817D01*
X46208284Y-83621547D01*
X46208279Y-83621550D01*
X46200000Y-83625000D01*
X32300500Y-83625000D01*
X32300500Y-83305891D01*
X54537221Y-83305891D01*
X54537787Y-83309590D01*
X54537788Y-83309596D01*
X54567466Y-83503324D01*
X54567468Y-83503332D01*
X54568034Y-83507026D01*
X54569332Y-83510531D01*
X54569334Y-83510538D01*
X54637399Y-83694320D01*
X54637401Y-83694325D01*
X54638704Y-83697842D01*
X54746338Y-83870526D01*
X54886531Y-84018008D01*
X54889604Y-84020146D01*
X54889603Y-84020146D01*
X55036479Y-84122375D01*
X55053541Y-84134250D01*
X55240532Y-84214495D01*
X55439849Y-84255455D01*
X56090452Y-84255455D01*
X56092332Y-84255455D01*
X56244028Y-84240029D01*
X56438178Y-84179114D01*
X56616092Y-84080364D01*
X56770485Y-83947821D01*
X56895038Y-83786913D01*
X56984650Y-83604226D01*
X57035653Y-83407240D01*
X57045959Y-83204019D01*
X57015146Y-83002884D01*
X56944476Y-82812068D01*
X56836842Y-82639384D01*
X56696649Y-82491902D01*
X56610574Y-82431992D01*
X56532716Y-82377801D01*
X56532711Y-82377798D01*
X56529639Y-82375660D01*
X56526193Y-82374181D01*
X56346093Y-82296893D01*
X56346089Y-82296891D01*
X56342648Y-82295415D01*
X56338980Y-82294661D01*
X56338973Y-82294659D01*
X56147007Y-82255210D01*
X56147002Y-82255209D01*
X56143331Y-82254455D01*
X55490848Y-82254455D01*
X55488986Y-82254644D01*
X55488973Y-82254645D01*
X55342885Y-82269501D01*
X55342881Y-82269501D01*
X55339152Y-82269881D01*
X55335574Y-82271003D01*
X55335572Y-82271004D01*
X55148584Y-82329671D01*
X55148574Y-82329675D01*
X55145002Y-82330796D01*
X55141725Y-82332614D01*
X55141720Y-82332617D01*
X54970372Y-82427722D01*
X54970363Y-82427728D01*
X54967088Y-82429546D01*
X54964246Y-82431985D01*
X54964237Y-82431992D01*
X54815540Y-82559645D01*
X54815531Y-82559653D01*
X54812695Y-82562089D01*
X54810404Y-82565048D01*
X54810397Y-82565056D01*
X54690439Y-82720028D01*
X54690434Y-82720035D01*
X54688142Y-82722997D01*
X54686491Y-82726360D01*
X54686490Y-82726364D01*
X54600181Y-82902316D01*
X54600177Y-82902324D01*
X54598530Y-82905684D01*
X54597591Y-82909307D01*
X54597589Y-82909315D01*
X54548467Y-83099037D01*
X54548466Y-83099043D01*
X54547527Y-83102670D01*
X54547337Y-83106408D01*
X54547336Y-83106418D01*
X54542575Y-83200313D01*
X54537221Y-83305891D01*
X32300500Y-83305891D01*
X32300500Y-79914335D01*
X40874500Y-79914335D01*
X40875001Y-79917340D01*
X40875002Y-79917346D01*
X40914924Y-80156591D01*
X40914925Y-80156597D01*
X40915429Y-80159614D01*
X40996172Y-80394810D01*
X41114526Y-80613509D01*
X41267262Y-80809744D01*
X41450215Y-80978164D01*
X41452776Y-80979837D01*
X41655827Y-81112497D01*
X41655830Y-81112499D01*
X41658393Y-81114173D01*
X41886119Y-81214063D01*
X42127179Y-81275108D01*
X42312933Y-81290500D01*
X43435528Y-81290500D01*
X43437067Y-81290500D01*
X43622821Y-81275108D01*
X43863881Y-81214063D01*
X44091607Y-81114173D01*
X44299785Y-80978164D01*
X44482738Y-80809744D01*
X44635474Y-80613509D01*
X44753828Y-80394810D01*
X44834571Y-80159614D01*
X44875500Y-79914335D01*
X44875500Y-79665665D01*
X44834571Y-79420386D01*
X44753828Y-79185190D01*
X44635474Y-78966491D01*
X44482738Y-78770256D01*
X44407800Y-78701270D01*
X44302032Y-78603904D01*
X44302028Y-78603901D01*
X44299785Y-78601836D01*
X44297223Y-78600162D01*
X44094172Y-78467502D01*
X44094164Y-78467498D01*
X44091607Y-78465827D01*
X43863881Y-78365937D01*
X43860917Y-78365186D01*
X43860916Y-78365186D01*
X43625780Y-78305641D01*
X43625776Y-78305640D01*
X43622821Y-78304892D01*
X43619780Y-78304640D01*
X43619774Y-78304639D01*
X43438604Y-78289627D01*
X43438595Y-78289626D01*
X43437067Y-78289500D01*
X42312933Y-78289500D01*
X42311405Y-78289626D01*
X42311395Y-78289627D01*
X42130225Y-78304639D01*
X42130217Y-78304640D01*
X42127179Y-78304892D01*
X42124225Y-78305639D01*
X42124219Y-78305641D01*
X41889083Y-78365186D01*
X41889078Y-78365187D01*
X41886119Y-78365937D01*
X41883318Y-78367165D01*
X41883314Y-78367167D01*
X41661199Y-78464596D01*
X41658393Y-78465827D01*
X41655839Y-78467495D01*
X41655827Y-78467502D01*
X41452776Y-78600162D01*
X41452769Y-78600167D01*
X41450215Y-78601836D01*
X41447977Y-78603896D01*
X41447967Y-78603904D01*
X41269510Y-78768186D01*
X41269506Y-78768189D01*
X41267262Y-78770256D01*
X41265388Y-78772662D01*
X41265383Y-78772669D01*
X41116408Y-78964072D01*
X41116403Y-78964078D01*
X41114526Y-78966491D01*
X41113070Y-78969181D01*
X41113067Y-78969186D01*
X40997630Y-79182495D01*
X40996172Y-79185190D01*
X40995179Y-79188080D01*
X40995176Y-79188089D01*
X40916425Y-79417483D01*
X40916423Y-79417489D01*
X40915429Y-79420386D01*
X40914926Y-79423399D01*
X40914924Y-79423408D01*
X40875002Y-79662653D01*
X40875001Y-79662660D01*
X40874500Y-79665665D01*
X40874500Y-79914335D01*
X32300500Y-79914335D01*
X32300500Y-75714335D01*
X40874500Y-75714335D01*
X40875001Y-75717340D01*
X40875002Y-75717346D01*
X40914924Y-75956591D01*
X40914925Y-75956597D01*
X40915429Y-75959614D01*
X40916424Y-75962513D01*
X40916425Y-75962516D01*
X40984537Y-76160921D01*
X40996172Y-76194810D01*
X41114526Y-76413509D01*
X41267262Y-76609744D01*
X41450215Y-76778164D01*
X41452776Y-76779837D01*
X41655827Y-76912497D01*
X41655830Y-76912499D01*
X41658393Y-76914173D01*
X41886119Y-77014063D01*
X42127179Y-77075108D01*
X42312933Y-77090500D01*
X43435528Y-77090500D01*
X43437067Y-77090500D01*
X43622821Y-77075108D01*
X43863881Y-77014063D01*
X44091607Y-76914173D01*
X44299785Y-76778164D01*
X44482738Y-76609744D01*
X44635474Y-76413509D01*
X44723961Y-76250000D01*
X47040458Y-76250000D01*
X47041369Y-76255752D01*
X47059590Y-76370802D01*
X47059591Y-76370806D01*
X47060502Y-76376555D01*
X47063145Y-76381742D01*
X47063146Y-76381745D01*
X47116030Y-76485535D01*
X47116031Y-76485537D01*
X47118674Y-76490723D01*
X47209277Y-76581326D01*
X47323445Y-76639498D01*
X47450000Y-76659542D01*
X47576555Y-76639498D01*
X47690723Y-76581326D01*
X47781326Y-76490723D01*
X47839498Y-76376555D01*
X47842058Y-76360394D01*
X54535631Y-76360394D01*
X54536197Y-76364093D01*
X54536198Y-76364099D01*
X54565876Y-76557827D01*
X54565878Y-76557835D01*
X54566444Y-76561529D01*
X54567742Y-76565034D01*
X54567744Y-76565041D01*
X54635809Y-76748823D01*
X54635811Y-76748828D01*
X54637114Y-76752345D01*
X54744748Y-76925029D01*
X54884941Y-77072511D01*
X54910603Y-77090372D01*
X54974530Y-77134867D01*
X55051951Y-77188753D01*
X55238942Y-77268998D01*
X55438259Y-77309958D01*
X56088862Y-77309958D01*
X56090742Y-77309958D01*
X56242438Y-77294532D01*
X56436588Y-77233617D01*
X56614502Y-77134867D01*
X56768895Y-77002324D01*
X56893448Y-76841416D01*
X56983060Y-76658729D01*
X57034063Y-76461743D01*
X57044369Y-76258522D01*
X57013556Y-76057387D01*
X56942886Y-75866571D01*
X56835252Y-75693887D01*
X56695059Y-75546405D01*
X56608984Y-75486495D01*
X56531126Y-75432304D01*
X56531121Y-75432301D01*
X56528049Y-75430163D01*
X56524603Y-75428684D01*
X56344503Y-75351396D01*
X56344499Y-75351394D01*
X56341058Y-75349918D01*
X56337390Y-75349164D01*
X56337383Y-75349162D01*
X56145417Y-75309713D01*
X56145412Y-75309712D01*
X56141741Y-75308958D01*
X55489258Y-75308958D01*
X55487396Y-75309147D01*
X55487383Y-75309148D01*
X55341295Y-75324004D01*
X55341291Y-75324004D01*
X55337562Y-75324384D01*
X55333984Y-75325506D01*
X55333982Y-75325507D01*
X55146994Y-75384174D01*
X55146984Y-75384178D01*
X55143412Y-75385299D01*
X55140135Y-75387117D01*
X55140130Y-75387120D01*
X54968782Y-75482225D01*
X54968773Y-75482231D01*
X54965498Y-75484049D01*
X54962656Y-75486488D01*
X54962647Y-75486495D01*
X54813950Y-75614148D01*
X54813941Y-75614156D01*
X54811105Y-75616592D01*
X54808814Y-75619551D01*
X54808807Y-75619559D01*
X54688849Y-75774531D01*
X54688844Y-75774538D01*
X54686552Y-75777500D01*
X54684901Y-75780863D01*
X54684900Y-75780867D01*
X54598591Y-75956819D01*
X54598587Y-75956827D01*
X54596940Y-75960187D01*
X54596001Y-75963810D01*
X54595999Y-75963818D01*
X54546877Y-76153540D01*
X54546876Y-76153546D01*
X54545937Y-76157173D01*
X54545747Y-76160911D01*
X54545746Y-76160921D01*
X54540797Y-76258522D01*
X54535631Y-76360394D01*
X47842058Y-76360394D01*
X47859542Y-76250000D01*
X47839498Y-76123445D01*
X47807725Y-76061088D01*
X47783969Y-76014464D01*
X47783968Y-76014463D01*
X47781326Y-76009277D01*
X47690723Y-75918674D01*
X47685537Y-75916031D01*
X47685535Y-75916030D01*
X47581745Y-75863146D01*
X47581742Y-75863145D01*
X47576555Y-75860502D01*
X47570806Y-75859591D01*
X47570802Y-75859590D01*
X47455752Y-75841369D01*
X47450000Y-75840458D01*
X47444248Y-75841369D01*
X47329197Y-75859590D01*
X47329191Y-75859591D01*
X47323445Y-75860502D01*
X47318259Y-75863144D01*
X47318254Y-75863146D01*
X47214464Y-75916030D01*
X47214459Y-75916033D01*
X47209277Y-75918674D01*
X47205163Y-75922787D01*
X47205160Y-75922790D01*
X47122790Y-76005160D01*
X47122787Y-76005163D01*
X47118674Y-76009277D01*
X47116033Y-76014459D01*
X47116030Y-76014464D01*
X47063146Y-76118254D01*
X47063144Y-76118259D01*
X47060502Y-76123445D01*
X47059591Y-76129191D01*
X47059590Y-76129197D01*
X47054566Y-76160921D01*
X47040458Y-76250000D01*
X44723961Y-76250000D01*
X44753828Y-76194810D01*
X44834571Y-75959614D01*
X44875500Y-75714335D01*
X44875500Y-75465665D01*
X44834571Y-75220386D01*
X44753828Y-74985190D01*
X44635474Y-74766491D01*
X44482738Y-74570256D01*
X44327931Y-74427746D01*
X44302032Y-74403904D01*
X44302028Y-74403901D01*
X44299785Y-74401836D01*
X44296975Y-74400000D01*
X46550458Y-74400000D01*
X46551369Y-74405752D01*
X46569590Y-74520802D01*
X46569591Y-74520806D01*
X46570502Y-74526555D01*
X46573145Y-74531742D01*
X46573146Y-74531745D01*
X46626030Y-74635535D01*
X46626031Y-74635537D01*
X46628674Y-74640723D01*
X46719277Y-74731326D01*
X46833445Y-74789498D01*
X46960000Y-74809542D01*
X47086555Y-74789498D01*
X47200723Y-74731326D01*
X47291326Y-74640723D01*
X47349498Y-74526555D01*
X47369542Y-74400000D01*
X47349498Y-74273445D01*
X47295346Y-74167167D01*
X47293969Y-74164464D01*
X47293968Y-74164463D01*
X47291326Y-74159277D01*
X47200723Y-74068674D01*
X47195537Y-74066031D01*
X47195535Y-74066030D01*
X47091745Y-74013146D01*
X47091742Y-74013145D01*
X47086555Y-74010502D01*
X47080806Y-74009591D01*
X47080802Y-74009590D01*
X46965752Y-73991369D01*
X46960000Y-73990458D01*
X46954248Y-73991369D01*
X46839197Y-74009590D01*
X46839191Y-74009591D01*
X46833445Y-74010502D01*
X46828259Y-74013144D01*
X46828254Y-74013146D01*
X46724464Y-74066030D01*
X46724459Y-74066033D01*
X46719277Y-74068674D01*
X46715163Y-74072787D01*
X46715160Y-74072790D01*
X46632790Y-74155160D01*
X46632787Y-74155163D01*
X46628674Y-74159277D01*
X46626033Y-74164459D01*
X46626030Y-74164464D01*
X46573146Y-74268254D01*
X46573144Y-74268259D01*
X46570502Y-74273445D01*
X46569591Y-74279191D01*
X46569590Y-74279197D01*
X46551369Y-74394248D01*
X46550458Y-74400000D01*
X44296975Y-74400000D01*
X44288171Y-74394248D01*
X44094172Y-74267502D01*
X44094164Y-74267498D01*
X44091607Y-74265827D01*
X43863881Y-74165937D01*
X43860917Y-74165186D01*
X43860916Y-74165186D01*
X43625780Y-74105641D01*
X43625776Y-74105640D01*
X43622821Y-74104892D01*
X43619780Y-74104640D01*
X43619774Y-74104639D01*
X43438604Y-74089627D01*
X43438595Y-74089626D01*
X43437067Y-74089500D01*
X42312933Y-74089500D01*
X42311405Y-74089626D01*
X42311395Y-74089627D01*
X42130225Y-74104639D01*
X42130217Y-74104640D01*
X42127179Y-74104892D01*
X42124225Y-74105639D01*
X42124219Y-74105641D01*
X41889083Y-74165186D01*
X41889078Y-74165187D01*
X41886119Y-74165937D01*
X41883318Y-74167165D01*
X41883314Y-74167167D01*
X41681865Y-74255531D01*
X41658393Y-74265827D01*
X41655839Y-74267495D01*
X41655827Y-74267502D01*
X41452776Y-74400162D01*
X41452769Y-74400167D01*
X41450215Y-74401836D01*
X41447977Y-74403896D01*
X41447967Y-74403904D01*
X41269510Y-74568186D01*
X41269506Y-74568189D01*
X41267262Y-74570256D01*
X41265388Y-74572662D01*
X41265383Y-74572669D01*
X41116408Y-74764072D01*
X41116403Y-74764078D01*
X41114526Y-74766491D01*
X41113070Y-74769181D01*
X41113067Y-74769186D01*
X40997630Y-74982495D01*
X40996172Y-74985190D01*
X40995179Y-74988080D01*
X40995176Y-74988089D01*
X40916425Y-75217483D01*
X40916423Y-75217489D01*
X40915429Y-75220386D01*
X40914926Y-75223399D01*
X40914924Y-75223408D01*
X40875002Y-75462653D01*
X40875001Y-75462660D01*
X40874500Y-75465665D01*
X40874500Y-75714335D01*
X32300500Y-75714335D01*
X32300500Y-73860394D01*
X54535631Y-73860394D01*
X54536197Y-73864093D01*
X54536198Y-73864099D01*
X54565876Y-74057827D01*
X54565878Y-74057835D01*
X54566444Y-74061529D01*
X54567742Y-74065034D01*
X54567744Y-74065041D01*
X54635809Y-74248823D01*
X54635811Y-74248828D01*
X54637114Y-74252345D01*
X54744748Y-74425029D01*
X54884941Y-74572511D01*
X54888014Y-74574649D01*
X54888013Y-74574649D01*
X54974530Y-74634867D01*
X55051951Y-74688753D01*
X55238942Y-74768998D01*
X55438259Y-74809958D01*
X56088862Y-74809958D01*
X56090742Y-74809958D01*
X56242438Y-74794532D01*
X56436588Y-74733617D01*
X56614502Y-74634867D01*
X56768895Y-74502324D01*
X56893448Y-74341416D01*
X56983060Y-74158729D01*
X57034063Y-73961743D01*
X57044369Y-73758522D01*
X57013556Y-73557387D01*
X56942886Y-73366571D01*
X56835252Y-73193887D01*
X56695059Y-73046405D01*
X56668314Y-73027790D01*
X56531126Y-72932304D01*
X56531121Y-72932301D01*
X56528049Y-72930163D01*
X56524603Y-72928684D01*
X56344503Y-72851396D01*
X56344499Y-72851394D01*
X56341058Y-72849918D01*
X56337390Y-72849164D01*
X56337383Y-72849162D01*
X56145417Y-72809713D01*
X56145412Y-72809712D01*
X56141741Y-72808958D01*
X55489258Y-72808958D01*
X55487396Y-72809147D01*
X55487383Y-72809148D01*
X55341295Y-72824004D01*
X55341291Y-72824004D01*
X55337562Y-72824384D01*
X55333984Y-72825506D01*
X55333982Y-72825507D01*
X55146994Y-72884174D01*
X55146984Y-72884178D01*
X55143412Y-72885299D01*
X55140135Y-72887117D01*
X55140130Y-72887120D01*
X54968782Y-72982225D01*
X54968773Y-72982231D01*
X54965498Y-72984049D01*
X54962656Y-72986488D01*
X54962647Y-72986495D01*
X54813950Y-73114148D01*
X54813941Y-73114156D01*
X54811105Y-73116592D01*
X54808814Y-73119551D01*
X54808807Y-73119559D01*
X54688849Y-73274531D01*
X54688844Y-73274538D01*
X54686552Y-73277500D01*
X54684901Y-73280863D01*
X54684900Y-73280867D01*
X54598591Y-73456819D01*
X54598587Y-73456827D01*
X54596940Y-73460187D01*
X54596001Y-73463810D01*
X54595999Y-73463818D01*
X54546877Y-73653540D01*
X54546876Y-73653546D01*
X54545937Y-73657173D01*
X54545747Y-73660911D01*
X54545746Y-73660921D01*
X54535821Y-73856646D01*
X54535631Y-73860394D01*
X32300500Y-73860394D01*
X32300500Y-73355000D01*
X47738458Y-73355000D01*
X47739369Y-73360752D01*
X47757590Y-73475802D01*
X47757591Y-73475806D01*
X47758502Y-73481555D01*
X47761145Y-73486742D01*
X47761146Y-73486745D01*
X47814030Y-73590535D01*
X47814031Y-73590537D01*
X47816674Y-73595723D01*
X47907277Y-73686326D01*
X48021445Y-73744498D01*
X48148000Y-73764542D01*
X48274555Y-73744498D01*
X48388723Y-73686326D01*
X48479326Y-73595723D01*
X48537498Y-73481555D01*
X48557542Y-73355000D01*
X48537498Y-73228445D01*
X48479326Y-73114277D01*
X48388723Y-73023674D01*
X48383537Y-73021031D01*
X48383535Y-73021030D01*
X48279745Y-72968146D01*
X48279742Y-72968145D01*
X48274555Y-72965502D01*
X48268806Y-72964591D01*
X48268802Y-72964590D01*
X48153752Y-72946369D01*
X48148000Y-72945458D01*
X48142248Y-72946369D01*
X48027197Y-72964590D01*
X48027191Y-72964591D01*
X48021445Y-72965502D01*
X48016259Y-72968144D01*
X48016254Y-72968146D01*
X47912464Y-73021030D01*
X47912459Y-73021033D01*
X47907277Y-73023674D01*
X47903163Y-73027787D01*
X47903160Y-73027790D01*
X47820790Y-73110160D01*
X47820787Y-73110163D01*
X47816674Y-73114277D01*
X47814033Y-73119459D01*
X47814030Y-73119464D01*
X47761146Y-73223254D01*
X47761144Y-73223259D01*
X47758502Y-73228445D01*
X47757591Y-73234191D01*
X47757590Y-73234197D01*
X47750199Y-73280867D01*
X47738458Y-73355000D01*
X32300500Y-73355000D01*
X32300500Y-71514335D01*
X35374500Y-71514335D01*
X35375001Y-71517340D01*
X35375002Y-71517346D01*
X35414924Y-71756591D01*
X35414925Y-71756597D01*
X35415429Y-71759614D01*
X35416424Y-71762513D01*
X35416425Y-71762516D01*
X35478470Y-71943248D01*
X35496172Y-71994810D01*
X35614526Y-72213509D01*
X35767262Y-72409744D01*
X35950215Y-72578164D01*
X35952776Y-72579837D01*
X36155827Y-72712497D01*
X36155830Y-72712499D01*
X36158393Y-72714173D01*
X36386119Y-72814063D01*
X36627179Y-72875108D01*
X36812933Y-72890500D01*
X37935528Y-72890500D01*
X37937067Y-72890500D01*
X38122821Y-72875108D01*
X38363881Y-72814063D01*
X38591607Y-72714173D01*
X38799785Y-72578164D01*
X38982738Y-72409744D01*
X39135474Y-72213509D01*
X39253828Y-71994810D01*
X39334571Y-71759614D01*
X39375500Y-71514335D01*
X40874500Y-71514335D01*
X40875001Y-71517340D01*
X40875002Y-71517346D01*
X40914924Y-71756591D01*
X40914925Y-71756597D01*
X40915429Y-71759614D01*
X40916424Y-71762513D01*
X40916425Y-71762516D01*
X40978470Y-71943248D01*
X40996172Y-71994810D01*
X41114526Y-72213509D01*
X41267262Y-72409744D01*
X41450215Y-72578164D01*
X41452776Y-72579837D01*
X41655827Y-72712497D01*
X41655830Y-72712499D01*
X41658393Y-72714173D01*
X41886119Y-72814063D01*
X42127179Y-72875108D01*
X42312933Y-72890500D01*
X43435528Y-72890500D01*
X43437067Y-72890500D01*
X43622821Y-72875108D01*
X43863881Y-72814063D01*
X44091607Y-72714173D01*
X44299785Y-72578164D01*
X44482738Y-72409744D01*
X44635474Y-72213509D01*
X44696902Y-72100000D01*
X49850458Y-72100000D01*
X49851369Y-72105752D01*
X49869590Y-72220802D01*
X49869591Y-72220806D01*
X49870502Y-72226555D01*
X49873145Y-72231742D01*
X49873146Y-72231745D01*
X49926030Y-72335535D01*
X49926031Y-72335537D01*
X49928674Y-72340723D01*
X50019277Y-72431326D01*
X50133445Y-72489498D01*
X50260000Y-72509542D01*
X50386555Y-72489498D01*
X50500723Y-72431326D01*
X50591326Y-72340723D01*
X50649498Y-72226555D01*
X50669542Y-72100000D01*
X50649498Y-71973445D01*
X50637043Y-71949000D01*
X52343458Y-71949000D01*
X52344369Y-71954752D01*
X52362590Y-72069802D01*
X52362591Y-72069806D01*
X52363502Y-72075555D01*
X52366145Y-72080742D01*
X52366146Y-72080745D01*
X52419030Y-72184535D01*
X52419031Y-72184537D01*
X52421674Y-72189723D01*
X52512277Y-72280326D01*
X52626445Y-72338498D01*
X52753000Y-72358542D01*
X52879555Y-72338498D01*
X52993723Y-72280326D01*
X53084326Y-72189723D01*
X53142498Y-72075555D01*
X53162542Y-71949000D01*
X53142498Y-71822445D01*
X53084326Y-71708277D01*
X52993723Y-71617674D01*
X52988537Y-71615031D01*
X52988535Y-71615030D01*
X52884745Y-71562146D01*
X52884742Y-71562145D01*
X52879555Y-71559502D01*
X52873806Y-71558591D01*
X52873802Y-71558590D01*
X52758752Y-71540369D01*
X52753000Y-71539458D01*
X52747248Y-71540369D01*
X52632197Y-71558590D01*
X52632191Y-71558591D01*
X52626445Y-71559502D01*
X52621259Y-71562144D01*
X52621254Y-71562146D01*
X52517464Y-71615030D01*
X52517459Y-71615033D01*
X52512277Y-71617674D01*
X52508163Y-71621787D01*
X52508160Y-71621790D01*
X52425790Y-71704160D01*
X52425787Y-71704163D01*
X52421674Y-71708277D01*
X52419033Y-71713459D01*
X52419030Y-71713464D01*
X52366146Y-71817254D01*
X52366144Y-71817259D01*
X52363502Y-71822445D01*
X52362591Y-71828191D01*
X52362590Y-71828197D01*
X52344369Y-71943248D01*
X52343458Y-71949000D01*
X50637043Y-71949000D01*
X50591326Y-71859277D01*
X50500723Y-71768674D01*
X50495537Y-71766031D01*
X50495535Y-71766030D01*
X50391745Y-71713146D01*
X50391742Y-71713145D01*
X50386555Y-71710502D01*
X50380806Y-71709591D01*
X50380802Y-71709590D01*
X50265752Y-71691369D01*
X50260000Y-71690458D01*
X50254248Y-71691369D01*
X50139197Y-71709590D01*
X50139191Y-71709591D01*
X50133445Y-71710502D01*
X50128259Y-71713144D01*
X50128254Y-71713146D01*
X50024464Y-71766030D01*
X50024459Y-71766033D01*
X50019277Y-71768674D01*
X50015163Y-71772787D01*
X50015160Y-71772790D01*
X49932790Y-71855160D01*
X49932787Y-71855163D01*
X49928674Y-71859277D01*
X49926033Y-71864459D01*
X49926030Y-71864464D01*
X49873146Y-71968254D01*
X49873144Y-71968259D01*
X49870502Y-71973445D01*
X49869591Y-71979191D01*
X49869590Y-71979197D01*
X49853508Y-72080745D01*
X49850458Y-72100000D01*
X44696902Y-72100000D01*
X44753828Y-71994810D01*
X44834571Y-71759614D01*
X44875500Y-71514335D01*
X44875500Y-71265665D01*
X44834571Y-71020386D01*
X44753828Y-70785190D01*
X44635474Y-70566491D01*
X44482738Y-70370256D01*
X44407800Y-70301270D01*
X44302032Y-70203904D01*
X44302028Y-70203901D01*
X44299785Y-70201836D01*
X44297223Y-70200162D01*
X44094172Y-70067502D01*
X44094164Y-70067498D01*
X44091607Y-70065827D01*
X43863881Y-69965937D01*
X43860917Y-69965186D01*
X43860916Y-69965186D01*
X43625780Y-69905641D01*
X43625776Y-69905640D01*
X43622821Y-69904892D01*
X43619780Y-69904640D01*
X43619774Y-69904639D01*
X43438604Y-69889627D01*
X43438595Y-69889626D01*
X43437067Y-69889500D01*
X42312933Y-69889500D01*
X42311405Y-69889626D01*
X42311395Y-69889627D01*
X42130225Y-69904639D01*
X42130217Y-69904640D01*
X42127179Y-69904892D01*
X42124225Y-69905639D01*
X42124219Y-69905641D01*
X41889083Y-69965186D01*
X41889078Y-69965187D01*
X41886119Y-69965937D01*
X41883318Y-69967165D01*
X41883314Y-69967167D01*
X41661199Y-70064596D01*
X41658393Y-70065827D01*
X41655839Y-70067495D01*
X41655827Y-70067502D01*
X41452776Y-70200162D01*
X41452769Y-70200167D01*
X41450215Y-70201836D01*
X41447977Y-70203896D01*
X41447967Y-70203904D01*
X41269510Y-70368186D01*
X41269506Y-70368189D01*
X41267262Y-70370256D01*
X41265388Y-70372662D01*
X41265383Y-70372669D01*
X41116408Y-70564072D01*
X41116403Y-70564078D01*
X41114526Y-70566491D01*
X41113070Y-70569181D01*
X41113067Y-70569186D01*
X40997630Y-70782495D01*
X40996172Y-70785190D01*
X40995179Y-70788080D01*
X40995176Y-70788089D01*
X40916425Y-71017483D01*
X40916423Y-71017489D01*
X40915429Y-71020386D01*
X40914926Y-71023399D01*
X40914924Y-71023408D01*
X40875002Y-71262653D01*
X40875001Y-71262660D01*
X40874500Y-71265665D01*
X40874500Y-71514335D01*
X39375500Y-71514335D01*
X39375500Y-71265665D01*
X39334571Y-71020386D01*
X39253828Y-70785190D01*
X39135474Y-70566491D01*
X38982738Y-70370256D01*
X38907800Y-70301270D01*
X38802032Y-70203904D01*
X38802028Y-70203901D01*
X38799785Y-70201836D01*
X38797223Y-70200162D01*
X38594172Y-70067502D01*
X38594164Y-70067498D01*
X38591607Y-70065827D01*
X38363881Y-69965937D01*
X38360917Y-69965186D01*
X38360916Y-69965186D01*
X38125780Y-69905641D01*
X38125776Y-69905640D01*
X38122821Y-69904892D01*
X38119780Y-69904640D01*
X38119774Y-69904639D01*
X37938604Y-69889627D01*
X37938595Y-69889626D01*
X37937067Y-69889500D01*
X36812933Y-69889500D01*
X36811405Y-69889626D01*
X36811395Y-69889627D01*
X36630225Y-69904639D01*
X36630217Y-69904640D01*
X36627179Y-69904892D01*
X36624225Y-69905639D01*
X36624219Y-69905641D01*
X36389083Y-69965186D01*
X36389078Y-69965187D01*
X36386119Y-69965937D01*
X36383318Y-69967165D01*
X36383314Y-69967167D01*
X36161199Y-70064596D01*
X36158393Y-70065827D01*
X36155839Y-70067495D01*
X36155827Y-70067502D01*
X35952776Y-70200162D01*
X35952769Y-70200167D01*
X35950215Y-70201836D01*
X35947977Y-70203896D01*
X35947967Y-70203904D01*
X35769510Y-70368186D01*
X35769506Y-70368189D01*
X35767262Y-70370256D01*
X35765388Y-70372662D01*
X35765383Y-70372669D01*
X35616408Y-70564072D01*
X35616403Y-70564078D01*
X35614526Y-70566491D01*
X35613070Y-70569181D01*
X35613067Y-70569186D01*
X35497630Y-70782495D01*
X35496172Y-70785190D01*
X35495179Y-70788080D01*
X35495176Y-70788089D01*
X35416425Y-71017483D01*
X35416423Y-71017489D01*
X35415429Y-71020386D01*
X35414926Y-71023399D01*
X35414924Y-71023408D01*
X35375002Y-71262653D01*
X35375001Y-71262660D01*
X35374500Y-71265665D01*
X35374500Y-71514335D01*
X32300500Y-71514335D01*
X32300500Y-67000000D01*
X42690458Y-67000000D01*
X42691369Y-67005752D01*
X42709590Y-67120802D01*
X42709591Y-67120806D01*
X42710502Y-67126555D01*
X42713145Y-67131742D01*
X42713146Y-67131745D01*
X42766030Y-67235535D01*
X42766031Y-67235537D01*
X42768674Y-67240723D01*
X42859277Y-67331326D01*
X42973445Y-67389498D01*
X43100000Y-67409542D01*
X43226555Y-67389498D01*
X43340723Y-67331326D01*
X43431326Y-67240723D01*
X43489498Y-67126555D01*
X43509542Y-67000000D01*
X43489498Y-66873445D01*
X43431326Y-66759277D01*
X43340723Y-66668674D01*
X43335537Y-66666031D01*
X43335535Y-66666030D01*
X43231745Y-66613146D01*
X43231742Y-66613145D01*
X43226555Y-66610502D01*
X43220806Y-66609591D01*
X43220802Y-66609590D01*
X43105752Y-66591369D01*
X43100000Y-66590458D01*
X43094248Y-66591369D01*
X42979197Y-66609590D01*
X42979191Y-66609591D01*
X42973445Y-66610502D01*
X42968259Y-66613144D01*
X42968254Y-66613146D01*
X42864464Y-66666030D01*
X42864459Y-66666033D01*
X42859277Y-66668674D01*
X42855163Y-66672787D01*
X42855160Y-66672790D01*
X42772790Y-66755160D01*
X42772787Y-66755163D01*
X42768674Y-66759277D01*
X42766033Y-66764459D01*
X42766030Y-66764464D01*
X42713146Y-66868254D01*
X42713144Y-66868259D01*
X42710502Y-66873445D01*
X42709591Y-66879191D01*
X42709590Y-66879197D01*
X42691369Y-66994248D01*
X42690458Y-67000000D01*
X32300500Y-67000000D01*
X32300500Y-66150000D01*
X39490458Y-66150000D01*
X39491369Y-66155752D01*
X39509590Y-66270802D01*
X39509591Y-66270806D01*
X39510502Y-66276555D01*
X39513145Y-66281742D01*
X39513146Y-66281745D01*
X39566030Y-66385535D01*
X39566031Y-66385537D01*
X39568674Y-66390723D01*
X39659277Y-66481326D01*
X39773445Y-66539498D01*
X39900000Y-66559542D01*
X40026555Y-66539498D01*
X40140723Y-66481326D01*
X40231326Y-66390723D01*
X40279081Y-66297000D01*
X46425458Y-66297000D01*
X46426369Y-66302752D01*
X46444590Y-66417802D01*
X46444591Y-66417806D01*
X46445502Y-66423555D01*
X46448145Y-66428742D01*
X46448146Y-66428745D01*
X46501030Y-66532535D01*
X46501031Y-66532537D01*
X46503674Y-66537723D01*
X46594277Y-66628326D01*
X46708445Y-66686498D01*
X46835000Y-66706542D01*
X46961555Y-66686498D01*
X47075723Y-66628326D01*
X47166326Y-66537723D01*
X47224498Y-66423555D01*
X47244542Y-66297000D01*
X47224498Y-66170445D01*
X47166326Y-66056277D01*
X47147049Y-66037000D01*
X53614458Y-66037000D01*
X53615369Y-66042752D01*
X53633590Y-66157802D01*
X53633591Y-66157806D01*
X53634502Y-66163555D01*
X53637145Y-66168742D01*
X53637146Y-66168745D01*
X53690030Y-66272535D01*
X53690031Y-66272537D01*
X53692674Y-66277723D01*
X53783277Y-66368326D01*
X53897445Y-66426498D01*
X54024000Y-66446542D01*
X54150555Y-66426498D01*
X54264723Y-66368326D01*
X54355326Y-66277723D01*
X54413498Y-66163555D01*
X54433542Y-66037000D01*
X54413498Y-65910445D01*
X54368835Y-65822790D01*
X54357969Y-65801464D01*
X54357968Y-65801463D01*
X54355326Y-65796277D01*
X54264723Y-65705674D01*
X54259537Y-65703031D01*
X54259535Y-65703030D01*
X54155745Y-65650146D01*
X54155742Y-65650145D01*
X54150555Y-65647502D01*
X54144806Y-65646591D01*
X54144802Y-65646590D01*
X54029752Y-65628369D01*
X54024000Y-65627458D01*
X54018248Y-65628369D01*
X53903197Y-65646590D01*
X53903191Y-65646591D01*
X53897445Y-65647502D01*
X53892259Y-65650144D01*
X53892254Y-65650146D01*
X53788464Y-65703030D01*
X53788459Y-65703033D01*
X53783277Y-65705674D01*
X53779163Y-65709787D01*
X53779160Y-65709790D01*
X53696790Y-65792160D01*
X53696787Y-65792163D01*
X53692674Y-65796277D01*
X53690033Y-65801459D01*
X53690030Y-65801464D01*
X53637146Y-65905254D01*
X53637144Y-65905259D01*
X53634502Y-65910445D01*
X53633591Y-65916191D01*
X53633590Y-65916197D01*
X53622493Y-65986265D01*
X53614458Y-66037000D01*
X47147049Y-66037000D01*
X47075723Y-65965674D01*
X47070537Y-65963031D01*
X47070535Y-65963030D01*
X46966745Y-65910146D01*
X46966742Y-65910145D01*
X46961555Y-65907502D01*
X46955806Y-65906591D01*
X46955802Y-65906590D01*
X46840752Y-65888369D01*
X46835000Y-65887458D01*
X46829248Y-65888369D01*
X46714197Y-65906590D01*
X46714191Y-65906591D01*
X46708445Y-65907502D01*
X46703259Y-65910144D01*
X46703254Y-65910146D01*
X46599464Y-65963030D01*
X46599459Y-65963033D01*
X46594277Y-65965674D01*
X46590163Y-65969787D01*
X46590160Y-65969790D01*
X46507790Y-66052160D01*
X46507787Y-66052163D01*
X46503674Y-66056277D01*
X46501033Y-66061459D01*
X46501030Y-66061464D01*
X46448146Y-66165254D01*
X46448144Y-66165259D01*
X46445502Y-66170445D01*
X46444591Y-66176191D01*
X46444590Y-66176197D01*
X46429607Y-66270802D01*
X46425458Y-66297000D01*
X40279081Y-66297000D01*
X40289498Y-66276555D01*
X40309542Y-66150000D01*
X40289498Y-66023445D01*
X40270533Y-65986225D01*
X40233969Y-65914464D01*
X40233968Y-65914463D01*
X40231326Y-65909277D01*
X40140723Y-65818674D01*
X40135537Y-65816031D01*
X40135535Y-65816030D01*
X40031745Y-65763146D01*
X40031742Y-65763145D01*
X40026555Y-65760502D01*
X40020806Y-65759591D01*
X40020802Y-65759590D01*
X39905752Y-65741369D01*
X39900000Y-65740458D01*
X39894248Y-65741369D01*
X39779197Y-65759590D01*
X39779191Y-65759591D01*
X39773445Y-65760502D01*
X39768259Y-65763144D01*
X39768254Y-65763146D01*
X39664464Y-65816030D01*
X39664459Y-65816033D01*
X39659277Y-65818674D01*
X39655163Y-65822787D01*
X39655160Y-65822790D01*
X39572790Y-65905160D01*
X39572787Y-65905163D01*
X39568674Y-65909277D01*
X39566033Y-65914459D01*
X39566030Y-65914464D01*
X39513146Y-66018254D01*
X39513144Y-66018259D01*
X39510502Y-66023445D01*
X39509591Y-66029191D01*
X39509590Y-66029197D01*
X39504480Y-66061464D01*
X39490458Y-66150000D01*
X32300500Y-66150000D01*
X32300500Y-65576723D01*
X56646163Y-65576723D01*
X56647074Y-65582475D01*
X56665295Y-65697525D01*
X56665296Y-65697529D01*
X56666207Y-65703278D01*
X56668850Y-65708465D01*
X56668851Y-65708468D01*
X56721735Y-65812258D01*
X56721736Y-65812260D01*
X56724379Y-65817446D01*
X56814982Y-65908049D01*
X56929150Y-65966221D01*
X57055705Y-65986265D01*
X57182260Y-65966221D01*
X57296428Y-65908049D01*
X57387031Y-65817446D01*
X57445203Y-65703278D01*
X57465247Y-65576723D01*
X57445203Y-65450168D01*
X57387031Y-65336000D01*
X57296428Y-65245397D01*
X57291242Y-65242754D01*
X57291240Y-65242753D01*
X57187450Y-65189869D01*
X57187447Y-65189868D01*
X57182260Y-65187225D01*
X57176511Y-65186314D01*
X57176507Y-65186313D01*
X57061457Y-65168092D01*
X57055705Y-65167181D01*
X57049953Y-65168092D01*
X56934902Y-65186313D01*
X56934896Y-65186314D01*
X56929150Y-65187225D01*
X56923964Y-65189867D01*
X56923959Y-65189869D01*
X56820169Y-65242753D01*
X56820164Y-65242756D01*
X56814982Y-65245397D01*
X56810868Y-65249510D01*
X56810865Y-65249513D01*
X56728495Y-65331883D01*
X56728492Y-65331886D01*
X56724379Y-65336000D01*
X56721738Y-65341182D01*
X56721735Y-65341187D01*
X56668851Y-65444977D01*
X56668849Y-65444982D01*
X56666207Y-65450168D01*
X56665296Y-65455914D01*
X56665295Y-65455920D01*
X56647819Y-65566265D01*
X56646163Y-65576723D01*
X32300500Y-65576723D01*
X32300500Y-64655000D01*
X44760458Y-64655000D01*
X44761369Y-64660752D01*
X44779590Y-64775802D01*
X44779591Y-64775806D01*
X44780502Y-64781555D01*
X44783145Y-64786742D01*
X44783146Y-64786745D01*
X44836030Y-64890535D01*
X44836031Y-64890537D01*
X44838674Y-64895723D01*
X44929277Y-64986326D01*
X45043445Y-65044498D01*
X45170000Y-65064542D01*
X45296555Y-65044498D01*
X45410723Y-64986326D01*
X45501326Y-64895723D01*
X45559498Y-64781555D01*
X45567242Y-64732660D01*
X59210891Y-64732660D01*
X59230208Y-64928792D01*
X59231260Y-64932261D01*
X59231261Y-64932264D01*
X59286362Y-65113906D01*
X59287418Y-65117387D01*
X59289130Y-65120590D01*
X59289133Y-65120597D01*
X59324747Y-65187225D01*
X59380322Y-65291198D01*
X59382623Y-65294002D01*
X59382626Y-65294006D01*
X59417090Y-65336000D01*
X59505349Y-65443543D01*
X59657694Y-65568570D01*
X59767866Y-65627458D01*
X59828294Y-65659758D01*
X59828296Y-65659759D01*
X59831505Y-65661474D01*
X60020100Y-65718684D01*
X60216232Y-65738001D01*
X60412364Y-65718684D01*
X60600959Y-65661474D01*
X60774770Y-65568570D01*
X60927115Y-65443543D01*
X61052142Y-65291198D01*
X61145046Y-65117387D01*
X61202256Y-64928792D01*
X61221573Y-64732660D01*
X61202256Y-64536528D01*
X61145046Y-64347933D01*
X61134279Y-64327790D01*
X61090272Y-64245458D01*
X61052142Y-64174122D01*
X60927115Y-64021777D01*
X60924304Y-64019470D01*
X60777578Y-63899054D01*
X60777574Y-63899051D01*
X60774770Y-63896750D01*
X60740424Y-63878392D01*
X60604169Y-63805561D01*
X60604162Y-63805558D01*
X60600959Y-63803846D01*
X60597478Y-63802790D01*
X60415836Y-63747689D01*
X60415833Y-63747688D01*
X60412364Y-63746636D01*
X60408752Y-63746280D01*
X60408751Y-63746280D01*
X60219847Y-63727675D01*
X60216232Y-63727319D01*
X60212617Y-63727675D01*
X60023712Y-63746280D01*
X60023709Y-63746280D01*
X60020100Y-63746636D01*
X60016632Y-63747687D01*
X60016627Y-63747689D01*
X59834985Y-63802790D01*
X59834981Y-63802791D01*
X59831505Y-63803846D01*
X59828304Y-63805556D01*
X59828294Y-63805561D01*
X59660900Y-63895036D01*
X59660897Y-63895037D01*
X59657694Y-63896750D01*
X59654893Y-63899048D01*
X59654885Y-63899054D01*
X59508159Y-64019470D01*
X59508154Y-64019474D01*
X59505349Y-64021777D01*
X59503046Y-64024582D01*
X59503042Y-64024587D01*
X59382626Y-64171313D01*
X59382620Y-64171321D01*
X59380322Y-64174122D01*
X59378609Y-64177325D01*
X59378608Y-64177328D01*
X59289133Y-64344722D01*
X59289128Y-64344732D01*
X59287418Y-64347933D01*
X59286363Y-64351409D01*
X59286362Y-64351413D01*
X59231261Y-64533055D01*
X59231259Y-64533060D01*
X59230208Y-64536528D01*
X59210891Y-64732660D01*
X45567242Y-64732660D01*
X45579542Y-64655000D01*
X45559498Y-64528445D01*
X45501326Y-64414277D01*
X45410723Y-64323674D01*
X45405537Y-64321031D01*
X45405535Y-64321030D01*
X45301745Y-64268146D01*
X45301742Y-64268145D01*
X45296555Y-64265502D01*
X45290806Y-64264591D01*
X45290802Y-64264590D01*
X45175752Y-64246369D01*
X45170000Y-64245458D01*
X45164248Y-64246369D01*
X45049197Y-64264590D01*
X45049191Y-64264591D01*
X45043445Y-64265502D01*
X45038259Y-64268144D01*
X45038254Y-64268146D01*
X44934464Y-64321030D01*
X44934459Y-64321033D01*
X44929277Y-64323674D01*
X44925163Y-64327787D01*
X44925160Y-64327790D01*
X44842790Y-64410160D01*
X44842787Y-64410163D01*
X44838674Y-64414277D01*
X44836033Y-64419459D01*
X44836030Y-64419464D01*
X44783146Y-64523254D01*
X44783144Y-64523259D01*
X44780502Y-64528445D01*
X44779591Y-64534191D01*
X44779590Y-64534197D01*
X44761369Y-64649248D01*
X44760458Y-64655000D01*
X32300500Y-64655000D01*
X32300500Y-63820000D01*
X46304458Y-63820000D01*
X46305369Y-63825752D01*
X46323590Y-63940802D01*
X46323591Y-63940806D01*
X46324502Y-63946555D01*
X46327145Y-63951742D01*
X46327146Y-63951745D01*
X46380030Y-64055535D01*
X46380031Y-64055537D01*
X46382674Y-64060723D01*
X46473277Y-64151326D01*
X46587445Y-64209498D01*
X46714000Y-64229542D01*
X46840555Y-64209498D01*
X46954723Y-64151326D01*
X47045326Y-64060723D01*
X47103498Y-63946555D01*
X47123542Y-63820000D01*
X47103498Y-63693445D01*
X47045326Y-63579277D01*
X46954723Y-63488674D01*
X46949537Y-63486031D01*
X46949535Y-63486030D01*
X46845745Y-63433146D01*
X46845742Y-63433145D01*
X46840555Y-63430502D01*
X46834806Y-63429591D01*
X46834802Y-63429590D01*
X46719752Y-63411369D01*
X46714000Y-63410458D01*
X46708248Y-63411369D01*
X46593197Y-63429590D01*
X46593191Y-63429591D01*
X46587445Y-63430502D01*
X46582259Y-63433144D01*
X46582254Y-63433146D01*
X46478464Y-63486030D01*
X46478459Y-63486033D01*
X46473277Y-63488674D01*
X46469163Y-63492787D01*
X46469160Y-63492790D01*
X46386790Y-63575160D01*
X46386787Y-63575163D01*
X46382674Y-63579277D01*
X46380033Y-63584459D01*
X46380030Y-63584464D01*
X46327146Y-63688254D01*
X46327144Y-63688259D01*
X46324502Y-63693445D01*
X46323591Y-63699191D01*
X46323590Y-63699197D01*
X46307184Y-63802790D01*
X46304458Y-63820000D01*
X32300500Y-63820000D01*
X32300500Y-62600000D01*
X46415458Y-62600000D01*
X46416369Y-62605752D01*
X46434590Y-62720802D01*
X46434591Y-62720806D01*
X46435502Y-62726555D01*
X46438145Y-62731742D01*
X46438146Y-62731745D01*
X46491030Y-62835535D01*
X46491031Y-62835537D01*
X46493674Y-62840723D01*
X46584277Y-62931326D01*
X46698445Y-62989498D01*
X46825000Y-63009542D01*
X46951555Y-62989498D01*
X47065723Y-62931326D01*
X47156326Y-62840723D01*
X47214498Y-62726555D01*
X47234542Y-62600000D01*
X47214498Y-62473445D01*
X47156326Y-62359277D01*
X47065723Y-62268674D01*
X47060537Y-62266031D01*
X47060535Y-62266030D01*
X46956745Y-62213146D01*
X46956742Y-62213145D01*
X46951555Y-62210502D01*
X46945806Y-62209591D01*
X46945802Y-62209590D01*
X46830752Y-62191369D01*
X46825000Y-62190458D01*
X46819248Y-62191369D01*
X46704197Y-62209590D01*
X46704191Y-62209591D01*
X46698445Y-62210502D01*
X46693259Y-62213144D01*
X46693254Y-62213146D01*
X46589464Y-62266030D01*
X46589459Y-62266033D01*
X46584277Y-62268674D01*
X46580163Y-62272787D01*
X46580160Y-62272790D01*
X46497790Y-62355160D01*
X46497787Y-62355163D01*
X46493674Y-62359277D01*
X46491033Y-62364459D01*
X46491030Y-62364464D01*
X46438146Y-62468254D01*
X46438144Y-62468259D01*
X46435502Y-62473445D01*
X46434591Y-62479191D01*
X46434590Y-62479197D01*
X46416369Y-62594248D01*
X46415458Y-62600000D01*
X32300500Y-62600000D01*
X32300500Y-61873000D01*
X37007458Y-61873000D01*
X37008369Y-61878752D01*
X37026590Y-61993802D01*
X37026591Y-61993806D01*
X37027502Y-61999555D01*
X37030145Y-62004742D01*
X37030146Y-62004745D01*
X37083030Y-62108535D01*
X37083031Y-62108537D01*
X37085674Y-62113723D01*
X37176277Y-62204326D01*
X37290445Y-62262498D01*
X37417000Y-62282542D01*
X37543555Y-62262498D01*
X37657723Y-62204326D01*
X37748326Y-62113723D01*
X37806498Y-61999555D01*
X37826542Y-61873000D01*
X37806498Y-61746445D01*
X37748326Y-61632277D01*
X37725049Y-61609000D01*
X44519458Y-61609000D01*
X44520369Y-61614752D01*
X44538590Y-61729802D01*
X44538591Y-61729806D01*
X44539502Y-61735555D01*
X44542145Y-61740742D01*
X44542146Y-61740745D01*
X44595030Y-61844535D01*
X44595031Y-61844537D01*
X44597674Y-61849723D01*
X44688277Y-61940326D01*
X44802445Y-61998498D01*
X44929000Y-62018542D01*
X45055555Y-61998498D01*
X45169723Y-61940326D01*
X45260326Y-61849723D01*
X45318498Y-61735555D01*
X45338542Y-61609000D01*
X45318498Y-61482445D01*
X45260326Y-61368277D01*
X45172049Y-61280000D01*
X53490458Y-61280000D01*
X53491369Y-61285752D01*
X53509590Y-61400802D01*
X53509591Y-61400806D01*
X53510502Y-61406555D01*
X53513145Y-61411742D01*
X53513146Y-61411745D01*
X53566030Y-61515535D01*
X53566031Y-61515537D01*
X53568674Y-61520723D01*
X53659277Y-61611326D01*
X53773445Y-61669498D01*
X53900000Y-61689542D01*
X54026555Y-61669498D01*
X54140723Y-61611326D01*
X54231326Y-61520723D01*
X54289498Y-61406555D01*
X54309542Y-61280000D01*
X54289498Y-61153445D01*
X54275951Y-61126857D01*
X56669437Y-61126857D01*
X56669793Y-61130472D01*
X56685086Y-61285752D01*
X56688754Y-61322989D01*
X56689806Y-61326458D01*
X56689807Y-61326461D01*
X56715678Y-61411745D01*
X56745964Y-61511584D01*
X56747676Y-61514787D01*
X56747679Y-61514794D01*
X56798034Y-61609000D01*
X56838868Y-61685395D01*
X56841169Y-61688199D01*
X56841172Y-61688203D01*
X56893691Y-61752197D01*
X56963895Y-61837740D01*
X56966705Y-61840046D01*
X57088895Y-61940326D01*
X57116240Y-61962767D01*
X57218883Y-62017631D01*
X57286840Y-62053955D01*
X57286842Y-62053956D01*
X57290051Y-62055671D01*
X57478646Y-62112881D01*
X57674778Y-62132198D01*
X57870910Y-62112881D01*
X58059505Y-62055671D01*
X58233316Y-61962767D01*
X58385661Y-61837740D01*
X58510688Y-61685395D01*
X58603592Y-61511584D01*
X58660802Y-61322989D01*
X58680119Y-61126857D01*
X58660802Y-60930725D01*
X58603592Y-60742130D01*
X58510688Y-60568319D01*
X58385661Y-60415974D01*
X58328761Y-60369277D01*
X58236124Y-60293251D01*
X58236120Y-60293248D01*
X58233316Y-60290947D01*
X58198970Y-60272589D01*
X58062715Y-60199758D01*
X58062708Y-60199755D01*
X58059505Y-60198043D01*
X58056024Y-60196987D01*
X57874382Y-60141886D01*
X57874379Y-60141885D01*
X57870910Y-60140833D01*
X57867298Y-60140477D01*
X57867297Y-60140477D01*
X57678393Y-60121872D01*
X57674778Y-60121516D01*
X57671163Y-60121872D01*
X57482258Y-60140477D01*
X57482255Y-60140477D01*
X57478646Y-60140833D01*
X57475178Y-60141884D01*
X57475173Y-60141886D01*
X57293531Y-60196987D01*
X57293527Y-60196988D01*
X57290051Y-60198043D01*
X57286850Y-60199753D01*
X57286840Y-60199758D01*
X57119446Y-60289233D01*
X57119443Y-60289234D01*
X57116240Y-60290947D01*
X57113439Y-60293245D01*
X57113431Y-60293251D01*
X56966705Y-60413667D01*
X56966700Y-60413671D01*
X56963895Y-60415974D01*
X56961592Y-60418779D01*
X56961588Y-60418784D01*
X56841172Y-60565510D01*
X56841166Y-60565518D01*
X56838868Y-60568319D01*
X56837155Y-60571522D01*
X56837154Y-60571525D01*
X56747679Y-60738919D01*
X56747674Y-60738929D01*
X56745964Y-60742130D01*
X56744909Y-60745606D01*
X56744908Y-60745610D01*
X56689807Y-60927252D01*
X56689805Y-60927257D01*
X56688754Y-60930725D01*
X56688398Y-60934334D01*
X56688398Y-60934337D01*
X56681891Y-61000409D01*
X56669437Y-61126857D01*
X54275951Y-61126857D01*
X54231326Y-61039277D01*
X54140723Y-60948674D01*
X54135537Y-60946031D01*
X54135535Y-60946030D01*
X54031745Y-60893146D01*
X54031742Y-60893145D01*
X54026555Y-60890502D01*
X54020806Y-60889591D01*
X54020802Y-60889590D01*
X53905752Y-60871369D01*
X53900000Y-60870458D01*
X53894248Y-60871369D01*
X53779197Y-60889590D01*
X53779191Y-60889591D01*
X53773445Y-60890502D01*
X53768259Y-60893144D01*
X53768254Y-60893146D01*
X53664464Y-60946030D01*
X53664459Y-60946033D01*
X53659277Y-60948674D01*
X53655163Y-60952787D01*
X53655160Y-60952790D01*
X53572790Y-61035160D01*
X53572787Y-61035163D01*
X53568674Y-61039277D01*
X53566033Y-61044459D01*
X53566030Y-61044464D01*
X53513146Y-61148254D01*
X53513144Y-61148259D01*
X53510502Y-61153445D01*
X53509591Y-61159191D01*
X53509590Y-61159197D01*
X53499621Y-61222146D01*
X53490458Y-61280000D01*
X45172049Y-61280000D01*
X45169723Y-61277674D01*
X45164537Y-61275031D01*
X45164535Y-61275030D01*
X45060745Y-61222146D01*
X45060742Y-61222145D01*
X45055555Y-61219502D01*
X45049806Y-61218591D01*
X45049802Y-61218590D01*
X44934752Y-61200369D01*
X44929000Y-61199458D01*
X44923248Y-61200369D01*
X44808197Y-61218590D01*
X44808191Y-61218591D01*
X44802445Y-61219502D01*
X44797259Y-61222144D01*
X44797254Y-61222146D01*
X44693464Y-61275030D01*
X44693459Y-61275033D01*
X44688277Y-61277674D01*
X44684163Y-61281787D01*
X44684160Y-61281790D01*
X44601790Y-61364160D01*
X44601787Y-61364163D01*
X44597674Y-61368277D01*
X44595033Y-61373459D01*
X44595030Y-61373464D01*
X44542146Y-61477254D01*
X44542144Y-61477259D01*
X44539502Y-61482445D01*
X44538591Y-61488191D01*
X44538590Y-61488197D01*
X44530121Y-61541674D01*
X44519458Y-61609000D01*
X37725049Y-61609000D01*
X37657723Y-61541674D01*
X37652537Y-61539031D01*
X37652535Y-61539030D01*
X37548745Y-61486146D01*
X37548742Y-61486145D01*
X37543555Y-61483502D01*
X37537806Y-61482591D01*
X37537802Y-61482590D01*
X37422752Y-61464369D01*
X37417000Y-61463458D01*
X37411248Y-61464369D01*
X37296197Y-61482590D01*
X37296191Y-61482591D01*
X37290445Y-61483502D01*
X37285259Y-61486144D01*
X37285254Y-61486146D01*
X37181464Y-61539030D01*
X37181459Y-61539033D01*
X37176277Y-61541674D01*
X37172163Y-61545787D01*
X37172160Y-61545790D01*
X37089790Y-61628160D01*
X37089787Y-61628163D01*
X37085674Y-61632277D01*
X37083033Y-61637459D01*
X37083030Y-61637464D01*
X37030146Y-61741254D01*
X37030144Y-61741259D01*
X37027502Y-61746445D01*
X37026591Y-61752191D01*
X37026590Y-61752197D01*
X37010493Y-61853839D01*
X37007458Y-61873000D01*
X32300500Y-61873000D01*
X32300500Y-60610000D01*
X51473903Y-60610000D01*
X51474814Y-60615752D01*
X51493035Y-60730802D01*
X51493036Y-60730806D01*
X51493947Y-60736555D01*
X51496590Y-60741742D01*
X51496591Y-60741745D01*
X51549475Y-60845535D01*
X51549476Y-60845537D01*
X51552119Y-60850723D01*
X51642722Y-60941326D01*
X51756890Y-60999498D01*
X51883445Y-61019542D01*
X52010000Y-60999498D01*
X52124168Y-60941326D01*
X52214771Y-60850723D01*
X52272943Y-60736555D01*
X52292987Y-60610000D01*
X52272943Y-60483445D01*
X52214771Y-60369277D01*
X52124168Y-60278674D01*
X52118982Y-60276031D01*
X52118980Y-60276030D01*
X52015190Y-60223146D01*
X52015187Y-60223145D01*
X52010000Y-60220502D01*
X52004251Y-60219591D01*
X52004247Y-60219590D01*
X51889197Y-60201369D01*
X51883445Y-60200458D01*
X51877693Y-60201369D01*
X51762642Y-60219590D01*
X51762636Y-60219591D01*
X51756890Y-60220502D01*
X51751704Y-60223144D01*
X51751699Y-60223146D01*
X51647909Y-60276030D01*
X51647904Y-60276033D01*
X51642722Y-60278674D01*
X51638608Y-60282787D01*
X51638605Y-60282790D01*
X51556235Y-60365160D01*
X51556232Y-60365163D01*
X51552119Y-60369277D01*
X51549478Y-60374459D01*
X51549475Y-60374464D01*
X51496591Y-60478254D01*
X51496589Y-60478259D01*
X51493947Y-60483445D01*
X51493036Y-60489191D01*
X51493035Y-60489197D01*
X51474814Y-60604248D01*
X51473903Y-60610000D01*
X32300500Y-60610000D01*
X32300500Y-57412000D01*
X41790458Y-57412000D01*
X41791369Y-57417752D01*
X41809590Y-57532802D01*
X41809591Y-57532806D01*
X41810502Y-57538555D01*
X41813145Y-57543742D01*
X41813146Y-57543745D01*
X41866030Y-57647535D01*
X41866031Y-57647537D01*
X41868674Y-57652723D01*
X41959277Y-57743326D01*
X42073445Y-57801498D01*
X42200000Y-57821542D01*
X42326555Y-57801498D01*
X42440723Y-57743326D01*
X42531326Y-57652723D01*
X42587198Y-57543068D01*
X56670381Y-57543068D01*
X56689698Y-57739200D01*
X56690750Y-57742669D01*
X56690751Y-57742672D01*
X56708596Y-57801498D01*
X56746908Y-57927795D01*
X56748620Y-57930998D01*
X56748623Y-57931005D01*
X56821454Y-58067260D01*
X56839812Y-58101606D01*
X56964839Y-58253951D01*
X57117184Y-58378978D01*
X57232602Y-58440670D01*
X57287784Y-58470166D01*
X57287786Y-58470167D01*
X57290995Y-58471882D01*
X57479590Y-58529092D01*
X57675722Y-58548409D01*
X57871854Y-58529092D01*
X58060449Y-58471882D01*
X58234260Y-58378978D01*
X58386605Y-58253951D01*
X58511632Y-58101606D01*
X58604536Y-57927795D01*
X58661746Y-57739200D01*
X58681063Y-57543068D01*
X59210381Y-57543068D01*
X59229698Y-57739200D01*
X59230750Y-57742669D01*
X59230751Y-57742672D01*
X59248596Y-57801498D01*
X59286908Y-57927795D01*
X59288620Y-57930998D01*
X59288623Y-57931005D01*
X59361454Y-58067260D01*
X59379812Y-58101606D01*
X59504839Y-58253951D01*
X59657184Y-58378978D01*
X59772602Y-58440670D01*
X59827784Y-58470166D01*
X59827786Y-58470167D01*
X59830995Y-58471882D01*
X60019590Y-58529092D01*
X60215722Y-58548409D01*
X60411854Y-58529092D01*
X60600449Y-58471882D01*
X60774260Y-58378978D01*
X60926605Y-58253951D01*
X61051632Y-58101606D01*
X61144536Y-57927795D01*
X61201746Y-57739200D01*
X61221063Y-57543068D01*
X61201746Y-57346936D01*
X61144536Y-57158341D01*
X61051632Y-56984530D01*
X60926605Y-56832185D01*
X60923794Y-56829878D01*
X60777068Y-56709462D01*
X60777064Y-56709459D01*
X60774260Y-56707158D01*
X60739914Y-56688800D01*
X60603659Y-56615969D01*
X60603652Y-56615966D01*
X60600449Y-56614254D01*
X60505143Y-56585343D01*
X60415326Y-56558097D01*
X60415323Y-56558096D01*
X60411854Y-56557044D01*
X60408242Y-56556688D01*
X60408241Y-56556688D01*
X60219337Y-56538083D01*
X60215722Y-56537727D01*
X60212107Y-56538083D01*
X60023202Y-56556688D01*
X60023199Y-56556688D01*
X60019590Y-56557044D01*
X60016122Y-56558095D01*
X60016117Y-56558097D01*
X59834475Y-56613198D01*
X59834471Y-56613199D01*
X59830995Y-56614254D01*
X59827794Y-56615964D01*
X59827784Y-56615969D01*
X59660390Y-56705444D01*
X59660387Y-56705445D01*
X59657184Y-56707158D01*
X59654383Y-56709456D01*
X59654375Y-56709462D01*
X59507649Y-56829878D01*
X59507644Y-56829882D01*
X59504839Y-56832185D01*
X59502536Y-56834990D01*
X59502532Y-56834995D01*
X59382116Y-56981721D01*
X59382110Y-56981729D01*
X59379812Y-56984530D01*
X59378099Y-56987733D01*
X59378098Y-56987736D01*
X59288623Y-57155130D01*
X59288618Y-57155140D01*
X59286908Y-57158341D01*
X59285853Y-57161817D01*
X59285852Y-57161821D01*
X59230751Y-57343463D01*
X59230749Y-57343468D01*
X59229698Y-57346936D01*
X59210381Y-57543068D01*
X58681063Y-57543068D01*
X58661746Y-57346936D01*
X58604536Y-57158341D01*
X58511632Y-56984530D01*
X58386605Y-56832185D01*
X58383794Y-56829878D01*
X58237068Y-56709462D01*
X58237064Y-56709459D01*
X58234260Y-56707158D01*
X58199914Y-56688800D01*
X58063659Y-56615969D01*
X58063652Y-56615966D01*
X58060449Y-56614254D01*
X57965143Y-56585343D01*
X57875326Y-56558097D01*
X57875323Y-56558096D01*
X57871854Y-56557044D01*
X57868242Y-56556688D01*
X57868241Y-56556688D01*
X57679337Y-56538083D01*
X57675722Y-56537727D01*
X57672107Y-56538083D01*
X57483202Y-56556688D01*
X57483199Y-56556688D01*
X57479590Y-56557044D01*
X57476122Y-56558095D01*
X57476117Y-56558097D01*
X57294475Y-56613198D01*
X57294471Y-56613199D01*
X57290995Y-56614254D01*
X57287794Y-56615964D01*
X57287784Y-56615969D01*
X57120390Y-56705444D01*
X57120387Y-56705445D01*
X57117184Y-56707158D01*
X57114383Y-56709456D01*
X57114375Y-56709462D01*
X56967649Y-56829878D01*
X56967644Y-56829882D01*
X56964839Y-56832185D01*
X56962536Y-56834990D01*
X56962532Y-56834995D01*
X56842116Y-56981721D01*
X56842110Y-56981729D01*
X56839812Y-56984530D01*
X56838099Y-56987733D01*
X56838098Y-56987736D01*
X56748623Y-57155130D01*
X56748618Y-57155140D01*
X56746908Y-57158341D01*
X56745853Y-57161817D01*
X56745852Y-57161821D01*
X56690751Y-57343463D01*
X56690749Y-57343468D01*
X56689698Y-57346936D01*
X56670381Y-57543068D01*
X42587198Y-57543068D01*
X42589498Y-57538555D01*
X42609542Y-57412000D01*
X42589498Y-57285445D01*
X42531326Y-57171277D01*
X42440723Y-57080674D01*
X42435537Y-57078031D01*
X42435535Y-57078030D01*
X42331745Y-57025146D01*
X42331742Y-57025145D01*
X42326555Y-57022502D01*
X42320806Y-57021591D01*
X42320802Y-57021590D01*
X42205752Y-57003369D01*
X42200000Y-57002458D01*
X42194248Y-57003369D01*
X42079197Y-57021590D01*
X42079191Y-57021591D01*
X42073445Y-57022502D01*
X42068259Y-57025144D01*
X42068254Y-57025146D01*
X41964464Y-57078030D01*
X41964459Y-57078033D01*
X41959277Y-57080674D01*
X41955163Y-57084787D01*
X41955160Y-57084790D01*
X41872790Y-57167160D01*
X41872787Y-57167163D01*
X41868674Y-57171277D01*
X41866033Y-57176459D01*
X41866030Y-57176464D01*
X41813146Y-57280254D01*
X41813144Y-57280259D01*
X41810502Y-57285445D01*
X41809591Y-57291191D01*
X41809590Y-57291197D01*
X41791369Y-57406248D01*
X41790458Y-57412000D01*
X32300500Y-57412000D01*
X32300500Y-56136334D01*
X40939082Y-56136334D01*
X40939835Y-56141571D01*
X40942735Y-56161745D01*
X40957518Y-56264560D01*
X41011333Y-56382397D01*
X41014794Y-56386392D01*
X41014796Y-56386394D01*
X41092700Y-56476301D01*
X41096166Y-56480301D01*
X41205146Y-56550338D01*
X41210218Y-56551827D01*
X41210220Y-56551828D01*
X41227985Y-56557044D01*
X41329443Y-56586834D01*
X41453695Y-56586834D01*
X41458987Y-56586834D01*
X41583284Y-56550338D01*
X41692264Y-56480301D01*
X41777097Y-56382397D01*
X41830912Y-56264560D01*
X41849348Y-56136334D01*
X41834060Y-56030000D01*
X49700458Y-56030000D01*
X49701369Y-56035752D01*
X49719590Y-56150802D01*
X49719591Y-56150806D01*
X49720502Y-56156555D01*
X49723145Y-56161742D01*
X49723146Y-56161745D01*
X49776030Y-56265535D01*
X49776031Y-56265537D01*
X49778674Y-56270723D01*
X49869277Y-56361326D01*
X49983445Y-56419498D01*
X50110000Y-56439542D01*
X50236555Y-56419498D01*
X50350723Y-56361326D01*
X50441326Y-56270723D01*
X50499498Y-56156555D01*
X50519542Y-56030000D01*
X50499498Y-55903445D01*
X50441326Y-55789277D01*
X50350723Y-55698674D01*
X50345537Y-55696031D01*
X50345535Y-55696030D01*
X50241745Y-55643146D01*
X50241742Y-55643145D01*
X50236555Y-55640502D01*
X50230806Y-55639591D01*
X50230802Y-55639590D01*
X50115752Y-55621369D01*
X50110000Y-55620458D01*
X50104248Y-55621369D01*
X49989197Y-55639590D01*
X49989191Y-55639591D01*
X49983445Y-55640502D01*
X49978259Y-55643144D01*
X49978254Y-55643146D01*
X49874464Y-55696030D01*
X49874459Y-55696033D01*
X49869277Y-55698674D01*
X49865163Y-55702787D01*
X49865160Y-55702790D01*
X49782790Y-55785160D01*
X49782787Y-55785163D01*
X49778674Y-55789277D01*
X49776033Y-55794459D01*
X49776030Y-55794464D01*
X49723146Y-55898254D01*
X49723144Y-55898259D01*
X49720502Y-55903445D01*
X49719591Y-55909191D01*
X49719590Y-55909197D01*
X49703095Y-56013348D01*
X49700458Y-56030000D01*
X41834060Y-56030000D01*
X41830912Y-56008108D01*
X41777097Y-55890271D01*
X41692264Y-55792367D01*
X41583284Y-55722330D01*
X41578214Y-55720841D01*
X41578209Y-55720839D01*
X41464063Y-55687324D01*
X41464060Y-55687323D01*
X41458987Y-55685834D01*
X41329443Y-55685834D01*
X41324370Y-55687323D01*
X41324366Y-55687324D01*
X41210220Y-55720839D01*
X41210212Y-55720842D01*
X41205146Y-55722330D01*
X41200697Y-55725188D01*
X41200695Y-55725190D01*
X41100618Y-55789505D01*
X41100614Y-55789508D01*
X41096166Y-55792367D01*
X41092703Y-55796362D01*
X41092700Y-55796366D01*
X41014796Y-55886273D01*
X41014792Y-55886278D01*
X41011333Y-55890271D01*
X41009137Y-55895079D01*
X41009136Y-55895081D01*
X40966684Y-55988038D01*
X40957518Y-56008108D01*
X40956765Y-56013343D01*
X40956764Y-56013348D01*
X40955197Y-56024248D01*
X40939082Y-56136334D01*
X32300500Y-56136334D01*
X32300500Y-55003068D01*
X56670381Y-55003068D01*
X56689698Y-55199200D01*
X56746908Y-55387795D01*
X56748620Y-55390998D01*
X56748623Y-55391005D01*
X56821454Y-55527260D01*
X56839812Y-55561606D01*
X56842113Y-55564410D01*
X56842116Y-55564414D01*
X56952301Y-55698674D01*
X56964839Y-55713951D01*
X56967649Y-55716257D01*
X57060388Y-55792367D01*
X57117184Y-55838978D01*
X57232602Y-55900670D01*
X57287784Y-55930166D01*
X57287786Y-55930167D01*
X57290995Y-55931882D01*
X57479590Y-55989092D01*
X57675722Y-56008409D01*
X57871854Y-55989092D01*
X58060449Y-55931882D01*
X58234260Y-55838978D01*
X58386605Y-55713951D01*
X58511632Y-55561606D01*
X58604536Y-55387795D01*
X58661746Y-55199200D01*
X58681063Y-55003068D01*
X59210381Y-55003068D01*
X59229698Y-55199200D01*
X59286908Y-55387795D01*
X59288620Y-55390998D01*
X59288623Y-55391005D01*
X59361454Y-55527260D01*
X59379812Y-55561606D01*
X59382113Y-55564410D01*
X59382116Y-55564414D01*
X59492301Y-55698674D01*
X59504839Y-55713951D01*
X59507649Y-55716257D01*
X59600388Y-55792367D01*
X59657184Y-55838978D01*
X59772602Y-55900670D01*
X59827784Y-55930166D01*
X59827786Y-55930167D01*
X59830995Y-55931882D01*
X60019590Y-55989092D01*
X60215722Y-56008409D01*
X60411854Y-55989092D01*
X60600449Y-55931882D01*
X60774260Y-55838978D01*
X60926605Y-55713951D01*
X61051632Y-55561606D01*
X61144536Y-55387795D01*
X61201746Y-55199200D01*
X61221063Y-55003068D01*
X61201746Y-54806936D01*
X61144536Y-54618341D01*
X61051632Y-54444530D01*
X60926605Y-54292185D01*
X60923794Y-54289878D01*
X60777068Y-54169462D01*
X60777064Y-54169459D01*
X60774260Y-54167158D01*
X60739914Y-54148800D01*
X60603659Y-54075969D01*
X60603652Y-54075966D01*
X60600449Y-54074254D01*
X60596968Y-54073198D01*
X60415326Y-54018097D01*
X60415323Y-54018096D01*
X60411854Y-54017044D01*
X60408242Y-54016688D01*
X60408241Y-54016688D01*
X60219337Y-53998083D01*
X60215722Y-53997727D01*
X60212107Y-53998083D01*
X60023202Y-54016688D01*
X60023199Y-54016688D01*
X60019590Y-54017044D01*
X60016122Y-54018095D01*
X60016117Y-54018097D01*
X59834475Y-54073198D01*
X59834471Y-54073199D01*
X59830995Y-54074254D01*
X59827794Y-54075964D01*
X59827784Y-54075969D01*
X59660390Y-54165444D01*
X59660387Y-54165445D01*
X59657184Y-54167158D01*
X59654383Y-54169456D01*
X59654375Y-54169462D01*
X59507649Y-54289878D01*
X59507644Y-54289882D01*
X59504839Y-54292185D01*
X59502536Y-54294990D01*
X59502532Y-54294995D01*
X59382116Y-54441721D01*
X59382110Y-54441729D01*
X59379812Y-54444530D01*
X59378099Y-54447733D01*
X59378098Y-54447736D01*
X59288623Y-54615130D01*
X59288618Y-54615140D01*
X59286908Y-54618341D01*
X59285853Y-54621817D01*
X59285852Y-54621821D01*
X59230751Y-54803463D01*
X59230749Y-54803468D01*
X59229698Y-54806936D01*
X59210381Y-55003068D01*
X58681063Y-55003068D01*
X58661746Y-54806936D01*
X58604536Y-54618341D01*
X58511632Y-54444530D01*
X58386605Y-54292185D01*
X58383794Y-54289878D01*
X58237068Y-54169462D01*
X58237064Y-54169459D01*
X58234260Y-54167158D01*
X58199914Y-54148800D01*
X58063659Y-54075969D01*
X58063652Y-54075966D01*
X58060449Y-54074254D01*
X58056968Y-54073198D01*
X57875326Y-54018097D01*
X57875323Y-54018096D01*
X57871854Y-54017044D01*
X57868242Y-54016688D01*
X57868241Y-54016688D01*
X57679337Y-53998083D01*
X57675722Y-53997727D01*
X57672107Y-53998083D01*
X57483202Y-54016688D01*
X57483199Y-54016688D01*
X57479590Y-54017044D01*
X57476122Y-54018095D01*
X57476117Y-54018097D01*
X57294475Y-54073198D01*
X57294471Y-54073199D01*
X57290995Y-54074254D01*
X57287794Y-54075964D01*
X57287784Y-54075969D01*
X57120390Y-54165444D01*
X57120387Y-54165445D01*
X57117184Y-54167158D01*
X57114383Y-54169456D01*
X57114375Y-54169462D01*
X56967649Y-54289878D01*
X56967644Y-54289882D01*
X56964839Y-54292185D01*
X56962536Y-54294990D01*
X56962532Y-54294995D01*
X56842116Y-54441721D01*
X56842110Y-54441729D01*
X56839812Y-54444530D01*
X56838099Y-54447733D01*
X56838098Y-54447736D01*
X56748623Y-54615130D01*
X56748618Y-54615140D01*
X56746908Y-54618341D01*
X56745853Y-54621817D01*
X56745852Y-54621821D01*
X56690751Y-54803463D01*
X56690749Y-54803468D01*
X56689698Y-54806936D01*
X56670381Y-55003068D01*
X32300500Y-55003068D01*
X32300500Y-52400000D01*
X41944867Y-52400000D01*
X41945620Y-52405237D01*
X41954454Y-52466683D01*
X41963303Y-52528226D01*
X42017118Y-52646063D01*
X42020579Y-52650058D01*
X42020581Y-52650060D01*
X42098485Y-52739967D01*
X42101951Y-52743967D01*
X42210931Y-52814004D01*
X42216003Y-52815493D01*
X42216005Y-52815494D01*
X42258620Y-52828006D01*
X42335228Y-52850500D01*
X42459480Y-52850500D01*
X42464772Y-52850500D01*
X42589069Y-52814004D01*
X42698049Y-52743967D01*
X42782882Y-52646063D01*
X42836697Y-52528226D01*
X42846065Y-52463068D01*
X56670381Y-52463068D01*
X56689698Y-52659200D01*
X56690750Y-52662669D01*
X56690751Y-52662672D01*
X56745852Y-52844314D01*
X56746908Y-52847795D01*
X56748620Y-52850998D01*
X56748623Y-52851005D01*
X56821454Y-52987260D01*
X56839812Y-53021606D01*
X56964839Y-53173951D01*
X57117184Y-53298978D01*
X57232602Y-53360670D01*
X57287784Y-53390166D01*
X57287786Y-53390167D01*
X57290995Y-53391882D01*
X57479590Y-53449092D01*
X57675722Y-53468409D01*
X57871854Y-53449092D01*
X58060449Y-53391882D01*
X58234260Y-53298978D01*
X58386605Y-53173951D01*
X58511632Y-53021606D01*
X58604536Y-52847795D01*
X58661746Y-52659200D01*
X58681063Y-52463068D01*
X59210381Y-52463068D01*
X59229698Y-52659200D01*
X59230750Y-52662669D01*
X59230751Y-52662672D01*
X59285852Y-52844314D01*
X59286908Y-52847795D01*
X59288620Y-52850998D01*
X59288623Y-52851005D01*
X59361454Y-52987260D01*
X59379812Y-53021606D01*
X59504839Y-53173951D01*
X59657184Y-53298978D01*
X59772602Y-53360670D01*
X59827784Y-53390166D01*
X59827786Y-53390167D01*
X59830995Y-53391882D01*
X60019590Y-53449092D01*
X60215722Y-53468409D01*
X60411854Y-53449092D01*
X60600449Y-53391882D01*
X60774260Y-53298978D01*
X60926605Y-53173951D01*
X61051632Y-53021606D01*
X61144536Y-52847795D01*
X61201746Y-52659200D01*
X61221063Y-52463068D01*
X61201746Y-52266936D01*
X61144536Y-52078341D01*
X61131082Y-52053171D01*
X61096705Y-51988856D01*
X61051632Y-51904530D01*
X60926605Y-51752185D01*
X60923794Y-51749878D01*
X60777068Y-51629462D01*
X60777064Y-51629459D01*
X60774260Y-51627158D01*
X60739914Y-51608800D01*
X60603659Y-51535969D01*
X60603652Y-51535966D01*
X60600449Y-51534254D01*
X60596968Y-51533198D01*
X60415326Y-51478097D01*
X60415323Y-51478096D01*
X60411854Y-51477044D01*
X60408242Y-51476688D01*
X60408241Y-51476688D01*
X60219337Y-51458083D01*
X60215722Y-51457727D01*
X60212107Y-51458083D01*
X60023202Y-51476688D01*
X60023199Y-51476688D01*
X60019590Y-51477044D01*
X60016122Y-51478095D01*
X60016117Y-51478097D01*
X59834475Y-51533198D01*
X59834471Y-51533199D01*
X59830995Y-51534254D01*
X59827794Y-51535964D01*
X59827784Y-51535969D01*
X59660390Y-51625444D01*
X59660387Y-51625445D01*
X59657184Y-51627158D01*
X59654383Y-51629456D01*
X59654375Y-51629462D01*
X59507649Y-51749878D01*
X59507644Y-51749882D01*
X59504839Y-51752185D01*
X59502536Y-51754990D01*
X59502532Y-51754995D01*
X59382116Y-51901721D01*
X59382110Y-51901729D01*
X59379812Y-51904530D01*
X59378099Y-51907733D01*
X59378098Y-51907736D01*
X59288623Y-52075130D01*
X59288618Y-52075140D01*
X59286908Y-52078341D01*
X59285853Y-52081817D01*
X59285852Y-52081821D01*
X59230751Y-52263463D01*
X59230749Y-52263468D01*
X59229698Y-52266936D01*
X59229342Y-52270545D01*
X59229342Y-52270548D01*
X59216077Y-52405237D01*
X59210381Y-52463068D01*
X58681063Y-52463068D01*
X58661746Y-52266936D01*
X58604536Y-52078341D01*
X58591082Y-52053171D01*
X58556705Y-51988856D01*
X58511632Y-51904530D01*
X58386605Y-51752185D01*
X58383794Y-51749878D01*
X58237068Y-51629462D01*
X58237064Y-51629459D01*
X58234260Y-51627158D01*
X58199914Y-51608800D01*
X58063659Y-51535969D01*
X58063652Y-51535966D01*
X58060449Y-51534254D01*
X58056968Y-51533198D01*
X57875326Y-51478097D01*
X57875323Y-51478096D01*
X57871854Y-51477044D01*
X57868242Y-51476688D01*
X57868241Y-51476688D01*
X57679337Y-51458083D01*
X57675722Y-51457727D01*
X57672107Y-51458083D01*
X57483202Y-51476688D01*
X57483199Y-51476688D01*
X57479590Y-51477044D01*
X57476122Y-51478095D01*
X57476117Y-51478097D01*
X57294475Y-51533198D01*
X57294471Y-51533199D01*
X57290995Y-51534254D01*
X57287794Y-51535964D01*
X57287784Y-51535969D01*
X57120390Y-51625444D01*
X57120387Y-51625445D01*
X57117184Y-51627158D01*
X57114383Y-51629456D01*
X57114375Y-51629462D01*
X56967649Y-51749878D01*
X56967644Y-51749882D01*
X56964839Y-51752185D01*
X56962536Y-51754990D01*
X56962532Y-51754995D01*
X56842116Y-51901721D01*
X56842110Y-51901729D01*
X56839812Y-51904530D01*
X56838099Y-51907733D01*
X56838098Y-51907736D01*
X56748623Y-52075130D01*
X56748618Y-52075140D01*
X56746908Y-52078341D01*
X56745853Y-52081817D01*
X56745852Y-52081821D01*
X56690751Y-52263463D01*
X56690749Y-52263468D01*
X56689698Y-52266936D01*
X56689342Y-52270545D01*
X56689342Y-52270548D01*
X56676077Y-52405237D01*
X56670381Y-52463068D01*
X42846065Y-52463068D01*
X42855133Y-52400000D01*
X42836697Y-52271774D01*
X42782882Y-52153937D01*
X42698049Y-52056033D01*
X42589069Y-51985996D01*
X42583999Y-51984507D01*
X42583994Y-51984505D01*
X42469848Y-51950990D01*
X42469845Y-51950989D01*
X42464772Y-51949500D01*
X42335228Y-51949500D01*
X42330155Y-51950989D01*
X42330151Y-51950990D01*
X42216005Y-51984505D01*
X42215997Y-51984508D01*
X42210931Y-51985996D01*
X42206482Y-51988854D01*
X42206480Y-51988856D01*
X42106403Y-52053171D01*
X42106399Y-52053174D01*
X42101951Y-52056033D01*
X42098488Y-52060028D01*
X42098485Y-52060032D01*
X42020581Y-52149939D01*
X42020577Y-52149944D01*
X42017118Y-52153937D01*
X42014922Y-52158745D01*
X42014921Y-52158747D01*
X41967099Y-52263463D01*
X41963303Y-52271774D01*
X41962550Y-52277009D01*
X41962549Y-52277014D01*
X41946613Y-52387855D01*
X41944867Y-52400000D01*
X32300500Y-52400000D01*
X32300500Y-50302139D01*
X37688144Y-50302139D01*
X37689055Y-50307891D01*
X37707276Y-50422941D01*
X37707277Y-50422945D01*
X37708188Y-50428694D01*
X37710831Y-50433881D01*
X37710832Y-50433884D01*
X37763716Y-50537674D01*
X37763717Y-50537676D01*
X37766360Y-50542862D01*
X37856963Y-50633465D01*
X37862149Y-50636107D01*
X37862150Y-50636108D01*
X37864289Y-50637198D01*
X37971131Y-50691637D01*
X38097686Y-50711681D01*
X38224241Y-50691637D01*
X38338409Y-50633465D01*
X38400401Y-50571472D01*
X38433574Y-50552320D01*
X38471880Y-50552320D01*
X38505052Y-50571472D01*
X38568135Y-50634555D01*
X38682303Y-50692727D01*
X38808858Y-50712771D01*
X38935413Y-50692727D01*
X39049581Y-50634555D01*
X39140184Y-50543952D01*
X39198356Y-50429784D01*
X39218400Y-50303229D01*
X39198356Y-50176674D01*
X39193427Y-50167000D01*
X40271458Y-50167000D01*
X40272369Y-50172752D01*
X40290590Y-50287802D01*
X40290591Y-50287806D01*
X40291502Y-50293555D01*
X40294145Y-50298742D01*
X40294146Y-50298745D01*
X40347030Y-50402535D01*
X40347031Y-50402537D01*
X40349674Y-50407723D01*
X40440277Y-50498326D01*
X40554445Y-50556498D01*
X40681000Y-50576542D01*
X40807555Y-50556498D01*
X40921723Y-50498326D01*
X41012326Y-50407723D01*
X41070498Y-50293555D01*
X41090542Y-50167000D01*
X41070498Y-50040445D01*
X41012326Y-49926277D01*
X41010049Y-49924000D01*
X41009663Y-49923068D01*
X56670381Y-49923068D01*
X56689698Y-50119200D01*
X56690750Y-50122669D01*
X56690751Y-50122672D01*
X56740843Y-50287802D01*
X56746908Y-50307795D01*
X56748620Y-50310998D01*
X56748623Y-50311005D01*
X56814304Y-50433884D01*
X56839812Y-50481606D01*
X56842113Y-50484410D01*
X56842116Y-50484414D01*
X56902022Y-50557409D01*
X56964839Y-50633951D01*
X57117184Y-50758978D01*
X57232602Y-50820670D01*
X57287784Y-50850166D01*
X57287786Y-50850167D01*
X57290995Y-50851882D01*
X57479590Y-50909092D01*
X57675722Y-50928409D01*
X57871854Y-50909092D01*
X58060449Y-50851882D01*
X58234260Y-50758978D01*
X58386605Y-50633951D01*
X58511632Y-50481606D01*
X58604536Y-50307795D01*
X58661746Y-50119200D01*
X58681063Y-49923068D01*
X58661746Y-49726936D01*
X58604536Y-49538341D01*
X58593050Y-49516853D01*
X58563836Y-49462197D01*
X58511632Y-49364530D01*
X58493369Y-49342277D01*
X58388911Y-49214995D01*
X58386605Y-49212185D01*
X58362729Y-49192590D01*
X58237068Y-49089462D01*
X58237064Y-49089459D01*
X58234260Y-49087158D01*
X58125823Y-49029197D01*
X58063659Y-48995969D01*
X58063652Y-48995966D01*
X58060449Y-48994254D01*
X58056968Y-48993198D01*
X57875326Y-48938097D01*
X57875323Y-48938096D01*
X57871854Y-48937044D01*
X57868242Y-48936688D01*
X57868241Y-48936688D01*
X57679337Y-48918083D01*
X57675722Y-48917727D01*
X57672107Y-48918083D01*
X57483202Y-48936688D01*
X57483199Y-48936688D01*
X57479590Y-48937044D01*
X57476122Y-48938095D01*
X57476117Y-48938097D01*
X57294475Y-48993198D01*
X57294471Y-48993199D01*
X57290995Y-48994254D01*
X57287794Y-48995964D01*
X57287784Y-48995969D01*
X57120390Y-49085444D01*
X57120387Y-49085445D01*
X57117184Y-49087158D01*
X57114383Y-49089456D01*
X57114375Y-49089462D01*
X56967649Y-49209878D01*
X56967644Y-49209882D01*
X56964839Y-49212185D01*
X56962536Y-49214990D01*
X56962532Y-49214995D01*
X56842116Y-49361721D01*
X56842110Y-49361729D01*
X56839812Y-49364530D01*
X56838099Y-49367733D01*
X56838098Y-49367736D01*
X56748623Y-49535130D01*
X56748618Y-49535140D01*
X56746908Y-49538341D01*
X56745853Y-49541817D01*
X56745852Y-49541821D01*
X56690751Y-49723463D01*
X56690749Y-49723468D01*
X56689698Y-49726936D01*
X56689342Y-49730545D01*
X56689342Y-49730548D01*
X56680676Y-49818535D01*
X56670381Y-49923068D01*
X41009663Y-49923068D01*
X40997495Y-49893690D01*
X41000207Y-49859245D01*
X41018260Y-49829788D01*
X41024326Y-49823723D01*
X41082498Y-49709555D01*
X41102542Y-49583000D01*
X41085776Y-49477141D01*
X41092931Y-49431971D01*
X41125270Y-49399631D01*
X41170441Y-49392477D01*
X41211190Y-49413239D01*
X41259277Y-49461326D01*
X41373445Y-49519498D01*
X41500000Y-49539542D01*
X41626555Y-49519498D01*
X41740723Y-49461326D01*
X41831326Y-49370723D01*
X41889498Y-49256555D01*
X41909542Y-49130000D01*
X41889498Y-49003445D01*
X41839419Y-48905160D01*
X41833969Y-48894464D01*
X41833968Y-48894463D01*
X41831326Y-48889277D01*
X41740723Y-48798674D01*
X41735537Y-48796031D01*
X41735535Y-48796030D01*
X41631745Y-48743146D01*
X41631742Y-48743145D01*
X41626555Y-48740502D01*
X41620806Y-48739591D01*
X41620802Y-48739590D01*
X41505752Y-48721369D01*
X41500000Y-48720458D01*
X41494248Y-48721369D01*
X41379197Y-48739590D01*
X41379191Y-48739591D01*
X41373445Y-48740502D01*
X41368259Y-48743144D01*
X41368254Y-48743146D01*
X41264464Y-48796030D01*
X41264459Y-48796033D01*
X41259277Y-48798674D01*
X41255163Y-48802787D01*
X41255160Y-48802790D01*
X41172790Y-48885160D01*
X41172787Y-48885163D01*
X41168674Y-48889277D01*
X41166033Y-48894459D01*
X41166030Y-48894464D01*
X41113146Y-48998254D01*
X41113144Y-48998259D01*
X41110502Y-49003445D01*
X41109591Y-49009191D01*
X41109590Y-49009197D01*
X41097515Y-49085444D01*
X41090458Y-49130000D01*
X41091369Y-49135752D01*
X41091369Y-49135753D01*
X41107223Y-49235858D01*
X41100068Y-49281029D01*
X41067729Y-49313368D01*
X41022558Y-49320522D01*
X40981808Y-49299759D01*
X40937839Y-49255790D01*
X40937838Y-49255789D01*
X40933723Y-49251674D01*
X40928537Y-49249031D01*
X40928535Y-49249030D01*
X40824745Y-49196146D01*
X40824742Y-49196145D01*
X40819555Y-49193502D01*
X40813806Y-49192591D01*
X40813802Y-49192590D01*
X40698752Y-49174369D01*
X40693000Y-49173458D01*
X40687248Y-49174369D01*
X40572197Y-49192590D01*
X40572191Y-49192591D01*
X40566445Y-49193502D01*
X40561259Y-49196144D01*
X40561254Y-49196146D01*
X40457464Y-49249030D01*
X40457459Y-49249033D01*
X40452277Y-49251674D01*
X40448163Y-49255787D01*
X40448160Y-49255790D01*
X40365790Y-49338160D01*
X40365787Y-49338163D01*
X40361674Y-49342277D01*
X40359033Y-49347459D01*
X40359030Y-49347464D01*
X40306146Y-49451254D01*
X40306144Y-49451259D01*
X40303502Y-49456445D01*
X40302591Y-49462191D01*
X40302590Y-49462197D01*
X40287173Y-49559542D01*
X40283458Y-49583000D01*
X40284369Y-49588752D01*
X40302590Y-49703802D01*
X40302591Y-49703806D01*
X40303502Y-49709555D01*
X40306145Y-49714742D01*
X40306146Y-49714745D01*
X40359030Y-49818534D01*
X40361674Y-49823723D01*
X40363950Y-49825999D01*
X40376504Y-49856305D01*
X40373794Y-49890747D01*
X40355745Y-49920205D01*
X40353792Y-49922158D01*
X40353789Y-49922161D01*
X40349674Y-49926277D01*
X40347033Y-49931459D01*
X40347030Y-49931464D01*
X40294146Y-50035254D01*
X40294144Y-50035259D01*
X40291502Y-50040445D01*
X40290591Y-50046191D01*
X40290590Y-50046197D01*
X40272369Y-50161248D01*
X40271458Y-50167000D01*
X39193427Y-50167000D01*
X39140184Y-50062506D01*
X39049581Y-49971903D01*
X39044395Y-49969260D01*
X39044393Y-49969259D01*
X38940603Y-49916375D01*
X38940600Y-49916374D01*
X38935413Y-49913731D01*
X38929664Y-49912820D01*
X38929660Y-49912819D01*
X38814610Y-49894598D01*
X38808858Y-49893687D01*
X38803106Y-49894598D01*
X38688055Y-49912819D01*
X38688049Y-49912820D01*
X38682303Y-49913731D01*
X38677117Y-49916373D01*
X38677112Y-49916375D01*
X38573322Y-49969259D01*
X38573317Y-49969262D01*
X38568135Y-49971903D01*
X38564021Y-49976016D01*
X38564018Y-49976019D01*
X38506143Y-50033895D01*
X38472970Y-50053048D01*
X38434664Y-50053048D01*
X38401491Y-50033895D01*
X38342525Y-49974929D01*
X38338409Y-49970813D01*
X38333223Y-49968170D01*
X38333221Y-49968169D01*
X38229431Y-49915285D01*
X38229428Y-49915284D01*
X38224241Y-49912641D01*
X38218492Y-49911730D01*
X38218488Y-49911729D01*
X38103438Y-49893508D01*
X38097686Y-49892597D01*
X38091934Y-49893508D01*
X37976883Y-49911729D01*
X37976877Y-49911730D01*
X37971131Y-49912641D01*
X37965945Y-49915283D01*
X37965940Y-49915285D01*
X37862150Y-49968169D01*
X37862145Y-49968172D01*
X37856963Y-49970813D01*
X37852849Y-49974926D01*
X37852846Y-49974929D01*
X37770476Y-50057299D01*
X37770473Y-50057302D01*
X37766360Y-50061416D01*
X37763719Y-50066598D01*
X37763716Y-50066603D01*
X37710832Y-50170393D01*
X37710830Y-50170398D01*
X37708188Y-50175584D01*
X37707277Y-50181330D01*
X37707276Y-50181336D01*
X37690415Y-50287802D01*
X37688144Y-50302139D01*
X32300500Y-50302139D01*
X32300500Y-48849814D01*
X34765258Y-48849814D01*
X34784178Y-48993523D01*
X34786033Y-48998003D01*
X34786034Y-48998004D01*
X34823916Y-49089462D01*
X34839647Y-49127439D01*
X34842600Y-49131287D01*
X34842601Y-49131289D01*
X34856959Y-49150000D01*
X34927887Y-49242435D01*
X35042883Y-49330675D01*
X35176799Y-49386144D01*
X35320508Y-49405064D01*
X35464217Y-49386144D01*
X35598133Y-49330675D01*
X35713129Y-49242435D01*
X35781246Y-49153664D01*
X37720038Y-49153664D01*
X37720949Y-49159416D01*
X37739170Y-49274466D01*
X37739171Y-49274470D01*
X37740082Y-49280219D01*
X37742725Y-49285406D01*
X37742726Y-49285409D01*
X37795610Y-49389199D01*
X37795611Y-49389201D01*
X37798254Y-49394387D01*
X37888857Y-49484990D01*
X38003025Y-49543162D01*
X38129580Y-49563206D01*
X38256135Y-49543162D01*
X38370303Y-49484990D01*
X38394295Y-49460997D01*
X38427469Y-49441844D01*
X38465775Y-49441844D01*
X38498948Y-49460997D01*
X38519277Y-49481326D01*
X38633445Y-49539498D01*
X38760000Y-49559542D01*
X38886555Y-49539498D01*
X39000723Y-49481326D01*
X39091326Y-49390723D01*
X39149498Y-49276555D01*
X39169542Y-49150000D01*
X39149498Y-49023445D01*
X39091326Y-48909277D01*
X39000723Y-48818674D01*
X38995537Y-48816031D01*
X38995535Y-48816030D01*
X38891745Y-48763146D01*
X38891742Y-48763145D01*
X38886555Y-48760502D01*
X38880806Y-48759591D01*
X38880802Y-48759590D01*
X38765752Y-48741369D01*
X38760000Y-48740458D01*
X38754248Y-48741369D01*
X38639197Y-48759590D01*
X38639191Y-48759591D01*
X38633445Y-48760502D01*
X38628259Y-48763144D01*
X38628254Y-48763146D01*
X38524464Y-48816030D01*
X38524459Y-48816033D01*
X38519277Y-48818674D01*
X38515163Y-48822787D01*
X38515160Y-48822790D01*
X38495284Y-48842667D01*
X38462111Y-48861820D01*
X38423805Y-48861820D01*
X38390632Y-48842667D01*
X38374419Y-48826454D01*
X38374418Y-48826453D01*
X38370303Y-48822338D01*
X38365117Y-48819695D01*
X38365115Y-48819694D01*
X38261325Y-48766810D01*
X38261322Y-48766809D01*
X38256135Y-48764166D01*
X38250386Y-48763255D01*
X38250382Y-48763254D01*
X38135332Y-48745033D01*
X38129580Y-48744122D01*
X38123828Y-48745033D01*
X38008777Y-48763254D01*
X38008771Y-48763255D01*
X38003025Y-48764166D01*
X37997839Y-48766808D01*
X37997834Y-48766810D01*
X37894044Y-48819694D01*
X37894039Y-48819697D01*
X37888857Y-48822338D01*
X37884743Y-48826451D01*
X37884740Y-48826454D01*
X37802370Y-48908824D01*
X37802367Y-48908827D01*
X37798254Y-48912941D01*
X37795613Y-48918123D01*
X37795610Y-48918128D01*
X37742726Y-49021918D01*
X37742724Y-49021923D01*
X37740082Y-49027109D01*
X37739171Y-49032855D01*
X37739170Y-49032861D01*
X37723786Y-49130000D01*
X37720038Y-49153664D01*
X35781246Y-49153664D01*
X35801369Y-49127439D01*
X35856838Y-48993523D01*
X35875758Y-48849814D01*
X35856838Y-48706105D01*
X35801369Y-48572189D01*
X35713129Y-48457193D01*
X35709278Y-48454238D01*
X35601983Y-48371907D01*
X35601981Y-48371906D01*
X35598133Y-48368953D01*
X35593649Y-48367095D01*
X35593648Y-48367095D01*
X35468698Y-48315340D01*
X35468697Y-48315339D01*
X35464217Y-48313484D01*
X35320508Y-48294564D01*
X35315700Y-48295197D01*
X35181606Y-48312851D01*
X35181605Y-48312851D01*
X35176799Y-48313484D01*
X35172320Y-48315339D01*
X35172317Y-48315340D01*
X35047367Y-48367095D01*
X35047362Y-48367097D01*
X35042883Y-48368953D01*
X35039037Y-48371903D01*
X35039032Y-48371907D01*
X34931737Y-48454238D01*
X34931733Y-48454241D01*
X34927887Y-48457193D01*
X34924935Y-48461039D01*
X34924932Y-48461043D01*
X34842601Y-48568338D01*
X34842597Y-48568343D01*
X34839647Y-48572189D01*
X34837791Y-48576668D01*
X34837789Y-48576673D01*
X34786034Y-48701623D01*
X34784178Y-48706105D01*
X34783545Y-48710911D01*
X34783545Y-48710912D01*
X34767054Y-48836176D01*
X34765258Y-48849814D01*
X32300500Y-48849814D01*
X32300500Y-48096290D01*
X37744034Y-48096290D01*
X37744945Y-48102042D01*
X37763166Y-48217092D01*
X37763167Y-48217096D01*
X37764078Y-48222845D01*
X37766721Y-48228032D01*
X37766722Y-48228035D01*
X37819606Y-48331825D01*
X37819607Y-48331827D01*
X37822250Y-48337013D01*
X37912853Y-48427616D01*
X37918039Y-48430258D01*
X37918040Y-48430259D01*
X37931810Y-48437275D01*
X38027021Y-48485788D01*
X38153576Y-48505832D01*
X38280131Y-48485788D01*
X38394299Y-48427616D01*
X38413206Y-48408709D01*
X38446379Y-48389556D01*
X38484685Y-48389556D01*
X38517858Y-48408709D01*
X38537856Y-48428707D01*
X38543042Y-48431349D01*
X38543043Y-48431350D01*
X38560404Y-48440196D01*
X38652024Y-48486879D01*
X38778579Y-48506923D01*
X38905134Y-48486879D01*
X39019302Y-48428707D01*
X39109905Y-48338104D01*
X39168077Y-48223936D01*
X39188121Y-48097381D01*
X39168077Y-47970826D01*
X39109905Y-47856658D01*
X39019302Y-47766055D01*
X39014116Y-47763412D01*
X39014114Y-47763411D01*
X38910324Y-47710527D01*
X38910321Y-47710526D01*
X38905134Y-47707883D01*
X38899385Y-47706972D01*
X38899381Y-47706971D01*
X38784331Y-47688750D01*
X38778579Y-47687839D01*
X38772827Y-47688750D01*
X38657776Y-47706971D01*
X38657770Y-47706972D01*
X38652024Y-47707883D01*
X38646838Y-47710525D01*
X38646833Y-47710527D01*
X38543043Y-47763411D01*
X38543038Y-47763414D01*
X38537856Y-47766055D01*
X38533742Y-47770168D01*
X38533739Y-47770171D01*
X38518949Y-47784962D01*
X38485776Y-47804115D01*
X38447470Y-47804115D01*
X38414297Y-47784962D01*
X38398415Y-47769080D01*
X38394299Y-47764964D01*
X38389113Y-47762321D01*
X38389111Y-47762320D01*
X38285321Y-47709436D01*
X38285318Y-47709435D01*
X38280131Y-47706792D01*
X38274382Y-47705881D01*
X38274378Y-47705880D01*
X38159328Y-47687659D01*
X38153576Y-47686748D01*
X38147824Y-47687659D01*
X38032773Y-47705880D01*
X38032767Y-47705881D01*
X38027021Y-47706792D01*
X38021835Y-47709434D01*
X38021830Y-47709436D01*
X37918040Y-47762320D01*
X37918035Y-47762323D01*
X37912853Y-47764964D01*
X37908739Y-47769077D01*
X37908736Y-47769080D01*
X37826366Y-47851450D01*
X37826363Y-47851453D01*
X37822250Y-47855567D01*
X37819609Y-47860749D01*
X37819606Y-47860754D01*
X37766722Y-47964544D01*
X37766720Y-47964549D01*
X37764078Y-47969735D01*
X37763167Y-47975481D01*
X37763166Y-47975487D01*
X37754922Y-48027542D01*
X37744034Y-48096290D01*
X32300500Y-48096290D01*
X32300500Y-46941885D01*
X37753631Y-46941885D01*
X37754542Y-46947637D01*
X37772763Y-47062687D01*
X37772764Y-47062691D01*
X37773675Y-47068440D01*
X37776318Y-47073627D01*
X37776319Y-47073630D01*
X37829203Y-47177420D01*
X37829204Y-47177422D01*
X37831847Y-47182608D01*
X37922450Y-47273211D01*
X37927636Y-47275853D01*
X37927637Y-47275854D01*
X37999398Y-47312418D01*
X38036618Y-47331383D01*
X38163173Y-47351427D01*
X38289728Y-47331383D01*
X38403896Y-47273211D01*
X38408017Y-47269089D01*
X38411994Y-47266200D01*
X38455491Y-47252064D01*
X38498989Y-47266196D01*
X38502977Y-47269093D01*
X38507095Y-47273211D01*
X38621263Y-47331383D01*
X38747818Y-47351427D01*
X38874373Y-47331383D01*
X38988541Y-47273211D01*
X39079144Y-47182608D01*
X39137316Y-47068440D01*
X39142296Y-47037000D01*
X40293458Y-47037000D01*
X40294369Y-47042752D01*
X40312590Y-47157802D01*
X40312591Y-47157806D01*
X40313502Y-47163555D01*
X40316145Y-47168742D01*
X40316146Y-47168745D01*
X40369030Y-47272535D01*
X40369031Y-47272537D01*
X40371674Y-47277723D01*
X40375790Y-47281839D01*
X40377863Y-47284692D01*
X40391996Y-47328188D01*
X40377864Y-47371683D01*
X40376790Y-47373160D01*
X40372674Y-47377277D01*
X40370031Y-47382462D01*
X40370030Y-47382465D01*
X40317146Y-47486254D01*
X40317144Y-47486259D01*
X40314502Y-47491445D01*
X40313591Y-47497191D01*
X40313590Y-47497197D01*
X40295369Y-47612248D01*
X40294458Y-47618000D01*
X40295369Y-47623752D01*
X40313590Y-47738802D01*
X40313591Y-47738806D01*
X40314502Y-47744555D01*
X40317145Y-47749742D01*
X40317146Y-47749745D01*
X40370030Y-47853535D01*
X40370031Y-47853537D01*
X40372674Y-47858723D01*
X40463277Y-47949326D01*
X40577445Y-48007498D01*
X40704000Y-48027542D01*
X40830555Y-48007498D01*
X40944723Y-47949326D01*
X40986957Y-47907091D01*
X41030582Y-47885930D01*
X41077943Y-47896319D01*
X41108706Y-47933797D01*
X41109551Y-47976600D01*
X41110502Y-47976751D01*
X41109659Y-47982067D01*
X41109659Y-47982072D01*
X41109592Y-47982491D01*
X41109592Y-47982494D01*
X41094272Y-48079225D01*
X41090458Y-48103306D01*
X41091369Y-48109058D01*
X41109590Y-48224108D01*
X41109591Y-48224112D01*
X41110502Y-48229861D01*
X41113145Y-48235048D01*
X41113146Y-48235051D01*
X41166030Y-48338841D01*
X41166031Y-48338843D01*
X41168674Y-48344029D01*
X41259277Y-48434632D01*
X41373445Y-48492804D01*
X41500000Y-48512848D01*
X41626555Y-48492804D01*
X41729803Y-48440196D01*
X47114592Y-48440196D01*
X47115621Y-48445150D01*
X47115622Y-48445157D01*
X47129689Y-48512848D01*
X47145604Y-48589436D01*
X47147930Y-48593926D01*
X47147931Y-48593927D01*
X47208547Y-48710912D01*
X47215731Y-48724775D01*
X47219183Y-48728471D01*
X47284747Y-48798674D01*
X47319772Y-48836176D01*
X47450010Y-48915375D01*
X47596786Y-48956500D01*
X47708394Y-48956500D01*
X47710927Y-48956500D01*
X47824009Y-48940957D01*
X47963818Y-48880230D01*
X48082058Y-48784034D01*
X48169961Y-48659504D01*
X48221006Y-48515877D01*
X48226183Y-48440196D01*
X52894592Y-48440196D01*
X52895621Y-48445150D01*
X52895622Y-48445157D01*
X52909689Y-48512848D01*
X52925604Y-48589436D01*
X52927930Y-48593926D01*
X52927931Y-48593927D01*
X52988547Y-48710912D01*
X52995731Y-48724775D01*
X52999183Y-48728471D01*
X53064747Y-48798674D01*
X53099772Y-48836176D01*
X53230010Y-48915375D01*
X53376786Y-48956500D01*
X53488394Y-48956500D01*
X53490927Y-48956500D01*
X53604009Y-48940957D01*
X53743818Y-48880230D01*
X53862058Y-48784034D01*
X53949961Y-48659504D01*
X54001006Y-48515877D01*
X54011408Y-48363804D01*
X53980396Y-48214564D01*
X53910269Y-48079225D01*
X53819929Y-47982494D01*
X53809682Y-47971522D01*
X53809680Y-47971520D01*
X53806228Y-47967824D01*
X53801903Y-47965194D01*
X53801902Y-47965193D01*
X53730465Y-47921752D01*
X53675990Y-47888625D01*
X53671118Y-47887260D01*
X53671116Y-47887259D01*
X53534088Y-47848865D01*
X53534083Y-47848864D01*
X53529214Y-47847500D01*
X53415073Y-47847500D01*
X53412575Y-47847843D01*
X53412565Y-47847844D01*
X53307005Y-47862353D01*
X53306999Y-47862354D01*
X53301991Y-47863043D01*
X53297352Y-47865057D01*
X53297348Y-47865059D01*
X53166827Y-47921752D01*
X53166824Y-47921753D01*
X53162182Y-47923770D01*
X53158253Y-47926966D01*
X53158252Y-47926967D01*
X53047869Y-48016770D01*
X53047864Y-48016774D01*
X53043942Y-48019966D01*
X53041023Y-48024099D01*
X53041022Y-48024102D01*
X52958958Y-48140360D01*
X52958956Y-48140362D01*
X52956039Y-48144496D01*
X52954344Y-48149264D01*
X52954343Y-48149267D01*
X52906689Y-48283353D01*
X52904994Y-48288123D01*
X52904648Y-48293168D01*
X52904648Y-48293173D01*
X52894937Y-48435139D01*
X52894937Y-48435145D01*
X52894592Y-48440196D01*
X48226183Y-48440196D01*
X48231408Y-48363804D01*
X48200396Y-48214564D01*
X48130269Y-48079225D01*
X48039929Y-47982494D01*
X48029682Y-47971522D01*
X48029680Y-47971520D01*
X48026228Y-47967824D01*
X48021903Y-47965194D01*
X48021902Y-47965193D01*
X47950465Y-47921752D01*
X47895990Y-47888625D01*
X47891118Y-47887260D01*
X47891116Y-47887259D01*
X47754088Y-47848865D01*
X47754083Y-47848864D01*
X47749214Y-47847500D01*
X47635073Y-47847500D01*
X47632575Y-47847843D01*
X47632565Y-47847844D01*
X47527005Y-47862353D01*
X47526999Y-47862354D01*
X47521991Y-47863043D01*
X47517352Y-47865057D01*
X47517348Y-47865059D01*
X47386827Y-47921752D01*
X47386824Y-47921753D01*
X47382182Y-47923770D01*
X47378253Y-47926966D01*
X47378252Y-47926967D01*
X47267869Y-48016770D01*
X47267864Y-48016774D01*
X47263942Y-48019966D01*
X47261023Y-48024099D01*
X47261022Y-48024102D01*
X47178958Y-48140360D01*
X47178956Y-48140362D01*
X47176039Y-48144496D01*
X47174344Y-48149264D01*
X47174343Y-48149267D01*
X47126689Y-48283353D01*
X47124994Y-48288123D01*
X47124648Y-48293168D01*
X47124648Y-48293173D01*
X47114937Y-48435139D01*
X47114937Y-48435145D01*
X47114592Y-48440196D01*
X41729803Y-48440196D01*
X41740723Y-48434632D01*
X41831326Y-48344029D01*
X41889498Y-48229861D01*
X41909542Y-48103306D01*
X41889498Y-47976751D01*
X41854005Y-47907092D01*
X41833969Y-47867770D01*
X41833968Y-47867769D01*
X41831326Y-47862583D01*
X41740723Y-47771980D01*
X41735537Y-47769337D01*
X41735535Y-47769336D01*
X41631745Y-47716452D01*
X41631742Y-47716451D01*
X41626555Y-47713808D01*
X41620806Y-47712897D01*
X41620802Y-47712896D01*
X41505752Y-47694675D01*
X41500000Y-47693764D01*
X41494248Y-47694675D01*
X41379197Y-47712896D01*
X41379191Y-47712897D01*
X41373445Y-47713808D01*
X41368259Y-47716450D01*
X41368254Y-47716452D01*
X41264464Y-47769336D01*
X41264459Y-47769339D01*
X41259277Y-47771980D01*
X41255163Y-47776093D01*
X41255160Y-47776096D01*
X41217041Y-47814215D01*
X41173412Y-47835375D01*
X41126049Y-47824982D01*
X41095288Y-47787497D01*
X41094450Y-47744705D01*
X41093498Y-47744555D01*
X41093498Y-47744554D01*
X41113542Y-47618000D01*
X41093498Y-47491445D01*
X41035326Y-47377277D01*
X41031205Y-47373156D01*
X41029136Y-47370308D01*
X41015003Y-47326809D01*
X41029138Y-47283311D01*
X41030200Y-47281848D01*
X41034326Y-47277723D01*
X41092498Y-47163555D01*
X41112542Y-47037000D01*
X41092498Y-46910445D01*
X41034326Y-46796277D01*
X40943723Y-46705674D01*
X40938537Y-46703031D01*
X40938535Y-46703030D01*
X40834745Y-46650146D01*
X40834742Y-46650145D01*
X40829555Y-46647502D01*
X40823806Y-46646591D01*
X40823802Y-46646590D01*
X40708752Y-46628369D01*
X40703000Y-46627458D01*
X40697248Y-46628369D01*
X40582197Y-46646590D01*
X40582191Y-46646591D01*
X40576445Y-46647502D01*
X40571259Y-46650144D01*
X40571254Y-46650146D01*
X40467464Y-46703030D01*
X40467459Y-46703033D01*
X40462277Y-46705674D01*
X40458163Y-46709787D01*
X40458160Y-46709790D01*
X40375790Y-46792160D01*
X40375787Y-46792163D01*
X40371674Y-46796277D01*
X40369033Y-46801459D01*
X40369030Y-46801464D01*
X40316146Y-46905254D01*
X40316144Y-46905259D01*
X40313502Y-46910445D01*
X40312591Y-46916191D01*
X40312590Y-46916197D01*
X40309433Y-46936133D01*
X40293458Y-47037000D01*
X39142296Y-47037000D01*
X39157360Y-46941885D01*
X39137316Y-46815330D01*
X39079144Y-46701162D01*
X38988541Y-46610559D01*
X38983355Y-46607916D01*
X38983353Y-46607915D01*
X38879563Y-46555031D01*
X38879560Y-46555030D01*
X38874373Y-46552387D01*
X38868624Y-46551476D01*
X38868620Y-46551475D01*
X38753570Y-46533254D01*
X38747818Y-46532343D01*
X38742066Y-46533254D01*
X38627015Y-46551475D01*
X38627009Y-46551476D01*
X38621263Y-46552387D01*
X38616077Y-46555029D01*
X38616072Y-46555031D01*
X38512283Y-46607915D01*
X38512280Y-46607916D01*
X38507095Y-46610559D01*
X38502979Y-46614674D01*
X38498990Y-46617573D01*
X38455494Y-46631705D01*
X38411999Y-46617572D01*
X38408012Y-46614675D01*
X38403896Y-46610559D01*
X38398710Y-46607916D01*
X38398708Y-46607915D01*
X38294918Y-46555031D01*
X38294915Y-46555030D01*
X38289728Y-46552387D01*
X38283979Y-46551476D01*
X38283975Y-46551475D01*
X38168925Y-46533254D01*
X38163173Y-46532343D01*
X38157421Y-46533254D01*
X38042370Y-46551475D01*
X38042364Y-46551476D01*
X38036618Y-46552387D01*
X38031432Y-46555029D01*
X38031427Y-46555031D01*
X37927637Y-46607915D01*
X37927632Y-46607918D01*
X37922450Y-46610559D01*
X37918336Y-46614672D01*
X37918333Y-46614675D01*
X37835963Y-46697045D01*
X37835960Y-46697048D01*
X37831847Y-46701162D01*
X37829206Y-46706344D01*
X37829203Y-46706349D01*
X37776319Y-46810139D01*
X37776317Y-46810144D01*
X37773675Y-46815330D01*
X37772764Y-46821076D01*
X37772763Y-46821082D01*
X37754542Y-46936133D01*
X37753631Y-46941885D01*
X32300500Y-46941885D01*
X32300500Y-45092083D01*
X32300616Y-45087934D01*
X32317241Y-44791893D01*
X32318171Y-44783647D01*
X32367487Y-44493392D01*
X32369326Y-44485332D01*
X32450841Y-44202389D01*
X32453571Y-44194586D01*
X32566246Y-43922564D01*
X32569840Y-43915102D01*
X32583713Y-43890000D01*
X39610458Y-43890000D01*
X39611369Y-43895752D01*
X39629590Y-44010802D01*
X39629591Y-44010806D01*
X39630502Y-44016555D01*
X39633145Y-44021742D01*
X39633146Y-44021745D01*
X39686030Y-44125535D01*
X39686031Y-44125537D01*
X39688674Y-44130723D01*
X39779277Y-44221326D01*
X39893445Y-44279498D01*
X40020000Y-44299542D01*
X40146555Y-44279498D01*
X40260723Y-44221326D01*
X40351326Y-44130723D01*
X40409498Y-44016555D01*
X40416871Y-43970000D01*
X43299819Y-43970000D01*
X43318426Y-44087482D01*
X43372427Y-44193465D01*
X43456535Y-44277573D01*
X43562518Y-44331574D01*
X43680000Y-44350181D01*
X43797482Y-44331574D01*
X43903465Y-44277573D01*
X43987573Y-44193465D01*
X44041574Y-44087482D01*
X44060181Y-43970000D01*
X44041574Y-43852518D01*
X43987573Y-43746535D01*
X43903465Y-43662427D01*
X43797482Y-43608426D01*
X43791728Y-43607514D01*
X43791726Y-43607514D01*
X43685752Y-43590730D01*
X43680000Y-43589819D01*
X43674248Y-43590730D01*
X43568273Y-43607514D01*
X43568269Y-43607515D01*
X43562518Y-43608426D01*
X43557326Y-43611071D01*
X43557324Y-43611072D01*
X43461727Y-43659781D01*
X43461724Y-43659782D01*
X43456535Y-43662427D01*
X43452418Y-43666543D01*
X43452415Y-43666546D01*
X43376546Y-43742415D01*
X43376543Y-43742418D01*
X43372427Y-43746535D01*
X43369782Y-43751724D01*
X43369781Y-43751727D01*
X43321072Y-43847324D01*
X43318426Y-43852518D01*
X43317515Y-43858269D01*
X43317514Y-43858273D01*
X43310021Y-43905584D01*
X43299819Y-43970000D01*
X40416871Y-43970000D01*
X40429542Y-43890000D01*
X40417041Y-43811076D01*
X40422529Y-43769401D01*
X40449828Y-43737438D01*
X40490131Y-43725500D01*
X40609480Y-43725500D01*
X40614772Y-43725500D01*
X40739069Y-43689004D01*
X40848049Y-43618967D01*
X40932882Y-43521063D01*
X40986697Y-43403226D01*
X41005133Y-43275000D01*
X40986697Y-43146774D01*
X40932882Y-43028937D01*
X40892393Y-42982210D01*
X40851514Y-42935032D01*
X40848049Y-42931033D01*
X40739069Y-42860996D01*
X40733999Y-42859507D01*
X40733994Y-42859505D01*
X40619848Y-42825990D01*
X40619845Y-42825989D01*
X40614772Y-42824500D01*
X40485228Y-42824500D01*
X40480155Y-42825989D01*
X40480151Y-42825990D01*
X40366005Y-42859505D01*
X40365997Y-42859508D01*
X40360931Y-42860996D01*
X40356482Y-42863854D01*
X40356480Y-42863856D01*
X40256403Y-42928171D01*
X40256399Y-42928174D01*
X40251951Y-42931033D01*
X40248488Y-42935028D01*
X40248485Y-42935032D01*
X40170581Y-43024939D01*
X40170577Y-43024944D01*
X40167118Y-43028937D01*
X40113303Y-43146774D01*
X40112550Y-43152009D01*
X40112549Y-43152014D01*
X40096613Y-43262855D01*
X40094867Y-43275000D01*
X40095620Y-43280237D01*
X40112560Y-43398063D01*
X40104925Y-43442815D01*
X40072596Y-43474687D01*
X40031576Y-43481086D01*
X40031576Y-43481369D01*
X40029760Y-43481369D01*
X40027741Y-43481684D01*
X40020000Y-43480458D01*
X40014248Y-43481369D01*
X39899197Y-43499590D01*
X39899191Y-43499591D01*
X39893445Y-43500502D01*
X39888259Y-43503144D01*
X39888254Y-43503146D01*
X39784464Y-43556030D01*
X39784459Y-43556033D01*
X39779277Y-43558674D01*
X39775163Y-43562787D01*
X39775160Y-43562790D01*
X39692790Y-43645160D01*
X39692787Y-43645163D01*
X39688674Y-43649277D01*
X39686033Y-43654459D01*
X39686030Y-43654464D01*
X39633146Y-43758254D01*
X39633144Y-43758259D01*
X39630502Y-43763445D01*
X39629591Y-43769191D01*
X39629590Y-43769197D01*
X39617217Y-43847324D01*
X39610458Y-43890000D01*
X32583713Y-43890000D01*
X32712268Y-43657397D01*
X32716665Y-43650399D01*
X32887044Y-43410273D01*
X32892202Y-43403804D01*
X33088408Y-43184249D01*
X33094249Y-43178408D01*
X33313804Y-42982202D01*
X33320273Y-42977044D01*
X33560399Y-42806665D01*
X33567397Y-42802268D01*
X33825102Y-42659840D01*
X33832564Y-42656246D01*
X34104586Y-42543571D01*
X34112389Y-42540841D01*
X34395332Y-42459326D01*
X34403392Y-42457487D01*
X34693655Y-42408170D01*
X34701885Y-42407241D01*
X34997934Y-42390615D01*
X35002083Y-42390500D01*
X35047595Y-42390500D01*
X55848783Y-42390500D01*
X55825000Y-48750000D01*
G37*
%TD.AperFunction*%
%TD*%
M02*
